%FSLAX45Y45*%
G04 Gerber Fmt 4.5, Leading zero omitted, Abs format (unit mm)*
G04 Created by KiCad (PCBNEW (6.0.6)) date 2022-09-29 15:29:26*
%MOMM*%
%LPD*%
G01*
G04 APERTURE LIST*
%TA.AperFunction,Profile*%
%ADD10C,0.100000*%
%TD*%
%ADD11C,0.200000*%
G04 APERTURE END LIST*
D10*
X56700000Y-1400000D02*
X39100000Y-1400000D01*
X39100000Y-1400000D02*
X39100000Y-26100000D01*
X39100000Y-26100000D02*
X56700000Y-26100000D01*
X56700000Y-26100000D02*
X56700000Y-1400000D01*
D11*
X39352619Y-26415476D02*
X39352619Y-26215476D01*
X39400238Y-26215476D01*
X39428810Y-26225000D01*
X39447857Y-26244048D01*
X39457381Y-26263095D01*
X39466905Y-26301190D01*
X39466905Y-26329762D01*
X39457381Y-26367857D01*
X39447857Y-26386905D01*
X39428810Y-26405952D01*
X39400238Y-26415476D01*
X39352619Y-26415476D01*
X39552619Y-26415476D02*
X39552619Y-26282143D01*
X39552619Y-26320238D02*
X39562143Y-26301190D01*
X39571667Y-26291667D01*
X39590714Y-26282143D01*
X39609762Y-26282143D01*
X39676429Y-26415476D02*
X39676429Y-26282143D01*
X39676429Y-26215476D02*
X39666905Y-26225000D01*
X39676429Y-26234524D01*
X39685952Y-26225000D01*
X39676429Y-26215476D01*
X39676429Y-26234524D01*
X39800238Y-26415476D02*
X39781190Y-26405952D01*
X39771667Y-26386905D01*
X39771667Y-26215476D01*
X39905000Y-26415476D02*
X39885952Y-26405952D01*
X39876429Y-26386905D01*
X39876429Y-26215476D01*
X40133571Y-26415476D02*
X40133571Y-26215476D01*
X40200238Y-26358333D01*
X40266905Y-26215476D01*
X40266905Y-26415476D01*
X40447857Y-26415476D02*
X40447857Y-26310714D01*
X40438333Y-26291667D01*
X40419286Y-26282143D01*
X40381190Y-26282143D01*
X40362143Y-26291667D01*
X40447857Y-26405952D02*
X40428810Y-26415476D01*
X40381190Y-26415476D01*
X40362143Y-26405952D01*
X40352619Y-26386905D01*
X40352619Y-26367857D01*
X40362143Y-26348809D01*
X40381190Y-26339286D01*
X40428810Y-26339286D01*
X40447857Y-26329762D01*
X40543095Y-26282143D02*
X40543095Y-26482143D01*
X40543095Y-26291667D02*
X40562143Y-26282143D01*
X40600238Y-26282143D01*
X40619286Y-26291667D01*
X40628810Y-26301190D01*
X40638333Y-26320238D01*
X40638333Y-26377381D01*
X40628810Y-26396428D01*
X40619286Y-26405952D01*
X40600238Y-26415476D01*
X40562143Y-26415476D01*
X40543095Y-26405952D01*
X40724048Y-26396428D02*
X40733571Y-26405952D01*
X40724048Y-26415476D01*
X40714524Y-26405952D01*
X40724048Y-26396428D01*
X40724048Y-26415476D01*
X40724048Y-26291667D02*
X40733571Y-26301190D01*
X40724048Y-26310714D01*
X40714524Y-26301190D01*
X40724048Y-26291667D01*
X40724048Y-26310714D01*
M02*
