%TF.GenerationSoftware,KiCad,Pcbnew,(6.0.6)*%
%TF.CreationDate,2022-09-29T15:29:04+08:00*%
%TF.ProjectId,7SegmentDisplay_DualLine_8Inches,37536567-6d65-46e7-9444-6973706c6179,rev?*%
%TF.SameCoordinates,Original*%
%TF.FileFunction,Legend,Top*%
%TF.FilePolarity,Positive*%
%FSLAX46Y46*%
G04 Gerber Fmt 4.6, Leading zero omitted, Abs format (unit mm)*
G04 Created by KiCad (PCBNEW (6.0.6)) date 2022-09-29 15:29:04*
%MOMM*%
%LPD*%
G01*
G04 APERTURE LIST*
%ADD10C,0.150000*%
%ADD11C,0.120000*%
%ADD12C,0.900000*%
%ADD13C,8.000000*%
%ADD14R,1.800000X1.800000*%
%ADD15C,1.800000*%
%ADD16C,2.200000*%
%ADD17O,2.200000X2.200000*%
%ADD18C,1.600000*%
%ADD19O,1.600000X1.600000*%
%ADD20R,1.700000X1.700000*%
%ADD21O,1.700000X1.700000*%
%ADD22R,2.400000X1.600000*%
%ADD23O,2.400000X1.600000*%
G04 APERTURE END LIST*
D10*
%TO.C,*%
D11*
%TO.C,REF\u002A\u002A*%
X527805000Y-163795000D02*
X527805000Y-160705000D01*
X527805000Y-160705170D02*
G75*
G03*
X522255000Y-162250462I-2560000J-1544830D01*
G01*
X522255000Y-162249538D02*
G75*
G03*
X527805000Y-163794830I2990000J-462D01*
G01*
X527745000Y-162250000D02*
G75*
G03*
X527745000Y-162250000I-2500000J0D01*
G01*
X465845000Y-142545000D02*
X465845000Y-139455000D01*
X465845000Y-139455170D02*
G75*
G03*
X460295000Y-141000462I-2560000J-1544830D01*
G01*
X460295000Y-140999538D02*
G75*
G03*
X465845000Y-142544830I2990000J-462D01*
G01*
X465785000Y-141000000D02*
G75*
G03*
X465785000Y-141000000I-2500000J0D01*
G01*
X527775000Y-226795000D02*
X527775000Y-223705000D01*
X527775000Y-223705170D02*
G75*
G03*
X522225000Y-225250462I-2560000J-1544830D01*
G01*
X522225000Y-225249538D02*
G75*
G03*
X527775000Y-226794830I2990000J-462D01*
G01*
X527715000Y-225250000D02*
G75*
G03*
X527715000Y-225250000I-2500000J0D01*
G01*
X424895000Y-174295000D02*
X424895000Y-171205000D01*
X424895000Y-171205170D02*
G75*
G03*
X419345000Y-172750462I-2560000J-1544830D01*
G01*
X419345000Y-172749538D02*
G75*
G03*
X424895000Y-174294830I2990000J-462D01*
G01*
X424835000Y-172750000D02*
G75*
G03*
X424835000Y-172750000I-2500000J0D01*
G01*
X436870000Y-138545000D02*
X436870000Y-135455000D01*
X436870000Y-135455170D02*
G75*
G03*
X431320000Y-137000462I-2560000J-1544830D01*
G01*
X431320000Y-136999538D02*
G75*
G03*
X436870000Y-138544830I2990000J-462D01*
G01*
X436810000Y-137000000D02*
G75*
G03*
X436810000Y-137000000I-2500000J0D01*
G01*
X512833500Y-85373000D02*
X520326500Y-85373000D01*
X512833500Y-85627000D02*
X520326500Y-85627000D01*
X455385000Y-134545000D02*
X455385000Y-131455000D01*
X455385000Y-131455170D02*
G75*
G03*
X449835000Y-133000462I-2560000J-1544830D01*
G01*
X449835000Y-132999538D02*
G75*
G03*
X455385000Y-134544830I2990000J-462D01*
G01*
X455325000Y-133000000D02*
G75*
G03*
X455325000Y-133000000I-2500000J0D01*
G01*
X489333500Y-69873000D02*
X496826500Y-69873000D01*
X489333500Y-70127000D02*
X496826500Y-70127000D01*
X540253500Y-168373000D02*
X547746500Y-168373000D01*
X540253500Y-168627000D02*
X547746500Y-168627000D01*
X543015000Y-84850000D02*
X543015000Y-78310000D01*
X541645000Y-77540000D02*
X541645000Y-78310000D01*
X540275000Y-78310000D02*
X540275000Y-84850000D01*
X543015000Y-78310000D02*
X540275000Y-78310000D01*
X541645000Y-85620000D02*
X541645000Y-84850000D01*
X540275000Y-84850000D02*
X543015000Y-84850000D01*
X526345000Y-138545000D02*
X526345000Y-135455000D01*
X526345000Y-135455170D02*
G75*
G03*
X520795000Y-137000462I-2560000J-1544830D01*
G01*
X520795000Y-136999538D02*
G75*
G03*
X526345000Y-138544830I2990000J-462D01*
G01*
X526285000Y-137000000D02*
G75*
G03*
X526285000Y-137000000I-2500000J0D01*
G01*
X490020000Y-145130000D02*
X483480000Y-145130000D01*
X482710000Y-146500000D02*
X483480000Y-146500000D01*
X483480000Y-147870000D02*
X490020000Y-147870000D01*
X483480000Y-145130000D02*
X483480000Y-147870000D01*
X490790000Y-146500000D02*
X490020000Y-146500000D01*
X490020000Y-147870000D02*
X490020000Y-145130000D01*
X476020000Y-42130000D02*
X469480000Y-42130000D01*
X468710000Y-43500000D02*
X469480000Y-43500000D01*
X469480000Y-44870000D02*
X476020000Y-44870000D01*
X469480000Y-42130000D02*
X469480000Y-44870000D01*
X476790000Y-43500000D02*
X476020000Y-43500000D01*
X476020000Y-44870000D02*
X476020000Y-42130000D01*
X497547500Y-237552500D02*
X497547500Y-234462500D01*
X497547500Y-234462670D02*
G75*
G03*
X491997500Y-236007962I-2560000J-1544830D01*
G01*
X491997500Y-236007038D02*
G75*
G03*
X497547500Y-237552330I2990000J-462D01*
G01*
X497487500Y-236007500D02*
G75*
G03*
X497487500Y-236007500I-2500000J0D01*
G01*
X543095000Y-187850000D02*
X543095000Y-181310000D01*
X541725000Y-180540000D02*
X541725000Y-181310000D01*
X540355000Y-181310000D02*
X540355000Y-187850000D01*
X543095000Y-181310000D02*
X540355000Y-181310000D01*
X541725000Y-188620000D02*
X541725000Y-187850000D01*
X540355000Y-187850000D02*
X543095000Y-187850000D01*
X448512500Y-248137500D02*
X441972500Y-248137500D01*
X441202500Y-249507500D02*
X441972500Y-249507500D01*
X441972500Y-250877500D02*
X448512500Y-250877500D01*
X441972500Y-248137500D02*
X441972500Y-250877500D01*
X449282500Y-249507500D02*
X448512500Y-249507500D01*
X448512500Y-250877500D02*
X448512500Y-248137500D01*
X440120000Y-57100000D02*
X440120000Y-50560000D01*
X438750000Y-49790000D02*
X438750000Y-50560000D01*
X437380000Y-50560000D02*
X437380000Y-57100000D01*
X440120000Y-50560000D02*
X437380000Y-50560000D01*
X438750000Y-57870000D02*
X438750000Y-57100000D01*
X437380000Y-57100000D02*
X440120000Y-57100000D01*
X424815000Y-102795000D02*
X424815000Y-99705000D01*
X424815000Y-99705170D02*
G75*
G03*
X419265000Y-101250462I-2560000J-1544830D01*
G01*
X419265000Y-101249538D02*
G75*
G03*
X424815000Y-102794830I2990000J-462D01*
G01*
X424755000Y-101250000D02*
G75*
G03*
X424755000Y-101250000I-2500000J0D01*
G01*
X435395000Y-153295000D02*
X435395000Y-150205000D01*
X435395000Y-150205170D02*
G75*
G03*
X429845000Y-151750462I-2560000J-1544830D01*
G01*
X429845000Y-151749538D02*
G75*
G03*
X435395000Y-153294830I2990000J-462D01*
G01*
X435335000Y-151750000D02*
G75*
G03*
X435335000Y-151750000I-2500000J0D01*
G01*
X420253500Y-134873000D02*
X427746500Y-134873000D01*
X420253500Y-135127000D02*
X427746500Y-135127000D01*
X440200000Y-173930000D02*
X440200000Y-167390000D01*
X438830000Y-166620000D02*
X438830000Y-167390000D01*
X437460000Y-167390000D02*
X437460000Y-173930000D01*
X440200000Y-167390000D02*
X437460000Y-167390000D01*
X438830000Y-174700000D02*
X438830000Y-173930000D01*
X437460000Y-173930000D02*
X440200000Y-173930000D01*
X517690000Y-42130000D02*
X511150000Y-42130000D01*
X510380000Y-43500000D02*
X511150000Y-43500000D01*
X511150000Y-44870000D02*
X517690000Y-44870000D01*
X511150000Y-42130000D02*
X511150000Y-44870000D01*
X518460000Y-43500000D02*
X517690000Y-43500000D01*
X517690000Y-44870000D02*
X517690000Y-42130000D01*
X514833500Y-167373000D02*
X527406500Y-167373000D01*
X514833500Y-167627000D02*
X527406500Y-167627000D01*
X410253500Y-66373000D02*
X417746500Y-66373000D01*
X410253500Y-66627000D02*
X417746500Y-66627000D01*
X462180000Y-145130000D02*
X455640000Y-145130000D01*
X454870000Y-146500000D02*
X455640000Y-146500000D01*
X455640000Y-147870000D02*
X462180000Y-147870000D01*
X455640000Y-145130000D02*
X455640000Y-147870000D01*
X462950000Y-146500000D02*
X462180000Y-146500000D01*
X462180000Y-147870000D02*
X462180000Y-145130000D01*
X486845000Y-134545000D02*
X486845000Y-131455000D01*
X486845000Y-131455170D02*
G75*
G03*
X481295000Y-133000462I-2560000J-1544830D01*
G01*
X481295000Y-132999538D02*
G75*
G03*
X486845000Y-134544830I2990000J-462D01*
G01*
X486785000Y-133000000D02*
G75*
G03*
X486785000Y-133000000I-2500000J0D01*
G01*
X424815000Y-81795000D02*
X424815000Y-78705000D01*
X424815000Y-78705170D02*
G75*
G03*
X419265000Y-80250462I-2560000J-1544830D01*
G01*
X419265000Y-80249538D02*
G75*
G03*
X424815000Y-81794830I2990000J-462D01*
G01*
X424755000Y-80250000D02*
G75*
G03*
X424755000Y-80250000I-2500000J0D01*
G01*
X424895000Y-205795000D02*
X424895000Y-202705000D01*
X424895000Y-202705170D02*
G75*
G03*
X419345000Y-204250462I-2560000J-1544830D01*
G01*
X419345000Y-204249538D02*
G75*
G03*
X424895000Y-205794830I2990000J-462D01*
G01*
X424835000Y-204250000D02*
G75*
G03*
X424835000Y-204250000I-2500000J0D01*
G01*
X527695000Y-92295000D02*
X527695000Y-89205000D01*
X527695000Y-89205170D02*
G75*
G03*
X522145000Y-90750462I-2560000J-1544830D01*
G01*
X522145000Y-90749538D02*
G75*
G03*
X527695000Y-92294830I2990000J-462D01*
G01*
X527635000Y-90750000D02*
G75*
G03*
X527635000Y-90750000I-2500000J0D01*
G01*
X455305000Y-31545000D02*
X455305000Y-28455000D01*
X455305000Y-28455170D02*
G75*
G03*
X449755000Y-30000462I-2560000J-1544830D01*
G01*
X449755000Y-29999538D02*
G75*
G03*
X455305000Y-31544830I2990000J-462D01*
G01*
X455245000Y-30000000D02*
G75*
G03*
X455245000Y-30000000I-2500000J0D01*
G01*
X440120000Y-126520000D02*
X440120000Y-119980000D01*
X438750000Y-119210000D02*
X438750000Y-119980000D01*
X437380000Y-119980000D02*
X437380000Y-126520000D01*
X440120000Y-119980000D02*
X437380000Y-119980000D01*
X438750000Y-127290000D02*
X438750000Y-126520000D01*
X437380000Y-126520000D02*
X440120000Y-126520000D01*
X543095000Y-201770000D02*
X543095000Y-195230000D01*
X541725000Y-194460000D02*
X541725000Y-195230000D01*
X540355000Y-195230000D02*
X540355000Y-201770000D01*
X543095000Y-195230000D02*
X540355000Y-195230000D01*
X541725000Y-202540000D02*
X541725000Y-201770000D01*
X540355000Y-201770000D02*
X543095000Y-201770000D01*
X392670000Y-77270000D02*
X395330000Y-77270000D01*
X392670000Y-77270000D02*
X392670000Y-95110000D01*
X392670000Y-95110000D02*
X395330000Y-95110000D01*
X392670000Y-76000000D02*
X392670000Y-74670000D01*
X395330000Y-77270000D02*
X395330000Y-95110000D01*
X392670000Y-74670000D02*
X394000000Y-74670000D01*
X435395000Y-205795000D02*
X435395000Y-202705000D01*
X435395000Y-202705170D02*
G75*
G03*
X429845000Y-204250462I-2560000J-1544830D01*
G01*
X429845000Y-204249538D02*
G75*
G03*
X435395000Y-205794830I2990000J-462D01*
G01*
X435335000Y-204250000D02*
G75*
G03*
X435335000Y-204250000I-2500000J0D01*
G01*
X508047500Y-237552500D02*
X508047500Y-234462500D01*
X508047500Y-234462670D02*
G75*
G03*
X502497500Y-236007962I-2560000J-1544830D01*
G01*
X502497500Y-236007038D02*
G75*
G03*
X508047500Y-237552330I2990000J-462D01*
G01*
X507987500Y-236007500D02*
G75*
G03*
X507987500Y-236007500I-2500000J0D01*
G01*
X510373000Y-68166500D02*
X510373000Y-60673500D01*
X510627000Y-68166500D02*
X510627000Y-60673500D01*
X435380000Y-195295000D02*
X435380000Y-192205000D01*
X435380000Y-192205170D02*
G75*
G03*
X429830000Y-193750462I-2560000J-1544830D01*
G01*
X429830000Y-193749538D02*
G75*
G03*
X435380000Y-195294830I2990000J-462D01*
G01*
X435320000Y-193750000D02*
G75*
G03*
X435320000Y-193750000I-2500000J0D01*
G01*
X445007500Y-237552500D02*
X445007500Y-234462500D01*
X445007500Y-234462670D02*
G75*
G03*
X439457500Y-236007962I-2560000J-1544830D01*
G01*
X439457500Y-236007038D02*
G75*
G03*
X445007500Y-237552330I2990000J-462D01*
G01*
X444947500Y-236007500D02*
G75*
G03*
X444947500Y-236007500I-2500000J0D01*
G01*
X538275000Y-226795000D02*
X538275000Y-223705000D01*
X538275000Y-223705170D02*
G75*
G03*
X532725000Y-225250462I-2560000J-1544830D01*
G01*
X532725000Y-225249538D02*
G75*
G03*
X538275000Y-226794830I2990000J-462D01*
G01*
X538215000Y-225250000D02*
G75*
G03*
X538215000Y-225250000I-2500000J0D01*
G01*
X410753500Y-116373000D02*
X418246500Y-116373000D01*
X410753500Y-116627000D02*
X418246500Y-116627000D01*
X510873000Y-133746500D02*
X510873000Y-126253500D01*
X511127000Y-133746500D02*
X511127000Y-126253500D01*
X452166500Y-113627000D02*
X444673500Y-113627000D01*
X452166500Y-113373000D02*
X444673500Y-113373000D01*
X552373000Y-78246500D02*
X552373000Y-70753500D01*
X552627000Y-78246500D02*
X552627000Y-70753500D01*
X424800000Y-92295000D02*
X424800000Y-89205000D01*
X424800000Y-89205170D02*
G75*
G03*
X419250000Y-90750462I-2560000J-1544830D01*
G01*
X419250000Y-90749538D02*
G75*
G03*
X424800000Y-92294830I2990000J-462D01*
G01*
X424740000Y-90750000D02*
G75*
G03*
X424740000Y-90750000I-2500000J0D01*
G01*
X538210000Y-102795000D02*
X538210000Y-99705000D01*
X538210000Y-99705170D02*
G75*
G03*
X532660000Y-101250462I-2560000J-1544830D01*
G01*
X532660000Y-101249538D02*
G75*
G03*
X538210000Y-102794830I2990000J-462D01*
G01*
X538150000Y-101250000D02*
G75*
G03*
X538150000Y-101250000I-2500000J0D01*
G01*
X476345000Y-142545000D02*
X476345000Y-139455000D01*
X476345000Y-139455170D02*
G75*
G03*
X470795000Y-141000462I-2560000J-1544830D01*
G01*
X470795000Y-140999538D02*
G75*
G03*
X476345000Y-142544830I2990000J-462D01*
G01*
X476285000Y-141000000D02*
G75*
G03*
X476285000Y-141000000I-2500000J0D01*
G01*
X430065000Y-131795000D02*
X430065000Y-128705000D01*
X430065000Y-128705170D02*
G75*
G03*
X424515000Y-130250462I-2560000J-1544830D01*
G01*
X424515000Y-130249538D02*
G75*
G03*
X430065000Y-131794830I2990000J-462D01*
G01*
X430005000Y-130250000D02*
G75*
G03*
X430005000Y-130250000I-2500000J0D01*
G01*
X527775000Y-195295000D02*
X527775000Y-192205000D01*
X527775000Y-192205170D02*
G75*
G03*
X522225000Y-193750462I-2560000J-1544830D01*
G01*
X522225000Y-193749538D02*
G75*
G03*
X527775000Y-195294830I2990000J-462D01*
G01*
X527715000Y-193750000D02*
G75*
G03*
X527715000Y-193750000I-2500000J0D01*
G01*
X457127000Y-72673500D02*
X457127000Y-80166500D01*
X456873000Y-72673500D02*
X456873000Y-80166500D01*
X527790000Y-184795000D02*
X527790000Y-181705000D01*
X527790000Y-181705170D02*
G75*
G03*
X522240000Y-183250462I-2560000J-1544830D01*
G01*
X522240000Y-183249538D02*
G75*
G03*
X527790000Y-184794830I2990000J-462D01*
G01*
X527730000Y-183250000D02*
G75*
G03*
X527730000Y-183250000I-2500000J0D01*
G01*
X466007500Y-237552500D02*
X466007500Y-234462500D01*
X466007500Y-234462670D02*
G75*
G03*
X460457500Y-236007962I-2560000J-1544830D01*
G01*
X460457500Y-236007038D02*
G75*
G03*
X466007500Y-237552330I2990000J-462D01*
G01*
X465947500Y-236007500D02*
G75*
G03*
X465947500Y-236007500I-2500000J0D01*
G01*
X416373000Y-129746500D02*
X416373000Y-122253500D01*
X416627000Y-129746500D02*
X416627000Y-122253500D01*
X554873000Y-89746500D02*
X554873000Y-82253500D01*
X555127000Y-89746500D02*
X555127000Y-82253500D01*
X420246500Y-35627000D02*
X412753500Y-35627000D01*
X420246500Y-35373000D02*
X412753500Y-35373000D01*
X435300000Y-92295000D02*
X435300000Y-89205000D01*
X435300000Y-89205170D02*
G75*
G03*
X429750000Y-90750462I-2560000J-1544830D01*
G01*
X429750000Y-90749538D02*
G75*
G03*
X435300000Y-92294830I2990000J-462D01*
G01*
X435240000Y-90750000D02*
G75*
G03*
X435240000Y-90750000I-2500000J0D01*
G01*
X496826500Y-56127000D02*
X489333500Y-56127000D01*
X496826500Y-55873000D02*
X489333500Y-55873000D01*
X435395000Y-174295000D02*
X435395000Y-171205000D01*
X435395000Y-171205170D02*
G75*
G03*
X429845000Y-172750462I-2560000J-1544830D01*
G01*
X429845000Y-172749538D02*
G75*
G03*
X435395000Y-174294830I2990000J-462D01*
G01*
X435335000Y-172750000D02*
G75*
G03*
X435335000Y-172750000I-2500000J0D01*
G01*
X527710000Y-113295000D02*
X527710000Y-110205000D01*
X527710000Y-110205170D02*
G75*
G03*
X522160000Y-111750462I-2560000J-1544830D01*
G01*
X522160000Y-111749538D02*
G75*
G03*
X527710000Y-113294830I2990000J-462D01*
G01*
X527650000Y-111750000D02*
G75*
G03*
X527650000Y-111750000I-2500000J0D01*
G01*
X424815000Y-50295000D02*
X424815000Y-47205000D01*
X424815000Y-47205170D02*
G75*
G03*
X419265000Y-48750462I-2560000J-1544830D01*
G01*
X419265000Y-48749538D02*
G75*
G03*
X424815000Y-50294830I2990000J-462D01*
G01*
X424755000Y-48750000D02*
G75*
G03*
X424755000Y-48750000I-2500000J0D01*
G01*
X489333500Y-66373000D02*
X496826500Y-66373000D01*
X489333500Y-66627000D02*
X496826500Y-66627000D01*
X424815000Y-71295000D02*
X424815000Y-68205000D01*
X424815000Y-68205170D02*
G75*
G03*
X419265000Y-69750462I-2560000J-1544830D01*
G01*
X419265000Y-69749538D02*
G75*
G03*
X424815000Y-71294830I2990000J-462D01*
G01*
X424755000Y-69750000D02*
G75*
G03*
X424755000Y-69750000I-2500000J0D01*
G01*
X440200000Y-187850000D02*
X440200000Y-181310000D01*
X438830000Y-180540000D02*
X438830000Y-181310000D01*
X437460000Y-181310000D02*
X437460000Y-187850000D01*
X440200000Y-181310000D02*
X437460000Y-181310000D01*
X438830000Y-188620000D02*
X438830000Y-187850000D01*
X437460000Y-187850000D02*
X440200000Y-187850000D01*
X454127000Y-82753500D02*
X454127000Y-90246500D01*
X453873000Y-82753500D02*
X453873000Y-90246500D01*
X430040000Y-42295000D02*
X430040000Y-39205000D01*
X430040000Y-39205170D02*
G75*
G03*
X424490000Y-40750462I-2560000J-1544830D01*
G01*
X424490000Y-40749538D02*
G75*
G03*
X430040000Y-42294830I2990000J-462D01*
G01*
X429980000Y-40750000D02*
G75*
G03*
X429980000Y-40750000I-2500000J0D01*
G01*
X448270000Y-42130000D02*
X441730000Y-42130000D01*
X440960000Y-43500000D02*
X441730000Y-43500000D01*
X441730000Y-44870000D02*
X448270000Y-44870000D01*
X441730000Y-42130000D02*
X441730000Y-44870000D01*
X449040000Y-43500000D02*
X448270000Y-43500000D01*
X448270000Y-44870000D02*
X448270000Y-42130000D01*
X538225000Y-60795000D02*
X538225000Y-57705000D01*
X538225000Y-57705170D02*
G75*
G03*
X532675000Y-59250462I-2560000J-1544830D01*
G01*
X532675000Y-59249538D02*
G75*
G03*
X538225000Y-60794830I2990000J-462D01*
G01*
X538165000Y-59250000D02*
G75*
G03*
X538165000Y-59250000I-2500000J0D01*
G01*
X470253500Y-103373000D02*
X477746500Y-103373000D01*
X470253500Y-103627000D02*
X477746500Y-103627000D01*
X543015000Y-70930000D02*
X543015000Y-64390000D01*
X541645000Y-63620000D02*
X541645000Y-64390000D01*
X540275000Y-64390000D02*
X540275000Y-70930000D01*
X543015000Y-64390000D02*
X540275000Y-64390000D01*
X541645000Y-71700000D02*
X541645000Y-70930000D01*
X540275000Y-70930000D02*
X543015000Y-70930000D01*
X510373000Y-30746500D02*
X510373000Y-23253500D01*
X510627000Y-30746500D02*
X510627000Y-23253500D01*
X479873000Y-153166500D02*
X479873000Y-145673500D01*
X480127000Y-153166500D02*
X480127000Y-145673500D01*
X444845000Y-142545000D02*
X444845000Y-139455000D01*
X444845000Y-139455170D02*
G75*
G03*
X439295000Y-141000462I-2560000J-1544830D01*
G01*
X439295000Y-140999538D02*
G75*
G03*
X444845000Y-142544830I2990000J-462D01*
G01*
X444785000Y-141000000D02*
G75*
G03*
X444785000Y-141000000I-2500000J0D01*
G01*
X497305000Y-39545000D02*
X497305000Y-36455000D01*
X497305000Y-36455170D02*
G75*
G03*
X491755000Y-38000462I-2560000J-1544830D01*
G01*
X491755000Y-37999538D02*
G75*
G03*
X497305000Y-39544830I2990000J-462D01*
G01*
X497245000Y-38000000D02*
G75*
G03*
X497245000Y-38000000I-2500000J0D01*
G01*
X532960000Y-131795000D02*
X532960000Y-128705000D01*
X532960000Y-128705170D02*
G75*
G03*
X527410000Y-130250462I-2560000J-1544830D01*
G01*
X527410000Y-130249538D02*
G75*
G03*
X532960000Y-131794830I2990000J-462D01*
G01*
X532900000Y-130250000D02*
G75*
G03*
X532900000Y-130250000I-2500000J0D01*
G01*
X440120000Y-98770000D02*
X440120000Y-92230000D01*
X438750000Y-91460000D02*
X438750000Y-92230000D01*
X437380000Y-92230000D02*
X437380000Y-98770000D01*
X440120000Y-92230000D02*
X437380000Y-92230000D01*
X438750000Y-99540000D02*
X438750000Y-98770000D01*
X437380000Y-98770000D02*
X440120000Y-98770000D01*
X518385000Y-134545000D02*
X518385000Y-131455000D01*
X518385000Y-131455170D02*
G75*
G03*
X512835000Y-133000462I-2560000J-1544830D01*
G01*
X512835000Y-132999538D02*
G75*
G03*
X518385000Y-134544830I2990000J-462D01*
G01*
X518325000Y-133000000D02*
G75*
G03*
X518325000Y-133000000I-2500000J0D01*
G01*
X444845000Y-134545000D02*
X444845000Y-131455000D01*
X444845000Y-131455170D02*
G75*
G03*
X439295000Y-133000462I-2560000J-1544830D01*
G01*
X439295000Y-132999538D02*
G75*
G03*
X444845000Y-134544830I2990000J-462D01*
G01*
X444785000Y-133000000D02*
G75*
G03*
X444785000Y-133000000I-2500000J0D01*
G01*
X476262500Y-248137500D02*
X469722500Y-248137500D01*
X468952500Y-249507500D02*
X469722500Y-249507500D01*
X469722500Y-250877500D02*
X476262500Y-250877500D01*
X469722500Y-248137500D02*
X469722500Y-250877500D01*
X477032500Y-249507500D02*
X476262500Y-249507500D01*
X476262500Y-250877500D02*
X476262500Y-248137500D01*
X527790000Y-205795000D02*
X527790000Y-202705000D01*
X527790000Y-202705170D02*
G75*
G03*
X522240000Y-204250462I-2560000J-1544830D01*
G01*
X522240000Y-204249538D02*
G75*
G03*
X527790000Y-205794830I2990000J-462D01*
G01*
X527730000Y-204250000D02*
G75*
G03*
X527730000Y-204250000I-2500000J0D01*
G01*
X435315000Y-113295000D02*
X435315000Y-110205000D01*
X435315000Y-110205170D02*
G75*
G03*
X429765000Y-111750462I-2560000J-1544830D01*
G01*
X429765000Y-111749538D02*
G75*
G03*
X435315000Y-113294830I2990000J-462D01*
G01*
X435255000Y-111750000D02*
G75*
G03*
X435255000Y-111750000I-2500000J0D01*
G01*
X435380000Y-226795000D02*
X435380000Y-223705000D01*
X435380000Y-223705170D02*
G75*
G03*
X429830000Y-225250462I-2560000J-1544830D01*
G01*
X429830000Y-225249538D02*
G75*
G03*
X435380000Y-226794830I2990000J-462D01*
G01*
X435320000Y-225250000D02*
G75*
G03*
X435320000Y-225250000I-2500000J0D01*
G01*
X476507500Y-245552500D02*
X476507500Y-242462500D01*
X476507500Y-242462670D02*
G75*
G03*
X470957500Y-244007962I-2560000J-1544830D01*
G01*
X470957500Y-244007038D02*
G75*
G03*
X476507500Y-245552330I2990000J-462D01*
G01*
X476447500Y-244007500D02*
G75*
G03*
X476447500Y-244007500I-2500000J0D01*
G01*
X538290000Y-184795000D02*
X538290000Y-181705000D01*
X538290000Y-181705170D02*
G75*
G03*
X532740000Y-183250462I-2560000J-1544830D01*
G01*
X532740000Y-183249538D02*
G75*
G03*
X538290000Y-184794830I2990000J-462D01*
G01*
X538230000Y-183250000D02*
G75*
G03*
X538230000Y-183250000I-2500000J0D01*
G01*
X424800000Y-123795000D02*
X424800000Y-120705000D01*
X424800000Y-120705170D02*
G75*
G03*
X419250000Y-122250462I-2560000J-1544830D01*
G01*
X419250000Y-122249538D02*
G75*
G03*
X424800000Y-123794830I2990000J-462D01*
G01*
X424740000Y-122250000D02*
G75*
G03*
X424740000Y-122250000I-2500000J0D01*
G01*
X527710000Y-81795000D02*
X527710000Y-78705000D01*
X527710000Y-78705170D02*
G75*
G03*
X522160000Y-80250462I-2560000J-1544830D01*
G01*
X522160000Y-80249538D02*
G75*
G03*
X527710000Y-81794830I2990000J-462D01*
G01*
X527650000Y-80250000D02*
G75*
G03*
X527650000Y-80250000I-2500000J0D01*
G01*
X552873000Y-138666500D02*
X552873000Y-131173500D01*
X553127000Y-138666500D02*
X553127000Y-131173500D01*
X435395000Y-216295000D02*
X435395000Y-213205000D01*
X435395000Y-213205170D02*
G75*
G03*
X429845000Y-214750462I-2560000J-1544830D01*
G01*
X429845000Y-214749538D02*
G75*
G03*
X435395000Y-216294830I2990000J-462D01*
G01*
X435335000Y-214750000D02*
G75*
G03*
X435335000Y-214750000I-2500000J0D01*
G01*
X457873000Y-130666500D02*
X457873000Y-123173500D01*
X458127000Y-130666500D02*
X458127000Y-123173500D01*
X527710000Y-102795000D02*
X527710000Y-99705000D01*
X527710000Y-99705170D02*
G75*
G03*
X522160000Y-101250462I-2560000J-1544830D01*
G01*
X522160000Y-101249538D02*
G75*
G03*
X527710000Y-102794830I2990000J-462D01*
G01*
X527650000Y-101250000D02*
G75*
G03*
X527650000Y-101250000I-2500000J0D01*
G01*
X492127000Y-87753500D02*
X492127000Y-95246500D01*
X491873000Y-87753500D02*
X491873000Y-95246500D01*
X424830000Y-60795000D02*
X424830000Y-57705000D01*
X424830000Y-57705170D02*
G75*
G03*
X419280000Y-59250462I-2560000J-1544830D01*
G01*
X419280000Y-59249538D02*
G75*
G03*
X424830000Y-60794830I2990000J-462D01*
G01*
X424770000Y-59250000D02*
G75*
G03*
X424770000Y-59250000I-2500000J0D01*
G01*
X476507500Y-237552500D02*
X476507500Y-234462500D01*
X476507500Y-234462670D02*
G75*
G03*
X470957500Y-236007962I-2560000J-1544830D01*
G01*
X470957500Y-236007038D02*
G75*
G03*
X476507500Y-237552330I2990000J-462D01*
G01*
X476447500Y-236007500D02*
G75*
G03*
X476447500Y-236007500I-2500000J0D01*
G01*
X527790000Y-216295000D02*
X527790000Y-213205000D01*
X527790000Y-213205170D02*
G75*
G03*
X522240000Y-214750462I-2560000J-1544830D01*
G01*
X522240000Y-214749538D02*
G75*
G03*
X527790000Y-216294830I2990000J-462D01*
G01*
X527730000Y-214750000D02*
G75*
G03*
X527730000Y-214750000I-2500000J0D01*
G01*
X460373000Y-90246500D02*
X460373000Y-82753500D01*
X460627000Y-90246500D02*
X460627000Y-82753500D01*
X435300000Y-123795000D02*
X435300000Y-120705000D01*
X435300000Y-120705170D02*
G75*
G03*
X429750000Y-122250462I-2560000J-1544830D01*
G01*
X429750000Y-122249538D02*
G75*
G03*
X435300000Y-123794830I2990000J-462D01*
G01*
X435240000Y-122250000D02*
G75*
G03*
X435240000Y-122250000I-2500000J0D01*
G01*
X440120000Y-112600000D02*
X440120000Y-106060000D01*
X438750000Y-105290000D02*
X438750000Y-106060000D01*
X437380000Y-106060000D02*
X437380000Y-112600000D01*
X440120000Y-106060000D02*
X437380000Y-106060000D01*
X438750000Y-113370000D02*
X438750000Y-112600000D01*
X437380000Y-112600000D02*
X440120000Y-112600000D01*
X503850000Y-145130000D02*
X497310000Y-145130000D01*
X496540000Y-146500000D02*
X497310000Y-146500000D01*
X497310000Y-147870000D02*
X503850000Y-147870000D01*
X497310000Y-145130000D02*
X497310000Y-147870000D01*
X504620000Y-146500000D02*
X503850000Y-146500000D01*
X503850000Y-147870000D02*
X503850000Y-145130000D01*
X513753500Y-219873000D02*
X521246500Y-219873000D01*
X513753500Y-220127000D02*
X521246500Y-220127000D01*
X430145000Y-234795000D02*
X430145000Y-231705000D01*
X430145000Y-231705170D02*
G75*
G03*
X424595000Y-233250462I-2560000J-1544830D01*
G01*
X424595000Y-233249538D02*
G75*
G03*
X430145000Y-234794830I2990000J-462D01*
G01*
X430085000Y-233250000D02*
G75*
G03*
X430085000Y-233250000I-2500000J0D01*
G01*
X445007500Y-245552500D02*
X445007500Y-242462500D01*
X445007500Y-242462670D02*
G75*
G03*
X439457500Y-244007962I-2560000J-1544830D01*
G01*
X439457500Y-244007038D02*
G75*
G03*
X445007500Y-245552330I2990000J-462D01*
G01*
X444947500Y-244007500D02*
G75*
G03*
X444947500Y-244007500I-2500000J0D01*
G01*
X424880000Y-195295000D02*
X424880000Y-192205000D01*
X424880000Y-192205170D02*
G75*
G03*
X419330000Y-193750462I-2560000J-1544830D01*
G01*
X419330000Y-193749538D02*
G75*
G03*
X424880000Y-195294830I2990000J-462D01*
G01*
X424820000Y-193750000D02*
G75*
G03*
X424820000Y-193750000I-2500000J0D01*
G01*
X563170000Y-77395000D02*
X565830000Y-77395000D01*
X563170000Y-77395000D02*
X563170000Y-95235000D01*
X563170000Y-95235000D02*
X565830000Y-95235000D01*
X563170000Y-76125000D02*
X563170000Y-74795000D01*
X565830000Y-77395000D02*
X565830000Y-95235000D01*
X563170000Y-74795000D02*
X564500000Y-74795000D01*
X489333500Y-62873000D02*
X496826500Y-62873000D01*
X489333500Y-63127000D02*
X496826500Y-63127000D01*
X489940000Y-42130000D02*
X483400000Y-42130000D01*
X482630000Y-43500000D02*
X483400000Y-43500000D01*
X483400000Y-44870000D02*
X489940000Y-44870000D01*
X483400000Y-42130000D02*
X483400000Y-44870000D01*
X490710000Y-43500000D02*
X489940000Y-43500000D01*
X489940000Y-44870000D02*
X489940000Y-42130000D01*
X557873000Y-100246500D02*
X557873000Y-92753500D01*
X558127000Y-100246500D02*
X558127000Y-92753500D01*
X400873000Y-82246500D02*
X400873000Y-74753500D01*
X401127000Y-82246500D02*
X401127000Y-74753500D01*
X424895000Y-153295000D02*
X424895000Y-150205000D01*
X424895000Y-150205170D02*
G75*
G03*
X419345000Y-151750462I-2560000J-1544830D01*
G01*
X419345000Y-151749538D02*
G75*
G03*
X424895000Y-153294830I2990000J-462D01*
G01*
X424835000Y-151750000D02*
G75*
G03*
X424835000Y-151750000I-2500000J0D01*
G01*
X469373000Y-152666500D02*
X469373000Y-145173500D01*
X469627000Y-152666500D02*
X469627000Y-145173500D01*
X483746500Y-54127000D02*
X476253500Y-54127000D01*
X483746500Y-53873000D02*
X476253500Y-53873000D01*
X527710000Y-71295000D02*
X527710000Y-68205000D01*
X527710000Y-68205170D02*
G75*
G03*
X522160000Y-69750462I-2560000J-1544830D01*
G01*
X522160000Y-69749538D02*
G75*
G03*
X527710000Y-71294830I2990000J-462D01*
G01*
X527650000Y-69750000D02*
G75*
G03*
X527650000Y-69750000I-2500000J0D01*
G01*
X497385000Y-134545000D02*
X497385000Y-131455000D01*
X497385000Y-131455170D02*
G75*
G03*
X491835000Y-133000462I-2560000J-1544830D01*
G01*
X491835000Y-132999538D02*
G75*
G03*
X497385000Y-134544830I2990000J-462D01*
G01*
X497325000Y-133000000D02*
G75*
G03*
X497325000Y-133000000I-2500000J0D01*
G01*
X424910000Y-163795000D02*
X424910000Y-160705000D01*
X424910000Y-160705170D02*
G75*
G03*
X419360000Y-162250462I-2560000J-1544830D01*
G01*
X419360000Y-162249538D02*
G75*
G03*
X424910000Y-163794830I2990000J-462D01*
G01*
X424850000Y-162250000D02*
G75*
G03*
X424850000Y-162250000I-2500000J0D01*
G01*
X497305000Y-31545000D02*
X497305000Y-28455000D01*
X497305000Y-28455170D02*
G75*
G03*
X491755000Y-30000462I-2560000J-1544830D01*
G01*
X491755000Y-29999538D02*
G75*
G03*
X497305000Y-31544830I2990000J-462D01*
G01*
X497245000Y-30000000D02*
G75*
G03*
X497245000Y-30000000I-2500000J0D01*
G01*
X499873000Y-46746500D02*
X499873000Y-39253500D01*
X500127000Y-46746500D02*
X500127000Y-39253500D01*
X440200000Y-160100000D02*
X440200000Y-153560000D01*
X438830000Y-152790000D02*
X438830000Y-153560000D01*
X437460000Y-153560000D02*
X437460000Y-160100000D01*
X440200000Y-153560000D02*
X437460000Y-153560000D01*
X438830000Y-160870000D02*
X438830000Y-160100000D01*
X437460000Y-160100000D02*
X440200000Y-160100000D01*
X440200000Y-215600000D02*
X440200000Y-209060000D01*
X438830000Y-208290000D02*
X438830000Y-209060000D01*
X437460000Y-209060000D02*
X437460000Y-215600000D01*
X440200000Y-209060000D02*
X437460000Y-209060000D01*
X438830000Y-216370000D02*
X438830000Y-215600000D01*
X437460000Y-215600000D02*
X440200000Y-215600000D01*
X507885000Y-134545000D02*
X507885000Y-131455000D01*
X507885000Y-131455170D02*
G75*
G03*
X502335000Y-133000462I-2560000J-1544830D01*
G01*
X502335000Y-132999538D02*
G75*
G03*
X507885000Y-134544830I2990000J-462D01*
G01*
X507825000Y-133000000D02*
G75*
G03*
X507825000Y-133000000I-2500000J0D01*
G01*
X476345000Y-134545000D02*
X476345000Y-131455000D01*
X476345000Y-131455170D02*
G75*
G03*
X470795000Y-133000462I-2560000J-1544830D01*
G01*
X470795000Y-132999538D02*
G75*
G03*
X476345000Y-134544830I2990000J-462D01*
G01*
X476285000Y-133000000D02*
G75*
G03*
X476285000Y-133000000I-2500000J0D01*
G01*
X543253500Y-83373000D02*
X550746500Y-83373000D01*
X543253500Y-83627000D02*
X550746500Y-83627000D01*
X507885000Y-142545000D02*
X507885000Y-139455000D01*
X507885000Y-139455170D02*
G75*
G03*
X502335000Y-141000462I-2560000J-1544830D01*
G01*
X502335000Y-140999538D02*
G75*
G03*
X507885000Y-142544830I2990000J-462D01*
G01*
X507825000Y-141000000D02*
G75*
G03*
X507825000Y-141000000I-2500000J0D01*
G01*
X548873000Y-78246500D02*
X548873000Y-70753500D01*
X549127000Y-78246500D02*
X549127000Y-70753500D01*
X440200000Y-229520000D02*
X440200000Y-222980000D01*
X438830000Y-222210000D02*
X438830000Y-222980000D01*
X437460000Y-222980000D02*
X437460000Y-229520000D01*
X440200000Y-222980000D02*
X437460000Y-222980000D01*
X438830000Y-230290000D02*
X438830000Y-229520000D01*
X437460000Y-229520000D02*
X440200000Y-229520000D01*
X538210000Y-113295000D02*
X538210000Y-110205000D01*
X538210000Y-110205170D02*
G75*
G03*
X532660000Y-111750462I-2560000J-1544830D01*
G01*
X532660000Y-111749538D02*
G75*
G03*
X538210000Y-113294830I2990000J-462D01*
G01*
X538150000Y-111750000D02*
G75*
G03*
X538150000Y-111750000I-2500000J0D01*
G01*
X440200000Y-201770000D02*
X440200000Y-195230000D01*
X438830000Y-194460000D02*
X438830000Y-195230000D01*
X437460000Y-195230000D02*
X437460000Y-201770000D01*
X440200000Y-195230000D02*
X437460000Y-195230000D01*
X438830000Y-202540000D02*
X438830000Y-201770000D01*
X437460000Y-201770000D02*
X440200000Y-201770000D01*
X518547500Y-237552500D02*
X518547500Y-234462500D01*
X518547500Y-234462670D02*
G75*
G03*
X512997500Y-236007962I-2560000J-1544830D01*
G01*
X512997500Y-236007038D02*
G75*
G03*
X518547500Y-237552330I2990000J-462D01*
G01*
X518487500Y-236007500D02*
G75*
G03*
X518487500Y-236007500I-2500000J0D01*
G01*
X518305000Y-39545000D02*
X518305000Y-36455000D01*
X518305000Y-36455170D02*
G75*
G03*
X512755000Y-38000462I-2560000J-1544830D01*
G01*
X512755000Y-37999538D02*
G75*
G03*
X518305000Y-39544830I2990000J-462D01*
G01*
X518245000Y-38000000D02*
G75*
G03*
X518245000Y-38000000I-2500000J0D01*
G01*
X497547500Y-245552500D02*
X497547500Y-242462500D01*
X497547500Y-242462670D02*
G75*
G03*
X491997500Y-244007962I-2560000J-1544830D01*
G01*
X491997500Y-244007038D02*
G75*
G03*
X497547500Y-245552330I2990000J-462D01*
G01*
X497487500Y-244007500D02*
G75*
G03*
X497487500Y-244007500I-2500000J0D01*
G01*
X444253500Y-56373000D02*
X451746500Y-56373000D01*
X444253500Y-56627000D02*
X451746500Y-56627000D01*
X543015000Y-98770000D02*
X543015000Y-92230000D01*
X541645000Y-91460000D02*
X541645000Y-92230000D01*
X540275000Y-92230000D02*
X540275000Y-98770000D01*
X543015000Y-92230000D02*
X540275000Y-92230000D01*
X541645000Y-99540000D02*
X541645000Y-98770000D01*
X540275000Y-98770000D02*
X543015000Y-98770000D01*
X533015000Y-145295000D02*
X533015000Y-142205000D01*
X533015000Y-142205170D02*
G75*
G03*
X527465000Y-143750462I-2560000J-1544830D01*
G01*
X527465000Y-143749538D02*
G75*
G03*
X533015000Y-145294830I2990000J-462D01*
G01*
X532955000Y-143750000D02*
G75*
G03*
X532955000Y-143750000I-2500000J0D01*
G01*
X462100000Y-42130000D02*
X455560000Y-42130000D01*
X454790000Y-43500000D02*
X455560000Y-43500000D01*
X455560000Y-44870000D02*
X462100000Y-44870000D01*
X455560000Y-42130000D02*
X455560000Y-44870000D01*
X462870000Y-43500000D02*
X462100000Y-43500000D01*
X462100000Y-44870000D02*
X462100000Y-42130000D01*
X399753500Y-69373000D02*
X407246500Y-69373000D01*
X399753500Y-69627000D02*
X407246500Y-69627000D01*
X543095000Y-160100000D02*
X543095000Y-153560000D01*
X541725000Y-152790000D02*
X541725000Y-153560000D01*
X540355000Y-153560000D02*
X540355000Y-160100000D01*
X543095000Y-153560000D02*
X540355000Y-153560000D01*
X541725000Y-160870000D02*
X541725000Y-160100000D01*
X540355000Y-160100000D02*
X543095000Y-160100000D01*
X517833500Y-95373000D02*
X525326500Y-95373000D01*
X517833500Y-95627000D02*
X525326500Y-95627000D01*
X477746500Y-100627000D02*
X470253500Y-100627000D01*
X477746500Y-100373000D02*
X470253500Y-100373000D01*
X424895000Y-216295000D02*
X424895000Y-213205000D01*
X424895000Y-213205170D02*
G75*
G03*
X419345000Y-214750462I-2560000J-1544830D01*
G01*
X419345000Y-214749538D02*
G75*
G03*
X424895000Y-216294830I2990000J-462D01*
G01*
X424835000Y-214750000D02*
G75*
G03*
X424835000Y-214750000I-2500000J0D01*
G01*
X508047500Y-245552500D02*
X508047500Y-242462500D01*
X508047500Y-242462670D02*
G75*
G03*
X502497500Y-244007962I-2560000J-1544830D01*
G01*
X502497500Y-244007038D02*
G75*
G03*
X508047500Y-245552330I2990000J-462D01*
G01*
X507987500Y-244007500D02*
G75*
G03*
X507987500Y-244007500I-2500000J0D01*
G01*
X543095000Y-229520000D02*
X543095000Y-222980000D01*
X541725000Y-222210000D02*
X541725000Y-222980000D01*
X540355000Y-222980000D02*
X540355000Y-229520000D01*
X543095000Y-222980000D02*
X540355000Y-222980000D01*
X541725000Y-230290000D02*
X541725000Y-229520000D01*
X540355000Y-229520000D02*
X543095000Y-229520000D01*
X496746500Y-52127000D02*
X489253500Y-52127000D01*
X496746500Y-51873000D02*
X489253500Y-51873000D01*
X538305000Y-163795000D02*
X538305000Y-160705000D01*
X538305000Y-160705170D02*
G75*
G03*
X532755000Y-162250462I-2560000J-1544830D01*
G01*
X532755000Y-162249538D02*
G75*
G03*
X538305000Y-163794830I2990000J-462D01*
G01*
X538245000Y-162250000D02*
G75*
G03*
X538245000Y-162250000I-2500000J0D01*
G01*
X517770000Y-145130000D02*
X511230000Y-145130000D01*
X510460000Y-146500000D02*
X511230000Y-146500000D01*
X511230000Y-147870000D02*
X517770000Y-147870000D01*
X511230000Y-145130000D02*
X511230000Y-147870000D01*
X518540000Y-146500000D02*
X517770000Y-146500000D01*
X517770000Y-147870000D02*
X517770000Y-145130000D01*
X465765000Y-39545000D02*
X465765000Y-36455000D01*
X465765000Y-36455170D02*
G75*
G03*
X460215000Y-38000462I-2560000J-1544830D01*
G01*
X460215000Y-37999538D02*
G75*
G03*
X465765000Y-39544830I2990000J-462D01*
G01*
X465705000Y-38000000D02*
G75*
G03*
X465705000Y-38000000I-2500000J0D01*
G01*
X455547500Y-237552500D02*
X455547500Y-234462500D01*
X455547500Y-234462670D02*
G75*
G03*
X449997500Y-236007962I-2560000J-1544830D01*
G01*
X449997500Y-236007038D02*
G75*
G03*
X455547500Y-237552330I2990000J-462D01*
G01*
X455487500Y-236007500D02*
G75*
G03*
X455487500Y-236007500I-2500000J0D01*
G01*
X435315000Y-81795000D02*
X435315000Y-78705000D01*
X435315000Y-78705170D02*
G75*
G03*
X429765000Y-80250462I-2560000J-1544830D01*
G01*
X429765000Y-80249538D02*
G75*
G03*
X435315000Y-81794830I2990000J-462D01*
G01*
X435255000Y-80250000D02*
G75*
G03*
X435255000Y-80250000I-2500000J0D01*
G01*
X435315000Y-71295000D02*
X435315000Y-68205000D01*
X435315000Y-68205170D02*
G75*
G03*
X429765000Y-69750462I-2560000J-1544830D01*
G01*
X429765000Y-69749538D02*
G75*
G03*
X435315000Y-71294830I2990000J-462D01*
G01*
X435255000Y-69750000D02*
G75*
G03*
X435255000Y-69750000I-2500000J0D01*
G01*
X442173500Y-124373000D02*
X449666500Y-124373000D01*
X442173500Y-124627000D02*
X449666500Y-124627000D01*
X510333500Y-181873000D02*
X517826500Y-181873000D01*
X510333500Y-182127000D02*
X517826500Y-182127000D01*
X479873000Y-130246500D02*
X479873000Y-122753500D01*
X480127000Y-130246500D02*
X480127000Y-122753500D01*
X530253500Y-137873000D02*
X537746500Y-137873000D01*
X530253500Y-138127000D02*
X537746500Y-138127000D01*
X526507500Y-241552500D02*
X526507500Y-238462500D01*
X526507500Y-238462670D02*
G75*
G03*
X520957500Y-240007962I-2560000J-1544830D01*
G01*
X520957500Y-240007038D02*
G75*
G03*
X526507500Y-241552330I2990000J-462D01*
G01*
X526447500Y-240007500D02*
G75*
G03*
X526447500Y-240007500I-2500000J0D01*
G01*
X477235000Y-75045000D02*
X477235000Y-95485000D01*
X478485000Y-75045000D02*
X477235000Y-75045000D01*
X481735000Y-75045000D02*
X480485000Y-75045000D01*
X481735000Y-95485000D02*
X481735000Y-75045000D01*
X477235000Y-95485000D02*
X481735000Y-95485000D01*
X478485000Y-75045000D02*
G75*
G03*
X480485000Y-75045000I1000000J0D01*
G01*
X462342500Y-248137500D02*
X455802500Y-248137500D01*
X455032500Y-249507500D02*
X455802500Y-249507500D01*
X455802500Y-250877500D02*
X462342500Y-250877500D01*
X455802500Y-248137500D02*
X455802500Y-250877500D01*
X463112500Y-249507500D02*
X462342500Y-249507500D01*
X462342500Y-250877500D02*
X462342500Y-248137500D01*
X507805000Y-31545000D02*
X507805000Y-28455000D01*
X507805000Y-28455170D02*
G75*
G03*
X502255000Y-30000462I-2560000J-1544830D01*
G01*
X502255000Y-29999538D02*
G75*
G03*
X507805000Y-31544830I2990000J-462D01*
G01*
X507745000Y-30000000D02*
G75*
G03*
X507745000Y-30000000I-2500000J0D01*
G01*
X486765000Y-31545000D02*
X486765000Y-28455000D01*
X486765000Y-28455170D02*
G75*
G03*
X481215000Y-30000462I-2560000J-1544830D01*
G01*
X481215000Y-29999538D02*
G75*
G03*
X486765000Y-31544830I2990000J-462D01*
G01*
X486705000Y-30000000D02*
G75*
G03*
X486705000Y-30000000I-2500000J0D01*
G01*
X543015000Y-57100000D02*
X543015000Y-50560000D01*
X541645000Y-49790000D02*
X541645000Y-50560000D01*
X540275000Y-50560000D02*
X540275000Y-57100000D01*
X543015000Y-50560000D02*
X540275000Y-50560000D01*
X541645000Y-57870000D02*
X541645000Y-57100000D01*
X540275000Y-57100000D02*
X543015000Y-57100000D01*
X476265000Y-39545000D02*
X476265000Y-36455000D01*
X476265000Y-36455170D02*
G75*
G03*
X470715000Y-38000462I-2560000J-1544830D01*
G01*
X470715000Y-37999538D02*
G75*
G03*
X476265000Y-39544830I2990000J-462D01*
G01*
X476205000Y-38000000D02*
G75*
G03*
X476205000Y-38000000I-2500000J0D01*
G01*
X465845000Y-134545000D02*
X465845000Y-131455000D01*
X465845000Y-131455170D02*
G75*
G03*
X460295000Y-133000462I-2560000J-1544830D01*
G01*
X460295000Y-132999538D02*
G75*
G03*
X465845000Y-134544830I2990000J-462D01*
G01*
X465785000Y-133000000D02*
G75*
G03*
X465785000Y-133000000I-2500000J0D01*
G01*
X526265000Y-35545000D02*
X526265000Y-32455000D01*
X526265000Y-32455170D02*
G75*
G03*
X520715000Y-34000462I-2560000J-1544830D01*
G01*
X520715000Y-33999538D02*
G75*
G03*
X526265000Y-35544830I2990000J-462D01*
G01*
X526205000Y-34000000D02*
G75*
G03*
X526205000Y-34000000I-2500000J0D01*
G01*
X543015000Y-126520000D02*
X543015000Y-119980000D01*
X541645000Y-119210000D02*
X541645000Y-119980000D01*
X540275000Y-119980000D02*
X540275000Y-126520000D01*
X543015000Y-119980000D02*
X540275000Y-119980000D01*
X541645000Y-127290000D02*
X541645000Y-126520000D01*
X540275000Y-126520000D02*
X543015000Y-126520000D01*
X538210000Y-50295000D02*
X538210000Y-47205000D01*
X538210000Y-47205170D02*
G75*
G03*
X532660000Y-48750462I-2560000J-1544830D01*
G01*
X532660000Y-48749538D02*
G75*
G03*
X538210000Y-50294830I2990000J-462D01*
G01*
X538150000Y-48750000D02*
G75*
G03*
X538150000Y-48750000I-2500000J0D01*
G01*
X527710000Y-50295000D02*
X527710000Y-47205000D01*
X527710000Y-47205170D02*
G75*
G03*
X522160000Y-48750462I-2560000J-1544830D01*
G01*
X522160000Y-48749538D02*
G75*
G03*
X527710000Y-50294830I2990000J-462D01*
G01*
X527650000Y-48750000D02*
G75*
G03*
X527650000Y-48750000I-2500000J0D01*
G01*
X435315000Y-102795000D02*
X435315000Y-99705000D01*
X435315000Y-99705170D02*
G75*
G03*
X429765000Y-101250462I-2560000J-1544830D01*
G01*
X429765000Y-101249538D02*
G75*
G03*
X435315000Y-102794830I2990000J-462D01*
G01*
X435255000Y-101250000D02*
G75*
G03*
X435255000Y-101250000I-2500000J0D01*
G01*
X497385000Y-142545000D02*
X497385000Y-139455000D01*
X497385000Y-139455170D02*
G75*
G03*
X491835000Y-141000462I-2560000J-1544830D01*
G01*
X491835000Y-140999538D02*
G75*
G03*
X497385000Y-142544830I2990000J-462D01*
G01*
X497325000Y-141000000D02*
G75*
G03*
X497325000Y-141000000I-2500000J0D01*
G01*
X499873000Y-33286500D02*
X499873000Y-20713500D01*
X500127000Y-33286500D02*
X500127000Y-20713500D01*
X465765000Y-31545000D02*
X465765000Y-28455000D01*
X465765000Y-28455170D02*
G75*
G03*
X460215000Y-30000462I-2560000J-1544830D01*
G01*
X460215000Y-29999538D02*
G75*
G03*
X465765000Y-31544830I2990000J-462D01*
G01*
X465705000Y-30000000D02*
G75*
G03*
X465705000Y-30000000I-2500000J0D01*
G01*
X517253500Y-53873000D02*
X524746500Y-53873000D01*
X517253500Y-54127000D02*
X524746500Y-54127000D01*
X448746500Y-96627000D02*
X441253500Y-96627000D01*
X448746500Y-96373000D02*
X441253500Y-96373000D01*
X557873000Y-77666500D02*
X557873000Y-70173500D01*
X558127000Y-77666500D02*
X558127000Y-70173500D01*
X517932500Y-248137500D02*
X511392500Y-248137500D01*
X510622500Y-249507500D02*
X511392500Y-249507500D01*
X511392500Y-250877500D02*
X517932500Y-250877500D01*
X511392500Y-248137500D02*
X511392500Y-250877500D01*
X518702500Y-249507500D02*
X517932500Y-249507500D01*
X517932500Y-250877500D02*
X517932500Y-248137500D01*
X488627000Y-98333500D02*
X488627000Y-105826500D01*
X488373000Y-98333500D02*
X488373000Y-105826500D01*
X543095000Y-215600000D02*
X543095000Y-209060000D01*
X541725000Y-208290000D02*
X541725000Y-209060000D01*
X540355000Y-209060000D02*
X540355000Y-215600000D01*
X543095000Y-209060000D02*
X540355000Y-209060000D01*
X541725000Y-216370000D02*
X541725000Y-215600000D01*
X540355000Y-215600000D02*
X543095000Y-215600000D01*
X435315000Y-50295000D02*
X435315000Y-47205000D01*
X435315000Y-47205170D02*
G75*
G03*
X429765000Y-48750462I-2560000J-1544830D01*
G01*
X429765000Y-48749538D02*
G75*
G03*
X435315000Y-50294830I2990000J-462D01*
G01*
X435255000Y-48750000D02*
G75*
G03*
X435255000Y-48750000I-2500000J0D01*
G01*
X538275000Y-195295000D02*
X538275000Y-192205000D01*
X538275000Y-192205170D02*
G75*
G03*
X532725000Y-193750462I-2560000J-1544830D01*
G01*
X532725000Y-193749538D02*
G75*
G03*
X538275000Y-195294830I2990000J-462D01*
G01*
X538215000Y-193750000D02*
G75*
G03*
X538215000Y-193750000I-2500000J0D01*
G01*
X513373000Y-71826500D02*
X513373000Y-64333500D01*
X513627000Y-71826500D02*
X513627000Y-64333500D01*
X448350000Y-145130000D02*
X441810000Y-145130000D01*
X441040000Y-146500000D02*
X441810000Y-146500000D01*
X441810000Y-147870000D02*
X448350000Y-147870000D01*
X441810000Y-145130000D02*
X441810000Y-147870000D01*
X449120000Y-146500000D02*
X448350000Y-146500000D01*
X448350000Y-147870000D02*
X448350000Y-145130000D01*
X424815000Y-113295000D02*
X424815000Y-110205000D01*
X424815000Y-110205170D02*
G75*
G03*
X419265000Y-111750462I-2560000J-1544830D01*
G01*
X419265000Y-111749538D02*
G75*
G03*
X424815000Y-113294830I2990000J-462D01*
G01*
X424755000Y-111750000D02*
G75*
G03*
X424755000Y-111750000I-2500000J0D01*
G01*
X476100000Y-145130000D02*
X469560000Y-145130000D01*
X468790000Y-146500000D02*
X469560000Y-146500000D01*
X469560000Y-147870000D02*
X476100000Y-147870000D01*
X469560000Y-145130000D02*
X469560000Y-147870000D01*
X476870000Y-146500000D02*
X476100000Y-146500000D01*
X476100000Y-147870000D02*
X476100000Y-145130000D01*
X430746500Y-96627000D02*
X423253500Y-96627000D01*
X430746500Y-96373000D02*
X423253500Y-96373000D01*
X455385000Y-142545000D02*
X455385000Y-139455000D01*
X455385000Y-139455170D02*
G75*
G03*
X449835000Y-141000462I-2560000J-1544830D01*
G01*
X449835000Y-140999538D02*
G75*
G03*
X455385000Y-142544830I2990000J-462D01*
G01*
X455325000Y-141000000D02*
G75*
G03*
X455325000Y-141000000I-2500000J0D01*
G01*
X487007500Y-237552500D02*
X487007500Y-234462500D01*
X487007500Y-234462670D02*
G75*
G03*
X481457500Y-236007962I-2560000J-1544830D01*
G01*
X481457500Y-236007038D02*
G75*
G03*
X487007500Y-237552330I2990000J-462D01*
G01*
X486947500Y-236007500D02*
G75*
G03*
X486947500Y-236007500I-2500000J0D01*
G01*
X532935000Y-42295000D02*
X532935000Y-39205000D01*
X532935000Y-39205170D02*
G75*
G03*
X527385000Y-40750462I-2560000J-1544830D01*
G01*
X527385000Y-40749538D02*
G75*
G03*
X532935000Y-42294830I2990000J-462D01*
G01*
X532875000Y-40750000D02*
G75*
G03*
X532875000Y-40750000I-2500000J0D01*
G01*
X538195000Y-123795000D02*
X538195000Y-120705000D01*
X538195000Y-120705170D02*
G75*
G03*
X532645000Y-122250462I-2560000J-1544830D01*
G01*
X532645000Y-122249538D02*
G75*
G03*
X538195000Y-123794830I2990000J-462D01*
G01*
X538135000Y-122250000D02*
G75*
G03*
X538135000Y-122250000I-2500000J0D01*
G01*
X518547500Y-245552500D02*
X518547500Y-242462500D01*
X518547500Y-242462670D02*
G75*
G03*
X512997500Y-244007962I-2560000J-1544830D01*
G01*
X512997500Y-244007038D02*
G75*
G03*
X518547500Y-245552330I2990000J-462D01*
G01*
X518487500Y-244007500D02*
G75*
G03*
X518487500Y-244007500I-2500000J0D01*
G01*
X543095000Y-173930000D02*
X543095000Y-167390000D01*
X541725000Y-166620000D02*
X541725000Y-167390000D01*
X540355000Y-167390000D02*
X540355000Y-173930000D01*
X543095000Y-167390000D02*
X540355000Y-167390000D01*
X541725000Y-174700000D02*
X541725000Y-173930000D01*
X540355000Y-173930000D02*
X543095000Y-173930000D01*
X538290000Y-174295000D02*
X538290000Y-171205000D01*
X538290000Y-171205170D02*
G75*
G03*
X532740000Y-172750462I-2560000J-1544830D01*
G01*
X532740000Y-172749538D02*
G75*
G03*
X538290000Y-174294830I2990000J-462D01*
G01*
X538230000Y-172750000D02*
G75*
G03*
X538230000Y-172750000I-2500000J0D01*
G01*
X424880000Y-226795000D02*
X424880000Y-223705000D01*
X424880000Y-223705170D02*
G75*
G03*
X419330000Y-225250462I-2560000J-1544830D01*
G01*
X419330000Y-225249538D02*
G75*
G03*
X424880000Y-226794830I2990000J-462D01*
G01*
X424820000Y-225250000D02*
G75*
G03*
X424820000Y-225250000I-2500000J0D01*
G01*
X466007500Y-245552500D02*
X466007500Y-242462500D01*
X466007500Y-242462670D02*
G75*
G03*
X460457500Y-244007962I-2560000J-1544830D01*
G01*
X460457500Y-244007038D02*
G75*
G03*
X466007500Y-245552330I2990000J-462D01*
G01*
X465947500Y-244007500D02*
G75*
G03*
X465947500Y-244007500I-2500000J0D01*
G01*
X435410000Y-163795000D02*
X435410000Y-160705000D01*
X435410000Y-160705170D02*
G75*
G03*
X429860000Y-162250462I-2560000J-1544830D01*
G01*
X429860000Y-162249538D02*
G75*
G03*
X435410000Y-163794830I2990000J-462D01*
G01*
X435350000Y-162250000D02*
G75*
G03*
X435350000Y-162250000I-2500000J0D01*
G01*
X479373000Y-49746500D02*
X479373000Y-42253500D01*
X479627000Y-49746500D02*
X479627000Y-42253500D01*
X538210000Y-71295000D02*
X538210000Y-68205000D01*
X538210000Y-68205170D02*
G75*
G03*
X532660000Y-69750462I-2560000J-1544830D01*
G01*
X532660000Y-69749538D02*
G75*
G03*
X538210000Y-71294830I2990000J-462D01*
G01*
X538150000Y-69750000D02*
G75*
G03*
X538150000Y-69750000I-2500000J0D01*
G01*
X455547500Y-245552500D02*
X455547500Y-242462500D01*
X455547500Y-242462670D02*
G75*
G03*
X449997500Y-244007962I-2560000J-1544830D01*
G01*
X449997500Y-244007038D02*
G75*
G03*
X455547500Y-245552330I2990000J-462D01*
G01*
X455487500Y-244007500D02*
G75*
G03*
X455487500Y-244007500I-2500000J0D01*
G01*
X504012500Y-248137500D02*
X497472500Y-248137500D01*
X496702500Y-249507500D02*
X497472500Y-249507500D01*
X497472500Y-250877500D02*
X504012500Y-250877500D01*
X497472500Y-248137500D02*
X497472500Y-250877500D01*
X504782500Y-249507500D02*
X504012500Y-249507500D01*
X504012500Y-250877500D02*
X504012500Y-248137500D01*
X486845000Y-142545000D02*
X486845000Y-139455000D01*
X486845000Y-139455170D02*
G75*
G03*
X481295000Y-141000462I-2560000J-1544830D01*
G01*
X481295000Y-140999538D02*
G75*
G03*
X486845000Y-142544830I2990000J-462D01*
G01*
X486785000Y-141000000D02*
G75*
G03*
X486785000Y-141000000I-2500000J0D01*
G01*
X444765000Y-31545000D02*
X444765000Y-28455000D01*
X444765000Y-28455170D02*
G75*
G03*
X439215000Y-30000462I-2560000J-1544830D01*
G01*
X439215000Y-29999538D02*
G75*
G03*
X444765000Y-31544830I2990000J-462D01*
G01*
X444705000Y-30000000D02*
G75*
G03*
X444705000Y-30000000I-2500000J0D01*
G01*
X470253500Y-97373000D02*
X477746500Y-97373000D01*
X470253500Y-97627000D02*
X477746500Y-97627000D01*
X513753500Y-156873000D02*
X521246500Y-156873000D01*
X513753500Y-157127000D02*
X521246500Y-157127000D01*
X538210000Y-81795000D02*
X538210000Y-78705000D01*
X538210000Y-78705170D02*
G75*
G03*
X532660000Y-80250462I-2560000J-1544830D01*
G01*
X532660000Y-80249538D02*
G75*
G03*
X538210000Y-81794830I2990000J-462D01*
G01*
X538150000Y-80250000D02*
G75*
G03*
X538150000Y-80250000I-2500000J0D01*
G01*
X435395000Y-184795000D02*
X435395000Y-181705000D01*
X435395000Y-181705170D02*
G75*
G03*
X429845000Y-183250462I-2560000J-1544830D01*
G01*
X429845000Y-183249538D02*
G75*
G03*
X435395000Y-184794830I2990000J-462D01*
G01*
X435335000Y-183250000D02*
G75*
G03*
X435335000Y-183250000I-2500000J0D01*
G01*
X424895000Y-184795000D02*
X424895000Y-181705000D01*
X424895000Y-181705170D02*
G75*
G03*
X419345000Y-183250462I-2560000J-1544830D01*
G01*
X419345000Y-183249538D02*
G75*
G03*
X424895000Y-184794830I2990000J-462D01*
G01*
X424835000Y-183250000D02*
G75*
G03*
X424835000Y-183250000I-2500000J0D01*
G01*
X436790000Y-35545000D02*
X436790000Y-32455000D01*
X436790000Y-32455170D02*
G75*
G03*
X431240000Y-34000462I-2560000J-1544830D01*
G01*
X431240000Y-33999538D02*
G75*
G03*
X436790000Y-35544830I2990000J-462D01*
G01*
X436730000Y-34000000D02*
G75*
G03*
X436730000Y-34000000I-2500000J0D01*
G01*
X486765000Y-39545000D02*
X486765000Y-36455000D01*
X486765000Y-36455170D02*
G75*
G03*
X481215000Y-38000462I-2560000J-1544830D01*
G01*
X481215000Y-37999538D02*
G75*
G03*
X486765000Y-39544830I2990000J-462D01*
G01*
X486705000Y-38000000D02*
G75*
G03*
X486705000Y-38000000I-2500000J0D01*
G01*
X527695000Y-123795000D02*
X527695000Y-120705000D01*
X527695000Y-120705170D02*
G75*
G03*
X522145000Y-122250462I-2560000J-1544830D01*
G01*
X522145000Y-122249538D02*
G75*
G03*
X527695000Y-123794830I2990000J-462D01*
G01*
X527635000Y-122250000D02*
G75*
G03*
X527635000Y-122250000I-2500000J0D01*
G01*
X540333500Y-95373000D02*
X547826500Y-95373000D01*
X540333500Y-95627000D02*
X547826500Y-95627000D01*
X538195000Y-92295000D02*
X538195000Y-89205000D01*
X538195000Y-89205170D02*
G75*
G03*
X532645000Y-90750462I-2560000J-1544830D01*
G01*
X532645000Y-90749538D02*
G75*
G03*
X538195000Y-92294830I2990000J-462D01*
G01*
X538135000Y-90750000D02*
G75*
G03*
X538135000Y-90750000I-2500000J0D01*
G01*
X455305000Y-39545000D02*
X455305000Y-36455000D01*
X455305000Y-36455170D02*
G75*
G03*
X449755000Y-38000462I-2560000J-1544830D01*
G01*
X449755000Y-37999538D02*
G75*
G03*
X455305000Y-39544830I2990000J-462D01*
G01*
X455245000Y-38000000D02*
G75*
G03*
X455245000Y-38000000I-2500000J0D01*
G01*
X510333500Y-178873000D02*
X517826500Y-178873000D01*
X510333500Y-179127000D02*
X517826500Y-179127000D01*
X518305000Y-31545000D02*
X518305000Y-28455000D01*
X518305000Y-28455170D02*
G75*
G03*
X512755000Y-30000462I-2560000J-1544830D01*
G01*
X512755000Y-29999538D02*
G75*
G03*
X518305000Y-31544830I2990000J-462D01*
G01*
X518245000Y-30000000D02*
G75*
G03*
X518245000Y-30000000I-2500000J0D01*
G01*
X414333500Y-53873000D02*
X421826500Y-53873000D01*
X414333500Y-54127000D02*
X421826500Y-54127000D01*
X441253500Y-81373000D02*
X448746500Y-81373000D01*
X441253500Y-81627000D02*
X448746500Y-81627000D01*
X498373000Y-90166500D02*
X498373000Y-82673500D01*
X498627000Y-90166500D02*
X498627000Y-82673500D01*
X527790000Y-153295000D02*
X527790000Y-150205000D01*
X527790000Y-150205170D02*
G75*
G03*
X522240000Y-151750462I-2560000J-1544830D01*
G01*
X522240000Y-151749538D02*
G75*
G03*
X527790000Y-153294830I2990000J-462D01*
G01*
X527730000Y-151750000D02*
G75*
G03*
X527730000Y-151750000I-2500000J0D01*
G01*
X418246500Y-96627000D02*
X410753500Y-96627000D01*
X418246500Y-96373000D02*
X410753500Y-96373000D01*
X540753500Y-186873000D02*
X548246500Y-186873000D01*
X540753500Y-187127000D02*
X548246500Y-187127000D01*
X538290000Y-216295000D02*
X538290000Y-213205000D01*
X538290000Y-213205170D02*
G75*
G03*
X532740000Y-214750462I-2560000J-1544830D01*
G01*
X532740000Y-214749538D02*
G75*
G03*
X538290000Y-216294830I2990000J-462D01*
G01*
X538230000Y-214750000D02*
G75*
G03*
X538230000Y-214750000I-2500000J0D01*
G01*
X513753500Y-188373000D02*
X521246500Y-188373000D01*
X513753500Y-188627000D02*
X521246500Y-188627000D01*
X440120000Y-84850000D02*
X440120000Y-78310000D01*
X438750000Y-77540000D02*
X438750000Y-78310000D01*
X437380000Y-78310000D02*
X437380000Y-84850000D01*
X440120000Y-78310000D02*
X437380000Y-78310000D01*
X438750000Y-85620000D02*
X438750000Y-84850000D01*
X437380000Y-84850000D02*
X440120000Y-84850000D01*
X537978500Y-156703000D02*
X545471500Y-156703000D01*
X537978500Y-156957000D02*
X545471500Y-156957000D01*
X444765000Y-39545000D02*
X444765000Y-36455000D01*
X444765000Y-36455170D02*
G75*
G03*
X439215000Y-38000462I-2560000J-1544830D01*
G01*
X439215000Y-37999538D02*
G75*
G03*
X444765000Y-39544830I2990000J-462D01*
G01*
X444705000Y-38000000D02*
G75*
G03*
X444705000Y-38000000I-2500000J0D01*
G01*
X406873000Y-91746500D02*
X406873000Y-84253500D01*
X407127000Y-91746500D02*
X407127000Y-84253500D01*
X527725000Y-60795000D02*
X527725000Y-57705000D01*
X527725000Y-57705170D02*
G75*
G03*
X522175000Y-59250462I-2560000J-1544830D01*
G01*
X522175000Y-59249538D02*
G75*
G03*
X527725000Y-60794830I2990000J-462D01*
G01*
X527665000Y-59250000D02*
G75*
G03*
X527665000Y-59250000I-2500000J0D01*
G01*
X478873000Y-30746500D02*
X478873000Y-23253500D01*
X479127000Y-30746500D02*
X479127000Y-23253500D01*
X527790000Y-174295000D02*
X527790000Y-171205000D01*
X527790000Y-171205170D02*
G75*
G03*
X522240000Y-172750462I-2560000J-1544830D01*
G01*
X522240000Y-172749538D02*
G75*
G03*
X527790000Y-174294830I2990000J-462D01*
G01*
X527730000Y-172750000D02*
G75*
G03*
X527730000Y-172750000I-2500000J0D01*
G01*
X489333500Y-59373000D02*
X496826500Y-59373000D01*
X489333500Y-59627000D02*
X496826500Y-59627000D01*
X437032500Y-241552500D02*
X437032500Y-238462500D01*
X437032500Y-238462670D02*
G75*
G03*
X431482500Y-240007962I-2560000J-1544830D01*
G01*
X431482500Y-240007038D02*
G75*
G03*
X437032500Y-241552330I2990000J-462D01*
G01*
X436972500Y-240007500D02*
G75*
G03*
X436972500Y-240007500I-2500000J0D01*
G01*
X507805000Y-39545000D02*
X507805000Y-36455000D01*
X507805000Y-36455170D02*
G75*
G03*
X502255000Y-38000462I-2560000J-1544830D01*
G01*
X502255000Y-37999538D02*
G75*
G03*
X507805000Y-39544830I2990000J-462D01*
G01*
X507745000Y-38000000D02*
G75*
G03*
X507745000Y-38000000I-2500000J0D01*
G01*
X538290000Y-153295000D02*
X538290000Y-150205000D01*
X538290000Y-150205170D02*
G75*
G03*
X532740000Y-151750462I-2560000J-1544830D01*
G01*
X532740000Y-151749538D02*
G75*
G03*
X538290000Y-153294830I2990000J-462D01*
G01*
X538230000Y-151750000D02*
G75*
G03*
X538230000Y-151750000I-2500000J0D01*
G01*
X435330000Y-60795000D02*
X435330000Y-57705000D01*
X435330000Y-57705170D02*
G75*
G03*
X429780000Y-59250462I-2560000J-1544830D01*
G01*
X429780000Y-59249538D02*
G75*
G03*
X435330000Y-60794830I2990000J-462D01*
G01*
X435270000Y-59250000D02*
G75*
G03*
X435270000Y-59250000I-2500000J0D01*
G01*
X507673500Y-100373000D02*
X515166500Y-100373000D01*
X507673500Y-100627000D02*
X515166500Y-100627000D01*
X407253500Y-62873000D02*
X414746500Y-62873000D01*
X407253500Y-63127000D02*
X414746500Y-63127000D01*
X410753500Y-85373000D02*
X418246500Y-85373000D01*
X410753500Y-85627000D02*
X418246500Y-85627000D01*
X430120000Y-145295000D02*
X430120000Y-142205000D01*
X430120000Y-142205170D02*
G75*
G03*
X424570000Y-143750462I-2560000J-1544830D01*
G01*
X424570000Y-143749538D02*
G75*
G03*
X430120000Y-145294830I2990000J-462D01*
G01*
X430060000Y-143750000D02*
G75*
G03*
X430060000Y-143750000I-2500000J0D01*
G01*
X533040000Y-234795000D02*
X533040000Y-231705000D01*
X533040000Y-231705170D02*
G75*
G03*
X527490000Y-233250462I-2560000J-1544830D01*
G01*
X527490000Y-233249538D02*
G75*
G03*
X533040000Y-234794830I2990000J-462D01*
G01*
X532980000Y-233250000D02*
G75*
G03*
X532980000Y-233250000I-2500000J0D01*
G01*
X560373000Y-94786500D02*
X560373000Y-82213500D01*
X560627000Y-94786500D02*
X560627000Y-82213500D01*
X543015000Y-112600000D02*
X543015000Y-106060000D01*
X541645000Y-105290000D02*
X541645000Y-106060000D01*
X540275000Y-106060000D02*
X540275000Y-112600000D01*
X543015000Y-106060000D02*
X540275000Y-106060000D01*
X541645000Y-113370000D02*
X541645000Y-112600000D01*
X540275000Y-112600000D02*
X543015000Y-112600000D01*
X457127000Y-92833500D02*
X457127000Y-100326500D01*
X456873000Y-92833500D02*
X456873000Y-100326500D01*
X503770000Y-42130000D02*
X497230000Y-42130000D01*
X496460000Y-43500000D02*
X497230000Y-43500000D01*
X497230000Y-44870000D02*
X503770000Y-44870000D01*
X497230000Y-42130000D02*
X497230000Y-44870000D01*
X504540000Y-43500000D02*
X503770000Y-43500000D01*
X503770000Y-44870000D02*
X503770000Y-42130000D01*
X476265000Y-31545000D02*
X476265000Y-28455000D01*
X476265000Y-28455170D02*
G75*
G03*
X470715000Y-30000462I-2560000J-1544830D01*
G01*
X470715000Y-29999538D02*
G75*
G03*
X476265000Y-31544830I2990000J-462D01*
G01*
X476205000Y-30000000D02*
G75*
G03*
X476205000Y-30000000I-2500000J0D01*
G01*
X487007500Y-245552500D02*
X487007500Y-242462500D01*
X487007500Y-242462670D02*
G75*
G03*
X481457500Y-244007962I-2560000J-1544830D01*
G01*
X481457500Y-244007038D02*
G75*
G03*
X487007500Y-245552330I2990000J-462D01*
G01*
X486947500Y-244007500D02*
G75*
G03*
X486947500Y-244007500I-2500000J0D01*
G01*
X440120000Y-70930000D02*
X440120000Y-64390000D01*
X438750000Y-63620000D02*
X438750000Y-64390000D01*
X437380000Y-64390000D02*
X437380000Y-70930000D01*
X440120000Y-64390000D02*
X437380000Y-64390000D01*
X438750000Y-71700000D02*
X438750000Y-70930000D01*
X437380000Y-70930000D02*
X440120000Y-70930000D01*
X538290000Y-205795000D02*
X538290000Y-202705000D01*
X538290000Y-202705170D02*
G75*
G03*
X532740000Y-204250462I-2560000J-1544830D01*
G01*
X532740000Y-204249538D02*
G75*
G03*
X538290000Y-205794830I2990000J-462D01*
G01*
X538230000Y-204250000D02*
G75*
G03*
X538230000Y-204250000I-2500000J0D01*
G01*
X490182500Y-248137500D02*
X483642500Y-248137500D01*
X482872500Y-249507500D02*
X483642500Y-249507500D01*
X483642500Y-250877500D02*
X490182500Y-250877500D01*
X483642500Y-248137500D02*
X483642500Y-250877500D01*
X490952500Y-249507500D02*
X490182500Y-249507500D01*
X490182500Y-250877500D02*
X490182500Y-248137500D01*
X518385000Y-142545000D02*
X518385000Y-139455000D01*
X518385000Y-139455170D02*
G75*
G03*
X512835000Y-141000462I-2560000J-1544830D01*
G01*
X512835000Y-140999538D02*
G75*
G03*
X518385000Y-142544830I2990000J-462D01*
G01*
X518325000Y-141000000D02*
G75*
G03*
X518325000Y-141000000I-2500000J0D01*
G01*
X495373000Y-85166500D02*
X495373000Y-77673500D01*
X495627000Y-85166500D02*
X495627000Y-77673500D01*
%TD*%
%LPC*%
D12*
%TO.C,REF\u002A\u002A*%
X402000000Y-21000000D03*
X396000000Y-21000000D03*
X396878680Y-23121320D03*
D13*
X399000000Y-21000000D03*
D12*
X396878680Y-18878680D03*
X399000000Y-18000000D03*
X401121320Y-23121320D03*
X401121320Y-18878680D03*
X399000000Y-24000000D03*
%TD*%
%TO.C,REF\u002A\u002A*%
X402000000Y-254000000D03*
X396000000Y-254000000D03*
X396878680Y-256121320D03*
D13*
X399000000Y-254000000D03*
D12*
X396878680Y-251878680D03*
X399000000Y-251000000D03*
X401121320Y-256121320D03*
X401121320Y-251878680D03*
X399000000Y-257000000D03*
%TD*%
%TO.C,REF\u002A\u002A*%
X563000000Y-254000000D03*
X557000000Y-254000000D03*
X557878680Y-256121320D03*
D13*
X560000000Y-254000000D03*
D12*
X557878680Y-251878680D03*
X560000000Y-251000000D03*
X562121320Y-256121320D03*
X562121320Y-251878680D03*
X560000000Y-257000000D03*
%TD*%
%TO.C,REF\u002A\u002A*%
X558000000Y-21000000D03*
X563121320Y-18878680D03*
X561000000Y-24000000D03*
X563121320Y-23121320D03*
X558878680Y-23121320D03*
X558878680Y-18878680D03*
X561000000Y-18000000D03*
D13*
X561000000Y-21000000D03*
D12*
X564000000Y-21000000D03*
%TD*%
D14*
%TO.C,REF\u002A\u002A*%
X526515000Y-162250000D03*
D15*
X523975000Y-162250000D03*
%TD*%
D14*
%TO.C,REF\u002A\u002A*%
X464555000Y-141000000D03*
D15*
X462015000Y-141000000D03*
%TD*%
D14*
%TO.C,REF\u002A\u002A*%
X526485000Y-225250000D03*
D15*
X523945000Y-225250000D03*
%TD*%
D14*
%TO.C,REF\u002A\u002A*%
X423605000Y-172750000D03*
D15*
X421065000Y-172750000D03*
%TD*%
D14*
%TO.C,REF\u002A\u002A*%
X435580000Y-137000000D03*
D15*
X433040000Y-137000000D03*
%TD*%
D16*
%TO.C,REF\u002A\u002A*%
X511500000Y-85500000D03*
D17*
X521660000Y-85500000D03*
%TD*%
D14*
%TO.C,REF\u002A\u002A*%
X454095000Y-133000000D03*
D15*
X451555000Y-133000000D03*
%TD*%
D16*
%TO.C,REF\u002A\u002A*%
X488000000Y-70000000D03*
D17*
X498160000Y-70000000D03*
%TD*%
D16*
%TO.C,REF\u002A\u002A*%
X538920000Y-168500000D03*
D17*
X549080000Y-168500000D03*
%TD*%
D18*
%TO.C,REF\u002A\u002A*%
X541645000Y-76500000D03*
D19*
X541645000Y-86660000D03*
%TD*%
D14*
%TO.C,REF\u002A\u002A*%
X525055000Y-137000000D03*
D15*
X522515000Y-137000000D03*
%TD*%
D18*
%TO.C,REF\u002A\u002A*%
X481670000Y-146500000D03*
D19*
X491830000Y-146500000D03*
%TD*%
D18*
%TO.C,REF\u002A\u002A*%
X467670000Y-43500000D03*
D19*
X477830000Y-43500000D03*
%TD*%
D14*
%TO.C,REF\u002A\u002A*%
X496257500Y-236007500D03*
D15*
X493717500Y-236007500D03*
%TD*%
D18*
%TO.C,REF\u002A\u002A*%
X541725000Y-179500000D03*
D19*
X541725000Y-189660000D03*
%TD*%
D18*
%TO.C,REF\u002A\u002A*%
X440162500Y-249507500D03*
D19*
X450322500Y-249507500D03*
%TD*%
D18*
%TO.C,REF\u002A\u002A*%
X438750000Y-48750000D03*
D19*
X438750000Y-58910000D03*
%TD*%
D14*
%TO.C,REF\u002A\u002A*%
X423525000Y-101250000D03*
D15*
X420985000Y-101250000D03*
%TD*%
D14*
%TO.C,REF\u002A\u002A*%
X434105000Y-151750000D03*
D15*
X431565000Y-151750000D03*
%TD*%
D16*
%TO.C,REF\u002A\u002A*%
X418920000Y-135000000D03*
D17*
X429080000Y-135000000D03*
%TD*%
D18*
%TO.C,REF\u002A\u002A*%
X438830000Y-165580000D03*
D19*
X438830000Y-175740000D03*
%TD*%
D18*
%TO.C,REF\u002A\u002A*%
X509340000Y-43500000D03*
D19*
X519500000Y-43500000D03*
%TD*%
D16*
%TO.C,REF\u002A\u002A*%
X513500000Y-167500000D03*
D17*
X528740000Y-167500000D03*
%TD*%
D16*
%TO.C,REF\u002A\u002A*%
X408920000Y-66500000D03*
D17*
X419080000Y-66500000D03*
%TD*%
D18*
%TO.C,REF\u002A\u002A*%
X453830000Y-146500000D03*
D19*
X463990000Y-146500000D03*
%TD*%
D14*
%TO.C,REF\u002A\u002A*%
X485555000Y-133000000D03*
D15*
X483015000Y-133000000D03*
%TD*%
D14*
%TO.C,REF\u002A\u002A*%
X423525000Y-80250000D03*
D15*
X420985000Y-80250000D03*
%TD*%
D14*
%TO.C,REF\u002A\u002A*%
X423605000Y-204250000D03*
D15*
X421065000Y-204250000D03*
%TD*%
D14*
%TO.C,REF\u002A\u002A*%
X526405000Y-90750000D03*
D15*
X523865000Y-90750000D03*
%TD*%
D14*
%TO.C,REF\u002A\u002A*%
X454015000Y-30000000D03*
D15*
X451475000Y-30000000D03*
%TD*%
D18*
%TO.C,REF\u002A\u002A*%
X438750000Y-118170000D03*
D19*
X438750000Y-128330000D03*
%TD*%
D18*
%TO.C,REF\u002A\u002A*%
X541725000Y-193420000D03*
D19*
X541725000Y-203580000D03*
%TD*%
D20*
%TO.C,REF\u002A\u002A*%
X394000000Y-76000000D03*
D21*
X394000000Y-78540000D03*
X394000000Y-81080000D03*
X394000000Y-83620000D03*
X394000000Y-86160000D03*
X394000000Y-88700000D03*
X394000000Y-91240000D03*
X394000000Y-93780000D03*
%TD*%
D14*
%TO.C,REF\u002A\u002A*%
X434105000Y-204250000D03*
D15*
X431565000Y-204250000D03*
%TD*%
D14*
%TO.C,REF\u002A\u002A*%
X506757500Y-236007500D03*
D15*
X504217500Y-236007500D03*
%TD*%
D16*
%TO.C,REF\u002A\u002A*%
X510500000Y-69500000D03*
D17*
X510500000Y-59340000D03*
%TD*%
D14*
%TO.C,REF\u002A\u002A*%
X434090000Y-193750000D03*
D15*
X431550000Y-193750000D03*
%TD*%
D14*
%TO.C,REF\u002A\u002A*%
X443717500Y-236007500D03*
D15*
X441177500Y-236007500D03*
%TD*%
D14*
%TO.C,REF\u002A\u002A*%
X536985000Y-225250000D03*
D15*
X534445000Y-225250000D03*
%TD*%
D16*
%TO.C,REF\u002A\u002A*%
X409420000Y-116500000D03*
D17*
X419580000Y-116500000D03*
%TD*%
D16*
%TO.C,REF\u002A\u002A*%
X511000000Y-135080000D03*
D17*
X511000000Y-124920000D03*
%TD*%
D16*
%TO.C,REF\u002A\u002A*%
X453500000Y-113500000D03*
D17*
X443340000Y-113500000D03*
%TD*%
D16*
%TO.C,REF\u002A\u002A*%
X552500000Y-79580000D03*
D17*
X552500000Y-69420000D03*
%TD*%
D14*
%TO.C,REF\u002A\u002A*%
X423510000Y-90750000D03*
D15*
X420970000Y-90750000D03*
%TD*%
D14*
%TO.C,REF\u002A\u002A*%
X536920000Y-101250000D03*
D15*
X534380000Y-101250000D03*
%TD*%
D14*
%TO.C,REF\u002A\u002A*%
X475055000Y-141000000D03*
D15*
X472515000Y-141000000D03*
%TD*%
D14*
%TO.C,REF\u002A\u002A*%
X428775000Y-130250000D03*
D15*
X426235000Y-130250000D03*
%TD*%
D14*
%TO.C,REF\u002A\u002A*%
X526485000Y-193750000D03*
D15*
X523945000Y-193750000D03*
%TD*%
D16*
%TO.C,REF\u002A\u002A*%
X457000000Y-71340000D03*
D17*
X457000000Y-81500000D03*
%TD*%
D14*
%TO.C,REF\u002A\u002A*%
X526500000Y-183250000D03*
D15*
X523960000Y-183250000D03*
%TD*%
D14*
%TO.C,REF\u002A\u002A*%
X464717500Y-236007500D03*
D15*
X462177500Y-236007500D03*
%TD*%
D16*
%TO.C,REF\u002A\u002A*%
X416500000Y-131080000D03*
D17*
X416500000Y-120920000D03*
%TD*%
D16*
%TO.C,REF\u002A\u002A*%
X555000000Y-91080000D03*
D17*
X555000000Y-80920000D03*
%TD*%
D16*
%TO.C,REF\u002A\u002A*%
X421580000Y-35500000D03*
D17*
X411420000Y-35500000D03*
%TD*%
D14*
%TO.C,REF\u002A\u002A*%
X434010000Y-90750000D03*
D15*
X431470000Y-90750000D03*
%TD*%
D16*
%TO.C,REF\u002A\u002A*%
X498160000Y-56000000D03*
D17*
X488000000Y-56000000D03*
%TD*%
D14*
%TO.C,REF\u002A\u002A*%
X434105000Y-172750000D03*
D15*
X431565000Y-172750000D03*
%TD*%
D14*
%TO.C,REF\u002A\u002A*%
X526420000Y-111750000D03*
D15*
X523880000Y-111750000D03*
%TD*%
D14*
%TO.C,REF\u002A\u002A*%
X423525000Y-48750000D03*
D15*
X420985000Y-48750000D03*
%TD*%
D16*
%TO.C,REF\u002A\u002A*%
X488000000Y-66500000D03*
D17*
X498160000Y-66500000D03*
%TD*%
D14*
%TO.C,REF\u002A\u002A*%
X423525000Y-69750000D03*
D15*
X420985000Y-69750000D03*
%TD*%
D18*
%TO.C,REF\u002A\u002A*%
X438830000Y-179500000D03*
D19*
X438830000Y-189660000D03*
%TD*%
D16*
%TO.C,REF\u002A\u002A*%
X454000000Y-81420000D03*
D17*
X454000000Y-91580000D03*
%TD*%
D14*
%TO.C,REF\u002A\u002A*%
X428750000Y-40750000D03*
D15*
X426210000Y-40750000D03*
%TD*%
D18*
%TO.C,REF\u002A\u002A*%
X439920000Y-43500000D03*
D19*
X450080000Y-43500000D03*
%TD*%
D14*
%TO.C,REF\u002A\u002A*%
X536935000Y-59250000D03*
D15*
X534395000Y-59250000D03*
%TD*%
D16*
%TO.C,REF\u002A\u002A*%
X468920000Y-103500000D03*
D17*
X479080000Y-103500000D03*
%TD*%
D18*
%TO.C,REF\u002A\u002A*%
X541645000Y-62580000D03*
D19*
X541645000Y-72740000D03*
%TD*%
D16*
%TO.C,REF\u002A\u002A*%
X510500000Y-32080000D03*
D17*
X510500000Y-21920000D03*
%TD*%
D16*
%TO.C,REF\u002A\u002A*%
X480000000Y-154500000D03*
D17*
X480000000Y-144340000D03*
%TD*%
D14*
%TO.C,REF\u002A\u002A*%
X443555000Y-141000000D03*
D15*
X441015000Y-141000000D03*
%TD*%
D14*
%TO.C,REF\u002A\u002A*%
X496015000Y-38000000D03*
D15*
X493475000Y-38000000D03*
%TD*%
D14*
%TO.C,REF\u002A\u002A*%
X531670000Y-130250000D03*
D15*
X529130000Y-130250000D03*
%TD*%
D18*
%TO.C,REF\u002A\u002A*%
X438750000Y-90420000D03*
D19*
X438750000Y-100580000D03*
%TD*%
D14*
%TO.C,REF\u002A\u002A*%
X517095000Y-133000000D03*
D15*
X514555000Y-133000000D03*
%TD*%
D14*
%TO.C,REF\u002A\u002A*%
X443555000Y-133000000D03*
D15*
X441015000Y-133000000D03*
%TD*%
D18*
%TO.C,REF\u002A\u002A*%
X467912500Y-249507500D03*
D19*
X478072500Y-249507500D03*
%TD*%
D14*
%TO.C,REF\u002A\u002A*%
X526500000Y-204250000D03*
D15*
X523960000Y-204250000D03*
%TD*%
D14*
%TO.C,REF\u002A\u002A*%
X434025000Y-111750000D03*
D15*
X431485000Y-111750000D03*
%TD*%
D14*
%TO.C,REF\u002A\u002A*%
X434090000Y-225250000D03*
D15*
X431550000Y-225250000D03*
%TD*%
D14*
%TO.C,REF\u002A\u002A*%
X475217500Y-244007500D03*
D15*
X472677500Y-244007500D03*
%TD*%
D14*
%TO.C,REF\u002A\u002A*%
X537000000Y-183250000D03*
D15*
X534460000Y-183250000D03*
%TD*%
D14*
%TO.C,REF\u002A\u002A*%
X423510000Y-122250000D03*
D15*
X420970000Y-122250000D03*
%TD*%
D14*
%TO.C,REF\u002A\u002A*%
X526420000Y-80250000D03*
D15*
X523880000Y-80250000D03*
%TD*%
D16*
%TO.C,REF\u002A\u002A*%
X553000000Y-140000000D03*
D17*
X553000000Y-129840000D03*
%TD*%
D14*
%TO.C,REF\u002A\u002A*%
X434105000Y-214750000D03*
D15*
X431565000Y-214750000D03*
%TD*%
D16*
%TO.C,REF\u002A\u002A*%
X458000000Y-132000000D03*
D17*
X458000000Y-121840000D03*
%TD*%
D14*
%TO.C,REF\u002A\u002A*%
X526420000Y-101250000D03*
D15*
X523880000Y-101250000D03*
%TD*%
D16*
%TO.C,REF\u002A\u002A*%
X492000000Y-86420000D03*
D17*
X492000000Y-96580000D03*
%TD*%
D14*
%TO.C,REF\u002A\u002A*%
X423540000Y-59250000D03*
D15*
X421000000Y-59250000D03*
%TD*%
D14*
%TO.C,REF\u002A\u002A*%
X475217500Y-236007500D03*
D15*
X472677500Y-236007500D03*
%TD*%
D14*
%TO.C,REF\u002A\u002A*%
X526500000Y-214750000D03*
D15*
X523960000Y-214750000D03*
%TD*%
D16*
%TO.C,REF\u002A\u002A*%
X460500000Y-91580000D03*
D17*
X460500000Y-81420000D03*
%TD*%
D14*
%TO.C,REF\u002A\u002A*%
X434010000Y-122250000D03*
D15*
X431470000Y-122250000D03*
%TD*%
D18*
%TO.C,REF\u002A\u002A*%
X438750000Y-104250000D03*
D19*
X438750000Y-114410000D03*
%TD*%
D18*
%TO.C,REF\u002A\u002A*%
X495500000Y-146500000D03*
D19*
X505660000Y-146500000D03*
%TD*%
D16*
%TO.C,REF\u002A\u002A*%
X512420000Y-220000000D03*
D17*
X522580000Y-220000000D03*
%TD*%
D14*
%TO.C,REF\u002A\u002A*%
X428855000Y-233250000D03*
D15*
X426315000Y-233250000D03*
%TD*%
D14*
%TO.C,REF\u002A\u002A*%
X443717500Y-244007500D03*
D15*
X441177500Y-244007500D03*
%TD*%
D14*
%TO.C,REF\u002A\u002A*%
X423590000Y-193750000D03*
D15*
X421050000Y-193750000D03*
%TD*%
D20*
%TO.C,REF\u002A\u002A*%
X564500000Y-76125000D03*
D21*
X564500000Y-78665000D03*
X564500000Y-81205000D03*
X564500000Y-83745000D03*
X564500000Y-86285000D03*
X564500000Y-88825000D03*
X564500000Y-91365000D03*
X564500000Y-93905000D03*
%TD*%
D16*
%TO.C,REF\u002A\u002A*%
X488000000Y-63000000D03*
D17*
X498160000Y-63000000D03*
%TD*%
D18*
%TO.C,REF\u002A\u002A*%
X481590000Y-43500000D03*
D19*
X491750000Y-43500000D03*
%TD*%
D16*
%TO.C,REF\u002A\u002A*%
X558000000Y-101580000D03*
D17*
X558000000Y-91420000D03*
%TD*%
D16*
%TO.C,REF\u002A\u002A*%
X401000000Y-83580000D03*
D17*
X401000000Y-73420000D03*
%TD*%
D14*
%TO.C,REF\u002A\u002A*%
X423605000Y-151750000D03*
D15*
X421065000Y-151750000D03*
%TD*%
D16*
%TO.C,REF\u002A\u002A*%
X469500000Y-154000000D03*
D17*
X469500000Y-143840000D03*
%TD*%
D16*
%TO.C,REF\u002A\u002A*%
X485080000Y-54000000D03*
D17*
X474920000Y-54000000D03*
%TD*%
D14*
%TO.C,REF\u002A\u002A*%
X526420000Y-69750000D03*
D15*
X523880000Y-69750000D03*
%TD*%
D14*
%TO.C,REF\u002A\u002A*%
X496095000Y-133000000D03*
D15*
X493555000Y-133000000D03*
%TD*%
D14*
%TO.C,REF\u002A\u002A*%
X423620000Y-162250000D03*
D15*
X421080000Y-162250000D03*
%TD*%
D14*
%TO.C,REF\u002A\u002A*%
X496015000Y-30000000D03*
D15*
X493475000Y-30000000D03*
%TD*%
D16*
%TO.C,REF\u002A\u002A*%
X500000000Y-48080000D03*
D17*
X500000000Y-37920000D03*
%TD*%
D18*
%TO.C,REF\u002A\u002A*%
X438830000Y-151750000D03*
D19*
X438830000Y-161910000D03*
%TD*%
D18*
%TO.C,REF\u002A\u002A*%
X438830000Y-207250000D03*
D19*
X438830000Y-217410000D03*
%TD*%
D14*
%TO.C,REF\u002A\u002A*%
X506595000Y-133000000D03*
D15*
X504055000Y-133000000D03*
%TD*%
D14*
%TO.C,REF\u002A\u002A*%
X475055000Y-133000000D03*
D15*
X472515000Y-133000000D03*
%TD*%
D16*
%TO.C,REF\u002A\u002A*%
X541920000Y-83500000D03*
D17*
X552080000Y-83500000D03*
%TD*%
D14*
%TO.C,REF\u002A\u002A*%
X506595000Y-141000000D03*
D15*
X504055000Y-141000000D03*
%TD*%
D16*
%TO.C,REF\u002A\u002A*%
X549000000Y-79580000D03*
D17*
X549000000Y-69420000D03*
%TD*%
D18*
%TO.C,REF\u002A\u002A*%
X438830000Y-221170000D03*
D19*
X438830000Y-231330000D03*
%TD*%
D14*
%TO.C,REF\u002A\u002A*%
X536920000Y-111750000D03*
D15*
X534380000Y-111750000D03*
%TD*%
D18*
%TO.C,REF\u002A\u002A*%
X438830000Y-193420000D03*
D19*
X438830000Y-203580000D03*
%TD*%
D14*
%TO.C,REF\u002A\u002A*%
X517257500Y-236007500D03*
D15*
X514717500Y-236007500D03*
%TD*%
D14*
%TO.C,REF\u002A\u002A*%
X517015000Y-38000000D03*
D15*
X514475000Y-38000000D03*
%TD*%
D14*
%TO.C,REF\u002A\u002A*%
X496257500Y-244007500D03*
D15*
X493717500Y-244007500D03*
%TD*%
D16*
%TO.C,REF\u002A\u002A*%
X442920000Y-56500000D03*
D17*
X453080000Y-56500000D03*
%TD*%
D18*
%TO.C,REF\u002A\u002A*%
X541645000Y-90420000D03*
D19*
X541645000Y-100580000D03*
%TD*%
D14*
%TO.C,REF\u002A\u002A*%
X531725000Y-143750000D03*
D15*
X529185000Y-143750000D03*
%TD*%
D18*
%TO.C,REF\u002A\u002A*%
X453750000Y-43500000D03*
D19*
X463910000Y-43500000D03*
%TD*%
D16*
%TO.C,REF\u002A\u002A*%
X398420000Y-69500000D03*
D17*
X408580000Y-69500000D03*
%TD*%
D18*
%TO.C,REF\u002A\u002A*%
X541725000Y-151750000D03*
D19*
X541725000Y-161910000D03*
%TD*%
D16*
%TO.C,REF\u002A\u002A*%
X516500000Y-95500000D03*
D17*
X526660000Y-95500000D03*
%TD*%
D16*
%TO.C,REF\u002A\u002A*%
X479080000Y-100500000D03*
D17*
X468920000Y-100500000D03*
%TD*%
D14*
%TO.C,REF\u002A\u002A*%
X423605000Y-214750000D03*
D15*
X421065000Y-214750000D03*
%TD*%
D14*
%TO.C,REF\u002A\u002A*%
X506757500Y-244007500D03*
D15*
X504217500Y-244007500D03*
%TD*%
D18*
%TO.C,REF\u002A\u002A*%
X541725000Y-221170000D03*
D19*
X541725000Y-231330000D03*
%TD*%
D16*
%TO.C,REF\u002A\u002A*%
X498080000Y-52000000D03*
D17*
X487920000Y-52000000D03*
%TD*%
D14*
%TO.C,REF\u002A\u002A*%
X537015000Y-162250000D03*
D15*
X534475000Y-162250000D03*
%TD*%
D18*
%TO.C,REF\u002A\u002A*%
X509420000Y-146500000D03*
D19*
X519580000Y-146500000D03*
%TD*%
D14*
%TO.C,REF\u002A\u002A*%
X464475000Y-38000000D03*
D15*
X461935000Y-38000000D03*
%TD*%
D14*
%TO.C,REF\u002A\u002A*%
X454257500Y-236007500D03*
D15*
X451717500Y-236007500D03*
%TD*%
D14*
%TO.C,REF\u002A\u002A*%
X434025000Y-80250000D03*
D15*
X431485000Y-80250000D03*
%TD*%
D14*
%TO.C,REF\u002A\u002A*%
X434025000Y-69750000D03*
D15*
X431485000Y-69750000D03*
%TD*%
D16*
%TO.C,REF\u002A\u002A*%
X440840000Y-124500000D03*
D17*
X451000000Y-124500000D03*
%TD*%
D16*
%TO.C,REF\u002A\u002A*%
X509000000Y-182000000D03*
D17*
X519160000Y-182000000D03*
%TD*%
D16*
%TO.C,REF\u002A\u002A*%
X480000000Y-131580000D03*
D17*
X480000000Y-121420000D03*
%TD*%
D16*
%TO.C,REF\u002A\u002A*%
X528920000Y-138000000D03*
D17*
X539080000Y-138000000D03*
%TD*%
D14*
%TO.C,REF\u002A\u002A*%
X525217500Y-240007500D03*
D15*
X522677500Y-240007500D03*
%TD*%
D22*
%TO.C,REF\u002A\u002A*%
X475675000Y-76375000D03*
D23*
X475675000Y-78915000D03*
X475675000Y-81455000D03*
X475675000Y-83995000D03*
X475675000Y-86535000D03*
X475675000Y-89075000D03*
X475675000Y-91615000D03*
X475675000Y-94155000D03*
X483295000Y-94155000D03*
X483295000Y-91615000D03*
X483295000Y-89075000D03*
X483295000Y-86535000D03*
X483295000Y-83995000D03*
X483295000Y-81455000D03*
X483295000Y-78915000D03*
X483295000Y-76375000D03*
%TD*%
D18*
%TO.C,REF\u002A\u002A*%
X453992500Y-249507500D03*
D19*
X464152500Y-249507500D03*
%TD*%
D14*
%TO.C,REF\u002A\u002A*%
X506515000Y-30000000D03*
D15*
X503975000Y-30000000D03*
%TD*%
D14*
%TO.C,REF\u002A\u002A*%
X485475000Y-30000000D03*
D15*
X482935000Y-30000000D03*
%TD*%
D18*
%TO.C,REF\u002A\u002A*%
X541645000Y-48750000D03*
D19*
X541645000Y-58910000D03*
%TD*%
D14*
%TO.C,REF\u002A\u002A*%
X474975000Y-38000000D03*
D15*
X472435000Y-38000000D03*
%TD*%
D14*
%TO.C,REF\u002A\u002A*%
X464555000Y-133000000D03*
D15*
X462015000Y-133000000D03*
%TD*%
D14*
%TO.C,REF\u002A\u002A*%
X524975000Y-34000000D03*
D15*
X522435000Y-34000000D03*
%TD*%
D18*
%TO.C,REF\u002A\u002A*%
X541645000Y-118170000D03*
D19*
X541645000Y-128330000D03*
%TD*%
D14*
%TO.C,REF\u002A\u002A*%
X536920000Y-48750000D03*
D15*
X534380000Y-48750000D03*
%TD*%
D14*
%TO.C,REF\u002A\u002A*%
X526420000Y-48750000D03*
D15*
X523880000Y-48750000D03*
%TD*%
D14*
%TO.C,REF\u002A\u002A*%
X434025000Y-101250000D03*
D15*
X431485000Y-101250000D03*
%TD*%
D14*
%TO.C,REF\u002A\u002A*%
X496095000Y-141000000D03*
D15*
X493555000Y-141000000D03*
%TD*%
D16*
%TO.C,REF\u002A\u002A*%
X500000000Y-34620000D03*
D17*
X500000000Y-19380000D03*
%TD*%
D14*
%TO.C,REF\u002A\u002A*%
X464475000Y-30000000D03*
D15*
X461935000Y-30000000D03*
%TD*%
D16*
%TO.C,REF\u002A\u002A*%
X515920000Y-54000000D03*
D17*
X526080000Y-54000000D03*
%TD*%
D16*
%TO.C,REF\u002A\u002A*%
X450080000Y-96500000D03*
D17*
X439920000Y-96500000D03*
%TD*%
D16*
%TO.C,REF\u002A\u002A*%
X558000000Y-79000000D03*
D17*
X558000000Y-68840000D03*
%TD*%
D18*
%TO.C,REF\u002A\u002A*%
X509582500Y-249507500D03*
D19*
X519742500Y-249507500D03*
%TD*%
D16*
%TO.C,REF\u002A\u002A*%
X488500000Y-97000000D03*
D17*
X488500000Y-107160000D03*
%TD*%
D18*
%TO.C,REF\u002A\u002A*%
X541725000Y-207250000D03*
D19*
X541725000Y-217410000D03*
%TD*%
D14*
%TO.C,REF\u002A\u002A*%
X434025000Y-48750000D03*
D15*
X431485000Y-48750000D03*
%TD*%
D14*
%TO.C,REF\u002A\u002A*%
X536985000Y-193750000D03*
D15*
X534445000Y-193750000D03*
%TD*%
D16*
%TO.C,REF\u002A\u002A*%
X513500000Y-73160000D03*
D17*
X513500000Y-63000000D03*
%TD*%
D18*
%TO.C,REF\u002A\u002A*%
X440000000Y-146500000D03*
D19*
X450160000Y-146500000D03*
%TD*%
D14*
%TO.C,REF\u002A\u002A*%
X423525000Y-111750000D03*
D15*
X420985000Y-111750000D03*
%TD*%
D18*
%TO.C,REF\u002A\u002A*%
X467750000Y-146500000D03*
D19*
X477910000Y-146500000D03*
%TD*%
D16*
%TO.C,REF\u002A\u002A*%
X432080000Y-96500000D03*
D17*
X421920000Y-96500000D03*
%TD*%
D14*
%TO.C,REF\u002A\u002A*%
X454095000Y-141000000D03*
D15*
X451555000Y-141000000D03*
%TD*%
D14*
%TO.C,REF\u002A\u002A*%
X485717500Y-236007500D03*
D15*
X483177500Y-236007500D03*
%TD*%
D14*
%TO.C,REF\u002A\u002A*%
X531645000Y-40750000D03*
D15*
X529105000Y-40750000D03*
%TD*%
D14*
%TO.C,REF\u002A\u002A*%
X536905000Y-122250000D03*
D15*
X534365000Y-122250000D03*
%TD*%
D14*
%TO.C,REF\u002A\u002A*%
X517257500Y-244007500D03*
D15*
X514717500Y-244007500D03*
%TD*%
D18*
%TO.C,REF\u002A\u002A*%
X541725000Y-165580000D03*
D19*
X541725000Y-175740000D03*
%TD*%
D14*
%TO.C,REF\u002A\u002A*%
X537000000Y-172750000D03*
D15*
X534460000Y-172750000D03*
%TD*%
D14*
%TO.C,REF\u002A\u002A*%
X423590000Y-225250000D03*
D15*
X421050000Y-225250000D03*
%TD*%
D14*
%TO.C,REF\u002A\u002A*%
X464717500Y-244007500D03*
D15*
X462177500Y-244007500D03*
%TD*%
D14*
%TO.C,REF\u002A\u002A*%
X434120000Y-162250000D03*
D15*
X431580000Y-162250000D03*
%TD*%
D16*
%TO.C,REF\u002A\u002A*%
X479500000Y-51080000D03*
D17*
X479500000Y-40920000D03*
%TD*%
D14*
%TO.C,REF\u002A\u002A*%
X536920000Y-69750000D03*
D15*
X534380000Y-69750000D03*
%TD*%
D14*
%TO.C,REF\u002A\u002A*%
X454257500Y-244007500D03*
D15*
X451717500Y-244007500D03*
%TD*%
D18*
%TO.C,REF\u002A\u002A*%
X495662500Y-249507500D03*
D19*
X505822500Y-249507500D03*
%TD*%
D14*
%TO.C,REF\u002A\u002A*%
X485555000Y-141000000D03*
D15*
X483015000Y-141000000D03*
%TD*%
D14*
%TO.C,REF\u002A\u002A*%
X443475000Y-30000000D03*
D15*
X440935000Y-30000000D03*
%TD*%
D16*
%TO.C,REF\u002A\u002A*%
X468920000Y-97500000D03*
D17*
X479080000Y-97500000D03*
%TD*%
D16*
%TO.C,REF\u002A\u002A*%
X512420000Y-157000000D03*
D17*
X522580000Y-157000000D03*
%TD*%
D14*
%TO.C,REF\u002A\u002A*%
X536920000Y-80250000D03*
D15*
X534380000Y-80250000D03*
%TD*%
D14*
%TO.C,REF\u002A\u002A*%
X434105000Y-183250000D03*
D15*
X431565000Y-183250000D03*
%TD*%
D14*
%TO.C,REF\u002A\u002A*%
X423605000Y-183250000D03*
D15*
X421065000Y-183250000D03*
%TD*%
D14*
%TO.C,REF\u002A\u002A*%
X435500000Y-34000000D03*
D15*
X432960000Y-34000000D03*
%TD*%
D14*
%TO.C,REF\u002A\u002A*%
X485475000Y-38000000D03*
D15*
X482935000Y-38000000D03*
%TD*%
D14*
%TO.C,REF\u002A\u002A*%
X526405000Y-122250000D03*
D15*
X523865000Y-122250000D03*
%TD*%
D16*
%TO.C,REF\u002A\u002A*%
X539000000Y-95500000D03*
D17*
X549160000Y-95500000D03*
%TD*%
D14*
%TO.C,REF\u002A\u002A*%
X536905000Y-90750000D03*
D15*
X534365000Y-90750000D03*
%TD*%
D14*
%TO.C,REF\u002A\u002A*%
X454015000Y-38000000D03*
D15*
X451475000Y-38000000D03*
%TD*%
D16*
%TO.C,REF\u002A\u002A*%
X509000000Y-179000000D03*
D17*
X519160000Y-179000000D03*
%TD*%
D14*
%TO.C,REF\u002A\u002A*%
X517015000Y-30000000D03*
D15*
X514475000Y-30000000D03*
%TD*%
D16*
%TO.C,REF\u002A\u002A*%
X413000000Y-54000000D03*
D17*
X423160000Y-54000000D03*
%TD*%
D16*
%TO.C,REF\u002A\u002A*%
X439920000Y-81500000D03*
D17*
X450080000Y-81500000D03*
%TD*%
D16*
%TO.C,REF\u002A\u002A*%
X498500000Y-91500000D03*
D17*
X498500000Y-81340000D03*
%TD*%
D14*
%TO.C,REF\u002A\u002A*%
X526500000Y-151750000D03*
D15*
X523960000Y-151750000D03*
%TD*%
D16*
%TO.C,REF\u002A\u002A*%
X419580000Y-96500000D03*
D17*
X409420000Y-96500000D03*
%TD*%
D16*
%TO.C,REF\u002A\u002A*%
X539420000Y-187000000D03*
D17*
X549580000Y-187000000D03*
%TD*%
D14*
%TO.C,REF\u002A\u002A*%
X537000000Y-214750000D03*
D15*
X534460000Y-214750000D03*
%TD*%
D16*
%TO.C,REF\u002A\u002A*%
X512420000Y-188500000D03*
D17*
X522580000Y-188500000D03*
%TD*%
D18*
%TO.C,REF\u002A\u002A*%
X438750000Y-76500000D03*
D19*
X438750000Y-86660000D03*
%TD*%
D16*
%TO.C,REF\u002A\u002A*%
X536645000Y-156830000D03*
D17*
X546805000Y-156830000D03*
%TD*%
D14*
%TO.C,REF\u002A\u002A*%
X443475000Y-38000000D03*
D15*
X440935000Y-38000000D03*
%TD*%
D16*
%TO.C,REF\u002A\u002A*%
X407000000Y-93080000D03*
D17*
X407000000Y-82920000D03*
%TD*%
D14*
%TO.C,REF\u002A\u002A*%
X526435000Y-59250000D03*
D15*
X523895000Y-59250000D03*
%TD*%
D16*
%TO.C,REF\u002A\u002A*%
X479000000Y-32080000D03*
D17*
X479000000Y-21920000D03*
%TD*%
D14*
%TO.C,REF\u002A\u002A*%
X526500000Y-172750000D03*
D15*
X523960000Y-172750000D03*
%TD*%
D16*
%TO.C,REF\u002A\u002A*%
X488000000Y-59500000D03*
D17*
X498160000Y-59500000D03*
%TD*%
D14*
%TO.C,REF\u002A\u002A*%
X435742500Y-240007500D03*
D15*
X433202500Y-240007500D03*
%TD*%
D14*
%TO.C,REF\u002A\u002A*%
X506515000Y-38000000D03*
D15*
X503975000Y-38000000D03*
%TD*%
D14*
%TO.C,REF\u002A\u002A*%
X537000000Y-151750000D03*
D15*
X534460000Y-151750000D03*
%TD*%
D14*
%TO.C,REF\u002A\u002A*%
X434040000Y-59250000D03*
D15*
X431500000Y-59250000D03*
%TD*%
D16*
%TO.C,REF\u002A\u002A*%
X506340000Y-100500000D03*
D17*
X516500000Y-100500000D03*
%TD*%
D16*
%TO.C,REF\u002A\u002A*%
X405920000Y-63000000D03*
D17*
X416080000Y-63000000D03*
%TD*%
D16*
%TO.C,REF\u002A\u002A*%
X409420000Y-85500000D03*
D17*
X419580000Y-85500000D03*
%TD*%
D14*
%TO.C,REF\u002A\u002A*%
X428830000Y-143750000D03*
D15*
X426290000Y-143750000D03*
%TD*%
D14*
%TO.C,REF\u002A\u002A*%
X531750000Y-233250000D03*
D15*
X529210000Y-233250000D03*
%TD*%
D16*
%TO.C,REF\u002A\u002A*%
X560500000Y-96120000D03*
D17*
X560500000Y-80880000D03*
%TD*%
D18*
%TO.C,REF\u002A\u002A*%
X541645000Y-104250000D03*
D19*
X541645000Y-114410000D03*
%TD*%
D16*
%TO.C,REF\u002A\u002A*%
X457000000Y-91500000D03*
D17*
X457000000Y-101660000D03*
%TD*%
D18*
%TO.C,REF\u002A\u002A*%
X495420000Y-43500000D03*
D19*
X505580000Y-43500000D03*
%TD*%
D14*
%TO.C,REF\u002A\u002A*%
X474975000Y-30000000D03*
D15*
X472435000Y-30000000D03*
%TD*%
D14*
%TO.C,REF\u002A\u002A*%
X485717500Y-244007500D03*
D15*
X483177500Y-244007500D03*
%TD*%
D18*
%TO.C,REF\u002A\u002A*%
X438750000Y-62580000D03*
D19*
X438750000Y-72740000D03*
%TD*%
D14*
%TO.C,REF\u002A\u002A*%
X537000000Y-204250000D03*
D15*
X534460000Y-204250000D03*
%TD*%
D18*
%TO.C,REF\u002A\u002A*%
X481832500Y-249507500D03*
D19*
X491992500Y-249507500D03*
%TD*%
D14*
%TO.C,REF\u002A\u002A*%
X517095000Y-141000000D03*
D15*
X514555000Y-141000000D03*
%TD*%
D16*
%TO.C,REF\u002A\u002A*%
X495500000Y-86500000D03*
D17*
X495500000Y-76340000D03*
%TD*%
M02*
