%TF.GenerationSoftware,KiCad,Pcbnew,(6.0.6)*%
%TF.CreationDate,2022-09-29T15:29:04+08:00*%
%TF.ProjectId,7SegmentDisplay_DualLine_8Inches,37536567-6d65-46e7-9444-6973706c6179,rev?*%
%TF.SameCoordinates,Original*%
%TF.FileFunction,Legend,Bot*%
%TF.FilePolarity,Positive*%
%FSLAX46Y46*%
G04 Gerber Fmt 4.6, Leading zero omitted, Abs format (unit mm)*
G04 Created by KiCad (PCBNEW (6.0.6)) date 2022-09-29 15:29:04*
%MOMM*%
%LPD*%
G01*
G04 APERTURE LIST*
%ADD10C,2.000000*%
%ADD11C,0.150000*%
%ADD12C,0.300000*%
%ADD13C,0.120000*%
%ADD14C,0.900000*%
%ADD15C,8.000000*%
%ADD16R,1.800000X1.800000*%
%ADD17C,1.800000*%
%ADD18C,2.200000*%
%ADD19O,2.200000X2.200000*%
%ADD20C,1.600000*%
%ADD21O,1.600000X1.600000*%
%ADD22R,1.700000X1.700000*%
%ADD23O,1.700000X1.700000*%
%ADD24R,2.400000X1.600000*%
%ADD25O,2.400000X1.600000*%
%ADD26C,2.500000*%
G04 APERTURE END LIST*
D10*
X553523809Y-216952380D02*
X553523809Y-212190476D01*
X558285714Y-211714285D01*
X557809523Y-212190476D01*
X557333333Y-213142857D01*
X557333333Y-215523809D01*
X557809523Y-216476190D01*
X558285714Y-216952380D01*
X559238095Y-217428571D01*
X561619047Y-217428571D01*
X562571428Y-216952380D01*
X563047619Y-216476190D01*
X563523809Y-215523809D01*
X563523809Y-213142857D01*
X563047619Y-212190476D01*
X562571428Y-211714285D01*
X560666666Y-221238095D02*
X560666666Y-226000000D01*
X563523809Y-220285714D02*
X553523809Y-223619047D01*
X563523809Y-226952380D01*
X553523809Y-230761904D02*
X555428571Y-229809523D01*
X563047619Y-234571428D02*
X563523809Y-236000000D01*
X563523809Y-238380952D01*
X563047619Y-239333333D01*
X562571428Y-239809523D01*
X561619047Y-240285714D01*
X560666666Y-240285714D01*
X559714285Y-239809523D01*
X559238095Y-239333333D01*
X558761904Y-238380952D01*
X558285714Y-236476190D01*
X557809523Y-235523809D01*
X557333333Y-235047619D01*
X556380952Y-234571428D01*
X555428571Y-234571428D01*
X554476190Y-235047619D01*
X554000000Y-235523809D01*
X553523809Y-236476190D01*
X553523809Y-238857142D01*
X554000000Y-240285714D01*
X553523809Y-179952380D02*
X553523809Y-175190476D01*
X558285714Y-174714285D01*
X557809523Y-175190476D01*
X557333333Y-176142857D01*
X557333333Y-178523809D01*
X557809523Y-179476190D01*
X558285714Y-179952380D01*
X559238095Y-180428571D01*
X561619047Y-180428571D01*
X562571428Y-179952380D01*
X563047619Y-179476190D01*
X563523809Y-178523809D01*
X563523809Y-176142857D01*
X563047619Y-175190476D01*
X562571428Y-174714285D01*
X560666666Y-184238095D02*
X560666666Y-189000000D01*
X563523809Y-183285714D02*
X553523809Y-186619047D01*
X563523809Y-189952380D01*
X553523809Y-193761904D02*
X555428571Y-192809523D01*
X563047619Y-197571428D02*
X563523809Y-199000000D01*
X563523809Y-201380952D01*
X563047619Y-202333333D01*
X562571428Y-202809523D01*
X561619047Y-203285714D01*
X560666666Y-203285714D01*
X559714285Y-202809523D01*
X559238095Y-202333333D01*
X558761904Y-201380952D01*
X558285714Y-199476190D01*
X557809523Y-198523809D01*
X557333333Y-198047619D01*
X556380952Y-197571428D01*
X555428571Y-197571428D01*
X554476190Y-198047619D01*
X554000000Y-198523809D01*
X553523809Y-199476190D01*
X553523809Y-201857142D01*
X554000000Y-203285714D01*
X397523809Y-215952380D02*
X397523809Y-211190476D01*
X402285714Y-210714285D01*
X401809523Y-211190476D01*
X401333333Y-212142857D01*
X401333333Y-214523809D01*
X401809523Y-215476190D01*
X402285714Y-215952380D01*
X403238095Y-216428571D01*
X405619047Y-216428571D01*
X406571428Y-215952380D01*
X407047619Y-215476190D01*
X407523809Y-214523809D01*
X407523809Y-212142857D01*
X407047619Y-211190476D01*
X406571428Y-210714285D01*
X404666666Y-220238095D02*
X404666666Y-225000000D01*
X407523809Y-219285714D02*
X397523809Y-222619047D01*
X407523809Y-225952380D01*
X397523809Y-229761904D02*
X399428571Y-228809523D01*
X407047619Y-233571428D02*
X407523809Y-235000000D01*
X407523809Y-237380952D01*
X407047619Y-238333333D01*
X406571428Y-238809523D01*
X405619047Y-239285714D01*
X404666666Y-239285714D01*
X403714285Y-238809523D01*
X403238095Y-238333333D01*
X402761904Y-237380952D01*
X402285714Y-235476190D01*
X401809523Y-234523809D01*
X401333333Y-234047619D01*
X400380952Y-233571428D01*
X399428571Y-233571428D01*
X398476190Y-234047619D01*
X398000000Y-234523809D01*
X397523809Y-235476190D01*
X397523809Y-237857142D01*
X398000000Y-239285714D01*
X397523809Y-171952380D02*
X397523809Y-167190476D01*
X402285714Y-166714285D01*
X401809523Y-167190476D01*
X401333333Y-168142857D01*
X401333333Y-170523809D01*
X401809523Y-171476190D01*
X402285714Y-171952380D01*
X403238095Y-172428571D01*
X405619047Y-172428571D01*
X406571428Y-171952380D01*
X407047619Y-171476190D01*
X407523809Y-170523809D01*
X407523809Y-168142857D01*
X407047619Y-167190476D01*
X406571428Y-166714285D01*
X404666666Y-176238095D02*
X404666666Y-181000000D01*
X407523809Y-175285714D02*
X397523809Y-178619047D01*
X407523809Y-181952380D01*
X397523809Y-185761904D02*
X399428571Y-184809523D01*
X407047619Y-189571428D02*
X407523809Y-191000000D01*
X407523809Y-193380952D01*
X407047619Y-194333333D01*
X406571428Y-194809523D01*
X405619047Y-195285714D01*
X404666666Y-195285714D01*
X403714285Y-194809523D01*
X403238095Y-194333333D01*
X402761904Y-193380952D01*
X402285714Y-191476190D01*
X401809523Y-190523809D01*
X401333333Y-190047619D01*
X400380952Y-189571428D01*
X399428571Y-189571428D01*
X398476190Y-190047619D01*
X398000000Y-190523809D01*
X397523809Y-191476190D01*
X397523809Y-193857142D01*
X398000000Y-195285714D01*
X397523809Y-129952380D02*
X397523809Y-125190476D01*
X402285714Y-124714285D01*
X401809523Y-125190476D01*
X401333333Y-126142857D01*
X401333333Y-128523809D01*
X401809523Y-129476190D01*
X402285714Y-129952380D01*
X403238095Y-130428571D01*
X405619047Y-130428571D01*
X406571428Y-129952380D01*
X407047619Y-129476190D01*
X407523809Y-128523809D01*
X407523809Y-126142857D01*
X407047619Y-125190476D01*
X406571428Y-124714285D01*
X404666666Y-134238095D02*
X404666666Y-139000000D01*
X407523809Y-133285714D02*
X397523809Y-136619047D01*
X407523809Y-139952380D01*
X397523809Y-143761904D02*
X399428571Y-142809523D01*
X407047619Y-147571428D02*
X407523809Y-149000000D01*
X407523809Y-151380952D01*
X407047619Y-152333333D01*
X406571428Y-152809523D01*
X405619047Y-153285714D01*
X404666666Y-153285714D01*
X403714285Y-152809523D01*
X403238095Y-152333333D01*
X402761904Y-151380952D01*
X402285714Y-149476190D01*
X401809523Y-148523809D01*
X401333333Y-148047619D01*
X400380952Y-147571428D01*
X399428571Y-147571428D01*
X398476190Y-148047619D01*
X398000000Y-148523809D01*
X397523809Y-149476190D01*
X397523809Y-151857142D01*
X398000000Y-153285714D01*
D11*
X402142857Y-76098285D02*
X401000000Y-76098285D01*
X401571428Y-76707809D02*
X401571428Y-75488761D01*
X399500000Y-76707809D02*
X400357142Y-76707809D01*
X399928571Y-76707809D02*
X399928571Y-75107809D01*
X400071428Y-75336380D01*
X400214285Y-75488761D01*
X400357142Y-75564952D01*
X398928571Y-75260190D02*
X398857142Y-75184000D01*
X398714285Y-75107809D01*
X398357142Y-75107809D01*
X398214285Y-75184000D01*
X398142857Y-75260190D01*
X398071428Y-75412571D01*
X398071428Y-75564952D01*
X398142857Y-75793523D01*
X399000000Y-76707809D01*
X398071428Y-76707809D01*
X397642857Y-75107809D02*
X397142857Y-76707809D01*
X396642857Y-75107809D01*
X402142857Y-78674285D02*
X401000000Y-78674285D01*
X401571428Y-79283809D02*
X401571428Y-78064761D01*
X399500000Y-79283809D02*
X400357142Y-79283809D01*
X399928571Y-79283809D02*
X399928571Y-77683809D01*
X400071428Y-77912380D01*
X400214285Y-78064761D01*
X400357142Y-78140952D01*
X398928571Y-77836190D02*
X398857142Y-77760000D01*
X398714285Y-77683809D01*
X398357142Y-77683809D01*
X398214285Y-77760000D01*
X398142857Y-77836190D01*
X398071428Y-77988571D01*
X398071428Y-78140952D01*
X398142857Y-78369523D01*
X399000000Y-79283809D01*
X398071428Y-79283809D01*
X397642857Y-77683809D02*
X397142857Y-79283809D01*
X396642857Y-77683809D01*
X400642857Y-80336000D02*
X400785714Y-80259809D01*
X401000000Y-80259809D01*
X401214285Y-80336000D01*
X401357142Y-80488380D01*
X401428571Y-80640761D01*
X401500000Y-80945523D01*
X401500000Y-81174095D01*
X401428571Y-81478857D01*
X401357142Y-81631238D01*
X401214285Y-81783619D01*
X401000000Y-81859809D01*
X400857142Y-81859809D01*
X400642857Y-81783619D01*
X400571428Y-81707428D01*
X400571428Y-81174095D01*
X400857142Y-81174095D01*
X399928571Y-81859809D02*
X399928571Y-80259809D01*
X399071428Y-81859809D01*
X399071428Y-80259809D01*
X398357142Y-81859809D02*
X398357142Y-80259809D01*
X398000000Y-80259809D01*
X397785714Y-80336000D01*
X397642857Y-80488380D01*
X397571428Y-80640761D01*
X397500000Y-80945523D01*
X397500000Y-81174095D01*
X397571428Y-81478857D01*
X397642857Y-81631238D01*
X397785714Y-81783619D01*
X398000000Y-81859809D01*
X398357142Y-81859809D01*
X400642857Y-82912000D02*
X400785714Y-82835809D01*
X401000000Y-82835809D01*
X401214285Y-82912000D01*
X401357142Y-83064380D01*
X401428571Y-83216761D01*
X401500000Y-83521523D01*
X401500000Y-83750095D01*
X401428571Y-84054857D01*
X401357142Y-84207238D01*
X401214285Y-84359619D01*
X401000000Y-84435809D01*
X400857142Y-84435809D01*
X400642857Y-84359619D01*
X400571428Y-84283428D01*
X400571428Y-83750095D01*
X400857142Y-83750095D01*
X399928571Y-84435809D02*
X399928571Y-82835809D01*
X399071428Y-84435809D01*
X399071428Y-82835809D01*
X398357142Y-84435809D02*
X398357142Y-82835809D01*
X398000000Y-82835809D01*
X397785714Y-82912000D01*
X397642857Y-83064380D01*
X397571428Y-83216761D01*
X397500000Y-83521523D01*
X397500000Y-83750095D01*
X397571428Y-84054857D01*
X397642857Y-84207238D01*
X397785714Y-84359619D01*
X398000000Y-84435809D01*
X398357142Y-84435809D01*
X401428571Y-86402285D02*
X400285714Y-86402285D01*
X400857142Y-87011809D02*
X400857142Y-85792761D01*
X398857142Y-85411809D02*
X399571428Y-85411809D01*
X399642857Y-86173714D01*
X399571428Y-86097523D01*
X399428571Y-86021333D01*
X399071428Y-86021333D01*
X398928571Y-86097523D01*
X398857142Y-86173714D01*
X398785714Y-86326095D01*
X398785714Y-86707047D01*
X398857142Y-86859428D01*
X398928571Y-86935619D01*
X399071428Y-87011809D01*
X399428571Y-87011809D01*
X399571428Y-86935619D01*
X399642857Y-86859428D01*
X398357142Y-85411809D02*
X397857142Y-87011809D01*
X397357142Y-85411809D01*
X402357142Y-89587809D02*
X402357142Y-87987809D01*
X402000000Y-87987809D01*
X401785714Y-88064000D01*
X401642857Y-88216380D01*
X401571428Y-88368761D01*
X401500000Y-88673523D01*
X401500000Y-88902095D01*
X401571428Y-89206857D01*
X401642857Y-89359238D01*
X401785714Y-89511619D01*
X402000000Y-89587809D01*
X402357142Y-89587809D01*
X401214285Y-89740190D02*
X400071428Y-89740190D01*
X399428571Y-87987809D02*
X399142857Y-87987809D01*
X399000000Y-88064000D01*
X398857142Y-88216380D01*
X398785714Y-88521142D01*
X398785714Y-89054476D01*
X398857142Y-89359238D01*
X399000000Y-89511619D01*
X399142857Y-89587809D01*
X399428571Y-89587809D01*
X399571428Y-89511619D01*
X399714285Y-89359238D01*
X399785714Y-89054476D01*
X399785714Y-88521142D01*
X399714285Y-88216380D01*
X399571428Y-88064000D01*
X399428571Y-87987809D01*
X397500000Y-88521142D02*
X397500000Y-89587809D01*
X398142857Y-88521142D02*
X398142857Y-89359238D01*
X398071428Y-89511619D01*
X397928571Y-89587809D01*
X397714285Y-89587809D01*
X397571428Y-89511619D01*
X397500000Y-89435428D01*
X397000000Y-88521142D02*
X396428571Y-88521142D01*
X396785714Y-87987809D02*
X396785714Y-89359238D01*
X396714285Y-89511619D01*
X396571428Y-89587809D01*
X396428571Y-89587809D01*
X400392857Y-92011428D02*
X400464285Y-92087619D01*
X400678571Y-92163809D01*
X400821428Y-92163809D01*
X401035714Y-92087619D01*
X401178571Y-91935238D01*
X401250000Y-91782857D01*
X401321428Y-91478095D01*
X401321428Y-91249523D01*
X401250000Y-90944761D01*
X401178571Y-90792380D01*
X401035714Y-90640000D01*
X400821428Y-90563809D01*
X400678571Y-90563809D01*
X400464285Y-90640000D01*
X400392857Y-90716190D01*
X399035714Y-92163809D02*
X399750000Y-92163809D01*
X399750000Y-90563809D01*
X398535714Y-92163809D02*
X398535714Y-90563809D01*
X397678571Y-92163809D02*
X398321428Y-91249523D01*
X397678571Y-90563809D02*
X398535714Y-91478095D01*
X401250000Y-94663619D02*
X401035714Y-94739809D01*
X400678571Y-94739809D01*
X400535714Y-94663619D01*
X400464285Y-94587428D01*
X400392857Y-94435047D01*
X400392857Y-94282666D01*
X400464285Y-94130285D01*
X400535714Y-94054095D01*
X400678571Y-93977904D01*
X400964285Y-93901714D01*
X401107142Y-93825523D01*
X401178571Y-93749333D01*
X401250000Y-93596952D01*
X401250000Y-93444571D01*
X401178571Y-93292190D01*
X401107142Y-93216000D01*
X400964285Y-93139809D01*
X400607142Y-93139809D01*
X400392857Y-93216000D01*
X399964285Y-93139809D02*
X399107142Y-93139809D01*
X399535714Y-94739809D02*
X399535714Y-93139809D01*
X397750000Y-94739809D02*
X398250000Y-93977904D01*
X398607142Y-94739809D02*
X398607142Y-93139809D01*
X398035714Y-93139809D01*
X397892857Y-93216000D01*
X397821428Y-93292190D01*
X397750000Y-93444571D01*
X397750000Y-93673142D01*
X397821428Y-93825523D01*
X397892857Y-93901714D01*
X398035714Y-93977904D01*
X398607142Y-93977904D01*
D12*
X497833333Y-196904761D02*
X498976190Y-196904761D01*
X498404761Y-196904761D02*
X498404761Y-194904761D01*
X498595238Y-195190476D01*
X498785714Y-195380952D01*
X498976190Y-195476190D01*
X497071428Y-195095238D02*
X496976190Y-195000000D01*
X496785714Y-194904761D01*
X496309523Y-194904761D01*
X496119047Y-195000000D01*
X496023809Y-195095238D01*
X495928571Y-195285714D01*
X495928571Y-195476190D01*
X496023809Y-195761904D01*
X497166666Y-196904761D01*
X495928571Y-196904761D01*
X495357142Y-194904761D02*
X494690476Y-196904761D01*
X494023809Y-194904761D01*
X491928571Y-196333333D02*
X490976190Y-196333333D01*
X492119047Y-196904761D02*
X491452380Y-194904761D01*
X490785714Y-196904761D01*
X486404761Y-195857142D02*
X486119047Y-195952380D01*
X486023809Y-196047619D01*
X485928571Y-196238095D01*
X485928571Y-196523809D01*
X486023809Y-196714285D01*
X486119047Y-196809523D01*
X486309523Y-196904761D01*
X487071428Y-196904761D01*
X487071428Y-194904761D01*
X486404761Y-194904761D01*
X486214285Y-195000000D01*
X486119047Y-195095238D01*
X486023809Y-195285714D01*
X486023809Y-195476190D01*
X486119047Y-195666666D01*
X486214285Y-195761904D01*
X486404761Y-195857142D01*
X487071428Y-195857142D01*
X480880952Y-196714285D02*
X480976190Y-196809523D01*
X481261904Y-196904761D01*
X481452380Y-196904761D01*
X481738095Y-196809523D01*
X481928571Y-196619047D01*
X482023809Y-196428571D01*
X482119047Y-196047619D01*
X482119047Y-195761904D01*
X482023809Y-195380952D01*
X481928571Y-195190476D01*
X481738095Y-195000000D01*
X481452380Y-194904761D01*
X481261904Y-194904761D01*
X480976190Y-195000000D01*
X480880952Y-195095238D01*
X476976190Y-196904761D02*
X476976190Y-194904761D01*
X476500000Y-194904761D01*
X476214285Y-195000000D01*
X476023809Y-195190476D01*
X475928571Y-195380952D01*
X475833333Y-195761904D01*
X475833333Y-196047619D01*
X475928571Y-196428571D01*
X476023809Y-196619047D01*
X476214285Y-196809523D01*
X476500000Y-196904761D01*
X476976190Y-196904761D01*
X471928571Y-195857142D02*
X471261904Y-195857142D01*
X470976190Y-196904761D02*
X471928571Y-196904761D01*
X471928571Y-194904761D01*
X470976190Y-194904761D01*
X466404761Y-195857142D02*
X467071428Y-195857142D01*
X467071428Y-196904761D02*
X467071428Y-194904761D01*
X466119047Y-194904761D01*
X461261904Y-195000000D02*
X461452380Y-194904761D01*
X461738095Y-194904761D01*
X462023809Y-195000000D01*
X462214285Y-195190476D01*
X462309523Y-195380952D01*
X462404761Y-195761904D01*
X462404761Y-196047619D01*
X462309523Y-196428571D01*
X462214285Y-196619047D01*
X462023809Y-196809523D01*
X461738095Y-196904761D01*
X461547619Y-196904761D01*
X461261904Y-196809523D01*
X461166666Y-196714285D01*
X461166666Y-196047619D01*
X461547619Y-196047619D01*
X457261904Y-196904761D02*
X457261904Y-194904761D01*
X457261904Y-195857142D02*
X456119047Y-195857142D01*
X456119047Y-196904761D02*
X456119047Y-194904761D01*
D11*
X562642857Y-76098285D02*
X561500000Y-76098285D01*
X562071428Y-76707809D02*
X562071428Y-75488761D01*
X560000000Y-76707809D02*
X560857142Y-76707809D01*
X560428571Y-76707809D02*
X560428571Y-75107809D01*
X560571428Y-75336380D01*
X560714285Y-75488761D01*
X560857142Y-75564952D01*
X559428571Y-75260190D02*
X559357142Y-75184000D01*
X559214285Y-75107809D01*
X558857142Y-75107809D01*
X558714285Y-75184000D01*
X558642857Y-75260190D01*
X558571428Y-75412571D01*
X558571428Y-75564952D01*
X558642857Y-75793523D01*
X559500000Y-76707809D01*
X558571428Y-76707809D01*
X558142857Y-75107809D02*
X557642857Y-76707809D01*
X557142857Y-75107809D01*
X562642857Y-78674285D02*
X561500000Y-78674285D01*
X562071428Y-79283809D02*
X562071428Y-78064761D01*
X560000000Y-79283809D02*
X560857142Y-79283809D01*
X560428571Y-79283809D02*
X560428571Y-77683809D01*
X560571428Y-77912380D01*
X560714285Y-78064761D01*
X560857142Y-78140952D01*
X559428571Y-77836190D02*
X559357142Y-77760000D01*
X559214285Y-77683809D01*
X558857142Y-77683809D01*
X558714285Y-77760000D01*
X558642857Y-77836190D01*
X558571428Y-77988571D01*
X558571428Y-78140952D01*
X558642857Y-78369523D01*
X559500000Y-79283809D01*
X558571428Y-79283809D01*
X558142857Y-77683809D02*
X557642857Y-79283809D01*
X557142857Y-77683809D01*
X561142857Y-80336000D02*
X561285714Y-80259809D01*
X561500000Y-80259809D01*
X561714285Y-80336000D01*
X561857142Y-80488380D01*
X561928571Y-80640761D01*
X562000000Y-80945523D01*
X562000000Y-81174095D01*
X561928571Y-81478857D01*
X561857142Y-81631238D01*
X561714285Y-81783619D01*
X561500000Y-81859809D01*
X561357142Y-81859809D01*
X561142857Y-81783619D01*
X561071428Y-81707428D01*
X561071428Y-81174095D01*
X561357142Y-81174095D01*
X560428571Y-81859809D02*
X560428571Y-80259809D01*
X559571428Y-81859809D01*
X559571428Y-80259809D01*
X558857142Y-81859809D02*
X558857142Y-80259809D01*
X558500000Y-80259809D01*
X558285714Y-80336000D01*
X558142857Y-80488380D01*
X558071428Y-80640761D01*
X558000000Y-80945523D01*
X558000000Y-81174095D01*
X558071428Y-81478857D01*
X558142857Y-81631238D01*
X558285714Y-81783619D01*
X558500000Y-81859809D01*
X558857142Y-81859809D01*
X561142857Y-82912000D02*
X561285714Y-82835809D01*
X561500000Y-82835809D01*
X561714285Y-82912000D01*
X561857142Y-83064380D01*
X561928571Y-83216761D01*
X562000000Y-83521523D01*
X562000000Y-83750095D01*
X561928571Y-84054857D01*
X561857142Y-84207238D01*
X561714285Y-84359619D01*
X561500000Y-84435809D01*
X561357142Y-84435809D01*
X561142857Y-84359619D01*
X561071428Y-84283428D01*
X561071428Y-83750095D01*
X561357142Y-83750095D01*
X560428571Y-84435809D02*
X560428571Y-82835809D01*
X559571428Y-84435809D01*
X559571428Y-82835809D01*
X558857142Y-84435809D02*
X558857142Y-82835809D01*
X558500000Y-82835809D01*
X558285714Y-82912000D01*
X558142857Y-83064380D01*
X558071428Y-83216761D01*
X558000000Y-83521523D01*
X558000000Y-83750095D01*
X558071428Y-84054857D01*
X558142857Y-84207238D01*
X558285714Y-84359619D01*
X558500000Y-84435809D01*
X558857142Y-84435809D01*
X561928571Y-86402285D02*
X560785714Y-86402285D01*
X561357142Y-87011809D02*
X561357142Y-85792761D01*
X559357142Y-85411809D02*
X560071428Y-85411809D01*
X560142857Y-86173714D01*
X560071428Y-86097523D01*
X559928571Y-86021333D01*
X559571428Y-86021333D01*
X559428571Y-86097523D01*
X559357142Y-86173714D01*
X559285714Y-86326095D01*
X559285714Y-86707047D01*
X559357142Y-86859428D01*
X559428571Y-86935619D01*
X559571428Y-87011809D01*
X559928571Y-87011809D01*
X560071428Y-86935619D01*
X560142857Y-86859428D01*
X558857142Y-85411809D02*
X558357142Y-87011809D01*
X557857142Y-85411809D01*
X562000000Y-89587809D02*
X562000000Y-87987809D01*
X561642857Y-87987809D01*
X561428571Y-88064000D01*
X561285714Y-88216380D01*
X561214285Y-88368761D01*
X561142857Y-88673523D01*
X561142857Y-88902095D01*
X561214285Y-89206857D01*
X561285714Y-89359238D01*
X561428571Y-89511619D01*
X561642857Y-89587809D01*
X562000000Y-89587809D01*
X560857142Y-89740190D02*
X559714285Y-89740190D01*
X559357142Y-89587809D02*
X559357142Y-87987809D01*
X558642857Y-88521142D02*
X558642857Y-89587809D01*
X558642857Y-88673523D02*
X558571428Y-88597333D01*
X558428571Y-88521142D01*
X558214285Y-88521142D01*
X558071428Y-88597333D01*
X558000000Y-88749714D01*
X558000000Y-89587809D01*
X560892857Y-92011428D02*
X560964285Y-92087619D01*
X561178571Y-92163809D01*
X561321428Y-92163809D01*
X561535714Y-92087619D01*
X561678571Y-91935238D01*
X561750000Y-91782857D01*
X561821428Y-91478095D01*
X561821428Y-91249523D01*
X561750000Y-90944761D01*
X561678571Y-90792380D01*
X561535714Y-90640000D01*
X561321428Y-90563809D01*
X561178571Y-90563809D01*
X560964285Y-90640000D01*
X560892857Y-90716190D01*
X559535714Y-92163809D02*
X560250000Y-92163809D01*
X560250000Y-90563809D01*
X559035714Y-92163809D02*
X559035714Y-90563809D01*
X558178571Y-92163809D02*
X558821428Y-91249523D01*
X558178571Y-90563809D02*
X559035714Y-91478095D01*
X561750000Y-94663619D02*
X561535714Y-94739809D01*
X561178571Y-94739809D01*
X561035714Y-94663619D01*
X560964285Y-94587428D01*
X560892857Y-94435047D01*
X560892857Y-94282666D01*
X560964285Y-94130285D01*
X561035714Y-94054095D01*
X561178571Y-93977904D01*
X561464285Y-93901714D01*
X561607142Y-93825523D01*
X561678571Y-93749333D01*
X561750000Y-93596952D01*
X561750000Y-93444571D01*
X561678571Y-93292190D01*
X561607142Y-93216000D01*
X561464285Y-93139809D01*
X561107142Y-93139809D01*
X560892857Y-93216000D01*
X560464285Y-93139809D02*
X559607142Y-93139809D01*
X560035714Y-94739809D02*
X560035714Y-93139809D01*
X558250000Y-94739809D02*
X558750000Y-93977904D01*
X559107142Y-94739809D02*
X559107142Y-93139809D01*
X558535714Y-93139809D01*
X558392857Y-93216000D01*
X558321428Y-93292190D01*
X558250000Y-93444571D01*
X558250000Y-93673142D01*
X558321428Y-93825523D01*
X558392857Y-93901714D01*
X558535714Y-93977904D01*
X559107142Y-93977904D01*
D13*
%TO.C,REF\u002A\u002A*%
X512833500Y-85627000D02*
X520326500Y-85627000D01*
X520326500Y-85373000D02*
X512833500Y-85373000D01*
X489333500Y-70127000D02*
X496826500Y-70127000D01*
X496826500Y-69873000D02*
X489333500Y-69873000D01*
X540253500Y-168627000D02*
X547746500Y-168627000D01*
X547746500Y-168373000D02*
X540253500Y-168373000D01*
X420253500Y-135127000D02*
X427746500Y-135127000D01*
X427746500Y-134873000D02*
X420253500Y-134873000D01*
X514833500Y-167627000D02*
X527406500Y-167627000D01*
X527406500Y-167373000D02*
X514833500Y-167373000D01*
X410253500Y-66627000D02*
X417746500Y-66627000D01*
X417746500Y-66373000D02*
X410253500Y-66373000D01*
X510627000Y-68166500D02*
X510627000Y-60673500D01*
X510373000Y-60673500D02*
X510373000Y-68166500D01*
X410753500Y-116627000D02*
X418246500Y-116627000D01*
X418246500Y-116373000D02*
X410753500Y-116373000D01*
X511127000Y-133746500D02*
X511127000Y-126253500D01*
X510873000Y-126253500D02*
X510873000Y-133746500D01*
X452166500Y-113373000D02*
X444673500Y-113373000D01*
X444673500Y-113627000D02*
X452166500Y-113627000D01*
X552627000Y-78246500D02*
X552627000Y-70753500D01*
X552373000Y-70753500D02*
X552373000Y-78246500D01*
X456873000Y-72673500D02*
X456873000Y-80166500D01*
X457127000Y-80166500D02*
X457127000Y-72673500D01*
X416627000Y-129746500D02*
X416627000Y-122253500D01*
X416373000Y-122253500D02*
X416373000Y-129746500D01*
X555127000Y-89746500D02*
X555127000Y-82253500D01*
X554873000Y-82253500D02*
X554873000Y-89746500D01*
X420246500Y-35373000D02*
X412753500Y-35373000D01*
X412753500Y-35627000D02*
X420246500Y-35627000D01*
X496826500Y-55873000D02*
X489333500Y-55873000D01*
X489333500Y-56127000D02*
X496826500Y-56127000D01*
X489333500Y-66627000D02*
X496826500Y-66627000D01*
X496826500Y-66373000D02*
X489333500Y-66373000D01*
X453873000Y-82753500D02*
X453873000Y-90246500D01*
X454127000Y-90246500D02*
X454127000Y-82753500D01*
X470253500Y-103627000D02*
X477746500Y-103627000D01*
X477746500Y-103373000D02*
X470253500Y-103373000D01*
X510627000Y-30746500D02*
X510627000Y-23253500D01*
X510373000Y-23253500D02*
X510373000Y-30746500D01*
X480127000Y-153166500D02*
X480127000Y-145673500D01*
X479873000Y-145673500D02*
X479873000Y-153166500D01*
X553127000Y-138666500D02*
X553127000Y-131173500D01*
X552873000Y-131173500D02*
X552873000Y-138666500D01*
X458127000Y-130666500D02*
X458127000Y-123173500D01*
X457873000Y-123173500D02*
X457873000Y-130666500D01*
X491873000Y-87753500D02*
X491873000Y-95246500D01*
X492127000Y-95246500D02*
X492127000Y-87753500D01*
X460627000Y-90246500D02*
X460627000Y-82753500D01*
X460373000Y-82753500D02*
X460373000Y-90246500D01*
X513753500Y-220127000D02*
X521246500Y-220127000D01*
X521246500Y-219873000D02*
X513753500Y-219873000D01*
X489333500Y-63127000D02*
X496826500Y-63127000D01*
X496826500Y-62873000D02*
X489333500Y-62873000D01*
X558127000Y-100246500D02*
X558127000Y-92753500D01*
X557873000Y-92753500D02*
X557873000Y-100246500D01*
X401127000Y-82246500D02*
X401127000Y-74753500D01*
X400873000Y-74753500D02*
X400873000Y-82246500D01*
X469627000Y-152666500D02*
X469627000Y-145173500D01*
X469373000Y-145173500D02*
X469373000Y-152666500D01*
X483746500Y-53873000D02*
X476253500Y-53873000D01*
X476253500Y-54127000D02*
X483746500Y-54127000D01*
X500127000Y-46746500D02*
X500127000Y-39253500D01*
X499873000Y-39253500D02*
X499873000Y-46746500D01*
X543253500Y-83627000D02*
X550746500Y-83627000D01*
X550746500Y-83373000D02*
X543253500Y-83373000D01*
X549127000Y-78246500D02*
X549127000Y-70753500D01*
X548873000Y-70753500D02*
X548873000Y-78246500D01*
X444253500Y-56627000D02*
X451746500Y-56627000D01*
X451746500Y-56373000D02*
X444253500Y-56373000D01*
X399753500Y-69627000D02*
X407246500Y-69627000D01*
X407246500Y-69373000D02*
X399753500Y-69373000D01*
X517833500Y-95627000D02*
X525326500Y-95627000D01*
X525326500Y-95373000D02*
X517833500Y-95373000D01*
X477746500Y-100373000D02*
X470253500Y-100373000D01*
X470253500Y-100627000D02*
X477746500Y-100627000D01*
X496746500Y-51873000D02*
X489253500Y-51873000D01*
X489253500Y-52127000D02*
X496746500Y-52127000D01*
X442173500Y-124627000D02*
X449666500Y-124627000D01*
X449666500Y-124373000D02*
X442173500Y-124373000D01*
X510333500Y-182127000D02*
X517826500Y-182127000D01*
X517826500Y-181873000D02*
X510333500Y-181873000D01*
X480127000Y-130246500D02*
X480127000Y-122753500D01*
X479873000Y-122753500D02*
X479873000Y-130246500D01*
X530253500Y-138127000D02*
X537746500Y-138127000D01*
X537746500Y-137873000D02*
X530253500Y-137873000D01*
X500127000Y-33286500D02*
X500127000Y-20713500D01*
X499873000Y-20713500D02*
X499873000Y-33286500D01*
X517253500Y-54127000D02*
X524746500Y-54127000D01*
X524746500Y-53873000D02*
X517253500Y-53873000D01*
X448746500Y-96373000D02*
X441253500Y-96373000D01*
X441253500Y-96627000D02*
X448746500Y-96627000D01*
X558127000Y-77666500D02*
X558127000Y-70173500D01*
X557873000Y-70173500D02*
X557873000Y-77666500D01*
X488373000Y-98333500D02*
X488373000Y-105826500D01*
X488627000Y-105826500D02*
X488627000Y-98333500D01*
X513627000Y-71826500D02*
X513627000Y-64333500D01*
X513373000Y-64333500D02*
X513373000Y-71826500D01*
X430746500Y-96373000D02*
X423253500Y-96373000D01*
X423253500Y-96627000D02*
X430746500Y-96627000D01*
X479627000Y-49746500D02*
X479627000Y-42253500D01*
X479373000Y-42253500D02*
X479373000Y-49746500D01*
X470253500Y-97627000D02*
X477746500Y-97627000D01*
X477746500Y-97373000D02*
X470253500Y-97373000D01*
X513753500Y-157127000D02*
X521246500Y-157127000D01*
X521246500Y-156873000D02*
X513753500Y-156873000D01*
X540333500Y-95627000D02*
X547826500Y-95627000D01*
X547826500Y-95373000D02*
X540333500Y-95373000D01*
X510333500Y-179127000D02*
X517826500Y-179127000D01*
X517826500Y-178873000D02*
X510333500Y-178873000D01*
X414333500Y-54127000D02*
X421826500Y-54127000D01*
X421826500Y-53873000D02*
X414333500Y-53873000D01*
X441253500Y-81627000D02*
X448746500Y-81627000D01*
X448746500Y-81373000D02*
X441253500Y-81373000D01*
X498627000Y-90166500D02*
X498627000Y-82673500D01*
X498373000Y-82673500D02*
X498373000Y-90166500D01*
X418246500Y-96373000D02*
X410753500Y-96373000D01*
X410753500Y-96627000D02*
X418246500Y-96627000D01*
X540753500Y-187127000D02*
X548246500Y-187127000D01*
X548246500Y-186873000D02*
X540753500Y-186873000D01*
X513753500Y-188627000D02*
X521246500Y-188627000D01*
X521246500Y-188373000D02*
X513753500Y-188373000D01*
X537978500Y-156957000D02*
X545471500Y-156957000D01*
X545471500Y-156703000D02*
X537978500Y-156703000D01*
X407127000Y-91746500D02*
X407127000Y-84253500D01*
X406873000Y-84253500D02*
X406873000Y-91746500D01*
X479127000Y-30746500D02*
X479127000Y-23253500D01*
X478873000Y-23253500D02*
X478873000Y-30746500D01*
X489333500Y-59627000D02*
X496826500Y-59627000D01*
X496826500Y-59373000D02*
X489333500Y-59373000D01*
X507673500Y-100627000D02*
X515166500Y-100627000D01*
X515166500Y-100373000D02*
X507673500Y-100373000D01*
X407253500Y-63127000D02*
X414746500Y-63127000D01*
X414746500Y-62873000D02*
X407253500Y-62873000D01*
X410753500Y-85627000D02*
X418246500Y-85627000D01*
X418246500Y-85373000D02*
X410753500Y-85373000D01*
X560627000Y-94786500D02*
X560627000Y-82213500D01*
X560373000Y-82213500D02*
X560373000Y-94786500D01*
X456873000Y-92833500D02*
X456873000Y-100326500D01*
X457127000Y-100326500D02*
X457127000Y-92833500D01*
X495627000Y-85166500D02*
X495627000Y-77673500D01*
X495373000Y-77673500D02*
X495373000Y-85166500D01*
X482700000Y-200000000D02*
G75*
G03*
X482700000Y-200000000I-1450000J0D01*
G01*
X467700000Y-200000000D02*
G75*
G03*
X467700000Y-200000000I-1450000J0D01*
G01*
X462700000Y-200000000D02*
G75*
G03*
X462700000Y-200000000I-1450000J0D01*
G01*
X457950000Y-200000000D02*
G75*
G03*
X457950000Y-200000000I-1450000J0D01*
G01*
X487700000Y-200000000D02*
G75*
G03*
X487700000Y-200000000I-1450000J0D01*
G01*
X477700000Y-200000000D02*
G75*
G03*
X477700000Y-200000000I-1450000J0D01*
G01*
X492700000Y-200000000D02*
G75*
G03*
X492700000Y-200000000I-1450000J0D01*
G01*
X497700000Y-200000000D02*
G75*
G03*
X497700000Y-200000000I-1450000J0D01*
G01*
X472700000Y-200000000D02*
G75*
G03*
X472700000Y-200000000I-1450000J0D01*
G01*
%TD*%
%LPC*%
D14*
%TO.C,REF\u002A\u002A*%
X402000000Y-21000000D03*
X396000000Y-21000000D03*
X396878680Y-23121320D03*
D15*
X399000000Y-21000000D03*
D14*
X396878680Y-18878680D03*
X399000000Y-18000000D03*
X401121320Y-23121320D03*
X401121320Y-18878680D03*
X399000000Y-24000000D03*
%TD*%
%TO.C,REF\u002A\u002A*%
X402000000Y-254000000D03*
X396000000Y-254000000D03*
X396878680Y-256121320D03*
D15*
X399000000Y-254000000D03*
D14*
X396878680Y-251878680D03*
X399000000Y-251000000D03*
X401121320Y-256121320D03*
X401121320Y-251878680D03*
X399000000Y-257000000D03*
%TD*%
%TO.C,REF\u002A\u002A*%
X563000000Y-254000000D03*
X557000000Y-254000000D03*
X557878680Y-256121320D03*
D15*
X560000000Y-254000000D03*
D14*
X557878680Y-251878680D03*
X560000000Y-251000000D03*
X562121320Y-256121320D03*
X562121320Y-251878680D03*
X560000000Y-257000000D03*
%TD*%
%TO.C,REF\u002A\u002A*%
X558000000Y-21000000D03*
X563121320Y-18878680D03*
X561000000Y-24000000D03*
X563121320Y-23121320D03*
X558878680Y-23121320D03*
X558878680Y-18878680D03*
X561000000Y-18000000D03*
D15*
X561000000Y-21000000D03*
D14*
X564000000Y-21000000D03*
%TD*%
D16*
%TO.C,REF\u002A\u002A*%
X526515000Y-162250000D03*
D17*
X523975000Y-162250000D03*
%TD*%
D16*
%TO.C,REF\u002A\u002A*%
X464555000Y-141000000D03*
D17*
X462015000Y-141000000D03*
%TD*%
D16*
%TO.C,REF\u002A\u002A*%
X526485000Y-225250000D03*
D17*
X523945000Y-225250000D03*
%TD*%
D16*
%TO.C,REF\u002A\u002A*%
X423605000Y-172750000D03*
D17*
X421065000Y-172750000D03*
%TD*%
D16*
%TO.C,REF\u002A\u002A*%
X435580000Y-137000000D03*
D17*
X433040000Y-137000000D03*
%TD*%
D18*
%TO.C,REF\u002A\u002A*%
X511500000Y-85500000D03*
D19*
X521660000Y-85500000D03*
%TD*%
D16*
%TO.C,REF\u002A\u002A*%
X454095000Y-133000000D03*
D17*
X451555000Y-133000000D03*
%TD*%
D18*
%TO.C,REF\u002A\u002A*%
X488000000Y-70000000D03*
D19*
X498160000Y-70000000D03*
%TD*%
D18*
%TO.C,REF\u002A\u002A*%
X538920000Y-168500000D03*
D19*
X549080000Y-168500000D03*
%TD*%
D20*
%TO.C,REF\u002A\u002A*%
X541645000Y-76500000D03*
D21*
X541645000Y-86660000D03*
%TD*%
D16*
%TO.C,REF\u002A\u002A*%
X525055000Y-137000000D03*
D17*
X522515000Y-137000000D03*
%TD*%
D20*
%TO.C,REF\u002A\u002A*%
X481670000Y-146500000D03*
D21*
X491830000Y-146500000D03*
%TD*%
D20*
%TO.C,REF\u002A\u002A*%
X467670000Y-43500000D03*
D21*
X477830000Y-43500000D03*
%TD*%
D16*
%TO.C,REF\u002A\u002A*%
X496257500Y-236007500D03*
D17*
X493717500Y-236007500D03*
%TD*%
D20*
%TO.C,REF\u002A\u002A*%
X541725000Y-179500000D03*
D21*
X541725000Y-189660000D03*
%TD*%
D20*
%TO.C,REF\u002A\u002A*%
X440162500Y-249507500D03*
D21*
X450322500Y-249507500D03*
%TD*%
D20*
%TO.C,REF\u002A\u002A*%
X438750000Y-48750000D03*
D21*
X438750000Y-58910000D03*
%TD*%
D16*
%TO.C,REF\u002A\u002A*%
X423525000Y-101250000D03*
D17*
X420985000Y-101250000D03*
%TD*%
D16*
%TO.C,REF\u002A\u002A*%
X434105000Y-151750000D03*
D17*
X431565000Y-151750000D03*
%TD*%
D18*
%TO.C,REF\u002A\u002A*%
X418920000Y-135000000D03*
D19*
X429080000Y-135000000D03*
%TD*%
D20*
%TO.C,REF\u002A\u002A*%
X438830000Y-165580000D03*
D21*
X438830000Y-175740000D03*
%TD*%
D20*
%TO.C,REF\u002A\u002A*%
X509340000Y-43500000D03*
D21*
X519500000Y-43500000D03*
%TD*%
D18*
%TO.C,REF\u002A\u002A*%
X513500000Y-167500000D03*
D19*
X528740000Y-167500000D03*
%TD*%
D18*
%TO.C,REF\u002A\u002A*%
X408920000Y-66500000D03*
D19*
X419080000Y-66500000D03*
%TD*%
D20*
%TO.C,REF\u002A\u002A*%
X453830000Y-146500000D03*
D21*
X463990000Y-146500000D03*
%TD*%
D16*
%TO.C,REF\u002A\u002A*%
X485555000Y-133000000D03*
D17*
X483015000Y-133000000D03*
%TD*%
D16*
%TO.C,REF\u002A\u002A*%
X423525000Y-80250000D03*
D17*
X420985000Y-80250000D03*
%TD*%
D16*
%TO.C,REF\u002A\u002A*%
X423605000Y-204250000D03*
D17*
X421065000Y-204250000D03*
%TD*%
D16*
%TO.C,REF\u002A\u002A*%
X526405000Y-90750000D03*
D17*
X523865000Y-90750000D03*
%TD*%
D16*
%TO.C,REF\u002A\u002A*%
X454015000Y-30000000D03*
D17*
X451475000Y-30000000D03*
%TD*%
D20*
%TO.C,REF\u002A\u002A*%
X438750000Y-118170000D03*
D21*
X438750000Y-128330000D03*
%TD*%
D20*
%TO.C,REF\u002A\u002A*%
X541725000Y-193420000D03*
D21*
X541725000Y-203580000D03*
%TD*%
D22*
%TO.C,REF\u002A\u002A*%
X394000000Y-76000000D03*
D23*
X394000000Y-78540000D03*
X394000000Y-81080000D03*
X394000000Y-83620000D03*
X394000000Y-86160000D03*
X394000000Y-88700000D03*
X394000000Y-91240000D03*
X394000000Y-93780000D03*
%TD*%
D16*
%TO.C,REF\u002A\u002A*%
X434105000Y-204250000D03*
D17*
X431565000Y-204250000D03*
%TD*%
D16*
%TO.C,REF\u002A\u002A*%
X506757500Y-236007500D03*
D17*
X504217500Y-236007500D03*
%TD*%
D18*
%TO.C,REF\u002A\u002A*%
X510500000Y-69500000D03*
D19*
X510500000Y-59340000D03*
%TD*%
D16*
%TO.C,REF\u002A\u002A*%
X434090000Y-193750000D03*
D17*
X431550000Y-193750000D03*
%TD*%
D16*
%TO.C,REF\u002A\u002A*%
X443717500Y-236007500D03*
D17*
X441177500Y-236007500D03*
%TD*%
D16*
%TO.C,REF\u002A\u002A*%
X536985000Y-225250000D03*
D17*
X534445000Y-225250000D03*
%TD*%
D18*
%TO.C,REF\u002A\u002A*%
X409420000Y-116500000D03*
D19*
X419580000Y-116500000D03*
%TD*%
D18*
%TO.C,REF\u002A\u002A*%
X511000000Y-135080000D03*
D19*
X511000000Y-124920000D03*
%TD*%
D18*
%TO.C,REF\u002A\u002A*%
X453500000Y-113500000D03*
D19*
X443340000Y-113500000D03*
%TD*%
D18*
%TO.C,REF\u002A\u002A*%
X552500000Y-79580000D03*
D19*
X552500000Y-69420000D03*
%TD*%
D16*
%TO.C,REF\u002A\u002A*%
X423510000Y-90750000D03*
D17*
X420970000Y-90750000D03*
%TD*%
D16*
%TO.C,REF\u002A\u002A*%
X536920000Y-101250000D03*
D17*
X534380000Y-101250000D03*
%TD*%
D16*
%TO.C,REF\u002A\u002A*%
X475055000Y-141000000D03*
D17*
X472515000Y-141000000D03*
%TD*%
D16*
%TO.C,REF\u002A\u002A*%
X428775000Y-130250000D03*
D17*
X426235000Y-130250000D03*
%TD*%
D16*
%TO.C,REF\u002A\u002A*%
X526485000Y-193750000D03*
D17*
X523945000Y-193750000D03*
%TD*%
D18*
%TO.C,REF\u002A\u002A*%
X457000000Y-71340000D03*
D19*
X457000000Y-81500000D03*
%TD*%
D16*
%TO.C,REF\u002A\u002A*%
X526500000Y-183250000D03*
D17*
X523960000Y-183250000D03*
%TD*%
D16*
%TO.C,REF\u002A\u002A*%
X464717500Y-236007500D03*
D17*
X462177500Y-236007500D03*
%TD*%
D18*
%TO.C,REF\u002A\u002A*%
X416500000Y-131080000D03*
D19*
X416500000Y-120920000D03*
%TD*%
D18*
%TO.C,REF\u002A\u002A*%
X555000000Y-91080000D03*
D19*
X555000000Y-80920000D03*
%TD*%
D18*
%TO.C,REF\u002A\u002A*%
X421580000Y-35500000D03*
D19*
X411420000Y-35500000D03*
%TD*%
D16*
%TO.C,REF\u002A\u002A*%
X434010000Y-90750000D03*
D17*
X431470000Y-90750000D03*
%TD*%
D18*
%TO.C,REF\u002A\u002A*%
X498160000Y-56000000D03*
D19*
X488000000Y-56000000D03*
%TD*%
D16*
%TO.C,REF\u002A\u002A*%
X434105000Y-172750000D03*
D17*
X431565000Y-172750000D03*
%TD*%
D16*
%TO.C,REF\u002A\u002A*%
X526420000Y-111750000D03*
D17*
X523880000Y-111750000D03*
%TD*%
D16*
%TO.C,REF\u002A\u002A*%
X423525000Y-48750000D03*
D17*
X420985000Y-48750000D03*
%TD*%
D18*
%TO.C,REF\u002A\u002A*%
X488000000Y-66500000D03*
D19*
X498160000Y-66500000D03*
%TD*%
D16*
%TO.C,REF\u002A\u002A*%
X423525000Y-69750000D03*
D17*
X420985000Y-69750000D03*
%TD*%
D20*
%TO.C,REF\u002A\u002A*%
X438830000Y-179500000D03*
D21*
X438830000Y-189660000D03*
%TD*%
D18*
%TO.C,REF\u002A\u002A*%
X454000000Y-81420000D03*
D19*
X454000000Y-91580000D03*
%TD*%
D16*
%TO.C,REF\u002A\u002A*%
X428750000Y-40750000D03*
D17*
X426210000Y-40750000D03*
%TD*%
D20*
%TO.C,REF\u002A\u002A*%
X439920000Y-43500000D03*
D21*
X450080000Y-43500000D03*
%TD*%
D16*
%TO.C,REF\u002A\u002A*%
X536935000Y-59250000D03*
D17*
X534395000Y-59250000D03*
%TD*%
D18*
%TO.C,REF\u002A\u002A*%
X468920000Y-103500000D03*
D19*
X479080000Y-103500000D03*
%TD*%
D20*
%TO.C,REF\u002A\u002A*%
X541645000Y-62580000D03*
D21*
X541645000Y-72740000D03*
%TD*%
D18*
%TO.C,REF\u002A\u002A*%
X510500000Y-32080000D03*
D19*
X510500000Y-21920000D03*
%TD*%
D18*
%TO.C,REF\u002A\u002A*%
X480000000Y-154500000D03*
D19*
X480000000Y-144340000D03*
%TD*%
D16*
%TO.C,REF\u002A\u002A*%
X443555000Y-141000000D03*
D17*
X441015000Y-141000000D03*
%TD*%
D16*
%TO.C,REF\u002A\u002A*%
X496015000Y-38000000D03*
D17*
X493475000Y-38000000D03*
%TD*%
D16*
%TO.C,REF\u002A\u002A*%
X531670000Y-130250000D03*
D17*
X529130000Y-130250000D03*
%TD*%
D20*
%TO.C,REF\u002A\u002A*%
X438750000Y-90420000D03*
D21*
X438750000Y-100580000D03*
%TD*%
D16*
%TO.C,REF\u002A\u002A*%
X517095000Y-133000000D03*
D17*
X514555000Y-133000000D03*
%TD*%
D16*
%TO.C,REF\u002A\u002A*%
X443555000Y-133000000D03*
D17*
X441015000Y-133000000D03*
%TD*%
D20*
%TO.C,REF\u002A\u002A*%
X467912500Y-249507500D03*
D21*
X478072500Y-249507500D03*
%TD*%
D16*
%TO.C,REF\u002A\u002A*%
X526500000Y-204250000D03*
D17*
X523960000Y-204250000D03*
%TD*%
D16*
%TO.C,REF\u002A\u002A*%
X434025000Y-111750000D03*
D17*
X431485000Y-111750000D03*
%TD*%
D16*
%TO.C,REF\u002A\u002A*%
X434090000Y-225250000D03*
D17*
X431550000Y-225250000D03*
%TD*%
D16*
%TO.C,REF\u002A\u002A*%
X475217500Y-244007500D03*
D17*
X472677500Y-244007500D03*
%TD*%
D16*
%TO.C,REF\u002A\u002A*%
X537000000Y-183250000D03*
D17*
X534460000Y-183250000D03*
%TD*%
D16*
%TO.C,REF\u002A\u002A*%
X423510000Y-122250000D03*
D17*
X420970000Y-122250000D03*
%TD*%
D16*
%TO.C,REF\u002A\u002A*%
X526420000Y-80250000D03*
D17*
X523880000Y-80250000D03*
%TD*%
D18*
%TO.C,REF\u002A\u002A*%
X553000000Y-140000000D03*
D19*
X553000000Y-129840000D03*
%TD*%
D16*
%TO.C,REF\u002A\u002A*%
X434105000Y-214750000D03*
D17*
X431565000Y-214750000D03*
%TD*%
D18*
%TO.C,REF\u002A\u002A*%
X458000000Y-132000000D03*
D19*
X458000000Y-121840000D03*
%TD*%
D16*
%TO.C,REF\u002A\u002A*%
X526420000Y-101250000D03*
D17*
X523880000Y-101250000D03*
%TD*%
D18*
%TO.C,REF\u002A\u002A*%
X492000000Y-86420000D03*
D19*
X492000000Y-96580000D03*
%TD*%
D16*
%TO.C,REF\u002A\u002A*%
X423540000Y-59250000D03*
D17*
X421000000Y-59250000D03*
%TD*%
D16*
%TO.C,REF\u002A\u002A*%
X475217500Y-236007500D03*
D17*
X472677500Y-236007500D03*
%TD*%
D16*
%TO.C,REF\u002A\u002A*%
X526500000Y-214750000D03*
D17*
X523960000Y-214750000D03*
%TD*%
D18*
%TO.C,REF\u002A\u002A*%
X460500000Y-91580000D03*
D19*
X460500000Y-81420000D03*
%TD*%
D16*
%TO.C,REF\u002A\u002A*%
X434010000Y-122250000D03*
D17*
X431470000Y-122250000D03*
%TD*%
D20*
%TO.C,REF\u002A\u002A*%
X438750000Y-104250000D03*
D21*
X438750000Y-114410000D03*
%TD*%
D20*
%TO.C,REF\u002A\u002A*%
X495500000Y-146500000D03*
D21*
X505660000Y-146500000D03*
%TD*%
D18*
%TO.C,REF\u002A\u002A*%
X512420000Y-220000000D03*
D19*
X522580000Y-220000000D03*
%TD*%
D16*
%TO.C,REF\u002A\u002A*%
X428855000Y-233250000D03*
D17*
X426315000Y-233250000D03*
%TD*%
D16*
%TO.C,REF\u002A\u002A*%
X443717500Y-244007500D03*
D17*
X441177500Y-244007500D03*
%TD*%
D16*
%TO.C,REF\u002A\u002A*%
X423590000Y-193750000D03*
D17*
X421050000Y-193750000D03*
%TD*%
D22*
%TO.C,REF\u002A\u002A*%
X564500000Y-76125000D03*
D23*
X564500000Y-78665000D03*
X564500000Y-81205000D03*
X564500000Y-83745000D03*
X564500000Y-86285000D03*
X564500000Y-88825000D03*
X564500000Y-91365000D03*
X564500000Y-93905000D03*
%TD*%
D18*
%TO.C,REF\u002A\u002A*%
X488000000Y-63000000D03*
D19*
X498160000Y-63000000D03*
%TD*%
D20*
%TO.C,REF\u002A\u002A*%
X481590000Y-43500000D03*
D21*
X491750000Y-43500000D03*
%TD*%
D18*
%TO.C,REF\u002A\u002A*%
X558000000Y-101580000D03*
D19*
X558000000Y-91420000D03*
%TD*%
D18*
%TO.C,REF\u002A\u002A*%
X401000000Y-83580000D03*
D19*
X401000000Y-73420000D03*
%TD*%
D16*
%TO.C,REF\u002A\u002A*%
X423605000Y-151750000D03*
D17*
X421065000Y-151750000D03*
%TD*%
D18*
%TO.C,REF\u002A\u002A*%
X469500000Y-154000000D03*
D19*
X469500000Y-143840000D03*
%TD*%
D18*
%TO.C,REF\u002A\u002A*%
X485080000Y-54000000D03*
D19*
X474920000Y-54000000D03*
%TD*%
D16*
%TO.C,REF\u002A\u002A*%
X526420000Y-69750000D03*
D17*
X523880000Y-69750000D03*
%TD*%
D16*
%TO.C,REF\u002A\u002A*%
X496095000Y-133000000D03*
D17*
X493555000Y-133000000D03*
%TD*%
D16*
%TO.C,REF\u002A\u002A*%
X423620000Y-162250000D03*
D17*
X421080000Y-162250000D03*
%TD*%
D16*
%TO.C,REF\u002A\u002A*%
X496015000Y-30000000D03*
D17*
X493475000Y-30000000D03*
%TD*%
D18*
%TO.C,REF\u002A\u002A*%
X500000000Y-48080000D03*
D19*
X500000000Y-37920000D03*
%TD*%
D20*
%TO.C,REF\u002A\u002A*%
X438830000Y-151750000D03*
D21*
X438830000Y-161910000D03*
%TD*%
D20*
%TO.C,REF\u002A\u002A*%
X438830000Y-207250000D03*
D21*
X438830000Y-217410000D03*
%TD*%
D16*
%TO.C,REF\u002A\u002A*%
X506595000Y-133000000D03*
D17*
X504055000Y-133000000D03*
%TD*%
D16*
%TO.C,REF\u002A\u002A*%
X475055000Y-133000000D03*
D17*
X472515000Y-133000000D03*
%TD*%
D18*
%TO.C,REF\u002A\u002A*%
X541920000Y-83500000D03*
D19*
X552080000Y-83500000D03*
%TD*%
D16*
%TO.C,REF\u002A\u002A*%
X506595000Y-141000000D03*
D17*
X504055000Y-141000000D03*
%TD*%
D18*
%TO.C,REF\u002A\u002A*%
X549000000Y-79580000D03*
D19*
X549000000Y-69420000D03*
%TD*%
D20*
%TO.C,REF\u002A\u002A*%
X438830000Y-221170000D03*
D21*
X438830000Y-231330000D03*
%TD*%
D16*
%TO.C,REF\u002A\u002A*%
X536920000Y-111750000D03*
D17*
X534380000Y-111750000D03*
%TD*%
D20*
%TO.C,REF\u002A\u002A*%
X438830000Y-193420000D03*
D21*
X438830000Y-203580000D03*
%TD*%
D16*
%TO.C,REF\u002A\u002A*%
X517257500Y-236007500D03*
D17*
X514717500Y-236007500D03*
%TD*%
D16*
%TO.C,REF\u002A\u002A*%
X517015000Y-38000000D03*
D17*
X514475000Y-38000000D03*
%TD*%
D16*
%TO.C,REF\u002A\u002A*%
X496257500Y-244007500D03*
D17*
X493717500Y-244007500D03*
%TD*%
D18*
%TO.C,REF\u002A\u002A*%
X442920000Y-56500000D03*
D19*
X453080000Y-56500000D03*
%TD*%
D20*
%TO.C,REF\u002A\u002A*%
X541645000Y-90420000D03*
D21*
X541645000Y-100580000D03*
%TD*%
D16*
%TO.C,REF\u002A\u002A*%
X531725000Y-143750000D03*
D17*
X529185000Y-143750000D03*
%TD*%
D20*
%TO.C,REF\u002A\u002A*%
X453750000Y-43500000D03*
D21*
X463910000Y-43500000D03*
%TD*%
D18*
%TO.C,REF\u002A\u002A*%
X398420000Y-69500000D03*
D19*
X408580000Y-69500000D03*
%TD*%
D20*
%TO.C,REF\u002A\u002A*%
X541725000Y-151750000D03*
D21*
X541725000Y-161910000D03*
%TD*%
D18*
%TO.C,REF\u002A\u002A*%
X516500000Y-95500000D03*
D19*
X526660000Y-95500000D03*
%TD*%
D18*
%TO.C,REF\u002A\u002A*%
X479080000Y-100500000D03*
D19*
X468920000Y-100500000D03*
%TD*%
D16*
%TO.C,REF\u002A\u002A*%
X423605000Y-214750000D03*
D17*
X421065000Y-214750000D03*
%TD*%
D16*
%TO.C,REF\u002A\u002A*%
X506757500Y-244007500D03*
D17*
X504217500Y-244007500D03*
%TD*%
D20*
%TO.C,REF\u002A\u002A*%
X541725000Y-221170000D03*
D21*
X541725000Y-231330000D03*
%TD*%
D18*
%TO.C,REF\u002A\u002A*%
X498080000Y-52000000D03*
D19*
X487920000Y-52000000D03*
%TD*%
D16*
%TO.C,REF\u002A\u002A*%
X537015000Y-162250000D03*
D17*
X534475000Y-162250000D03*
%TD*%
D20*
%TO.C,REF\u002A\u002A*%
X509420000Y-146500000D03*
D21*
X519580000Y-146500000D03*
%TD*%
D16*
%TO.C,REF\u002A\u002A*%
X464475000Y-38000000D03*
D17*
X461935000Y-38000000D03*
%TD*%
D16*
%TO.C,REF\u002A\u002A*%
X454257500Y-236007500D03*
D17*
X451717500Y-236007500D03*
%TD*%
D16*
%TO.C,REF\u002A\u002A*%
X434025000Y-80250000D03*
D17*
X431485000Y-80250000D03*
%TD*%
D16*
%TO.C,REF\u002A\u002A*%
X434025000Y-69750000D03*
D17*
X431485000Y-69750000D03*
%TD*%
D18*
%TO.C,REF\u002A\u002A*%
X440840000Y-124500000D03*
D19*
X451000000Y-124500000D03*
%TD*%
D18*
%TO.C,REF\u002A\u002A*%
X509000000Y-182000000D03*
D19*
X519160000Y-182000000D03*
%TD*%
D18*
%TO.C,REF\u002A\u002A*%
X480000000Y-131580000D03*
D19*
X480000000Y-121420000D03*
%TD*%
D18*
%TO.C,REF\u002A\u002A*%
X528920000Y-138000000D03*
D19*
X539080000Y-138000000D03*
%TD*%
D16*
%TO.C,REF\u002A\u002A*%
X525217500Y-240007500D03*
D17*
X522677500Y-240007500D03*
%TD*%
D24*
%TO.C,REF\u002A\u002A*%
X475675000Y-76375000D03*
D25*
X475675000Y-78915000D03*
X475675000Y-81455000D03*
X475675000Y-83995000D03*
X475675000Y-86535000D03*
X475675000Y-89075000D03*
X475675000Y-91615000D03*
X475675000Y-94155000D03*
X483295000Y-94155000D03*
X483295000Y-91615000D03*
X483295000Y-89075000D03*
X483295000Y-86535000D03*
X483295000Y-83995000D03*
X483295000Y-81455000D03*
X483295000Y-78915000D03*
X483295000Y-76375000D03*
%TD*%
D20*
%TO.C,REF\u002A\u002A*%
X453992500Y-249507500D03*
D21*
X464152500Y-249507500D03*
%TD*%
D16*
%TO.C,REF\u002A\u002A*%
X506515000Y-30000000D03*
D17*
X503975000Y-30000000D03*
%TD*%
D16*
%TO.C,REF\u002A\u002A*%
X485475000Y-30000000D03*
D17*
X482935000Y-30000000D03*
%TD*%
D20*
%TO.C,REF\u002A\u002A*%
X541645000Y-48750000D03*
D21*
X541645000Y-58910000D03*
%TD*%
D16*
%TO.C,REF\u002A\u002A*%
X474975000Y-38000000D03*
D17*
X472435000Y-38000000D03*
%TD*%
D16*
%TO.C,REF\u002A\u002A*%
X464555000Y-133000000D03*
D17*
X462015000Y-133000000D03*
%TD*%
D16*
%TO.C,REF\u002A\u002A*%
X524975000Y-34000000D03*
D17*
X522435000Y-34000000D03*
%TD*%
D20*
%TO.C,REF\u002A\u002A*%
X541645000Y-118170000D03*
D21*
X541645000Y-128330000D03*
%TD*%
D16*
%TO.C,REF\u002A\u002A*%
X536920000Y-48750000D03*
D17*
X534380000Y-48750000D03*
%TD*%
D16*
%TO.C,REF\u002A\u002A*%
X526420000Y-48750000D03*
D17*
X523880000Y-48750000D03*
%TD*%
D16*
%TO.C,REF\u002A\u002A*%
X434025000Y-101250000D03*
D17*
X431485000Y-101250000D03*
%TD*%
D16*
%TO.C,REF\u002A\u002A*%
X496095000Y-141000000D03*
D17*
X493555000Y-141000000D03*
%TD*%
D18*
%TO.C,REF\u002A\u002A*%
X500000000Y-34620000D03*
D19*
X500000000Y-19380000D03*
%TD*%
D16*
%TO.C,REF\u002A\u002A*%
X464475000Y-30000000D03*
D17*
X461935000Y-30000000D03*
%TD*%
D18*
%TO.C,REF\u002A\u002A*%
X515920000Y-54000000D03*
D19*
X526080000Y-54000000D03*
%TD*%
D18*
%TO.C,REF\u002A\u002A*%
X450080000Y-96500000D03*
D19*
X439920000Y-96500000D03*
%TD*%
D18*
%TO.C,REF\u002A\u002A*%
X558000000Y-79000000D03*
D19*
X558000000Y-68840000D03*
%TD*%
D20*
%TO.C,REF\u002A\u002A*%
X509582500Y-249507500D03*
D21*
X519742500Y-249507500D03*
%TD*%
D18*
%TO.C,REF\u002A\u002A*%
X488500000Y-97000000D03*
D19*
X488500000Y-107160000D03*
%TD*%
D20*
%TO.C,REF\u002A\u002A*%
X541725000Y-207250000D03*
D21*
X541725000Y-217410000D03*
%TD*%
D16*
%TO.C,REF\u002A\u002A*%
X434025000Y-48750000D03*
D17*
X431485000Y-48750000D03*
%TD*%
D16*
%TO.C,REF\u002A\u002A*%
X536985000Y-193750000D03*
D17*
X534445000Y-193750000D03*
%TD*%
D18*
%TO.C,REF\u002A\u002A*%
X513500000Y-73160000D03*
D19*
X513500000Y-63000000D03*
%TD*%
D20*
%TO.C,REF\u002A\u002A*%
X440000000Y-146500000D03*
D21*
X450160000Y-146500000D03*
%TD*%
D16*
%TO.C,REF\u002A\u002A*%
X423525000Y-111750000D03*
D17*
X420985000Y-111750000D03*
%TD*%
D20*
%TO.C,REF\u002A\u002A*%
X467750000Y-146500000D03*
D21*
X477910000Y-146500000D03*
%TD*%
D18*
%TO.C,REF\u002A\u002A*%
X432080000Y-96500000D03*
D19*
X421920000Y-96500000D03*
%TD*%
D16*
%TO.C,REF\u002A\u002A*%
X454095000Y-141000000D03*
D17*
X451555000Y-141000000D03*
%TD*%
D16*
%TO.C,REF\u002A\u002A*%
X485717500Y-236007500D03*
D17*
X483177500Y-236007500D03*
%TD*%
D16*
%TO.C,REF\u002A\u002A*%
X531645000Y-40750000D03*
D17*
X529105000Y-40750000D03*
%TD*%
D16*
%TO.C,REF\u002A\u002A*%
X536905000Y-122250000D03*
D17*
X534365000Y-122250000D03*
%TD*%
D16*
%TO.C,REF\u002A\u002A*%
X517257500Y-244007500D03*
D17*
X514717500Y-244007500D03*
%TD*%
D20*
%TO.C,REF\u002A\u002A*%
X541725000Y-165580000D03*
D21*
X541725000Y-175740000D03*
%TD*%
D16*
%TO.C,REF\u002A\u002A*%
X537000000Y-172750000D03*
D17*
X534460000Y-172750000D03*
%TD*%
D16*
%TO.C,REF\u002A\u002A*%
X423590000Y-225250000D03*
D17*
X421050000Y-225250000D03*
%TD*%
D16*
%TO.C,REF\u002A\u002A*%
X464717500Y-244007500D03*
D17*
X462177500Y-244007500D03*
%TD*%
D16*
%TO.C,REF\u002A\u002A*%
X434120000Y-162250000D03*
D17*
X431580000Y-162250000D03*
%TD*%
D18*
%TO.C,REF\u002A\u002A*%
X479500000Y-51080000D03*
D19*
X479500000Y-40920000D03*
%TD*%
D16*
%TO.C,REF\u002A\u002A*%
X536920000Y-69750000D03*
D17*
X534380000Y-69750000D03*
%TD*%
D16*
%TO.C,REF\u002A\u002A*%
X454257500Y-244007500D03*
D17*
X451717500Y-244007500D03*
%TD*%
D20*
%TO.C,REF\u002A\u002A*%
X495662500Y-249507500D03*
D21*
X505822500Y-249507500D03*
%TD*%
D16*
%TO.C,REF\u002A\u002A*%
X485555000Y-141000000D03*
D17*
X483015000Y-141000000D03*
%TD*%
D16*
%TO.C,REF\u002A\u002A*%
X443475000Y-30000000D03*
D17*
X440935000Y-30000000D03*
%TD*%
D18*
%TO.C,REF\u002A\u002A*%
X468920000Y-97500000D03*
D19*
X479080000Y-97500000D03*
%TD*%
D18*
%TO.C,REF\u002A\u002A*%
X512420000Y-157000000D03*
D19*
X522580000Y-157000000D03*
%TD*%
D16*
%TO.C,REF\u002A\u002A*%
X536920000Y-80250000D03*
D17*
X534380000Y-80250000D03*
%TD*%
D16*
%TO.C,REF\u002A\u002A*%
X434105000Y-183250000D03*
D17*
X431565000Y-183250000D03*
%TD*%
D16*
%TO.C,REF\u002A\u002A*%
X423605000Y-183250000D03*
D17*
X421065000Y-183250000D03*
%TD*%
D16*
%TO.C,REF\u002A\u002A*%
X435500000Y-34000000D03*
D17*
X432960000Y-34000000D03*
%TD*%
D16*
%TO.C,REF\u002A\u002A*%
X485475000Y-38000000D03*
D17*
X482935000Y-38000000D03*
%TD*%
D16*
%TO.C,REF\u002A\u002A*%
X526405000Y-122250000D03*
D17*
X523865000Y-122250000D03*
%TD*%
D18*
%TO.C,REF\u002A\u002A*%
X539000000Y-95500000D03*
D19*
X549160000Y-95500000D03*
%TD*%
D16*
%TO.C,REF\u002A\u002A*%
X536905000Y-90750000D03*
D17*
X534365000Y-90750000D03*
%TD*%
D16*
%TO.C,REF\u002A\u002A*%
X454015000Y-38000000D03*
D17*
X451475000Y-38000000D03*
%TD*%
D18*
%TO.C,REF\u002A\u002A*%
X509000000Y-179000000D03*
D19*
X519160000Y-179000000D03*
%TD*%
D16*
%TO.C,REF\u002A\u002A*%
X517015000Y-30000000D03*
D17*
X514475000Y-30000000D03*
%TD*%
D18*
%TO.C,REF\u002A\u002A*%
X413000000Y-54000000D03*
D19*
X423160000Y-54000000D03*
%TD*%
D18*
%TO.C,REF\u002A\u002A*%
X439920000Y-81500000D03*
D19*
X450080000Y-81500000D03*
%TD*%
D18*
%TO.C,REF\u002A\u002A*%
X498500000Y-91500000D03*
D19*
X498500000Y-81340000D03*
%TD*%
D16*
%TO.C,REF\u002A\u002A*%
X526500000Y-151750000D03*
D17*
X523960000Y-151750000D03*
%TD*%
D18*
%TO.C,REF\u002A\u002A*%
X419580000Y-96500000D03*
D19*
X409420000Y-96500000D03*
%TD*%
D18*
%TO.C,REF\u002A\u002A*%
X539420000Y-187000000D03*
D19*
X549580000Y-187000000D03*
%TD*%
D16*
%TO.C,REF\u002A\u002A*%
X537000000Y-214750000D03*
D17*
X534460000Y-214750000D03*
%TD*%
D26*
%TO.C,*%
X465500000Y-91500000D03*
%TD*%
D18*
%TO.C,REF\u002A\u002A*%
X512420000Y-188500000D03*
D19*
X522580000Y-188500000D03*
%TD*%
D20*
%TO.C,REF\u002A\u002A*%
X438750000Y-76500000D03*
D21*
X438750000Y-86660000D03*
%TD*%
D18*
%TO.C,REF\u002A\u002A*%
X536645000Y-156830000D03*
D19*
X546805000Y-156830000D03*
%TD*%
D16*
%TO.C,REF\u002A\u002A*%
X443475000Y-38000000D03*
D17*
X440935000Y-38000000D03*
%TD*%
D18*
%TO.C,REF\u002A\u002A*%
X407000000Y-93080000D03*
D19*
X407000000Y-82920000D03*
%TD*%
D16*
%TO.C,REF\u002A\u002A*%
X526435000Y-59250000D03*
D17*
X523895000Y-59250000D03*
%TD*%
D18*
%TO.C,REF\u002A\u002A*%
X479000000Y-32080000D03*
D19*
X479000000Y-21920000D03*
%TD*%
D16*
%TO.C,REF\u002A\u002A*%
X526500000Y-172750000D03*
D17*
X523960000Y-172750000D03*
%TD*%
D18*
%TO.C,REF\u002A\u002A*%
X488000000Y-59500000D03*
D19*
X498160000Y-59500000D03*
%TD*%
D16*
%TO.C,REF\u002A\u002A*%
X435742500Y-240007500D03*
D17*
X433202500Y-240007500D03*
%TD*%
D16*
%TO.C,REF\u002A\u002A*%
X506515000Y-38000000D03*
D17*
X503975000Y-38000000D03*
%TD*%
D16*
%TO.C,REF\u002A\u002A*%
X537000000Y-151750000D03*
D17*
X534460000Y-151750000D03*
%TD*%
D16*
%TO.C,REF\u002A\u002A*%
X434040000Y-59250000D03*
D17*
X431500000Y-59250000D03*
%TD*%
D18*
%TO.C,REF\u002A\u002A*%
X506340000Y-100500000D03*
D19*
X516500000Y-100500000D03*
%TD*%
D18*
%TO.C,REF\u002A\u002A*%
X405920000Y-63000000D03*
D19*
X416080000Y-63000000D03*
%TD*%
D18*
%TO.C,REF\u002A\u002A*%
X409420000Y-85500000D03*
D19*
X419580000Y-85500000D03*
%TD*%
D16*
%TO.C,REF\u002A\u002A*%
X428830000Y-143750000D03*
D17*
X426290000Y-143750000D03*
%TD*%
D16*
%TO.C,REF\u002A\u002A*%
X531750000Y-233250000D03*
D17*
X529210000Y-233250000D03*
%TD*%
D18*
%TO.C,REF\u002A\u002A*%
X560500000Y-96120000D03*
D19*
X560500000Y-80880000D03*
%TD*%
D20*
%TO.C,REF\u002A\u002A*%
X541645000Y-104250000D03*
D21*
X541645000Y-114410000D03*
%TD*%
D18*
%TO.C,REF\u002A\u002A*%
X457000000Y-91500000D03*
D19*
X457000000Y-101660000D03*
%TD*%
D20*
%TO.C,REF\u002A\u002A*%
X495420000Y-43500000D03*
D21*
X505580000Y-43500000D03*
%TD*%
D16*
%TO.C,REF\u002A\u002A*%
X474975000Y-30000000D03*
D17*
X472435000Y-30000000D03*
%TD*%
D16*
%TO.C,REF\u002A\u002A*%
X485717500Y-244007500D03*
D17*
X483177500Y-244007500D03*
%TD*%
D20*
%TO.C,REF\u002A\u002A*%
X438750000Y-62580000D03*
D21*
X438750000Y-72740000D03*
%TD*%
D16*
%TO.C,REF\u002A\u002A*%
X537000000Y-204250000D03*
D17*
X534460000Y-204250000D03*
%TD*%
D20*
%TO.C,REF\u002A\u002A*%
X481832500Y-249507500D03*
D21*
X491992500Y-249507500D03*
%TD*%
D16*
%TO.C,REF\u002A\u002A*%
X517095000Y-141000000D03*
D17*
X514555000Y-141000000D03*
%TD*%
D18*
%TO.C,REF\u002A\u002A*%
X495500000Y-86500000D03*
D19*
X495500000Y-76340000D03*
%TD*%
D26*
%TO.C,REF\u002A\u002A*%
X481250000Y-200000000D03*
%TD*%
%TO.C,REF\u002A\u002A*%
X466250000Y-200000000D03*
%TD*%
%TO.C,REF\u002A\u002A*%
X461250000Y-200000000D03*
%TD*%
%TO.C,REF\u002A\u002A*%
X456500000Y-200000000D03*
%TD*%
%TO.C,REF\u002A\u002A*%
X486250000Y-200000000D03*
%TD*%
%TO.C,REF\u002A\u002A*%
X476250000Y-200000000D03*
%TD*%
%TO.C,REF\u002A\u002A*%
X491250000Y-200000000D03*
%TD*%
%TO.C,REF\u002A\u002A*%
X496250000Y-200000000D03*
%TD*%
%TO.C,REF\u002A\u002A*%
X471250000Y-200000000D03*
%TD*%
M02*
