M48
; DRILL file {KiCad (6.0.6)} date Thu Sep 29 15:29:25 2022
; FORMAT={-:-/ absolute / metric / decimal}
; #@! TF.CreationDate,2022-09-29T15:29:25+08:00
; #@! TF.GenerationSoftware,Kicad,Pcbnew,(6.0.6)
; #@! TF.FileFunction,Plated,1,2,PTH
FMAT,2
METRIC
; #@! TA.AperFunction,Plated,PTH,ComponentDrill
T1C0.600
; #@! TA.AperFunction,Plated,PTH,ComponentDrill
T2C0.800
; #@! TA.AperFunction,Plated,PTH,ComponentDrill
T3C0.900
; #@! TA.AperFunction,Plated,PTH,ComponentDrill
T4C1.000
; #@! TA.AperFunction,Plated,PTH,ComponentDrill
T5C1.200
; #@! TA.AperFunction,Plated,PTH,ComponentDrill
T6C4.000
%
G90
G05
T1
X396.0Y-21.0
X396.0Y-254.0
X396.879Y-18.879
X396.879Y-23.121
X396.879Y-251.879
X396.879Y-256.121
X399.0Y-18.0
X399.0Y-24.0
X399.0Y-251.0
X399.0Y-257.0
X401.121Y-18.879
X401.121Y-23.121
X401.121Y-251.879
X401.121Y-256.121
X402.0Y-21.0
X402.0Y-254.0
X557.0Y-254.0
X557.879Y-251.879
X557.879Y-256.121
X558.0Y-21.0
X558.879Y-18.879
X558.879Y-23.121
X560.0Y-251.0
X560.0Y-257.0
X561.0Y-18.0
X561.0Y-24.0
X562.121Y-251.879
X562.121Y-256.121
X563.0Y-254.0
X563.121Y-18.879
X563.121Y-23.121
X564.0Y-21.0
T2
X438.75Y-48.75
X438.75Y-58.91
X438.75Y-62.58
X438.75Y-72.74
X438.75Y-76.5
X438.75Y-86.66
X438.75Y-90.42
X438.75Y-100.58
X438.75Y-104.25
X438.75Y-114.41
X438.75Y-118.17
X438.75Y-128.33
X438.83Y-151.75
X438.83Y-161.91
X438.83Y-165.58
X438.83Y-175.74
X438.83Y-179.5
X438.83Y-189.66
X438.83Y-193.42
X438.83Y-203.58
X438.83Y-207.25
X438.83Y-217.41
X438.83Y-221.17
X438.83Y-231.33
X439.92Y-43.5
X440.0Y-146.5
X440.162Y-249.507
X450.08Y-43.5
X450.16Y-146.5
X450.322Y-249.507
X453.75Y-43.5
X453.83Y-146.5
X453.993Y-249.507
X463.91Y-43.5
X463.99Y-146.5
X464.152Y-249.507
X467.67Y-43.5
X467.75Y-146.5
X467.912Y-249.507
X475.675Y-76.375
X475.675Y-78.915
X475.675Y-81.455
X475.675Y-83.995
X475.675Y-86.535
X475.675Y-89.075
X475.675Y-91.615
X475.675Y-94.155
X477.83Y-43.5
X477.91Y-146.5
X478.072Y-249.507
X481.59Y-43.5
X481.67Y-146.5
X481.832Y-249.507
X483.295Y-76.375
X483.295Y-78.915
X483.295Y-81.455
X483.295Y-83.995
X483.295Y-86.535
X483.295Y-89.075
X483.295Y-91.615
X483.295Y-94.155
X491.75Y-43.5
X491.83Y-146.5
X491.992Y-249.507
X495.42Y-43.5
X495.5Y-146.5
X495.662Y-249.507
X505.58Y-43.5
X505.66Y-146.5
X505.822Y-249.507
X509.34Y-43.5
X509.42Y-146.5
X509.582Y-249.507
X519.5Y-43.5
X519.58Y-146.5
X519.742Y-249.507
X541.645Y-48.75
X541.645Y-58.91
X541.645Y-62.58
X541.645Y-72.74
X541.645Y-76.5
X541.645Y-86.66
X541.645Y-90.42
X541.645Y-100.58
X541.645Y-104.25
X541.645Y-114.41
X541.645Y-118.17
X541.645Y-128.33
X541.725Y-151.75
X541.725Y-161.91
X541.725Y-165.58
X541.725Y-175.74
X541.725Y-179.5
X541.725Y-189.66
X541.725Y-193.42
X541.725Y-203.58
X541.725Y-207.25
X541.725Y-217.41
X541.725Y-221.17
X541.725Y-231.33
T3
X420.97Y-90.75
X420.97Y-122.25
X420.985Y-48.75
X420.985Y-69.75
X420.985Y-80.25
X420.985Y-101.25
X420.985Y-111.75
X421.0Y-59.25
X421.05Y-193.75
X421.05Y-225.25
X421.065Y-151.75
X421.065Y-172.75
X421.065Y-183.25
X421.065Y-204.25
X421.065Y-214.75
X421.08Y-162.25
X423.51Y-90.75
X423.51Y-122.25
X423.525Y-48.75
X423.525Y-69.75
X423.525Y-80.25
X423.525Y-101.25
X423.525Y-111.75
X423.54Y-59.25
X423.59Y-193.75
X423.59Y-225.25
X423.605Y-151.75
X423.605Y-172.75
X423.605Y-183.25
X423.605Y-204.25
X423.605Y-214.75
X423.62Y-162.25
X426.21Y-40.75
X426.235Y-130.25
X426.29Y-143.75
X426.315Y-233.25
X428.75Y-40.75
X428.775Y-130.25
X428.83Y-143.75
X428.855Y-233.25
X431.47Y-90.75
X431.47Y-122.25
X431.485Y-48.75
X431.485Y-69.75
X431.485Y-80.25
X431.485Y-101.25
X431.485Y-111.75
X431.5Y-59.25
X431.55Y-193.75
X431.55Y-225.25
X431.565Y-151.75
X431.565Y-172.75
X431.565Y-183.25
X431.565Y-204.25
X431.565Y-214.75
X431.58Y-162.25
X432.96Y-34.0
X433.04Y-137.0
X433.202Y-240.007
X434.01Y-90.75
X434.01Y-122.25
X434.025Y-48.75
X434.025Y-69.75
X434.025Y-80.25
X434.025Y-101.25
X434.025Y-111.75
X434.04Y-59.25
X434.09Y-193.75
X434.09Y-225.25
X434.105Y-151.75
X434.105Y-172.75
X434.105Y-183.25
X434.105Y-204.25
X434.105Y-214.75
X434.12Y-162.25
X435.5Y-34.0
X435.58Y-137.0
X435.743Y-240.007
X440.935Y-30.0
X440.935Y-38.0
X441.015Y-133.0
X441.015Y-141.0
X441.177Y-236.007
X441.177Y-244.007
X443.475Y-30.0
X443.475Y-38.0
X443.555Y-133.0
X443.555Y-141.0
X443.717Y-236.007
X443.717Y-244.007
X451.475Y-30.0
X451.475Y-38.0
X451.555Y-133.0
X451.555Y-141.0
X451.717Y-236.007
X451.717Y-244.007
X454.015Y-30.0
X454.015Y-38.0
X454.095Y-133.0
X454.095Y-141.0
X454.257Y-236.007
X454.257Y-244.007
X461.935Y-30.0
X461.935Y-38.0
X462.015Y-133.0
X462.015Y-141.0
X462.177Y-236.007
X462.177Y-244.007
X464.475Y-30.0
X464.475Y-38.0
X464.555Y-133.0
X464.555Y-141.0
X464.717Y-236.007
X464.717Y-244.007
X472.435Y-30.0
X472.435Y-38.0
X472.515Y-133.0
X472.515Y-141.0
X472.677Y-236.007
X472.677Y-244.007
X474.975Y-30.0
X474.975Y-38.0
X475.055Y-133.0
X475.055Y-141.0
X475.217Y-236.007
X475.217Y-244.007
X482.935Y-30.0
X482.935Y-38.0
X483.015Y-133.0
X483.015Y-141.0
X483.177Y-236.007
X483.177Y-244.007
X485.475Y-30.0
X485.475Y-38.0
X485.555Y-133.0
X485.555Y-141.0
X485.717Y-236.007
X485.717Y-244.007
X493.475Y-30.0
X493.475Y-38.0
X493.555Y-133.0
X493.555Y-141.0
X493.717Y-236.007
X493.717Y-244.007
X496.015Y-30.0
X496.015Y-38.0
X496.095Y-133.0
X496.095Y-141.0
X496.257Y-236.007
X496.257Y-244.007
X503.975Y-30.0
X503.975Y-38.0
X504.055Y-133.0
X504.055Y-141.0
X504.217Y-236.007
X504.217Y-244.007
X506.515Y-30.0
X506.515Y-38.0
X506.595Y-133.0
X506.595Y-141.0
X506.757Y-236.007
X506.757Y-244.007
X514.475Y-30.0
X514.475Y-38.0
X514.555Y-133.0
X514.555Y-141.0
X514.717Y-236.007
X514.717Y-244.007
X517.015Y-30.0
X517.015Y-38.0
X517.095Y-133.0
X517.095Y-141.0
X517.257Y-236.007
X517.257Y-244.007
X522.435Y-34.0
X522.515Y-137.0
X522.678Y-240.007
X523.865Y-90.75
X523.865Y-122.25
X523.88Y-48.75
X523.88Y-69.75
X523.88Y-80.25
X523.88Y-101.25
X523.88Y-111.75
X523.895Y-59.25
X523.945Y-193.75
X523.945Y-225.25
X523.96Y-151.75
X523.96Y-172.75
X523.96Y-183.25
X523.96Y-204.25
X523.96Y-214.75
X523.975Y-162.25
X524.975Y-34.0
X525.055Y-137.0
X525.217Y-240.007
X526.405Y-90.75
X526.405Y-122.25
X526.42Y-48.75
X526.42Y-69.75
X526.42Y-80.25
X526.42Y-101.25
X526.42Y-111.75
X526.435Y-59.25
X526.485Y-193.75
X526.485Y-225.25
X526.5Y-151.75
X526.5Y-172.75
X526.5Y-183.25
X526.5Y-204.25
X526.5Y-214.75
X526.515Y-162.25
X529.105Y-40.75
X529.13Y-130.25
X529.185Y-143.75
X529.21Y-233.25
X531.645Y-40.75
X531.67Y-130.25
X531.725Y-143.75
X531.75Y-233.25
X534.365Y-90.75
X534.365Y-122.25
X534.38Y-48.75
X534.38Y-69.75
X534.38Y-80.25
X534.38Y-101.25
X534.38Y-111.75
X534.395Y-59.25
X534.445Y-193.75
X534.445Y-225.25
X534.46Y-151.75
X534.46Y-172.75
X534.46Y-183.25
X534.46Y-204.25
X534.46Y-214.75
X534.475Y-162.25
X536.905Y-90.75
X536.905Y-122.25
X536.92Y-48.75
X536.92Y-69.75
X536.92Y-80.25
X536.92Y-101.25
X536.92Y-111.75
X536.935Y-59.25
X536.985Y-193.75
X536.985Y-225.25
X537.0Y-151.75
X537.0Y-172.75
X537.0Y-183.25
X537.0Y-204.25
X537.0Y-214.75
X537.015Y-162.25
T4
X394.0Y-76.0
X394.0Y-78.54
X394.0Y-81.08
X394.0Y-83.62
X394.0Y-86.16
X394.0Y-88.7
X394.0Y-91.24
X394.0Y-93.78
X564.5Y-76.125
X564.5Y-78.665
X564.5Y-81.205
X564.5Y-83.745
X564.5Y-86.285
X564.5Y-88.825
X564.5Y-91.365
X564.5Y-93.905
T5
X398.42Y-69.5
X401.0Y-73.42
X401.0Y-83.58
X405.92Y-63.0
X407.0Y-82.92
X407.0Y-93.08
X408.58Y-69.5
X408.92Y-66.5
X409.42Y-85.5
X409.42Y-96.5
X409.42Y-116.5
X411.42Y-35.5
X413.0Y-54.0
X416.08Y-63.0
X416.5Y-120.92
X416.5Y-131.08
X418.92Y-135.0
X419.08Y-66.5
X419.58Y-85.5
X419.58Y-96.5
X419.58Y-116.5
X421.58Y-35.5
X421.92Y-96.5
X423.16Y-54.0
X429.08Y-135.0
X432.08Y-96.5
X439.92Y-81.5
X439.92Y-96.5
X440.84Y-124.5
X442.92Y-56.5
X443.34Y-113.5
X450.08Y-81.5
X450.08Y-96.5
X451.0Y-124.5
X453.08Y-56.5
X453.5Y-113.5
X454.0Y-81.42
X454.0Y-91.58
X457.0Y-71.34
X457.0Y-81.5
X457.0Y-91.5
X457.0Y-101.66
X458.0Y-121.84
X458.0Y-132.0
X460.5Y-81.42
X460.5Y-91.58
X468.92Y-97.5
X468.92Y-100.5
X468.92Y-103.5
X469.5Y-143.84
X469.5Y-154.0
X474.92Y-54.0
X479.0Y-21.92
X479.0Y-32.08
X479.08Y-97.5
X479.08Y-100.5
X479.08Y-103.5
X479.5Y-40.92
X479.5Y-51.08
X480.0Y-121.42
X480.0Y-131.58
X480.0Y-144.34
X480.0Y-154.5
X485.08Y-54.0
X487.92Y-52.0
X488.0Y-56.0
X488.0Y-59.5
X488.0Y-63.0
X488.0Y-66.5
X488.0Y-70.0
X488.5Y-97.0
X488.5Y-107.16
X492.0Y-86.42
X492.0Y-96.58
X495.5Y-76.34
X495.5Y-86.5
X498.08Y-52.0
X498.16Y-56.0
X498.16Y-59.5
X498.16Y-63.0
X498.16Y-66.5
X498.16Y-70.0
X498.5Y-81.34
X498.5Y-91.5
X500.0Y-19.38
X500.0Y-34.62
X500.0Y-37.92
X500.0Y-48.08
X506.34Y-100.5
X509.0Y-179.0
X509.0Y-182.0
X510.5Y-21.92
X510.5Y-32.08
X510.5Y-59.34
X510.5Y-69.5
X511.0Y-124.92
X511.0Y-135.08
X511.5Y-85.5
X512.42Y-157.0
X512.42Y-188.5
X512.42Y-220.0
X513.5Y-63.0
X513.5Y-73.16
X513.5Y-167.5
X515.92Y-54.0
X516.5Y-95.5
X516.5Y-100.5
X519.16Y-179.0
X519.16Y-182.0
X521.66Y-85.5
X522.58Y-157.0
X522.58Y-188.5
X522.58Y-220.0
X526.08Y-54.0
X526.66Y-95.5
X528.74Y-167.5
X528.92Y-138.0
X536.645Y-156.83
X538.92Y-168.5
X539.0Y-95.5
X539.08Y-138.0
X539.42Y-187.0
X541.92Y-83.5
X546.805Y-156.83
X549.0Y-69.42
X549.0Y-79.58
X549.08Y-168.5
X549.16Y-95.5
X549.58Y-187.0
X552.08Y-83.5
X552.5Y-69.42
X552.5Y-79.58
X553.0Y-129.84
X553.0Y-140.0
X555.0Y-80.92
X555.0Y-91.08
X558.0Y-68.84
X558.0Y-79.0
X558.0Y-91.42
X558.0Y-101.58
X560.5Y-80.88
X560.5Y-96.12
T6
X399.0Y-21.0
X399.0Y-254.0
X560.0Y-254.0
X561.0Y-21.0
T0
M30
