%TF.GenerationSoftware,KiCad,Pcbnew,(6.0.6)*%
%TF.CreationDate,2022-09-29T15:29:04+08:00*%
%TF.ProjectId,7SegmentDisplay_DualLine_8Inches,37536567-6d65-46e7-9444-6973706c6179,rev?*%
%TF.SameCoordinates,Original*%
%TF.FileFunction,Copper,L2,Bot*%
%TF.FilePolarity,Positive*%
%FSLAX46Y46*%
G04 Gerber Fmt 4.6, Leading zero omitted, Abs format (unit mm)*
G04 Created by KiCad (PCBNEW (6.0.6)) date 2022-09-29 15:29:04*
%MOMM*%
%LPD*%
G01*
G04 APERTURE LIST*
%TA.AperFunction,ComponentPad*%
%ADD10C,0.900000*%
%TD*%
%TA.AperFunction,ComponentPad*%
%ADD11C,8.000000*%
%TD*%
%TA.AperFunction,ComponentPad*%
%ADD12R,1.800000X1.800000*%
%TD*%
%TA.AperFunction,ComponentPad*%
%ADD13C,1.800000*%
%TD*%
%TA.AperFunction,ComponentPad*%
%ADD14C,2.200000*%
%TD*%
%TA.AperFunction,ComponentPad*%
%ADD15O,2.200000X2.200000*%
%TD*%
%TA.AperFunction,ComponentPad*%
%ADD16C,1.600000*%
%TD*%
%TA.AperFunction,ComponentPad*%
%ADD17O,1.600000X1.600000*%
%TD*%
%TA.AperFunction,ComponentPad*%
%ADD18R,1.700000X1.700000*%
%TD*%
%TA.AperFunction,ComponentPad*%
%ADD19O,1.700000X1.700000*%
%TD*%
%TA.AperFunction,ComponentPad*%
%ADD20R,2.400000X1.600000*%
%TD*%
%TA.AperFunction,ComponentPad*%
%ADD21O,2.400000X1.600000*%
%TD*%
%TA.AperFunction,SMDPad,CuDef*%
%ADD22C,2.500000*%
%TD*%
%TA.AperFunction,Conductor*%
%ADD23C,1.524000*%
%TD*%
%TA.AperFunction,Conductor*%
%ADD24C,2.032000*%
%TD*%
%TA.AperFunction,Conductor*%
%ADD25C,1.016000*%
%TD*%
G04 APERTURE END LIST*
D10*
%TO.P,REF\u002A\u002A,1*%
%TO.N,N/C*%
X402000000Y-21000000D03*
X396000000Y-21000000D03*
X396878680Y-23121320D03*
D11*
X399000000Y-21000000D03*
D10*
X396878680Y-18878680D03*
X399000000Y-18000000D03*
X401121320Y-23121320D03*
X401121320Y-18878680D03*
X399000000Y-24000000D03*
%TD*%
%TO.P,REF\u002A\u002A,1*%
%TO.N,N/C*%
X402000000Y-254000000D03*
X396000000Y-254000000D03*
X396878680Y-256121320D03*
D11*
X399000000Y-254000000D03*
D10*
X396878680Y-251878680D03*
X399000000Y-251000000D03*
X401121320Y-256121320D03*
X401121320Y-251878680D03*
X399000000Y-257000000D03*
%TD*%
%TO.P,REF\u002A\u002A,1*%
%TO.N,N/C*%
X563000000Y-254000000D03*
X557000000Y-254000000D03*
X557878680Y-256121320D03*
D11*
X560000000Y-254000000D03*
D10*
X557878680Y-251878680D03*
X560000000Y-251000000D03*
X562121320Y-256121320D03*
X562121320Y-251878680D03*
X560000000Y-257000000D03*
%TD*%
%TO.P,REF\u002A\u002A,1*%
%TO.N,N/C*%
X558000000Y-21000000D03*
X563121320Y-18878680D03*
X561000000Y-24000000D03*
X563121320Y-23121320D03*
X558878680Y-23121320D03*
X558878680Y-18878680D03*
X561000000Y-18000000D03*
D11*
X561000000Y-21000000D03*
D10*
X564000000Y-21000000D03*
%TD*%
D12*
%TO.P,REF\u002A\u002A,1*%
%TO.N,N/C*%
X526515000Y-162250000D03*
D13*
%TO.P,REF\u002A\u002A,2*%
X523975000Y-162250000D03*
%TD*%
D12*
%TO.P,REF\u002A\u002A,1*%
%TO.N,N/C*%
X464555000Y-141000000D03*
D13*
%TO.P,REF\u002A\u002A,2*%
X462015000Y-141000000D03*
%TD*%
D12*
%TO.P,REF\u002A\u002A,1*%
%TO.N,N/C*%
X526485000Y-225250000D03*
D13*
%TO.P,REF\u002A\u002A,2*%
X523945000Y-225250000D03*
%TD*%
D12*
%TO.P,REF\u002A\u002A,1*%
%TO.N,N/C*%
X423605000Y-172750000D03*
D13*
%TO.P,REF\u002A\u002A,2*%
X421065000Y-172750000D03*
%TD*%
D12*
%TO.P,REF\u002A\u002A,1*%
%TO.N,N/C*%
X435580000Y-137000000D03*
D13*
%TO.P,REF\u002A\u002A,2*%
X433040000Y-137000000D03*
%TD*%
D14*
%TO.P,REF\u002A\u002A,1*%
%TO.N,N/C*%
X511500000Y-85500000D03*
D15*
%TO.P,REF\u002A\u002A,2*%
X521660000Y-85500000D03*
%TD*%
D12*
%TO.P,REF\u002A\u002A,1*%
%TO.N,N/C*%
X454095000Y-133000000D03*
D13*
%TO.P,REF\u002A\u002A,2*%
X451555000Y-133000000D03*
%TD*%
D14*
%TO.P,REF\u002A\u002A,1*%
%TO.N,N/C*%
X488000000Y-70000000D03*
D15*
%TO.P,REF\u002A\u002A,2*%
X498160000Y-70000000D03*
%TD*%
D14*
%TO.P,REF\u002A\u002A,1*%
%TO.N,N/C*%
X538920000Y-168500000D03*
D15*
%TO.P,REF\u002A\u002A,2*%
X549080000Y-168500000D03*
%TD*%
D16*
%TO.P,REF\u002A\u002A,1*%
%TO.N,N/C*%
X541645000Y-76500000D03*
D17*
%TO.P,REF\u002A\u002A,2*%
X541645000Y-86660000D03*
%TD*%
D12*
%TO.P,REF\u002A\u002A,1*%
%TO.N,N/C*%
X525055000Y-137000000D03*
D13*
%TO.P,REF\u002A\u002A,2*%
X522515000Y-137000000D03*
%TD*%
D16*
%TO.P,REF\u002A\u002A,1*%
%TO.N,N/C*%
X481670000Y-146500000D03*
D17*
%TO.P,REF\u002A\u002A,2*%
X491830000Y-146500000D03*
%TD*%
D16*
%TO.P,REF\u002A\u002A,1*%
%TO.N,N/C*%
X467670000Y-43500000D03*
D17*
%TO.P,REF\u002A\u002A,2*%
X477830000Y-43500000D03*
%TD*%
D12*
%TO.P,REF\u002A\u002A,1*%
%TO.N,N/C*%
X496257500Y-236007500D03*
D13*
%TO.P,REF\u002A\u002A,2*%
X493717500Y-236007500D03*
%TD*%
D16*
%TO.P,REF\u002A\u002A,1*%
%TO.N,N/C*%
X541725000Y-179500000D03*
D17*
%TO.P,REF\u002A\u002A,2*%
X541725000Y-189660000D03*
%TD*%
D16*
%TO.P,REF\u002A\u002A,1*%
%TO.N,N/C*%
X440162500Y-249507500D03*
D17*
%TO.P,REF\u002A\u002A,2*%
X450322500Y-249507500D03*
%TD*%
D16*
%TO.P,REF\u002A\u002A,1*%
%TO.N,N/C*%
X438750000Y-48750000D03*
D17*
%TO.P,REF\u002A\u002A,2*%
X438750000Y-58910000D03*
%TD*%
D12*
%TO.P,REF\u002A\u002A,1*%
%TO.N,N/C*%
X423525000Y-101250000D03*
D13*
%TO.P,REF\u002A\u002A,2*%
X420985000Y-101250000D03*
%TD*%
D12*
%TO.P,REF\u002A\u002A,1*%
%TO.N,N/C*%
X434105000Y-151750000D03*
D13*
%TO.P,REF\u002A\u002A,2*%
X431565000Y-151750000D03*
%TD*%
D14*
%TO.P,REF\u002A\u002A,1*%
%TO.N,N/C*%
X418920000Y-135000000D03*
D15*
%TO.P,REF\u002A\u002A,2*%
X429080000Y-135000000D03*
%TD*%
D16*
%TO.P,REF\u002A\u002A,1*%
%TO.N,N/C*%
X438830000Y-165580000D03*
D17*
%TO.P,REF\u002A\u002A,2*%
X438830000Y-175740000D03*
%TD*%
D16*
%TO.P,REF\u002A\u002A,1*%
%TO.N,N/C*%
X509340000Y-43500000D03*
D17*
%TO.P,REF\u002A\u002A,2*%
X519500000Y-43500000D03*
%TD*%
D14*
%TO.P,REF\u002A\u002A,1*%
%TO.N,N/C*%
X513500000Y-167500000D03*
D15*
%TO.P,REF\u002A\u002A,2*%
X528740000Y-167500000D03*
%TD*%
D14*
%TO.P,REF\u002A\u002A,1*%
%TO.N,N/C*%
X408920000Y-66500000D03*
D15*
%TO.P,REF\u002A\u002A,2*%
X419080000Y-66500000D03*
%TD*%
D16*
%TO.P,REF\u002A\u002A,1*%
%TO.N,N/C*%
X453830000Y-146500000D03*
D17*
%TO.P,REF\u002A\u002A,2*%
X463990000Y-146500000D03*
%TD*%
D12*
%TO.P,REF\u002A\u002A,1*%
%TO.N,N/C*%
X485555000Y-133000000D03*
D13*
%TO.P,REF\u002A\u002A,2*%
X483015000Y-133000000D03*
%TD*%
D12*
%TO.P,REF\u002A\u002A,1*%
%TO.N,N/C*%
X423525000Y-80250000D03*
D13*
%TO.P,REF\u002A\u002A,2*%
X420985000Y-80250000D03*
%TD*%
D12*
%TO.P,REF\u002A\u002A,1*%
%TO.N,N/C*%
X423605000Y-204250000D03*
D13*
%TO.P,REF\u002A\u002A,2*%
X421065000Y-204250000D03*
%TD*%
D12*
%TO.P,REF\u002A\u002A,1*%
%TO.N,N/C*%
X526405000Y-90750000D03*
D13*
%TO.P,REF\u002A\u002A,2*%
X523865000Y-90750000D03*
%TD*%
D12*
%TO.P,REF\u002A\u002A,1*%
%TO.N,N/C*%
X454015000Y-30000000D03*
D13*
%TO.P,REF\u002A\u002A,2*%
X451475000Y-30000000D03*
%TD*%
D16*
%TO.P,REF\u002A\u002A,1*%
%TO.N,N/C*%
X438750000Y-118170000D03*
D17*
%TO.P,REF\u002A\u002A,2*%
X438750000Y-128330000D03*
%TD*%
D16*
%TO.P,REF\u002A\u002A,1*%
%TO.N,N/C*%
X541725000Y-193420000D03*
D17*
%TO.P,REF\u002A\u002A,2*%
X541725000Y-203580000D03*
%TD*%
D18*
%TO.P,REF\u002A\u002A,1*%
%TO.N,N/C*%
X394000000Y-76000000D03*
D19*
%TO.P,REF\u002A\u002A,2*%
X394000000Y-78540000D03*
%TO.P,REF\u002A\u002A,3*%
X394000000Y-81080000D03*
%TO.P,REF\u002A\u002A,4*%
X394000000Y-83620000D03*
%TO.P,REF\u002A\u002A,5*%
X394000000Y-86160000D03*
%TO.P,REF\u002A\u002A,6*%
X394000000Y-88700000D03*
%TO.P,REF\u002A\u002A,7*%
X394000000Y-91240000D03*
%TO.P,REF\u002A\u002A,8*%
X394000000Y-93780000D03*
%TD*%
D12*
%TO.P,REF\u002A\u002A,1*%
%TO.N,N/C*%
X434105000Y-204250000D03*
D13*
%TO.P,REF\u002A\u002A,2*%
X431565000Y-204250000D03*
%TD*%
D12*
%TO.P,REF\u002A\u002A,1*%
%TO.N,N/C*%
X506757500Y-236007500D03*
D13*
%TO.P,REF\u002A\u002A,2*%
X504217500Y-236007500D03*
%TD*%
D14*
%TO.P,REF\u002A\u002A,1*%
%TO.N,N/C*%
X510500000Y-69500000D03*
D15*
%TO.P,REF\u002A\u002A,2*%
X510500000Y-59340000D03*
%TD*%
D12*
%TO.P,REF\u002A\u002A,1*%
%TO.N,N/C*%
X434090000Y-193750000D03*
D13*
%TO.P,REF\u002A\u002A,2*%
X431550000Y-193750000D03*
%TD*%
D12*
%TO.P,REF\u002A\u002A,1*%
%TO.N,N/C*%
X443717500Y-236007500D03*
D13*
%TO.P,REF\u002A\u002A,2*%
X441177500Y-236007500D03*
%TD*%
D12*
%TO.P,REF\u002A\u002A,1*%
%TO.N,N/C*%
X536985000Y-225250000D03*
D13*
%TO.P,REF\u002A\u002A,2*%
X534445000Y-225250000D03*
%TD*%
D14*
%TO.P,REF\u002A\u002A,1*%
%TO.N,N/C*%
X409420000Y-116500000D03*
D15*
%TO.P,REF\u002A\u002A,2*%
X419580000Y-116500000D03*
%TD*%
D14*
%TO.P,REF\u002A\u002A,1*%
%TO.N,N/C*%
X511000000Y-135080000D03*
D15*
%TO.P,REF\u002A\u002A,2*%
X511000000Y-124920000D03*
%TD*%
D14*
%TO.P,REF\u002A\u002A,1*%
%TO.N,N/C*%
X453500000Y-113500000D03*
D15*
%TO.P,REF\u002A\u002A,2*%
X443340000Y-113500000D03*
%TD*%
D14*
%TO.P,REF\u002A\u002A,1*%
%TO.N,N/C*%
X552500000Y-79580000D03*
D15*
%TO.P,REF\u002A\u002A,2*%
X552500000Y-69420000D03*
%TD*%
D12*
%TO.P,REF\u002A\u002A,1*%
%TO.N,N/C*%
X423510000Y-90750000D03*
D13*
%TO.P,REF\u002A\u002A,2*%
X420970000Y-90750000D03*
%TD*%
D12*
%TO.P,REF\u002A\u002A,1*%
%TO.N,N/C*%
X536920000Y-101250000D03*
D13*
%TO.P,REF\u002A\u002A,2*%
X534380000Y-101250000D03*
%TD*%
D12*
%TO.P,REF\u002A\u002A,1*%
%TO.N,N/C*%
X475055000Y-141000000D03*
D13*
%TO.P,REF\u002A\u002A,2*%
X472515000Y-141000000D03*
%TD*%
D12*
%TO.P,REF\u002A\u002A,1*%
%TO.N,N/C*%
X428775000Y-130250000D03*
D13*
%TO.P,REF\u002A\u002A,2*%
X426235000Y-130250000D03*
%TD*%
D12*
%TO.P,REF\u002A\u002A,1*%
%TO.N,N/C*%
X526485000Y-193750000D03*
D13*
%TO.P,REF\u002A\u002A,2*%
X523945000Y-193750000D03*
%TD*%
D14*
%TO.P,REF\u002A\u002A,1*%
%TO.N,N/C*%
X457000000Y-71340000D03*
D15*
%TO.P,REF\u002A\u002A,2*%
X457000000Y-81500000D03*
%TD*%
D12*
%TO.P,REF\u002A\u002A,1*%
%TO.N,N/C*%
X526500000Y-183250000D03*
D13*
%TO.P,REF\u002A\u002A,2*%
X523960000Y-183250000D03*
%TD*%
D12*
%TO.P,REF\u002A\u002A,1*%
%TO.N,N/C*%
X464717500Y-236007500D03*
D13*
%TO.P,REF\u002A\u002A,2*%
X462177500Y-236007500D03*
%TD*%
D14*
%TO.P,REF\u002A\u002A,1*%
%TO.N,N/C*%
X416500000Y-131080000D03*
D15*
%TO.P,REF\u002A\u002A,2*%
X416500000Y-120920000D03*
%TD*%
D14*
%TO.P,REF\u002A\u002A,1*%
%TO.N,N/C*%
X555000000Y-91080000D03*
D15*
%TO.P,REF\u002A\u002A,2*%
X555000000Y-80920000D03*
%TD*%
D14*
%TO.P,REF\u002A\u002A,1*%
%TO.N,N/C*%
X421580000Y-35500000D03*
D15*
%TO.P,REF\u002A\u002A,2*%
X411420000Y-35500000D03*
%TD*%
D12*
%TO.P,REF\u002A\u002A,1*%
%TO.N,N/C*%
X434010000Y-90750000D03*
D13*
%TO.P,REF\u002A\u002A,2*%
X431470000Y-90750000D03*
%TD*%
D14*
%TO.P,REF\u002A\u002A,1*%
%TO.N,N/C*%
X498160000Y-56000000D03*
D15*
%TO.P,REF\u002A\u002A,2*%
X488000000Y-56000000D03*
%TD*%
D12*
%TO.P,REF\u002A\u002A,1*%
%TO.N,N/C*%
X434105000Y-172750000D03*
D13*
%TO.P,REF\u002A\u002A,2*%
X431565000Y-172750000D03*
%TD*%
D12*
%TO.P,REF\u002A\u002A,1*%
%TO.N,N/C*%
X526420000Y-111750000D03*
D13*
%TO.P,REF\u002A\u002A,2*%
X523880000Y-111750000D03*
%TD*%
D12*
%TO.P,REF\u002A\u002A,1*%
%TO.N,N/C*%
X423525000Y-48750000D03*
D13*
%TO.P,REF\u002A\u002A,2*%
X420985000Y-48750000D03*
%TD*%
D14*
%TO.P,REF\u002A\u002A,1*%
%TO.N,N/C*%
X488000000Y-66500000D03*
D15*
%TO.P,REF\u002A\u002A,2*%
X498160000Y-66500000D03*
%TD*%
D12*
%TO.P,REF\u002A\u002A,1*%
%TO.N,N/C*%
X423525000Y-69750000D03*
D13*
%TO.P,REF\u002A\u002A,2*%
X420985000Y-69750000D03*
%TD*%
D16*
%TO.P,REF\u002A\u002A,1*%
%TO.N,N/C*%
X438830000Y-179500000D03*
D17*
%TO.P,REF\u002A\u002A,2*%
X438830000Y-189660000D03*
%TD*%
D14*
%TO.P,REF\u002A\u002A,1*%
%TO.N,N/C*%
X454000000Y-81420000D03*
D15*
%TO.P,REF\u002A\u002A,2*%
X454000000Y-91580000D03*
%TD*%
D12*
%TO.P,REF\u002A\u002A,1*%
%TO.N,N/C*%
X428750000Y-40750000D03*
D13*
%TO.P,REF\u002A\u002A,2*%
X426210000Y-40750000D03*
%TD*%
D16*
%TO.P,REF\u002A\u002A,1*%
%TO.N,N/C*%
X439920000Y-43500000D03*
D17*
%TO.P,REF\u002A\u002A,2*%
X450080000Y-43500000D03*
%TD*%
D12*
%TO.P,REF\u002A\u002A,1*%
%TO.N,N/C*%
X536935000Y-59250000D03*
D13*
%TO.P,REF\u002A\u002A,2*%
X534395000Y-59250000D03*
%TD*%
D14*
%TO.P,REF\u002A\u002A,1*%
%TO.N,N/C*%
X468920000Y-103500000D03*
D15*
%TO.P,REF\u002A\u002A,2*%
X479080000Y-103500000D03*
%TD*%
D16*
%TO.P,REF\u002A\u002A,1*%
%TO.N,N/C*%
X541645000Y-62580000D03*
D17*
%TO.P,REF\u002A\u002A,2*%
X541645000Y-72740000D03*
%TD*%
D14*
%TO.P,REF\u002A\u002A,1*%
%TO.N,N/C*%
X510500000Y-32080000D03*
D15*
%TO.P,REF\u002A\u002A,2*%
X510500000Y-21920000D03*
%TD*%
D14*
%TO.P,REF\u002A\u002A,1*%
%TO.N,N/C*%
X480000000Y-154500000D03*
D15*
%TO.P,REF\u002A\u002A,2*%
X480000000Y-144340000D03*
%TD*%
D12*
%TO.P,REF\u002A\u002A,1*%
%TO.N,N/C*%
X443555000Y-141000000D03*
D13*
%TO.P,REF\u002A\u002A,2*%
X441015000Y-141000000D03*
%TD*%
D12*
%TO.P,REF\u002A\u002A,1*%
%TO.N,N/C*%
X496015000Y-38000000D03*
D13*
%TO.P,REF\u002A\u002A,2*%
X493475000Y-38000000D03*
%TD*%
D12*
%TO.P,REF\u002A\u002A,1*%
%TO.N,N/C*%
X531670000Y-130250000D03*
D13*
%TO.P,REF\u002A\u002A,2*%
X529130000Y-130250000D03*
%TD*%
D16*
%TO.P,REF\u002A\u002A,1*%
%TO.N,N/C*%
X438750000Y-90420000D03*
D17*
%TO.P,REF\u002A\u002A,2*%
X438750000Y-100580000D03*
%TD*%
D12*
%TO.P,REF\u002A\u002A,1*%
%TO.N,N/C*%
X517095000Y-133000000D03*
D13*
%TO.P,REF\u002A\u002A,2*%
X514555000Y-133000000D03*
%TD*%
D12*
%TO.P,REF\u002A\u002A,1*%
%TO.N,N/C*%
X443555000Y-133000000D03*
D13*
%TO.P,REF\u002A\u002A,2*%
X441015000Y-133000000D03*
%TD*%
D16*
%TO.P,REF\u002A\u002A,1*%
%TO.N,N/C*%
X467912500Y-249507500D03*
D17*
%TO.P,REF\u002A\u002A,2*%
X478072500Y-249507500D03*
%TD*%
D12*
%TO.P,REF\u002A\u002A,1*%
%TO.N,N/C*%
X526500000Y-204250000D03*
D13*
%TO.P,REF\u002A\u002A,2*%
X523960000Y-204250000D03*
%TD*%
D12*
%TO.P,REF\u002A\u002A,1*%
%TO.N,N/C*%
X434025000Y-111750000D03*
D13*
%TO.P,REF\u002A\u002A,2*%
X431485000Y-111750000D03*
%TD*%
D12*
%TO.P,REF\u002A\u002A,1*%
%TO.N,N/C*%
X434090000Y-225250000D03*
D13*
%TO.P,REF\u002A\u002A,2*%
X431550000Y-225250000D03*
%TD*%
D12*
%TO.P,REF\u002A\u002A,1*%
%TO.N,N/C*%
X475217500Y-244007500D03*
D13*
%TO.P,REF\u002A\u002A,2*%
X472677500Y-244007500D03*
%TD*%
D12*
%TO.P,REF\u002A\u002A,1*%
%TO.N,N/C*%
X537000000Y-183250000D03*
D13*
%TO.P,REF\u002A\u002A,2*%
X534460000Y-183250000D03*
%TD*%
D12*
%TO.P,REF\u002A\u002A,1*%
%TO.N,N/C*%
X423510000Y-122250000D03*
D13*
%TO.P,REF\u002A\u002A,2*%
X420970000Y-122250000D03*
%TD*%
D12*
%TO.P,REF\u002A\u002A,1*%
%TO.N,N/C*%
X526420000Y-80250000D03*
D13*
%TO.P,REF\u002A\u002A,2*%
X523880000Y-80250000D03*
%TD*%
D14*
%TO.P,REF\u002A\u002A,1*%
%TO.N,N/C*%
X553000000Y-140000000D03*
D15*
%TO.P,REF\u002A\u002A,2*%
X553000000Y-129840000D03*
%TD*%
D12*
%TO.P,REF\u002A\u002A,1*%
%TO.N,N/C*%
X434105000Y-214750000D03*
D13*
%TO.P,REF\u002A\u002A,2*%
X431565000Y-214750000D03*
%TD*%
D14*
%TO.P,REF\u002A\u002A,1*%
%TO.N,N/C*%
X458000000Y-132000000D03*
D15*
%TO.P,REF\u002A\u002A,2*%
X458000000Y-121840000D03*
%TD*%
D12*
%TO.P,REF\u002A\u002A,1*%
%TO.N,N/C*%
X526420000Y-101250000D03*
D13*
%TO.P,REF\u002A\u002A,2*%
X523880000Y-101250000D03*
%TD*%
D14*
%TO.P,REF\u002A\u002A,1*%
%TO.N,N/C*%
X492000000Y-86420000D03*
D15*
%TO.P,REF\u002A\u002A,2*%
X492000000Y-96580000D03*
%TD*%
D12*
%TO.P,REF\u002A\u002A,1*%
%TO.N,N/C*%
X423540000Y-59250000D03*
D13*
%TO.P,REF\u002A\u002A,2*%
X421000000Y-59250000D03*
%TD*%
D12*
%TO.P,REF\u002A\u002A,1*%
%TO.N,N/C*%
X475217500Y-236007500D03*
D13*
%TO.P,REF\u002A\u002A,2*%
X472677500Y-236007500D03*
%TD*%
D12*
%TO.P,REF\u002A\u002A,1*%
%TO.N,N/C*%
X526500000Y-214750000D03*
D13*
%TO.P,REF\u002A\u002A,2*%
X523960000Y-214750000D03*
%TD*%
D14*
%TO.P,REF\u002A\u002A,1*%
%TO.N,N/C*%
X460500000Y-91580000D03*
D15*
%TO.P,REF\u002A\u002A,2*%
X460500000Y-81420000D03*
%TD*%
D12*
%TO.P,REF\u002A\u002A,1*%
%TO.N,N/C*%
X434010000Y-122250000D03*
D13*
%TO.P,REF\u002A\u002A,2*%
X431470000Y-122250000D03*
%TD*%
D16*
%TO.P,REF\u002A\u002A,1*%
%TO.N,N/C*%
X438750000Y-104250000D03*
D17*
%TO.P,REF\u002A\u002A,2*%
X438750000Y-114410000D03*
%TD*%
D16*
%TO.P,REF\u002A\u002A,1*%
%TO.N,N/C*%
X495500000Y-146500000D03*
D17*
%TO.P,REF\u002A\u002A,2*%
X505660000Y-146500000D03*
%TD*%
D14*
%TO.P,REF\u002A\u002A,1*%
%TO.N,N/C*%
X512420000Y-220000000D03*
D15*
%TO.P,REF\u002A\u002A,2*%
X522580000Y-220000000D03*
%TD*%
D12*
%TO.P,REF\u002A\u002A,1*%
%TO.N,N/C*%
X428855000Y-233250000D03*
D13*
%TO.P,REF\u002A\u002A,2*%
X426315000Y-233250000D03*
%TD*%
D12*
%TO.P,REF\u002A\u002A,1*%
%TO.N,N/C*%
X443717500Y-244007500D03*
D13*
%TO.P,REF\u002A\u002A,2*%
X441177500Y-244007500D03*
%TD*%
D12*
%TO.P,REF\u002A\u002A,1*%
%TO.N,N/C*%
X423590000Y-193750000D03*
D13*
%TO.P,REF\u002A\u002A,2*%
X421050000Y-193750000D03*
%TD*%
D18*
%TO.P,REF\u002A\u002A,1*%
%TO.N,N/C*%
X564500000Y-76125000D03*
D19*
%TO.P,REF\u002A\u002A,2*%
X564500000Y-78665000D03*
%TO.P,REF\u002A\u002A,3*%
X564500000Y-81205000D03*
%TO.P,REF\u002A\u002A,4*%
X564500000Y-83745000D03*
%TO.P,REF\u002A\u002A,5*%
X564500000Y-86285000D03*
%TO.P,REF\u002A\u002A,6*%
X564500000Y-88825000D03*
%TO.P,REF\u002A\u002A,7*%
X564500000Y-91365000D03*
%TO.P,REF\u002A\u002A,8*%
X564500000Y-93905000D03*
%TD*%
D14*
%TO.P,REF\u002A\u002A,1*%
%TO.N,N/C*%
X488000000Y-63000000D03*
D15*
%TO.P,REF\u002A\u002A,2*%
X498160000Y-63000000D03*
%TD*%
D16*
%TO.P,REF\u002A\u002A,1*%
%TO.N,N/C*%
X481590000Y-43500000D03*
D17*
%TO.P,REF\u002A\u002A,2*%
X491750000Y-43500000D03*
%TD*%
D14*
%TO.P,REF\u002A\u002A,1*%
%TO.N,N/C*%
X558000000Y-101580000D03*
D15*
%TO.P,REF\u002A\u002A,2*%
X558000000Y-91420000D03*
%TD*%
D14*
%TO.P,REF\u002A\u002A,1*%
%TO.N,N/C*%
X401000000Y-83580000D03*
D15*
%TO.P,REF\u002A\u002A,2*%
X401000000Y-73420000D03*
%TD*%
D12*
%TO.P,REF\u002A\u002A,1*%
%TO.N,N/C*%
X423605000Y-151750000D03*
D13*
%TO.P,REF\u002A\u002A,2*%
X421065000Y-151750000D03*
%TD*%
D14*
%TO.P,REF\u002A\u002A,1*%
%TO.N,N/C*%
X469500000Y-154000000D03*
D15*
%TO.P,REF\u002A\u002A,2*%
X469500000Y-143840000D03*
%TD*%
D14*
%TO.P,REF\u002A\u002A,1*%
%TO.N,N/C*%
X485080000Y-54000000D03*
D15*
%TO.P,REF\u002A\u002A,2*%
X474920000Y-54000000D03*
%TD*%
D12*
%TO.P,REF\u002A\u002A,1*%
%TO.N,N/C*%
X526420000Y-69750000D03*
D13*
%TO.P,REF\u002A\u002A,2*%
X523880000Y-69750000D03*
%TD*%
D12*
%TO.P,REF\u002A\u002A,1*%
%TO.N,N/C*%
X496095000Y-133000000D03*
D13*
%TO.P,REF\u002A\u002A,2*%
X493555000Y-133000000D03*
%TD*%
D12*
%TO.P,REF\u002A\u002A,1*%
%TO.N,N/C*%
X423620000Y-162250000D03*
D13*
%TO.P,REF\u002A\u002A,2*%
X421080000Y-162250000D03*
%TD*%
D12*
%TO.P,REF\u002A\u002A,1*%
%TO.N,N/C*%
X496015000Y-30000000D03*
D13*
%TO.P,REF\u002A\u002A,2*%
X493475000Y-30000000D03*
%TD*%
D14*
%TO.P,REF\u002A\u002A,1*%
%TO.N,N/C*%
X500000000Y-48080000D03*
D15*
%TO.P,REF\u002A\u002A,2*%
X500000000Y-37920000D03*
%TD*%
D16*
%TO.P,REF\u002A\u002A,1*%
%TO.N,N/C*%
X438830000Y-151750000D03*
D17*
%TO.P,REF\u002A\u002A,2*%
X438830000Y-161910000D03*
%TD*%
D16*
%TO.P,REF\u002A\u002A,1*%
%TO.N,N/C*%
X438830000Y-207250000D03*
D17*
%TO.P,REF\u002A\u002A,2*%
X438830000Y-217410000D03*
%TD*%
D12*
%TO.P,REF\u002A\u002A,1*%
%TO.N,N/C*%
X506595000Y-133000000D03*
D13*
%TO.P,REF\u002A\u002A,2*%
X504055000Y-133000000D03*
%TD*%
D12*
%TO.P,REF\u002A\u002A,1*%
%TO.N,N/C*%
X475055000Y-133000000D03*
D13*
%TO.P,REF\u002A\u002A,2*%
X472515000Y-133000000D03*
%TD*%
D14*
%TO.P,REF\u002A\u002A,1*%
%TO.N,N/C*%
X541920000Y-83500000D03*
D15*
%TO.P,REF\u002A\u002A,2*%
X552080000Y-83500000D03*
%TD*%
D12*
%TO.P,REF\u002A\u002A,1*%
%TO.N,N/C*%
X506595000Y-141000000D03*
D13*
%TO.P,REF\u002A\u002A,2*%
X504055000Y-141000000D03*
%TD*%
D14*
%TO.P,REF\u002A\u002A,1*%
%TO.N,N/C*%
X549000000Y-79580000D03*
D15*
%TO.P,REF\u002A\u002A,2*%
X549000000Y-69420000D03*
%TD*%
D16*
%TO.P,REF\u002A\u002A,1*%
%TO.N,N/C*%
X438830000Y-221170000D03*
D17*
%TO.P,REF\u002A\u002A,2*%
X438830000Y-231330000D03*
%TD*%
D12*
%TO.P,REF\u002A\u002A,1*%
%TO.N,N/C*%
X536920000Y-111750000D03*
D13*
%TO.P,REF\u002A\u002A,2*%
X534380000Y-111750000D03*
%TD*%
D16*
%TO.P,REF\u002A\u002A,1*%
%TO.N,N/C*%
X438830000Y-193420000D03*
D17*
%TO.P,REF\u002A\u002A,2*%
X438830000Y-203580000D03*
%TD*%
D12*
%TO.P,REF\u002A\u002A,1*%
%TO.N,N/C*%
X517257500Y-236007500D03*
D13*
%TO.P,REF\u002A\u002A,2*%
X514717500Y-236007500D03*
%TD*%
D12*
%TO.P,REF\u002A\u002A,1*%
%TO.N,N/C*%
X517015000Y-38000000D03*
D13*
%TO.P,REF\u002A\u002A,2*%
X514475000Y-38000000D03*
%TD*%
D12*
%TO.P,REF\u002A\u002A,1*%
%TO.N,N/C*%
X496257500Y-244007500D03*
D13*
%TO.P,REF\u002A\u002A,2*%
X493717500Y-244007500D03*
%TD*%
D14*
%TO.P,REF\u002A\u002A,1*%
%TO.N,N/C*%
X442920000Y-56500000D03*
D15*
%TO.P,REF\u002A\u002A,2*%
X453080000Y-56500000D03*
%TD*%
D16*
%TO.P,REF\u002A\u002A,1*%
%TO.N,N/C*%
X541645000Y-90420000D03*
D17*
%TO.P,REF\u002A\u002A,2*%
X541645000Y-100580000D03*
%TD*%
D12*
%TO.P,REF\u002A\u002A,1*%
%TO.N,N/C*%
X531725000Y-143750000D03*
D13*
%TO.P,REF\u002A\u002A,2*%
X529185000Y-143750000D03*
%TD*%
D16*
%TO.P,REF\u002A\u002A,1*%
%TO.N,N/C*%
X453750000Y-43500000D03*
D17*
%TO.P,REF\u002A\u002A,2*%
X463910000Y-43500000D03*
%TD*%
D14*
%TO.P,REF\u002A\u002A,1*%
%TO.N,N/C*%
X398420000Y-69500000D03*
D15*
%TO.P,REF\u002A\u002A,2*%
X408580000Y-69500000D03*
%TD*%
D16*
%TO.P,REF\u002A\u002A,1*%
%TO.N,N/C*%
X541725000Y-151750000D03*
D17*
%TO.P,REF\u002A\u002A,2*%
X541725000Y-161910000D03*
%TD*%
D14*
%TO.P,REF\u002A\u002A,1*%
%TO.N,N/C*%
X516500000Y-95500000D03*
D15*
%TO.P,REF\u002A\u002A,2*%
X526660000Y-95500000D03*
%TD*%
D14*
%TO.P,REF\u002A\u002A,1*%
%TO.N,N/C*%
X479080000Y-100500000D03*
D15*
%TO.P,REF\u002A\u002A,2*%
X468920000Y-100500000D03*
%TD*%
D12*
%TO.P,REF\u002A\u002A,1*%
%TO.N,N/C*%
X423605000Y-214750000D03*
D13*
%TO.P,REF\u002A\u002A,2*%
X421065000Y-214750000D03*
%TD*%
D12*
%TO.P,REF\u002A\u002A,1*%
%TO.N,N/C*%
X506757500Y-244007500D03*
D13*
%TO.P,REF\u002A\u002A,2*%
X504217500Y-244007500D03*
%TD*%
D16*
%TO.P,REF\u002A\u002A,1*%
%TO.N,N/C*%
X541725000Y-221170000D03*
D17*
%TO.P,REF\u002A\u002A,2*%
X541725000Y-231330000D03*
%TD*%
D14*
%TO.P,REF\u002A\u002A,1*%
%TO.N,N/C*%
X498080000Y-52000000D03*
D15*
%TO.P,REF\u002A\u002A,2*%
X487920000Y-52000000D03*
%TD*%
D12*
%TO.P,REF\u002A\u002A,1*%
%TO.N,N/C*%
X537015000Y-162250000D03*
D13*
%TO.P,REF\u002A\u002A,2*%
X534475000Y-162250000D03*
%TD*%
D16*
%TO.P,REF\u002A\u002A,1*%
%TO.N,N/C*%
X509420000Y-146500000D03*
D17*
%TO.P,REF\u002A\u002A,2*%
X519580000Y-146500000D03*
%TD*%
D12*
%TO.P,REF\u002A\u002A,1*%
%TO.N,N/C*%
X464475000Y-38000000D03*
D13*
%TO.P,REF\u002A\u002A,2*%
X461935000Y-38000000D03*
%TD*%
D12*
%TO.P,REF\u002A\u002A,1*%
%TO.N,N/C*%
X454257500Y-236007500D03*
D13*
%TO.P,REF\u002A\u002A,2*%
X451717500Y-236007500D03*
%TD*%
D12*
%TO.P,REF\u002A\u002A,1*%
%TO.N,N/C*%
X434025000Y-80250000D03*
D13*
%TO.P,REF\u002A\u002A,2*%
X431485000Y-80250000D03*
%TD*%
D12*
%TO.P,REF\u002A\u002A,1*%
%TO.N,N/C*%
X434025000Y-69750000D03*
D13*
%TO.P,REF\u002A\u002A,2*%
X431485000Y-69750000D03*
%TD*%
D14*
%TO.P,REF\u002A\u002A,1*%
%TO.N,N/C*%
X440840000Y-124500000D03*
D15*
%TO.P,REF\u002A\u002A,2*%
X451000000Y-124500000D03*
%TD*%
D14*
%TO.P,REF\u002A\u002A,1*%
%TO.N,N/C*%
X509000000Y-182000000D03*
D15*
%TO.P,REF\u002A\u002A,2*%
X519160000Y-182000000D03*
%TD*%
D14*
%TO.P,REF\u002A\u002A,1*%
%TO.N,N/C*%
X480000000Y-131580000D03*
D15*
%TO.P,REF\u002A\u002A,2*%
X480000000Y-121420000D03*
%TD*%
D14*
%TO.P,REF\u002A\u002A,1*%
%TO.N,N/C*%
X528920000Y-138000000D03*
D15*
%TO.P,REF\u002A\u002A,2*%
X539080000Y-138000000D03*
%TD*%
D12*
%TO.P,REF\u002A\u002A,1*%
%TO.N,N/C*%
X525217500Y-240007500D03*
D13*
%TO.P,REF\u002A\u002A,2*%
X522677500Y-240007500D03*
%TD*%
D20*
%TO.P,REF\u002A\u002A,1*%
%TO.N,N/C*%
X475675000Y-76375000D03*
D21*
%TO.P,REF\u002A\u002A,2*%
X475675000Y-78915000D03*
%TO.P,REF\u002A\u002A,3*%
X475675000Y-81455000D03*
%TO.P,REF\u002A\u002A,4*%
X475675000Y-83995000D03*
%TO.P,REF\u002A\u002A,5*%
X475675000Y-86535000D03*
%TO.P,REF\u002A\u002A,6*%
X475675000Y-89075000D03*
%TO.P,REF\u002A\u002A,7*%
X475675000Y-91615000D03*
%TO.P,REF\u002A\u002A,8*%
X475675000Y-94155000D03*
%TO.P,REF\u002A\u002A,9*%
X483295000Y-94155000D03*
%TO.P,REF\u002A\u002A,10*%
X483295000Y-91615000D03*
%TO.P,REF\u002A\u002A,11*%
X483295000Y-89075000D03*
%TO.P,REF\u002A\u002A,12*%
X483295000Y-86535000D03*
%TO.P,REF\u002A\u002A,13*%
X483295000Y-83995000D03*
%TO.P,REF\u002A\u002A,14*%
X483295000Y-81455000D03*
%TO.P,REF\u002A\u002A,15*%
X483295000Y-78915000D03*
%TO.P,REF\u002A\u002A,16*%
X483295000Y-76375000D03*
%TD*%
D16*
%TO.P,REF\u002A\u002A,1*%
%TO.N,N/C*%
X453992500Y-249507500D03*
D17*
%TO.P,REF\u002A\u002A,2*%
X464152500Y-249507500D03*
%TD*%
D12*
%TO.P,REF\u002A\u002A,1*%
%TO.N,N/C*%
X506515000Y-30000000D03*
D13*
%TO.P,REF\u002A\u002A,2*%
X503975000Y-30000000D03*
%TD*%
D12*
%TO.P,REF\u002A\u002A,1*%
%TO.N,N/C*%
X485475000Y-30000000D03*
D13*
%TO.P,REF\u002A\u002A,2*%
X482935000Y-30000000D03*
%TD*%
D16*
%TO.P,REF\u002A\u002A,1*%
%TO.N,N/C*%
X541645000Y-48750000D03*
D17*
%TO.P,REF\u002A\u002A,2*%
X541645000Y-58910000D03*
%TD*%
D12*
%TO.P,REF\u002A\u002A,1*%
%TO.N,N/C*%
X474975000Y-38000000D03*
D13*
%TO.P,REF\u002A\u002A,2*%
X472435000Y-38000000D03*
%TD*%
D12*
%TO.P,REF\u002A\u002A,1*%
%TO.N,N/C*%
X464555000Y-133000000D03*
D13*
%TO.P,REF\u002A\u002A,2*%
X462015000Y-133000000D03*
%TD*%
D12*
%TO.P,REF\u002A\u002A,1*%
%TO.N,N/C*%
X524975000Y-34000000D03*
D13*
%TO.P,REF\u002A\u002A,2*%
X522435000Y-34000000D03*
%TD*%
D16*
%TO.P,REF\u002A\u002A,1*%
%TO.N,N/C*%
X541645000Y-118170000D03*
D17*
%TO.P,REF\u002A\u002A,2*%
X541645000Y-128330000D03*
%TD*%
D12*
%TO.P,REF\u002A\u002A,1*%
%TO.N,N/C*%
X536920000Y-48750000D03*
D13*
%TO.P,REF\u002A\u002A,2*%
X534380000Y-48750000D03*
%TD*%
D12*
%TO.P,REF\u002A\u002A,1*%
%TO.N,N/C*%
X526420000Y-48750000D03*
D13*
%TO.P,REF\u002A\u002A,2*%
X523880000Y-48750000D03*
%TD*%
D12*
%TO.P,REF\u002A\u002A,1*%
%TO.N,N/C*%
X434025000Y-101250000D03*
D13*
%TO.P,REF\u002A\u002A,2*%
X431485000Y-101250000D03*
%TD*%
D12*
%TO.P,REF\u002A\u002A,1*%
%TO.N,N/C*%
X496095000Y-141000000D03*
D13*
%TO.P,REF\u002A\u002A,2*%
X493555000Y-141000000D03*
%TD*%
D14*
%TO.P,REF\u002A\u002A,1*%
%TO.N,N/C*%
X500000000Y-34620000D03*
D15*
%TO.P,REF\u002A\u002A,2*%
X500000000Y-19380000D03*
%TD*%
D12*
%TO.P,REF\u002A\u002A,1*%
%TO.N,N/C*%
X464475000Y-30000000D03*
D13*
%TO.P,REF\u002A\u002A,2*%
X461935000Y-30000000D03*
%TD*%
D14*
%TO.P,REF\u002A\u002A,1*%
%TO.N,N/C*%
X515920000Y-54000000D03*
D15*
%TO.P,REF\u002A\u002A,2*%
X526080000Y-54000000D03*
%TD*%
D14*
%TO.P,REF\u002A\u002A,1*%
%TO.N,N/C*%
X450080000Y-96500000D03*
D15*
%TO.P,REF\u002A\u002A,2*%
X439920000Y-96500000D03*
%TD*%
D14*
%TO.P,REF\u002A\u002A,1*%
%TO.N,N/C*%
X558000000Y-79000000D03*
D15*
%TO.P,REF\u002A\u002A,2*%
X558000000Y-68840000D03*
%TD*%
D16*
%TO.P,REF\u002A\u002A,1*%
%TO.N,N/C*%
X509582500Y-249507500D03*
D17*
%TO.P,REF\u002A\u002A,2*%
X519742500Y-249507500D03*
%TD*%
D14*
%TO.P,REF\u002A\u002A,1*%
%TO.N,N/C*%
X488500000Y-97000000D03*
D15*
%TO.P,REF\u002A\u002A,2*%
X488500000Y-107160000D03*
%TD*%
D16*
%TO.P,REF\u002A\u002A,1*%
%TO.N,N/C*%
X541725000Y-207250000D03*
D17*
%TO.P,REF\u002A\u002A,2*%
X541725000Y-217410000D03*
%TD*%
D12*
%TO.P,REF\u002A\u002A,1*%
%TO.N,N/C*%
X434025000Y-48750000D03*
D13*
%TO.P,REF\u002A\u002A,2*%
X431485000Y-48750000D03*
%TD*%
D12*
%TO.P,REF\u002A\u002A,1*%
%TO.N,N/C*%
X536985000Y-193750000D03*
D13*
%TO.P,REF\u002A\u002A,2*%
X534445000Y-193750000D03*
%TD*%
D14*
%TO.P,REF\u002A\u002A,1*%
%TO.N,N/C*%
X513500000Y-73160000D03*
D15*
%TO.P,REF\u002A\u002A,2*%
X513500000Y-63000000D03*
%TD*%
D16*
%TO.P,REF\u002A\u002A,1*%
%TO.N,N/C*%
X440000000Y-146500000D03*
D17*
%TO.P,REF\u002A\u002A,2*%
X450160000Y-146500000D03*
%TD*%
D12*
%TO.P,REF\u002A\u002A,1*%
%TO.N,N/C*%
X423525000Y-111750000D03*
D13*
%TO.P,REF\u002A\u002A,2*%
X420985000Y-111750000D03*
%TD*%
D16*
%TO.P,REF\u002A\u002A,1*%
%TO.N,N/C*%
X467750000Y-146500000D03*
D17*
%TO.P,REF\u002A\u002A,2*%
X477910000Y-146500000D03*
%TD*%
D14*
%TO.P,REF\u002A\u002A,1*%
%TO.N,N/C*%
X432080000Y-96500000D03*
D15*
%TO.P,REF\u002A\u002A,2*%
X421920000Y-96500000D03*
%TD*%
D12*
%TO.P,REF\u002A\u002A,1*%
%TO.N,N/C*%
X454095000Y-141000000D03*
D13*
%TO.P,REF\u002A\u002A,2*%
X451555000Y-141000000D03*
%TD*%
D12*
%TO.P,REF\u002A\u002A,1*%
%TO.N,N/C*%
X485717500Y-236007500D03*
D13*
%TO.P,REF\u002A\u002A,2*%
X483177500Y-236007500D03*
%TD*%
D12*
%TO.P,REF\u002A\u002A,1*%
%TO.N,N/C*%
X531645000Y-40750000D03*
D13*
%TO.P,REF\u002A\u002A,2*%
X529105000Y-40750000D03*
%TD*%
D12*
%TO.P,REF\u002A\u002A,1*%
%TO.N,N/C*%
X536905000Y-122250000D03*
D13*
%TO.P,REF\u002A\u002A,2*%
X534365000Y-122250000D03*
%TD*%
D12*
%TO.P,REF\u002A\u002A,1*%
%TO.N,N/C*%
X517257500Y-244007500D03*
D13*
%TO.P,REF\u002A\u002A,2*%
X514717500Y-244007500D03*
%TD*%
D16*
%TO.P,REF\u002A\u002A,1*%
%TO.N,N/C*%
X541725000Y-165580000D03*
D17*
%TO.P,REF\u002A\u002A,2*%
X541725000Y-175740000D03*
%TD*%
D12*
%TO.P,REF\u002A\u002A,1*%
%TO.N,N/C*%
X537000000Y-172750000D03*
D13*
%TO.P,REF\u002A\u002A,2*%
X534460000Y-172750000D03*
%TD*%
D12*
%TO.P,REF\u002A\u002A,1*%
%TO.N,N/C*%
X423590000Y-225250000D03*
D13*
%TO.P,REF\u002A\u002A,2*%
X421050000Y-225250000D03*
%TD*%
D12*
%TO.P,REF\u002A\u002A,1*%
%TO.N,N/C*%
X464717500Y-244007500D03*
D13*
%TO.P,REF\u002A\u002A,2*%
X462177500Y-244007500D03*
%TD*%
D12*
%TO.P,REF\u002A\u002A,1*%
%TO.N,N/C*%
X434120000Y-162250000D03*
D13*
%TO.P,REF\u002A\u002A,2*%
X431580000Y-162250000D03*
%TD*%
D14*
%TO.P,REF\u002A\u002A,1*%
%TO.N,N/C*%
X479500000Y-51080000D03*
D15*
%TO.P,REF\u002A\u002A,2*%
X479500000Y-40920000D03*
%TD*%
D12*
%TO.P,REF\u002A\u002A,1*%
%TO.N,N/C*%
X536920000Y-69750000D03*
D13*
%TO.P,REF\u002A\u002A,2*%
X534380000Y-69750000D03*
%TD*%
D12*
%TO.P,REF\u002A\u002A,1*%
%TO.N,N/C*%
X454257500Y-244007500D03*
D13*
%TO.P,REF\u002A\u002A,2*%
X451717500Y-244007500D03*
%TD*%
D16*
%TO.P,REF\u002A\u002A,1*%
%TO.N,N/C*%
X495662500Y-249507500D03*
D17*
%TO.P,REF\u002A\u002A,2*%
X505822500Y-249507500D03*
%TD*%
D12*
%TO.P,REF\u002A\u002A,1*%
%TO.N,N/C*%
X485555000Y-141000000D03*
D13*
%TO.P,REF\u002A\u002A,2*%
X483015000Y-141000000D03*
%TD*%
D12*
%TO.P,REF\u002A\u002A,1*%
%TO.N,N/C*%
X443475000Y-30000000D03*
D13*
%TO.P,REF\u002A\u002A,2*%
X440935000Y-30000000D03*
%TD*%
D14*
%TO.P,REF\u002A\u002A,1*%
%TO.N,N/C*%
X468920000Y-97500000D03*
D15*
%TO.P,REF\u002A\u002A,2*%
X479080000Y-97500000D03*
%TD*%
D14*
%TO.P,REF\u002A\u002A,1*%
%TO.N,N/C*%
X512420000Y-157000000D03*
D15*
%TO.P,REF\u002A\u002A,2*%
X522580000Y-157000000D03*
%TD*%
D12*
%TO.P,REF\u002A\u002A,1*%
%TO.N,N/C*%
X536920000Y-80250000D03*
D13*
%TO.P,REF\u002A\u002A,2*%
X534380000Y-80250000D03*
%TD*%
D12*
%TO.P,REF\u002A\u002A,1*%
%TO.N,N/C*%
X434105000Y-183250000D03*
D13*
%TO.P,REF\u002A\u002A,2*%
X431565000Y-183250000D03*
%TD*%
D12*
%TO.P,REF\u002A\u002A,1*%
%TO.N,N/C*%
X423605000Y-183250000D03*
D13*
%TO.P,REF\u002A\u002A,2*%
X421065000Y-183250000D03*
%TD*%
D12*
%TO.P,REF\u002A\u002A,1*%
%TO.N,N/C*%
X435500000Y-34000000D03*
D13*
%TO.P,REF\u002A\u002A,2*%
X432960000Y-34000000D03*
%TD*%
D12*
%TO.P,REF\u002A\u002A,1*%
%TO.N,N/C*%
X485475000Y-38000000D03*
D13*
%TO.P,REF\u002A\u002A,2*%
X482935000Y-38000000D03*
%TD*%
D12*
%TO.P,REF\u002A\u002A,1*%
%TO.N,N/C*%
X526405000Y-122250000D03*
D13*
%TO.P,REF\u002A\u002A,2*%
X523865000Y-122250000D03*
%TD*%
D14*
%TO.P,REF\u002A\u002A,1*%
%TO.N,N/C*%
X539000000Y-95500000D03*
D15*
%TO.P,REF\u002A\u002A,2*%
X549160000Y-95500000D03*
%TD*%
D12*
%TO.P,REF\u002A\u002A,1*%
%TO.N,N/C*%
X536905000Y-90750000D03*
D13*
%TO.P,REF\u002A\u002A,2*%
X534365000Y-90750000D03*
%TD*%
D12*
%TO.P,REF\u002A\u002A,1*%
%TO.N,N/C*%
X454015000Y-38000000D03*
D13*
%TO.P,REF\u002A\u002A,2*%
X451475000Y-38000000D03*
%TD*%
D14*
%TO.P,REF\u002A\u002A,1*%
%TO.N,N/C*%
X509000000Y-179000000D03*
D15*
%TO.P,REF\u002A\u002A,2*%
X519160000Y-179000000D03*
%TD*%
D12*
%TO.P,REF\u002A\u002A,1*%
%TO.N,N/C*%
X517015000Y-30000000D03*
D13*
%TO.P,REF\u002A\u002A,2*%
X514475000Y-30000000D03*
%TD*%
D14*
%TO.P,REF\u002A\u002A,1*%
%TO.N,N/C*%
X413000000Y-54000000D03*
D15*
%TO.P,REF\u002A\u002A,2*%
X423160000Y-54000000D03*
%TD*%
D14*
%TO.P,REF\u002A\u002A,1*%
%TO.N,N/C*%
X439920000Y-81500000D03*
D15*
%TO.P,REF\u002A\u002A,2*%
X450080000Y-81500000D03*
%TD*%
D14*
%TO.P,REF\u002A\u002A,1*%
%TO.N,N/C*%
X498500000Y-91500000D03*
D15*
%TO.P,REF\u002A\u002A,2*%
X498500000Y-81340000D03*
%TD*%
D12*
%TO.P,REF\u002A\u002A,1*%
%TO.N,N/C*%
X526500000Y-151750000D03*
D13*
%TO.P,REF\u002A\u002A,2*%
X523960000Y-151750000D03*
%TD*%
D14*
%TO.P,REF\u002A\u002A,1*%
%TO.N,N/C*%
X419580000Y-96500000D03*
D15*
%TO.P,REF\u002A\u002A,2*%
X409420000Y-96500000D03*
%TD*%
D14*
%TO.P,REF\u002A\u002A,1*%
%TO.N,N/C*%
X539420000Y-187000000D03*
D15*
%TO.P,REF\u002A\u002A,2*%
X549580000Y-187000000D03*
%TD*%
D12*
%TO.P,REF\u002A\u002A,1*%
%TO.N,N/C*%
X537000000Y-214750000D03*
D13*
%TO.P,REF\u002A\u002A,2*%
X534460000Y-214750000D03*
%TD*%
D22*
%TO.P,,1*%
%TO.N,N/C*%
X465500000Y-91500000D03*
%TD*%
D14*
%TO.P,REF\u002A\u002A,1*%
%TO.N,N/C*%
X512420000Y-188500000D03*
D15*
%TO.P,REF\u002A\u002A,2*%
X522580000Y-188500000D03*
%TD*%
D16*
%TO.P,REF\u002A\u002A,1*%
%TO.N,N/C*%
X438750000Y-76500000D03*
D17*
%TO.P,REF\u002A\u002A,2*%
X438750000Y-86660000D03*
%TD*%
D14*
%TO.P,REF\u002A\u002A,1*%
%TO.N,N/C*%
X536645000Y-156830000D03*
D15*
%TO.P,REF\u002A\u002A,2*%
X546805000Y-156830000D03*
%TD*%
D12*
%TO.P,REF\u002A\u002A,1*%
%TO.N,N/C*%
X443475000Y-38000000D03*
D13*
%TO.P,REF\u002A\u002A,2*%
X440935000Y-38000000D03*
%TD*%
D14*
%TO.P,REF\u002A\u002A,1*%
%TO.N,N/C*%
X407000000Y-93080000D03*
D15*
%TO.P,REF\u002A\u002A,2*%
X407000000Y-82920000D03*
%TD*%
D12*
%TO.P,REF\u002A\u002A,1*%
%TO.N,N/C*%
X526435000Y-59250000D03*
D13*
%TO.P,REF\u002A\u002A,2*%
X523895000Y-59250000D03*
%TD*%
D14*
%TO.P,REF\u002A\u002A,1*%
%TO.N,N/C*%
X479000000Y-32080000D03*
D15*
%TO.P,REF\u002A\u002A,2*%
X479000000Y-21920000D03*
%TD*%
D12*
%TO.P,REF\u002A\u002A,1*%
%TO.N,N/C*%
X526500000Y-172750000D03*
D13*
%TO.P,REF\u002A\u002A,2*%
X523960000Y-172750000D03*
%TD*%
D14*
%TO.P,REF\u002A\u002A,1*%
%TO.N,N/C*%
X488000000Y-59500000D03*
D15*
%TO.P,REF\u002A\u002A,2*%
X498160000Y-59500000D03*
%TD*%
D12*
%TO.P,REF\u002A\u002A,1*%
%TO.N,N/C*%
X435742500Y-240007500D03*
D13*
%TO.P,REF\u002A\u002A,2*%
X433202500Y-240007500D03*
%TD*%
D12*
%TO.P,REF\u002A\u002A,1*%
%TO.N,N/C*%
X506515000Y-38000000D03*
D13*
%TO.P,REF\u002A\u002A,2*%
X503975000Y-38000000D03*
%TD*%
D12*
%TO.P,REF\u002A\u002A,1*%
%TO.N,N/C*%
X537000000Y-151750000D03*
D13*
%TO.P,REF\u002A\u002A,2*%
X534460000Y-151750000D03*
%TD*%
D12*
%TO.P,REF\u002A\u002A,1*%
%TO.N,N/C*%
X434040000Y-59250000D03*
D13*
%TO.P,REF\u002A\u002A,2*%
X431500000Y-59250000D03*
%TD*%
D14*
%TO.P,REF\u002A\u002A,1*%
%TO.N,N/C*%
X506340000Y-100500000D03*
D15*
%TO.P,REF\u002A\u002A,2*%
X516500000Y-100500000D03*
%TD*%
D14*
%TO.P,REF\u002A\u002A,1*%
%TO.N,N/C*%
X405920000Y-63000000D03*
D15*
%TO.P,REF\u002A\u002A,2*%
X416080000Y-63000000D03*
%TD*%
D14*
%TO.P,REF\u002A\u002A,1*%
%TO.N,N/C*%
X409420000Y-85500000D03*
D15*
%TO.P,REF\u002A\u002A,2*%
X419580000Y-85500000D03*
%TD*%
D12*
%TO.P,REF\u002A\u002A,1*%
%TO.N,N/C*%
X428830000Y-143750000D03*
D13*
%TO.P,REF\u002A\u002A,2*%
X426290000Y-143750000D03*
%TD*%
D12*
%TO.P,REF\u002A\u002A,1*%
%TO.N,N/C*%
X531750000Y-233250000D03*
D13*
%TO.P,REF\u002A\u002A,2*%
X529210000Y-233250000D03*
%TD*%
D14*
%TO.P,REF\u002A\u002A,1*%
%TO.N,N/C*%
X560500000Y-96120000D03*
D15*
%TO.P,REF\u002A\u002A,2*%
X560500000Y-80880000D03*
%TD*%
D16*
%TO.P,REF\u002A\u002A,1*%
%TO.N,N/C*%
X541645000Y-104250000D03*
D17*
%TO.P,REF\u002A\u002A,2*%
X541645000Y-114410000D03*
%TD*%
D14*
%TO.P,REF\u002A\u002A,1*%
%TO.N,N/C*%
X457000000Y-91500000D03*
D15*
%TO.P,REF\u002A\u002A,2*%
X457000000Y-101660000D03*
%TD*%
D16*
%TO.P,REF\u002A\u002A,1*%
%TO.N,N/C*%
X495420000Y-43500000D03*
D17*
%TO.P,REF\u002A\u002A,2*%
X505580000Y-43500000D03*
%TD*%
D12*
%TO.P,REF\u002A\u002A,1*%
%TO.N,N/C*%
X474975000Y-30000000D03*
D13*
%TO.P,REF\u002A\u002A,2*%
X472435000Y-30000000D03*
%TD*%
D12*
%TO.P,REF\u002A\u002A,1*%
%TO.N,N/C*%
X485717500Y-244007500D03*
D13*
%TO.P,REF\u002A\u002A,2*%
X483177500Y-244007500D03*
%TD*%
D16*
%TO.P,REF\u002A\u002A,1*%
%TO.N,N/C*%
X438750000Y-62580000D03*
D17*
%TO.P,REF\u002A\u002A,2*%
X438750000Y-72740000D03*
%TD*%
D12*
%TO.P,REF\u002A\u002A,1*%
%TO.N,N/C*%
X537000000Y-204250000D03*
D13*
%TO.P,REF\u002A\u002A,2*%
X534460000Y-204250000D03*
%TD*%
D16*
%TO.P,REF\u002A\u002A,1*%
%TO.N,N/C*%
X481832500Y-249507500D03*
D17*
%TO.P,REF\u002A\u002A,2*%
X491992500Y-249507500D03*
%TD*%
D12*
%TO.P,REF\u002A\u002A,1*%
%TO.N,N/C*%
X517095000Y-141000000D03*
D13*
%TO.P,REF\u002A\u002A,2*%
X514555000Y-141000000D03*
%TD*%
D14*
%TO.P,REF\u002A\u002A,1*%
%TO.N,N/C*%
X495500000Y-86500000D03*
D15*
%TO.P,REF\u002A\u002A,2*%
X495500000Y-76340000D03*
%TD*%
D22*
%TO.P,REF\u002A\u002A,1*%
%TO.N,N/C*%
X481250000Y-200000000D03*
%TD*%
%TO.P,REF\u002A\u002A,1*%
%TO.N,N/C*%
X466250000Y-200000000D03*
%TD*%
%TO.P,REF\u002A\u002A,1*%
%TO.N,N/C*%
X461250000Y-200000000D03*
%TD*%
%TO.P,REF\u002A\u002A,1*%
%TO.N,N/C*%
X456500000Y-200000000D03*
%TD*%
%TO.P,REF\u002A\u002A,1*%
%TO.N,N/C*%
X486250000Y-200000000D03*
%TD*%
%TO.P,REF\u002A\u002A,1*%
%TO.N,N/C*%
X476250000Y-200000000D03*
%TD*%
%TO.P,REF\u002A\u002A,1*%
%TO.N,N/C*%
X491250000Y-200000000D03*
%TD*%
%TO.P,REF\u002A\u002A,1*%
%TO.N,N/C*%
X496250000Y-200000000D03*
%TD*%
%TO.P,REF\u002A\u002A,1*%
%TO.N,N/C*%
X471250000Y-200000000D03*
%TD*%
D23*
%TO.N,*%
X475675000Y-124325000D02*
X475850000Y-124500000D01*
X485475000Y-32275000D02*
X482935000Y-34815000D01*
D24*
X541725000Y-161910000D02*
X544135000Y-161910000D01*
D23*
X505000000Y-41250000D02*
X501250000Y-41250000D01*
D24*
X463910000Y-48160000D02*
X464000000Y-48250000D01*
D23*
X523880000Y-47265000D02*
X523880000Y-48750000D01*
D25*
X508000000Y-222000000D02*
X510500000Y-224500000D01*
X467500000Y-137000000D02*
X469500000Y-139000000D01*
D24*
X418750000Y-122250000D02*
X420970000Y-122250000D01*
D25*
X475675000Y-83995000D02*
X447995000Y-83995000D01*
D23*
X422580000Y-178500000D02*
X432330000Y-178500000D01*
D24*
X546225000Y-203750000D02*
X546225000Y-207500000D01*
D25*
X460000000Y-137000000D02*
X467500000Y-137000000D01*
X457000000Y-91500000D02*
X454080000Y-91500000D01*
D23*
X435580000Y-137000000D02*
X439580000Y-137000000D01*
X398420000Y-86160000D02*
X401000000Y-83580000D01*
X535500000Y-179500000D02*
X537000000Y-178000000D01*
D24*
X523960000Y-172750000D02*
X519475000Y-172750000D01*
D23*
X423525000Y-64525000D02*
X423525000Y-69750000D01*
X475055000Y-136025000D02*
X472515000Y-138565000D01*
X485555000Y-141000000D02*
X493555000Y-141000000D01*
X472742500Y-249507500D02*
X467912500Y-249507500D01*
D24*
X519145000Y-67145000D02*
X519145000Y-69500000D01*
D25*
X564500000Y-91365000D02*
X558055000Y-91365000D01*
D23*
X475217500Y-239032500D02*
X472677500Y-241572500D01*
X434105000Y-176725000D02*
X434105000Y-172750000D01*
X494500000Y-41000000D02*
X487750000Y-41000000D01*
X483177500Y-240822500D02*
X483177500Y-244007500D01*
D25*
X408920000Y-66500000D02*
X408920000Y-69160000D01*
D23*
X405920000Y-73580000D02*
X405920000Y-63000000D01*
X530725000Y-229000000D02*
X529210000Y-230515000D01*
X423620000Y-162250000D02*
X431580000Y-162250000D01*
D25*
X488000000Y-56000000D02*
X482500000Y-56000000D01*
D23*
X472500000Y-43500000D02*
X467670000Y-43500000D01*
D25*
X491250000Y-171250000D02*
X495000000Y-167500000D01*
D23*
X443717500Y-236007500D02*
X443717500Y-239782500D01*
D24*
X450080000Y-43500000D02*
X450080000Y-46080000D01*
X451475000Y-30000000D02*
X451475000Y-25475000D01*
D23*
X506595000Y-142735000D02*
X505080000Y-144250000D01*
D25*
X553000000Y-129840000D02*
X553000000Y-114500000D01*
D24*
X416330000Y-207250000D02*
X416330000Y-225170000D01*
D23*
X499080000Y-146500000D02*
X495500000Y-146500000D01*
X443475000Y-33775000D02*
X440935000Y-36315000D01*
D24*
X425250000Y-104750000D02*
X416750000Y-104750000D01*
D25*
X463500000Y-97500000D02*
X468920000Y-97500000D01*
D24*
X416500000Y-135000000D02*
X418920000Y-135000000D01*
D23*
X519500000Y-34000000D02*
X522435000Y-34000000D01*
X423525000Y-48750000D02*
X431485000Y-48750000D01*
D25*
X458080000Y-79000000D02*
X452580000Y-79000000D01*
X509000000Y-180500000D02*
X498500000Y-180500000D01*
X407240000Y-89000000D02*
X405240000Y-89000000D01*
X461250000Y-151750000D02*
X461750000Y-151250000D01*
D24*
X544135000Y-161910000D02*
X546225000Y-164000000D01*
D25*
X505500000Y-154500000D02*
X508000000Y-157000000D01*
X483295000Y-81455000D02*
X492455000Y-81455000D01*
D23*
X421000000Y-62000000D02*
X423525000Y-64525000D01*
X421050000Y-197220000D02*
X423605000Y-199775000D01*
X496015000Y-39485000D02*
X494500000Y-41000000D01*
X421065000Y-212265000D02*
X421065000Y-214750000D01*
X432330000Y-178500000D02*
X434105000Y-176725000D01*
X434105000Y-214750000D02*
X436170000Y-214750000D01*
D24*
X416580000Y-204250000D02*
X416330000Y-204500000D01*
D23*
X475675000Y-94155000D02*
X475675000Y-124325000D01*
X439500000Y-34000000D02*
X440935000Y-32565000D01*
D24*
X416750000Y-104750000D02*
X416250000Y-104250000D01*
D23*
X458080000Y-144500000D02*
X456080000Y-146500000D01*
D25*
X560500000Y-129500000D02*
X549080000Y-140920000D01*
D23*
X474975000Y-38000000D02*
X474975000Y-41025000D01*
X421000000Y-59250000D02*
X421000000Y-62000000D01*
D25*
X535500000Y-167500000D02*
X536500000Y-168500000D01*
D23*
X526500000Y-169025000D02*
X526500000Y-172750000D01*
D25*
X498160000Y-59500000D02*
X510160000Y-59500000D01*
D24*
X491992500Y-254007500D02*
X492242500Y-254257500D01*
D23*
X510500000Y-40500000D02*
X510500000Y-32080000D01*
D24*
X431485000Y-69750000D02*
X429000000Y-69750000D01*
X462250000Y-25000000D02*
X482750000Y-25000000D01*
D23*
X464475000Y-39275000D02*
X462250000Y-41500000D01*
X526420000Y-98920000D02*
X526420000Y-101250000D01*
D24*
X443250000Y-104500000D02*
X443250000Y-115750000D01*
X541645000Y-86660000D02*
X545805000Y-86660000D01*
D25*
X409500000Y-96420000D02*
X409500000Y-91260000D01*
D23*
X524975000Y-211250000D02*
X523960000Y-212265000D01*
X442080000Y-146500000D02*
X440000000Y-146500000D01*
X441015000Y-135565000D02*
X441015000Y-133000000D01*
D24*
X527750000Y-40750000D02*
X526395000Y-40750000D01*
X416330000Y-234830000D02*
X420000000Y-238500000D01*
D25*
X510160000Y-59500000D02*
X510500000Y-59840000D01*
X535500000Y-23500000D02*
X535500000Y-31500000D01*
D23*
X549000000Y-51000000D02*
X549000000Y-69420000D01*
X485080000Y-54000000D02*
X485080000Y-52420000D01*
D24*
X519145000Y-119750000D02*
X521645000Y-122250000D01*
D23*
X535145000Y-126000000D02*
X530645000Y-126000000D01*
X422500000Y-75500000D02*
X432250000Y-75500000D01*
D25*
X486250000Y-206750000D02*
X488500000Y-209000000D01*
D24*
X443330000Y-217330000D02*
X443330000Y-218750000D01*
D23*
X509000000Y-52000000D02*
X512500000Y-48500000D01*
D25*
X467625000Y-76375000D02*
X475675000Y-76375000D01*
D23*
X549000000Y-85000000D02*
X549000000Y-79580000D01*
X456000000Y-43500000D02*
X453750000Y-43500000D01*
X394000000Y-78540000D02*
X396540000Y-76000000D01*
D25*
X509500000Y-211500000D02*
X486500000Y-211500000D01*
D23*
X496095000Y-133000000D02*
X504055000Y-133000000D01*
X539725000Y-183250000D02*
X541725000Y-181250000D01*
X524975000Y-34000000D02*
X524975000Y-36775000D01*
D25*
X544135000Y-149635000D02*
X544135000Y-161910000D01*
D24*
X526395000Y-40750000D02*
X519145000Y-48000000D01*
D23*
X409420000Y-103580000D02*
X409420000Y-116500000D01*
D25*
X439920000Y-81500000D02*
X435920000Y-85500000D01*
D23*
X499242500Y-249507500D02*
X495662500Y-249507500D01*
D24*
X437500000Y-133000000D02*
X434500000Y-133000000D01*
D23*
X482935000Y-34815000D02*
X482935000Y-38000000D01*
X525225000Y-149000000D02*
X523960000Y-150265000D01*
X407000000Y-101000000D02*
X409500000Y-103500000D01*
D25*
X465500000Y-74250000D02*
X467625000Y-76375000D01*
D24*
X420985000Y-69750000D02*
X416500000Y-69750000D01*
X528000000Y-40500000D02*
X527750000Y-40750000D01*
D25*
X465500000Y-91500000D02*
X475560000Y-91500000D01*
D23*
X443475000Y-38000000D02*
X443475000Y-42025000D01*
D24*
X428750000Y-101250000D02*
X425250000Y-104750000D01*
D23*
X526435000Y-59250000D02*
X534395000Y-59250000D01*
X427750000Y-126000000D02*
X426235000Y-127515000D01*
X536920000Y-48750000D02*
X541645000Y-48750000D01*
D24*
X519395000Y-101250000D02*
X519145000Y-101500000D01*
D23*
X439742500Y-240007500D02*
X441177500Y-238572500D01*
D25*
X487500000Y-66500000D02*
X469000000Y-66500000D01*
D24*
X438750000Y-86660000D02*
X442910000Y-86660000D01*
D23*
X525145000Y-46000000D02*
X523880000Y-47265000D01*
D24*
X546145000Y-100750000D02*
X546145000Y-104500000D01*
D23*
X434090000Y-225250000D02*
X434090000Y-227240000D01*
D25*
X495000000Y-84000000D02*
X499500000Y-84000000D01*
D24*
X505830000Y-151250000D02*
X507830000Y-151250000D01*
D23*
X420970000Y-90750000D02*
X420970000Y-91970000D01*
X464555000Y-133000000D02*
X472515000Y-133000000D01*
X472580000Y-146500000D02*
X467750000Y-146500000D01*
X485080000Y-52420000D02*
X485500000Y-52000000D01*
D25*
X558000000Y-68000000D02*
X558000000Y-49000000D01*
D24*
X462015000Y-133000000D02*
X462015000Y-128315000D01*
D23*
X537015000Y-164040000D02*
X538555000Y-165580000D01*
D25*
X511000000Y-143500000D02*
X516000000Y-148500000D01*
D23*
X462330000Y-144500000D02*
X458080000Y-144500000D01*
X506757500Y-238492500D02*
X504217500Y-241032500D01*
D25*
X546290000Y-112500000D02*
X546145000Y-112645000D01*
D23*
X440935000Y-36315000D02*
X440935000Y-38000000D01*
D24*
X442492500Y-231007500D02*
X437000000Y-236500000D01*
D23*
X531645000Y-44750000D02*
X530395000Y-46000000D01*
X506757500Y-245742500D02*
X505242500Y-247257500D01*
X434105000Y-204250000D02*
X434105000Y-209725000D01*
D24*
X438750000Y-72740000D02*
X443240000Y-72740000D01*
X546225000Y-190000000D02*
X546225000Y-203750000D01*
D25*
X460500000Y-94500000D02*
X463500000Y-97500000D01*
D23*
X443555000Y-133000000D02*
X443555000Y-136775000D01*
D25*
X512500000Y-207500000D02*
X512500000Y-188580000D01*
D23*
X434105000Y-209725000D02*
X432580000Y-211250000D01*
D24*
X432750000Y-238500000D02*
X433202500Y-238047500D01*
D23*
X536920000Y-111750000D02*
X538985000Y-111750000D01*
D25*
X513500000Y-73160000D02*
X516500000Y-76160000D01*
X401800000Y-88700000D02*
X405000000Y-85500000D01*
D23*
X531645000Y-40750000D02*
X531645000Y-44750000D01*
X541395000Y-193750000D02*
X541725000Y-193420000D01*
D25*
X458000000Y-96500000D02*
X462000000Y-100500000D01*
D23*
X529130000Y-127515000D02*
X529130000Y-130250000D01*
X396540000Y-81080000D02*
X396580000Y-81080000D01*
X440935000Y-32565000D02*
X440935000Y-30000000D01*
D24*
X546145000Y-61000000D02*
X546145000Y-72750000D01*
D25*
X495465000Y-86535000D02*
X495500000Y-86500000D01*
D23*
X420985000Y-77015000D02*
X422500000Y-75500000D01*
X517095000Y-141000000D02*
X517095000Y-139485000D01*
D24*
X514717500Y-233232500D02*
X514717500Y-236007500D01*
X544055000Y-58910000D02*
X546145000Y-61000000D01*
X519225000Y-151000000D02*
X519225000Y-172500000D01*
D25*
X398420000Y-69500000D02*
X395000000Y-69500000D01*
X391508000Y-93000000D02*
X392288000Y-93780000D01*
D24*
X505822500Y-254087500D02*
X505992500Y-254257500D01*
D23*
X564500000Y-86285000D02*
X550285000Y-86285000D01*
X434120000Y-162250000D02*
X434120000Y-164040000D01*
D25*
X498500000Y-81340000D02*
X498500000Y-70340000D01*
D24*
X493555000Y-133000000D02*
X493555000Y-128225000D01*
X425330000Y-207750000D02*
X416830000Y-207750000D01*
X433202500Y-238047500D02*
X433202500Y-240007500D01*
X416330000Y-143750000D02*
X416330000Y-172500000D01*
D23*
X488625000Y-76375000D02*
X483295000Y-76375000D01*
D25*
X498500000Y-70340000D02*
X498160000Y-70000000D01*
D24*
X541725000Y-175740000D02*
X546215000Y-175740000D01*
D23*
X423605000Y-169025000D02*
X423605000Y-172750000D01*
D25*
X483295000Y-96205000D02*
X482000000Y-97500000D01*
D23*
X537000000Y-204250000D02*
X537000000Y-209725000D01*
D25*
X480000000Y-154500000D02*
X505500000Y-154500000D01*
D23*
X491000000Y-74000000D02*
X488625000Y-76375000D01*
X401000000Y-73420000D02*
X402500000Y-71920000D01*
D24*
X461935000Y-25315000D02*
X462250000Y-25000000D01*
D25*
X504000000Y-117500000D02*
X504000000Y-100000000D01*
D24*
X477830000Y-151250000D02*
X492080000Y-151250000D01*
D23*
X494580000Y-144000000D02*
X487830000Y-144000000D01*
D25*
X558000000Y-49000000D02*
X539000000Y-30000000D01*
D23*
X536905000Y-122250000D02*
X536905000Y-124240000D01*
X394000000Y-83620000D02*
X396540000Y-81080000D01*
D24*
X545000000Y-134500000D02*
X541500000Y-138000000D01*
D25*
X443500000Y-217500000D02*
X443330000Y-217330000D01*
X549580000Y-187000000D02*
X549580000Y-172920000D01*
D23*
X534460000Y-214750000D02*
X526500000Y-214750000D01*
X432580000Y-211250000D02*
X422080000Y-211250000D01*
D25*
X479000000Y-21920000D02*
X501080000Y-21920000D01*
D23*
X523975000Y-162250000D02*
X523975000Y-166500000D01*
D24*
X441160000Y-58910000D02*
X443250000Y-61000000D01*
D25*
X511000000Y-209000000D02*
X512500000Y-207500000D01*
X500575000Y-89075000D02*
X483295000Y-89075000D01*
X485000000Y-215000000D02*
X506000000Y-215000000D01*
D24*
X442500000Y-128000000D02*
X437500000Y-133000000D01*
D25*
X487000000Y-103500000D02*
X479080000Y-103500000D01*
D24*
X431485000Y-101250000D02*
X428750000Y-101250000D01*
D25*
X483295000Y-78915000D02*
X490085000Y-78915000D01*
D24*
X416410000Y-225250000D02*
X421050000Y-225250000D01*
D25*
X454080000Y-91500000D02*
X454000000Y-91580000D01*
D23*
X464717500Y-245282500D02*
X462492500Y-247507500D01*
X537000000Y-183250000D02*
X539725000Y-183250000D01*
D24*
X512492500Y-231007500D02*
X514717500Y-233232500D01*
D23*
X450500000Y-54000000D02*
X474920000Y-54000000D01*
D24*
X462177500Y-231322500D02*
X462492500Y-231007500D01*
D23*
X475055000Y-141000000D02*
X475055000Y-144025000D01*
X525055000Y-139775000D02*
X519580000Y-145250000D01*
D24*
X434750000Y-236500000D02*
X433202500Y-238047500D01*
D25*
X537500000Y-220000000D02*
X538670000Y-221170000D01*
X480000000Y-144340000D02*
X480000000Y-131580000D01*
D23*
X435580000Y-62580000D02*
X438750000Y-62580000D01*
X535225000Y-229000000D02*
X530725000Y-229000000D01*
D25*
X503880000Y-15500000D02*
X500000000Y-19380000D01*
D23*
X456242500Y-249507500D02*
X453992500Y-249507500D01*
D24*
X514500000Y-29975000D02*
X514475000Y-30000000D01*
X438830000Y-161910000D02*
X441240000Y-161910000D01*
D23*
X485475000Y-38000000D02*
X493475000Y-38000000D01*
X421065000Y-183250000D02*
X421065000Y-180015000D01*
D25*
X516500000Y-100500000D02*
X516500000Y-95500000D01*
D23*
X421065000Y-180015000D02*
X422580000Y-178500000D01*
X434090000Y-227240000D02*
X432330000Y-229000000D01*
D25*
X516000000Y-225500000D02*
X528500000Y-238000000D01*
X564500000Y-93905000D02*
X555905000Y-93905000D01*
X498385000Y-91615000D02*
X498500000Y-91500000D01*
D23*
X420970000Y-91970000D02*
X426000000Y-97000000D01*
X438500000Y-193750000D02*
X438830000Y-193420000D01*
X434025000Y-106725000D02*
X432500000Y-108250000D01*
D24*
X531725000Y-204250000D02*
X528225000Y-207750000D01*
D25*
X546805000Y-139945000D02*
X546805000Y-156830000D01*
D23*
X474975000Y-33025000D02*
X472435000Y-35565000D01*
D24*
X416500000Y-143580000D02*
X416500000Y-135000000D01*
X462492500Y-231007500D02*
X482992500Y-231007500D01*
D23*
X409500000Y-103500000D02*
X409420000Y-103580000D01*
D25*
X510500000Y-74500000D02*
X514000000Y-78000000D01*
D24*
X482992500Y-231007500D02*
X493492500Y-231007500D01*
X429080000Y-172750000D02*
X425830000Y-176000000D01*
D25*
X469500000Y-154000000D02*
X469500000Y-181500000D01*
D23*
X435742500Y-240007500D02*
X439742500Y-240007500D01*
D24*
X433000000Y-25000000D02*
X451000000Y-25000000D01*
D23*
X464475000Y-38000000D02*
X464475000Y-39275000D01*
D24*
X462177500Y-236007500D02*
X462177500Y-231322500D01*
X452492500Y-254257500D02*
X464242500Y-254257500D01*
X483015000Y-133000000D02*
X483015000Y-128185000D01*
D25*
X483295000Y-83995000D02*
X481005000Y-83995000D01*
X553000000Y-114500000D02*
X551000000Y-112500000D01*
D24*
X561875000Y-76125000D02*
X564500000Y-76125000D01*
X514500000Y-25000000D02*
X514500000Y-29975000D01*
D23*
X506515000Y-32485000D02*
X503975000Y-35025000D01*
D24*
X438750000Y-58910000D02*
X441160000Y-58910000D01*
D23*
X537000000Y-214750000D02*
X539065000Y-214750000D01*
D24*
X477830000Y-48170000D02*
X477750000Y-48250000D01*
D23*
X529420000Y-21920000D02*
X532000000Y-24500000D01*
D25*
X409500000Y-91260000D02*
X407240000Y-89000000D01*
D23*
X494742500Y-247007500D02*
X487992500Y-247007500D01*
D25*
X475675000Y-86535000D02*
X443035000Y-86535000D01*
D24*
X416330000Y-225170000D02*
X416330000Y-234830000D01*
D23*
X407000000Y-93080000D02*
X407000000Y-101000000D01*
D24*
X523880000Y-101250000D02*
X519395000Y-101250000D01*
D23*
X491000000Y-53000000D02*
X491000000Y-70000000D01*
D25*
X512420000Y-220000000D02*
X512420000Y-214420000D01*
X457000000Y-101660000D02*
X459660000Y-101660000D01*
D24*
X543805000Y-221170000D02*
X541725000Y-221170000D01*
D23*
X403500000Y-76000000D02*
X405920000Y-73580000D01*
X506595000Y-141000000D02*
X506595000Y-142735000D01*
D24*
X416250000Y-31250000D02*
X416250000Y-40750000D01*
D25*
X458000000Y-116000000D02*
X458000000Y-121840000D01*
X405000000Y-85500000D02*
X409420000Y-85500000D01*
D24*
X464242500Y-254257500D02*
X477992500Y-254257500D01*
D23*
X454257500Y-236007500D02*
X454257500Y-238992500D01*
D24*
X541645000Y-104250000D02*
X545895000Y-104250000D01*
D23*
X441177500Y-238572500D02*
X441177500Y-236007500D01*
D24*
X492000000Y-48250000D02*
X505750000Y-48250000D01*
X546215000Y-175740000D02*
X546225000Y-175750000D01*
X443000000Y-104250000D02*
X443250000Y-104500000D01*
D25*
X482000000Y-97500000D02*
X479080000Y-97500000D01*
X558000000Y-128750000D02*
X546805000Y-139945000D01*
D24*
X521725000Y-225250000D02*
X523945000Y-225250000D01*
D23*
X530475000Y-149000000D02*
X525225000Y-149000000D01*
X396540000Y-76000000D02*
X397500000Y-76000000D01*
D24*
X443160000Y-203580000D02*
X443330000Y-203750000D01*
D25*
X460000000Y-76750000D02*
X464705000Y-81455000D01*
D24*
X431565000Y-204250000D02*
X428830000Y-204250000D01*
X451717500Y-236007500D02*
X451717500Y-231482500D01*
D23*
X521660000Y-85500000D02*
X537000000Y-85500000D01*
D24*
X491992500Y-249507500D02*
X491992500Y-254007500D01*
D23*
X523975000Y-166500000D02*
X526500000Y-169025000D01*
D24*
X546165000Y-76125000D02*
X561875000Y-76125000D01*
D25*
X498160000Y-66500000D02*
X515000000Y-66500000D01*
D23*
X420985000Y-109265000D02*
X420985000Y-111750000D01*
D25*
X479080000Y-100500000D02*
X503500000Y-100500000D01*
D23*
X517257500Y-242492500D02*
X519742500Y-240007500D01*
D25*
X446500000Y-55500000D02*
X445000000Y-54000000D01*
D24*
X428830000Y-204250000D02*
X425330000Y-207750000D01*
D25*
X394000000Y-88700000D02*
X401800000Y-88700000D01*
D24*
X505822500Y-249507500D02*
X505822500Y-254087500D01*
D23*
X442500000Y-46000000D02*
X450500000Y-54000000D01*
D24*
X443330000Y-203750000D02*
X443330000Y-207500000D01*
D23*
X403080000Y-81080000D02*
X404920000Y-82920000D01*
D24*
X433040000Y-134460000D02*
X433040000Y-137000000D01*
X438750000Y-104250000D02*
X443000000Y-104250000D01*
X519145000Y-101500000D02*
X519145000Y-104250000D01*
D25*
X558000000Y-79000000D02*
X558620000Y-79000000D01*
D24*
X464080000Y-151250000D02*
X477830000Y-151250000D01*
D25*
X522580000Y-188500000D02*
X531500000Y-188500000D01*
X458000000Y-135000000D02*
X460000000Y-137000000D01*
X496000000Y-56000000D02*
X495500000Y-56500000D01*
D23*
X537015000Y-162250000D02*
X537015000Y-164040000D01*
D25*
X467500000Y-59500000D02*
X460000000Y-67000000D01*
D23*
X505242500Y-247257500D02*
X501492500Y-247257500D01*
D24*
X519725000Y-207750000D02*
X519225000Y-207250000D01*
D25*
X541485000Y-86500000D02*
X541645000Y-86660000D01*
X555000000Y-80920000D02*
X553840000Y-80920000D01*
D23*
X514555000Y-138025000D02*
X514555000Y-141000000D01*
X536920000Y-80250000D02*
X539645000Y-80250000D01*
X409000000Y-53500000D02*
X411420000Y-51080000D01*
X523865000Y-96365000D02*
X526420000Y-98920000D01*
D24*
X519475000Y-204250000D02*
X519225000Y-204500000D01*
X546225000Y-175750000D02*
X546225000Y-190000000D01*
X546145000Y-87000000D02*
X546145000Y-100750000D01*
D23*
X421080000Y-166500000D02*
X423605000Y-169025000D01*
D24*
X425830000Y-176000000D02*
X416330000Y-176000000D01*
D23*
X506595000Y-133000000D02*
X506595000Y-135485000D01*
D25*
X457000000Y-71340000D02*
X457000000Y-58000000D01*
D24*
X440910000Y-221170000D02*
X438830000Y-221170000D01*
D23*
X454015000Y-32985000D02*
X451475000Y-35525000D01*
D24*
X528225000Y-207750000D02*
X519725000Y-207750000D01*
D25*
X471250000Y-211750000D02*
X465500000Y-217500000D01*
X465500000Y-70000000D02*
X465500000Y-74250000D01*
X413000000Y-54000000D02*
X413000000Y-122500000D01*
D24*
X523880000Y-69750000D02*
X519395000Y-69750000D01*
D23*
X423510000Y-90750000D02*
X431470000Y-90750000D01*
X428750000Y-40750000D02*
X428750000Y-44750000D01*
D25*
X460500000Y-81420000D02*
X458080000Y-79000000D01*
X466415000Y-78915000D02*
X475675000Y-78915000D01*
D23*
X519580000Y-137000000D02*
X522515000Y-137000000D01*
D24*
X493475000Y-30000000D02*
X493475000Y-25225000D01*
D25*
X492000000Y-96580000D02*
X488920000Y-96580000D01*
D24*
X491830000Y-146500000D02*
X491830000Y-151000000D01*
D25*
X445000000Y-54000000D02*
X423160000Y-54000000D01*
D24*
X491750000Y-48000000D02*
X492000000Y-48250000D01*
D23*
X458000000Y-41500000D02*
X456000000Y-43500000D01*
D24*
X463990000Y-146500000D02*
X463990000Y-151160000D01*
D25*
X461500000Y-103500000D02*
X468920000Y-103500000D01*
D24*
X509420000Y-149660000D02*
X509420000Y-146500000D01*
X523960000Y-204250000D02*
X519475000Y-204250000D01*
X519145000Y-118145000D02*
X519145000Y-119750000D01*
X507830000Y-151250000D02*
X509420000Y-149660000D01*
D23*
X443717500Y-244007500D02*
X443717500Y-248032500D01*
D24*
X482750000Y-25000000D02*
X493250000Y-25000000D01*
D25*
X558620000Y-79000000D02*
X560500000Y-80880000D01*
D24*
X529105000Y-40750000D02*
X527750000Y-40750000D01*
D23*
X434120000Y-164040000D02*
X435660000Y-165580000D01*
X536935000Y-61040000D02*
X538475000Y-62580000D01*
X532000000Y-34000000D02*
X549000000Y-51000000D01*
D25*
X488000000Y-63000000D02*
X468500000Y-63000000D01*
D24*
X426290000Y-143750000D02*
X416330000Y-143750000D01*
D25*
X508235000Y-254500000D02*
X507992500Y-254257500D01*
D24*
X450322500Y-249507500D02*
X450322500Y-252087500D01*
D25*
X492455000Y-81455000D02*
X495000000Y-84000000D01*
D24*
X429000000Y-69750000D02*
X425750000Y-73000000D01*
D23*
X454015000Y-30000000D02*
X454015000Y-32985000D01*
D25*
X511000000Y-135080000D02*
X511000000Y-143500000D01*
D23*
X531750000Y-233250000D02*
X539805000Y-233250000D01*
X394000000Y-81080000D02*
X396580000Y-81080000D01*
D24*
X461750000Y-151250000D02*
X464080000Y-151250000D01*
D23*
X496257500Y-244007500D02*
X496257500Y-245492500D01*
D24*
X462330000Y-128000000D02*
X482830000Y-128000000D01*
X416330000Y-225170000D02*
X416410000Y-225250000D01*
D23*
X434025000Y-48750000D02*
X438750000Y-48750000D01*
X539000000Y-83500000D02*
X541920000Y-83500000D01*
X411420000Y-51080000D02*
X411420000Y-35500000D01*
D25*
X526660000Y-95500000D02*
X538420000Y-95500000D01*
D23*
X512500000Y-48500000D02*
X512500000Y-42500000D01*
D24*
X526475000Y-143750000D02*
X528920000Y-141305000D01*
D25*
X403000000Y-91240000D02*
X393740000Y-91240000D01*
X516000000Y-224500000D02*
X516000000Y-225500000D01*
D23*
X506515000Y-30000000D02*
X506515000Y-32485000D01*
X562205000Y-83500000D02*
X564500000Y-81205000D01*
D24*
X477830000Y-43500000D02*
X477830000Y-48170000D01*
D25*
X515920000Y-65580000D02*
X515920000Y-54000000D01*
X450080000Y-96500000D02*
X458000000Y-96500000D01*
D23*
X537000000Y-209725000D02*
X535475000Y-211250000D01*
X534460000Y-183250000D02*
X526500000Y-183250000D01*
D25*
X392288000Y-93780000D02*
X394000000Y-93780000D01*
D24*
X545000000Y-125500000D02*
X545000000Y-134500000D01*
D25*
X443035000Y-86535000D02*
X442910000Y-86660000D01*
D24*
X528920000Y-141305000D02*
X528920000Y-138000000D01*
X442990000Y-189660000D02*
X443330000Y-190000000D01*
X451242500Y-231007500D02*
X462492500Y-231007500D01*
D23*
X536905000Y-124240000D02*
X535145000Y-126000000D01*
X525217500Y-240007500D02*
X525217500Y-242782500D01*
X526405000Y-90750000D02*
X534365000Y-90750000D01*
D25*
X475560000Y-91500000D02*
X475675000Y-91615000D01*
D23*
X436170000Y-214750000D02*
X438830000Y-217410000D01*
X428830000Y-143750000D02*
X428830000Y-147750000D01*
D24*
X432500000Y-135000000D02*
X429080000Y-135000000D01*
D25*
X558055000Y-91365000D02*
X558000000Y-91420000D01*
D23*
X485492500Y-249507500D02*
X481832500Y-249507500D01*
D24*
X421065000Y-172750000D02*
X416580000Y-172750000D01*
D23*
X423540000Y-59250000D02*
X431500000Y-59250000D01*
D25*
X454000000Y-81420000D02*
X456920000Y-81420000D01*
X455500000Y-56500000D02*
X453080000Y-56500000D01*
D23*
X426235000Y-127515000D02*
X426235000Y-130250000D01*
D24*
X416330000Y-176000000D02*
X416330000Y-204500000D01*
X526475000Y-143750000D02*
X519225000Y-151000000D01*
X420985000Y-101250000D02*
X416500000Y-101250000D01*
X443240000Y-72740000D02*
X443250000Y-72750000D01*
X541645000Y-72740000D02*
X546135000Y-72740000D01*
D23*
X536985000Y-193750000D02*
X541395000Y-193750000D01*
D24*
X421065000Y-204250000D02*
X416580000Y-204250000D01*
D23*
X483015000Y-137815000D02*
X483015000Y-141000000D01*
X517015000Y-36485000D02*
X519500000Y-34000000D01*
X539725000Y-130250000D02*
X541645000Y-128330000D01*
X501330000Y-144250000D02*
X499080000Y-146500000D01*
D24*
X541645000Y-100580000D02*
X545975000Y-100580000D01*
D23*
X454095000Y-133000000D02*
X454095000Y-135985000D01*
D25*
X514500000Y-120000000D02*
X544135000Y-149635000D01*
D23*
X451475000Y-35525000D02*
X451475000Y-38000000D01*
D25*
X516500000Y-90500000D02*
X514500000Y-92500000D01*
D23*
X475055000Y-144025000D02*
X472580000Y-146500000D01*
X431565000Y-214750000D02*
X423605000Y-214750000D01*
X501250000Y-41250000D02*
X499000000Y-43500000D01*
X523960000Y-180540000D02*
X525000000Y-179500000D01*
X485250000Y-43500000D02*
X481590000Y-43500000D01*
D25*
X488500000Y-105000000D02*
X487000000Y-103500000D01*
D24*
X545885000Y-189660000D02*
X546225000Y-190000000D01*
D23*
X485717500Y-236007500D02*
X485717500Y-238282500D01*
D24*
X462015000Y-128315000D02*
X462330000Y-128000000D01*
D25*
X526080000Y-54000000D02*
X543000000Y-54000000D01*
D23*
X561500000Y-83500000D02*
X562205000Y-83500000D01*
X517095000Y-133000000D02*
X517095000Y-135485000D01*
X537000000Y-151750000D02*
X541725000Y-151750000D01*
X536985000Y-225250000D02*
X536985000Y-227240000D01*
D24*
X417080000Y-120920000D02*
X417250000Y-120750000D01*
X464152500Y-249507500D02*
X464152500Y-254167500D01*
D25*
X522580000Y-220000000D02*
X537500000Y-220000000D01*
D23*
X456080000Y-146500000D02*
X453830000Y-146500000D01*
X531725000Y-147750000D02*
X530475000Y-149000000D01*
D24*
X443330000Y-164000000D02*
X443330000Y-175750000D01*
D25*
X459660000Y-101660000D02*
X461500000Y-103500000D01*
D23*
X534380000Y-111750000D02*
X526420000Y-111750000D01*
X485555000Y-135275000D02*
X483015000Y-137815000D01*
X503975000Y-35025000D02*
X503975000Y-38000000D01*
X564255000Y-83500000D02*
X564500000Y-83745000D01*
X423605000Y-151750000D02*
X431565000Y-151750000D01*
D25*
X500000000Y-37920000D02*
X500000000Y-34620000D01*
X475675000Y-89075000D02*
X448425000Y-89075000D01*
D24*
X441240000Y-161910000D02*
X443330000Y-164000000D01*
X477750000Y-48250000D02*
X492000000Y-48250000D01*
D23*
X454015000Y-38000000D02*
X461935000Y-38000000D01*
D25*
X495500000Y-56500000D02*
X495500000Y-76340000D01*
D24*
X493492500Y-231007500D02*
X512492500Y-231007500D01*
D23*
X434025000Y-111750000D02*
X436090000Y-111750000D01*
D24*
X451555000Y-133000000D02*
X451555000Y-128475000D01*
D23*
X523865000Y-90750000D02*
X523865000Y-96365000D01*
X464475000Y-30000000D02*
X472435000Y-30000000D01*
X432250000Y-75500000D02*
X434025000Y-73725000D01*
X523895000Y-59250000D02*
X523895000Y-63500000D01*
X526515000Y-162250000D02*
X534475000Y-162250000D01*
X501492500Y-247257500D02*
X499242500Y-249507500D01*
X517015000Y-30000000D02*
X517015000Y-32485000D01*
X423590000Y-225250000D02*
X431550000Y-225250000D01*
X523880000Y-77015000D02*
X525395000Y-75500000D01*
D24*
X514500000Y-25000000D02*
X525000000Y-25000000D01*
X416250000Y-73000000D02*
X416250000Y-101500000D01*
D23*
X517015000Y-32485000D02*
X514475000Y-35025000D01*
D25*
X446500000Y-82500000D02*
X446500000Y-55500000D01*
X461250000Y-200000000D02*
X461250000Y-151750000D01*
D23*
X496095000Y-142485000D02*
X494580000Y-144000000D01*
D24*
X443250000Y-87000000D02*
X443250000Y-100750000D01*
D25*
X515000000Y-66500000D02*
X515920000Y-65580000D01*
D23*
X523895000Y-63500000D02*
X526420000Y-66025000D01*
D25*
X539000000Y-23000000D02*
X531500000Y-15500000D01*
D23*
X443475000Y-42025000D02*
X442000000Y-43500000D01*
D25*
X480000000Y-121420000D02*
X500080000Y-121420000D01*
D23*
X434025000Y-80250000D02*
X436750000Y-80250000D01*
X472435000Y-35565000D02*
X472435000Y-38000000D01*
D24*
X529185000Y-143750000D02*
X526475000Y-143750000D01*
X505750000Y-48250000D02*
X507750000Y-48250000D01*
D23*
X536985000Y-227240000D02*
X535225000Y-229000000D01*
X517095000Y-139485000D02*
X519580000Y-137000000D01*
D25*
X543000000Y-54000000D02*
X544055000Y-55055000D01*
D24*
X545000000Y-125500000D02*
X537645000Y-118145000D01*
D23*
X541315000Y-90750000D02*
X541645000Y-90420000D01*
X428855000Y-233250000D02*
X436910000Y-233250000D01*
X434010000Y-122250000D02*
X434010000Y-124240000D01*
D25*
X469000000Y-66500000D02*
X465500000Y-70000000D01*
X553000000Y-169500000D02*
X553000000Y-140000000D01*
D24*
X546145000Y-112645000D02*
X546145000Y-115750000D01*
D25*
X498160000Y-56000000D02*
X496000000Y-56000000D01*
D23*
X496015000Y-30000000D02*
X503975000Y-30000000D01*
X432840000Y-116500000D02*
X440840000Y-124500000D01*
X526420000Y-48750000D02*
X534380000Y-48750000D01*
D25*
X455500000Y-113500000D02*
X458000000Y-116000000D01*
X514500000Y-92500000D02*
X514500000Y-120000000D01*
X462000000Y-100500000D02*
X468920000Y-100500000D01*
X528500000Y-238000000D02*
X528500000Y-251500000D01*
D24*
X440830000Y-118170000D02*
X438750000Y-118170000D01*
D23*
X506515000Y-38000000D02*
X506515000Y-39735000D01*
D24*
X451717500Y-231482500D02*
X451242500Y-231007500D01*
D25*
X555000000Y-93000000D02*
X555000000Y-91080000D01*
D24*
X521645000Y-122250000D02*
X523865000Y-122250000D01*
D25*
X555905000Y-93905000D02*
X555000000Y-93000000D01*
D23*
X472677500Y-241572500D02*
X472677500Y-244007500D01*
X421080000Y-162250000D02*
X421080000Y-166500000D01*
X438420000Y-90750000D02*
X438750000Y-90420000D01*
X498080000Y-52000000D02*
X509000000Y-52000000D01*
D24*
X534380000Y-69750000D02*
X531895000Y-69750000D01*
X452250000Y-48250000D02*
X464000000Y-48250000D01*
X451475000Y-25475000D02*
X451000000Y-25000000D01*
X546225000Y-207500000D02*
X546225000Y-218750000D01*
D23*
X519580000Y-145250000D02*
X519580000Y-146500000D01*
D24*
X482830000Y-128000000D02*
X493330000Y-128000000D01*
D23*
X504055000Y-138025000D02*
X504055000Y-141000000D01*
D24*
X505580000Y-48080000D02*
X505750000Y-48250000D01*
X416250000Y-104250000D02*
X416250000Y-119750000D01*
D23*
X536920000Y-101250000D02*
X536920000Y-106725000D01*
D24*
X491830000Y-151000000D02*
X492080000Y-151250000D01*
D25*
X533000000Y-187000000D02*
X539420000Y-187000000D01*
D24*
X451242500Y-231007500D02*
X442492500Y-231007500D01*
D25*
X531500000Y-15500000D02*
X503880000Y-15500000D01*
D24*
X509340000Y-46660000D02*
X509340000Y-43500000D01*
D23*
X436090000Y-111750000D02*
X438750000Y-114410000D01*
X517257500Y-238492500D02*
X514717500Y-241032500D01*
X432500000Y-108250000D02*
X422000000Y-108250000D01*
D25*
X465500000Y-217500000D02*
X443500000Y-217500000D01*
X544055000Y-55055000D02*
X544055000Y-58910000D01*
X504000000Y-92500000D02*
X500575000Y-89075000D01*
D24*
X546225000Y-218750000D02*
X543805000Y-221170000D01*
X493475000Y-25225000D02*
X493250000Y-25000000D01*
D23*
X523960000Y-212265000D02*
X523960000Y-214750000D01*
X423510000Y-122250000D02*
X431470000Y-122250000D01*
D25*
X510500000Y-69500000D02*
X510500000Y-74500000D01*
D23*
X428830000Y-147750000D02*
X427580000Y-149000000D01*
D25*
X549160000Y-90340000D02*
X550675000Y-88825000D01*
D24*
X452330000Y-151250000D02*
X461750000Y-151250000D01*
X546145000Y-104500000D02*
X546145000Y-112645000D01*
D23*
X506757500Y-244007500D02*
X506757500Y-245742500D01*
D24*
X482935000Y-30000000D02*
X482935000Y-25185000D01*
D23*
X487992500Y-247007500D02*
X485492500Y-249507500D01*
D24*
X493250000Y-25000000D02*
X514500000Y-25000000D01*
D23*
X434090000Y-193750000D02*
X438500000Y-193750000D01*
X536920000Y-73725000D02*
X536920000Y-69750000D01*
D24*
X546145000Y-76145000D02*
X546165000Y-76125000D01*
D25*
X512500000Y-91210000D02*
X512500000Y-123420000D01*
X463000000Y-68500000D02*
X463000000Y-75500000D01*
D23*
X428750000Y-44750000D02*
X427500000Y-46000000D01*
X535395000Y-108250000D02*
X524895000Y-108250000D01*
X431485000Y-80250000D02*
X423525000Y-80250000D01*
X443555000Y-141000000D02*
X443555000Y-145025000D01*
X442242500Y-249507500D02*
X440162500Y-249507500D01*
D25*
X558000000Y-101580000D02*
X558000000Y-128750000D01*
D23*
X504217500Y-241032500D02*
X504217500Y-244007500D01*
D24*
X512330000Y-128000000D02*
X514555000Y-130225000D01*
X519475000Y-172750000D02*
X519225000Y-172500000D01*
D23*
X539065000Y-214750000D02*
X541725000Y-217410000D01*
D25*
X549160000Y-95500000D02*
X549160000Y-90340000D01*
D24*
X528145000Y-104750000D02*
X519645000Y-104750000D01*
D23*
X443717500Y-248032500D02*
X442242500Y-249507500D01*
D24*
X450160000Y-146500000D02*
X450160000Y-149080000D01*
D23*
X496257500Y-245492500D02*
X494742500Y-247007500D01*
D25*
X490085000Y-78915000D02*
X493500000Y-75500000D01*
D23*
X436910000Y-233250000D02*
X438830000Y-231330000D01*
X422330000Y-149000000D02*
X421065000Y-150265000D01*
X434105000Y-183250000D02*
X436830000Y-183250000D01*
X526500000Y-199775000D02*
X526500000Y-204250000D01*
D25*
X496250000Y-182750000D02*
X496250000Y-200000000D01*
X482500000Y-56000000D02*
X479500000Y-53000000D01*
X442920000Y-56500000D02*
X419000000Y-56500000D01*
D24*
X416500000Y-120920000D02*
X417080000Y-120920000D01*
X416330000Y-204500000D02*
X416330000Y-207250000D01*
D25*
X476250000Y-200000000D02*
X476250000Y-206250000D01*
D23*
X464717500Y-244007500D02*
X464717500Y-245282500D01*
D24*
X433040000Y-134460000D02*
X432500000Y-135000000D01*
D23*
X530645000Y-126000000D02*
X529130000Y-127515000D01*
D24*
X493555000Y-128225000D02*
X493330000Y-128000000D01*
X438830000Y-203580000D02*
X443160000Y-203580000D01*
D23*
X442000000Y-43500000D02*
X439920000Y-43500000D01*
X434025000Y-73725000D02*
X434025000Y-69750000D01*
X462250000Y-41500000D02*
X458000000Y-41500000D01*
X517257500Y-236007500D02*
X517257500Y-238492500D01*
X475217500Y-236007500D02*
X475217500Y-239032500D01*
X454095000Y-141000000D02*
X462015000Y-141000000D01*
D25*
X531500000Y-188500000D02*
X533000000Y-187000000D01*
D24*
X519145000Y-69500000D02*
X519145000Y-73000000D01*
D23*
X532000000Y-24500000D02*
X532000000Y-34000000D01*
D25*
X549580000Y-172920000D02*
X553000000Y-169500000D01*
D23*
X552080000Y-83500000D02*
X561500000Y-83500000D01*
D24*
X463990000Y-151160000D02*
X464080000Y-151250000D01*
D23*
X512500000Y-42500000D02*
X510500000Y-40500000D01*
X526485000Y-225250000D02*
X534445000Y-225250000D01*
X431565000Y-183250000D02*
X423605000Y-183250000D01*
D25*
X512500000Y-123420000D02*
X511000000Y-124920000D01*
X479500000Y-53000000D02*
X479500000Y-51080000D01*
D23*
X421050000Y-193750000D02*
X421050000Y-197220000D01*
D25*
X419580000Y-96500000D02*
X421920000Y-96500000D01*
D23*
X526405000Y-122250000D02*
X534365000Y-122250000D01*
X419580000Y-116500000D02*
X432840000Y-116500000D01*
D24*
X451555000Y-128475000D02*
X451080000Y-128000000D01*
X416250000Y-69500000D02*
X416250000Y-73000000D01*
D23*
X396580000Y-81080000D02*
X403080000Y-81080000D01*
X451555000Y-138525000D02*
X451555000Y-141000000D01*
D24*
X477910000Y-146500000D02*
X477910000Y-151170000D01*
D23*
X490000000Y-52000000D02*
X491000000Y-53000000D01*
X519500000Y-42250000D02*
X519500000Y-43500000D01*
D24*
X477992500Y-254257500D02*
X492242500Y-254257500D01*
D23*
X523945000Y-193750000D02*
X523945000Y-197220000D01*
D25*
X486250000Y-200000000D02*
X486250000Y-206750000D01*
D24*
X519225000Y-176000000D02*
X519225000Y-204500000D01*
X519145000Y-73000000D02*
X519145000Y-101500000D01*
D23*
X422080000Y-211250000D02*
X421065000Y-212265000D01*
D25*
X466250000Y-184750000D02*
X466250000Y-200000000D01*
D23*
X394000000Y-86160000D02*
X398420000Y-86160000D01*
D24*
X505992500Y-254257500D02*
X507992500Y-254257500D01*
D25*
X493500000Y-49000000D02*
X491750000Y-47250000D01*
D23*
X424250000Y-101250000D02*
X423525000Y-101250000D01*
D24*
X507992500Y-254257500D02*
X509582500Y-252667500D01*
D25*
X530500000Y-18500000D02*
X535500000Y-23500000D01*
D23*
X506515000Y-39735000D02*
X505000000Y-41250000D01*
D24*
X422500000Y-25000000D02*
X416250000Y-31250000D01*
D25*
X504500000Y-18500000D02*
X530500000Y-18500000D01*
D23*
X485717500Y-238282500D02*
X483177500Y-240822500D01*
D25*
X491250000Y-200000000D02*
X491250000Y-171250000D01*
X453500000Y-113500000D02*
X455500000Y-113500000D01*
D23*
X451000000Y-124500000D02*
X475850000Y-124500000D01*
X458242500Y-247507500D02*
X456242500Y-249507500D01*
D25*
X516500000Y-76160000D02*
X516500000Y-90500000D01*
D23*
X499000000Y-43500000D02*
X495420000Y-43500000D01*
X474975000Y-41025000D02*
X472500000Y-43500000D01*
X526420000Y-66025000D02*
X526420000Y-69750000D01*
D24*
X519225000Y-172500000D02*
X519225000Y-176000000D01*
X493717500Y-236007500D02*
X493717500Y-231232500D01*
D25*
X498160000Y-63000000D02*
X513500000Y-63000000D01*
D23*
X423590000Y-193750000D02*
X431550000Y-193750000D01*
X550285000Y-86285000D02*
X549000000Y-85000000D01*
D24*
X519145000Y-104250000D02*
X519145000Y-116855000D01*
X433000000Y-25000000D02*
X422500000Y-25000000D01*
D25*
X446500000Y-91000000D02*
X446500000Y-128000000D01*
D24*
X537645000Y-118145000D02*
X519145000Y-118145000D01*
D23*
X509500000Y-87500000D02*
X511500000Y-85500000D01*
X443475000Y-30000000D02*
X443475000Y-33775000D01*
D25*
X452580000Y-79000000D02*
X450080000Y-81500000D01*
D23*
X485330000Y-146500000D02*
X481670000Y-146500000D01*
X434040000Y-61040000D02*
X435580000Y-62580000D01*
D24*
X438830000Y-175740000D02*
X443320000Y-175740000D01*
D23*
X487830000Y-144000000D02*
X485330000Y-146500000D01*
D24*
X531895000Y-69750000D02*
X528645000Y-73000000D01*
D23*
X423605000Y-199775000D02*
X423605000Y-204250000D01*
D25*
X512500000Y-188580000D02*
X512420000Y-188500000D01*
D24*
X507750000Y-48250000D02*
X509340000Y-46660000D01*
D23*
X421065000Y-150265000D02*
X421065000Y-151750000D01*
X487920000Y-52000000D02*
X490000000Y-52000000D01*
D24*
X431565000Y-172750000D02*
X429080000Y-172750000D01*
D25*
X460500000Y-91580000D02*
X460500000Y-94500000D01*
D23*
X472515000Y-138565000D02*
X472515000Y-141000000D01*
X402500000Y-61000000D02*
X403000000Y-60500000D01*
X487750000Y-41000000D02*
X485250000Y-43500000D01*
D25*
X479000000Y-32080000D02*
X479000000Y-40420000D01*
X514000000Y-78000000D02*
X514000000Y-89710000D01*
D24*
X546135000Y-72740000D02*
X546145000Y-72750000D01*
D25*
X488500000Y-209000000D02*
X511000000Y-209000000D01*
X435920000Y-85500000D02*
X419580000Y-85500000D01*
D24*
X528725000Y-176000000D02*
X519225000Y-176000000D01*
D25*
X413000000Y-122500000D02*
X443330000Y-152830000D01*
D23*
X505080000Y-144250000D02*
X501330000Y-144250000D01*
D24*
X464000000Y-48250000D02*
X477750000Y-48250000D01*
D23*
X427500000Y-46000000D02*
X422250000Y-46000000D01*
D24*
X514555000Y-130225000D02*
X514555000Y-133000000D01*
D25*
X405240000Y-89000000D02*
X403000000Y-91240000D01*
D23*
X427830000Y-229000000D02*
X426315000Y-230515000D01*
D24*
X541500000Y-138000000D02*
X539080000Y-138000000D01*
X531975000Y-172750000D02*
X528725000Y-176000000D01*
D23*
X514475000Y-35025000D02*
X514475000Y-38000000D01*
X428000000Y-35500000D02*
X438500000Y-46000000D01*
D24*
X534380000Y-101250000D02*
X531645000Y-101250000D01*
D23*
X443717500Y-239782500D02*
X441177500Y-242322500D01*
D25*
X457000000Y-58000000D02*
X455500000Y-56500000D01*
D23*
X539805000Y-233250000D02*
X541725000Y-231330000D01*
D25*
X503500000Y-100500000D02*
X504000000Y-100000000D01*
X553840000Y-80920000D02*
X552500000Y-79580000D01*
D23*
X523960000Y-183250000D02*
X523960000Y-180540000D01*
D25*
X395000000Y-69500000D02*
X391508000Y-72992000D01*
D23*
X454095000Y-135985000D02*
X451555000Y-138525000D01*
D25*
X509000000Y-180500000D02*
X509000000Y-182000000D01*
X471250000Y-200000000D02*
X471250000Y-211750000D01*
X469500000Y-181500000D02*
X466250000Y-184750000D01*
D24*
X505660000Y-151080000D02*
X505830000Y-151250000D01*
D25*
X483295000Y-91615000D02*
X498385000Y-91615000D01*
D23*
X432330000Y-229000000D02*
X427830000Y-229000000D01*
D25*
X504000000Y-100000000D02*
X504000000Y-92500000D01*
X560500000Y-96120000D02*
X560500000Y-129500000D01*
X488920000Y-96580000D02*
X488500000Y-97000000D01*
X539000000Y-30000000D02*
X539000000Y-23000000D01*
D23*
X474975000Y-30000000D02*
X474975000Y-33025000D01*
X431750000Y-130250000D02*
X433670000Y-128330000D01*
X402500000Y-71920000D02*
X402500000Y-61000000D01*
D24*
X443080000Y-100580000D02*
X443250000Y-100750000D01*
X450080000Y-46080000D02*
X452250000Y-48250000D01*
D25*
X391508000Y-72992000D02*
X391508000Y-93000000D01*
X408920000Y-69160000D02*
X408580000Y-69500000D01*
X447995000Y-83995000D02*
X446500000Y-82500000D01*
D24*
X478072500Y-249507500D02*
X478072500Y-254177500D01*
X491750000Y-43500000D02*
X491750000Y-47250000D01*
X492080000Y-151250000D02*
X505830000Y-151250000D01*
X543725000Y-118170000D02*
X541645000Y-118170000D01*
X519145000Y-48000000D02*
X519145000Y-67145000D01*
X546145000Y-72750000D02*
X546145000Y-76145000D01*
X519225000Y-204500000D02*
X519225000Y-207250000D01*
X443250000Y-72750000D02*
X443250000Y-87000000D01*
D23*
X475217500Y-247032500D02*
X472742500Y-249507500D01*
D25*
X419000000Y-66420000D02*
X419080000Y-66500000D01*
D24*
X438750000Y-100580000D02*
X443080000Y-100580000D01*
D25*
X486500000Y-211500000D02*
X481250000Y-206250000D01*
D23*
X432250000Y-126000000D02*
X427750000Y-126000000D01*
X462492500Y-247507500D02*
X458242500Y-247507500D01*
D25*
X538670000Y-221170000D02*
X541725000Y-221170000D01*
X508000000Y-157000000D02*
X512420000Y-157000000D01*
D23*
X535475000Y-211250000D02*
X524975000Y-211250000D01*
D24*
X528000000Y-28000000D02*
X528000000Y-40500000D01*
D23*
X525000000Y-179500000D02*
X535500000Y-179500000D01*
D25*
X469500000Y-139000000D02*
X469500000Y-143840000D01*
D23*
X428775000Y-130250000D02*
X431750000Y-130250000D01*
D25*
X460000000Y-67000000D02*
X460000000Y-76750000D01*
X456920000Y-81420000D02*
X457000000Y-81500000D01*
D24*
X546145000Y-76145000D02*
X546145000Y-87000000D01*
D23*
X407000000Y-60500000D02*
X409000000Y-58500000D01*
D25*
X488000000Y-70000000D02*
X491000000Y-70000000D01*
D24*
X437000000Y-236500000D02*
X434750000Y-236500000D01*
X478072500Y-254177500D02*
X477992500Y-254257500D01*
D23*
X517095000Y-135485000D02*
X514555000Y-138025000D01*
X541645000Y-78250000D02*
X541645000Y-76500000D01*
D24*
X442910000Y-86660000D02*
X443250000Y-87000000D01*
D25*
X409420000Y-96500000D02*
X409500000Y-96420000D01*
D23*
X485500000Y-52000000D02*
X487920000Y-52000000D01*
D24*
X443330000Y-207500000D02*
X443330000Y-217330000D01*
D23*
X475850000Y-124500000D02*
X506500000Y-124500000D01*
X524895000Y-108250000D02*
X523880000Y-109265000D01*
X464555000Y-141000000D02*
X464555000Y-142275000D01*
D25*
X522750000Y-156830000D02*
X522580000Y-157000000D01*
X499500000Y-84000000D02*
X506340000Y-90840000D01*
X488500000Y-107160000D02*
X488500000Y-105000000D01*
X506000000Y-215000000D02*
X508000000Y-217000000D01*
D23*
X454257500Y-244007500D02*
X462177500Y-244007500D01*
D24*
X546055000Y-203580000D02*
X546225000Y-203750000D01*
D23*
X439580000Y-137000000D02*
X441015000Y-135565000D01*
D24*
X416250000Y-119750000D02*
X417250000Y-120750000D01*
D23*
X531670000Y-130250000D02*
X539725000Y-130250000D01*
X526485000Y-193750000D02*
X534445000Y-193750000D01*
D24*
X426210000Y-40750000D02*
X416250000Y-40750000D01*
X541725000Y-203580000D02*
X546055000Y-203580000D01*
X416330000Y-143750000D02*
X416500000Y-143580000D01*
X545895000Y-104250000D02*
X546145000Y-104500000D01*
X519395000Y-69750000D02*
X519145000Y-69500000D01*
X432960000Y-25040000D02*
X433000000Y-25000000D01*
D25*
X443330000Y-152830000D02*
X443330000Y-164000000D01*
D23*
X506500000Y-124500000D02*
X509500000Y-121500000D01*
X534380000Y-80250000D02*
X526420000Y-80250000D01*
D24*
X443080000Y-207250000D02*
X443330000Y-207500000D01*
D23*
X435660000Y-165580000D02*
X438830000Y-165580000D01*
D24*
X477910000Y-151170000D02*
X477830000Y-151250000D01*
X451080000Y-128000000D02*
X462330000Y-128000000D01*
D23*
X422250000Y-46000000D02*
X420985000Y-47265000D01*
D25*
X509000000Y-179000000D02*
X509000000Y-180500000D01*
D24*
X519145000Y-116855000D02*
X519145000Y-118145000D01*
D25*
X498500000Y-180500000D02*
X496250000Y-182750000D01*
D24*
X434500000Y-133000000D02*
X433040000Y-134460000D01*
X416250000Y-40750000D02*
X416250000Y-69500000D01*
D25*
X551000000Y-112500000D02*
X546290000Y-112500000D01*
D24*
X420000000Y-238500000D02*
X432750000Y-238500000D01*
D23*
X434040000Y-59250000D02*
X434040000Y-61040000D01*
X538555000Y-165580000D02*
X541725000Y-165580000D01*
D25*
X536500000Y-168500000D02*
X538920000Y-168500000D01*
X493500000Y-75500000D02*
X493500000Y-49000000D01*
D23*
X433670000Y-128330000D02*
X438750000Y-128330000D01*
X421580000Y-35500000D02*
X428000000Y-35500000D01*
X475055000Y-133000000D02*
X475055000Y-136025000D01*
X409000000Y-58500000D02*
X409000000Y-53500000D01*
X485555000Y-133000000D02*
X485555000Y-135275000D01*
D25*
X528500000Y-251500000D02*
X525500000Y-254500000D01*
D23*
X523880000Y-109265000D02*
X523880000Y-111750000D01*
X397500000Y-76000000D02*
X403500000Y-76000000D01*
D24*
X545805000Y-86660000D02*
X546145000Y-87000000D01*
D23*
X485475000Y-30000000D02*
X485475000Y-32275000D01*
D25*
X525500000Y-254500000D02*
X508235000Y-254500000D01*
D23*
X404920000Y-82920000D02*
X407000000Y-82920000D01*
X536905000Y-90750000D02*
X541315000Y-90750000D01*
X496015000Y-38000000D02*
X496015000Y-39485000D01*
X435500000Y-34000000D02*
X439500000Y-34000000D01*
D25*
X488000000Y-59500000D02*
X467500000Y-59500000D01*
D23*
X537000000Y-85500000D02*
X539000000Y-83500000D01*
D25*
X501080000Y-21920000D02*
X504500000Y-18500000D01*
D23*
X434105000Y-151750000D02*
X438830000Y-151750000D01*
D24*
X561960000Y-76125000D02*
X564500000Y-78665000D01*
X534460000Y-172750000D02*
X531975000Y-172750000D01*
D23*
X464717500Y-236007500D02*
X472677500Y-236007500D01*
D24*
X483177500Y-236007500D02*
X483177500Y-231192500D01*
D23*
X538985000Y-111750000D02*
X541645000Y-114410000D01*
D25*
X478845000Y-94155000D02*
X475675000Y-94155000D01*
D23*
X535145000Y-75500000D02*
X536920000Y-73725000D01*
X496257500Y-236007500D02*
X504217500Y-236007500D01*
D24*
X416500000Y-101250000D02*
X416250000Y-101500000D01*
D23*
X426000000Y-97000000D02*
X426000000Y-99500000D01*
D24*
X416500000Y-135000000D02*
X416500000Y-131080000D01*
X443330000Y-218750000D02*
X440910000Y-221170000D01*
D23*
X514717500Y-241032500D02*
X514717500Y-244007500D01*
D25*
X476250000Y-206250000D02*
X485000000Y-215000000D01*
D24*
X438830000Y-189660000D02*
X442990000Y-189660000D01*
D23*
X506595000Y-135485000D02*
X504055000Y-138025000D01*
D24*
X443250000Y-115750000D02*
X440830000Y-118170000D01*
D25*
X512420000Y-214420000D02*
X509500000Y-211500000D01*
D23*
X454257500Y-238992500D02*
X451717500Y-241532500D01*
X420985000Y-80250000D02*
X420985000Y-77015000D01*
D25*
X463000000Y-75500000D02*
X466415000Y-78915000D01*
D23*
X438830000Y-181250000D02*
X438830000Y-179500000D01*
D24*
X493330000Y-128000000D02*
X512330000Y-128000000D01*
X541645000Y-58910000D02*
X544055000Y-58910000D01*
D23*
X426315000Y-230515000D02*
X426315000Y-233250000D01*
D24*
X438830000Y-207250000D02*
X443080000Y-207250000D01*
D23*
X403000000Y-60500000D02*
X407000000Y-60500000D01*
D25*
X419000000Y-56500000D02*
X419000000Y-66420000D01*
D24*
X483015000Y-128185000D02*
X482830000Y-128000000D01*
D23*
X526500000Y-151750000D02*
X534460000Y-151750000D01*
D24*
X482935000Y-25185000D02*
X482750000Y-25000000D01*
X416830000Y-207750000D02*
X416330000Y-207250000D01*
X528645000Y-73000000D02*
X519145000Y-73000000D01*
D23*
X517015000Y-38000000D02*
X517015000Y-36485000D01*
D24*
X443250000Y-61000000D02*
X443250000Y-72750000D01*
X531645000Y-101250000D02*
X528145000Y-104750000D01*
X443330000Y-175750000D02*
X443330000Y-190000000D01*
X450160000Y-149080000D02*
X452330000Y-151250000D01*
D23*
X496095000Y-141000000D02*
X496095000Y-142485000D01*
X475217500Y-244007500D02*
X475217500Y-247032500D01*
D24*
X443250000Y-100750000D02*
X443250000Y-104500000D01*
X541725000Y-207250000D02*
X545975000Y-207250000D01*
D23*
X434010000Y-124240000D02*
X432250000Y-126000000D01*
D24*
X446500000Y-128000000D02*
X442500000Y-128000000D01*
D23*
X438500000Y-46000000D02*
X442500000Y-46000000D01*
D24*
X561875000Y-76125000D02*
X561960000Y-76125000D01*
X416330000Y-172500000D02*
X416330000Y-176000000D01*
D23*
X394000000Y-76000000D02*
X397500000Y-76000000D01*
D24*
X491750000Y-47250000D02*
X491750000Y-48000000D01*
D23*
X431485000Y-111750000D02*
X423525000Y-111750000D01*
X530395000Y-46000000D02*
X525145000Y-46000000D01*
X436830000Y-183250000D02*
X438830000Y-181250000D01*
D25*
X514000000Y-89710000D02*
X512500000Y-91210000D01*
D23*
X531725000Y-143750000D02*
X531725000Y-147750000D01*
X524975000Y-36775000D02*
X519500000Y-42250000D01*
D24*
X546145000Y-115750000D02*
X543725000Y-118170000D01*
D25*
X535500000Y-31500000D02*
X552500000Y-48500000D01*
D24*
X505660000Y-146500000D02*
X505660000Y-151080000D01*
D23*
X525395000Y-75500000D02*
X535145000Y-75500000D01*
D25*
X495000000Y-167500000D02*
X513500000Y-167500000D01*
D23*
X529210000Y-230515000D02*
X529210000Y-233250000D01*
X491000000Y-70000000D02*
X491000000Y-74000000D01*
X541725000Y-181250000D02*
X541725000Y-179500000D01*
D24*
X525000000Y-25000000D02*
X528000000Y-28000000D01*
D23*
X443555000Y-145025000D02*
X442080000Y-146500000D01*
X485717500Y-244007500D02*
X493717500Y-244007500D01*
X422000000Y-108250000D02*
X420985000Y-109265000D01*
D24*
X545975000Y-100580000D02*
X546145000Y-100750000D01*
X417250000Y-120750000D02*
X418750000Y-122250000D01*
D23*
X517257500Y-244007500D02*
X517257500Y-242492500D01*
X434025000Y-101250000D02*
X434025000Y-106725000D01*
D24*
X451000000Y-25000000D02*
X462250000Y-25000000D01*
D23*
X441015000Y-139315000D02*
X441015000Y-141000000D01*
D24*
X464152500Y-254167500D02*
X464242500Y-254257500D01*
X493717500Y-231232500D02*
X493492500Y-231007500D01*
X534460000Y-204250000D02*
X531725000Y-204250000D01*
D25*
X510500000Y-224500000D02*
X516000000Y-224500000D01*
D23*
X561500000Y-83500000D02*
X564255000Y-83500000D01*
D24*
X443320000Y-175740000D02*
X443330000Y-175750000D01*
X483177500Y-231192500D02*
X482992500Y-231007500D01*
X432960000Y-34000000D02*
X432960000Y-25040000D01*
D23*
X536935000Y-59250000D02*
X536935000Y-61040000D01*
D24*
X505580000Y-43500000D02*
X505580000Y-48080000D01*
X416250000Y-101500000D02*
X416250000Y-104250000D01*
D25*
X481250000Y-206250000D02*
X481250000Y-200000000D01*
D23*
X523960000Y-150265000D02*
X523960000Y-151750000D01*
D25*
X479000000Y-40420000D02*
X479500000Y-40920000D01*
D24*
X546225000Y-164000000D02*
X546225000Y-175750000D01*
X416500000Y-69750000D02*
X416250000Y-69500000D01*
X416580000Y-172750000D02*
X416330000Y-172500000D01*
X443330000Y-190000000D02*
X443330000Y-203750000D01*
D23*
X427580000Y-149000000D02*
X422330000Y-149000000D01*
X509500000Y-121500000D02*
X509500000Y-87500000D01*
D24*
X461935000Y-30000000D02*
X461935000Y-25315000D01*
X450322500Y-252087500D02*
X452492500Y-254257500D01*
X519225000Y-222750000D02*
X521725000Y-225250000D01*
D23*
X525217500Y-242782500D02*
X519742500Y-248257500D01*
D25*
X528740000Y-167500000D02*
X535500000Y-167500000D01*
D23*
X536920000Y-106725000D02*
X535395000Y-108250000D01*
D25*
X432080000Y-96500000D02*
X439920000Y-96500000D01*
D23*
X451717500Y-241532500D02*
X451717500Y-244007500D01*
D25*
X458000000Y-132000000D02*
X458000000Y-135000000D01*
D23*
X464555000Y-142275000D02*
X462330000Y-144500000D01*
D24*
X541725000Y-189660000D02*
X545885000Y-189660000D01*
D23*
X510500000Y-21920000D02*
X529420000Y-21920000D01*
D25*
X483295000Y-86535000D02*
X495465000Y-86535000D01*
D24*
X519645000Y-104750000D02*
X519145000Y-104250000D01*
D23*
X539645000Y-80250000D02*
X541645000Y-78250000D01*
X443555000Y-136775000D02*
X441015000Y-139315000D01*
X523880000Y-80250000D02*
X523880000Y-77015000D01*
X523945000Y-197220000D02*
X526500000Y-199775000D01*
D25*
X464705000Y-81455000D02*
X475675000Y-81455000D01*
X550675000Y-88825000D02*
X564500000Y-88825000D01*
X552500000Y-48500000D02*
X552500000Y-69420000D01*
X448425000Y-89075000D02*
X446500000Y-91000000D01*
D23*
X525055000Y-137000000D02*
X525055000Y-139775000D01*
X519742500Y-240007500D02*
X522677500Y-240007500D01*
D25*
X481005000Y-83995000D02*
X479500000Y-85500000D01*
X479500000Y-85500000D02*
X479500000Y-93500000D01*
D24*
X519225000Y-207250000D02*
X519225000Y-222750000D01*
D25*
X483295000Y-94155000D02*
X483295000Y-96205000D01*
D23*
X438750000Y-78250000D02*
X438750000Y-76500000D01*
D25*
X479500000Y-93500000D02*
X478845000Y-94155000D01*
D23*
X436750000Y-80250000D02*
X438750000Y-78250000D01*
D24*
X492242500Y-254257500D02*
X505992500Y-254257500D01*
D23*
X537000000Y-178000000D02*
X537000000Y-172750000D01*
D25*
X506340000Y-90840000D02*
X506340000Y-100500000D01*
X508000000Y-217000000D02*
X508000000Y-222000000D01*
D24*
X509582500Y-252667500D02*
X509582500Y-249507500D01*
D23*
X420985000Y-47265000D02*
X420985000Y-48750000D01*
X434010000Y-90750000D02*
X438420000Y-90750000D01*
D25*
X500080000Y-121420000D02*
X504000000Y-117500000D01*
D24*
X425750000Y-73000000D02*
X416250000Y-73000000D01*
D23*
X538475000Y-62580000D02*
X541645000Y-62580000D01*
D25*
X516000000Y-148500000D02*
X516000000Y-224500000D01*
D23*
X426000000Y-99500000D02*
X424250000Y-101250000D01*
D25*
X549080000Y-140920000D02*
X549080000Y-168500000D01*
D23*
X506757500Y-236007500D02*
X506757500Y-238492500D01*
D24*
X463910000Y-43500000D02*
X463910000Y-48160000D01*
D25*
X468500000Y-63000000D02*
X463000000Y-68500000D01*
X536645000Y-156830000D02*
X522750000Y-156830000D01*
D24*
X545975000Y-207250000D02*
X546225000Y-207500000D01*
X451080000Y-128000000D02*
X446500000Y-128000000D01*
%TD*%
M02*
