%TF.GenerationSoftware,KiCad,Pcbnew,(6.0.6)*%
%TF.CreationDate,2022-09-29T15:29:04+08:00*%
%TF.ProjectId,7SegmentDisplay_DualLine_8Inches,37536567-6d65-46e7-9444-6973706c6179,rev?*%
%TF.SameCoordinates,Original*%
%TF.FileFunction,Soldermask,Top*%
%TF.FilePolarity,Negative*%
%FSLAX46Y46*%
G04 Gerber Fmt 4.6, Leading zero omitted, Abs format (unit mm)*
G04 Created by KiCad (PCBNEW (6.0.6)) date 2022-09-29 15:29:04*
%MOMM*%
%LPD*%
G01*
G04 APERTURE LIST*
%ADD10C,0.900000*%
%ADD11C,8.000000*%
%ADD12R,1.800000X1.800000*%
%ADD13C,1.800000*%
%ADD14C,2.200000*%
%ADD15O,2.200000X2.200000*%
%ADD16C,1.600000*%
%ADD17O,1.600000X1.600000*%
%ADD18R,1.700000X1.700000*%
%ADD19O,1.700000X1.700000*%
%ADD20R,2.400000X1.600000*%
%ADD21O,2.400000X1.600000*%
G04 APERTURE END LIST*
D10*
%TO.C,REF\u002A\u002A*%
X402000000Y-21000000D03*
X396000000Y-21000000D03*
X396878680Y-23121320D03*
D11*
X399000000Y-21000000D03*
D10*
X396878680Y-18878680D03*
X399000000Y-18000000D03*
X401121320Y-23121320D03*
X401121320Y-18878680D03*
X399000000Y-24000000D03*
%TD*%
%TO.C,REF\u002A\u002A*%
X402000000Y-254000000D03*
X396000000Y-254000000D03*
X396878680Y-256121320D03*
D11*
X399000000Y-254000000D03*
D10*
X396878680Y-251878680D03*
X399000000Y-251000000D03*
X401121320Y-256121320D03*
X401121320Y-251878680D03*
X399000000Y-257000000D03*
%TD*%
%TO.C,REF\u002A\u002A*%
X563000000Y-254000000D03*
X557000000Y-254000000D03*
X557878680Y-256121320D03*
D11*
X560000000Y-254000000D03*
D10*
X557878680Y-251878680D03*
X560000000Y-251000000D03*
X562121320Y-256121320D03*
X562121320Y-251878680D03*
X560000000Y-257000000D03*
%TD*%
%TO.C,REF\u002A\u002A*%
X558000000Y-21000000D03*
X563121320Y-18878680D03*
X561000000Y-24000000D03*
X563121320Y-23121320D03*
X558878680Y-23121320D03*
X558878680Y-18878680D03*
X561000000Y-18000000D03*
D11*
X561000000Y-21000000D03*
D10*
X564000000Y-21000000D03*
%TD*%
D12*
%TO.C,REF\u002A\u002A*%
X526515000Y-162250000D03*
D13*
X523975000Y-162250000D03*
%TD*%
D12*
%TO.C,REF\u002A\u002A*%
X464555000Y-141000000D03*
D13*
X462015000Y-141000000D03*
%TD*%
D12*
%TO.C,REF\u002A\u002A*%
X526485000Y-225250000D03*
D13*
X523945000Y-225250000D03*
%TD*%
D12*
%TO.C,REF\u002A\u002A*%
X423605000Y-172750000D03*
D13*
X421065000Y-172750000D03*
%TD*%
D12*
%TO.C,REF\u002A\u002A*%
X435580000Y-137000000D03*
D13*
X433040000Y-137000000D03*
%TD*%
D14*
%TO.C,REF\u002A\u002A*%
X511500000Y-85500000D03*
D15*
X521660000Y-85500000D03*
%TD*%
D12*
%TO.C,REF\u002A\u002A*%
X454095000Y-133000000D03*
D13*
X451555000Y-133000000D03*
%TD*%
D14*
%TO.C,REF\u002A\u002A*%
X488000000Y-70000000D03*
D15*
X498160000Y-70000000D03*
%TD*%
D14*
%TO.C,REF\u002A\u002A*%
X538920000Y-168500000D03*
D15*
X549080000Y-168500000D03*
%TD*%
D16*
%TO.C,REF\u002A\u002A*%
X541645000Y-76500000D03*
D17*
X541645000Y-86660000D03*
%TD*%
D12*
%TO.C,REF\u002A\u002A*%
X525055000Y-137000000D03*
D13*
X522515000Y-137000000D03*
%TD*%
D16*
%TO.C,REF\u002A\u002A*%
X481670000Y-146500000D03*
D17*
X491830000Y-146500000D03*
%TD*%
D16*
%TO.C,REF\u002A\u002A*%
X467670000Y-43500000D03*
D17*
X477830000Y-43500000D03*
%TD*%
D12*
%TO.C,REF\u002A\u002A*%
X496257500Y-236007500D03*
D13*
X493717500Y-236007500D03*
%TD*%
D16*
%TO.C,REF\u002A\u002A*%
X541725000Y-179500000D03*
D17*
X541725000Y-189660000D03*
%TD*%
D16*
%TO.C,REF\u002A\u002A*%
X440162500Y-249507500D03*
D17*
X450322500Y-249507500D03*
%TD*%
D16*
%TO.C,REF\u002A\u002A*%
X438750000Y-48750000D03*
D17*
X438750000Y-58910000D03*
%TD*%
D12*
%TO.C,REF\u002A\u002A*%
X423525000Y-101250000D03*
D13*
X420985000Y-101250000D03*
%TD*%
D12*
%TO.C,REF\u002A\u002A*%
X434105000Y-151750000D03*
D13*
X431565000Y-151750000D03*
%TD*%
D14*
%TO.C,REF\u002A\u002A*%
X418920000Y-135000000D03*
D15*
X429080000Y-135000000D03*
%TD*%
D16*
%TO.C,REF\u002A\u002A*%
X438830000Y-165580000D03*
D17*
X438830000Y-175740000D03*
%TD*%
D16*
%TO.C,REF\u002A\u002A*%
X509340000Y-43500000D03*
D17*
X519500000Y-43500000D03*
%TD*%
D14*
%TO.C,REF\u002A\u002A*%
X513500000Y-167500000D03*
D15*
X528740000Y-167500000D03*
%TD*%
D14*
%TO.C,REF\u002A\u002A*%
X408920000Y-66500000D03*
D15*
X419080000Y-66500000D03*
%TD*%
D16*
%TO.C,REF\u002A\u002A*%
X453830000Y-146500000D03*
D17*
X463990000Y-146500000D03*
%TD*%
D12*
%TO.C,REF\u002A\u002A*%
X485555000Y-133000000D03*
D13*
X483015000Y-133000000D03*
%TD*%
D12*
%TO.C,REF\u002A\u002A*%
X423525000Y-80250000D03*
D13*
X420985000Y-80250000D03*
%TD*%
D12*
%TO.C,REF\u002A\u002A*%
X423605000Y-204250000D03*
D13*
X421065000Y-204250000D03*
%TD*%
D12*
%TO.C,REF\u002A\u002A*%
X526405000Y-90750000D03*
D13*
X523865000Y-90750000D03*
%TD*%
D12*
%TO.C,REF\u002A\u002A*%
X454015000Y-30000000D03*
D13*
X451475000Y-30000000D03*
%TD*%
D16*
%TO.C,REF\u002A\u002A*%
X438750000Y-118170000D03*
D17*
X438750000Y-128330000D03*
%TD*%
D16*
%TO.C,REF\u002A\u002A*%
X541725000Y-193420000D03*
D17*
X541725000Y-203580000D03*
%TD*%
D18*
%TO.C,REF\u002A\u002A*%
X394000000Y-76000000D03*
D19*
X394000000Y-78540000D03*
X394000000Y-81080000D03*
X394000000Y-83620000D03*
X394000000Y-86160000D03*
X394000000Y-88700000D03*
X394000000Y-91240000D03*
X394000000Y-93780000D03*
%TD*%
D12*
%TO.C,REF\u002A\u002A*%
X434105000Y-204250000D03*
D13*
X431565000Y-204250000D03*
%TD*%
D12*
%TO.C,REF\u002A\u002A*%
X506757500Y-236007500D03*
D13*
X504217500Y-236007500D03*
%TD*%
D14*
%TO.C,REF\u002A\u002A*%
X510500000Y-69500000D03*
D15*
X510500000Y-59340000D03*
%TD*%
D12*
%TO.C,REF\u002A\u002A*%
X434090000Y-193750000D03*
D13*
X431550000Y-193750000D03*
%TD*%
D12*
%TO.C,REF\u002A\u002A*%
X443717500Y-236007500D03*
D13*
X441177500Y-236007500D03*
%TD*%
D12*
%TO.C,REF\u002A\u002A*%
X536985000Y-225250000D03*
D13*
X534445000Y-225250000D03*
%TD*%
D14*
%TO.C,REF\u002A\u002A*%
X409420000Y-116500000D03*
D15*
X419580000Y-116500000D03*
%TD*%
D14*
%TO.C,REF\u002A\u002A*%
X511000000Y-135080000D03*
D15*
X511000000Y-124920000D03*
%TD*%
D14*
%TO.C,REF\u002A\u002A*%
X453500000Y-113500000D03*
D15*
X443340000Y-113500000D03*
%TD*%
D14*
%TO.C,REF\u002A\u002A*%
X552500000Y-79580000D03*
D15*
X552500000Y-69420000D03*
%TD*%
D12*
%TO.C,REF\u002A\u002A*%
X423510000Y-90750000D03*
D13*
X420970000Y-90750000D03*
%TD*%
D12*
%TO.C,REF\u002A\u002A*%
X536920000Y-101250000D03*
D13*
X534380000Y-101250000D03*
%TD*%
D12*
%TO.C,REF\u002A\u002A*%
X475055000Y-141000000D03*
D13*
X472515000Y-141000000D03*
%TD*%
D12*
%TO.C,REF\u002A\u002A*%
X428775000Y-130250000D03*
D13*
X426235000Y-130250000D03*
%TD*%
D12*
%TO.C,REF\u002A\u002A*%
X526485000Y-193750000D03*
D13*
X523945000Y-193750000D03*
%TD*%
D14*
%TO.C,REF\u002A\u002A*%
X457000000Y-71340000D03*
D15*
X457000000Y-81500000D03*
%TD*%
D12*
%TO.C,REF\u002A\u002A*%
X526500000Y-183250000D03*
D13*
X523960000Y-183250000D03*
%TD*%
D12*
%TO.C,REF\u002A\u002A*%
X464717500Y-236007500D03*
D13*
X462177500Y-236007500D03*
%TD*%
D14*
%TO.C,REF\u002A\u002A*%
X416500000Y-131080000D03*
D15*
X416500000Y-120920000D03*
%TD*%
D14*
%TO.C,REF\u002A\u002A*%
X555000000Y-91080000D03*
D15*
X555000000Y-80920000D03*
%TD*%
D14*
%TO.C,REF\u002A\u002A*%
X421580000Y-35500000D03*
D15*
X411420000Y-35500000D03*
%TD*%
D12*
%TO.C,REF\u002A\u002A*%
X434010000Y-90750000D03*
D13*
X431470000Y-90750000D03*
%TD*%
D14*
%TO.C,REF\u002A\u002A*%
X498160000Y-56000000D03*
D15*
X488000000Y-56000000D03*
%TD*%
D12*
%TO.C,REF\u002A\u002A*%
X434105000Y-172750000D03*
D13*
X431565000Y-172750000D03*
%TD*%
D12*
%TO.C,REF\u002A\u002A*%
X526420000Y-111750000D03*
D13*
X523880000Y-111750000D03*
%TD*%
D12*
%TO.C,REF\u002A\u002A*%
X423525000Y-48750000D03*
D13*
X420985000Y-48750000D03*
%TD*%
D14*
%TO.C,REF\u002A\u002A*%
X488000000Y-66500000D03*
D15*
X498160000Y-66500000D03*
%TD*%
D12*
%TO.C,REF\u002A\u002A*%
X423525000Y-69750000D03*
D13*
X420985000Y-69750000D03*
%TD*%
D16*
%TO.C,REF\u002A\u002A*%
X438830000Y-179500000D03*
D17*
X438830000Y-189660000D03*
%TD*%
D14*
%TO.C,REF\u002A\u002A*%
X454000000Y-81420000D03*
D15*
X454000000Y-91580000D03*
%TD*%
D12*
%TO.C,REF\u002A\u002A*%
X428750000Y-40750000D03*
D13*
X426210000Y-40750000D03*
%TD*%
D16*
%TO.C,REF\u002A\u002A*%
X439920000Y-43500000D03*
D17*
X450080000Y-43500000D03*
%TD*%
D12*
%TO.C,REF\u002A\u002A*%
X536935000Y-59250000D03*
D13*
X534395000Y-59250000D03*
%TD*%
D14*
%TO.C,REF\u002A\u002A*%
X468920000Y-103500000D03*
D15*
X479080000Y-103500000D03*
%TD*%
D16*
%TO.C,REF\u002A\u002A*%
X541645000Y-62580000D03*
D17*
X541645000Y-72740000D03*
%TD*%
D14*
%TO.C,REF\u002A\u002A*%
X510500000Y-32080000D03*
D15*
X510500000Y-21920000D03*
%TD*%
D14*
%TO.C,REF\u002A\u002A*%
X480000000Y-154500000D03*
D15*
X480000000Y-144340000D03*
%TD*%
D12*
%TO.C,REF\u002A\u002A*%
X443555000Y-141000000D03*
D13*
X441015000Y-141000000D03*
%TD*%
D12*
%TO.C,REF\u002A\u002A*%
X496015000Y-38000000D03*
D13*
X493475000Y-38000000D03*
%TD*%
D12*
%TO.C,REF\u002A\u002A*%
X531670000Y-130250000D03*
D13*
X529130000Y-130250000D03*
%TD*%
D16*
%TO.C,REF\u002A\u002A*%
X438750000Y-90420000D03*
D17*
X438750000Y-100580000D03*
%TD*%
D12*
%TO.C,REF\u002A\u002A*%
X517095000Y-133000000D03*
D13*
X514555000Y-133000000D03*
%TD*%
D12*
%TO.C,REF\u002A\u002A*%
X443555000Y-133000000D03*
D13*
X441015000Y-133000000D03*
%TD*%
D16*
%TO.C,REF\u002A\u002A*%
X467912500Y-249507500D03*
D17*
X478072500Y-249507500D03*
%TD*%
D12*
%TO.C,REF\u002A\u002A*%
X526500000Y-204250000D03*
D13*
X523960000Y-204250000D03*
%TD*%
D12*
%TO.C,REF\u002A\u002A*%
X434025000Y-111750000D03*
D13*
X431485000Y-111750000D03*
%TD*%
D12*
%TO.C,REF\u002A\u002A*%
X434090000Y-225250000D03*
D13*
X431550000Y-225250000D03*
%TD*%
D12*
%TO.C,REF\u002A\u002A*%
X475217500Y-244007500D03*
D13*
X472677500Y-244007500D03*
%TD*%
D12*
%TO.C,REF\u002A\u002A*%
X537000000Y-183250000D03*
D13*
X534460000Y-183250000D03*
%TD*%
D12*
%TO.C,REF\u002A\u002A*%
X423510000Y-122250000D03*
D13*
X420970000Y-122250000D03*
%TD*%
D12*
%TO.C,REF\u002A\u002A*%
X526420000Y-80250000D03*
D13*
X523880000Y-80250000D03*
%TD*%
D14*
%TO.C,REF\u002A\u002A*%
X553000000Y-140000000D03*
D15*
X553000000Y-129840000D03*
%TD*%
D12*
%TO.C,REF\u002A\u002A*%
X434105000Y-214750000D03*
D13*
X431565000Y-214750000D03*
%TD*%
D14*
%TO.C,REF\u002A\u002A*%
X458000000Y-132000000D03*
D15*
X458000000Y-121840000D03*
%TD*%
D12*
%TO.C,REF\u002A\u002A*%
X526420000Y-101250000D03*
D13*
X523880000Y-101250000D03*
%TD*%
D14*
%TO.C,REF\u002A\u002A*%
X492000000Y-86420000D03*
D15*
X492000000Y-96580000D03*
%TD*%
D12*
%TO.C,REF\u002A\u002A*%
X423540000Y-59250000D03*
D13*
X421000000Y-59250000D03*
%TD*%
D12*
%TO.C,REF\u002A\u002A*%
X475217500Y-236007500D03*
D13*
X472677500Y-236007500D03*
%TD*%
D12*
%TO.C,REF\u002A\u002A*%
X526500000Y-214750000D03*
D13*
X523960000Y-214750000D03*
%TD*%
D14*
%TO.C,REF\u002A\u002A*%
X460500000Y-91580000D03*
D15*
X460500000Y-81420000D03*
%TD*%
D12*
%TO.C,REF\u002A\u002A*%
X434010000Y-122250000D03*
D13*
X431470000Y-122250000D03*
%TD*%
D16*
%TO.C,REF\u002A\u002A*%
X438750000Y-104250000D03*
D17*
X438750000Y-114410000D03*
%TD*%
D16*
%TO.C,REF\u002A\u002A*%
X495500000Y-146500000D03*
D17*
X505660000Y-146500000D03*
%TD*%
D14*
%TO.C,REF\u002A\u002A*%
X512420000Y-220000000D03*
D15*
X522580000Y-220000000D03*
%TD*%
D12*
%TO.C,REF\u002A\u002A*%
X428855000Y-233250000D03*
D13*
X426315000Y-233250000D03*
%TD*%
D12*
%TO.C,REF\u002A\u002A*%
X443717500Y-244007500D03*
D13*
X441177500Y-244007500D03*
%TD*%
D12*
%TO.C,REF\u002A\u002A*%
X423590000Y-193750000D03*
D13*
X421050000Y-193750000D03*
%TD*%
D18*
%TO.C,REF\u002A\u002A*%
X564500000Y-76125000D03*
D19*
X564500000Y-78665000D03*
X564500000Y-81205000D03*
X564500000Y-83745000D03*
X564500000Y-86285000D03*
X564500000Y-88825000D03*
X564500000Y-91365000D03*
X564500000Y-93905000D03*
%TD*%
D14*
%TO.C,REF\u002A\u002A*%
X488000000Y-63000000D03*
D15*
X498160000Y-63000000D03*
%TD*%
D16*
%TO.C,REF\u002A\u002A*%
X481590000Y-43500000D03*
D17*
X491750000Y-43500000D03*
%TD*%
D14*
%TO.C,REF\u002A\u002A*%
X558000000Y-101580000D03*
D15*
X558000000Y-91420000D03*
%TD*%
D14*
%TO.C,REF\u002A\u002A*%
X401000000Y-83580000D03*
D15*
X401000000Y-73420000D03*
%TD*%
D12*
%TO.C,REF\u002A\u002A*%
X423605000Y-151750000D03*
D13*
X421065000Y-151750000D03*
%TD*%
D14*
%TO.C,REF\u002A\u002A*%
X469500000Y-154000000D03*
D15*
X469500000Y-143840000D03*
%TD*%
D14*
%TO.C,REF\u002A\u002A*%
X485080000Y-54000000D03*
D15*
X474920000Y-54000000D03*
%TD*%
D12*
%TO.C,REF\u002A\u002A*%
X526420000Y-69750000D03*
D13*
X523880000Y-69750000D03*
%TD*%
D12*
%TO.C,REF\u002A\u002A*%
X496095000Y-133000000D03*
D13*
X493555000Y-133000000D03*
%TD*%
D12*
%TO.C,REF\u002A\u002A*%
X423620000Y-162250000D03*
D13*
X421080000Y-162250000D03*
%TD*%
D12*
%TO.C,REF\u002A\u002A*%
X496015000Y-30000000D03*
D13*
X493475000Y-30000000D03*
%TD*%
D14*
%TO.C,REF\u002A\u002A*%
X500000000Y-48080000D03*
D15*
X500000000Y-37920000D03*
%TD*%
D16*
%TO.C,REF\u002A\u002A*%
X438830000Y-151750000D03*
D17*
X438830000Y-161910000D03*
%TD*%
D16*
%TO.C,REF\u002A\u002A*%
X438830000Y-207250000D03*
D17*
X438830000Y-217410000D03*
%TD*%
D12*
%TO.C,REF\u002A\u002A*%
X506595000Y-133000000D03*
D13*
X504055000Y-133000000D03*
%TD*%
D12*
%TO.C,REF\u002A\u002A*%
X475055000Y-133000000D03*
D13*
X472515000Y-133000000D03*
%TD*%
D14*
%TO.C,REF\u002A\u002A*%
X541920000Y-83500000D03*
D15*
X552080000Y-83500000D03*
%TD*%
D12*
%TO.C,REF\u002A\u002A*%
X506595000Y-141000000D03*
D13*
X504055000Y-141000000D03*
%TD*%
D14*
%TO.C,REF\u002A\u002A*%
X549000000Y-79580000D03*
D15*
X549000000Y-69420000D03*
%TD*%
D16*
%TO.C,REF\u002A\u002A*%
X438830000Y-221170000D03*
D17*
X438830000Y-231330000D03*
%TD*%
D12*
%TO.C,REF\u002A\u002A*%
X536920000Y-111750000D03*
D13*
X534380000Y-111750000D03*
%TD*%
D16*
%TO.C,REF\u002A\u002A*%
X438830000Y-193420000D03*
D17*
X438830000Y-203580000D03*
%TD*%
D12*
%TO.C,REF\u002A\u002A*%
X517257500Y-236007500D03*
D13*
X514717500Y-236007500D03*
%TD*%
D12*
%TO.C,REF\u002A\u002A*%
X517015000Y-38000000D03*
D13*
X514475000Y-38000000D03*
%TD*%
D12*
%TO.C,REF\u002A\u002A*%
X496257500Y-244007500D03*
D13*
X493717500Y-244007500D03*
%TD*%
D14*
%TO.C,REF\u002A\u002A*%
X442920000Y-56500000D03*
D15*
X453080000Y-56500000D03*
%TD*%
D16*
%TO.C,REF\u002A\u002A*%
X541645000Y-90420000D03*
D17*
X541645000Y-100580000D03*
%TD*%
D12*
%TO.C,REF\u002A\u002A*%
X531725000Y-143750000D03*
D13*
X529185000Y-143750000D03*
%TD*%
D16*
%TO.C,REF\u002A\u002A*%
X453750000Y-43500000D03*
D17*
X463910000Y-43500000D03*
%TD*%
D14*
%TO.C,REF\u002A\u002A*%
X398420000Y-69500000D03*
D15*
X408580000Y-69500000D03*
%TD*%
D16*
%TO.C,REF\u002A\u002A*%
X541725000Y-151750000D03*
D17*
X541725000Y-161910000D03*
%TD*%
D14*
%TO.C,REF\u002A\u002A*%
X516500000Y-95500000D03*
D15*
X526660000Y-95500000D03*
%TD*%
D14*
%TO.C,REF\u002A\u002A*%
X479080000Y-100500000D03*
D15*
X468920000Y-100500000D03*
%TD*%
D12*
%TO.C,REF\u002A\u002A*%
X423605000Y-214750000D03*
D13*
X421065000Y-214750000D03*
%TD*%
D12*
%TO.C,REF\u002A\u002A*%
X506757500Y-244007500D03*
D13*
X504217500Y-244007500D03*
%TD*%
D16*
%TO.C,REF\u002A\u002A*%
X541725000Y-221170000D03*
D17*
X541725000Y-231330000D03*
%TD*%
D14*
%TO.C,REF\u002A\u002A*%
X498080000Y-52000000D03*
D15*
X487920000Y-52000000D03*
%TD*%
D12*
%TO.C,REF\u002A\u002A*%
X537015000Y-162250000D03*
D13*
X534475000Y-162250000D03*
%TD*%
D16*
%TO.C,REF\u002A\u002A*%
X509420000Y-146500000D03*
D17*
X519580000Y-146500000D03*
%TD*%
D12*
%TO.C,REF\u002A\u002A*%
X464475000Y-38000000D03*
D13*
X461935000Y-38000000D03*
%TD*%
D12*
%TO.C,REF\u002A\u002A*%
X454257500Y-236007500D03*
D13*
X451717500Y-236007500D03*
%TD*%
D12*
%TO.C,REF\u002A\u002A*%
X434025000Y-80250000D03*
D13*
X431485000Y-80250000D03*
%TD*%
D12*
%TO.C,REF\u002A\u002A*%
X434025000Y-69750000D03*
D13*
X431485000Y-69750000D03*
%TD*%
D14*
%TO.C,REF\u002A\u002A*%
X440840000Y-124500000D03*
D15*
X451000000Y-124500000D03*
%TD*%
D14*
%TO.C,REF\u002A\u002A*%
X509000000Y-182000000D03*
D15*
X519160000Y-182000000D03*
%TD*%
D14*
%TO.C,REF\u002A\u002A*%
X480000000Y-131580000D03*
D15*
X480000000Y-121420000D03*
%TD*%
D14*
%TO.C,REF\u002A\u002A*%
X528920000Y-138000000D03*
D15*
X539080000Y-138000000D03*
%TD*%
D12*
%TO.C,REF\u002A\u002A*%
X525217500Y-240007500D03*
D13*
X522677500Y-240007500D03*
%TD*%
D20*
%TO.C,REF\u002A\u002A*%
X475675000Y-76375000D03*
D21*
X475675000Y-78915000D03*
X475675000Y-81455000D03*
X475675000Y-83995000D03*
X475675000Y-86535000D03*
X475675000Y-89075000D03*
X475675000Y-91615000D03*
X475675000Y-94155000D03*
X483295000Y-94155000D03*
X483295000Y-91615000D03*
X483295000Y-89075000D03*
X483295000Y-86535000D03*
X483295000Y-83995000D03*
X483295000Y-81455000D03*
X483295000Y-78915000D03*
X483295000Y-76375000D03*
%TD*%
D16*
%TO.C,REF\u002A\u002A*%
X453992500Y-249507500D03*
D17*
X464152500Y-249507500D03*
%TD*%
D12*
%TO.C,REF\u002A\u002A*%
X506515000Y-30000000D03*
D13*
X503975000Y-30000000D03*
%TD*%
D12*
%TO.C,REF\u002A\u002A*%
X485475000Y-30000000D03*
D13*
X482935000Y-30000000D03*
%TD*%
D16*
%TO.C,REF\u002A\u002A*%
X541645000Y-48750000D03*
D17*
X541645000Y-58910000D03*
%TD*%
D12*
%TO.C,REF\u002A\u002A*%
X474975000Y-38000000D03*
D13*
X472435000Y-38000000D03*
%TD*%
D12*
%TO.C,REF\u002A\u002A*%
X464555000Y-133000000D03*
D13*
X462015000Y-133000000D03*
%TD*%
D12*
%TO.C,REF\u002A\u002A*%
X524975000Y-34000000D03*
D13*
X522435000Y-34000000D03*
%TD*%
D16*
%TO.C,REF\u002A\u002A*%
X541645000Y-118170000D03*
D17*
X541645000Y-128330000D03*
%TD*%
D12*
%TO.C,REF\u002A\u002A*%
X536920000Y-48750000D03*
D13*
X534380000Y-48750000D03*
%TD*%
D12*
%TO.C,REF\u002A\u002A*%
X526420000Y-48750000D03*
D13*
X523880000Y-48750000D03*
%TD*%
D12*
%TO.C,REF\u002A\u002A*%
X434025000Y-101250000D03*
D13*
X431485000Y-101250000D03*
%TD*%
D12*
%TO.C,REF\u002A\u002A*%
X496095000Y-141000000D03*
D13*
X493555000Y-141000000D03*
%TD*%
D14*
%TO.C,REF\u002A\u002A*%
X500000000Y-34620000D03*
D15*
X500000000Y-19380000D03*
%TD*%
D12*
%TO.C,REF\u002A\u002A*%
X464475000Y-30000000D03*
D13*
X461935000Y-30000000D03*
%TD*%
D14*
%TO.C,REF\u002A\u002A*%
X515920000Y-54000000D03*
D15*
X526080000Y-54000000D03*
%TD*%
D14*
%TO.C,REF\u002A\u002A*%
X450080000Y-96500000D03*
D15*
X439920000Y-96500000D03*
%TD*%
D14*
%TO.C,REF\u002A\u002A*%
X558000000Y-79000000D03*
D15*
X558000000Y-68840000D03*
%TD*%
D16*
%TO.C,REF\u002A\u002A*%
X509582500Y-249507500D03*
D17*
X519742500Y-249507500D03*
%TD*%
D14*
%TO.C,REF\u002A\u002A*%
X488500000Y-97000000D03*
D15*
X488500000Y-107160000D03*
%TD*%
D16*
%TO.C,REF\u002A\u002A*%
X541725000Y-207250000D03*
D17*
X541725000Y-217410000D03*
%TD*%
D12*
%TO.C,REF\u002A\u002A*%
X434025000Y-48750000D03*
D13*
X431485000Y-48750000D03*
%TD*%
D12*
%TO.C,REF\u002A\u002A*%
X536985000Y-193750000D03*
D13*
X534445000Y-193750000D03*
%TD*%
D14*
%TO.C,REF\u002A\u002A*%
X513500000Y-73160000D03*
D15*
X513500000Y-63000000D03*
%TD*%
D16*
%TO.C,REF\u002A\u002A*%
X440000000Y-146500000D03*
D17*
X450160000Y-146500000D03*
%TD*%
D12*
%TO.C,REF\u002A\u002A*%
X423525000Y-111750000D03*
D13*
X420985000Y-111750000D03*
%TD*%
D16*
%TO.C,REF\u002A\u002A*%
X467750000Y-146500000D03*
D17*
X477910000Y-146500000D03*
%TD*%
D14*
%TO.C,REF\u002A\u002A*%
X432080000Y-96500000D03*
D15*
X421920000Y-96500000D03*
%TD*%
D12*
%TO.C,REF\u002A\u002A*%
X454095000Y-141000000D03*
D13*
X451555000Y-141000000D03*
%TD*%
D12*
%TO.C,REF\u002A\u002A*%
X485717500Y-236007500D03*
D13*
X483177500Y-236007500D03*
%TD*%
D12*
%TO.C,REF\u002A\u002A*%
X531645000Y-40750000D03*
D13*
X529105000Y-40750000D03*
%TD*%
D12*
%TO.C,REF\u002A\u002A*%
X536905000Y-122250000D03*
D13*
X534365000Y-122250000D03*
%TD*%
D12*
%TO.C,REF\u002A\u002A*%
X517257500Y-244007500D03*
D13*
X514717500Y-244007500D03*
%TD*%
D16*
%TO.C,REF\u002A\u002A*%
X541725000Y-165580000D03*
D17*
X541725000Y-175740000D03*
%TD*%
D12*
%TO.C,REF\u002A\u002A*%
X537000000Y-172750000D03*
D13*
X534460000Y-172750000D03*
%TD*%
D12*
%TO.C,REF\u002A\u002A*%
X423590000Y-225250000D03*
D13*
X421050000Y-225250000D03*
%TD*%
D12*
%TO.C,REF\u002A\u002A*%
X464717500Y-244007500D03*
D13*
X462177500Y-244007500D03*
%TD*%
D12*
%TO.C,REF\u002A\u002A*%
X434120000Y-162250000D03*
D13*
X431580000Y-162250000D03*
%TD*%
D14*
%TO.C,REF\u002A\u002A*%
X479500000Y-51080000D03*
D15*
X479500000Y-40920000D03*
%TD*%
D12*
%TO.C,REF\u002A\u002A*%
X536920000Y-69750000D03*
D13*
X534380000Y-69750000D03*
%TD*%
D12*
%TO.C,REF\u002A\u002A*%
X454257500Y-244007500D03*
D13*
X451717500Y-244007500D03*
%TD*%
D16*
%TO.C,REF\u002A\u002A*%
X495662500Y-249507500D03*
D17*
X505822500Y-249507500D03*
%TD*%
D12*
%TO.C,REF\u002A\u002A*%
X485555000Y-141000000D03*
D13*
X483015000Y-141000000D03*
%TD*%
D12*
%TO.C,REF\u002A\u002A*%
X443475000Y-30000000D03*
D13*
X440935000Y-30000000D03*
%TD*%
D14*
%TO.C,REF\u002A\u002A*%
X468920000Y-97500000D03*
D15*
X479080000Y-97500000D03*
%TD*%
D14*
%TO.C,REF\u002A\u002A*%
X512420000Y-157000000D03*
D15*
X522580000Y-157000000D03*
%TD*%
D12*
%TO.C,REF\u002A\u002A*%
X536920000Y-80250000D03*
D13*
X534380000Y-80250000D03*
%TD*%
D12*
%TO.C,REF\u002A\u002A*%
X434105000Y-183250000D03*
D13*
X431565000Y-183250000D03*
%TD*%
D12*
%TO.C,REF\u002A\u002A*%
X423605000Y-183250000D03*
D13*
X421065000Y-183250000D03*
%TD*%
D12*
%TO.C,REF\u002A\u002A*%
X435500000Y-34000000D03*
D13*
X432960000Y-34000000D03*
%TD*%
D12*
%TO.C,REF\u002A\u002A*%
X485475000Y-38000000D03*
D13*
X482935000Y-38000000D03*
%TD*%
D12*
%TO.C,REF\u002A\u002A*%
X526405000Y-122250000D03*
D13*
X523865000Y-122250000D03*
%TD*%
D14*
%TO.C,REF\u002A\u002A*%
X539000000Y-95500000D03*
D15*
X549160000Y-95500000D03*
%TD*%
D12*
%TO.C,REF\u002A\u002A*%
X536905000Y-90750000D03*
D13*
X534365000Y-90750000D03*
%TD*%
D12*
%TO.C,REF\u002A\u002A*%
X454015000Y-38000000D03*
D13*
X451475000Y-38000000D03*
%TD*%
D14*
%TO.C,REF\u002A\u002A*%
X509000000Y-179000000D03*
D15*
X519160000Y-179000000D03*
%TD*%
D12*
%TO.C,REF\u002A\u002A*%
X517015000Y-30000000D03*
D13*
X514475000Y-30000000D03*
%TD*%
D14*
%TO.C,REF\u002A\u002A*%
X413000000Y-54000000D03*
D15*
X423160000Y-54000000D03*
%TD*%
D14*
%TO.C,REF\u002A\u002A*%
X439920000Y-81500000D03*
D15*
X450080000Y-81500000D03*
%TD*%
D14*
%TO.C,REF\u002A\u002A*%
X498500000Y-91500000D03*
D15*
X498500000Y-81340000D03*
%TD*%
D12*
%TO.C,REF\u002A\u002A*%
X526500000Y-151750000D03*
D13*
X523960000Y-151750000D03*
%TD*%
D14*
%TO.C,REF\u002A\u002A*%
X419580000Y-96500000D03*
D15*
X409420000Y-96500000D03*
%TD*%
D14*
%TO.C,REF\u002A\u002A*%
X539420000Y-187000000D03*
D15*
X549580000Y-187000000D03*
%TD*%
D12*
%TO.C,REF\u002A\u002A*%
X537000000Y-214750000D03*
D13*
X534460000Y-214750000D03*
%TD*%
D14*
%TO.C,REF\u002A\u002A*%
X512420000Y-188500000D03*
D15*
X522580000Y-188500000D03*
%TD*%
D16*
%TO.C,REF\u002A\u002A*%
X438750000Y-76500000D03*
D17*
X438750000Y-86660000D03*
%TD*%
D14*
%TO.C,REF\u002A\u002A*%
X536645000Y-156830000D03*
D15*
X546805000Y-156830000D03*
%TD*%
D12*
%TO.C,REF\u002A\u002A*%
X443475000Y-38000000D03*
D13*
X440935000Y-38000000D03*
%TD*%
D14*
%TO.C,REF\u002A\u002A*%
X407000000Y-93080000D03*
D15*
X407000000Y-82920000D03*
%TD*%
D12*
%TO.C,REF\u002A\u002A*%
X526435000Y-59250000D03*
D13*
X523895000Y-59250000D03*
%TD*%
D14*
%TO.C,REF\u002A\u002A*%
X479000000Y-32080000D03*
D15*
X479000000Y-21920000D03*
%TD*%
D12*
%TO.C,REF\u002A\u002A*%
X526500000Y-172750000D03*
D13*
X523960000Y-172750000D03*
%TD*%
D14*
%TO.C,REF\u002A\u002A*%
X488000000Y-59500000D03*
D15*
X498160000Y-59500000D03*
%TD*%
D12*
%TO.C,REF\u002A\u002A*%
X435742500Y-240007500D03*
D13*
X433202500Y-240007500D03*
%TD*%
D12*
%TO.C,REF\u002A\u002A*%
X506515000Y-38000000D03*
D13*
X503975000Y-38000000D03*
%TD*%
D12*
%TO.C,REF\u002A\u002A*%
X537000000Y-151750000D03*
D13*
X534460000Y-151750000D03*
%TD*%
D12*
%TO.C,REF\u002A\u002A*%
X434040000Y-59250000D03*
D13*
X431500000Y-59250000D03*
%TD*%
D14*
%TO.C,REF\u002A\u002A*%
X506340000Y-100500000D03*
D15*
X516500000Y-100500000D03*
%TD*%
D14*
%TO.C,REF\u002A\u002A*%
X405920000Y-63000000D03*
D15*
X416080000Y-63000000D03*
%TD*%
D14*
%TO.C,REF\u002A\u002A*%
X409420000Y-85500000D03*
D15*
X419580000Y-85500000D03*
%TD*%
D12*
%TO.C,REF\u002A\u002A*%
X428830000Y-143750000D03*
D13*
X426290000Y-143750000D03*
%TD*%
D12*
%TO.C,REF\u002A\u002A*%
X531750000Y-233250000D03*
D13*
X529210000Y-233250000D03*
%TD*%
D14*
%TO.C,REF\u002A\u002A*%
X560500000Y-96120000D03*
D15*
X560500000Y-80880000D03*
%TD*%
D16*
%TO.C,REF\u002A\u002A*%
X541645000Y-104250000D03*
D17*
X541645000Y-114410000D03*
%TD*%
D14*
%TO.C,REF\u002A\u002A*%
X457000000Y-91500000D03*
D15*
X457000000Y-101660000D03*
%TD*%
D16*
%TO.C,REF\u002A\u002A*%
X495420000Y-43500000D03*
D17*
X505580000Y-43500000D03*
%TD*%
D12*
%TO.C,REF\u002A\u002A*%
X474975000Y-30000000D03*
D13*
X472435000Y-30000000D03*
%TD*%
D12*
%TO.C,REF\u002A\u002A*%
X485717500Y-244007500D03*
D13*
X483177500Y-244007500D03*
%TD*%
D16*
%TO.C,REF\u002A\u002A*%
X438750000Y-62580000D03*
D17*
X438750000Y-72740000D03*
%TD*%
D12*
%TO.C,REF\u002A\u002A*%
X537000000Y-204250000D03*
D13*
X534460000Y-204250000D03*
%TD*%
D16*
%TO.C,REF\u002A\u002A*%
X481832500Y-249507500D03*
D17*
X491992500Y-249507500D03*
%TD*%
D12*
%TO.C,REF\u002A\u002A*%
X517095000Y-141000000D03*
D13*
X514555000Y-141000000D03*
%TD*%
D14*
%TO.C,REF\u002A\u002A*%
X495500000Y-86500000D03*
D15*
X495500000Y-76340000D03*
%TD*%
M02*
