%FSLAX45Y45*%
G04 Gerber Fmt 4.5, Leading zero omitted, Abs format (unit mm)*
G04 Created by KiCad (PCBNEW (6.0.6)) date 2022-10-07 01:33:58*
%MOMM*%
%LPD*%
G01*
G04 APERTURE LIST*
%TA.AperFunction,Profile*%
%ADD10C,0.100000*%
%TD*%
%ADD11C,0.200000*%
%ADD12C,0.060000*%
%ADD13C,0.070000*%
%ADD14C,0.080000*%
%ADD15C,0.090000*%
%ADD16C,0.100000*%
%ADD17C,0.400000*%
G04 APERTURE END LIST*
D10*
X41225000Y-18675000D02*
X31375000Y-18675000D01*
X31375000Y-18675000D02*
X31375000Y-1500000D01*
X31375000Y-1500000D02*
X41225000Y-1500000D01*
X41225000Y-1500000D02*
X41225000Y-18675000D01*
D11*
D12*
X31670000Y-2095000D02*
X31730000Y-2155000D01*
X31730000Y-2095000D02*
X31670000Y-2155000D01*
X31695000Y-17995000D02*
X31755000Y-18055000D01*
X31755000Y-17995000D02*
X31695000Y-18055000D01*
X31757868Y-1882868D02*
X31817868Y-1942868D01*
X31817868Y-1882868D02*
X31757868Y-1942868D01*
X31757868Y-2307132D02*
X31817868Y-2367132D01*
X31817868Y-2307132D02*
X31757868Y-2367132D01*
X31782868Y-17782868D02*
X31842868Y-17842868D01*
X31842868Y-17782868D02*
X31782868Y-17842868D01*
X31782868Y-18207132D02*
X31842868Y-18267132D01*
X31842868Y-18207132D02*
X31782868Y-18267132D01*
X31970000Y-1795000D02*
X32030000Y-1855000D01*
X32030000Y-1795000D02*
X31970000Y-1855000D01*
X31970000Y-2395000D02*
X32030000Y-2455000D01*
X32030000Y-2395000D02*
X31970000Y-2455000D01*
X31995000Y-17695000D02*
X32055000Y-17755000D01*
X32055000Y-17695000D02*
X31995000Y-17755000D01*
X31995000Y-18295000D02*
X32055000Y-18355000D01*
X32055000Y-18295000D02*
X31995000Y-18355000D01*
X32182132Y-1882868D02*
X32242132Y-1942868D01*
X32242132Y-1882868D02*
X32182132Y-1942868D01*
X32182132Y-2307132D02*
X32242132Y-2367132D01*
X32242132Y-2307132D02*
X32182132Y-2367132D01*
X32207132Y-17782868D02*
X32267132Y-17842868D01*
X32267132Y-17782868D02*
X32207132Y-17842868D01*
X32207132Y-18207132D02*
X32267132Y-18267132D01*
X32267132Y-18207132D02*
X32207132Y-18267132D01*
X32270000Y-2095000D02*
X32330000Y-2155000D01*
X32330000Y-2095000D02*
X32270000Y-2155000D01*
X32295000Y-17995000D02*
X32355000Y-18055000D01*
X32355000Y-17995000D02*
X32295000Y-18055000D01*
X40270000Y-2145000D02*
X40330000Y-2205000D01*
X40330000Y-2145000D02*
X40270000Y-2205000D01*
X40270000Y-17970000D02*
X40330000Y-18030000D01*
X40330000Y-17970000D02*
X40270000Y-18030000D01*
X40357868Y-1932868D02*
X40417868Y-1992868D01*
X40417868Y-1932868D02*
X40357868Y-1992868D01*
X40357868Y-2357132D02*
X40417868Y-2417132D01*
X40417868Y-2357132D02*
X40357868Y-2417132D01*
X40357868Y-17757868D02*
X40417868Y-17817868D01*
X40417868Y-17757868D02*
X40357868Y-17817868D01*
X40357868Y-18182132D02*
X40417868Y-18242132D01*
X40417868Y-18182132D02*
X40357868Y-18242132D01*
X40570000Y-1845000D02*
X40630000Y-1905000D01*
X40630000Y-1845000D02*
X40570000Y-1905000D01*
X40570000Y-2445000D02*
X40630000Y-2505000D01*
X40630000Y-2445000D02*
X40570000Y-2505000D01*
X40570000Y-17670000D02*
X40630000Y-17730000D01*
X40630000Y-17670000D02*
X40570000Y-17730000D01*
X40570000Y-18270000D02*
X40630000Y-18330000D01*
X40630000Y-18270000D02*
X40570000Y-18330000D01*
X40782132Y-1932868D02*
X40842132Y-1992868D01*
X40842132Y-1932868D02*
X40782132Y-1992868D01*
X40782132Y-2357132D02*
X40842132Y-2417132D01*
X40842132Y-2357132D02*
X40782132Y-2417132D01*
X40782132Y-17757868D02*
X40842132Y-17817868D01*
X40842132Y-17757868D02*
X40782132Y-17817868D01*
X40782132Y-18182132D02*
X40842132Y-18242132D01*
X40842132Y-18182132D02*
X40782132Y-18242132D01*
X40870000Y-2145000D02*
X40930000Y-2205000D01*
X40930000Y-2145000D02*
X40870000Y-2205000D01*
X40870000Y-17970000D02*
X40930000Y-18030000D01*
X40930000Y-17970000D02*
X40870000Y-18030000D01*
D13*
X34560000Y-8675000D02*
G75*
G03*
X34560000Y-8675000I-35000J0D01*
G01*
X34560000Y-9691000D02*
G75*
G03*
X34560000Y-9691000I-35000J0D01*
G01*
X35260000Y-12172000D02*
G75*
G03*
X35260000Y-12172000I-35000J0D01*
G01*
X35260000Y-13188000D02*
G75*
G03*
X35260000Y-13188000I-35000J0D01*
G01*
X35510000Y-12397000D02*
G75*
G03*
X35510000Y-12397000I-35000J0D01*
G01*
X35510000Y-13413000D02*
G75*
G03*
X35510000Y-13413000I-35000J0D01*
G01*
X36047000Y-12725000D02*
G75*
G03*
X36047000Y-12725000I-35000J0D01*
G01*
X36472000Y-12025000D02*
G75*
G03*
X36472000Y-12025000I-35000J0D01*
G01*
X36785000Y-8612000D02*
G75*
G03*
X36785000Y-8612000I-35000J0D01*
G01*
X36785000Y-9628000D02*
G75*
G03*
X36785000Y-9628000I-35000J0D01*
G01*
X36785000Y-10412000D02*
G75*
G03*
X36785000Y-10412000I-35000J0D01*
G01*
X36785000Y-11428000D02*
G75*
G03*
X36785000Y-11428000I-35000J0D01*
G01*
X37063000Y-12725000D02*
G75*
G03*
X37063000Y-12725000I-35000J0D01*
G01*
X37488000Y-12025000D02*
G75*
G03*
X37488000Y-12025000I-35000J0D01*
G01*
X37785000Y-15887000D02*
G75*
G03*
X37785000Y-15887000I-35000J0D01*
G01*
X37785000Y-16903000D02*
G75*
G03*
X37785000Y-16903000I-35000J0D01*
G01*
X37860000Y-8434000D02*
G75*
G03*
X37860000Y-8434000I-35000J0D01*
G01*
X37860000Y-9450000D02*
G75*
G03*
X37860000Y-9450000I-35000J0D01*
G01*
X38147000Y-7825000D02*
G75*
G03*
X38147000Y-7825000I-35000J0D01*
G01*
X38522000Y-11925000D02*
G75*
G03*
X38522000Y-11925000I-35000J0D01*
G01*
X39163000Y-7825000D02*
G75*
G03*
X39163000Y-7825000I-35000J0D01*
G01*
X39538000Y-11925000D02*
G75*
G03*
X39538000Y-11925000I-35000J0D01*
G01*
D14*
X33547500Y-3777000D02*
X33547500Y-3857000D01*
X33507500Y-3817000D02*
X33587500Y-3817000D01*
X33547500Y-4793000D02*
X33547500Y-4873000D01*
X33507500Y-4833000D02*
X33587500Y-4833000D01*
X33547500Y-5027000D02*
X33547500Y-5107000D01*
X33507500Y-5067000D02*
X33587500Y-5067000D01*
X33547500Y-6043000D02*
X33547500Y-6123000D01*
X33507500Y-6083000D02*
X33587500Y-6083000D01*
X33547500Y-6277000D02*
X33547500Y-6357000D01*
X33507500Y-6317000D02*
X33587500Y-6317000D01*
X33547500Y-7293000D02*
X33547500Y-7373000D01*
X33507500Y-7333000D02*
X33587500Y-7333000D01*
X33547500Y-7602000D02*
X33547500Y-7682000D01*
X33507500Y-7642000D02*
X33587500Y-7642000D01*
X33547500Y-8618000D02*
X33547500Y-8698000D01*
X33507500Y-8658000D02*
X33587500Y-8658000D01*
X33572500Y-11027000D02*
X33572500Y-11107000D01*
X33532500Y-11067000D02*
X33612500Y-11067000D01*
X33572500Y-12043000D02*
X33572500Y-12123000D01*
X33532500Y-12083000D02*
X33612500Y-12083000D01*
X33572500Y-12277000D02*
X33572500Y-12357000D01*
X33532500Y-12317000D02*
X33612500Y-12317000D01*
X33572500Y-13293000D02*
X33572500Y-13373000D01*
X33532500Y-13333000D02*
X33612500Y-13333000D01*
X33572500Y-13527000D02*
X33572500Y-13607000D01*
X33532500Y-13567000D02*
X33612500Y-13567000D01*
X33572500Y-14543000D02*
X33572500Y-14623000D01*
X33532500Y-14583000D02*
X33612500Y-14583000D01*
X33572500Y-14852000D02*
X33572500Y-14932000D01*
X33532500Y-14892000D02*
X33612500Y-14892000D01*
X33572500Y-15868000D02*
X33572500Y-15948000D01*
X33532500Y-15908000D02*
X33612500Y-15908000D01*
X33767000Y-3535000D02*
X33767000Y-3615000D01*
X33727000Y-3575000D02*
X33807000Y-3575000D01*
X33792000Y-10785000D02*
X33792000Y-10865000D01*
X33752000Y-10825000D02*
X33832000Y-10825000D01*
X33817000Y-18035000D02*
X33817000Y-18115000D01*
X33777000Y-18075000D02*
X33857000Y-18075000D01*
X34783000Y-3535000D02*
X34783000Y-3615000D01*
X34743000Y-3575000D02*
X34823000Y-3575000D01*
X34808000Y-10785000D02*
X34808000Y-10865000D01*
X34768000Y-10825000D02*
X34848000Y-10825000D01*
X34833000Y-18035000D02*
X34833000Y-18115000D01*
X34793000Y-18075000D02*
X34873000Y-18075000D01*
X35042000Y-3535000D02*
X35042000Y-3615000D01*
X35002000Y-3575000D02*
X35082000Y-3575000D01*
X35067000Y-10785000D02*
X35067000Y-10865000D01*
X35027000Y-10825000D02*
X35107000Y-10825000D01*
X35092000Y-18035000D02*
X35092000Y-18115000D01*
X35052000Y-18075000D02*
X35132000Y-18075000D01*
X36058000Y-3535000D02*
X36058000Y-3615000D01*
X36018000Y-3575000D02*
X36098000Y-3575000D01*
X36083000Y-10785000D02*
X36083000Y-10865000D01*
X36043000Y-10825000D02*
X36123000Y-10825000D01*
X36108000Y-18035000D02*
X36108000Y-18115000D01*
X36068000Y-18075000D02*
X36148000Y-18075000D01*
X36317000Y-3535000D02*
X36317000Y-3615000D01*
X36277000Y-3575000D02*
X36357000Y-3575000D01*
X36342000Y-10785000D02*
X36342000Y-10865000D01*
X36302000Y-10825000D02*
X36382000Y-10825000D01*
X36367000Y-18035000D02*
X36367000Y-18115000D01*
X36327000Y-18075000D02*
X36407000Y-18075000D01*
X37333000Y-3535000D02*
X37333000Y-3615000D01*
X37293000Y-3575000D02*
X37373000Y-3575000D01*
X37358000Y-10785000D02*
X37358000Y-10865000D01*
X37318000Y-10825000D02*
X37398000Y-10825000D01*
X37383000Y-18035000D02*
X37383000Y-18115000D01*
X37343000Y-18075000D02*
X37423000Y-18075000D01*
X37592000Y-3535000D02*
X37592000Y-3615000D01*
X37552000Y-3575000D02*
X37632000Y-3575000D01*
X37617000Y-10785000D02*
X37617000Y-10865000D01*
X37577000Y-10825000D02*
X37657000Y-10825000D01*
X37642000Y-18035000D02*
X37642000Y-18115000D01*
X37602000Y-18075000D02*
X37682000Y-18075000D01*
X38608000Y-3535000D02*
X38608000Y-3615000D01*
X38568000Y-3575000D02*
X38648000Y-3575000D01*
X38633000Y-10785000D02*
X38633000Y-10865000D01*
X38593000Y-10825000D02*
X38673000Y-10825000D01*
X38658000Y-18035000D02*
X38658000Y-18115000D01*
X38618000Y-18075000D02*
X38698000Y-18075000D01*
X40725000Y-3777000D02*
X40725000Y-3857000D01*
X40685000Y-3817000D02*
X40765000Y-3817000D01*
X40725000Y-4793000D02*
X40725000Y-4873000D01*
X40685000Y-4833000D02*
X40765000Y-4833000D01*
X40725000Y-5027000D02*
X40725000Y-5107000D01*
X40685000Y-5067000D02*
X40765000Y-5067000D01*
X40725000Y-6043000D02*
X40725000Y-6123000D01*
X40685000Y-6083000D02*
X40765000Y-6083000D01*
X40725000Y-6277000D02*
X40725000Y-6357000D01*
X40685000Y-6317000D02*
X40765000Y-6317000D01*
X40725000Y-7293000D02*
X40725000Y-7373000D01*
X40685000Y-7333000D02*
X40765000Y-7333000D01*
X40725000Y-7602000D02*
X40725000Y-7682000D01*
X40685000Y-7642000D02*
X40765000Y-7642000D01*
X40725000Y-8618000D02*
X40725000Y-8698000D01*
X40685000Y-8658000D02*
X40765000Y-8658000D01*
X40750000Y-11027000D02*
X40750000Y-11107000D01*
X40710000Y-11067000D02*
X40790000Y-11067000D01*
X40750000Y-12043000D02*
X40750000Y-12123000D01*
X40710000Y-12083000D02*
X40790000Y-12083000D01*
X40750000Y-12277000D02*
X40750000Y-12357000D01*
X40710000Y-12317000D02*
X40790000Y-12317000D01*
X40750000Y-13293000D02*
X40750000Y-13373000D01*
X40710000Y-13333000D02*
X40790000Y-13333000D01*
X40750000Y-13527000D02*
X40750000Y-13607000D01*
X40710000Y-13567000D02*
X40790000Y-13567000D01*
X40750000Y-14543000D02*
X40750000Y-14623000D01*
X40710000Y-14583000D02*
X40790000Y-14583000D01*
X40750000Y-14852000D02*
X40750000Y-14932000D01*
X40710000Y-14892000D02*
X40790000Y-14892000D01*
X40750000Y-15868000D02*
X40750000Y-15948000D01*
X40710000Y-15908000D02*
X40790000Y-15908000D01*
D15*
X31927820Y-4056820D02*
X31927820Y-3993180D01*
X31864180Y-3993180D01*
X31864180Y-4056820D01*
X31927820Y-4056820D01*
X31927820Y-5131820D02*
X31927820Y-5068180D01*
X31864180Y-5068180D01*
X31864180Y-5131820D01*
X31927820Y-5131820D01*
X31927820Y-6206820D02*
X31927820Y-6143180D01*
X31864180Y-6143180D01*
X31864180Y-6206820D01*
X31927820Y-6206820D01*
X31928320Y-7281820D02*
X31928320Y-7218180D01*
X31864680Y-7218180D01*
X31864680Y-7281820D01*
X31928320Y-7281820D01*
X31928820Y-8356820D02*
X31928820Y-8293180D01*
X31865180Y-8293180D01*
X31865180Y-8356820D01*
X31928820Y-8356820D01*
X31952820Y-11306820D02*
X31952820Y-11243180D01*
X31889180Y-11243180D01*
X31889180Y-11306820D01*
X31952820Y-11306820D01*
X31952820Y-12381820D02*
X31952820Y-12318180D01*
X31889180Y-12318180D01*
X31889180Y-12381820D01*
X31952820Y-12381820D01*
X31952820Y-13456820D02*
X31952820Y-13393180D01*
X31889180Y-13393180D01*
X31889180Y-13456820D01*
X31952820Y-13456820D01*
X31953320Y-14531820D02*
X31953320Y-14468180D01*
X31889680Y-14468180D01*
X31889680Y-14531820D01*
X31953320Y-14531820D01*
X31953820Y-15606820D02*
X31953820Y-15543180D01*
X31890180Y-15543180D01*
X31890180Y-15606820D01*
X31953820Y-15606820D01*
X32181820Y-4056820D02*
X32181820Y-3993180D01*
X32118180Y-3993180D01*
X32118180Y-4056820D01*
X32181820Y-4056820D01*
X32181820Y-5131820D02*
X32181820Y-5068180D01*
X32118180Y-5068180D01*
X32118180Y-5131820D01*
X32181820Y-5131820D01*
X32181820Y-6206820D02*
X32181820Y-6143180D01*
X32118180Y-6143180D01*
X32118180Y-6206820D01*
X32181820Y-6206820D01*
X32182320Y-7281820D02*
X32182320Y-7218180D01*
X32118680Y-7218180D01*
X32118680Y-7281820D01*
X32182320Y-7281820D01*
X32182820Y-8356820D02*
X32182820Y-8293180D01*
X32119180Y-8293180D01*
X32119180Y-8356820D01*
X32182820Y-8356820D01*
X32206820Y-11306820D02*
X32206820Y-11243180D01*
X32143180Y-11243180D01*
X32143180Y-11306820D01*
X32206820Y-11306820D01*
X32206820Y-12381820D02*
X32206820Y-12318180D01*
X32143180Y-12318180D01*
X32143180Y-12381820D01*
X32206820Y-12381820D01*
X32206820Y-13456820D02*
X32206820Y-13393180D01*
X32143180Y-13393180D01*
X32143180Y-13456820D01*
X32206820Y-13456820D01*
X32207320Y-14531820D02*
X32207320Y-14468180D01*
X32143680Y-14468180D01*
X32143680Y-14531820D01*
X32207320Y-14531820D01*
X32207820Y-15606820D02*
X32207820Y-15543180D01*
X32144180Y-15543180D01*
X32144180Y-15606820D01*
X32207820Y-15606820D01*
X32427820Y-3256820D02*
X32427820Y-3193180D01*
X32364180Y-3193180D01*
X32364180Y-3256820D01*
X32427820Y-3256820D01*
X32427820Y-9156820D02*
X32427820Y-9093180D01*
X32364180Y-9093180D01*
X32364180Y-9156820D01*
X32427820Y-9156820D01*
X32452820Y-10506820D02*
X32452820Y-10443180D01*
X32389180Y-10443180D01*
X32389180Y-10506820D01*
X32452820Y-10506820D01*
X32452820Y-16406820D02*
X32452820Y-16343180D01*
X32389180Y-16343180D01*
X32389180Y-16406820D01*
X32452820Y-16406820D01*
X32681820Y-3256820D02*
X32681820Y-3193180D01*
X32618180Y-3193180D01*
X32618180Y-3256820D01*
X32681820Y-3256820D01*
X32681820Y-9156820D02*
X32681820Y-9093180D01*
X32618180Y-9093180D01*
X32618180Y-9156820D01*
X32681820Y-9156820D01*
X32706820Y-10506820D02*
X32706820Y-10443180D01*
X32643180Y-10443180D01*
X32643180Y-10506820D01*
X32706820Y-10506820D01*
X32706820Y-16406820D02*
X32706820Y-16343180D01*
X32643180Y-16343180D01*
X32643180Y-16406820D01*
X32706820Y-16406820D01*
X32927820Y-4056820D02*
X32927820Y-3993180D01*
X32864180Y-3993180D01*
X32864180Y-4056820D01*
X32927820Y-4056820D01*
X32927820Y-5131820D02*
X32927820Y-5068180D01*
X32864180Y-5068180D01*
X32864180Y-5131820D01*
X32927820Y-5131820D01*
X32927820Y-6206820D02*
X32927820Y-6143180D01*
X32864180Y-6143180D01*
X32864180Y-6206820D01*
X32927820Y-6206820D01*
X32928320Y-7281820D02*
X32928320Y-7218180D01*
X32864680Y-7218180D01*
X32864680Y-7281820D01*
X32928320Y-7281820D01*
X32928820Y-8356820D02*
X32928820Y-8293180D01*
X32865180Y-8293180D01*
X32865180Y-8356820D01*
X32928820Y-8356820D01*
X32952820Y-11306820D02*
X32952820Y-11243180D01*
X32889180Y-11243180D01*
X32889180Y-11306820D01*
X32952820Y-11306820D01*
X32952820Y-12381820D02*
X32952820Y-12318180D01*
X32889180Y-12318180D01*
X32889180Y-12381820D01*
X32952820Y-12381820D01*
X32952820Y-13456820D02*
X32952820Y-13393180D01*
X32889180Y-13393180D01*
X32889180Y-13456820D01*
X32952820Y-13456820D01*
X32953320Y-14531820D02*
X32953320Y-14468180D01*
X32889680Y-14468180D01*
X32889680Y-14531820D01*
X32953320Y-14531820D01*
X32953820Y-15606820D02*
X32953820Y-15543180D01*
X32890180Y-15543180D01*
X32890180Y-15606820D01*
X32953820Y-15606820D01*
X33081820Y-2581820D02*
X33081820Y-2518180D01*
X33018180Y-2518180D01*
X33018180Y-2581820D01*
X33081820Y-2581820D01*
X33106820Y-9831820D02*
X33106820Y-9768180D01*
X33043180Y-9768180D01*
X33043180Y-9831820D01*
X33106820Y-9831820D01*
X33131820Y-17081820D02*
X33131820Y-17018180D01*
X33068180Y-17018180D01*
X33068180Y-17081820D01*
X33131820Y-17081820D01*
X33181820Y-4056820D02*
X33181820Y-3993180D01*
X33118180Y-3993180D01*
X33118180Y-4056820D01*
X33181820Y-4056820D01*
X33181820Y-5131820D02*
X33181820Y-5068180D01*
X33118180Y-5068180D01*
X33118180Y-5131820D01*
X33181820Y-5131820D01*
X33181820Y-6206820D02*
X33181820Y-6143180D01*
X33118180Y-6143180D01*
X33118180Y-6206820D01*
X33181820Y-6206820D01*
X33182320Y-7281820D02*
X33182320Y-7218180D01*
X33118680Y-7218180D01*
X33118680Y-7281820D01*
X33182320Y-7281820D01*
X33182820Y-8356820D02*
X33182820Y-8293180D01*
X33119180Y-8293180D01*
X33119180Y-8356820D01*
X33182820Y-8356820D01*
X33206820Y-11306820D02*
X33206820Y-11243180D01*
X33143180Y-11243180D01*
X33143180Y-11306820D01*
X33206820Y-11306820D01*
X33206820Y-12381820D02*
X33206820Y-12318180D01*
X33143180Y-12318180D01*
X33143180Y-12381820D01*
X33206820Y-12381820D01*
X33206820Y-13456820D02*
X33206820Y-13393180D01*
X33143180Y-13393180D01*
X33143180Y-13456820D01*
X33206820Y-13456820D01*
X33207320Y-14531820D02*
X33207320Y-14468180D01*
X33143680Y-14468180D01*
X33143680Y-14531820D01*
X33207320Y-14531820D01*
X33207820Y-15606820D02*
X33207820Y-15543180D01*
X33144180Y-15543180D01*
X33144180Y-15606820D01*
X33207820Y-15606820D01*
X33335820Y-2581820D02*
X33335820Y-2518180D01*
X33272180Y-2518180D01*
X33272180Y-2581820D01*
X33335820Y-2581820D01*
X33360820Y-9831820D02*
X33360820Y-9768180D01*
X33297180Y-9768180D01*
X33297180Y-9831820D01*
X33360820Y-9831820D01*
X33385820Y-17081820D02*
X33385820Y-17018180D01*
X33322180Y-17018180D01*
X33322180Y-17081820D01*
X33385820Y-17081820D01*
X33881820Y-2081820D02*
X33881820Y-2018180D01*
X33818180Y-2018180D01*
X33818180Y-2081820D01*
X33881820Y-2081820D01*
X33881820Y-3081820D02*
X33881820Y-3018180D01*
X33818180Y-3018180D01*
X33818180Y-3081820D01*
X33881820Y-3081820D01*
X33906820Y-9331820D02*
X33906820Y-9268180D01*
X33843180Y-9268180D01*
X33843180Y-9331820D01*
X33906820Y-9331820D01*
X33906820Y-10331820D02*
X33906820Y-10268180D01*
X33843180Y-10268180D01*
X33843180Y-10331820D01*
X33906820Y-10331820D01*
X33931820Y-16581820D02*
X33931820Y-16518180D01*
X33868180Y-16518180D01*
X33868180Y-16581820D01*
X33931820Y-16581820D01*
X33931820Y-17581820D02*
X33931820Y-17518180D01*
X33868180Y-17518180D01*
X33868180Y-17581820D01*
X33931820Y-17581820D01*
X34135820Y-2081820D02*
X34135820Y-2018180D01*
X34072180Y-2018180D01*
X34072180Y-2081820D01*
X34135820Y-2081820D01*
X34135820Y-3081820D02*
X34135820Y-3018180D01*
X34072180Y-3018180D01*
X34072180Y-3081820D01*
X34135820Y-3081820D01*
X34160820Y-9331820D02*
X34160820Y-9268180D01*
X34097180Y-9268180D01*
X34097180Y-9331820D01*
X34160820Y-9331820D01*
X34160820Y-10331820D02*
X34160820Y-10268180D01*
X34097180Y-10268180D01*
X34097180Y-10331820D01*
X34160820Y-10331820D01*
X34185820Y-16581820D02*
X34185820Y-16518180D01*
X34122180Y-16518180D01*
X34122180Y-16581820D01*
X34185820Y-16581820D01*
X34185820Y-17581820D02*
X34185820Y-17518180D01*
X34122180Y-17518180D01*
X34122180Y-17581820D01*
X34185820Y-17581820D01*
X34958320Y-2081820D02*
X34958320Y-2018180D01*
X34894680Y-2018180D01*
X34894680Y-2081820D01*
X34958320Y-2081820D01*
X34958320Y-3081820D02*
X34958320Y-3018180D01*
X34894680Y-3018180D01*
X34894680Y-3081820D01*
X34958320Y-3081820D01*
X34983320Y-9331820D02*
X34983320Y-9268180D01*
X34919680Y-9268180D01*
X34919680Y-9331820D01*
X34983320Y-9331820D01*
X34983320Y-10331820D02*
X34983320Y-10268180D01*
X34919680Y-10268180D01*
X34919680Y-10331820D01*
X34983320Y-10331820D01*
X35008320Y-16581820D02*
X35008320Y-16518180D01*
X34944680Y-16518180D01*
X34944680Y-16581820D01*
X35008320Y-16581820D01*
X35008320Y-17581820D02*
X35008320Y-17518180D01*
X34944680Y-17518180D01*
X34944680Y-17581820D01*
X35008320Y-17581820D01*
X35212320Y-2081820D02*
X35212320Y-2018180D01*
X35148680Y-2018180D01*
X35148680Y-2081820D01*
X35212320Y-2081820D01*
X35212320Y-3081820D02*
X35212320Y-3018180D01*
X35148680Y-3018180D01*
X35148680Y-3081820D01*
X35212320Y-3081820D01*
X35237320Y-9331820D02*
X35237320Y-9268180D01*
X35173680Y-9268180D01*
X35173680Y-9331820D01*
X35237320Y-9331820D01*
X35237320Y-10331820D02*
X35237320Y-10268180D01*
X35173680Y-10268180D01*
X35173680Y-10331820D01*
X35237320Y-10331820D01*
X35262320Y-16581820D02*
X35262320Y-16518180D01*
X35198680Y-16518180D01*
X35198680Y-16581820D01*
X35262320Y-16581820D01*
X35262320Y-17581820D02*
X35262320Y-17518180D01*
X35198680Y-17518180D01*
X35198680Y-17581820D01*
X35262320Y-17581820D01*
X36012320Y-2081820D02*
X36012320Y-2018180D01*
X35948680Y-2018180D01*
X35948680Y-2081820D01*
X36012320Y-2081820D01*
X36012320Y-3081820D02*
X36012320Y-3018180D01*
X35948680Y-3018180D01*
X35948680Y-3081820D01*
X36012320Y-3081820D01*
X36037320Y-9331820D02*
X36037320Y-9268180D01*
X35973680Y-9268180D01*
X35973680Y-9331820D01*
X36037320Y-9331820D01*
X36037320Y-10331820D02*
X36037320Y-10268180D01*
X35973680Y-10268180D01*
X35973680Y-10331820D01*
X36037320Y-10331820D01*
X36062320Y-16581820D02*
X36062320Y-16518180D01*
X35998680Y-16518180D01*
X35998680Y-16581820D01*
X36062320Y-16581820D01*
X36062320Y-17581820D02*
X36062320Y-17518180D01*
X35998680Y-17518180D01*
X35998680Y-17581820D01*
X36062320Y-17581820D01*
X36266320Y-2081820D02*
X36266320Y-2018180D01*
X36202680Y-2018180D01*
X36202680Y-2081820D01*
X36266320Y-2081820D01*
X36266320Y-3081820D02*
X36266320Y-3018180D01*
X36202680Y-3018180D01*
X36202680Y-3081820D01*
X36266320Y-3081820D01*
X36291320Y-9331820D02*
X36291320Y-9268180D01*
X36227680Y-9268180D01*
X36227680Y-9331820D01*
X36291320Y-9331820D01*
X36291320Y-10331820D02*
X36291320Y-10268180D01*
X36227680Y-10268180D01*
X36227680Y-10331820D01*
X36291320Y-10331820D01*
X36316320Y-16581820D02*
X36316320Y-16518180D01*
X36252680Y-16518180D01*
X36252680Y-16581820D01*
X36316320Y-16581820D01*
X36316320Y-17581820D02*
X36316320Y-17518180D01*
X36252680Y-17518180D01*
X36252680Y-17581820D01*
X36316320Y-17581820D01*
X37066320Y-2081820D02*
X37066320Y-2018180D01*
X37002680Y-2018180D01*
X37002680Y-2081820D01*
X37066320Y-2081820D01*
X37066320Y-3081820D02*
X37066320Y-3018180D01*
X37002680Y-3018180D01*
X37002680Y-3081820D01*
X37066320Y-3081820D01*
X37091320Y-9331820D02*
X37091320Y-9268180D01*
X37027680Y-9268180D01*
X37027680Y-9331820D01*
X37091320Y-9331820D01*
X37091320Y-10331820D02*
X37091320Y-10268180D01*
X37027680Y-10268180D01*
X37027680Y-10331820D01*
X37091320Y-10331820D01*
X37116320Y-16581820D02*
X37116320Y-16518180D01*
X37052680Y-16518180D01*
X37052680Y-16581820D01*
X37116320Y-16581820D01*
X37116320Y-17581820D02*
X37116320Y-17518180D01*
X37052680Y-17518180D01*
X37052680Y-17581820D01*
X37116320Y-17581820D01*
X37320320Y-2081820D02*
X37320320Y-2018180D01*
X37256680Y-2018180D01*
X37256680Y-2081820D01*
X37320320Y-2081820D01*
X37320320Y-3081820D02*
X37320320Y-3018180D01*
X37256680Y-3018180D01*
X37256680Y-3081820D01*
X37320320Y-3081820D01*
X37345320Y-9331820D02*
X37345320Y-9268180D01*
X37281680Y-9268180D01*
X37281680Y-9331820D01*
X37345320Y-9331820D01*
X37345320Y-10331820D02*
X37345320Y-10268180D01*
X37281680Y-10268180D01*
X37281680Y-10331820D01*
X37345320Y-10331820D01*
X37370320Y-16581820D02*
X37370320Y-16518180D01*
X37306680Y-16518180D01*
X37306680Y-16581820D01*
X37370320Y-16581820D01*
X37370320Y-17581820D02*
X37370320Y-17518180D01*
X37306680Y-17518180D01*
X37306680Y-17581820D01*
X37370320Y-17581820D01*
X38120320Y-2081820D02*
X38120320Y-2018180D01*
X38056680Y-2018180D01*
X38056680Y-2081820D01*
X38120320Y-2081820D01*
X38120320Y-3081820D02*
X38120320Y-3018180D01*
X38056680Y-3018180D01*
X38056680Y-3081820D01*
X38120320Y-3081820D01*
X38145320Y-9331820D02*
X38145320Y-9268180D01*
X38081680Y-9268180D01*
X38081680Y-9331820D01*
X38145320Y-9331820D01*
X38145320Y-10331820D02*
X38145320Y-10268180D01*
X38081680Y-10268180D01*
X38081680Y-10331820D01*
X38145320Y-10331820D01*
X38170320Y-16581820D02*
X38170320Y-16518180D01*
X38106680Y-16518180D01*
X38106680Y-16581820D01*
X38170320Y-16581820D01*
X38170320Y-17581820D02*
X38170320Y-17518180D01*
X38106680Y-17518180D01*
X38106680Y-17581820D01*
X38170320Y-17581820D01*
X38374320Y-2081820D02*
X38374320Y-2018180D01*
X38310680Y-2018180D01*
X38310680Y-2081820D01*
X38374320Y-2081820D01*
X38374320Y-3081820D02*
X38374320Y-3018180D01*
X38310680Y-3018180D01*
X38310680Y-3081820D01*
X38374320Y-3081820D01*
X38399320Y-9331820D02*
X38399320Y-9268180D01*
X38335680Y-9268180D01*
X38335680Y-9331820D01*
X38399320Y-9331820D01*
X38399320Y-10331820D02*
X38399320Y-10268180D01*
X38335680Y-10268180D01*
X38335680Y-10331820D01*
X38399320Y-10331820D01*
X38424320Y-16581820D02*
X38424320Y-16518180D01*
X38360680Y-16518180D01*
X38360680Y-16581820D01*
X38424320Y-16581820D01*
X38424320Y-17581820D02*
X38424320Y-17518180D01*
X38360680Y-17518180D01*
X38360680Y-17581820D01*
X38424320Y-17581820D01*
X38927820Y-2581820D02*
X38927820Y-2518180D01*
X38864180Y-2518180D01*
X38864180Y-2581820D01*
X38927820Y-2581820D01*
X38952820Y-9831820D02*
X38952820Y-9768180D01*
X38889180Y-9768180D01*
X38889180Y-9831820D01*
X38952820Y-9831820D01*
X38977820Y-17081820D02*
X38977820Y-17018180D01*
X38914180Y-17018180D01*
X38914180Y-17081820D01*
X38977820Y-17081820D01*
X39105320Y-4056820D02*
X39105320Y-3993180D01*
X39041680Y-3993180D01*
X39041680Y-4056820D01*
X39105320Y-4056820D01*
X39105320Y-5131820D02*
X39105320Y-5068180D01*
X39041680Y-5068180D01*
X39041680Y-5131820D01*
X39105320Y-5131820D01*
X39105320Y-6206820D02*
X39105320Y-6143180D01*
X39041680Y-6143180D01*
X39041680Y-6206820D01*
X39105320Y-6206820D01*
X39105820Y-7281820D02*
X39105820Y-7218180D01*
X39042180Y-7218180D01*
X39042180Y-7281820D01*
X39105820Y-7281820D01*
X39106320Y-8356820D02*
X39106320Y-8293180D01*
X39042680Y-8293180D01*
X39042680Y-8356820D01*
X39106320Y-8356820D01*
X39130320Y-11306820D02*
X39130320Y-11243180D01*
X39066680Y-11243180D01*
X39066680Y-11306820D01*
X39130320Y-11306820D01*
X39130320Y-12381820D02*
X39130320Y-12318180D01*
X39066680Y-12318180D01*
X39066680Y-12381820D01*
X39130320Y-12381820D01*
X39130320Y-13456820D02*
X39130320Y-13393180D01*
X39066680Y-13393180D01*
X39066680Y-13456820D01*
X39130320Y-13456820D01*
X39130820Y-14531820D02*
X39130820Y-14468180D01*
X39067180Y-14468180D01*
X39067180Y-14531820D01*
X39130820Y-14531820D01*
X39131320Y-15606820D02*
X39131320Y-15543180D01*
X39067680Y-15543180D01*
X39067680Y-15606820D01*
X39131320Y-15606820D01*
X39181820Y-2581820D02*
X39181820Y-2518180D01*
X39118180Y-2518180D01*
X39118180Y-2581820D01*
X39181820Y-2581820D01*
X39206820Y-9831820D02*
X39206820Y-9768180D01*
X39143180Y-9768180D01*
X39143180Y-9831820D01*
X39206820Y-9831820D01*
X39231820Y-17081820D02*
X39231820Y-17018180D01*
X39168180Y-17018180D01*
X39168180Y-17081820D01*
X39231820Y-17081820D01*
X39359320Y-4056820D02*
X39359320Y-3993180D01*
X39295680Y-3993180D01*
X39295680Y-4056820D01*
X39359320Y-4056820D01*
X39359320Y-5131820D02*
X39359320Y-5068180D01*
X39295680Y-5068180D01*
X39295680Y-5131820D01*
X39359320Y-5131820D01*
X39359320Y-6206820D02*
X39359320Y-6143180D01*
X39295680Y-6143180D01*
X39295680Y-6206820D01*
X39359320Y-6206820D01*
X39359820Y-7281820D02*
X39359820Y-7218180D01*
X39296180Y-7218180D01*
X39296180Y-7281820D01*
X39359820Y-7281820D01*
X39360320Y-8356820D02*
X39360320Y-8293180D01*
X39296680Y-8293180D01*
X39296680Y-8356820D01*
X39360320Y-8356820D01*
X39384320Y-11306820D02*
X39384320Y-11243180D01*
X39320680Y-11243180D01*
X39320680Y-11306820D01*
X39384320Y-11306820D01*
X39384320Y-12381820D02*
X39384320Y-12318180D01*
X39320680Y-12318180D01*
X39320680Y-12381820D01*
X39384320Y-12381820D01*
X39384320Y-13456820D02*
X39384320Y-13393180D01*
X39320680Y-13393180D01*
X39320680Y-13456820D01*
X39384320Y-13456820D01*
X39384820Y-14531820D02*
X39384820Y-14468180D01*
X39321180Y-14468180D01*
X39321180Y-14531820D01*
X39384820Y-14531820D01*
X39385320Y-15606820D02*
X39385320Y-15543180D01*
X39321680Y-15543180D01*
X39321680Y-15606820D01*
X39385320Y-15606820D01*
X39605320Y-3256820D02*
X39605320Y-3193180D01*
X39541680Y-3193180D01*
X39541680Y-3256820D01*
X39605320Y-3256820D01*
X39605320Y-9156820D02*
X39605320Y-9093180D01*
X39541680Y-9093180D01*
X39541680Y-9156820D01*
X39605320Y-9156820D01*
X39630320Y-10506820D02*
X39630320Y-10443180D01*
X39566680Y-10443180D01*
X39566680Y-10506820D01*
X39630320Y-10506820D01*
X39630320Y-16406820D02*
X39630320Y-16343180D01*
X39566680Y-16343180D01*
X39566680Y-16406820D01*
X39630320Y-16406820D01*
X39859320Y-3256820D02*
X39859320Y-3193180D01*
X39795680Y-3193180D01*
X39795680Y-3256820D01*
X39859320Y-3256820D01*
X39859320Y-9156820D02*
X39859320Y-9093180D01*
X39795680Y-9093180D01*
X39795680Y-9156820D01*
X39859320Y-9156820D01*
X39884320Y-10506820D02*
X39884320Y-10443180D01*
X39820680Y-10443180D01*
X39820680Y-10506820D01*
X39884320Y-10506820D01*
X39884320Y-16406820D02*
X39884320Y-16343180D01*
X39820680Y-16343180D01*
X39820680Y-16406820D01*
X39884320Y-16406820D01*
X40105320Y-4056820D02*
X40105320Y-3993180D01*
X40041680Y-3993180D01*
X40041680Y-4056820D01*
X40105320Y-4056820D01*
X40105320Y-5131820D02*
X40105320Y-5068180D01*
X40041680Y-5068180D01*
X40041680Y-5131820D01*
X40105320Y-5131820D01*
X40105320Y-6206820D02*
X40105320Y-6143180D01*
X40041680Y-6143180D01*
X40041680Y-6206820D01*
X40105320Y-6206820D01*
X40105820Y-7281820D02*
X40105820Y-7218180D01*
X40042180Y-7218180D01*
X40042180Y-7281820D01*
X40105820Y-7281820D01*
X40106320Y-8356820D02*
X40106320Y-8293180D01*
X40042680Y-8293180D01*
X40042680Y-8356820D01*
X40106320Y-8356820D01*
X40130320Y-11306820D02*
X40130320Y-11243180D01*
X40066680Y-11243180D01*
X40066680Y-11306820D01*
X40130320Y-11306820D01*
X40130320Y-12381820D02*
X40130320Y-12318180D01*
X40066680Y-12318180D01*
X40066680Y-12381820D01*
X40130320Y-12381820D01*
X40130320Y-13456820D02*
X40130320Y-13393180D01*
X40066680Y-13393180D01*
X40066680Y-13456820D01*
X40130320Y-13456820D01*
X40130820Y-14531820D02*
X40130820Y-14468180D01*
X40067180Y-14468180D01*
X40067180Y-14531820D01*
X40130820Y-14531820D01*
X40131320Y-15606820D02*
X40131320Y-15543180D01*
X40067680Y-15543180D01*
X40067680Y-15606820D01*
X40131320Y-15606820D01*
X40359320Y-4056820D02*
X40359320Y-3993180D01*
X40295680Y-3993180D01*
X40295680Y-4056820D01*
X40359320Y-4056820D01*
X40359320Y-5131820D02*
X40359320Y-5068180D01*
X40295680Y-5068180D01*
X40295680Y-5131820D01*
X40359320Y-5131820D01*
X40359320Y-6206820D02*
X40359320Y-6143180D01*
X40295680Y-6143180D01*
X40295680Y-6206820D01*
X40359320Y-6206820D01*
X40359820Y-7281820D02*
X40359820Y-7218180D01*
X40296180Y-7218180D01*
X40296180Y-7281820D01*
X40359820Y-7281820D01*
X40360320Y-8356820D02*
X40360320Y-8293180D01*
X40296680Y-8293180D01*
X40296680Y-8356820D01*
X40360320Y-8356820D01*
X40384320Y-11306820D02*
X40384320Y-11243180D01*
X40320680Y-11243180D01*
X40320680Y-11306820D01*
X40384320Y-11306820D01*
X40384320Y-12381820D02*
X40384320Y-12318180D01*
X40320680Y-12318180D01*
X40320680Y-12381820D01*
X40384320Y-12381820D01*
X40384320Y-13456820D02*
X40384320Y-13393180D01*
X40320680Y-13393180D01*
X40320680Y-13456820D01*
X40384320Y-13456820D01*
X40384820Y-14531820D02*
X40384820Y-14468180D01*
X40321180Y-14468180D01*
X40321180Y-14531820D01*
X40384820Y-14531820D01*
X40385320Y-15606820D02*
X40385320Y-15543180D01*
X40321680Y-15543180D01*
X40321680Y-15606820D01*
X40385320Y-15606820D01*
D16*
X35234500Y-14525000D02*
X35284500Y-14475000D01*
X35234500Y-14425000D01*
X35184500Y-14475000D01*
X35234500Y-14525000D01*
X35234500Y-14950000D02*
X35284500Y-14900000D01*
X35234500Y-14850000D01*
X35184500Y-14900000D01*
X35234500Y-14950000D01*
X35488500Y-14525000D02*
X35538500Y-14475000D01*
X35488500Y-14425000D01*
X35438500Y-14475000D01*
X35488500Y-14525000D01*
X35488500Y-14950000D02*
X35538500Y-14900000D01*
X35488500Y-14850000D01*
X35438500Y-14900000D01*
X35488500Y-14950000D01*
X35742500Y-14525000D02*
X35792500Y-14475000D01*
X35742500Y-14425000D01*
X35692500Y-14475000D01*
X35742500Y-14525000D01*
X35742500Y-14950000D02*
X35792500Y-14900000D01*
X35742500Y-14850000D01*
X35692500Y-14900000D01*
X35742500Y-14950000D01*
X35996500Y-14525000D02*
X36046500Y-14475000D01*
X35996500Y-14425000D01*
X35946500Y-14475000D01*
X35996500Y-14525000D01*
X35996500Y-14950000D02*
X36046500Y-14900000D01*
X35996500Y-14850000D01*
X35946500Y-14900000D01*
X35996500Y-14950000D01*
X36250500Y-14525000D02*
X36300500Y-14475000D01*
X36250500Y-14425000D01*
X36200500Y-14475000D01*
X36250500Y-14525000D01*
X36250500Y-14950000D02*
X36300500Y-14900000D01*
X36250500Y-14850000D01*
X36200500Y-14900000D01*
X36250500Y-14950000D01*
X36504500Y-14525000D02*
X36554500Y-14475000D01*
X36504500Y-14425000D01*
X36454500Y-14475000D01*
X36504500Y-14525000D01*
X36504500Y-14950000D02*
X36554500Y-14900000D01*
X36504500Y-14850000D01*
X36454500Y-14900000D01*
X36504500Y-14950000D01*
X36758500Y-14525000D02*
X36808500Y-14475000D01*
X36758500Y-14425000D01*
X36708500Y-14475000D01*
X36758500Y-14525000D01*
X36758500Y-14950000D02*
X36808500Y-14900000D01*
X36758500Y-14850000D01*
X36708500Y-14900000D01*
X36758500Y-14950000D01*
X37012500Y-14525000D02*
X37062500Y-14475000D01*
X37012500Y-14425000D01*
X36962500Y-14475000D01*
X37012500Y-14525000D01*
X37012500Y-14950000D02*
X37062500Y-14900000D01*
X37012500Y-14850000D01*
X36962500Y-14900000D01*
X37012500Y-14950000D01*
D17*
X31800000Y-1925000D02*
X32200000Y-2325000D01*
X32200000Y-1925000D02*
X31800000Y-2325000D01*
X32200000Y-2125000D02*
G75*
G03*
X32200000Y-2125000I-200000J0D01*
G01*
X31825000Y-17825000D02*
X32225000Y-18225000D01*
X32225000Y-17825000D02*
X31825000Y-18225000D01*
X32225000Y-18025000D02*
G75*
G03*
X32225000Y-18025000I-200000J0D01*
G01*
X40400000Y-1975000D02*
X40800000Y-2375000D01*
X40800000Y-1975000D02*
X40400000Y-2375000D01*
X40800000Y-2175000D02*
G75*
G03*
X40800000Y-2175000I-200000J0D01*
G01*
X40400000Y-17800000D02*
X40800000Y-18200000D01*
X40800000Y-17800000D02*
X40400000Y-18200000D01*
X40800000Y-18000000D02*
G75*
G03*
X40800000Y-18000000I-200000J0D01*
G01*
D11*
X31627619Y-18990476D02*
X31627619Y-18790476D01*
X31675238Y-18790476D01*
X31703809Y-18800000D01*
X31722857Y-18819048D01*
X31732381Y-18838095D01*
X31741905Y-18876190D01*
X31741905Y-18904762D01*
X31732381Y-18942857D01*
X31722857Y-18961905D01*
X31703809Y-18980952D01*
X31675238Y-18990476D01*
X31627619Y-18990476D01*
X31827619Y-18990476D02*
X31827619Y-18857143D01*
X31827619Y-18895238D02*
X31837143Y-18876190D01*
X31846667Y-18866667D01*
X31865714Y-18857143D01*
X31884762Y-18857143D01*
X31951428Y-18990476D02*
X31951428Y-18857143D01*
X31951428Y-18790476D02*
X31941905Y-18800000D01*
X31951428Y-18809524D01*
X31960952Y-18800000D01*
X31951428Y-18790476D01*
X31951428Y-18809524D01*
X32075238Y-18990476D02*
X32056190Y-18980952D01*
X32046667Y-18961905D01*
X32046667Y-18790476D01*
X32180000Y-18990476D02*
X32160952Y-18980952D01*
X32151428Y-18961905D01*
X32151428Y-18790476D01*
X32408571Y-18990476D02*
X32408571Y-18790476D01*
X32475238Y-18933333D01*
X32541905Y-18790476D01*
X32541905Y-18990476D01*
X32722857Y-18990476D02*
X32722857Y-18885714D01*
X32713333Y-18866667D01*
X32694286Y-18857143D01*
X32656190Y-18857143D01*
X32637143Y-18866667D01*
X32722857Y-18980952D02*
X32703809Y-18990476D01*
X32656190Y-18990476D01*
X32637143Y-18980952D01*
X32627619Y-18961905D01*
X32627619Y-18942857D01*
X32637143Y-18923810D01*
X32656190Y-18914286D01*
X32703809Y-18914286D01*
X32722857Y-18904762D01*
X32818095Y-18857143D02*
X32818095Y-19057143D01*
X32818095Y-18866667D02*
X32837143Y-18857143D01*
X32875238Y-18857143D01*
X32894286Y-18866667D01*
X32903809Y-18876190D01*
X32913333Y-18895238D01*
X32913333Y-18952381D01*
X32903809Y-18971429D01*
X32894286Y-18980952D01*
X32875238Y-18990476D01*
X32837143Y-18990476D01*
X32818095Y-18980952D01*
X32999048Y-18971429D02*
X33008571Y-18980952D01*
X32999048Y-18990476D01*
X32989524Y-18980952D01*
X32999048Y-18971429D01*
X32999048Y-18990476D01*
X32999048Y-18866667D02*
X33008571Y-18876190D01*
X32999048Y-18885714D01*
X32989524Y-18876190D01*
X32999048Y-18866667D01*
X32999048Y-18885714D01*
D12*
X31310000Y-19290000D02*
X31370000Y-19350000D01*
X31370000Y-19290000D02*
X31310000Y-19350000D01*
D11*
X31665714Y-19210476D02*
X31684762Y-19210476D01*
X31703809Y-19220000D01*
X31713333Y-19229524D01*
X31722857Y-19248571D01*
X31732381Y-19286667D01*
X31732381Y-19334286D01*
X31722857Y-19372381D01*
X31713333Y-19391429D01*
X31703809Y-19400952D01*
X31684762Y-19410476D01*
X31665714Y-19410476D01*
X31646667Y-19400952D01*
X31637143Y-19391429D01*
X31627619Y-19372381D01*
X31618095Y-19334286D01*
X31618095Y-19286667D01*
X31627619Y-19248571D01*
X31637143Y-19229524D01*
X31646667Y-19220000D01*
X31665714Y-19210476D01*
X31818095Y-19391429D02*
X31827619Y-19400952D01*
X31818095Y-19410476D01*
X31808571Y-19400952D01*
X31818095Y-19391429D01*
X31818095Y-19410476D01*
X31999048Y-19210476D02*
X31960952Y-19210476D01*
X31941905Y-19220000D01*
X31932381Y-19229524D01*
X31913333Y-19258095D01*
X31903809Y-19296190D01*
X31903809Y-19372381D01*
X31913333Y-19391429D01*
X31922857Y-19400952D01*
X31941905Y-19410476D01*
X31980000Y-19410476D01*
X31999048Y-19400952D01*
X32008571Y-19391429D01*
X32018095Y-19372381D01*
X32018095Y-19324762D01*
X32008571Y-19305714D01*
X31999048Y-19296190D01*
X31980000Y-19286667D01*
X31941905Y-19286667D01*
X31922857Y-19296190D01*
X31913333Y-19305714D01*
X31903809Y-19324762D01*
X32141905Y-19210476D02*
X32160952Y-19210476D01*
X32180000Y-19220000D01*
X32189524Y-19229524D01*
X32199048Y-19248571D01*
X32208571Y-19286667D01*
X32208571Y-19334286D01*
X32199048Y-19372381D01*
X32189524Y-19391429D01*
X32180000Y-19400952D01*
X32160952Y-19410476D01*
X32141905Y-19410476D01*
X32122857Y-19400952D01*
X32113333Y-19391429D01*
X32103809Y-19372381D01*
X32094286Y-19334286D01*
X32094286Y-19286667D01*
X32103809Y-19248571D01*
X32113333Y-19229524D01*
X32122857Y-19220000D01*
X32141905Y-19210476D01*
X32332381Y-19210476D02*
X32351428Y-19210476D01*
X32370476Y-19220000D01*
X32380000Y-19229524D01*
X32389524Y-19248571D01*
X32399048Y-19286667D01*
X32399048Y-19334286D01*
X32389524Y-19372381D01*
X32380000Y-19391429D01*
X32370476Y-19400952D01*
X32351428Y-19410476D01*
X32332381Y-19410476D01*
X32313333Y-19400952D01*
X32303809Y-19391429D01*
X32294286Y-19372381D01*
X32284762Y-19334286D01*
X32284762Y-19286667D01*
X32294286Y-19248571D01*
X32303809Y-19229524D01*
X32313333Y-19220000D01*
X32332381Y-19210476D01*
X32484762Y-19410476D02*
X32484762Y-19277143D01*
X32484762Y-19296190D02*
X32494286Y-19286667D01*
X32513333Y-19277143D01*
X32541905Y-19277143D01*
X32560952Y-19286667D01*
X32570476Y-19305714D01*
X32570476Y-19410476D01*
X32570476Y-19305714D02*
X32580000Y-19286667D01*
X32599048Y-19277143D01*
X32627619Y-19277143D01*
X32646667Y-19286667D01*
X32656190Y-19305714D01*
X32656190Y-19410476D01*
X32751428Y-19410476D02*
X32751428Y-19277143D01*
X32751428Y-19296190D02*
X32760952Y-19286667D01*
X32780000Y-19277143D01*
X32808571Y-19277143D01*
X32827619Y-19286667D01*
X32837143Y-19305714D01*
X32837143Y-19410476D01*
X32837143Y-19305714D02*
X32846667Y-19286667D01*
X32865714Y-19277143D01*
X32894286Y-19277143D01*
X32913333Y-19286667D01*
X32922857Y-19305714D01*
X32922857Y-19410476D01*
X33313333Y-19200952D02*
X33141905Y-19458095D01*
X33570476Y-19210476D02*
X33589524Y-19210476D01*
X33608571Y-19220000D01*
X33618095Y-19229524D01*
X33627619Y-19248571D01*
X33637143Y-19286667D01*
X33637143Y-19334286D01*
X33627619Y-19372381D01*
X33618095Y-19391429D01*
X33608571Y-19400952D01*
X33589524Y-19410476D01*
X33570476Y-19410476D01*
X33551428Y-19400952D01*
X33541905Y-19391429D01*
X33532381Y-19372381D01*
X33522857Y-19334286D01*
X33522857Y-19286667D01*
X33532381Y-19248571D01*
X33541905Y-19229524D01*
X33551428Y-19220000D01*
X33570476Y-19210476D01*
X33722857Y-19391429D02*
X33732381Y-19400952D01*
X33722857Y-19410476D01*
X33713333Y-19400952D01*
X33722857Y-19391429D01*
X33722857Y-19410476D01*
X33856190Y-19210476D02*
X33875238Y-19210476D01*
X33894286Y-19220000D01*
X33903810Y-19229524D01*
X33913333Y-19248571D01*
X33922857Y-19286667D01*
X33922857Y-19334286D01*
X33913333Y-19372381D01*
X33903810Y-19391429D01*
X33894286Y-19400952D01*
X33875238Y-19410476D01*
X33856190Y-19410476D01*
X33837143Y-19400952D01*
X33827619Y-19391429D01*
X33818095Y-19372381D01*
X33808571Y-19334286D01*
X33808571Y-19286667D01*
X33818095Y-19248571D01*
X33827619Y-19229524D01*
X33837143Y-19220000D01*
X33856190Y-19210476D01*
X33999048Y-19229524D02*
X34008571Y-19220000D01*
X34027619Y-19210476D01*
X34075238Y-19210476D01*
X34094286Y-19220000D01*
X34103810Y-19229524D01*
X34113333Y-19248571D01*
X34113333Y-19267619D01*
X34103810Y-19296190D01*
X33989524Y-19410476D01*
X34113333Y-19410476D01*
X34180000Y-19210476D02*
X34303810Y-19210476D01*
X34237143Y-19286667D01*
X34265714Y-19286667D01*
X34284762Y-19296190D01*
X34294286Y-19305714D01*
X34303810Y-19324762D01*
X34303810Y-19372381D01*
X34294286Y-19391429D01*
X34284762Y-19400952D01*
X34265714Y-19410476D01*
X34208571Y-19410476D01*
X34189524Y-19400952D01*
X34180000Y-19391429D01*
X34475238Y-19210476D02*
X34437143Y-19210476D01*
X34418095Y-19220000D01*
X34408571Y-19229524D01*
X34389524Y-19258095D01*
X34380000Y-19296190D01*
X34380000Y-19372381D01*
X34389524Y-19391429D01*
X34399048Y-19400952D01*
X34418095Y-19410476D01*
X34456190Y-19410476D01*
X34475238Y-19400952D01*
X34484762Y-19391429D01*
X34494286Y-19372381D01*
X34494286Y-19324762D01*
X34484762Y-19305714D01*
X34475238Y-19296190D01*
X34456190Y-19286667D01*
X34418095Y-19286667D01*
X34399048Y-19296190D01*
X34389524Y-19305714D01*
X34380000Y-19324762D01*
X34570476Y-19210476D02*
X34570476Y-19248571D01*
X34646667Y-19210476D02*
X34646667Y-19248571D01*
X34941905Y-19486667D02*
X34932381Y-19477143D01*
X34913333Y-19448571D01*
X34903810Y-19429524D01*
X34894286Y-19400952D01*
X34884762Y-19353333D01*
X34884762Y-19315238D01*
X34894286Y-19267619D01*
X34903810Y-19239048D01*
X34913333Y-19220000D01*
X34932381Y-19191429D01*
X34941905Y-19181905D01*
X34999048Y-19210476D02*
X35122857Y-19210476D01*
X35056190Y-19286667D01*
X35084762Y-19286667D01*
X35103810Y-19296190D01*
X35113333Y-19305714D01*
X35122857Y-19324762D01*
X35122857Y-19372381D01*
X35113333Y-19391429D01*
X35103810Y-19400952D01*
X35084762Y-19410476D01*
X35027619Y-19410476D01*
X35008571Y-19400952D01*
X34999048Y-19391429D01*
X35199048Y-19229524D02*
X35208571Y-19220000D01*
X35227619Y-19210476D01*
X35275238Y-19210476D01*
X35294286Y-19220000D01*
X35303810Y-19229524D01*
X35313333Y-19248571D01*
X35313333Y-19267619D01*
X35303810Y-19296190D01*
X35189524Y-19410476D01*
X35313333Y-19410476D01*
X35551429Y-19410476D02*
X35551429Y-19210476D01*
X35637143Y-19410476D02*
X35637143Y-19305714D01*
X35627619Y-19286667D01*
X35608571Y-19277143D01*
X35580000Y-19277143D01*
X35560952Y-19286667D01*
X35551429Y-19296190D01*
X35760952Y-19410476D02*
X35741905Y-19400952D01*
X35732381Y-19391429D01*
X35722857Y-19372381D01*
X35722857Y-19315238D01*
X35732381Y-19296190D01*
X35741905Y-19286667D01*
X35760952Y-19277143D01*
X35789524Y-19277143D01*
X35808571Y-19286667D01*
X35818095Y-19296190D01*
X35827619Y-19315238D01*
X35827619Y-19372381D01*
X35818095Y-19391429D01*
X35808571Y-19400952D01*
X35789524Y-19410476D01*
X35760952Y-19410476D01*
X35941905Y-19410476D02*
X35922857Y-19400952D01*
X35913333Y-19381905D01*
X35913333Y-19210476D01*
X36094286Y-19400952D02*
X36075238Y-19410476D01*
X36037143Y-19410476D01*
X36018095Y-19400952D01*
X36008571Y-19381905D01*
X36008571Y-19305714D01*
X36018095Y-19286667D01*
X36037143Y-19277143D01*
X36075238Y-19277143D01*
X36094286Y-19286667D01*
X36103810Y-19305714D01*
X36103810Y-19324762D01*
X36008571Y-19343810D01*
X36180000Y-19400952D02*
X36199048Y-19410476D01*
X36237143Y-19410476D01*
X36256190Y-19400952D01*
X36265714Y-19381905D01*
X36265714Y-19372381D01*
X36256190Y-19353333D01*
X36237143Y-19343810D01*
X36208571Y-19343810D01*
X36189524Y-19334286D01*
X36180000Y-19315238D01*
X36180000Y-19305714D01*
X36189524Y-19286667D01*
X36208571Y-19277143D01*
X36237143Y-19277143D01*
X36256190Y-19286667D01*
X36332381Y-19486667D02*
X36341905Y-19477143D01*
X36360952Y-19448571D01*
X36370476Y-19429524D01*
X36380000Y-19400952D01*
X36389524Y-19353333D01*
X36389524Y-19315238D01*
X36380000Y-19267619D01*
X36370476Y-19239048D01*
X36360952Y-19220000D01*
X36341905Y-19191429D01*
X36332381Y-19181905D01*
D13*
X31370000Y-19584000D02*
G75*
G03*
X31370000Y-19584000I-35000J0D01*
G01*
D11*
X31665714Y-19474476D02*
X31684762Y-19474476D01*
X31703809Y-19484000D01*
X31713333Y-19493524D01*
X31722857Y-19512571D01*
X31732381Y-19550667D01*
X31732381Y-19598286D01*
X31722857Y-19636381D01*
X31713333Y-19655429D01*
X31703809Y-19664952D01*
X31684762Y-19674476D01*
X31665714Y-19674476D01*
X31646667Y-19664952D01*
X31637143Y-19655429D01*
X31627619Y-19636381D01*
X31618095Y-19598286D01*
X31618095Y-19550667D01*
X31627619Y-19512571D01*
X31637143Y-19493524D01*
X31646667Y-19484000D01*
X31665714Y-19474476D01*
X31818095Y-19655429D02*
X31827619Y-19664952D01*
X31818095Y-19674476D01*
X31808571Y-19664952D01*
X31818095Y-19655429D01*
X31818095Y-19674476D01*
X31894286Y-19474476D02*
X32027619Y-19474476D01*
X31941905Y-19674476D01*
X32141905Y-19474476D02*
X32160952Y-19474476D01*
X32180000Y-19484000D01*
X32189524Y-19493524D01*
X32199048Y-19512571D01*
X32208571Y-19550667D01*
X32208571Y-19598286D01*
X32199048Y-19636381D01*
X32189524Y-19655429D01*
X32180000Y-19664952D01*
X32160952Y-19674476D01*
X32141905Y-19674476D01*
X32122857Y-19664952D01*
X32113333Y-19655429D01*
X32103809Y-19636381D01*
X32094286Y-19598286D01*
X32094286Y-19550667D01*
X32103809Y-19512571D01*
X32113333Y-19493524D01*
X32122857Y-19484000D01*
X32141905Y-19474476D01*
X32332381Y-19474476D02*
X32351428Y-19474476D01*
X32370476Y-19484000D01*
X32380000Y-19493524D01*
X32389524Y-19512571D01*
X32399048Y-19550667D01*
X32399048Y-19598286D01*
X32389524Y-19636381D01*
X32380000Y-19655429D01*
X32370476Y-19664952D01*
X32351428Y-19674476D01*
X32332381Y-19674476D01*
X32313333Y-19664952D01*
X32303809Y-19655429D01*
X32294286Y-19636381D01*
X32284762Y-19598286D01*
X32284762Y-19550667D01*
X32294286Y-19512571D01*
X32303809Y-19493524D01*
X32313333Y-19484000D01*
X32332381Y-19474476D01*
X32484762Y-19674476D02*
X32484762Y-19541143D01*
X32484762Y-19560190D02*
X32494286Y-19550667D01*
X32513333Y-19541143D01*
X32541905Y-19541143D01*
X32560952Y-19550667D01*
X32570476Y-19569714D01*
X32570476Y-19674476D01*
X32570476Y-19569714D02*
X32580000Y-19550667D01*
X32599048Y-19541143D01*
X32627619Y-19541143D01*
X32646667Y-19550667D01*
X32656190Y-19569714D01*
X32656190Y-19674476D01*
X32751428Y-19674476D02*
X32751428Y-19541143D01*
X32751428Y-19560190D02*
X32760952Y-19550667D01*
X32780000Y-19541143D01*
X32808571Y-19541143D01*
X32827619Y-19550667D01*
X32837143Y-19569714D01*
X32837143Y-19674476D01*
X32837143Y-19569714D02*
X32846667Y-19550667D01*
X32865714Y-19541143D01*
X32894286Y-19541143D01*
X32913333Y-19550667D01*
X32922857Y-19569714D01*
X32922857Y-19674476D01*
X33313333Y-19464952D02*
X33141905Y-19722095D01*
X33570476Y-19474476D02*
X33589524Y-19474476D01*
X33608571Y-19484000D01*
X33618095Y-19493524D01*
X33627619Y-19512571D01*
X33637143Y-19550667D01*
X33637143Y-19598286D01*
X33627619Y-19636381D01*
X33618095Y-19655429D01*
X33608571Y-19664952D01*
X33589524Y-19674476D01*
X33570476Y-19674476D01*
X33551428Y-19664952D01*
X33541905Y-19655429D01*
X33532381Y-19636381D01*
X33522857Y-19598286D01*
X33522857Y-19550667D01*
X33532381Y-19512571D01*
X33541905Y-19493524D01*
X33551428Y-19484000D01*
X33570476Y-19474476D01*
X33722857Y-19655429D02*
X33732381Y-19664952D01*
X33722857Y-19674476D01*
X33713333Y-19664952D01*
X33722857Y-19655429D01*
X33722857Y-19674476D01*
X33856190Y-19474476D02*
X33875238Y-19474476D01*
X33894286Y-19484000D01*
X33903810Y-19493524D01*
X33913333Y-19512571D01*
X33922857Y-19550667D01*
X33922857Y-19598286D01*
X33913333Y-19636381D01*
X33903810Y-19655429D01*
X33894286Y-19664952D01*
X33875238Y-19674476D01*
X33856190Y-19674476D01*
X33837143Y-19664952D01*
X33827619Y-19655429D01*
X33818095Y-19636381D01*
X33808571Y-19598286D01*
X33808571Y-19550667D01*
X33818095Y-19512571D01*
X33827619Y-19493524D01*
X33837143Y-19484000D01*
X33856190Y-19474476D01*
X33999048Y-19493524D02*
X34008571Y-19484000D01*
X34027619Y-19474476D01*
X34075238Y-19474476D01*
X34094286Y-19484000D01*
X34103810Y-19493524D01*
X34113333Y-19512571D01*
X34113333Y-19531619D01*
X34103810Y-19560190D01*
X33989524Y-19674476D01*
X34113333Y-19674476D01*
X34180000Y-19474476D02*
X34313333Y-19474476D01*
X34227619Y-19674476D01*
X34475238Y-19474476D02*
X34437143Y-19474476D01*
X34418095Y-19484000D01*
X34408571Y-19493524D01*
X34389524Y-19522095D01*
X34380000Y-19560190D01*
X34380000Y-19636381D01*
X34389524Y-19655429D01*
X34399048Y-19664952D01*
X34418095Y-19674476D01*
X34456190Y-19674476D01*
X34475238Y-19664952D01*
X34484762Y-19655429D01*
X34494286Y-19636381D01*
X34494286Y-19588762D01*
X34484762Y-19569714D01*
X34475238Y-19560190D01*
X34456190Y-19550667D01*
X34418095Y-19550667D01*
X34399048Y-19560190D01*
X34389524Y-19569714D01*
X34380000Y-19588762D01*
X34570476Y-19474476D02*
X34570476Y-19512571D01*
X34646667Y-19474476D02*
X34646667Y-19512571D01*
X34941905Y-19750667D02*
X34932381Y-19741143D01*
X34913333Y-19712571D01*
X34903810Y-19693524D01*
X34894286Y-19664952D01*
X34884762Y-19617333D01*
X34884762Y-19579238D01*
X34894286Y-19531619D01*
X34903810Y-19503048D01*
X34913333Y-19484000D01*
X34932381Y-19455429D01*
X34941905Y-19445905D01*
X35008571Y-19493524D02*
X35018095Y-19484000D01*
X35037143Y-19474476D01*
X35084762Y-19474476D01*
X35103810Y-19484000D01*
X35113333Y-19493524D01*
X35122857Y-19512571D01*
X35122857Y-19531619D01*
X35113333Y-19560190D01*
X34999048Y-19674476D01*
X35122857Y-19674476D01*
X35199048Y-19493524D02*
X35208571Y-19484000D01*
X35227619Y-19474476D01*
X35275238Y-19474476D01*
X35294286Y-19484000D01*
X35303810Y-19493524D01*
X35313333Y-19512571D01*
X35313333Y-19531619D01*
X35303810Y-19560190D01*
X35189524Y-19674476D01*
X35313333Y-19674476D01*
X35551429Y-19674476D02*
X35551429Y-19474476D01*
X35637143Y-19674476D02*
X35637143Y-19569714D01*
X35627619Y-19550667D01*
X35608571Y-19541143D01*
X35580000Y-19541143D01*
X35560952Y-19550667D01*
X35551429Y-19560190D01*
X35760952Y-19674476D02*
X35741905Y-19664952D01*
X35732381Y-19655429D01*
X35722857Y-19636381D01*
X35722857Y-19579238D01*
X35732381Y-19560190D01*
X35741905Y-19550667D01*
X35760952Y-19541143D01*
X35789524Y-19541143D01*
X35808571Y-19550667D01*
X35818095Y-19560190D01*
X35827619Y-19579238D01*
X35827619Y-19636381D01*
X35818095Y-19655429D01*
X35808571Y-19664952D01*
X35789524Y-19674476D01*
X35760952Y-19674476D01*
X35941905Y-19674476D02*
X35922857Y-19664952D01*
X35913333Y-19645905D01*
X35913333Y-19474476D01*
X36094286Y-19664952D02*
X36075238Y-19674476D01*
X36037143Y-19674476D01*
X36018095Y-19664952D01*
X36008571Y-19645905D01*
X36008571Y-19569714D01*
X36018095Y-19550667D01*
X36037143Y-19541143D01*
X36075238Y-19541143D01*
X36094286Y-19550667D01*
X36103810Y-19569714D01*
X36103810Y-19588762D01*
X36008571Y-19607810D01*
X36180000Y-19664952D02*
X36199048Y-19674476D01*
X36237143Y-19674476D01*
X36256190Y-19664952D01*
X36265714Y-19645905D01*
X36265714Y-19636381D01*
X36256190Y-19617333D01*
X36237143Y-19607810D01*
X36208571Y-19607810D01*
X36189524Y-19598286D01*
X36180000Y-19579238D01*
X36180000Y-19569714D01*
X36189524Y-19550667D01*
X36208571Y-19541143D01*
X36237143Y-19541143D01*
X36256190Y-19550667D01*
X36332381Y-19750667D02*
X36341905Y-19741143D01*
X36360952Y-19712571D01*
X36370476Y-19693524D01*
X36380000Y-19664952D01*
X36389524Y-19617333D01*
X36389524Y-19579238D01*
X36380000Y-19531619D01*
X36370476Y-19503048D01*
X36360952Y-19484000D01*
X36341905Y-19455429D01*
X36332381Y-19445905D01*
D14*
X31330000Y-19808000D02*
X31330000Y-19888000D01*
X31290000Y-19848000D02*
X31370000Y-19848000D01*
D11*
X31665714Y-19738476D02*
X31684762Y-19738476D01*
X31703809Y-19748000D01*
X31713333Y-19757524D01*
X31722857Y-19776571D01*
X31732381Y-19814667D01*
X31732381Y-19862286D01*
X31722857Y-19900381D01*
X31713333Y-19919429D01*
X31703809Y-19928952D01*
X31684762Y-19938476D01*
X31665714Y-19938476D01*
X31646667Y-19928952D01*
X31637143Y-19919429D01*
X31627619Y-19900381D01*
X31618095Y-19862286D01*
X31618095Y-19814667D01*
X31627619Y-19776571D01*
X31637143Y-19757524D01*
X31646667Y-19748000D01*
X31665714Y-19738476D01*
X31818095Y-19919429D02*
X31827619Y-19928952D01*
X31818095Y-19938476D01*
X31808571Y-19928952D01*
X31818095Y-19919429D01*
X31818095Y-19938476D01*
X31941905Y-19824190D02*
X31922857Y-19814667D01*
X31913333Y-19805143D01*
X31903809Y-19786095D01*
X31903809Y-19776571D01*
X31913333Y-19757524D01*
X31922857Y-19748000D01*
X31941905Y-19738476D01*
X31980000Y-19738476D01*
X31999048Y-19748000D01*
X32008571Y-19757524D01*
X32018095Y-19776571D01*
X32018095Y-19786095D01*
X32008571Y-19805143D01*
X31999048Y-19814667D01*
X31980000Y-19824190D01*
X31941905Y-19824190D01*
X31922857Y-19833714D01*
X31913333Y-19843238D01*
X31903809Y-19862286D01*
X31903809Y-19900381D01*
X31913333Y-19919429D01*
X31922857Y-19928952D01*
X31941905Y-19938476D01*
X31980000Y-19938476D01*
X31999048Y-19928952D01*
X32008571Y-19919429D01*
X32018095Y-19900381D01*
X32018095Y-19862286D01*
X32008571Y-19843238D01*
X31999048Y-19833714D01*
X31980000Y-19824190D01*
X32141905Y-19738476D02*
X32160952Y-19738476D01*
X32180000Y-19748000D01*
X32189524Y-19757524D01*
X32199048Y-19776571D01*
X32208571Y-19814667D01*
X32208571Y-19862286D01*
X32199048Y-19900381D01*
X32189524Y-19919429D01*
X32180000Y-19928952D01*
X32160952Y-19938476D01*
X32141905Y-19938476D01*
X32122857Y-19928952D01*
X32113333Y-19919429D01*
X32103809Y-19900381D01*
X32094286Y-19862286D01*
X32094286Y-19814667D01*
X32103809Y-19776571D01*
X32113333Y-19757524D01*
X32122857Y-19748000D01*
X32141905Y-19738476D01*
X32332381Y-19738476D02*
X32351428Y-19738476D01*
X32370476Y-19748000D01*
X32380000Y-19757524D01*
X32389524Y-19776571D01*
X32399048Y-19814667D01*
X32399048Y-19862286D01*
X32389524Y-19900381D01*
X32380000Y-19919429D01*
X32370476Y-19928952D01*
X32351428Y-19938476D01*
X32332381Y-19938476D01*
X32313333Y-19928952D01*
X32303809Y-19919429D01*
X32294286Y-19900381D01*
X32284762Y-19862286D01*
X32284762Y-19814667D01*
X32294286Y-19776571D01*
X32303809Y-19757524D01*
X32313333Y-19748000D01*
X32332381Y-19738476D01*
X32484762Y-19938476D02*
X32484762Y-19805143D01*
X32484762Y-19824190D02*
X32494286Y-19814667D01*
X32513333Y-19805143D01*
X32541905Y-19805143D01*
X32560952Y-19814667D01*
X32570476Y-19833714D01*
X32570476Y-19938476D01*
X32570476Y-19833714D02*
X32580000Y-19814667D01*
X32599048Y-19805143D01*
X32627619Y-19805143D01*
X32646667Y-19814667D01*
X32656190Y-19833714D01*
X32656190Y-19938476D01*
X32751428Y-19938476D02*
X32751428Y-19805143D01*
X32751428Y-19824190D02*
X32760952Y-19814667D01*
X32780000Y-19805143D01*
X32808571Y-19805143D01*
X32827619Y-19814667D01*
X32837143Y-19833714D01*
X32837143Y-19938476D01*
X32837143Y-19833714D02*
X32846667Y-19814667D01*
X32865714Y-19805143D01*
X32894286Y-19805143D01*
X32913333Y-19814667D01*
X32922857Y-19833714D01*
X32922857Y-19938476D01*
X33313333Y-19728952D02*
X33141905Y-19986095D01*
X33570476Y-19738476D02*
X33589524Y-19738476D01*
X33608571Y-19748000D01*
X33618095Y-19757524D01*
X33627619Y-19776571D01*
X33637143Y-19814667D01*
X33637143Y-19862286D01*
X33627619Y-19900381D01*
X33618095Y-19919429D01*
X33608571Y-19928952D01*
X33589524Y-19938476D01*
X33570476Y-19938476D01*
X33551428Y-19928952D01*
X33541905Y-19919429D01*
X33532381Y-19900381D01*
X33522857Y-19862286D01*
X33522857Y-19814667D01*
X33532381Y-19776571D01*
X33541905Y-19757524D01*
X33551428Y-19748000D01*
X33570476Y-19738476D01*
X33722857Y-19919429D02*
X33732381Y-19928952D01*
X33722857Y-19938476D01*
X33713333Y-19928952D01*
X33722857Y-19919429D01*
X33722857Y-19938476D01*
X33856190Y-19738476D02*
X33875238Y-19738476D01*
X33894286Y-19748000D01*
X33903810Y-19757524D01*
X33913333Y-19776571D01*
X33922857Y-19814667D01*
X33922857Y-19862286D01*
X33913333Y-19900381D01*
X33903810Y-19919429D01*
X33894286Y-19928952D01*
X33875238Y-19938476D01*
X33856190Y-19938476D01*
X33837143Y-19928952D01*
X33827619Y-19919429D01*
X33818095Y-19900381D01*
X33808571Y-19862286D01*
X33808571Y-19814667D01*
X33818095Y-19776571D01*
X33827619Y-19757524D01*
X33837143Y-19748000D01*
X33856190Y-19738476D01*
X33989524Y-19738476D02*
X34113333Y-19738476D01*
X34046667Y-19814667D01*
X34075238Y-19814667D01*
X34094286Y-19824190D01*
X34103810Y-19833714D01*
X34113333Y-19852762D01*
X34113333Y-19900381D01*
X34103810Y-19919429D01*
X34094286Y-19928952D01*
X34075238Y-19938476D01*
X34018095Y-19938476D01*
X33999048Y-19928952D01*
X33989524Y-19919429D01*
X34303810Y-19938476D02*
X34189524Y-19938476D01*
X34246667Y-19938476D02*
X34246667Y-19738476D01*
X34227619Y-19767048D01*
X34208571Y-19786095D01*
X34189524Y-19795619D01*
X34484762Y-19738476D02*
X34389524Y-19738476D01*
X34380000Y-19833714D01*
X34389524Y-19824190D01*
X34408571Y-19814667D01*
X34456190Y-19814667D01*
X34475238Y-19824190D01*
X34484762Y-19833714D01*
X34494286Y-19852762D01*
X34494286Y-19900381D01*
X34484762Y-19919429D01*
X34475238Y-19928952D01*
X34456190Y-19938476D01*
X34408571Y-19938476D01*
X34389524Y-19928952D01*
X34380000Y-19919429D01*
X34570476Y-19738476D02*
X34570476Y-19776571D01*
X34646667Y-19738476D02*
X34646667Y-19776571D01*
X34941905Y-20014667D02*
X34932381Y-20005143D01*
X34913333Y-19976571D01*
X34903810Y-19957524D01*
X34894286Y-19928952D01*
X34884762Y-19881333D01*
X34884762Y-19843238D01*
X34894286Y-19795619D01*
X34903810Y-19767048D01*
X34913333Y-19748000D01*
X34932381Y-19719429D01*
X34941905Y-19709905D01*
X35113333Y-19738476D02*
X35018095Y-19738476D01*
X35008571Y-19833714D01*
X35018095Y-19824190D01*
X35037143Y-19814667D01*
X35084762Y-19814667D01*
X35103810Y-19824190D01*
X35113333Y-19833714D01*
X35122857Y-19852762D01*
X35122857Y-19900381D01*
X35113333Y-19919429D01*
X35103810Y-19928952D01*
X35084762Y-19938476D01*
X35037143Y-19938476D01*
X35018095Y-19928952D01*
X35008571Y-19919429D01*
X35294286Y-19738476D02*
X35256190Y-19738476D01*
X35237143Y-19748000D01*
X35227619Y-19757524D01*
X35208571Y-19786095D01*
X35199048Y-19824190D01*
X35199048Y-19900381D01*
X35208571Y-19919429D01*
X35218095Y-19928952D01*
X35237143Y-19938476D01*
X35275238Y-19938476D01*
X35294286Y-19928952D01*
X35303810Y-19919429D01*
X35313333Y-19900381D01*
X35313333Y-19852762D01*
X35303810Y-19833714D01*
X35294286Y-19824190D01*
X35275238Y-19814667D01*
X35237143Y-19814667D01*
X35218095Y-19824190D01*
X35208571Y-19833714D01*
X35199048Y-19852762D01*
X35551429Y-19938476D02*
X35551429Y-19738476D01*
X35637143Y-19938476D02*
X35637143Y-19833714D01*
X35627619Y-19814667D01*
X35608571Y-19805143D01*
X35580000Y-19805143D01*
X35560952Y-19814667D01*
X35551429Y-19824190D01*
X35760952Y-19938476D02*
X35741905Y-19928952D01*
X35732381Y-19919429D01*
X35722857Y-19900381D01*
X35722857Y-19843238D01*
X35732381Y-19824190D01*
X35741905Y-19814667D01*
X35760952Y-19805143D01*
X35789524Y-19805143D01*
X35808571Y-19814667D01*
X35818095Y-19824190D01*
X35827619Y-19843238D01*
X35827619Y-19900381D01*
X35818095Y-19919429D01*
X35808571Y-19928952D01*
X35789524Y-19938476D01*
X35760952Y-19938476D01*
X35941905Y-19938476D02*
X35922857Y-19928952D01*
X35913333Y-19909905D01*
X35913333Y-19738476D01*
X36094286Y-19928952D02*
X36075238Y-19938476D01*
X36037143Y-19938476D01*
X36018095Y-19928952D01*
X36008571Y-19909905D01*
X36008571Y-19833714D01*
X36018095Y-19814667D01*
X36037143Y-19805143D01*
X36075238Y-19805143D01*
X36094286Y-19814667D01*
X36103810Y-19833714D01*
X36103810Y-19852762D01*
X36008571Y-19871810D01*
X36180000Y-19928952D02*
X36199048Y-19938476D01*
X36237143Y-19938476D01*
X36256190Y-19928952D01*
X36265714Y-19909905D01*
X36265714Y-19900381D01*
X36256190Y-19881333D01*
X36237143Y-19871810D01*
X36208571Y-19871810D01*
X36189524Y-19862286D01*
X36180000Y-19843238D01*
X36180000Y-19833714D01*
X36189524Y-19814667D01*
X36208571Y-19805143D01*
X36237143Y-19805143D01*
X36256190Y-19814667D01*
X36332381Y-20014667D02*
X36341905Y-20005143D01*
X36360952Y-19976571D01*
X36370476Y-19957524D01*
X36380000Y-19928952D01*
X36389524Y-19881333D01*
X36389524Y-19843238D01*
X36380000Y-19795619D01*
X36370476Y-19767048D01*
X36360952Y-19748000D01*
X36341905Y-19719429D01*
X36332381Y-19709905D01*
D15*
X31356820Y-20143820D02*
X31356820Y-20080180D01*
X31293180Y-20080180D01*
X31293180Y-20143820D01*
X31356820Y-20143820D01*
D11*
X31665714Y-20002476D02*
X31684762Y-20002476D01*
X31703809Y-20012000D01*
X31713333Y-20021524D01*
X31722857Y-20040571D01*
X31732381Y-20078667D01*
X31732381Y-20126286D01*
X31722857Y-20164381D01*
X31713333Y-20183429D01*
X31703809Y-20192952D01*
X31684762Y-20202476D01*
X31665714Y-20202476D01*
X31646667Y-20192952D01*
X31637143Y-20183429D01*
X31627619Y-20164381D01*
X31618095Y-20126286D01*
X31618095Y-20078667D01*
X31627619Y-20040571D01*
X31637143Y-20021524D01*
X31646667Y-20012000D01*
X31665714Y-20002476D01*
X31818095Y-20183429D02*
X31827619Y-20192952D01*
X31818095Y-20202476D01*
X31808571Y-20192952D01*
X31818095Y-20183429D01*
X31818095Y-20202476D01*
X31922857Y-20202476D02*
X31960952Y-20202476D01*
X31980000Y-20192952D01*
X31989524Y-20183429D01*
X32008571Y-20154857D01*
X32018095Y-20116762D01*
X32018095Y-20040571D01*
X32008571Y-20021524D01*
X31999048Y-20012000D01*
X31980000Y-20002476D01*
X31941905Y-20002476D01*
X31922857Y-20012000D01*
X31913333Y-20021524D01*
X31903809Y-20040571D01*
X31903809Y-20088190D01*
X31913333Y-20107238D01*
X31922857Y-20116762D01*
X31941905Y-20126286D01*
X31980000Y-20126286D01*
X31999048Y-20116762D01*
X32008571Y-20107238D01*
X32018095Y-20088190D01*
X32141905Y-20002476D02*
X32160952Y-20002476D01*
X32180000Y-20012000D01*
X32189524Y-20021524D01*
X32199048Y-20040571D01*
X32208571Y-20078667D01*
X32208571Y-20126286D01*
X32199048Y-20164381D01*
X32189524Y-20183429D01*
X32180000Y-20192952D01*
X32160952Y-20202476D01*
X32141905Y-20202476D01*
X32122857Y-20192952D01*
X32113333Y-20183429D01*
X32103809Y-20164381D01*
X32094286Y-20126286D01*
X32094286Y-20078667D01*
X32103809Y-20040571D01*
X32113333Y-20021524D01*
X32122857Y-20012000D01*
X32141905Y-20002476D01*
X32332381Y-20002476D02*
X32351428Y-20002476D01*
X32370476Y-20012000D01*
X32380000Y-20021524D01*
X32389524Y-20040571D01*
X32399048Y-20078667D01*
X32399048Y-20126286D01*
X32389524Y-20164381D01*
X32380000Y-20183429D01*
X32370476Y-20192952D01*
X32351428Y-20202476D01*
X32332381Y-20202476D01*
X32313333Y-20192952D01*
X32303809Y-20183429D01*
X32294286Y-20164381D01*
X32284762Y-20126286D01*
X32284762Y-20078667D01*
X32294286Y-20040571D01*
X32303809Y-20021524D01*
X32313333Y-20012000D01*
X32332381Y-20002476D01*
X32484762Y-20202476D02*
X32484762Y-20069143D01*
X32484762Y-20088190D02*
X32494286Y-20078667D01*
X32513333Y-20069143D01*
X32541905Y-20069143D01*
X32560952Y-20078667D01*
X32570476Y-20097714D01*
X32570476Y-20202476D01*
X32570476Y-20097714D02*
X32580000Y-20078667D01*
X32599048Y-20069143D01*
X32627619Y-20069143D01*
X32646667Y-20078667D01*
X32656190Y-20097714D01*
X32656190Y-20202476D01*
X32751428Y-20202476D02*
X32751428Y-20069143D01*
X32751428Y-20088190D02*
X32760952Y-20078667D01*
X32780000Y-20069143D01*
X32808571Y-20069143D01*
X32827619Y-20078667D01*
X32837143Y-20097714D01*
X32837143Y-20202476D01*
X32837143Y-20097714D02*
X32846667Y-20078667D01*
X32865714Y-20069143D01*
X32894286Y-20069143D01*
X32913333Y-20078667D01*
X32922857Y-20097714D01*
X32922857Y-20202476D01*
X33313333Y-19992952D02*
X33141905Y-20250095D01*
X33570476Y-20002476D02*
X33589524Y-20002476D01*
X33608571Y-20012000D01*
X33618095Y-20021524D01*
X33627619Y-20040571D01*
X33637143Y-20078667D01*
X33637143Y-20126286D01*
X33627619Y-20164381D01*
X33618095Y-20183429D01*
X33608571Y-20192952D01*
X33589524Y-20202476D01*
X33570476Y-20202476D01*
X33551428Y-20192952D01*
X33541905Y-20183429D01*
X33532381Y-20164381D01*
X33522857Y-20126286D01*
X33522857Y-20078667D01*
X33532381Y-20040571D01*
X33541905Y-20021524D01*
X33551428Y-20012000D01*
X33570476Y-20002476D01*
X33722857Y-20183429D02*
X33732381Y-20192952D01*
X33722857Y-20202476D01*
X33713333Y-20192952D01*
X33722857Y-20183429D01*
X33722857Y-20202476D01*
X33856190Y-20002476D02*
X33875238Y-20002476D01*
X33894286Y-20012000D01*
X33903810Y-20021524D01*
X33913333Y-20040571D01*
X33922857Y-20078667D01*
X33922857Y-20126286D01*
X33913333Y-20164381D01*
X33903810Y-20183429D01*
X33894286Y-20192952D01*
X33875238Y-20202476D01*
X33856190Y-20202476D01*
X33837143Y-20192952D01*
X33827619Y-20183429D01*
X33818095Y-20164381D01*
X33808571Y-20126286D01*
X33808571Y-20078667D01*
X33818095Y-20040571D01*
X33827619Y-20021524D01*
X33837143Y-20012000D01*
X33856190Y-20002476D01*
X33989524Y-20002476D02*
X34113333Y-20002476D01*
X34046667Y-20078667D01*
X34075238Y-20078667D01*
X34094286Y-20088190D01*
X34103810Y-20097714D01*
X34113333Y-20116762D01*
X34113333Y-20164381D01*
X34103810Y-20183429D01*
X34094286Y-20192952D01*
X34075238Y-20202476D01*
X34018095Y-20202476D01*
X33999048Y-20192952D01*
X33989524Y-20183429D01*
X34294286Y-20002476D02*
X34199048Y-20002476D01*
X34189524Y-20097714D01*
X34199048Y-20088190D01*
X34218095Y-20078667D01*
X34265714Y-20078667D01*
X34284762Y-20088190D01*
X34294286Y-20097714D01*
X34303810Y-20116762D01*
X34303810Y-20164381D01*
X34294286Y-20183429D01*
X34284762Y-20192952D01*
X34265714Y-20202476D01*
X34218095Y-20202476D01*
X34199048Y-20192952D01*
X34189524Y-20183429D01*
X34475238Y-20069143D02*
X34475238Y-20202476D01*
X34427619Y-19992952D02*
X34380000Y-20135810D01*
X34503810Y-20135810D01*
X34570476Y-20002476D02*
X34570476Y-20040571D01*
X34646667Y-20002476D02*
X34646667Y-20040571D01*
X34941905Y-20278667D02*
X34932381Y-20269143D01*
X34913333Y-20240571D01*
X34903810Y-20221524D01*
X34894286Y-20192952D01*
X34884762Y-20145333D01*
X34884762Y-20107238D01*
X34894286Y-20059619D01*
X34903810Y-20031048D01*
X34913333Y-20012000D01*
X34932381Y-19983429D01*
X34941905Y-19973905D01*
X35122857Y-20202476D02*
X35008571Y-20202476D01*
X35065714Y-20202476D02*
X35065714Y-20002476D01*
X35046667Y-20031048D01*
X35027619Y-20050095D01*
X35008571Y-20059619D01*
X35294286Y-20002476D02*
X35256190Y-20002476D01*
X35237143Y-20012000D01*
X35227619Y-20021524D01*
X35208571Y-20050095D01*
X35199048Y-20088190D01*
X35199048Y-20164381D01*
X35208571Y-20183429D01*
X35218095Y-20192952D01*
X35237143Y-20202476D01*
X35275238Y-20202476D01*
X35294286Y-20192952D01*
X35303810Y-20183429D01*
X35313333Y-20164381D01*
X35313333Y-20116762D01*
X35303810Y-20097714D01*
X35294286Y-20088190D01*
X35275238Y-20078667D01*
X35237143Y-20078667D01*
X35218095Y-20088190D01*
X35208571Y-20097714D01*
X35199048Y-20116762D01*
X35427619Y-20088190D02*
X35408571Y-20078667D01*
X35399048Y-20069143D01*
X35389524Y-20050095D01*
X35389524Y-20040571D01*
X35399048Y-20021524D01*
X35408571Y-20012000D01*
X35427619Y-20002476D01*
X35465714Y-20002476D01*
X35484762Y-20012000D01*
X35494286Y-20021524D01*
X35503810Y-20040571D01*
X35503810Y-20050095D01*
X35494286Y-20069143D01*
X35484762Y-20078667D01*
X35465714Y-20088190D01*
X35427619Y-20088190D01*
X35408571Y-20097714D01*
X35399048Y-20107238D01*
X35389524Y-20126286D01*
X35389524Y-20164381D01*
X35399048Y-20183429D01*
X35408571Y-20192952D01*
X35427619Y-20202476D01*
X35465714Y-20202476D01*
X35484762Y-20192952D01*
X35494286Y-20183429D01*
X35503810Y-20164381D01*
X35503810Y-20126286D01*
X35494286Y-20107238D01*
X35484762Y-20097714D01*
X35465714Y-20088190D01*
X35741905Y-20202476D02*
X35741905Y-20002476D01*
X35827619Y-20202476D02*
X35827619Y-20097714D01*
X35818095Y-20078667D01*
X35799048Y-20069143D01*
X35770476Y-20069143D01*
X35751429Y-20078667D01*
X35741905Y-20088190D01*
X35951429Y-20202476D02*
X35932381Y-20192952D01*
X35922857Y-20183429D01*
X35913333Y-20164381D01*
X35913333Y-20107238D01*
X35922857Y-20088190D01*
X35932381Y-20078667D01*
X35951429Y-20069143D01*
X35980000Y-20069143D01*
X35999048Y-20078667D01*
X36008571Y-20088190D01*
X36018095Y-20107238D01*
X36018095Y-20164381D01*
X36008571Y-20183429D01*
X35999048Y-20192952D01*
X35980000Y-20202476D01*
X35951429Y-20202476D01*
X36132381Y-20202476D02*
X36113333Y-20192952D01*
X36103810Y-20173905D01*
X36103810Y-20002476D01*
X36284762Y-20192952D02*
X36265714Y-20202476D01*
X36227619Y-20202476D01*
X36208571Y-20192952D01*
X36199048Y-20173905D01*
X36199048Y-20097714D01*
X36208571Y-20078667D01*
X36227619Y-20069143D01*
X36265714Y-20069143D01*
X36284762Y-20078667D01*
X36294286Y-20097714D01*
X36294286Y-20116762D01*
X36199048Y-20135810D01*
X36370476Y-20192952D02*
X36389524Y-20202476D01*
X36427619Y-20202476D01*
X36446667Y-20192952D01*
X36456190Y-20173905D01*
X36456190Y-20164381D01*
X36446667Y-20145333D01*
X36427619Y-20135810D01*
X36399048Y-20135810D01*
X36380000Y-20126286D01*
X36370476Y-20107238D01*
X36370476Y-20097714D01*
X36380000Y-20078667D01*
X36399048Y-20069143D01*
X36427619Y-20069143D01*
X36446667Y-20078667D01*
X36522857Y-20278667D02*
X36532381Y-20269143D01*
X36551429Y-20240571D01*
X36560952Y-20221524D01*
X36570476Y-20192952D01*
X36580000Y-20145333D01*
X36580000Y-20107238D01*
X36570476Y-20059619D01*
X36560952Y-20031048D01*
X36551429Y-20012000D01*
X36532381Y-19983429D01*
X36522857Y-19973905D01*
D16*
X31320000Y-20426000D02*
X31370000Y-20376000D01*
X31320000Y-20326000D01*
X31270000Y-20376000D01*
X31320000Y-20426000D01*
D11*
X31732381Y-20466476D02*
X31618095Y-20466476D01*
X31675238Y-20466476D02*
X31675238Y-20266476D01*
X31656190Y-20295048D01*
X31637143Y-20314095D01*
X31618095Y-20323619D01*
X31818095Y-20447429D02*
X31827619Y-20456952D01*
X31818095Y-20466476D01*
X31808571Y-20456952D01*
X31818095Y-20447429D01*
X31818095Y-20466476D01*
X31951428Y-20266476D02*
X31970476Y-20266476D01*
X31989524Y-20276000D01*
X31999048Y-20285524D01*
X32008571Y-20304571D01*
X32018095Y-20342667D01*
X32018095Y-20390286D01*
X32008571Y-20428381D01*
X31999048Y-20447429D01*
X31989524Y-20456952D01*
X31970476Y-20466476D01*
X31951428Y-20466476D01*
X31932381Y-20456952D01*
X31922857Y-20447429D01*
X31913333Y-20428381D01*
X31903809Y-20390286D01*
X31903809Y-20342667D01*
X31913333Y-20304571D01*
X31922857Y-20285524D01*
X31932381Y-20276000D01*
X31951428Y-20266476D01*
X32141905Y-20266476D02*
X32160952Y-20266476D01*
X32180000Y-20276000D01*
X32189524Y-20285524D01*
X32199048Y-20304571D01*
X32208571Y-20342667D01*
X32208571Y-20390286D01*
X32199048Y-20428381D01*
X32189524Y-20447429D01*
X32180000Y-20456952D01*
X32160952Y-20466476D01*
X32141905Y-20466476D01*
X32122857Y-20456952D01*
X32113333Y-20447429D01*
X32103809Y-20428381D01*
X32094286Y-20390286D01*
X32094286Y-20342667D01*
X32103809Y-20304571D01*
X32113333Y-20285524D01*
X32122857Y-20276000D01*
X32141905Y-20266476D01*
X32332381Y-20266476D02*
X32351428Y-20266476D01*
X32370476Y-20276000D01*
X32380000Y-20285524D01*
X32389524Y-20304571D01*
X32399048Y-20342667D01*
X32399048Y-20390286D01*
X32389524Y-20428381D01*
X32380000Y-20447429D01*
X32370476Y-20456952D01*
X32351428Y-20466476D01*
X32332381Y-20466476D01*
X32313333Y-20456952D01*
X32303809Y-20447429D01*
X32294286Y-20428381D01*
X32284762Y-20390286D01*
X32284762Y-20342667D01*
X32294286Y-20304571D01*
X32303809Y-20285524D01*
X32313333Y-20276000D01*
X32332381Y-20266476D01*
X32484762Y-20466476D02*
X32484762Y-20333143D01*
X32484762Y-20352190D02*
X32494286Y-20342667D01*
X32513333Y-20333143D01*
X32541905Y-20333143D01*
X32560952Y-20342667D01*
X32570476Y-20361714D01*
X32570476Y-20466476D01*
X32570476Y-20361714D02*
X32580000Y-20342667D01*
X32599048Y-20333143D01*
X32627619Y-20333143D01*
X32646667Y-20342667D01*
X32656190Y-20361714D01*
X32656190Y-20466476D01*
X32751428Y-20466476D02*
X32751428Y-20333143D01*
X32751428Y-20352190D02*
X32760952Y-20342667D01*
X32780000Y-20333143D01*
X32808571Y-20333143D01*
X32827619Y-20342667D01*
X32837143Y-20361714D01*
X32837143Y-20466476D01*
X32837143Y-20361714D02*
X32846667Y-20342667D01*
X32865714Y-20333143D01*
X32894286Y-20333143D01*
X32913333Y-20342667D01*
X32922857Y-20361714D01*
X32922857Y-20466476D01*
X33313333Y-20256952D02*
X33141905Y-20514095D01*
X33570476Y-20266476D02*
X33589524Y-20266476D01*
X33608571Y-20276000D01*
X33618095Y-20285524D01*
X33627619Y-20304571D01*
X33637143Y-20342667D01*
X33637143Y-20390286D01*
X33627619Y-20428381D01*
X33618095Y-20447429D01*
X33608571Y-20456952D01*
X33589524Y-20466476D01*
X33570476Y-20466476D01*
X33551428Y-20456952D01*
X33541905Y-20447429D01*
X33532381Y-20428381D01*
X33522857Y-20390286D01*
X33522857Y-20342667D01*
X33532381Y-20304571D01*
X33541905Y-20285524D01*
X33551428Y-20276000D01*
X33570476Y-20266476D01*
X33722857Y-20447429D02*
X33732381Y-20456952D01*
X33722857Y-20466476D01*
X33713333Y-20456952D01*
X33722857Y-20447429D01*
X33722857Y-20466476D01*
X33856190Y-20266476D02*
X33875238Y-20266476D01*
X33894286Y-20276000D01*
X33903810Y-20285524D01*
X33913333Y-20304571D01*
X33922857Y-20342667D01*
X33922857Y-20390286D01*
X33913333Y-20428381D01*
X33903810Y-20447429D01*
X33894286Y-20456952D01*
X33875238Y-20466476D01*
X33856190Y-20466476D01*
X33837143Y-20456952D01*
X33827619Y-20447429D01*
X33818095Y-20428381D01*
X33808571Y-20390286D01*
X33808571Y-20342667D01*
X33818095Y-20304571D01*
X33827619Y-20285524D01*
X33837143Y-20276000D01*
X33856190Y-20266476D01*
X33989524Y-20266476D02*
X34113333Y-20266476D01*
X34046667Y-20342667D01*
X34075238Y-20342667D01*
X34094286Y-20352190D01*
X34103810Y-20361714D01*
X34113333Y-20380762D01*
X34113333Y-20428381D01*
X34103810Y-20447429D01*
X34094286Y-20456952D01*
X34075238Y-20466476D01*
X34018095Y-20466476D01*
X33999048Y-20456952D01*
X33989524Y-20447429D01*
X34208571Y-20466476D02*
X34246667Y-20466476D01*
X34265714Y-20456952D01*
X34275238Y-20447429D01*
X34294286Y-20418857D01*
X34303810Y-20380762D01*
X34303810Y-20304571D01*
X34294286Y-20285524D01*
X34284762Y-20276000D01*
X34265714Y-20266476D01*
X34227619Y-20266476D01*
X34208571Y-20276000D01*
X34199048Y-20285524D01*
X34189524Y-20304571D01*
X34189524Y-20352190D01*
X34199048Y-20371238D01*
X34208571Y-20380762D01*
X34227619Y-20390286D01*
X34265714Y-20390286D01*
X34284762Y-20380762D01*
X34294286Y-20371238D01*
X34303810Y-20352190D01*
X34475238Y-20333143D02*
X34475238Y-20466476D01*
X34427619Y-20256952D02*
X34380000Y-20399810D01*
X34503810Y-20399810D01*
X34570476Y-20266476D02*
X34570476Y-20304571D01*
X34646667Y-20266476D02*
X34646667Y-20304571D01*
X34941905Y-20542667D02*
X34932381Y-20533143D01*
X34913333Y-20504571D01*
X34903810Y-20485524D01*
X34894286Y-20456952D01*
X34884762Y-20409333D01*
X34884762Y-20371238D01*
X34894286Y-20323619D01*
X34903810Y-20295048D01*
X34913333Y-20276000D01*
X34932381Y-20247429D01*
X34941905Y-20237905D01*
X35122857Y-20466476D02*
X35008571Y-20466476D01*
X35065714Y-20466476D02*
X35065714Y-20266476D01*
X35046667Y-20295048D01*
X35027619Y-20314095D01*
X35008571Y-20323619D01*
X35294286Y-20266476D02*
X35256190Y-20266476D01*
X35237143Y-20276000D01*
X35227619Y-20285524D01*
X35208571Y-20314095D01*
X35199048Y-20352190D01*
X35199048Y-20428381D01*
X35208571Y-20447429D01*
X35218095Y-20456952D01*
X35237143Y-20466476D01*
X35275238Y-20466476D01*
X35294286Y-20456952D01*
X35303810Y-20447429D01*
X35313333Y-20428381D01*
X35313333Y-20380762D01*
X35303810Y-20361714D01*
X35294286Y-20352190D01*
X35275238Y-20342667D01*
X35237143Y-20342667D01*
X35218095Y-20352190D01*
X35208571Y-20361714D01*
X35199048Y-20380762D01*
X35551429Y-20466476D02*
X35551429Y-20266476D01*
X35637143Y-20466476D02*
X35637143Y-20361714D01*
X35627619Y-20342667D01*
X35608571Y-20333143D01*
X35580000Y-20333143D01*
X35560952Y-20342667D01*
X35551429Y-20352190D01*
X35760952Y-20466476D02*
X35741905Y-20456952D01*
X35732381Y-20447429D01*
X35722857Y-20428381D01*
X35722857Y-20371238D01*
X35732381Y-20352190D01*
X35741905Y-20342667D01*
X35760952Y-20333143D01*
X35789524Y-20333143D01*
X35808571Y-20342667D01*
X35818095Y-20352190D01*
X35827619Y-20371238D01*
X35827619Y-20428381D01*
X35818095Y-20447429D01*
X35808571Y-20456952D01*
X35789524Y-20466476D01*
X35760952Y-20466476D01*
X35941905Y-20466476D02*
X35922857Y-20456952D01*
X35913333Y-20437905D01*
X35913333Y-20266476D01*
X36094286Y-20456952D02*
X36075238Y-20466476D01*
X36037143Y-20466476D01*
X36018095Y-20456952D01*
X36008571Y-20437905D01*
X36008571Y-20361714D01*
X36018095Y-20342667D01*
X36037143Y-20333143D01*
X36075238Y-20333143D01*
X36094286Y-20342667D01*
X36103810Y-20361714D01*
X36103810Y-20380762D01*
X36008571Y-20399810D01*
X36180000Y-20456952D02*
X36199048Y-20466476D01*
X36237143Y-20466476D01*
X36256190Y-20456952D01*
X36265714Y-20437905D01*
X36265714Y-20428381D01*
X36256190Y-20409333D01*
X36237143Y-20399810D01*
X36208571Y-20399810D01*
X36189524Y-20390286D01*
X36180000Y-20371238D01*
X36180000Y-20361714D01*
X36189524Y-20342667D01*
X36208571Y-20333143D01*
X36237143Y-20333143D01*
X36256190Y-20342667D01*
X36332381Y-20542667D02*
X36341905Y-20533143D01*
X36360952Y-20504571D01*
X36370476Y-20485524D01*
X36380000Y-20456952D01*
X36389524Y-20409333D01*
X36389524Y-20371238D01*
X36380000Y-20323619D01*
X36370476Y-20295048D01*
X36360952Y-20276000D01*
X36341905Y-20247429D01*
X36332381Y-20237905D01*
X31170000Y-20540000D02*
X31370000Y-20740000D01*
X31370000Y-20540000D02*
X31170000Y-20740000D01*
X31370000Y-20640000D02*
G75*
G03*
X31370000Y-20640000I-100000J0D01*
G01*
X31713333Y-20597143D02*
X31713333Y-20730476D01*
X31665714Y-20520952D02*
X31618095Y-20663810D01*
X31741905Y-20663810D01*
X31818095Y-20711429D02*
X31827619Y-20720952D01*
X31818095Y-20730476D01*
X31808571Y-20720952D01*
X31818095Y-20711429D01*
X31818095Y-20730476D01*
X31951428Y-20530476D02*
X31970476Y-20530476D01*
X31989524Y-20540000D01*
X31999048Y-20549524D01*
X32008571Y-20568571D01*
X32018095Y-20606667D01*
X32018095Y-20654286D01*
X32008571Y-20692381D01*
X31999048Y-20711429D01*
X31989524Y-20720952D01*
X31970476Y-20730476D01*
X31951428Y-20730476D01*
X31932381Y-20720952D01*
X31922857Y-20711429D01*
X31913333Y-20692381D01*
X31903809Y-20654286D01*
X31903809Y-20606667D01*
X31913333Y-20568571D01*
X31922857Y-20549524D01*
X31932381Y-20540000D01*
X31951428Y-20530476D01*
X32141905Y-20530476D02*
X32160952Y-20530476D01*
X32180000Y-20540000D01*
X32189524Y-20549524D01*
X32199048Y-20568571D01*
X32208571Y-20606667D01*
X32208571Y-20654286D01*
X32199048Y-20692381D01*
X32189524Y-20711429D01*
X32180000Y-20720952D01*
X32160952Y-20730476D01*
X32141905Y-20730476D01*
X32122857Y-20720952D01*
X32113333Y-20711429D01*
X32103809Y-20692381D01*
X32094286Y-20654286D01*
X32094286Y-20606667D01*
X32103809Y-20568571D01*
X32113333Y-20549524D01*
X32122857Y-20540000D01*
X32141905Y-20530476D01*
X32332381Y-20530476D02*
X32351428Y-20530476D01*
X32370476Y-20540000D01*
X32380000Y-20549524D01*
X32389524Y-20568571D01*
X32399048Y-20606667D01*
X32399048Y-20654286D01*
X32389524Y-20692381D01*
X32380000Y-20711429D01*
X32370476Y-20720952D01*
X32351428Y-20730476D01*
X32332381Y-20730476D01*
X32313333Y-20720952D01*
X32303809Y-20711429D01*
X32294286Y-20692381D01*
X32284762Y-20654286D01*
X32284762Y-20606667D01*
X32294286Y-20568571D01*
X32303809Y-20549524D01*
X32313333Y-20540000D01*
X32332381Y-20530476D01*
X32484762Y-20730476D02*
X32484762Y-20597143D01*
X32484762Y-20616190D02*
X32494286Y-20606667D01*
X32513333Y-20597143D01*
X32541905Y-20597143D01*
X32560952Y-20606667D01*
X32570476Y-20625714D01*
X32570476Y-20730476D01*
X32570476Y-20625714D02*
X32580000Y-20606667D01*
X32599048Y-20597143D01*
X32627619Y-20597143D01*
X32646667Y-20606667D01*
X32656190Y-20625714D01*
X32656190Y-20730476D01*
X32751428Y-20730476D02*
X32751428Y-20597143D01*
X32751428Y-20616190D02*
X32760952Y-20606667D01*
X32780000Y-20597143D01*
X32808571Y-20597143D01*
X32827619Y-20606667D01*
X32837143Y-20625714D01*
X32837143Y-20730476D01*
X32837143Y-20625714D02*
X32846667Y-20606667D01*
X32865714Y-20597143D01*
X32894286Y-20597143D01*
X32913333Y-20606667D01*
X32922857Y-20625714D01*
X32922857Y-20730476D01*
X33313333Y-20520952D02*
X33141905Y-20778095D01*
X33570476Y-20530476D02*
X33589524Y-20530476D01*
X33608571Y-20540000D01*
X33618095Y-20549524D01*
X33627619Y-20568571D01*
X33637143Y-20606667D01*
X33637143Y-20654286D01*
X33627619Y-20692381D01*
X33618095Y-20711429D01*
X33608571Y-20720952D01*
X33589524Y-20730476D01*
X33570476Y-20730476D01*
X33551428Y-20720952D01*
X33541905Y-20711429D01*
X33532381Y-20692381D01*
X33522857Y-20654286D01*
X33522857Y-20606667D01*
X33532381Y-20568571D01*
X33541905Y-20549524D01*
X33551428Y-20540000D01*
X33570476Y-20530476D01*
X33722857Y-20711429D02*
X33732381Y-20720952D01*
X33722857Y-20730476D01*
X33713333Y-20720952D01*
X33722857Y-20711429D01*
X33722857Y-20730476D01*
X33922857Y-20730476D02*
X33808571Y-20730476D01*
X33865714Y-20730476D02*
X33865714Y-20530476D01*
X33846667Y-20559048D01*
X33827619Y-20578095D01*
X33808571Y-20587619D01*
X34103810Y-20530476D02*
X34008571Y-20530476D01*
X33999048Y-20625714D01*
X34008571Y-20616190D01*
X34027619Y-20606667D01*
X34075238Y-20606667D01*
X34094286Y-20616190D01*
X34103810Y-20625714D01*
X34113333Y-20644762D01*
X34113333Y-20692381D01*
X34103810Y-20711429D01*
X34094286Y-20720952D01*
X34075238Y-20730476D01*
X34027619Y-20730476D01*
X34008571Y-20720952D01*
X33999048Y-20711429D01*
X34180000Y-20530476D02*
X34313333Y-20530476D01*
X34227619Y-20730476D01*
X34484762Y-20530476D02*
X34389524Y-20530476D01*
X34380000Y-20625714D01*
X34389524Y-20616190D01*
X34408571Y-20606667D01*
X34456190Y-20606667D01*
X34475238Y-20616190D01*
X34484762Y-20625714D01*
X34494286Y-20644762D01*
X34494286Y-20692381D01*
X34484762Y-20711429D01*
X34475238Y-20720952D01*
X34456190Y-20730476D01*
X34408571Y-20730476D01*
X34389524Y-20720952D01*
X34380000Y-20711429D01*
X34570476Y-20530476D02*
X34570476Y-20568571D01*
X34646667Y-20530476D02*
X34646667Y-20568571D01*
X34941905Y-20806667D02*
X34932381Y-20797143D01*
X34913333Y-20768571D01*
X34903810Y-20749524D01*
X34894286Y-20720952D01*
X34884762Y-20673333D01*
X34884762Y-20635238D01*
X34894286Y-20587619D01*
X34903810Y-20559048D01*
X34913333Y-20540000D01*
X34932381Y-20511429D01*
X34941905Y-20501905D01*
X35103810Y-20597143D02*
X35103810Y-20730476D01*
X35056190Y-20520952D02*
X35008571Y-20663810D01*
X35132381Y-20663810D01*
X35360952Y-20730476D02*
X35360952Y-20530476D01*
X35446667Y-20730476D02*
X35446667Y-20625714D01*
X35437143Y-20606667D01*
X35418095Y-20597143D01*
X35389524Y-20597143D01*
X35370476Y-20606667D01*
X35360952Y-20616190D01*
X35570476Y-20730476D02*
X35551429Y-20720952D01*
X35541905Y-20711429D01*
X35532381Y-20692381D01*
X35532381Y-20635238D01*
X35541905Y-20616190D01*
X35551429Y-20606667D01*
X35570476Y-20597143D01*
X35599048Y-20597143D01*
X35618095Y-20606667D01*
X35627619Y-20616190D01*
X35637143Y-20635238D01*
X35637143Y-20692381D01*
X35627619Y-20711429D01*
X35618095Y-20720952D01*
X35599048Y-20730476D01*
X35570476Y-20730476D01*
X35751429Y-20730476D02*
X35732381Y-20720952D01*
X35722857Y-20701905D01*
X35722857Y-20530476D01*
X35903810Y-20720952D02*
X35884762Y-20730476D01*
X35846667Y-20730476D01*
X35827619Y-20720952D01*
X35818095Y-20701905D01*
X35818095Y-20625714D01*
X35827619Y-20606667D01*
X35846667Y-20597143D01*
X35884762Y-20597143D01*
X35903810Y-20606667D01*
X35913333Y-20625714D01*
X35913333Y-20644762D01*
X35818095Y-20663810D01*
X35989524Y-20720952D02*
X36008571Y-20730476D01*
X36046667Y-20730476D01*
X36065714Y-20720952D01*
X36075238Y-20701905D01*
X36075238Y-20692381D01*
X36065714Y-20673333D01*
X36046667Y-20663810D01*
X36018095Y-20663810D01*
X35999048Y-20654286D01*
X35989524Y-20635238D01*
X35989524Y-20625714D01*
X35999048Y-20606667D01*
X36018095Y-20597143D01*
X36046667Y-20597143D01*
X36065714Y-20606667D01*
X36141905Y-20806667D02*
X36151429Y-20797143D01*
X36170476Y-20768571D01*
X36180000Y-20749524D01*
X36189524Y-20720952D01*
X36199048Y-20673333D01*
X36199048Y-20635238D01*
X36189524Y-20587619D01*
X36180000Y-20559048D01*
X36170476Y-20540000D01*
X36151429Y-20511429D01*
X36141905Y-20501905D01*
M02*
