M48
; DRILL file {KiCad (6.0.6)} date Fri Oct  7 01:33:59 2022
; FORMAT={-:-/ absolute / metric / decimal}
; #@! TF.CreationDate,2022-10-07T01:33:59+08:00
; #@! TF.GenerationSoftware,Kicad,Pcbnew,(6.0.6)
; #@! TF.FileFunction,Plated,1,2,PTH
FMAT,2
METRIC
; #@! TA.AperFunction,Plated,PTH,ComponentDrill
T1C0.600
; #@! TA.AperFunction,Plated,PTH,ComponentDrill
T2C0.700
; #@! TA.AperFunction,Plated,PTH,ComponentDrill
T3C0.800
; #@! TA.AperFunction,Plated,PTH,ComponentDrill
T4C0.900
; #@! TA.AperFunction,Plated,PTH,ComponentDrill
T5C1.000
; #@! TA.AperFunction,Plated,PTH,ComponentDrill
T6C4.000
%
G90
G05
T1
X317.0Y-21.25
X317.25Y-180.25
X317.879Y-19.129
X317.879Y-23.371
X318.129Y-178.129
X318.129Y-182.371
X320.0Y-18.25
X320.0Y-24.25
X320.25Y-177.25
X320.25Y-183.25
X322.121Y-19.129
X322.121Y-23.371
X322.371Y-178.129
X322.371Y-182.371
X323.0Y-21.25
X323.25Y-180.25
X403.0Y-21.75
X403.0Y-180.0
X403.879Y-19.629
X403.879Y-23.871
X403.879Y-177.879
X403.879Y-182.121
X406.0Y-18.75
X406.0Y-24.75
X406.0Y-177.0
X406.0Y-183.0
X408.121Y-19.629
X408.121Y-23.871
X408.121Y-177.879
X408.121Y-182.121
X409.0Y-21.75
X409.0Y-180.0
T2
X345.25Y-86.75
X345.25Y-96.91
X352.25Y-121.72
X352.25Y-131.88
X354.75Y-123.97
X354.75Y-134.13
X360.12Y-127.25
X364.37Y-120.25
X367.5Y-86.12
X367.5Y-96.28
X367.5Y-104.12
X367.5Y-114.28
X370.28Y-127.25
X374.53Y-120.25
X377.5Y-158.87
X377.5Y-169.03
X378.25Y-84.34
X378.25Y-94.5
X381.12Y-78.25
X384.87Y-119.25
X391.28Y-78.25
X395.03Y-119.25
T3
X335.475Y-38.17
X335.475Y-48.33
X335.475Y-50.67
X335.475Y-60.83
X335.475Y-63.17
X335.475Y-73.33
X335.475Y-76.42
X335.475Y-86.58
X335.725Y-110.67
X335.725Y-120.83
X335.725Y-123.17
X335.725Y-133.33
X335.725Y-135.67
X335.725Y-145.83
X335.725Y-148.92
X335.725Y-159.08
X337.67Y-35.75
X337.92Y-108.25
X338.17Y-180.75
X347.83Y-35.75
X348.08Y-108.25
X348.33Y-180.75
X350.42Y-35.75
X350.67Y-108.25
X350.92Y-180.75
X360.58Y-35.75
X360.83Y-108.25
X361.08Y-180.75
X363.17Y-35.75
X363.42Y-108.25
X363.67Y-180.75
X373.33Y-35.75
X373.58Y-108.25
X373.83Y-180.75
X375.92Y-35.75
X376.17Y-108.25
X376.42Y-180.75
X386.08Y-35.75
X386.33Y-108.25
X386.58Y-180.75
X407.25Y-38.17
X407.25Y-48.33
X407.25Y-50.67
X407.25Y-60.83
X407.25Y-63.17
X407.25Y-73.33
X407.25Y-76.42
X407.25Y-86.58
X407.5Y-110.67
X407.5Y-120.83
X407.5Y-123.17
X407.5Y-133.33
X407.5Y-135.67
X407.5Y-145.83
X407.5Y-148.92
X407.5Y-159.08
T4
X318.96Y-40.25
X318.96Y-51.0
X318.96Y-61.75
X318.965Y-72.5
X318.97Y-83.25
X319.21Y-112.75
X319.21Y-123.5
X319.21Y-134.25
X319.215Y-145.0
X319.22Y-155.75
X321.5Y-40.25
X321.5Y-51.0
X321.5Y-61.75
X321.505Y-72.5
X321.51Y-83.25
X321.75Y-112.75
X321.75Y-123.5
X321.75Y-134.25
X321.755Y-145.0
X321.76Y-155.75
X323.96Y-32.25
X323.96Y-91.25
X324.21Y-104.75
X324.21Y-163.75
X326.5Y-32.25
X326.5Y-91.25
X326.75Y-104.75
X326.75Y-163.75
X328.96Y-40.25
X328.96Y-51.0
X328.96Y-61.75
X328.965Y-72.5
X328.97Y-83.25
X329.21Y-112.75
X329.21Y-123.5
X329.21Y-134.25
X329.215Y-145.0
X329.22Y-155.75
X330.5Y-25.5
X330.75Y-98.0
X331.0Y-170.5
X331.5Y-40.25
X331.5Y-51.0
X331.5Y-61.75
X331.505Y-72.5
X331.51Y-83.25
X331.75Y-112.75
X331.75Y-123.5
X331.75Y-134.25
X331.755Y-145.0
X331.76Y-155.75
X333.04Y-25.5
X333.29Y-98.0
X333.54Y-170.5
X338.5Y-20.5
X338.5Y-30.5
X338.75Y-93.0
X338.75Y-103.0
X339.0Y-165.5
X339.0Y-175.5
X341.04Y-20.5
X341.04Y-30.5
X341.29Y-93.0
X341.29Y-103.0
X341.54Y-165.5
X341.54Y-175.5
X349.265Y-20.5
X349.265Y-30.5
X349.515Y-93.0
X349.515Y-103.0
X349.765Y-165.5
X349.765Y-175.5
X351.805Y-20.5
X351.805Y-30.5
X352.055Y-93.0
X352.055Y-103.0
X352.305Y-165.5
X352.305Y-175.5
X359.805Y-20.5
X359.805Y-30.5
X360.055Y-93.0
X360.055Y-103.0
X360.305Y-165.5
X360.305Y-175.5
X362.345Y-20.5
X362.345Y-30.5
X362.595Y-93.0
X362.595Y-103.0
X362.845Y-165.5
X362.845Y-175.5
X370.345Y-20.5
X370.345Y-30.5
X370.595Y-93.0
X370.595Y-103.0
X370.845Y-165.5
X370.845Y-175.5
X372.885Y-20.5
X372.885Y-30.5
X373.135Y-93.0
X373.135Y-103.0
X373.385Y-165.5
X373.385Y-175.5
X380.885Y-20.5
X380.885Y-30.5
X381.135Y-93.0
X381.135Y-103.0
X381.385Y-165.5
X381.385Y-175.5
X383.425Y-20.5
X383.425Y-30.5
X383.675Y-93.0
X383.675Y-103.0
X383.925Y-165.5
X383.925Y-175.5
X388.96Y-25.5
X389.21Y-98.0
X389.46Y-170.5
X390.735Y-40.25
X390.735Y-51.0
X390.735Y-61.75
X390.74Y-72.5
X390.745Y-83.25
X390.985Y-112.75
X390.985Y-123.5
X390.985Y-134.25
X390.99Y-145.0
X390.995Y-155.75
X391.5Y-25.5
X391.75Y-98.0
X392.0Y-170.5
X393.275Y-40.25
X393.275Y-51.0
X393.275Y-61.75
X393.28Y-72.5
X393.285Y-83.25
X393.525Y-112.75
X393.525Y-123.5
X393.525Y-134.25
X393.53Y-145.0
X393.535Y-155.75
X395.735Y-32.25
X395.735Y-91.25
X395.985Y-104.75
X395.985Y-163.75
X398.275Y-32.25
X398.275Y-91.25
X398.525Y-104.75
X398.525Y-163.75
X400.735Y-40.25
X400.735Y-51.0
X400.735Y-61.75
X400.74Y-72.5
X400.745Y-83.25
X400.985Y-112.75
X400.985Y-123.5
X400.985Y-134.25
X400.99Y-145.0
X400.995Y-155.75
X403.275Y-40.25
X403.275Y-51.0
X403.275Y-61.75
X403.28Y-72.5
X403.285Y-83.25
X403.525Y-112.75
X403.525Y-123.5
X403.525Y-134.25
X403.53Y-145.0
X403.535Y-155.75
T5
X352.345Y-144.75
X352.345Y-149.0
X354.885Y-144.75
X354.885Y-149.0
X357.425Y-144.75
X357.425Y-149.0
X359.965Y-144.75
X359.965Y-149.0
X362.505Y-144.75
X362.505Y-149.0
X365.045Y-144.75
X365.045Y-149.0
X367.585Y-144.75
X367.585Y-149.0
X370.125Y-144.75
X370.125Y-149.0
T6
X320.0Y-21.25
X320.25Y-180.25
X406.0Y-21.75
X406.0Y-180.0
T0
M30
