%TF.GenerationSoftware,KiCad,Pcbnew,(6.0.6)*%
%TF.CreationDate,2022-10-07T01:34:02+08:00*%
%TF.ProjectId,7SegmentDisplay_DualLine_NoDriver_6InchesV2,37536567-6d65-46e7-9444-6973706c6179,rev?*%
%TF.SameCoordinates,Original*%
%TF.FileFunction,Legend,Bot*%
%TF.FilePolarity,Positive*%
%FSLAX46Y46*%
G04 Gerber Fmt 4.6, Leading zero omitted, Abs format (unit mm)*
G04 Created by KiCad (PCBNEW (6.0.6)) date 2022-10-07 01:34:02*
%MOMM*%
%LPD*%
G01*
G04 APERTURE LIST*
%ADD10C,0.120000*%
%ADD11C,0.900000*%
%ADD12C,8.000000*%
%ADD13R,1.700000X1.700000*%
%ADD14O,1.700000X1.700000*%
%ADD15C,1.400000*%
%ADD16O,1.400000X1.400000*%
%ADD17R,1.800000X1.800000*%
%ADD18C,1.800000*%
%ADD19C,1.600000*%
%ADD20O,1.600000X1.600000*%
G04 APERTURE END LIST*
D10*
%TO.C,REF\u002A\u002A*%
X352250000Y-130864000D02*
X352250000Y-122736000D01*
X354750000Y-133114000D02*
X354750000Y-124986000D01*
X345250000Y-95894000D02*
X345250000Y-87766000D01*
X361136000Y-127250000D02*
X369264000Y-127250000D01*
X377500000Y-159886000D02*
X377500000Y-168014000D01*
X365386000Y-120250000D02*
X373514000Y-120250000D01*
X385886000Y-119250000D02*
X394014000Y-119250000D01*
X367500000Y-105136000D02*
X367500000Y-113264000D01*
X367500000Y-87136000D02*
X367500000Y-95264000D01*
X382136000Y-78250000D02*
X390264000Y-78250000D01*
X378250000Y-85356000D02*
X378250000Y-93484000D01*
%TD*%
%LPC*%
D11*
%TO.C,REF\u002A\u002A*%
X403878680Y-19628680D03*
X408121320Y-23871320D03*
X406000000Y-24750000D03*
X408121320Y-19628680D03*
X403000000Y-21750000D03*
X403878680Y-23871320D03*
X409000000Y-21750000D03*
X406000000Y-18750000D03*
D12*
X406000000Y-21750000D03*
%TD*%
D11*
%TO.C,REF\u002A\u002A*%
X317878680Y-19128680D03*
X322121320Y-23371320D03*
X320000000Y-24250000D03*
X322121320Y-19128680D03*
X317000000Y-21250000D03*
X317878680Y-23371320D03*
X323000000Y-21250000D03*
X320000000Y-18250000D03*
D12*
X320000000Y-21250000D03*
%TD*%
D11*
%TO.C,REF\u002A\u002A*%
X318128680Y-178128680D03*
X322371320Y-182371320D03*
X320250000Y-183250000D03*
X322371320Y-178128680D03*
X317250000Y-180250000D03*
X318128680Y-182371320D03*
X323250000Y-180250000D03*
X320250000Y-177250000D03*
D12*
X320250000Y-180250000D03*
%TD*%
D11*
%TO.C,REF\u002A\u002A*%
X403878680Y-177878680D03*
X408121320Y-182121320D03*
X406000000Y-183000000D03*
X408121320Y-177878680D03*
X403000000Y-180000000D03*
X403878680Y-182121320D03*
X409000000Y-180000000D03*
X406000000Y-177000000D03*
D12*
X406000000Y-180000000D03*
%TD*%
D13*
%TO.C,REF\u002A\u002A*%
X370125000Y-149000000D03*
D14*
X367585000Y-149000000D03*
X365045000Y-149000000D03*
X362505000Y-149000000D03*
X359965000Y-149000000D03*
X357425000Y-149000000D03*
X354885000Y-149000000D03*
X352345000Y-149000000D03*
%TD*%
D15*
%TO.C,REF\u002A\u002A*%
X352250000Y-121720000D03*
D16*
X352250000Y-131880000D03*
%TD*%
D15*
%TO.C,REF\u002A\u002A*%
X354750000Y-123970000D03*
D16*
X354750000Y-134130000D03*
%TD*%
D15*
%TO.C,REF\u002A\u002A*%
X345250000Y-86750000D03*
D16*
X345250000Y-96910000D03*
%TD*%
D15*
%TO.C,REF\u002A\u002A*%
X370280000Y-127250000D03*
D16*
X360120000Y-127250000D03*
%TD*%
D15*
%TO.C,REF\u002A\u002A*%
X377500000Y-169030000D03*
D16*
X377500000Y-158870000D03*
%TD*%
D15*
%TO.C,REF\u002A\u002A*%
X374530000Y-120250000D03*
D16*
X364370000Y-120250000D03*
%TD*%
%TO.C,REF\u002A\u002A*%
X384870000Y-119250000D03*
D15*
X395030000Y-119250000D03*
%TD*%
%TO.C,REF\u002A\u002A*%
X367500000Y-114280000D03*
D16*
X367500000Y-104120000D03*
%TD*%
D15*
%TO.C,REF\u002A\u002A*%
X367500000Y-96280000D03*
D16*
X367500000Y-86120000D03*
%TD*%
D15*
%TO.C,REF\u002A\u002A*%
X391280000Y-78250000D03*
D16*
X381120000Y-78250000D03*
%TD*%
D15*
%TO.C,REF\u002A\u002A*%
X378250000Y-94500000D03*
D16*
X378250000Y-84340000D03*
%TD*%
D13*
%TO.C,REF\u002A\u002A*%
X370125000Y-144750000D03*
D14*
X367585000Y-144750000D03*
X365045000Y-144750000D03*
X362505000Y-144750000D03*
X359965000Y-144750000D03*
X357425000Y-144750000D03*
X354885000Y-144750000D03*
X352345000Y-144750000D03*
%TD*%
D17*
%TO.C,REF\u002A\u002A*%
X341540000Y-165500000D03*
D18*
X339000000Y-165500000D03*
%TD*%
D19*
%TO.C,REF\u002A\u002A*%
X350920000Y-180750000D03*
D20*
X361080000Y-180750000D03*
%TD*%
D19*
%TO.C,REF\u002A\u002A*%
X363670000Y-180750000D03*
D20*
X373830000Y-180750000D03*
%TD*%
D19*
%TO.C,REF\u002A\u002A*%
X338170000Y-180750000D03*
D20*
X348330000Y-180750000D03*
%TD*%
D19*
%TO.C,REF\u002A\u002A*%
X376420000Y-180750000D03*
D20*
X386580000Y-180750000D03*
%TD*%
D17*
%TO.C,REF\u002A\u002A*%
X352305000Y-165500000D03*
D18*
X349765000Y-165500000D03*
%TD*%
D17*
%TO.C,REF\u002A\u002A*%
X383925000Y-175500000D03*
D18*
X381385000Y-175500000D03*
%TD*%
D17*
%TO.C,REF\u002A\u002A*%
X352305000Y-175500000D03*
D18*
X349765000Y-175500000D03*
%TD*%
D17*
%TO.C,REF\u002A\u002A*%
X373385000Y-165500000D03*
D18*
X370845000Y-165500000D03*
%TD*%
D17*
%TO.C,REF\u002A\u002A*%
X383925000Y-165500000D03*
D18*
X381385000Y-165500000D03*
%TD*%
D17*
%TO.C,REF\u002A\u002A*%
X362845000Y-175500000D03*
D18*
X360305000Y-175500000D03*
%TD*%
D17*
%TO.C,REF\u002A\u002A*%
X362845000Y-165500000D03*
D18*
X360305000Y-165500000D03*
%TD*%
D17*
%TO.C,REF\u002A\u002A*%
X373385000Y-175500000D03*
D18*
X370845000Y-175500000D03*
%TD*%
D17*
%TO.C,REF\u002A\u002A*%
X333540000Y-170500000D03*
D18*
X331000000Y-170500000D03*
%TD*%
D17*
%TO.C,REF\u002A\u002A*%
X392000000Y-170500000D03*
D18*
X389460000Y-170500000D03*
%TD*%
D17*
%TO.C,REF\u002A\u002A*%
X341540000Y-175500000D03*
D18*
X339000000Y-175500000D03*
%TD*%
D17*
%TO.C,REF\u002A\u002A*%
X341290000Y-93000000D03*
D18*
X338750000Y-93000000D03*
%TD*%
D19*
%TO.C,REF\u002A\u002A*%
X350670000Y-108250000D03*
D20*
X360830000Y-108250000D03*
%TD*%
D19*
%TO.C,REF\u002A\u002A*%
X363420000Y-108250000D03*
D20*
X373580000Y-108250000D03*
%TD*%
D19*
%TO.C,REF\u002A\u002A*%
X337920000Y-108250000D03*
D20*
X348080000Y-108250000D03*
%TD*%
D19*
%TO.C,REF\u002A\u002A*%
X376170000Y-108250000D03*
D20*
X386330000Y-108250000D03*
%TD*%
D17*
%TO.C,REF\u002A\u002A*%
X393535000Y-155750000D03*
D18*
X390995000Y-155750000D03*
%TD*%
D17*
%TO.C,REF\u002A\u002A*%
X403535000Y-155750000D03*
D18*
X400995000Y-155750000D03*
%TD*%
D17*
%TO.C,REF\u002A\u002A*%
X398525000Y-163750000D03*
D18*
X395985000Y-163750000D03*
%TD*%
D17*
%TO.C,REF\u002A\u002A*%
X331750000Y-134250000D03*
D18*
X329210000Y-134250000D03*
%TD*%
D19*
%TO.C,REF\u002A\u002A*%
X335725000Y-110670000D03*
D20*
X335725000Y-120830000D03*
%TD*%
D17*
%TO.C,REF\u002A\u002A*%
X321755000Y-145000000D03*
D18*
X319215000Y-145000000D03*
%TD*%
D17*
%TO.C,REF\u002A\u002A*%
X331755000Y-145000000D03*
D18*
X329215000Y-145000000D03*
%TD*%
D17*
%TO.C,REF\u002A\u002A*%
X331750000Y-112750000D03*
D18*
X329210000Y-112750000D03*
%TD*%
D19*
%TO.C,REF\u002A\u002A*%
X407500000Y-148920000D03*
D20*
X407500000Y-159080000D03*
%TD*%
D17*
%TO.C,REF\u002A\u002A*%
X321750000Y-134250000D03*
D18*
X319210000Y-134250000D03*
%TD*%
D19*
%TO.C,REF\u002A\u002A*%
X407500000Y-135670000D03*
D20*
X407500000Y-145830000D03*
%TD*%
D17*
%TO.C,REF\u002A\u002A*%
X331750000Y-123500000D03*
D18*
X329210000Y-123500000D03*
%TD*%
D17*
%TO.C,REF\u002A\u002A*%
X321750000Y-123500000D03*
D18*
X319210000Y-123500000D03*
%TD*%
D19*
%TO.C,REF\u002A\u002A*%
X335725000Y-123170000D03*
D20*
X335725000Y-133330000D03*
%TD*%
D17*
%TO.C,REF\u002A\u002A*%
X352055000Y-93000000D03*
D18*
X349515000Y-93000000D03*
%TD*%
D17*
%TO.C,REF\u002A\u002A*%
X383675000Y-103000000D03*
D18*
X381135000Y-103000000D03*
%TD*%
D17*
%TO.C,REF\u002A\u002A*%
X352055000Y-103000000D03*
D18*
X349515000Y-103000000D03*
%TD*%
D17*
%TO.C,REF\u002A\u002A*%
X373135000Y-93000000D03*
D18*
X370595000Y-93000000D03*
%TD*%
D17*
%TO.C,REF\u002A\u002A*%
X383675000Y-93000000D03*
D18*
X381135000Y-93000000D03*
%TD*%
D17*
%TO.C,REF\u002A\u002A*%
X362595000Y-103000000D03*
D18*
X360055000Y-103000000D03*
%TD*%
D17*
%TO.C,REF\u002A\u002A*%
X362595000Y-93000000D03*
D18*
X360055000Y-93000000D03*
%TD*%
D17*
%TO.C,REF\u002A\u002A*%
X373135000Y-103000000D03*
D18*
X370595000Y-103000000D03*
%TD*%
D17*
%TO.C,REF\u002A\u002A*%
X333290000Y-98000000D03*
D18*
X330750000Y-98000000D03*
%TD*%
D17*
%TO.C,REF\u002A\u002A*%
X391750000Y-98000000D03*
D18*
X389210000Y-98000000D03*
%TD*%
D17*
%TO.C,REF\u002A\u002A*%
X398525000Y-104750000D03*
D18*
X395985000Y-104750000D03*
%TD*%
D17*
%TO.C,REF\u002A\u002A*%
X393525000Y-112750000D03*
D18*
X390985000Y-112750000D03*
%TD*%
D17*
%TO.C,REF\u002A\u002A*%
X403525000Y-112750000D03*
D18*
X400985000Y-112750000D03*
%TD*%
D17*
%TO.C,REF\u002A\u002A*%
X331760000Y-155750000D03*
D18*
X329220000Y-155750000D03*
%TD*%
D19*
%TO.C,REF\u002A\u002A*%
X335725000Y-148920000D03*
D20*
X335725000Y-159080000D03*
%TD*%
D19*
%TO.C,REF\u002A\u002A*%
X335725000Y-135670000D03*
D20*
X335725000Y-145830000D03*
%TD*%
D17*
%TO.C,REF\u002A\u002A*%
X326750000Y-104750000D03*
D18*
X324210000Y-104750000D03*
%TD*%
D17*
%TO.C,REF\u002A\u002A*%
X321750000Y-112750000D03*
D18*
X319210000Y-112750000D03*
%TD*%
D17*
%TO.C,REF\u002A\u002A*%
X321760000Y-155750000D03*
D18*
X319220000Y-155750000D03*
%TD*%
D17*
%TO.C,REF\u002A\u002A*%
X326750000Y-163750000D03*
D18*
X324210000Y-163750000D03*
%TD*%
D17*
%TO.C,REF\u002A\u002A*%
X403530000Y-145000000D03*
D18*
X400990000Y-145000000D03*
%TD*%
D17*
%TO.C,REF\u002A\u002A*%
X393530000Y-145000000D03*
D18*
X390990000Y-145000000D03*
%TD*%
D17*
%TO.C,REF\u002A\u002A*%
X393525000Y-134250000D03*
D18*
X390985000Y-134250000D03*
%TD*%
D17*
%TO.C,REF\u002A\u002A*%
X403525000Y-123500000D03*
D18*
X400985000Y-123500000D03*
%TD*%
D17*
%TO.C,REF\u002A\u002A*%
X393525000Y-123500000D03*
D18*
X390985000Y-123500000D03*
%TD*%
D19*
%TO.C,REF\u002A\u002A*%
X407500000Y-123170000D03*
D20*
X407500000Y-133330000D03*
%TD*%
D17*
%TO.C,REF\u002A\u002A*%
X403525000Y-134250000D03*
D18*
X400985000Y-134250000D03*
%TD*%
D19*
%TO.C,REF\u002A\u002A*%
X407500000Y-110670000D03*
D20*
X407500000Y-120830000D03*
%TD*%
D17*
%TO.C,REF\u002A\u002A*%
X341290000Y-103000000D03*
D18*
X338750000Y-103000000D03*
%TD*%
D17*
%TO.C,REF\u002A\u002A*%
X321510000Y-83250000D03*
D18*
X318970000Y-83250000D03*
%TD*%
D17*
%TO.C,REF\u002A\u002A*%
X331510000Y-83250000D03*
D18*
X328970000Y-83250000D03*
%TD*%
D17*
%TO.C,REF\u002A\u002A*%
X326500000Y-91250000D03*
D18*
X323960000Y-91250000D03*
%TD*%
D19*
%TO.C,REF\u002A\u002A*%
X335475000Y-76420000D03*
D20*
X335475000Y-86580000D03*
%TD*%
D19*
%TO.C,REF\u002A\u002A*%
X335475000Y-63170000D03*
D20*
X335475000Y-73330000D03*
%TD*%
D17*
%TO.C,REF\u002A\u002A*%
X326500000Y-32250000D03*
D18*
X323960000Y-32250000D03*
%TD*%
D17*
%TO.C,REF\u002A\u002A*%
X321500000Y-40250000D03*
D18*
X318960000Y-40250000D03*
%TD*%
D17*
%TO.C,REF\u002A\u002A*%
X331500000Y-40250000D03*
D18*
X328960000Y-40250000D03*
%TD*%
D17*
%TO.C,REF\u002A\u002A*%
X331505000Y-72500000D03*
D18*
X328965000Y-72500000D03*
%TD*%
D17*
%TO.C,REF\u002A\u002A*%
X321505000Y-72500000D03*
D18*
X318965000Y-72500000D03*
%TD*%
D17*
%TO.C,REF\u002A\u002A*%
X321500000Y-61750000D03*
D18*
X318960000Y-61750000D03*
%TD*%
D17*
%TO.C,REF\u002A\u002A*%
X331500000Y-51000000D03*
D18*
X328960000Y-51000000D03*
%TD*%
D17*
%TO.C,REF\u002A\u002A*%
X321500000Y-51000000D03*
D18*
X318960000Y-51000000D03*
%TD*%
D19*
%TO.C,REF\u002A\u002A*%
X335475000Y-50670000D03*
D20*
X335475000Y-60830000D03*
%TD*%
D17*
%TO.C,REF\u002A\u002A*%
X331500000Y-61750000D03*
D18*
X328960000Y-61750000D03*
%TD*%
D19*
%TO.C,REF\u002A\u002A*%
X335475000Y-38170000D03*
D20*
X335475000Y-48330000D03*
%TD*%
D19*
%TO.C,REF\u002A\u002A*%
X407250000Y-76420000D03*
D20*
X407250000Y-86580000D03*
%TD*%
D19*
%TO.C,REF\u002A\u002A*%
X407250000Y-63170000D03*
D20*
X407250000Y-73330000D03*
%TD*%
D19*
%TO.C,REF\u002A\u002A*%
X407250000Y-50670000D03*
D20*
X407250000Y-60830000D03*
%TD*%
D19*
%TO.C,REF\u002A\u002A*%
X407250000Y-38170000D03*
D20*
X407250000Y-48330000D03*
%TD*%
D19*
%TO.C,REF\u002A\u002A*%
X375920000Y-35750000D03*
D20*
X386080000Y-35750000D03*
%TD*%
D19*
%TO.C,REF\u002A\u002A*%
X363170000Y-35750000D03*
D20*
X373330000Y-35750000D03*
%TD*%
D19*
%TO.C,REF\u002A\u002A*%
X350420000Y-35750000D03*
D20*
X360580000Y-35750000D03*
%TD*%
D19*
%TO.C,REF\u002A\u002A*%
X337670000Y-35750000D03*
D20*
X347830000Y-35750000D03*
%TD*%
D17*
%TO.C,REF\u002A\u002A*%
X398275000Y-91250000D03*
D18*
X395735000Y-91250000D03*
%TD*%
D17*
%TO.C,REF\u002A\u002A*%
X403285000Y-83250000D03*
D18*
X400745000Y-83250000D03*
%TD*%
D17*
%TO.C,REF\u002A\u002A*%
X393285000Y-83250000D03*
D18*
X390745000Y-83250000D03*
%TD*%
D17*
%TO.C,REF\u002A\u002A*%
X403280000Y-72500000D03*
D18*
X400740000Y-72500000D03*
%TD*%
D17*
%TO.C,REF\u002A\u002A*%
X393280000Y-72500000D03*
D18*
X390740000Y-72500000D03*
%TD*%
D17*
%TO.C,REF\u002A\u002A*%
X403275000Y-61750000D03*
D18*
X400735000Y-61750000D03*
%TD*%
D17*
%TO.C,REF\u002A\u002A*%
X393275000Y-61750000D03*
D18*
X390735000Y-61750000D03*
%TD*%
D17*
%TO.C,REF\u002A\u002A*%
X403275000Y-51000000D03*
D18*
X400735000Y-51000000D03*
%TD*%
D17*
%TO.C,REF\u002A\u002A*%
X393275000Y-51000000D03*
D18*
X390735000Y-51000000D03*
%TD*%
D17*
%TO.C,REF\u002A\u002A*%
X403275000Y-40250000D03*
D18*
X400735000Y-40250000D03*
%TD*%
D17*
%TO.C,REF\u002A\u002A*%
X393275000Y-40250000D03*
D18*
X390735000Y-40250000D03*
%TD*%
%TO.C,REF\u002A\u002A*%
X395735000Y-32250000D03*
D17*
X398275000Y-32250000D03*
%TD*%
%TO.C,REF\u002A\u002A*%
X391500000Y-25500000D03*
D18*
X388960000Y-25500000D03*
%TD*%
D17*
%TO.C,REF\u002A\u002A*%
X372885000Y-20500000D03*
D18*
X370345000Y-20500000D03*
%TD*%
D17*
%TO.C,REF\u002A\u002A*%
X372885000Y-30500000D03*
D18*
X370345000Y-30500000D03*
%TD*%
D17*
%TO.C,REF\u002A\u002A*%
X383425000Y-30500000D03*
D18*
X380885000Y-30500000D03*
%TD*%
D17*
%TO.C,REF\u002A\u002A*%
X383425000Y-20500000D03*
D18*
X380885000Y-20500000D03*
%TD*%
D17*
%TO.C,REF\u002A\u002A*%
X362345000Y-20500000D03*
D18*
X359805000Y-20500000D03*
%TD*%
D17*
%TO.C,REF\u002A\u002A*%
X362345000Y-30500000D03*
D18*
X359805000Y-30500000D03*
%TD*%
D17*
%TO.C,REF\u002A\u002A*%
X333040000Y-25500000D03*
D18*
X330500000Y-25500000D03*
%TD*%
D17*
%TO.C,REF\u002A\u002A*%
X351805000Y-20500000D03*
D18*
X349265000Y-20500000D03*
%TD*%
D17*
%TO.C,REF\u002A\u002A*%
X351805000Y-30500000D03*
D18*
X349265000Y-30500000D03*
%TD*%
D17*
%TO.C,REF\u002A\u002A*%
X341040000Y-30500000D03*
D18*
X338500000Y-30500000D03*
%TD*%
D17*
%TO.C,REF\u002A\u002A*%
X341040000Y-20500000D03*
D18*
X338500000Y-20500000D03*
%TD*%
M02*
