%TF.GenerationSoftware,KiCad,Pcbnew,(6.0.6)*%
%TF.CreationDate,2022-10-07T01:39:02+08:00*%
%TF.ProjectId,7SegmentDisplay_DualLine_NoDriver_8Inches,37536567-6d65-46e7-9444-6973706c6179,rev?*%
%TF.SameCoordinates,Original*%
%TF.FileFunction,Legend,Top*%
%TF.FilePolarity,Positive*%
%FSLAX46Y46*%
G04 Gerber Fmt 4.6, Leading zero omitted, Abs format (unit mm)*
G04 Created by KiCad (PCBNEW (6.0.6)) date 2022-10-07 01:39:02*
%MOMM*%
%LPD*%
G01*
G04 APERTURE LIST*
%ADD10C,0.120000*%
%ADD11R,1.800000X1.800000*%
%ADD12C,1.800000*%
%ADD13C,1.600000*%
%ADD14O,1.600000X1.600000*%
%ADD15C,1.400000*%
%ADD16O,1.400000X1.400000*%
%ADD17C,0.900000*%
%ADD18C,8.000000*%
%ADD19R,1.700000X1.700000*%
%ADD20O,1.700000X1.700000*%
G04 APERTURE END LIST*
D10*
%TO.C,REF\u002A\u002A*%
X408907500Y-84775000D02*
X408907500Y-81685000D01*
X408907500Y-81685170D02*
G75*
G03*
X403357500Y-83230462I-2560000J-1544830D01*
G01*
X403357500Y-83229538D02*
G75*
G03*
X408907500Y-84774830I2990000J-462D01*
G01*
X408847500Y-83230000D02*
G75*
G03*
X408847500Y-83230000I-2500000J0D01*
G01*
X326062500Y-177015000D02*
X326062500Y-173925000D01*
X326062500Y-173925170D02*
G75*
G03*
X320512500Y-175470462I-2560000J-1544830D01*
G01*
X320512500Y-175469538D02*
G75*
G03*
X326062500Y-177014830I2990000J-462D01*
G01*
X326002500Y-175470000D02*
G75*
G03*
X326002500Y-175470000I-2500000J0D01*
G01*
X325945000Y-21495000D02*
X325945000Y-18405000D01*
X320395000Y-19949538D02*
G75*
G03*
X325945000Y-21494830I2990000J-462D01*
G01*
X325945000Y-18405170D02*
G75*
G03*
X320395000Y-19950462I-2560000J-1544830D01*
G01*
X325885000Y-19950000D02*
G75*
G03*
X325885000Y-19950000I-2500000J0D01*
G01*
X326077500Y-156015000D02*
X326077500Y-152925000D01*
X326077500Y-152925170D02*
G75*
G03*
X320527500Y-154470462I-2560000J-1544830D01*
G01*
X320527500Y-154469538D02*
G75*
G03*
X326077500Y-156014830I2990000J-462D01*
G01*
X326017500Y-154470000D02*
G75*
G03*
X326017500Y-154470000I-2500000J0D01*
G01*
X419405000Y-195645000D02*
X419405000Y-192555000D01*
X413855000Y-194099538D02*
G75*
G03*
X419405000Y-195644830I2990000J-462D01*
G01*
X419405000Y-192555170D02*
G75*
G03*
X413855000Y-194100462I-2560000J-1544830D01*
G01*
X419345000Y-194100000D02*
G75*
G03*
X419345000Y-194100000I-2500000J0D01*
G01*
X427365000Y-191645000D02*
X427365000Y-188555000D01*
X427365000Y-188555170D02*
G75*
G03*
X421815000Y-190100462I-2560000J-1544830D01*
G01*
X421815000Y-190099538D02*
G75*
G03*
X427365000Y-191644830I2990000J-462D01*
G01*
X427305000Y-190100000D02*
G75*
G03*
X427305000Y-190100000I-2500000J0D01*
G01*
X341382500Y-138070000D02*
X341382500Y-131530000D01*
X338642500Y-138070000D02*
X341382500Y-138070000D01*
X340012500Y-138840000D02*
X340012500Y-138070000D01*
X340012500Y-130760000D02*
X340012500Y-131530000D01*
X338642500Y-131530000D02*
X338642500Y-138070000D01*
X341382500Y-131530000D02*
X338642500Y-131530000D01*
X325945000Y-31995000D02*
X325945000Y-28905000D01*
X320395000Y-30449538D02*
G75*
G03*
X325945000Y-31994830I2990000J-462D01*
G01*
X325945000Y-28905170D02*
G75*
G03*
X320395000Y-30450462I-2560000J-1544830D01*
G01*
X325885000Y-30450000D02*
G75*
G03*
X325885000Y-30450000I-2500000J0D01*
G01*
X428680000Y-505000D02*
X428680000Y2585000D01*
X423130000Y1040462D02*
G75*
G03*
X428680000Y-504830I2990000J-462D01*
G01*
X428680000Y2584830D02*
G75*
G03*
X423130000Y1039538I-2560000J-1544830D01*
G01*
X428620000Y1040000D02*
G75*
G03*
X428620000Y1040000I-2500000J0D01*
G01*
X439165000Y-42505000D02*
X439165000Y-39415000D01*
X439165000Y-39415170D02*
G75*
G03*
X433615000Y-40960462I-2560000J-1544830D01*
G01*
X433615000Y-40959538D02*
G75*
G03*
X439165000Y-42504830I2990000J-462D01*
G01*
X439105000Y-40960000D02*
G75*
G03*
X439105000Y-40960000I-2500000J0D01*
G01*
X356275000Y18245000D02*
X356275000Y21335000D01*
X350725000Y19790462D02*
G75*
G03*
X356275000Y18245170I2990000J-462D01*
G01*
X356275000Y21334830D02*
G75*
G03*
X350725000Y19789538I-2560000J-1544830D01*
G01*
X356215000Y19790000D02*
G75*
G03*
X356215000Y19790000I-2500000J0D01*
G01*
X408775000Y18245000D02*
X408775000Y21335000D01*
X408775000Y21334830D02*
G75*
G03*
X403225000Y19789538I-2560000J-1544830D01*
G01*
X403225000Y19790462D02*
G75*
G03*
X408775000Y18245170I2990000J-462D01*
G01*
X408715000Y19790000D02*
G75*
G03*
X408715000Y19790000I-2500000J0D01*
G01*
X336445000Y-31995000D02*
X336445000Y-28905000D01*
X336445000Y-28905170D02*
G75*
G03*
X330895000Y-30450462I-2560000J-1544830D01*
G01*
X330895000Y-30449538D02*
G75*
G03*
X336445000Y-31994830I2990000J-462D01*
G01*
X336385000Y-30450000D02*
G75*
G03*
X336385000Y-30450000I-2500000J0D01*
G01*
X398405000Y-195645000D02*
X398405000Y-192555000D01*
X398405000Y-192555170D02*
G75*
G03*
X392855000Y-194100462I-2560000J-1544830D01*
G01*
X392855000Y-194099538D02*
G75*
G03*
X398405000Y-195644830I2990000J-462D01*
G01*
X398345000Y-194100000D02*
G75*
G03*
X398345000Y-194100000I-2500000J0D01*
G01*
X419405000Y-187645000D02*
X419405000Y-184555000D01*
X413855000Y-186099538D02*
G75*
G03*
X419405000Y-187644830I2990000J-462D01*
G01*
X419405000Y-184555170D02*
G75*
G03*
X413855000Y-186100462I-2560000J-1544830D01*
G01*
X419345000Y-186100000D02*
G75*
G03*
X419345000Y-186100000I-2500000J0D01*
G01*
X442615000Y-49750000D02*
X442615000Y-48980000D01*
X441245000Y-48980000D02*
X443985000Y-48980000D01*
X442615000Y-41670000D02*
X442615000Y-42440000D01*
X443985000Y-48980000D02*
X443985000Y-42440000D01*
X443985000Y-42440000D02*
X441245000Y-42440000D01*
X441245000Y-42440000D02*
X441245000Y-48980000D01*
X428797500Y-177025000D02*
X428797500Y-173935000D01*
X423247500Y-175479538D02*
G75*
G03*
X428797500Y-177024830I2990000J-462D01*
G01*
X428797500Y-173935170D02*
G75*
G03*
X423247500Y-175480462I-2560000J-1544830D01*
G01*
X428737500Y-175480000D02*
G75*
G03*
X428737500Y-175480000I-2500000J0D01*
G01*
X428665000Y-42505000D02*
X428665000Y-39415000D01*
X428665000Y-39415170D02*
G75*
G03*
X423115000Y-40960462I-2560000J-1544830D01*
G01*
X423115000Y-40959538D02*
G75*
G03*
X428665000Y-42504830I2990000J-462D01*
G01*
X428605000Y-40960000D02*
G75*
G03*
X428605000Y-40960000I-2500000J0D01*
G01*
X428812500Y-166525000D02*
X428812500Y-163435000D01*
X428812500Y-163435170D02*
G75*
G03*
X423262500Y-164980462I-2560000J-1544830D01*
G01*
X423262500Y-164979538D02*
G75*
G03*
X428812500Y-166524830I2990000J-462D01*
G01*
X428752500Y-164980000D02*
G75*
G03*
X428752500Y-164980000I-2500000J0D01*
G01*
X331170000Y7505000D02*
X331170000Y10595000D01*
X331170000Y10594830D02*
G75*
G03*
X325620000Y9049538I-2560000J-1544830D01*
G01*
X325620000Y9050462D02*
G75*
G03*
X331170000Y7505170I2990000J-462D01*
G01*
X331110000Y9050000D02*
G75*
G03*
X331110000Y9050000I-2500000J0D01*
G01*
X398407500Y-84775000D02*
X398407500Y-81685000D01*
X392857500Y-83229538D02*
G75*
G03*
X398407500Y-84774830I2990000J-462D01*
G01*
X398407500Y-81685170D02*
G75*
G03*
X392857500Y-83230462I-2560000J-1544830D01*
G01*
X398347500Y-83230000D02*
G75*
G03*
X398347500Y-83230000I-2500000J0D01*
G01*
X441245000Y-28520000D02*
X441245000Y-35060000D01*
X443985000Y-35060000D02*
X443985000Y-28520000D01*
X441245000Y-35060000D02*
X443985000Y-35060000D01*
X442615000Y-27750000D02*
X442615000Y-28520000D01*
X443985000Y-28520000D02*
X441245000Y-28520000D01*
X442615000Y-35830000D02*
X442615000Y-35060000D01*
X377235000Y18245000D02*
X377235000Y21335000D01*
X371685000Y19790462D02*
G75*
G03*
X377235000Y18245170I2990000J-462D01*
G01*
X377235000Y21334830D02*
G75*
G03*
X371685000Y19789538I-2560000J-1544830D01*
G01*
X377175000Y19790000D02*
G75*
G03*
X377175000Y19790000I-2500000J0D01*
G01*
X441245000Y-76730000D02*
X443985000Y-76730000D01*
X441245000Y-70190000D02*
X441245000Y-76730000D01*
X443985000Y-76730000D02*
X443985000Y-70190000D01*
X442615000Y-77500000D02*
X442615000Y-76730000D01*
X443985000Y-70190000D02*
X441245000Y-70190000D01*
X442615000Y-69420000D02*
X442615000Y-70190000D01*
X387735000Y18245000D02*
X387735000Y21335000D01*
X387735000Y21334830D02*
G75*
G03*
X382185000Y19789538I-2560000J-1544830D01*
G01*
X382185000Y19790462D02*
G75*
G03*
X387735000Y18245170I2990000J-462D01*
G01*
X387675000Y19790000D02*
G75*
G03*
X387675000Y19790000I-2500000J0D01*
G01*
X347830000Y-82464000D02*
X347830000Y-74336000D01*
X356275000Y10245000D02*
X356275000Y13335000D01*
X350725000Y11790462D02*
G75*
G03*
X356275000Y10245170I2990000J-462D01*
G01*
X356275000Y13334830D02*
G75*
G03*
X350725000Y11789538I-2560000J-1544830D01*
G01*
X356215000Y11790000D02*
G75*
G03*
X356215000Y11790000I-2500000J0D01*
G01*
X428812500Y-124525000D02*
X428812500Y-121435000D01*
X423262500Y-122979538D02*
G75*
G03*
X428812500Y-124524830I2990000J-462D01*
G01*
X428812500Y-121435170D02*
G75*
G03*
X423262500Y-122980462I-2560000J-1544830D01*
G01*
X428752500Y-122980000D02*
G75*
G03*
X428752500Y-122980000I-2500000J0D01*
G01*
X338510000Y-70180000D02*
X338510000Y-76720000D01*
X341250000Y-70180000D02*
X338510000Y-70180000D01*
X339880000Y-77490000D02*
X339880000Y-76720000D01*
X338510000Y-76720000D02*
X341250000Y-76720000D01*
X341250000Y-76720000D02*
X341250000Y-70180000D01*
X339880000Y-69410000D02*
X339880000Y-70180000D01*
X337890000Y-191645000D02*
X337890000Y-188555000D01*
X332340000Y-190099538D02*
G75*
G03*
X337890000Y-191644830I2990000J-462D01*
G01*
X337890000Y-188555170D02*
G75*
G03*
X332340000Y-190100462I-2560000J-1544830D01*
G01*
X337830000Y-190100000D02*
G75*
G03*
X337830000Y-190100000I-2500000J0D01*
G01*
X341382500Y-103780000D02*
X338642500Y-103780000D01*
X340012500Y-111090000D02*
X340012500Y-110320000D01*
X338642500Y-103780000D02*
X338642500Y-110320000D01*
X341382500Y-110320000D02*
X341382500Y-103780000D01*
X340012500Y-103010000D02*
X340012500Y-103780000D01*
X338642500Y-110320000D02*
X341382500Y-110320000D01*
X340012500Y-124920000D02*
X340012500Y-124150000D01*
X338642500Y-124150000D02*
X341382500Y-124150000D01*
X338642500Y-117610000D02*
X338642500Y-124150000D01*
X341382500Y-117610000D02*
X338642500Y-117610000D01*
X341382500Y-124150000D02*
X341382500Y-117610000D01*
X340012500Y-116840000D02*
X340012500Y-117610000D01*
X337892500Y-88775000D02*
X337892500Y-85685000D01*
X337892500Y-85685170D02*
G75*
G03*
X332342500Y-87230462I-2560000J-1544830D01*
G01*
X332342500Y-87229538D02*
G75*
G03*
X337892500Y-88774830I2990000J-462D01*
G01*
X337832500Y-87230000D02*
G75*
G03*
X337832500Y-87230000I-2500000J0D01*
G01*
X326062500Y-145515000D02*
X326062500Y-142425000D01*
X326062500Y-142425170D02*
G75*
G03*
X320512500Y-143970462I-2560000J-1544830D01*
G01*
X320512500Y-143969538D02*
G75*
G03*
X326062500Y-145514830I2990000J-462D01*
G01*
X326002500Y-143970000D02*
G75*
G03*
X326002500Y-143970000I-2500000J0D01*
G01*
X411730000Y-185254000D02*
X411730000Y-177126000D01*
X441377500Y-152000000D02*
X444117500Y-152000000D01*
X441377500Y-145460000D02*
X441377500Y-152000000D01*
X442747500Y-144690000D02*
X442747500Y-145460000D01*
X442747500Y-152770000D02*
X442747500Y-152000000D01*
X444117500Y-152000000D02*
X444117500Y-145460000D01*
X444117500Y-145460000D02*
X441377500Y-145460000D01*
X387867500Y-84775000D02*
X387867500Y-81685000D01*
X387867500Y-81685170D02*
G75*
G03*
X382317500Y-83230462I-2560000J-1544830D01*
G01*
X382317500Y-83229538D02*
G75*
G03*
X387867500Y-84774830I2990000J-462D01*
G01*
X387807500Y-83230000D02*
G75*
G03*
X387807500Y-83230000I-2500000J0D01*
G01*
X408775000Y10245000D02*
X408775000Y13335000D01*
X408775000Y13334830D02*
G75*
G03*
X403225000Y11789538I-2560000J-1544830D01*
G01*
X403225000Y11790462D02*
G75*
G03*
X408775000Y10245170I2990000J-462D01*
G01*
X408715000Y11790000D02*
G75*
G03*
X408715000Y11790000I-2500000J0D01*
G01*
X377365000Y-195645000D02*
X377365000Y-192555000D01*
X377365000Y-192555170D02*
G75*
G03*
X371815000Y-194100462I-2560000J-1544830D01*
G01*
X371815000Y-194099538D02*
G75*
G03*
X377365000Y-195644830I2990000J-462D01*
G01*
X377305000Y-194100000D02*
G75*
G03*
X377305000Y-194100000I-2500000J0D01*
G01*
X398275000Y18245000D02*
X398275000Y21335000D01*
X398275000Y21334830D02*
G75*
G03*
X392725000Y19789538I-2560000J-1544830D01*
G01*
X392725000Y19790462D02*
G75*
G03*
X398275000Y18245170I2990000J-462D01*
G01*
X398215000Y19790000D02*
G75*
G03*
X398215000Y19790000I-2500000J0D01*
G01*
X428680000Y-63505000D02*
X428680000Y-60415000D01*
X428680000Y-60415170D02*
G75*
G03*
X423130000Y-61960462I-2560000J-1544830D01*
G01*
X423130000Y-61959538D02*
G75*
G03*
X428680000Y-63504830I2990000J-462D01*
G01*
X428620000Y-61960000D02*
G75*
G03*
X428620000Y-61960000I-2500000J0D01*
G01*
X341382500Y-159280000D02*
X338642500Y-159280000D01*
X340012500Y-166590000D02*
X340012500Y-165820000D01*
X341382500Y-165820000D02*
X341382500Y-159280000D01*
X338642500Y-165820000D02*
X341382500Y-165820000D01*
X340012500Y-158510000D02*
X340012500Y-159280000D01*
X338642500Y-159280000D02*
X338642500Y-165820000D01*
X356407500Y-84775000D02*
X356407500Y-81685000D01*
X350857500Y-83229538D02*
G75*
G03*
X356407500Y-84774830I2990000J-462D01*
G01*
X356407500Y-81685170D02*
G75*
G03*
X350857500Y-83230462I-2560000J-1544830D01*
G01*
X356347500Y-83230000D02*
G75*
G03*
X356347500Y-83230000I-2500000J0D01*
G01*
X408905000Y-187645000D02*
X408905000Y-184555000D01*
X408905000Y-184555170D02*
G75*
G03*
X403355000Y-186100462I-2560000J-1544830D01*
G01*
X403355000Y-186099538D02*
G75*
G03*
X408905000Y-187644830I2990000J-462D01*
G01*
X408845000Y-186100000D02*
G75*
G03*
X408845000Y-186100000I-2500000J0D01*
G01*
X363070000Y4920000D02*
X363070000Y7660000D01*
X356530000Y4920000D02*
X363070000Y4920000D01*
X363840000Y6290000D02*
X363070000Y6290000D01*
X355760000Y6290000D02*
X356530000Y6290000D01*
X363070000Y7660000D02*
X356530000Y7660000D01*
X356530000Y7660000D02*
X356530000Y4920000D01*
X405640000Y-199600000D02*
X404870000Y-199600000D01*
X398330000Y-200970000D02*
X404870000Y-200970000D01*
X397560000Y-199600000D02*
X398330000Y-199600000D01*
X404870000Y-198230000D02*
X398330000Y-198230000D01*
X404870000Y-200970000D02*
X404870000Y-198230000D01*
X398330000Y-198230000D02*
X398330000Y-200970000D01*
X419407500Y-84775000D02*
X419407500Y-81685000D01*
X419407500Y-81685170D02*
G75*
G03*
X413857500Y-83230462I-2560000J-1544830D01*
G01*
X413857500Y-83229538D02*
G75*
G03*
X419407500Y-84774830I2990000J-462D01*
G01*
X419347500Y-83230000D02*
G75*
G03*
X419347500Y-83230000I-2500000J0D01*
G01*
X325930000Y-42495000D02*
X325930000Y-39405000D01*
X325930000Y-39405170D02*
G75*
G03*
X320380000Y-40950462I-2560000J-1544830D01*
G01*
X320380000Y-40949538D02*
G75*
G03*
X325930000Y-42494830I2990000J-462D01*
G01*
X325870000Y-40950000D02*
G75*
G03*
X325870000Y-40950000I-2500000J0D01*
G01*
X339880000Y-27740000D02*
X339880000Y-28510000D01*
X341250000Y-35050000D02*
X341250000Y-28510000D01*
X341250000Y-28510000D02*
X338510000Y-28510000D01*
X338510000Y-28510000D02*
X338510000Y-35050000D01*
X339880000Y-35820000D02*
X339880000Y-35050000D01*
X338510000Y-35050000D02*
X341250000Y-35050000D01*
X331195000Y-81995000D02*
X331195000Y-78905000D01*
X325645000Y-80449538D02*
G75*
G03*
X331195000Y-81994830I2990000J-462D01*
G01*
X331195000Y-78905170D02*
G75*
G03*
X325645000Y-80450462I-2560000J-1544830D01*
G01*
X331135000Y-80450000D02*
G75*
G03*
X331135000Y-80450000I-2500000J0D01*
G01*
X336577500Y-156015000D02*
X336577500Y-152925000D01*
X331027500Y-154469538D02*
G75*
G03*
X336577500Y-156014830I2990000J-462D01*
G01*
X336577500Y-152925170D02*
G75*
G03*
X331027500Y-154470462I-2560000J-1544830D01*
G01*
X336517500Y-154470000D02*
G75*
G03*
X336517500Y-154470000I-2500000J0D01*
G01*
X418660000Y7660000D02*
X412120000Y7660000D01*
X419430000Y6290000D02*
X418660000Y6290000D01*
X412120000Y4920000D02*
X418660000Y4920000D01*
X411350000Y6290000D02*
X412120000Y6290000D01*
X418660000Y4920000D02*
X418660000Y7660000D01*
X412120000Y7660000D02*
X412120000Y4920000D01*
X428680000Y-21505000D02*
X428680000Y-18415000D01*
X428680000Y-18415170D02*
G75*
G03*
X423130000Y-19960462I-2560000J-1544830D01*
G01*
X423130000Y-19959538D02*
G75*
G03*
X428680000Y-21504830I2990000J-462D01*
G01*
X428620000Y-19960000D02*
G75*
G03*
X428620000Y-19960000I-2500000J0D01*
G01*
X434062500Y-185025000D02*
X434062500Y-181935000D01*
X434062500Y-181935170D02*
G75*
G03*
X428512500Y-183480462I-2560000J-1544830D01*
G01*
X428512500Y-183479538D02*
G75*
G03*
X434062500Y-185024830I2990000J-462D01*
G01*
X434002500Y-183480000D02*
G75*
G03*
X434002500Y-183480000I-2500000J0D01*
G01*
X336445000Y-495000D02*
X336445000Y2595000D01*
X330895000Y1050462D02*
G75*
G03*
X336445000Y-494830I2990000J-462D01*
G01*
X336445000Y2594830D02*
G75*
G03*
X330895000Y1049538I-2560000J-1544830D01*
G01*
X336385000Y1050000D02*
G75*
G03*
X336385000Y1050000I-2500000J0D01*
G01*
X443985000Y-14600000D02*
X441245000Y-14600000D01*
X443985000Y-21140000D02*
X443985000Y-14600000D01*
X442615000Y-21910000D02*
X442615000Y-21140000D01*
X441245000Y-21140000D02*
X443985000Y-21140000D01*
X442615000Y-13830000D02*
X442615000Y-14600000D01*
X441245000Y-14600000D02*
X441245000Y-21140000D01*
X428797500Y-145525000D02*
X428797500Y-142435000D01*
X428797500Y-142435170D02*
G75*
G03*
X423247500Y-143980462I-2560000J-1544830D01*
G01*
X423247500Y-143979538D02*
G75*
G03*
X428797500Y-145524830I2990000J-462D01*
G01*
X428737500Y-143980000D02*
G75*
G03*
X428737500Y-143980000I-2500000J0D01*
G01*
X345867500Y-92775000D02*
X345867500Y-89685000D01*
X345867500Y-89685170D02*
G75*
G03*
X340317500Y-91230462I-2560000J-1544830D01*
G01*
X340317500Y-91229538D02*
G75*
G03*
X345867500Y-92774830I2990000J-462D01*
G01*
X345807500Y-91230000D02*
G75*
G03*
X345807500Y-91230000I-2500000J0D01*
G01*
X444117500Y-138080000D02*
X444117500Y-131540000D01*
X442747500Y-130770000D02*
X442747500Y-131540000D01*
X441377500Y-131540000D02*
X441377500Y-138080000D01*
X444117500Y-131540000D02*
X441377500Y-131540000D01*
X442747500Y-138850000D02*
X442747500Y-138080000D01*
X441377500Y-138080000D02*
X444117500Y-138080000D01*
X439180000Y-505000D02*
X439180000Y2585000D01*
X433630000Y1040462D02*
G75*
G03*
X439180000Y-504830I2990000J-462D01*
G01*
X439180000Y2584830D02*
G75*
G03*
X433630000Y1039538I-2560000J-1544830D01*
G01*
X439120000Y1040000D02*
G75*
G03*
X439120000Y1040000I-2500000J0D01*
G01*
X363972500Y-96730000D02*
X363202500Y-96730000D01*
X356662500Y-98100000D02*
X363202500Y-98100000D01*
X363202500Y-98100000D02*
X363202500Y-95360000D01*
X355892500Y-96730000D02*
X356662500Y-96730000D01*
X363202500Y-95360000D02*
X356662500Y-95360000D01*
X356662500Y-95360000D02*
X356662500Y-98100000D01*
X326077500Y-103515000D02*
X326077500Y-100425000D01*
X326077500Y-100425170D02*
G75*
G03*
X320527500Y-101970462I-2560000J-1544830D01*
G01*
X320527500Y-101969538D02*
G75*
G03*
X326077500Y-103514830I2990000J-462D01*
G01*
X326017500Y-101970000D02*
G75*
G03*
X326017500Y-101970000I-2500000J0D01*
G01*
X428812500Y-103525000D02*
X428812500Y-100435000D01*
X428812500Y-100435170D02*
G75*
G03*
X423262500Y-101980462I-2560000J-1544830D01*
G01*
X423262500Y-101979538D02*
G75*
G03*
X428812500Y-103524830I2990000J-462D01*
G01*
X428752500Y-101980000D02*
G75*
G03*
X428752500Y-101980000I-2500000J0D01*
G01*
X336445000Y-63495000D02*
X336445000Y-60405000D01*
X336445000Y-60405170D02*
G75*
G03*
X330895000Y-61950462I-2560000J-1544830D01*
G01*
X330895000Y-61949538D02*
G75*
G03*
X336445000Y-63494830I2990000J-462D01*
G01*
X336385000Y-61950000D02*
G75*
G03*
X336385000Y-61950000I-2500000J0D01*
G01*
X336577500Y-166515000D02*
X336577500Y-163425000D01*
X336577500Y-163425170D02*
G75*
G03*
X331027500Y-164970462I-2560000J-1544830D01*
G01*
X331027500Y-164969538D02*
G75*
G03*
X336577500Y-166514830I2990000J-462D01*
G01*
X336517500Y-164970000D02*
G75*
G03*
X336517500Y-164970000I-2500000J0D01*
G01*
X439180000Y-63505000D02*
X439180000Y-60415000D01*
X433630000Y-61959538D02*
G75*
G03*
X439180000Y-63504830I2990000J-462D01*
G01*
X439180000Y-60415170D02*
G75*
G03*
X433630000Y-61960462I-2560000J-1544830D01*
G01*
X439120000Y-61960000D02*
G75*
G03*
X439120000Y-61960000I-2500000J0D01*
G01*
X339880000Y-63570000D02*
X339880000Y-62800000D01*
X341250000Y-62800000D02*
X341250000Y-56260000D01*
X339880000Y-55490000D02*
X339880000Y-56260000D01*
X341250000Y-56260000D02*
X338510000Y-56260000D01*
X338510000Y-62800000D02*
X341250000Y-62800000D01*
X338510000Y-56260000D02*
X338510000Y-62800000D01*
X387735000Y10245000D02*
X387735000Y13335000D01*
X382185000Y11790462D02*
G75*
G03*
X387735000Y10245170I2990000J-462D01*
G01*
X387735000Y13334830D02*
G75*
G03*
X382185000Y11789538I-2560000J-1544830D01*
G01*
X387675000Y11790000D02*
G75*
G03*
X387675000Y11790000I-2500000J0D01*
G01*
X366735000Y10245000D02*
X366735000Y13335000D01*
X366735000Y13334830D02*
G75*
G03*
X361185000Y11789538I-2560000J-1544830D01*
G01*
X361185000Y11790462D02*
G75*
G03*
X366735000Y10245170I2990000J-462D01*
G01*
X366675000Y11790000D02*
G75*
G03*
X366675000Y11790000I-2500000J0D01*
G01*
X356660000Y-198230000D02*
X356660000Y-200970000D01*
X363970000Y-199600000D02*
X363200000Y-199600000D01*
X363200000Y-200970000D02*
X363200000Y-198230000D01*
X363200000Y-198230000D02*
X356660000Y-198230000D01*
X356660000Y-200970000D02*
X363200000Y-200970000D01*
X355890000Y-199600000D02*
X356660000Y-199600000D01*
X336430000Y-42495000D02*
X336430000Y-39405000D01*
X336430000Y-39405170D02*
G75*
G03*
X330880000Y-40950462I-2560000J-1544830D01*
G01*
X330880000Y-40949538D02*
G75*
G03*
X336430000Y-42494830I2990000J-462D01*
G01*
X336370000Y-40950000D02*
G75*
G03*
X336370000Y-40950000I-2500000J0D01*
G01*
X336430000Y-73995000D02*
X336430000Y-70905000D01*
X330880000Y-72449538D02*
G75*
G03*
X336430000Y-73994830I2990000J-462D01*
G01*
X336430000Y-70905170D02*
G75*
G03*
X330880000Y-72450462I-2560000J-1544830D01*
G01*
X336370000Y-72450000D02*
G75*
G03*
X336370000Y-72450000I-2500000J0D01*
G01*
X419407500Y-92775000D02*
X419407500Y-89685000D01*
X419407500Y-89685170D02*
G75*
G03*
X413857500Y-91230462I-2560000J-1544830D01*
G01*
X413857500Y-91229538D02*
G75*
G03*
X419407500Y-92774830I2990000J-462D01*
G01*
X419347500Y-91230000D02*
G75*
G03*
X419347500Y-91230000I-2500000J0D01*
G01*
X427235000Y14245000D02*
X427235000Y17335000D01*
X427235000Y17334830D02*
G75*
G03*
X421685000Y15789538I-2560000J-1544830D01*
G01*
X421685000Y15790462D02*
G75*
G03*
X427235000Y14245170I2990000J-462D01*
G01*
X427175000Y15790000D02*
G75*
G03*
X427175000Y15790000I-2500000J0D01*
G01*
X405010000Y-142214000D02*
X405010000Y-134086000D01*
X370582500Y-95360000D02*
X370582500Y-98100000D01*
X377122500Y-98100000D02*
X377122500Y-95360000D01*
X369812500Y-96730000D02*
X370582500Y-96730000D01*
X377122500Y-95360000D02*
X370582500Y-95360000D01*
X377892500Y-96730000D02*
X377122500Y-96730000D01*
X370582500Y-98100000D02*
X377122500Y-98100000D01*
X411290000Y-82194000D02*
X411290000Y-74066000D01*
X418792500Y-98100000D02*
X418792500Y-95360000D01*
X412252500Y-98100000D02*
X418792500Y-98100000D01*
X419562500Y-96730000D02*
X418792500Y-96730000D01*
X412252500Y-95360000D02*
X412252500Y-98100000D01*
X411482500Y-96730000D02*
X412252500Y-96730000D01*
X418792500Y-95360000D02*
X412252500Y-95360000D01*
X398405000Y-187645000D02*
X398405000Y-184555000D01*
X392855000Y-186099538D02*
G75*
G03*
X398405000Y-187644830I2990000J-462D01*
G01*
X398405000Y-184555170D02*
G75*
G03*
X392855000Y-186100462I-2560000J-1544830D01*
G01*
X398345000Y-186100000D02*
G75*
G03*
X398345000Y-186100000I-2500000J0D01*
G01*
X336445000Y-21495000D02*
X336445000Y-18405000D01*
X336445000Y-18405170D02*
G75*
G03*
X330895000Y-19950462I-2560000J-1544830D01*
G01*
X330895000Y-19949538D02*
G75*
G03*
X336445000Y-21494830I2990000J-462D01*
G01*
X336385000Y-19950000D02*
G75*
G03*
X336385000Y-19950000I-2500000J0D01*
G01*
X391812500Y-96730000D02*
X391042500Y-96730000D01*
X391042500Y-98100000D02*
X391042500Y-95360000D01*
X391042500Y-95360000D02*
X384502500Y-95360000D01*
X384502500Y-95360000D02*
X384502500Y-98100000D01*
X383732500Y-96730000D02*
X384502500Y-96730000D01*
X384502500Y-98100000D02*
X391042500Y-98100000D01*
X439312500Y-166525000D02*
X439312500Y-163435000D01*
X433762500Y-164979538D02*
G75*
G03*
X439312500Y-166524830I2990000J-462D01*
G01*
X439312500Y-163435170D02*
G75*
G03*
X433762500Y-164980462I-2560000J-1544830D01*
G01*
X439252500Y-164980000D02*
G75*
G03*
X439252500Y-164980000I-2500000J0D01*
G01*
X341250000Y-42430000D02*
X338510000Y-42430000D01*
X338510000Y-42430000D02*
X338510000Y-48970000D01*
X339880000Y-49740000D02*
X339880000Y-48970000D01*
X338510000Y-48970000D02*
X341250000Y-48970000D01*
X341250000Y-48970000D02*
X341250000Y-42430000D01*
X339880000Y-41660000D02*
X339880000Y-42430000D01*
X339880000Y-13820000D02*
X339880000Y-14590000D01*
X339880000Y-21900000D02*
X339880000Y-21130000D01*
X338510000Y-14590000D02*
X338510000Y-21130000D01*
X338510000Y-21130000D02*
X341250000Y-21130000D01*
X341250000Y-14590000D02*
X338510000Y-14590000D01*
X341250000Y-21130000D02*
X341250000Y-14590000D01*
X377365000Y-187645000D02*
X377365000Y-184555000D01*
X371815000Y-186099538D02*
G75*
G03*
X377365000Y-187644830I2990000J-462D01*
G01*
X377365000Y-184555170D02*
G75*
G03*
X371815000Y-186100462I-2560000J-1544830D01*
G01*
X377305000Y-186100000D02*
G75*
G03*
X377305000Y-186100000I-2500000J0D01*
G01*
X439312500Y-124525000D02*
X439312500Y-121435000D01*
X439312500Y-121435170D02*
G75*
G03*
X433762500Y-122980462I-2560000J-1544830D01*
G01*
X433762500Y-122979538D02*
G75*
G03*
X439312500Y-124524830I2990000J-462D01*
G01*
X439252500Y-122980000D02*
G75*
G03*
X439252500Y-122980000I-2500000J0D01*
G01*
X443985000Y-770000D02*
X441245000Y-770000D01*
X442615000Y-8080000D02*
X442615000Y-7310000D01*
X441245000Y-7310000D02*
X443985000Y-7310000D01*
X442615000Y0D02*
X442615000Y-770000D01*
X441245000Y-770000D02*
X441245000Y-7310000D01*
X443985000Y-7310000D02*
X443985000Y-770000D01*
X342060000Y-199600000D02*
X342830000Y-199600000D01*
X349370000Y-200970000D02*
X349370000Y-198230000D01*
X350140000Y-199600000D02*
X349370000Y-199600000D01*
X349370000Y-198230000D02*
X342830000Y-198230000D01*
X342830000Y-198230000D02*
X342830000Y-200970000D01*
X342830000Y-200970000D02*
X349370000Y-200970000D01*
X439180000Y-21505000D02*
X439180000Y-18415000D01*
X439180000Y-18415170D02*
G75*
G03*
X433630000Y-19960462I-2560000J-1544830D01*
G01*
X433630000Y-19959538D02*
G75*
G03*
X439180000Y-21504830I2990000J-462D01*
G01*
X439120000Y-19960000D02*
G75*
G03*
X439120000Y-19960000I-2500000J0D01*
G01*
X383600000Y6290000D02*
X384370000Y6290000D01*
X384370000Y7660000D02*
X384370000Y4920000D01*
X390910000Y4920000D02*
X390910000Y7660000D01*
X384370000Y4920000D02*
X390910000Y4920000D01*
X391680000Y6290000D02*
X390910000Y6290000D01*
X390910000Y7660000D02*
X384370000Y7660000D01*
X336577500Y-103515000D02*
X336577500Y-100425000D01*
X331027500Y-101969538D02*
G75*
G03*
X336577500Y-103514830I2990000J-462D01*
G01*
X336577500Y-100425170D02*
G75*
G03*
X331027500Y-101970462I-2560000J-1544830D01*
G01*
X336517500Y-101970000D02*
G75*
G03*
X336517500Y-101970000I-2500000J0D01*
G01*
X325945000Y-52995000D02*
X325945000Y-49905000D01*
X325945000Y-49905170D02*
G75*
G03*
X320395000Y-51450462I-2560000J-1544830D01*
G01*
X320395000Y-51449538D02*
G75*
G03*
X325945000Y-52994830I2990000J-462D01*
G01*
X325885000Y-51450000D02*
G75*
G03*
X325885000Y-51450000I-2500000J0D01*
G01*
X377367500Y-84775000D02*
X377367500Y-81685000D01*
X377367500Y-81685170D02*
G75*
G03*
X371817500Y-83230462I-2560000J-1544830D01*
G01*
X371817500Y-83229538D02*
G75*
G03*
X377367500Y-84774830I2990000J-462D01*
G01*
X377307500Y-83230000D02*
G75*
G03*
X377307500Y-83230000I-2500000J0D01*
G01*
X441377500Y-103790000D02*
X441377500Y-110330000D01*
X441377500Y-110330000D02*
X444117500Y-110330000D01*
X444117500Y-110330000D02*
X444117500Y-103790000D01*
X444117500Y-103790000D02*
X441377500Y-103790000D01*
X442747500Y-103020000D02*
X442747500Y-103790000D01*
X442747500Y-111100000D02*
X442747500Y-110330000D01*
X427367500Y-88775000D02*
X427367500Y-85685000D01*
X427367500Y-85685170D02*
G75*
G03*
X421817500Y-87230462I-2560000J-1544830D01*
G01*
X421817500Y-87229538D02*
G75*
G03*
X427367500Y-88774830I2990000J-462D01*
G01*
X427307500Y-87230000D02*
G75*
G03*
X427307500Y-87230000I-2500000J0D01*
G01*
X428812500Y-135025000D02*
X428812500Y-131935000D01*
X423262500Y-133479538D02*
G75*
G03*
X428812500Y-135024830I2990000J-462D01*
G01*
X428812500Y-131935170D02*
G75*
G03*
X423262500Y-133480462I-2560000J-1544830D01*
G01*
X428752500Y-133480000D02*
G75*
G03*
X428752500Y-133480000I-2500000J0D01*
G01*
X439165000Y-74005000D02*
X439165000Y-70915000D01*
X439165000Y-70915170D02*
G75*
G03*
X433615000Y-72460462I-2560000J-1544830D01*
G01*
X433615000Y-72459538D02*
G75*
G03*
X439165000Y-74004830I2990000J-462D01*
G01*
X439105000Y-72460000D02*
G75*
G03*
X439105000Y-72460000I-2500000J0D01*
G01*
X422744000Y-106290000D02*
X414616000Y-106290000D01*
X336577500Y-124515000D02*
X336577500Y-121425000D01*
X331027500Y-122969538D02*
G75*
G03*
X336577500Y-124514830I2990000J-462D01*
G01*
X336577500Y-121425170D02*
G75*
G03*
X331027500Y-122970462I-2560000J-1544830D01*
G01*
X336517500Y-122970000D02*
G75*
G03*
X336517500Y-122970000I-2500000J0D01*
G01*
X439180000Y-32005000D02*
X439180000Y-28915000D01*
X433630000Y-30459538D02*
G75*
G03*
X439180000Y-32004830I2990000J-462D01*
G01*
X439180000Y-28915170D02*
G75*
G03*
X433630000Y-30460462I-2560000J-1544830D01*
G01*
X439120000Y-30460000D02*
G75*
G03*
X439120000Y-30460000I-2500000J0D01*
G01*
X439297500Y-177025000D02*
X439297500Y-173935000D01*
X439297500Y-173935170D02*
G75*
G03*
X433747500Y-175480462I-2560000J-1544830D01*
G01*
X433747500Y-175479538D02*
G75*
G03*
X439297500Y-177024830I2990000J-462D01*
G01*
X439237500Y-175480000D02*
G75*
G03*
X439237500Y-175480000I-2500000J0D01*
G01*
X428680000Y-53005000D02*
X428680000Y-49915000D01*
X423130000Y-51459538D02*
G75*
G03*
X428680000Y-53004830I2990000J-462D01*
G01*
X428680000Y-49915170D02*
G75*
G03*
X423130000Y-51460462I-2560000J-1544830D01*
G01*
X428620000Y-51460000D02*
G75*
G03*
X428620000Y-51460000I-2500000J0D01*
G01*
X366867500Y-92775000D02*
X366867500Y-89685000D01*
X366867500Y-89685170D02*
G75*
G03*
X361317500Y-91230462I-2560000J-1544830D01*
G01*
X361317500Y-91229538D02*
G75*
G03*
X366867500Y-92774830I2990000J-462D01*
G01*
X366807500Y-91230000D02*
G75*
G03*
X366807500Y-91230000I-2500000J0D01*
G01*
X439312500Y-156025000D02*
X439312500Y-152935000D01*
X433762500Y-154479538D02*
G75*
G03*
X439312500Y-156024830I2990000J-462D01*
G01*
X439312500Y-152935170D02*
G75*
G03*
X433762500Y-154480462I-2560000J-1544830D01*
G01*
X439252500Y-154480000D02*
G75*
G03*
X439252500Y-154480000I-2500000J0D01*
G01*
X356405000Y-195645000D02*
X356405000Y-192555000D01*
X356405000Y-192555170D02*
G75*
G03*
X350855000Y-194100462I-2560000J-1544830D01*
G01*
X350855000Y-194099538D02*
G75*
G03*
X356405000Y-195644830I2990000J-462D01*
G01*
X356345000Y-194100000D02*
G75*
G03*
X356345000Y-194100000I-2500000J0D01*
G01*
X428680000Y-32005000D02*
X428680000Y-28915000D01*
X428680000Y-28915170D02*
G75*
G03*
X423130000Y-30460462I-2560000J-1544830D01*
G01*
X423130000Y-30459538D02*
G75*
G03*
X428680000Y-32004830I2990000J-462D01*
G01*
X428620000Y-30460000D02*
G75*
G03*
X428620000Y-30460000I-2500000J0D01*
G01*
X391810000Y-199600000D02*
X391040000Y-199600000D01*
X384500000Y-200970000D02*
X391040000Y-200970000D01*
X391040000Y-200970000D02*
X391040000Y-198230000D01*
X384500000Y-198230000D02*
X384500000Y-200970000D01*
X383730000Y-199600000D02*
X384500000Y-199600000D01*
X391040000Y-198230000D02*
X384500000Y-198230000D01*
X408905000Y-195645000D02*
X408905000Y-192555000D01*
X408905000Y-192555170D02*
G75*
G03*
X403355000Y-194100462I-2560000J-1544830D01*
G01*
X403355000Y-194099538D02*
G75*
G03*
X408905000Y-195644830I2990000J-462D01*
G01*
X408845000Y-194100000D02*
G75*
G03*
X408845000Y-194100000I-2500000J0D01*
G01*
X412250000Y-198230000D02*
X412250000Y-200970000D01*
X411480000Y-199600000D02*
X412250000Y-199600000D01*
X412250000Y-200970000D02*
X418790000Y-200970000D01*
X419560000Y-199600000D02*
X418790000Y-199600000D01*
X418790000Y-198230000D02*
X412250000Y-198230000D01*
X418790000Y-200970000D02*
X418790000Y-198230000D01*
X388595000Y-153380000D02*
X370755000Y-153380000D01*
X388595000Y-156040000D02*
X370755000Y-156040000D01*
X388595000Y-153380000D02*
X388595000Y-156040000D01*
X370755000Y-153380000D02*
X370755000Y-156040000D01*
X391195000Y-153380000D02*
X391195000Y-154710000D01*
X389865000Y-153380000D02*
X391195000Y-153380000D01*
X404740000Y4920000D02*
X404740000Y7660000D01*
X398200000Y7660000D02*
X398200000Y4920000D01*
X404740000Y7660000D02*
X398200000Y7660000D01*
X398200000Y4920000D02*
X404740000Y4920000D01*
X397430000Y6290000D02*
X398200000Y6290000D01*
X405510000Y6290000D02*
X404740000Y6290000D01*
X336577500Y-135015000D02*
X336577500Y-131925000D01*
X336577500Y-131925170D02*
G75*
G03*
X331027500Y-133470462I-2560000J-1544830D01*
G01*
X331027500Y-133469538D02*
G75*
G03*
X336577500Y-135014830I2990000J-462D01*
G01*
X336517500Y-133470000D02*
G75*
G03*
X336517500Y-133470000I-2500000J0D01*
G01*
X444117500Y-117620000D02*
X441377500Y-117620000D01*
X442747500Y-116850000D02*
X442747500Y-117620000D01*
X444117500Y-124160000D02*
X444117500Y-117620000D01*
X441377500Y-117620000D02*
X441377500Y-124160000D01*
X441377500Y-124160000D02*
X444117500Y-124160000D01*
X442747500Y-124930000D02*
X442747500Y-124160000D01*
X424214000Y-171480000D02*
X416086000Y-171480000D01*
X442747500Y-166600000D02*
X442747500Y-165830000D01*
X441377500Y-165830000D02*
X444117500Y-165830000D01*
X442747500Y-158520000D02*
X442747500Y-159290000D01*
X444117500Y-165830000D02*
X444117500Y-159290000D01*
X441377500Y-159290000D02*
X441377500Y-165830000D01*
X444117500Y-159290000D02*
X441377500Y-159290000D01*
X441377500Y-173210000D02*
X441377500Y-179750000D01*
X442747500Y-180520000D02*
X442747500Y-179750000D01*
X444117500Y-179750000D02*
X444117500Y-173210000D01*
X441377500Y-179750000D02*
X444117500Y-179750000D01*
X442747500Y-172440000D02*
X442747500Y-173210000D01*
X444117500Y-173210000D02*
X441377500Y-173210000D01*
X434037500Y-95525000D02*
X434037500Y-92435000D01*
X434037500Y-92435170D02*
G75*
G03*
X428487500Y-93980462I-2560000J-1544830D01*
G01*
X428487500Y-93979538D02*
G75*
G03*
X434037500Y-95524830I2990000J-462D01*
G01*
X433977500Y-93980000D02*
G75*
G03*
X433977500Y-93980000I-2500000J0D01*
G01*
X345735000Y10245000D02*
X345735000Y13335000D01*
X340185000Y11790462D02*
G75*
G03*
X345735000Y10245170I2990000J-462D01*
G01*
X345735000Y13334830D02*
G75*
G03*
X340185000Y11789538I-2560000J-1544830D01*
G01*
X345675000Y11790000D02*
G75*
G03*
X345675000Y11790000I-2500000J0D01*
G01*
X326077500Y-166515000D02*
X326077500Y-163425000D01*
X326077500Y-163425170D02*
G75*
G03*
X320527500Y-164970462I-2560000J-1544830D01*
G01*
X320527500Y-164969538D02*
G75*
G03*
X326077500Y-166514830I2990000J-462D01*
G01*
X326017500Y-164970000D02*
G75*
G03*
X326017500Y-164970000I-2500000J0D01*
G01*
X388590000Y-152430000D02*
X370750000Y-152430000D01*
X388590000Y-149770000D02*
X388590000Y-152430000D01*
X388590000Y-149770000D02*
X370750000Y-149770000D01*
X391190000Y-149770000D02*
X391190000Y-151100000D01*
X389860000Y-149770000D02*
X391190000Y-149770000D01*
X370750000Y-149770000D02*
X370750000Y-152430000D01*
X407130000Y-144624000D02*
X407130000Y-136496000D01*
X439312500Y-103525000D02*
X439312500Y-100435000D01*
X439312500Y-100435170D02*
G75*
G03*
X433762500Y-101980462I-2560000J-1544830D01*
G01*
X433762500Y-101979538D02*
G75*
G03*
X439312500Y-103524830I2990000J-462D01*
G01*
X439252500Y-101980000D02*
G75*
G03*
X439252500Y-101980000I-2500000J0D01*
G01*
X345865000Y-187645000D02*
X345865000Y-184555000D01*
X340315000Y-186099538D02*
G75*
G03*
X345865000Y-187644830I2990000J-462D01*
G01*
X345865000Y-184555170D02*
G75*
G03*
X340315000Y-186100462I-2560000J-1544830D01*
G01*
X345805000Y-186100000D02*
G75*
G03*
X345805000Y-186100000I-2500000J0D01*
G01*
X377890000Y-199600000D02*
X377120000Y-199600000D01*
X370580000Y-198230000D02*
X370580000Y-200970000D01*
X369810000Y-199600000D02*
X370580000Y-199600000D01*
X377120000Y-198230000D02*
X370580000Y-198230000D01*
X370580000Y-200970000D02*
X377120000Y-200970000D01*
X377120000Y-200970000D02*
X377120000Y-198230000D01*
X439297500Y-145525000D02*
X439297500Y-142435000D01*
X439297500Y-142435170D02*
G75*
G03*
X433747500Y-143980462I-2560000J-1544830D01*
G01*
X433747500Y-143979538D02*
G75*
G03*
X439297500Y-145524830I2990000J-462D01*
G01*
X439237500Y-143980000D02*
G75*
G03*
X439237500Y-143980000I-2500000J0D01*
G01*
X326077500Y-124515000D02*
X326077500Y-121425000D01*
X320527500Y-122969538D02*
G75*
G03*
X326077500Y-124514830I2990000J-462D01*
G01*
X326077500Y-121425170D02*
G75*
G03*
X320527500Y-122970462I-2560000J-1544830D01*
G01*
X326017500Y-122970000D02*
G75*
G03*
X326017500Y-122970000I-2500000J0D01*
G01*
X338510000Y-760000D02*
X338510000Y-7300000D01*
X339880000Y-8070000D02*
X339880000Y-7300000D01*
X339880000Y10000D02*
X339880000Y-760000D01*
X338510000Y-7300000D02*
X341250000Y-7300000D01*
X341250000Y-760000D02*
X338510000Y-760000D01*
X341250000Y-7300000D02*
X341250000Y-760000D01*
X428812500Y-156025000D02*
X428812500Y-152935000D01*
X423262500Y-154479538D02*
G75*
G03*
X428812500Y-156024830I2990000J-462D01*
G01*
X428812500Y-152935170D02*
G75*
G03*
X423262500Y-154480462I-2560000J-1544830D01*
G01*
X428752500Y-154480000D02*
G75*
G03*
X428752500Y-154480000I-2500000J0D01*
G01*
X336562500Y-145515000D02*
X336562500Y-142425000D01*
X331012500Y-143969538D02*
G75*
G03*
X336562500Y-145514830I2990000J-462D01*
G01*
X336562500Y-142425170D02*
G75*
G03*
X331012500Y-143970462I-2560000J-1544830D01*
G01*
X336502500Y-143970000D02*
G75*
G03*
X336502500Y-143970000I-2500000J0D01*
G01*
X366867500Y-84775000D02*
X366867500Y-81685000D01*
X366867500Y-81685170D02*
G75*
G03*
X361317500Y-83230462I-2560000J-1544830D01*
G01*
X361317500Y-83229538D02*
G75*
G03*
X366867500Y-84774830I2990000J-462D01*
G01*
X366807500Y-83230000D02*
G75*
G03*
X366807500Y-83230000I-2500000J0D01*
G01*
X345867500Y-84775000D02*
X345867500Y-81685000D01*
X345867500Y-81685170D02*
G75*
G03*
X340317500Y-83230462I-2560000J-1544830D01*
G01*
X340317500Y-83229538D02*
G75*
G03*
X345867500Y-84774830I2990000J-462D01*
G01*
X345807500Y-83230000D02*
G75*
G03*
X345807500Y-83230000I-2500000J0D01*
G01*
X325930000Y-73995000D02*
X325930000Y-70905000D01*
X325930000Y-70905170D02*
G75*
G03*
X320380000Y-72450462I-2560000J-1544830D01*
G01*
X320380000Y-72449538D02*
G75*
G03*
X325930000Y-73994830I2990000J-462D01*
G01*
X325870000Y-72450000D02*
G75*
G03*
X325870000Y-72450000I-2500000J0D01*
G01*
X336562500Y-177015000D02*
X336562500Y-173925000D01*
X336562500Y-173925170D02*
G75*
G03*
X331012500Y-175470462I-2560000J-1544830D01*
G01*
X331012500Y-175469538D02*
G75*
G03*
X336562500Y-177014830I2990000J-462D01*
G01*
X336502500Y-175470000D02*
G75*
G03*
X336502500Y-175470000I-2500000J0D01*
G01*
X387867500Y-92775000D02*
X387867500Y-89685000D01*
X387867500Y-89685170D02*
G75*
G03*
X382317500Y-91230462I-2560000J-1544830D01*
G01*
X382317500Y-91229538D02*
G75*
G03*
X387867500Y-92774830I2990000J-462D01*
G01*
X387807500Y-91230000D02*
G75*
G03*
X387807500Y-91230000I-2500000J0D01*
G01*
X336460000Y-10995000D02*
X336460000Y-7905000D01*
X330910000Y-9449538D02*
G75*
G03*
X336460000Y-10994830I2990000J-462D01*
G01*
X336460000Y-7905170D02*
G75*
G03*
X330910000Y-9450462I-2560000J-1544830D01*
G01*
X336400000Y-9450000D02*
G75*
G03*
X336400000Y-9450000I-2500000J0D01*
G01*
X439312500Y-135025000D02*
X439312500Y-131935000D01*
X433762500Y-133479538D02*
G75*
G03*
X439312500Y-135024830I2990000J-462D01*
G01*
X439312500Y-131935170D02*
G75*
G03*
X433762500Y-133480462I-2560000J-1544830D01*
G01*
X439252500Y-133480000D02*
G75*
G03*
X439252500Y-133480000I-2500000J0D01*
G01*
X398275000Y10245000D02*
X398275000Y13335000D01*
X392725000Y11790462D02*
G75*
G03*
X398275000Y10245170I2990000J-462D01*
G01*
X398275000Y13334830D02*
G75*
G03*
X392725000Y11789538I-2560000J-1544830D01*
G01*
X398215000Y11790000D02*
G75*
G03*
X398215000Y11790000I-2500000J0D01*
G01*
X387865000Y-187645000D02*
X387865000Y-184555000D01*
X382315000Y-186099538D02*
G75*
G03*
X387865000Y-187644830I2990000J-462D01*
G01*
X387865000Y-184555170D02*
G75*
G03*
X382315000Y-186100462I-2560000J-1544830D01*
G01*
X387805000Y-186100000D02*
G75*
G03*
X387805000Y-186100000I-2500000J0D01*
G01*
X336592500Y-114015000D02*
X336592500Y-110925000D01*
X331042500Y-112469538D02*
G75*
G03*
X336592500Y-114014830I2990000J-462D01*
G01*
X336592500Y-110925170D02*
G75*
G03*
X331042500Y-112470462I-2560000J-1544830D01*
G01*
X336532500Y-112470000D02*
G75*
G03*
X336532500Y-112470000I-2500000J0D01*
G01*
X442615000Y-63580000D02*
X442615000Y-62810000D01*
X441245000Y-56270000D02*
X441245000Y-62810000D01*
X443985000Y-62810000D02*
X443985000Y-56270000D01*
X443985000Y-56270000D02*
X441245000Y-56270000D01*
X442615000Y-55500000D02*
X442615000Y-56270000D01*
X441245000Y-62810000D02*
X443985000Y-62810000D01*
X372080000Y-129994000D02*
X372080000Y-121866000D01*
X408907500Y-92775000D02*
X408907500Y-89685000D01*
X403357500Y-91229538D02*
G75*
G03*
X408907500Y-92774830I2990000J-462D01*
G01*
X408907500Y-89685170D02*
G75*
G03*
X403357500Y-91230462I-2560000J-1544830D01*
G01*
X408847500Y-91230000D02*
G75*
G03*
X408847500Y-91230000I-2500000J0D01*
G01*
X428665000Y-74005000D02*
X428665000Y-70915000D01*
X423115000Y-72459538D02*
G75*
G03*
X428665000Y-74004830I2990000J-462D01*
G01*
X428665000Y-70915170D02*
G75*
G03*
X423115000Y-72460462I-2560000J-1544830D01*
G01*
X428605000Y-72460000D02*
G75*
G03*
X428605000Y-72460000I-2500000J0D01*
G01*
X326092500Y-114015000D02*
X326092500Y-110925000D01*
X320542500Y-112469538D02*
G75*
G03*
X326092500Y-114014830I2990000J-462D01*
G01*
X326092500Y-110925170D02*
G75*
G03*
X320542500Y-112470462I-2560000J-1544830D01*
G01*
X326032500Y-112470000D02*
G75*
G03*
X326032500Y-112470000I-2500000J0D01*
G01*
X336445000Y-52995000D02*
X336445000Y-49905000D01*
X336445000Y-49905170D02*
G75*
G03*
X330895000Y-51450462I-2560000J-1544830D01*
G01*
X330895000Y-51449538D02*
G75*
G03*
X336445000Y-52994830I2990000J-462D01*
G01*
X336385000Y-51450000D02*
G75*
G03*
X336385000Y-51450000I-2500000J0D01*
G01*
X325945000Y-495000D02*
X325945000Y2595000D01*
X320395000Y1050462D02*
G75*
G03*
X325945000Y-494830I2990000J-462D01*
G01*
X325945000Y2594830D02*
G75*
G03*
X320395000Y1049538I-2560000J-1544830D01*
G01*
X325885000Y1050000D02*
G75*
G03*
X325885000Y1050000I-2500000J0D01*
G01*
X342700000Y4920000D02*
X349240000Y4920000D01*
X349240000Y7660000D02*
X342700000Y7660000D01*
X341930000Y6290000D02*
X342700000Y6290000D01*
X342700000Y7660000D02*
X342700000Y4920000D01*
X350010000Y6290000D02*
X349240000Y6290000D01*
X349240000Y4920000D02*
X349240000Y7660000D01*
X419275000Y18245000D02*
X419275000Y21335000D01*
X419275000Y21334830D02*
G75*
G03*
X413725000Y19789538I-2560000J-1544830D01*
G01*
X413725000Y19790462D02*
G75*
G03*
X419275000Y18245170I2990000J-462D01*
G01*
X419215000Y19790000D02*
G75*
G03*
X419215000Y19790000I-2500000J0D01*
G01*
X439180000Y-53005000D02*
X439180000Y-49915000D01*
X439180000Y-49915170D02*
G75*
G03*
X433630000Y-51460462I-2560000J-1544830D01*
G01*
X433630000Y-51459538D02*
G75*
G03*
X439180000Y-53004830I2990000J-462D01*
G01*
X439120000Y-51460000D02*
G75*
G03*
X439120000Y-51460000I-2500000J0D01*
G01*
X404872500Y-98100000D02*
X404872500Y-95360000D01*
X398332500Y-95360000D02*
X398332500Y-98100000D01*
X405642500Y-96730000D02*
X404872500Y-96730000D01*
X397562500Y-96730000D02*
X398332500Y-96730000D01*
X404872500Y-95360000D02*
X398332500Y-95360000D01*
X398332500Y-98100000D02*
X404872500Y-98100000D01*
X433905000Y7495000D02*
X433905000Y10585000D01*
X433905000Y10584830D02*
G75*
G03*
X428355000Y9039538I-2560000J-1544830D01*
G01*
X428355000Y9040462D02*
G75*
G03*
X433905000Y7495170I2990000J-462D01*
G01*
X433845000Y9040000D02*
G75*
G03*
X433845000Y9040000I-2500000J0D01*
G01*
X350142500Y-96730000D02*
X349372500Y-96730000D01*
X342832500Y-95360000D02*
X342832500Y-98100000D01*
X342062500Y-96730000D02*
X342832500Y-96730000D01*
X349372500Y-98100000D02*
X349372500Y-95360000D01*
X349372500Y-95360000D02*
X342832500Y-95360000D01*
X342832500Y-98100000D02*
X349372500Y-98100000D01*
X387865000Y-195645000D02*
X387865000Y-192555000D01*
X382315000Y-194099538D02*
G75*
G03*
X387865000Y-195644830I2990000J-462D01*
G01*
X387865000Y-192555170D02*
G75*
G03*
X382315000Y-194100462I-2560000J-1544830D01*
G01*
X387805000Y-194100000D02*
G75*
G03*
X387805000Y-194100000I-2500000J0D01*
G01*
X439327500Y-114025000D02*
X439327500Y-110935000D01*
X433777500Y-112479538D02*
G75*
G03*
X439327500Y-114024830I2990000J-462D01*
G01*
X439327500Y-110935170D02*
G75*
G03*
X433777500Y-112480462I-2560000J-1544830D01*
G01*
X439267500Y-112480000D02*
G75*
G03*
X439267500Y-112480000I-2500000J0D01*
G01*
X331327500Y-185015000D02*
X331327500Y-181925000D01*
X325777500Y-183469538D02*
G75*
G03*
X331327500Y-185014830I2990000J-462D01*
G01*
X331327500Y-181925170D02*
G75*
G03*
X325777500Y-183470462I-2560000J-1544830D01*
G01*
X331267500Y-183470000D02*
G75*
G03*
X331267500Y-183470000I-2500000J0D01*
G01*
X337760000Y14245000D02*
X337760000Y17335000D01*
X337760000Y17334830D02*
G75*
G03*
X332210000Y15789538I-2560000J-1544830D01*
G01*
X332210000Y15790462D02*
G75*
G03*
X337760000Y14245170I2990000J-462D01*
G01*
X337700000Y15790000D02*
G75*
G03*
X337700000Y15790000I-2500000J0D01*
G01*
X398407500Y-92775000D02*
X398407500Y-89685000D01*
X392857500Y-91229538D02*
G75*
G03*
X398407500Y-92774830I2990000J-462D01*
G01*
X398407500Y-89685170D02*
G75*
G03*
X392857500Y-91230462I-2560000J-1544830D01*
G01*
X398347500Y-91230000D02*
G75*
G03*
X398347500Y-91230000I-2500000J0D01*
G01*
X366865000Y-195645000D02*
X366865000Y-192555000D01*
X361315000Y-194099538D02*
G75*
G03*
X366865000Y-195644830I2990000J-462D01*
G01*
X366865000Y-192555170D02*
G75*
G03*
X361315000Y-194100462I-2560000J-1544830D01*
G01*
X366805000Y-194100000D02*
G75*
G03*
X366805000Y-194100000I-2500000J0D01*
G01*
X331302500Y-95515000D02*
X331302500Y-92425000D01*
X331302500Y-92425170D02*
G75*
G03*
X325752500Y-93970462I-2560000J-1544830D01*
G01*
X325752500Y-93969538D02*
G75*
G03*
X331302500Y-95514830I2990000J-462D01*
G01*
X331242500Y-93970000D02*
G75*
G03*
X331242500Y-93970000I-2500000J0D01*
G01*
X377235000Y10245000D02*
X377235000Y13335000D01*
X371685000Y11790462D02*
G75*
G03*
X377235000Y10245170I2990000J-462D01*
G01*
X377235000Y13334830D02*
G75*
G03*
X371685000Y11789538I-2560000J-1544830D01*
G01*
X377175000Y11790000D02*
G75*
G03*
X377175000Y11790000I-2500000J0D01*
G01*
X340012500Y-172430000D02*
X340012500Y-173200000D01*
X338642500Y-179740000D02*
X341382500Y-179740000D01*
X341382500Y-173200000D02*
X338642500Y-173200000D01*
X341382500Y-179740000D02*
X341382500Y-173200000D01*
X340012500Y-180510000D02*
X340012500Y-179740000D01*
X338642500Y-173200000D02*
X338642500Y-179740000D01*
X366735000Y18245000D02*
X366735000Y21335000D01*
X366735000Y21334830D02*
G75*
G03*
X361185000Y19789538I-2560000J-1544830D01*
G01*
X361185000Y19790462D02*
G75*
G03*
X366735000Y18245170I2990000J-462D01*
G01*
X366675000Y19790000D02*
G75*
G03*
X366675000Y19790000I-2500000J0D01*
G01*
X366865000Y-187645000D02*
X366865000Y-184555000D01*
X366865000Y-184555170D02*
G75*
G03*
X361315000Y-186100462I-2560000J-1544830D01*
G01*
X361315000Y-186099538D02*
G75*
G03*
X366865000Y-187644830I2990000J-462D01*
G01*
X366805000Y-186100000D02*
G75*
G03*
X366805000Y-186100000I-2500000J0D01*
G01*
X338642500Y-151990000D02*
X341382500Y-151990000D01*
X340012500Y-144680000D02*
X340012500Y-145450000D01*
X340012500Y-152760000D02*
X340012500Y-151990000D01*
X341382500Y-145450000D02*
X338642500Y-145450000D01*
X341382500Y-151990000D02*
X341382500Y-145450000D01*
X338642500Y-145450000D02*
X338642500Y-151990000D01*
X439195000Y-11005000D02*
X439195000Y-7915000D01*
X439195000Y-7915170D02*
G75*
G03*
X433645000Y-9460462I-2560000J-1544830D01*
G01*
X433645000Y-9459538D02*
G75*
G03*
X439195000Y-11004830I2990000J-462D01*
G01*
X439135000Y-9460000D02*
G75*
G03*
X439135000Y-9460000I-2500000J0D01*
G01*
X428695000Y-11005000D02*
X428695000Y-7915000D01*
X428695000Y-7915170D02*
G75*
G03*
X423145000Y-9460462I-2560000J-1544830D01*
G01*
X423145000Y-9459538D02*
G75*
G03*
X428695000Y-11004830I2990000J-462D01*
G01*
X428635000Y-9460000D02*
G75*
G03*
X428635000Y-9460000I-2500000J0D01*
G01*
X369680000Y6290000D02*
X370450000Y6290000D01*
X377760000Y6290000D02*
X376990000Y6290000D01*
X370450000Y4920000D02*
X376990000Y4920000D01*
X376990000Y4920000D02*
X376990000Y7660000D01*
X370450000Y7660000D02*
X370450000Y4920000D01*
X376990000Y7660000D02*
X370450000Y7660000D01*
X325945000Y-63495000D02*
X325945000Y-60405000D01*
X320395000Y-61949538D02*
G75*
G03*
X325945000Y-63494830I2990000J-462D01*
G01*
X325945000Y-60405170D02*
G75*
G03*
X320395000Y-61950462I-2560000J-1544830D01*
G01*
X325885000Y-61950000D02*
G75*
G03*
X325885000Y-61950000I-2500000J0D01*
G01*
X356407500Y-92775000D02*
X356407500Y-89685000D01*
X350857500Y-91229538D02*
G75*
G03*
X356407500Y-92774830I2990000J-462D01*
G01*
X356407500Y-89685170D02*
G75*
G03*
X350857500Y-91230462I-2560000J-1544830D01*
G01*
X356347500Y-91230000D02*
G75*
G03*
X356347500Y-91230000I-2500000J0D01*
G01*
X326077500Y-135015000D02*
X326077500Y-131925000D01*
X320527500Y-133469538D02*
G75*
G03*
X326077500Y-135014830I2990000J-462D01*
G01*
X326077500Y-131925170D02*
G75*
G03*
X320527500Y-133470462I-2560000J-1544830D01*
G01*
X326017500Y-133470000D02*
G75*
G03*
X326017500Y-133470000I-2500000J0D01*
G01*
X345735000Y18245000D02*
X345735000Y21335000D01*
X345735000Y21334830D02*
G75*
G03*
X340185000Y19789538I-2560000J-1544830D01*
G01*
X340185000Y19790462D02*
G75*
G03*
X345735000Y18245170I2990000J-462D01*
G01*
X345675000Y19790000D02*
G75*
G03*
X345675000Y19790000I-2500000J0D01*
G01*
X428827500Y-114025000D02*
X428827500Y-110935000D01*
X428827500Y-110935170D02*
G75*
G03*
X423277500Y-112480462I-2560000J-1544830D01*
G01*
X423277500Y-112479538D02*
G75*
G03*
X428827500Y-114024830I2990000J-462D01*
G01*
X428767500Y-112480000D02*
G75*
G03*
X428767500Y-112480000I-2500000J0D01*
G01*
X377367500Y-92775000D02*
X377367500Y-89685000D01*
X371817500Y-91229538D02*
G75*
G03*
X377367500Y-92774830I2990000J-462D01*
G01*
X377367500Y-89685170D02*
G75*
G03*
X371817500Y-91230462I-2560000J-1544830D01*
G01*
X377307500Y-91230000D02*
G75*
G03*
X377307500Y-91230000I-2500000J0D01*
G01*
X433930000Y-82005000D02*
X433930000Y-78915000D01*
X433930000Y-78915170D02*
G75*
G03*
X428380000Y-80460462I-2560000J-1544830D01*
G01*
X428380000Y-80459538D02*
G75*
G03*
X433930000Y-82004830I2990000J-462D01*
G01*
X433870000Y-80460000D02*
G75*
G03*
X433870000Y-80460000I-2500000J0D01*
G01*
X356405000Y-187645000D02*
X356405000Y-184555000D01*
X356405000Y-184555170D02*
G75*
G03*
X350855000Y-186100462I-2560000J-1544830D01*
G01*
X350855000Y-186099538D02*
G75*
G03*
X356405000Y-187644830I2990000J-462D01*
G01*
X356345000Y-186100000D02*
G75*
G03*
X356345000Y-186100000I-2500000J0D01*
G01*
X325960000Y-10995000D02*
X325960000Y-7905000D01*
X325960000Y-7905170D02*
G75*
G03*
X320410000Y-9450462I-2560000J-1544830D01*
G01*
X320410000Y-9449538D02*
G75*
G03*
X325960000Y-10994830I2990000J-462D01*
G01*
X325900000Y-9450000D02*
G75*
G03*
X325900000Y-9450000I-2500000J0D01*
G01*
X419275000Y10245000D02*
X419275000Y13335000D01*
X419275000Y13334830D02*
G75*
G03*
X413725000Y11789538I-2560000J-1544830D01*
G01*
X413725000Y11790462D02*
G75*
G03*
X419275000Y10245170I2990000J-462D01*
G01*
X419215000Y11790000D02*
G75*
G03*
X419215000Y11790000I-2500000J0D01*
G01*
X345865000Y-195645000D02*
X345865000Y-192555000D01*
X340315000Y-194099538D02*
G75*
G03*
X345865000Y-195644830I2990000J-462D01*
G01*
X345865000Y-192555170D02*
G75*
G03*
X340315000Y-194100462I-2560000J-1544830D01*
G01*
X345805000Y-194100000D02*
G75*
G03*
X345805000Y-194100000I-2500000J0D01*
G01*
X374710000Y-130134000D02*
X374710000Y-122006000D01*
X416924000Y-151080000D02*
X408796000Y-151080000D01*
%TD*%
%LPC*%
D11*
%TO.C,REF\u002A\u002A*%
X407617500Y-83230000D03*
D12*
X405077500Y-83230000D03*
%TD*%
D11*
%TO.C,REF\u002A\u002A*%
X324772500Y-175470000D03*
D12*
X322232500Y-175470000D03*
%TD*%
D11*
%TO.C,REF\u002A\u002A*%
X324655000Y-19950000D03*
D12*
X322115000Y-19950000D03*
%TD*%
D11*
%TO.C,REF\u002A\u002A*%
X324787500Y-154470000D03*
D12*
X322247500Y-154470000D03*
%TD*%
D11*
%TO.C,REF\u002A\u002A*%
X418115000Y-194100000D03*
D12*
X415575000Y-194100000D03*
%TD*%
D11*
%TO.C,REF\u002A\u002A*%
X426075000Y-190100000D03*
D12*
X423535000Y-190100000D03*
%TD*%
D13*
%TO.C,REF\u002A\u002A*%
X340012500Y-129720000D03*
D14*
X340012500Y-139880000D03*
%TD*%
D11*
%TO.C,REF\u002A\u002A*%
X324655000Y-30450000D03*
D12*
X322115000Y-30450000D03*
%TD*%
D11*
%TO.C,REF\u002A\u002A*%
X427390000Y1040000D03*
D12*
X424850000Y1040000D03*
%TD*%
D11*
%TO.C,REF\u002A\u002A*%
X437875000Y-40960000D03*
D12*
X435335000Y-40960000D03*
%TD*%
D11*
%TO.C,REF\u002A\u002A*%
X354985000Y19790000D03*
D12*
X352445000Y19790000D03*
%TD*%
D11*
%TO.C,REF\u002A\u002A*%
X407485000Y19790000D03*
D12*
X404945000Y19790000D03*
%TD*%
D11*
%TO.C,REF\u002A\u002A*%
X335155000Y-30450000D03*
D12*
X332615000Y-30450000D03*
%TD*%
D11*
%TO.C,REF\u002A\u002A*%
X397115000Y-194100000D03*
D12*
X394575000Y-194100000D03*
%TD*%
D11*
%TO.C,REF\u002A\u002A*%
X418115000Y-186100000D03*
D12*
X415575000Y-186100000D03*
%TD*%
D13*
%TO.C,REF\u002A\u002A*%
X442615000Y-40630000D03*
D14*
X442615000Y-50790000D03*
%TD*%
D11*
%TO.C,REF\u002A\u002A*%
X427507500Y-175480000D03*
D12*
X424967500Y-175480000D03*
%TD*%
D11*
%TO.C,REF\u002A\u002A*%
X427375000Y-40960000D03*
D12*
X424835000Y-40960000D03*
%TD*%
D11*
%TO.C,REF\u002A\u002A*%
X427522500Y-164980000D03*
D12*
X424982500Y-164980000D03*
%TD*%
D11*
%TO.C,REF\u002A\u002A*%
X329880000Y9050000D03*
D12*
X327340000Y9050000D03*
%TD*%
D11*
%TO.C,REF\u002A\u002A*%
X397117500Y-83230000D03*
D12*
X394577500Y-83230000D03*
%TD*%
D13*
%TO.C,REF\u002A\u002A*%
X442615000Y-26710000D03*
D14*
X442615000Y-36870000D03*
%TD*%
D11*
%TO.C,REF\u002A\u002A*%
X375945000Y19790000D03*
D12*
X373405000Y19790000D03*
%TD*%
D13*
%TO.C,REF\u002A\u002A*%
X442615000Y-68380000D03*
D14*
X442615000Y-78540000D03*
%TD*%
D11*
%TO.C,REF\u002A\u002A*%
X386445000Y19790000D03*
D12*
X383905000Y19790000D03*
%TD*%
D15*
%TO.C,REF\u002A\u002A*%
X347830000Y-83480000D03*
D16*
X347830000Y-73320000D03*
%TD*%
D11*
%TO.C,REF\u002A\u002A*%
X354985000Y11790000D03*
D12*
X352445000Y11790000D03*
%TD*%
D11*
%TO.C,REF\u002A\u002A*%
X427522500Y-122980000D03*
D12*
X424982500Y-122980000D03*
%TD*%
D13*
%TO.C,REF\u002A\u002A*%
X339880000Y-68370000D03*
D14*
X339880000Y-78530000D03*
%TD*%
D11*
%TO.C,REF\u002A\u002A*%
X336600000Y-190100000D03*
D12*
X334060000Y-190100000D03*
%TD*%
D13*
%TO.C,REF\u002A\u002A*%
X340012500Y-101970000D03*
D14*
X340012500Y-112130000D03*
%TD*%
D13*
%TO.C,REF\u002A\u002A*%
X340012500Y-115800000D03*
D14*
X340012500Y-125960000D03*
%TD*%
D11*
%TO.C,REF\u002A\u002A*%
X336602500Y-87230000D03*
D12*
X334062500Y-87230000D03*
%TD*%
D11*
%TO.C,REF\u002A\u002A*%
X324772500Y-143970000D03*
D12*
X322232500Y-143970000D03*
%TD*%
D15*
%TO.C,REF\u002A\u002A*%
X411730000Y-186270000D03*
D16*
X411730000Y-176110000D03*
%TD*%
D13*
%TO.C,REF\u002A\u002A*%
X442747500Y-143650000D03*
D14*
X442747500Y-153810000D03*
%TD*%
D11*
%TO.C,REF\u002A\u002A*%
X386577500Y-83230000D03*
D12*
X384037500Y-83230000D03*
%TD*%
D11*
%TO.C,REF\u002A\u002A*%
X407485000Y11790000D03*
D12*
X404945000Y11790000D03*
%TD*%
D11*
%TO.C,REF\u002A\u002A*%
X376075000Y-194100000D03*
D12*
X373535000Y-194100000D03*
%TD*%
D11*
%TO.C,REF\u002A\u002A*%
X396985000Y19790000D03*
D12*
X394445000Y19790000D03*
%TD*%
D11*
%TO.C,REF\u002A\u002A*%
X427390000Y-61960000D03*
D12*
X424850000Y-61960000D03*
%TD*%
D13*
%TO.C,REF\u002A\u002A*%
X340012500Y-157470000D03*
D14*
X340012500Y-167630000D03*
%TD*%
D11*
%TO.C,REF\u002A\u002A*%
X355117500Y-83230000D03*
D12*
X352577500Y-83230000D03*
%TD*%
D11*
%TO.C,REF\u002A\u002A*%
X407615000Y-186100000D03*
D12*
X405075000Y-186100000D03*
%TD*%
D13*
%TO.C,REF\u002A\u002A*%
X354720000Y6290000D03*
D14*
X364880000Y6290000D03*
%TD*%
D13*
%TO.C,REF\u002A\u002A*%
X396520000Y-199600000D03*
D14*
X406680000Y-199600000D03*
%TD*%
D11*
%TO.C,REF\u002A\u002A*%
X418117500Y-83230000D03*
D12*
X415577500Y-83230000D03*
%TD*%
D11*
%TO.C,REF\u002A\u002A*%
X324640000Y-40950000D03*
D12*
X322100000Y-40950000D03*
%TD*%
D13*
%TO.C,REF\u002A\u002A*%
X339880000Y-26700000D03*
D14*
X339880000Y-36860000D03*
%TD*%
D11*
%TO.C,REF\u002A\u002A*%
X329905000Y-80450000D03*
D12*
X327365000Y-80450000D03*
%TD*%
D11*
%TO.C,REF\u002A\u002A*%
X335287500Y-154470000D03*
D12*
X332747500Y-154470000D03*
%TD*%
D13*
%TO.C,REF\u002A\u002A*%
X410310000Y6290000D03*
D14*
X420470000Y6290000D03*
%TD*%
D11*
%TO.C,REF\u002A\u002A*%
X427390000Y-19960000D03*
D12*
X424850000Y-19960000D03*
%TD*%
D11*
%TO.C,REF\u002A\u002A*%
X432772500Y-183480000D03*
D12*
X430232500Y-183480000D03*
%TD*%
D11*
%TO.C,REF\u002A\u002A*%
X335155000Y1050000D03*
D12*
X332615000Y1050000D03*
%TD*%
D13*
%TO.C,REF\u002A\u002A*%
X442615000Y-12790000D03*
D14*
X442615000Y-22950000D03*
%TD*%
D11*
%TO.C,REF\u002A\u002A*%
X427507500Y-143980000D03*
D12*
X424967500Y-143980000D03*
%TD*%
D11*
%TO.C,REF\u002A\u002A*%
X344577500Y-91230000D03*
D12*
X342037500Y-91230000D03*
%TD*%
D13*
%TO.C,REF\u002A\u002A*%
X442747500Y-129730000D03*
D14*
X442747500Y-139890000D03*
%TD*%
D11*
%TO.C,REF\u002A\u002A*%
X437890000Y1040000D03*
D12*
X435350000Y1040000D03*
%TD*%
D13*
%TO.C,REF\u002A\u002A*%
X354852500Y-96730000D03*
D14*
X365012500Y-96730000D03*
%TD*%
D11*
%TO.C,REF\u002A\u002A*%
X324787500Y-101970000D03*
D12*
X322247500Y-101970000D03*
%TD*%
D11*
%TO.C,REF\u002A\u002A*%
X427522500Y-101980000D03*
D12*
X424982500Y-101980000D03*
%TD*%
D11*
%TO.C,REF\u002A\u002A*%
X335155000Y-61950000D03*
D12*
X332615000Y-61950000D03*
%TD*%
D11*
%TO.C,REF\u002A\u002A*%
X335287500Y-164970000D03*
D12*
X332747500Y-164970000D03*
%TD*%
D17*
%TO.C,REF\u002A\u002A*%
X445350000Y-204240000D03*
X450471320Y-202118680D03*
X450471320Y-206361320D03*
X448350000Y-201240000D03*
X448350000Y-207240000D03*
D18*
X448350000Y-204240000D03*
D17*
X446228680Y-202118680D03*
X446228680Y-206361320D03*
X451350000Y-204240000D03*
%TD*%
D11*
%TO.C,REF\u002A\u002A*%
X437890000Y-61960000D03*
D12*
X435350000Y-61960000D03*
%TD*%
D13*
%TO.C,REF\u002A\u002A*%
X339880000Y-54450000D03*
D14*
X339880000Y-64610000D03*
%TD*%
D11*
%TO.C,REF\u002A\u002A*%
X386445000Y11790000D03*
D12*
X383905000Y11790000D03*
%TD*%
D11*
%TO.C,REF\u002A\u002A*%
X365445000Y11790000D03*
D12*
X362905000Y11790000D03*
%TD*%
D13*
%TO.C,REF\u002A\u002A*%
X354850000Y-199600000D03*
D14*
X365010000Y-199600000D03*
%TD*%
D11*
%TO.C,REF\u002A\u002A*%
X335140000Y-40950000D03*
D12*
X332600000Y-40950000D03*
%TD*%
D11*
%TO.C,REF\u002A\u002A*%
X335140000Y-72450000D03*
D12*
X332600000Y-72450000D03*
%TD*%
D11*
%TO.C,REF\u002A\u002A*%
X418117500Y-91230000D03*
D12*
X415577500Y-91230000D03*
%TD*%
D11*
%TO.C,REF\u002A\u002A*%
X425945000Y15790000D03*
D12*
X423405000Y15790000D03*
%TD*%
D15*
%TO.C,REF\u002A\u002A*%
X405010000Y-143230000D03*
D16*
X405010000Y-133070000D03*
%TD*%
D13*
%TO.C,REF\u002A\u002A*%
X368772500Y-96730000D03*
D14*
X378932500Y-96730000D03*
%TD*%
D15*
%TO.C,REF\u002A\u002A*%
X411290000Y-83210000D03*
D16*
X411290000Y-73050000D03*
%TD*%
D13*
%TO.C,REF\u002A\u002A*%
X410442500Y-96730000D03*
D14*
X420602500Y-96730000D03*
%TD*%
D11*
%TO.C,REF\u002A\u002A*%
X397115000Y-186100000D03*
D12*
X394575000Y-186100000D03*
%TD*%
D11*
%TO.C,REF\u002A\u002A*%
X335155000Y-19950000D03*
D12*
X332615000Y-19950000D03*
%TD*%
D17*
%TO.C,REF\u002A\u002A*%
X451471320Y26638680D03*
X452350000Y28760000D03*
X449350000Y25760000D03*
X449350000Y31760000D03*
X447228680Y26638680D03*
D18*
X449350000Y28760000D03*
D17*
X446350000Y28760000D03*
X451471320Y30881320D03*
X447228680Y30881320D03*
%TD*%
D13*
%TO.C,REF\u002A\u002A*%
X382692500Y-96730000D03*
D14*
X392852500Y-96730000D03*
%TD*%
D11*
%TO.C,REF\u002A\u002A*%
X438022500Y-164980000D03*
D12*
X435482500Y-164980000D03*
%TD*%
D17*
%TO.C,REF\u002A\u002A*%
X316700000Y31700000D03*
X316700000Y25700000D03*
X313700000Y28700000D03*
D18*
X316700000Y28700000D03*
D17*
X319700000Y28700000D03*
X314578680Y30821320D03*
X318821320Y26578680D03*
X318821320Y30821320D03*
X314578680Y26578680D03*
%TD*%
D13*
%TO.C,REF\u002A\u002A*%
X339880000Y-40620000D03*
D14*
X339880000Y-50780000D03*
%TD*%
D13*
%TO.C,REF\u002A\u002A*%
X339880000Y-12780000D03*
D14*
X339880000Y-22940000D03*
%TD*%
D11*
%TO.C,REF\u002A\u002A*%
X376075000Y-186100000D03*
D12*
X373535000Y-186100000D03*
%TD*%
D11*
%TO.C,REF\u002A\u002A*%
X438022500Y-122980000D03*
D12*
X435482500Y-122980000D03*
%TD*%
D13*
%TO.C,REF\u002A\u002A*%
X442615000Y1040000D03*
D14*
X442615000Y-9120000D03*
%TD*%
D13*
%TO.C,REF\u002A\u002A*%
X341020000Y-199600000D03*
D14*
X351180000Y-199600000D03*
%TD*%
D11*
%TO.C,REF\u002A\u002A*%
X437890000Y-19960000D03*
D12*
X435350000Y-19960000D03*
%TD*%
D13*
%TO.C,REF\u002A\u002A*%
X382560000Y6290000D03*
D14*
X392720000Y6290000D03*
%TD*%
D11*
%TO.C,REF\u002A\u002A*%
X335287500Y-101970000D03*
D12*
X332747500Y-101970000D03*
%TD*%
D11*
%TO.C,REF\u002A\u002A*%
X324655000Y-51450000D03*
D12*
X322115000Y-51450000D03*
%TD*%
D11*
%TO.C,REF\u002A\u002A*%
X376077500Y-83230000D03*
D12*
X373537500Y-83230000D03*
%TD*%
D13*
%TO.C,REF\u002A\u002A*%
X442747500Y-101980000D03*
D14*
X442747500Y-112140000D03*
%TD*%
D11*
%TO.C,REF\u002A\u002A*%
X426077500Y-87230000D03*
D12*
X423537500Y-87230000D03*
%TD*%
D11*
%TO.C,REF\u002A\u002A*%
X427522500Y-133480000D03*
D12*
X424982500Y-133480000D03*
%TD*%
D11*
%TO.C,REF\u002A\u002A*%
X437875000Y-72460000D03*
D12*
X435335000Y-72460000D03*
%TD*%
D15*
%TO.C,REF\u002A\u002A*%
X423760000Y-106290000D03*
D16*
X413600000Y-106290000D03*
%TD*%
D11*
%TO.C,REF\u002A\u002A*%
X335287500Y-122970000D03*
D12*
X332747500Y-122970000D03*
%TD*%
D11*
%TO.C,REF\u002A\u002A*%
X437890000Y-30460000D03*
D12*
X435350000Y-30460000D03*
%TD*%
D17*
%TO.C,REF\u002A\u002A*%
X313700000Y-204300000D03*
X318821320Y-202178680D03*
X319700000Y-204300000D03*
D18*
X316700000Y-204300000D03*
D17*
X314578680Y-202178680D03*
X318821320Y-206421320D03*
X316700000Y-201300000D03*
X316700000Y-207300000D03*
X314578680Y-206421320D03*
%TD*%
D11*
%TO.C,REF\u002A\u002A*%
X438007500Y-175480000D03*
D12*
X435467500Y-175480000D03*
%TD*%
D11*
%TO.C,REF\u002A\u002A*%
X427390000Y-51460000D03*
D12*
X424850000Y-51460000D03*
%TD*%
D11*
%TO.C,REF\u002A\u002A*%
X365577500Y-91230000D03*
D12*
X363037500Y-91230000D03*
%TD*%
D11*
%TO.C,REF\u002A\u002A*%
X438022500Y-154480000D03*
D12*
X435482500Y-154480000D03*
%TD*%
D11*
%TO.C,REF\u002A\u002A*%
X355115000Y-194100000D03*
D12*
X352575000Y-194100000D03*
%TD*%
D11*
%TO.C,REF\u002A\u002A*%
X427390000Y-30460000D03*
D12*
X424850000Y-30460000D03*
%TD*%
D13*
%TO.C,REF\u002A\u002A*%
X382690000Y-199600000D03*
D14*
X392850000Y-199600000D03*
%TD*%
D11*
%TO.C,REF\u002A\u002A*%
X407615000Y-194100000D03*
D12*
X405075000Y-194100000D03*
%TD*%
D13*
%TO.C,REF\u002A\u002A*%
X410440000Y-199600000D03*
D14*
X420600000Y-199600000D03*
%TD*%
D19*
%TO.C,REF\u002A\u002A*%
X389865000Y-154710000D03*
D20*
X387325000Y-154710000D03*
X384785000Y-154710000D03*
X382245000Y-154710000D03*
X379705000Y-154710000D03*
X377165000Y-154710000D03*
X374625000Y-154710000D03*
X372085000Y-154710000D03*
%TD*%
D13*
%TO.C,REF\u002A\u002A*%
X396390000Y6290000D03*
D14*
X406550000Y6290000D03*
%TD*%
D11*
%TO.C,REF\u002A\u002A*%
X335287500Y-133470000D03*
D12*
X332747500Y-133470000D03*
%TD*%
D13*
%TO.C,REF\u002A\u002A*%
X442747500Y-115810000D03*
D14*
X442747500Y-125970000D03*
%TD*%
D15*
%TO.C,REF\u002A\u002A*%
X425230000Y-171480000D03*
D16*
X415070000Y-171480000D03*
%TD*%
D13*
%TO.C,REF\u002A\u002A*%
X442747500Y-157480000D03*
D14*
X442747500Y-167640000D03*
%TD*%
D13*
%TO.C,REF\u002A\u002A*%
X442747500Y-171400000D03*
D14*
X442747500Y-181560000D03*
%TD*%
D11*
%TO.C,REF\u002A\u002A*%
X432747500Y-93980000D03*
D12*
X430207500Y-93980000D03*
%TD*%
D11*
%TO.C,REF\u002A\u002A*%
X344445000Y11790000D03*
D12*
X341905000Y11790000D03*
%TD*%
D11*
%TO.C,REF\u002A\u002A*%
X324787500Y-164970000D03*
D12*
X322247500Y-164970000D03*
%TD*%
D19*
%TO.C,REF\u002A\u002A*%
X389860000Y-151100000D03*
D20*
X387320000Y-151100000D03*
X384780000Y-151100000D03*
X382240000Y-151100000D03*
X379700000Y-151100000D03*
X377160000Y-151100000D03*
X374620000Y-151100000D03*
X372080000Y-151100000D03*
%TD*%
D15*
%TO.C,REF\u002A\u002A*%
X407130000Y-145640000D03*
D16*
X407130000Y-135480000D03*
%TD*%
D11*
%TO.C,REF\u002A\u002A*%
X438022500Y-101980000D03*
D12*
X435482500Y-101980000D03*
%TD*%
D11*
%TO.C,REF\u002A\u002A*%
X344575000Y-186100000D03*
D12*
X342035000Y-186100000D03*
%TD*%
D13*
%TO.C,REF\u002A\u002A*%
X368770000Y-199600000D03*
D14*
X378930000Y-199600000D03*
%TD*%
D11*
%TO.C,REF\u002A\u002A*%
X438007500Y-143980000D03*
D12*
X435467500Y-143980000D03*
%TD*%
D11*
%TO.C,REF\u002A\u002A*%
X324787500Y-122970000D03*
D12*
X322247500Y-122970000D03*
%TD*%
D13*
%TO.C,REF\u002A\u002A*%
X339880000Y1050000D03*
D14*
X339880000Y-9110000D03*
%TD*%
D11*
%TO.C,REF\u002A\u002A*%
X427522500Y-154480000D03*
D12*
X424982500Y-154480000D03*
%TD*%
D11*
%TO.C,REF\u002A\u002A*%
X335272500Y-143970000D03*
D12*
X332732500Y-143970000D03*
%TD*%
D11*
%TO.C,REF\u002A\u002A*%
X365577500Y-83230000D03*
D12*
X363037500Y-83230000D03*
%TD*%
D11*
%TO.C,REF\u002A\u002A*%
X344577500Y-83230000D03*
D12*
X342037500Y-83230000D03*
%TD*%
D11*
%TO.C,REF\u002A\u002A*%
X324640000Y-72450000D03*
D12*
X322100000Y-72450000D03*
%TD*%
D11*
%TO.C,REF\u002A\u002A*%
X335272500Y-175470000D03*
D12*
X332732500Y-175470000D03*
%TD*%
D11*
%TO.C,REF\u002A\u002A*%
X386577500Y-91230000D03*
D12*
X384037500Y-91230000D03*
%TD*%
D11*
%TO.C,REF\u002A\u002A*%
X335170000Y-9450000D03*
D12*
X332630000Y-9450000D03*
%TD*%
D11*
%TO.C,REF\u002A\u002A*%
X438022500Y-133480000D03*
D12*
X435482500Y-133480000D03*
%TD*%
D11*
%TO.C,REF\u002A\u002A*%
X396985000Y11790000D03*
D12*
X394445000Y11790000D03*
%TD*%
D11*
%TO.C,REF\u002A\u002A*%
X386575000Y-186100000D03*
D12*
X384035000Y-186100000D03*
%TD*%
D11*
%TO.C,REF\u002A\u002A*%
X335302500Y-112470000D03*
D12*
X332762500Y-112470000D03*
%TD*%
D13*
%TO.C,REF\u002A\u002A*%
X442615000Y-54460000D03*
D14*
X442615000Y-64620000D03*
%TD*%
D15*
%TO.C,REF\u002A\u002A*%
X372080000Y-131010000D03*
D16*
X372080000Y-120850000D03*
%TD*%
D11*
%TO.C,REF\u002A\u002A*%
X407617500Y-91230000D03*
D12*
X405077500Y-91230000D03*
%TD*%
D11*
%TO.C,REF\u002A\u002A*%
X427375000Y-72460000D03*
D12*
X424835000Y-72460000D03*
%TD*%
D11*
%TO.C,REF\u002A\u002A*%
X324802500Y-112470000D03*
D12*
X322262500Y-112470000D03*
%TD*%
D11*
%TO.C,REF\u002A\u002A*%
X335155000Y-51450000D03*
D12*
X332615000Y-51450000D03*
%TD*%
D11*
%TO.C,REF\u002A\u002A*%
X324655000Y1050000D03*
D12*
X322115000Y1050000D03*
%TD*%
D13*
%TO.C,REF\u002A\u002A*%
X340890000Y6290000D03*
D14*
X351050000Y6290000D03*
%TD*%
D11*
%TO.C,REF\u002A\u002A*%
X417985000Y19790000D03*
D12*
X415445000Y19790000D03*
%TD*%
D11*
%TO.C,REF\u002A\u002A*%
X437890000Y-51460000D03*
D12*
X435350000Y-51460000D03*
%TD*%
D13*
%TO.C,REF\u002A\u002A*%
X396522500Y-96730000D03*
D14*
X406682500Y-96730000D03*
%TD*%
D11*
%TO.C,REF\u002A\u002A*%
X432615000Y9040000D03*
D12*
X430075000Y9040000D03*
%TD*%
D13*
%TO.C,REF\u002A\u002A*%
X341022500Y-96730000D03*
D14*
X351182500Y-96730000D03*
%TD*%
D11*
%TO.C,REF\u002A\u002A*%
X386575000Y-194100000D03*
D12*
X384035000Y-194100000D03*
%TD*%
D11*
%TO.C,REF\u002A\u002A*%
X438037500Y-112480000D03*
D12*
X435497500Y-112480000D03*
%TD*%
D11*
%TO.C,REF\u002A\u002A*%
X330037500Y-183470000D03*
D12*
X327497500Y-183470000D03*
%TD*%
D11*
%TO.C,REF\u002A\u002A*%
X336470000Y15790000D03*
D12*
X333930000Y15790000D03*
%TD*%
D11*
%TO.C,REF\u002A\u002A*%
X397117500Y-91230000D03*
D12*
X394577500Y-91230000D03*
%TD*%
D11*
%TO.C,REF\u002A\u002A*%
X365575000Y-194100000D03*
D12*
X363035000Y-194100000D03*
%TD*%
D11*
%TO.C,REF\u002A\u002A*%
X330012500Y-93970000D03*
D12*
X327472500Y-93970000D03*
%TD*%
D11*
%TO.C,REF\u002A\u002A*%
X375945000Y11790000D03*
D12*
X373405000Y11790000D03*
%TD*%
D13*
%TO.C,REF\u002A\u002A*%
X340012500Y-171390000D03*
D14*
X340012500Y-181550000D03*
%TD*%
D11*
%TO.C,REF\u002A\u002A*%
X365445000Y19790000D03*
D12*
X362905000Y19790000D03*
%TD*%
D11*
%TO.C,REF\u002A\u002A*%
X365575000Y-186100000D03*
D12*
X363035000Y-186100000D03*
%TD*%
D13*
%TO.C,REF\u002A\u002A*%
X340012500Y-143640000D03*
D14*
X340012500Y-153800000D03*
%TD*%
D11*
%TO.C,REF\u002A\u002A*%
X437905000Y-9460000D03*
D12*
X435365000Y-9460000D03*
%TD*%
D11*
%TO.C,REF\u002A\u002A*%
X427405000Y-9460000D03*
D12*
X424865000Y-9460000D03*
%TD*%
D13*
%TO.C,REF\u002A\u002A*%
X368640000Y6290000D03*
D14*
X378800000Y6290000D03*
%TD*%
D11*
%TO.C,REF\u002A\u002A*%
X324655000Y-61950000D03*
D12*
X322115000Y-61950000D03*
%TD*%
D11*
%TO.C,REF\u002A\u002A*%
X355117500Y-91230000D03*
D12*
X352577500Y-91230000D03*
%TD*%
D11*
%TO.C,REF\u002A\u002A*%
X324787500Y-133470000D03*
D12*
X322247500Y-133470000D03*
%TD*%
D11*
%TO.C,REF\u002A\u002A*%
X344445000Y19790000D03*
D12*
X341905000Y19790000D03*
%TD*%
D11*
%TO.C,REF\u002A\u002A*%
X427537500Y-112480000D03*
D12*
X424997500Y-112480000D03*
%TD*%
D11*
%TO.C,REF\u002A\u002A*%
X376077500Y-91230000D03*
D12*
X373537500Y-91230000D03*
%TD*%
D11*
%TO.C,REF\u002A\u002A*%
X432640000Y-80460000D03*
D12*
X430100000Y-80460000D03*
%TD*%
D11*
%TO.C,REF\u002A\u002A*%
X355115000Y-186100000D03*
D12*
X352575000Y-186100000D03*
%TD*%
D11*
%TO.C,REF\u002A\u002A*%
X324670000Y-9450000D03*
D12*
X322130000Y-9450000D03*
%TD*%
D11*
%TO.C,REF\u002A\u002A*%
X417985000Y11790000D03*
D12*
X415445000Y11790000D03*
%TD*%
D11*
%TO.C,REF\u002A\u002A*%
X344575000Y-194100000D03*
D12*
X342035000Y-194100000D03*
%TD*%
D15*
%TO.C,REF\u002A\u002A*%
X374710000Y-131150000D03*
D16*
X374710000Y-120990000D03*
%TD*%
D15*
%TO.C,REF\u002A\u002A*%
X417940000Y-151080000D03*
D16*
X407780000Y-151080000D03*
%TD*%
M02*
