M48
; DRILL file {KiCad (6.0.6)} date Fri Oct  7 01:39:29 2022
; FORMAT={-:-/ absolute / metric / decimal}
; #@! TF.CreationDate,2022-10-07T01:39:29+08:00
; #@! TF.GenerationSoftware,Kicad,Pcbnew,(6.0.6)
; #@! TF.FileFunction,Plated,1,2,PTH
FMAT,2
METRIC
; #@! TA.AperFunction,Plated,PTH,ComponentDrill
T1C0.600
; #@! TA.AperFunction,Plated,PTH,ComponentDrill
T2C0.700
; #@! TA.AperFunction,Plated,PTH,ComponentDrill
T3C0.800
; #@! TA.AperFunction,Plated,PTH,ComponentDrill
T4C0.900
; #@! TA.AperFunction,Plated,PTH,ComponentDrill
T5C1.000
; #@! TA.AperFunction,Plated,PTH,ComponentDrill
T6C4.000
%
G90
G05
T1
X313.7Y28.7
X313.7Y-204.3
X314.579Y30.821
X314.579Y26.579
X314.579Y-202.179
X314.579Y-206.421
X316.7Y31.7
X316.7Y25.7
X316.7Y-201.3
X316.7Y-207.3
X318.821Y30.821
X318.821Y26.579
X318.821Y-202.179
X318.821Y-206.421
X319.7Y28.7
X319.7Y-204.3
X445.35Y-204.24
X446.229Y-202.119
X446.229Y-206.361
X446.35Y28.76
X447.229Y30.881
X447.229Y26.639
X448.35Y-201.24
X448.35Y-207.24
X449.35Y31.76
X449.35Y25.76
X450.471Y-202.119
X450.471Y-206.361
X451.35Y-204.24
X451.471Y30.881
X451.471Y26.639
X452.35Y28.76
T2
X347.83Y-73.32
X347.83Y-83.48
X372.08Y-120.85
X372.08Y-131.01
X374.71Y-120.99
X374.71Y-131.15
X405.01Y-133.07
X405.01Y-143.23
X407.13Y-135.48
X407.13Y-145.64
X407.78Y-151.08
X411.29Y-73.05
X411.29Y-83.21
X411.73Y-176.11
X411.73Y-186.27
X413.6Y-106.29
X415.07Y-171.48
X417.94Y-151.08
X423.76Y-106.29
X425.23Y-171.48
T3
X339.88Y1.05
X339.88Y-9.11
X339.88Y-12.78
X339.88Y-22.94
X339.88Y-26.7
X339.88Y-36.86
X339.88Y-40.62
X339.88Y-50.78
X339.88Y-54.45
X339.88Y-64.61
X339.88Y-68.37
X339.88Y-78.53
X340.012Y-101.97
X340.012Y-112.13
X340.012Y-115.8
X340.012Y-125.96
X340.012Y-129.72
X340.012Y-139.88
X340.012Y-143.64
X340.012Y-153.8
X340.012Y-157.47
X340.012Y-167.63
X340.012Y-171.39
X340.012Y-181.55
X340.89Y6.29
X341.02Y-199.6
X341.022Y-96.73
X351.05Y6.29
X351.18Y-199.6
X351.183Y-96.73
X354.72Y6.29
X354.85Y-199.6
X354.852Y-96.73
X364.88Y6.29
X365.01Y-199.6
X365.012Y-96.73
X368.64Y6.29
X368.77Y-199.6
X368.772Y-96.73
X378.8Y6.29
X378.93Y-199.6
X378.933Y-96.73
X382.56Y6.29
X382.69Y-199.6
X382.692Y-96.73
X392.72Y6.29
X392.85Y-199.6
X392.852Y-96.73
X396.39Y6.29
X396.52Y-199.6
X396.522Y-96.73
X406.55Y6.29
X406.68Y-199.6
X406.683Y-96.73
X410.31Y6.29
X410.44Y-199.6
X410.442Y-96.73
X420.47Y6.29
X420.6Y-199.6
X420.602Y-96.73
X442.615Y1.04
X442.615Y-9.12
X442.615Y-12.79
X442.615Y-22.95
X442.615Y-26.71
X442.615Y-36.87
X442.615Y-40.63
X442.615Y-50.79
X442.615Y-54.46
X442.615Y-64.62
X442.615Y-68.38
X442.615Y-78.54
X442.748Y-101.98
X442.748Y-112.14
X442.748Y-115.81
X442.748Y-125.97
X442.748Y-129.73
X442.748Y-139.89
X442.748Y-143.65
X442.748Y-153.81
X442.748Y-157.48
X442.748Y-167.64
X442.748Y-171.4
X442.748Y-181.56
T4
X322.1Y-40.95
X322.1Y-72.45
X322.115Y1.05
X322.115Y-19.95
X322.115Y-30.45
X322.115Y-51.45
X322.115Y-61.95
X322.13Y-9.45
X322.232Y-143.97
X322.232Y-175.47
X322.248Y-101.97
X322.248Y-122.97
X322.248Y-133.47
X322.248Y-154.47
X322.248Y-164.97
X322.262Y-112.47
X324.64Y-40.95
X324.64Y-72.45
X324.655Y1.05
X324.655Y-19.95
X324.655Y-30.45
X324.655Y-51.45
X324.655Y-61.95
X324.67Y-9.45
X324.772Y-143.97
X324.772Y-175.47
X324.787Y-101.97
X324.787Y-122.97
X324.787Y-133.47
X324.787Y-154.47
X324.787Y-164.97
X324.803Y-112.47
X327.34Y9.05
X327.365Y-80.45
X327.472Y-93.97
X327.498Y-183.47
X329.88Y9.05
X329.905Y-80.45
X330.012Y-93.97
X330.037Y-183.47
X332.6Y-40.95
X332.6Y-72.45
X332.615Y1.05
X332.615Y-19.95
X332.615Y-30.45
X332.615Y-51.45
X332.615Y-61.95
X332.63Y-9.45
X332.732Y-143.97
X332.732Y-175.47
X332.748Y-101.97
X332.748Y-122.97
X332.748Y-133.47
X332.748Y-154.47
X332.748Y-164.97
X332.762Y-112.47
X333.93Y15.79
X334.06Y-190.1
X334.062Y-87.23
X335.14Y-40.95
X335.14Y-72.45
X335.155Y1.05
X335.155Y-19.95
X335.155Y-30.45
X335.155Y-51.45
X335.155Y-61.95
X335.17Y-9.45
X335.272Y-143.97
X335.272Y-175.47
X335.287Y-101.97
X335.287Y-122.97
X335.287Y-133.47
X335.287Y-154.47
X335.287Y-164.97
X335.303Y-112.47
X336.47Y15.79
X336.6Y-190.1
X336.602Y-87.23
X341.905Y19.79
X341.905Y11.79
X342.035Y-186.1
X342.035Y-194.1
X342.037Y-83.23
X342.037Y-91.23
X344.445Y19.79
X344.445Y11.79
X344.575Y-186.1
X344.575Y-194.1
X344.577Y-83.23
X344.577Y-91.23
X352.445Y19.79
X352.445Y11.79
X352.575Y-186.1
X352.575Y-194.1
X352.577Y-83.23
X352.577Y-91.23
X354.985Y19.79
X354.985Y11.79
X355.115Y-186.1
X355.115Y-194.1
X355.118Y-83.23
X355.118Y-91.23
X362.905Y19.79
X362.905Y11.79
X363.035Y-186.1
X363.035Y-194.1
X363.037Y-83.23
X363.037Y-91.23
X365.445Y19.79
X365.445Y11.79
X365.575Y-186.1
X365.575Y-194.1
X365.577Y-83.23
X365.577Y-91.23
X373.405Y19.79
X373.405Y11.79
X373.535Y-186.1
X373.535Y-194.1
X373.537Y-83.23
X373.537Y-91.23
X375.945Y19.79
X375.945Y11.79
X376.075Y-186.1
X376.075Y-194.1
X376.077Y-83.23
X376.077Y-91.23
X383.905Y19.79
X383.905Y11.79
X384.035Y-186.1
X384.035Y-194.1
X384.037Y-83.23
X384.037Y-91.23
X386.445Y19.79
X386.445Y11.79
X386.575Y-186.1
X386.575Y-194.1
X386.577Y-83.23
X386.577Y-91.23
X394.445Y19.79
X394.445Y11.79
X394.575Y-186.1
X394.575Y-194.1
X394.577Y-83.23
X394.577Y-91.23
X396.985Y19.79
X396.985Y11.79
X397.115Y-186.1
X397.115Y-194.1
X397.118Y-83.23
X397.118Y-91.23
X404.945Y19.79
X404.945Y11.79
X405.075Y-186.1
X405.075Y-194.1
X405.077Y-83.23
X405.077Y-91.23
X407.485Y19.79
X407.485Y11.79
X407.615Y-186.1
X407.615Y-194.1
X407.618Y-83.23
X407.618Y-91.23
X415.445Y19.79
X415.445Y11.79
X415.575Y-186.1
X415.575Y-194.1
X415.577Y-83.23
X415.577Y-91.23
X417.985Y19.79
X417.985Y11.79
X418.115Y-186.1
X418.115Y-194.1
X418.118Y-83.23
X418.118Y-91.23
X423.405Y15.79
X423.535Y-190.1
X423.537Y-87.23
X424.835Y-40.96
X424.835Y-72.46
X424.85Y1.04
X424.85Y-19.96
X424.85Y-30.46
X424.85Y-51.46
X424.85Y-61.96
X424.865Y-9.46
X424.967Y-143.98
X424.967Y-175.48
X424.982Y-101.98
X424.982Y-122.98
X424.982Y-133.48
X424.982Y-154.48
X424.982Y-164.98
X424.998Y-112.48
X425.945Y15.79
X426.075Y-190.1
X426.077Y-87.23
X427.375Y-40.96
X427.375Y-72.46
X427.39Y1.04
X427.39Y-19.96
X427.39Y-30.46
X427.39Y-51.46
X427.39Y-61.96
X427.405Y-9.46
X427.507Y-143.98
X427.507Y-175.48
X427.522Y-101.98
X427.522Y-122.98
X427.522Y-133.48
X427.522Y-154.48
X427.522Y-164.98
X427.537Y-112.48
X430.075Y9.04
X430.1Y-80.46
X430.207Y-93.98
X430.232Y-183.48
X432.615Y9.04
X432.64Y-80.46
X432.748Y-93.98
X432.772Y-183.48
X435.335Y-40.96
X435.335Y-72.46
X435.35Y1.04
X435.35Y-19.96
X435.35Y-30.46
X435.35Y-51.46
X435.35Y-61.96
X435.365Y-9.46
X435.467Y-143.98
X435.467Y-175.48
X435.482Y-101.98
X435.482Y-122.98
X435.482Y-133.48
X435.482Y-154.48
X435.482Y-164.98
X435.498Y-112.48
X437.875Y-40.96
X437.875Y-72.46
X437.89Y1.04
X437.89Y-19.96
X437.89Y-30.46
X437.89Y-51.46
X437.89Y-61.96
X437.905Y-9.46
X438.007Y-143.98
X438.007Y-175.48
X438.022Y-101.98
X438.022Y-122.98
X438.022Y-133.48
X438.022Y-154.48
X438.022Y-164.98
X438.037Y-112.48
T5
X372.08Y-151.1
X372.085Y-154.71
X374.62Y-151.1
X374.625Y-154.71
X377.16Y-151.1
X377.165Y-154.71
X379.7Y-151.1
X379.705Y-154.71
X382.24Y-151.1
X382.245Y-154.71
X384.78Y-151.1
X384.785Y-154.71
X387.32Y-151.1
X387.325Y-154.71
X389.86Y-151.1
X389.865Y-154.71
T6
X316.7Y28.7
X316.7Y-204.3
X448.35Y-204.24
X449.35Y28.76
T0
M30
