%FSLAX45Y45*%
G04 Gerber Fmt 4.5, Leading zero omitted, Abs format (unit mm)*
G04 Created by KiCad (PCBNEW (6.0.6)) date 2022-10-07 01:39:29*
%MOMM*%
%LPD*%
G01*
G04 APERTURE LIST*
%TA.AperFunction,Profile*%
%ADD10C,0.100000*%
%TD*%
%ADD11C,0.200000*%
G04 APERTURE END LIST*
D10*
X45528000Y3579000D02*
X31090000Y3579000D01*
X31090000Y3579000D02*
X31090000Y-21121000D01*
X31090000Y-21121000D02*
X45528000Y-21121000D01*
X45528000Y-21121000D02*
X45528000Y3579000D01*
D11*
X31342619Y-21436476D02*
X31342619Y-21236476D01*
X31390238Y-21236476D01*
X31418809Y-21246000D01*
X31437857Y-21265048D01*
X31447381Y-21284095D01*
X31456905Y-21322190D01*
X31456905Y-21350762D01*
X31447381Y-21388857D01*
X31437857Y-21407905D01*
X31418809Y-21426952D01*
X31390238Y-21436476D01*
X31342619Y-21436476D01*
X31542619Y-21436476D02*
X31542619Y-21303143D01*
X31542619Y-21341238D02*
X31552143Y-21322190D01*
X31561667Y-21312667D01*
X31580714Y-21303143D01*
X31599762Y-21303143D01*
X31666428Y-21436476D02*
X31666428Y-21303143D01*
X31666428Y-21236476D02*
X31656905Y-21246000D01*
X31666428Y-21255524D01*
X31675952Y-21246000D01*
X31666428Y-21236476D01*
X31666428Y-21255524D01*
X31790238Y-21436476D02*
X31771190Y-21426952D01*
X31761667Y-21407905D01*
X31761667Y-21236476D01*
X31895000Y-21436476D02*
X31875952Y-21426952D01*
X31866428Y-21407905D01*
X31866428Y-21236476D01*
X32123571Y-21436476D02*
X32123571Y-21236476D01*
X32190238Y-21379333D01*
X32256905Y-21236476D01*
X32256905Y-21436476D01*
X32437857Y-21436476D02*
X32437857Y-21331714D01*
X32428333Y-21312667D01*
X32409286Y-21303143D01*
X32371190Y-21303143D01*
X32352143Y-21312667D01*
X32437857Y-21426952D02*
X32418809Y-21436476D01*
X32371190Y-21436476D01*
X32352143Y-21426952D01*
X32342619Y-21407905D01*
X32342619Y-21388857D01*
X32352143Y-21369810D01*
X32371190Y-21360286D01*
X32418809Y-21360286D01*
X32437857Y-21350762D01*
X32533095Y-21303143D02*
X32533095Y-21503143D01*
X32533095Y-21312667D02*
X32552143Y-21303143D01*
X32590238Y-21303143D01*
X32609286Y-21312667D01*
X32618809Y-21322190D01*
X32628333Y-21341238D01*
X32628333Y-21398381D01*
X32618809Y-21417429D01*
X32609286Y-21426952D01*
X32590238Y-21436476D01*
X32552143Y-21436476D01*
X32533095Y-21426952D01*
X32714048Y-21417429D02*
X32723571Y-21426952D01*
X32714048Y-21436476D01*
X32704524Y-21426952D01*
X32714048Y-21417429D01*
X32714048Y-21436476D01*
X32714048Y-21312667D02*
X32723571Y-21322190D01*
X32714048Y-21331714D01*
X32704524Y-21322190D01*
X32714048Y-21312667D01*
X32714048Y-21331714D01*
M02*
