%TF.GenerationSoftware,KiCad,Pcbnew,(6.0.6)*%
%TF.CreationDate,2022-10-07T01:41:05+08:00*%
%TF.ProjectId,7SegmentDisplay_DualLine_NoDriver_10Inches(2),37536567-6d65-46e7-9444-6973706c6179,rev?*%
%TF.SameCoordinates,Original*%
%TF.FileFunction,Legend,Top*%
%TF.FilePolarity,Positive*%
%FSLAX46Y46*%
G04 Gerber Fmt 4.6, Leading zero omitted, Abs format (unit mm)*
G04 Created by KiCad (PCBNEW (6.0.6)) date 2022-10-07 01:41:05*
%MOMM*%
%LPD*%
G01*
G04 APERTURE LIST*
%ADD10C,0.150000*%
%ADD11C,0.120000*%
%ADD12R,1.800000X1.800000*%
%ADD13C,1.800000*%
%ADD14C,1.600000*%
%ADD15O,1.600000X1.600000*%
%ADD16R,1.700000X1.700000*%
%ADD17O,1.700000X1.700000*%
%ADD18C,1.400000*%
%ADD19O,1.400000X1.400000*%
%ADD20C,0.900000*%
%ADD21C,8.000000*%
G04 APERTURE END LIST*
D10*
%TO.C,*%
D11*
%TO.C,REF\u002A\u002A*%
X373315000Y-195487574D02*
X373315000Y-192397574D01*
X367765000Y-193942112D02*
G75*
G03*
X373315000Y-195487404I2990000J-462D01*
G01*
X373315000Y-192397744D02*
G75*
G03*
X367765000Y-193943036I-2560000J-1544830D01*
G01*
X373255000Y-193942574D02*
G75*
G03*
X373255000Y-193942574I-2500000J0D01*
G01*
X373450000Y-68965074D02*
X373450000Y-65875074D01*
X373450000Y-65875244D02*
G75*
G03*
X367900000Y-67420536I-2560000J-1544830D01*
G01*
X367900000Y-67419612D02*
G75*
G03*
X373450000Y-68964904I2990000J-462D01*
G01*
X373390000Y-67420074D02*
G75*
G03*
X373390000Y-67420074I-2500000J0D01*
G01*
X459814960Y39454932D02*
X459814960Y42544932D01*
X459814960Y42544762D02*
G75*
G03*
X454264960Y40999470I-2560000J-1544830D01*
G01*
X454264960Y41000394D02*
G75*
G03*
X459814960Y39455102I2990000J-462D01*
G01*
X459754960Y40999932D02*
G75*
G03*
X459754960Y40999932I-2500000J0D01*
G01*
X325065040Y-177090080D02*
X325065040Y-174000080D01*
X325065040Y-174000250D02*
G75*
G03*
X319515040Y-175545542I-2560000J-1544830D01*
G01*
X319515040Y-175544618D02*
G75*
G03*
X325065040Y-177089910I2990000J-462D01*
G01*
X325005040Y-175545080D02*
G75*
G03*
X325005040Y-175545080I-2500000J0D01*
G01*
X433635000Y-195487574D02*
X433635000Y-192397574D01*
X428085000Y-193942112D02*
G75*
G03*
X433635000Y-195487404I2990000J-462D01*
G01*
X433635000Y-192397744D02*
G75*
G03*
X428085000Y-193943036I-2560000J-1544830D01*
G01*
X433575000Y-193942574D02*
G75*
G03*
X433575000Y-193942574I-2500000J0D01*
G01*
X451814960Y-20545068D02*
X451814960Y-17455068D01*
X446264960Y-18999606D02*
G75*
G03*
X451814960Y-20544898I2990000J-462D01*
G01*
X451814960Y-17455238D02*
G75*
G03*
X446264960Y-19000530I-2560000J-1544830D01*
G01*
X451754960Y-19000068D02*
G75*
G03*
X451754960Y-19000068I-2500000J0D01*
G01*
X329065040Y-184840080D02*
X329065040Y-181750080D01*
X323515040Y-183294618D02*
G75*
G03*
X329065040Y-184839910I2990000J-462D01*
G01*
X329065040Y-181750250D02*
G75*
G03*
X323515040Y-183295542I-2560000J-1544830D01*
G01*
X329005040Y-183295080D02*
G75*
G03*
X329005040Y-183295080I-2500000J0D01*
G01*
X325065040Y-102090080D02*
X325065040Y-99000080D01*
X325065040Y-99000250D02*
G75*
G03*
X319515040Y-100545542I-2560000J-1544830D01*
G01*
X319515040Y-100544618D02*
G75*
G03*
X325065040Y-102089910I2990000J-462D01*
G01*
X325005040Y-100545080D02*
G75*
G03*
X325005040Y-100545080I-2500000J0D01*
G01*
X343770000Y-47505074D02*
X337230000Y-47505074D01*
X336460000Y-48875074D02*
X337230000Y-48875074D01*
X344540000Y-48875074D02*
X343770000Y-48875074D01*
X337230000Y-47505074D02*
X337230000Y-50245074D01*
X343770000Y-50245074D02*
X343770000Y-47505074D01*
X337230000Y-50245074D02*
X343770000Y-50245074D01*
X451565000Y-162215074D02*
X451565000Y-159125074D01*
X446015000Y-160669612D02*
G75*
G03*
X451565000Y-162214904I2990000J-462D01*
G01*
X451565000Y-159125244D02*
G75*
G03*
X446015000Y-160670536I-2560000J-1544830D01*
G01*
X451505000Y-160670074D02*
G75*
G03*
X451505000Y-160670074I-2500000J0D01*
G01*
X350215000Y-201062574D02*
X350215000Y-198322574D01*
X343675000Y-201062574D02*
X350215000Y-201062574D01*
X350985000Y-199692574D02*
X350215000Y-199692574D01*
X342905000Y-199692574D02*
X343675000Y-199692574D01*
X350215000Y-198322574D02*
X343675000Y-198322574D01*
X343675000Y-198322574D02*
X343675000Y-201062574D01*
X441559960Y57704932D02*
X441559960Y60794932D01*
X441559960Y60794762D02*
G75*
G03*
X436009960Y59249470I-2560000J-1544830D01*
G01*
X436009960Y59250394D02*
G75*
G03*
X441559960Y57705102I2990000J-462D01*
G01*
X441499960Y59249932D02*
G75*
G03*
X441499960Y59249932I-2500000J0D01*
G01*
X325315000Y-27920074D02*
X325315000Y-24830074D01*
X319765000Y-26374612D02*
G75*
G03*
X325315000Y-27919904I2990000J-462D01*
G01*
X325315000Y-24830244D02*
G75*
G03*
X319765000Y-26375536I-2560000J-1544830D01*
G01*
X325255000Y-26375074D02*
G75*
G03*
X325255000Y-26375074I-2500000J0D01*
G01*
X463480000Y-76800074D02*
X463480000Y-79540074D01*
X463480000Y-79540074D02*
X470020000Y-79540074D01*
X470020000Y-79540074D02*
X470020000Y-76800074D01*
X470020000Y-76800074D02*
X463480000Y-76800074D01*
X462710000Y-78170074D02*
X463480000Y-78170074D01*
X470790000Y-78170074D02*
X470020000Y-78170074D01*
X448830000Y-65215074D02*
X448830000Y-62125074D01*
X448830000Y-62125244D02*
G75*
G03*
X443280000Y-63670536I-2560000J-1544830D01*
G01*
X443280000Y-63669612D02*
G75*
G03*
X448830000Y-65214904I2990000J-462D01*
G01*
X448770000Y-63670074D02*
G75*
G03*
X448770000Y-63670074I-2500000J0D01*
G01*
X381239960Y65704932D02*
X381239960Y68794932D01*
X375689960Y67250394D02*
G75*
G03*
X381239960Y65705102I2990000J-462D01*
G01*
X381239960Y68794762D02*
G75*
G03*
X375689960Y67249470I-2560000J-1544830D01*
G01*
X381179960Y67249932D02*
G75*
G03*
X381179960Y67249932I-2500000J0D01*
G01*
X426095000Y-195487574D02*
X426095000Y-192397574D01*
X420545000Y-193942112D02*
G75*
G03*
X426095000Y-195487404I2990000J-462D01*
G01*
X426095000Y-192397744D02*
G75*
G03*
X420545000Y-193943036I-2560000J-1544830D01*
G01*
X426035000Y-193942574D02*
G75*
G03*
X426035000Y-193942574I-2500000J0D01*
G01*
X380990000Y-60965074D02*
X380990000Y-57875074D01*
X375440000Y-59419612D02*
G75*
G03*
X380990000Y-60964904I2990000J-462D01*
G01*
X380990000Y-57875244D02*
G75*
G03*
X375440000Y-59420536I-2560000J-1544830D01*
G01*
X380930000Y-59420074D02*
G75*
G03*
X380930000Y-59420074I-2500000J0D01*
G01*
X426095000Y-187487574D02*
X426095000Y-184397574D01*
X426095000Y-184397744D02*
G75*
G03*
X420545000Y-185943036I-2560000J-1544830D01*
G01*
X420545000Y-185942112D02*
G75*
G03*
X426095000Y-187487404I2990000J-462D01*
G01*
X426035000Y-185942574D02*
G75*
G03*
X426035000Y-185942574I-2500000J0D01*
G01*
X459814960Y31954932D02*
X459814960Y35044932D01*
X454264960Y33500394D02*
G75*
G03*
X459814960Y31955102I2990000J-462D01*
G01*
X459814960Y35044762D02*
G75*
G03*
X454264960Y33499470I-2560000J-1544830D01*
G01*
X459754960Y33499932D02*
G75*
G03*
X459754960Y33499932I-2500000J0D01*
G01*
X333065040Y-87090080D02*
X333065040Y-84000080D01*
X333065040Y-84000250D02*
G75*
G03*
X327515040Y-85545542I-2560000J-1544830D01*
G01*
X327515040Y-85544618D02*
G75*
G03*
X333065040Y-87089910I2990000J-462D01*
G01*
X333005040Y-85545080D02*
G75*
G03*
X333005040Y-85545080I-2500000J0D01*
G01*
X333065040Y-79590080D02*
X333065040Y-76500080D01*
X333065040Y-76500250D02*
G75*
G03*
X327515040Y-78045542I-2560000J-1544830D01*
G01*
X327515040Y-78044618D02*
G75*
G03*
X333065040Y-79589910I2990000J-462D01*
G01*
X333005040Y-78045080D02*
G75*
G03*
X333005040Y-78045080I-2500000J0D01*
G01*
X459565000Y-139715074D02*
X459565000Y-136625074D01*
X454015000Y-138169612D02*
G75*
G03*
X459565000Y-139714904I2990000J-462D01*
G01*
X459565000Y-136625244D02*
G75*
G03*
X454015000Y-138170536I-2560000J-1544830D01*
G01*
X459505000Y-138170074D02*
G75*
G03*
X459505000Y-138170074I-2500000J0D01*
G01*
X449079960Y61454932D02*
X449079960Y64544932D01*
X443529960Y63000394D02*
G75*
G03*
X449079960Y61455102I2990000J-462D01*
G01*
X449079960Y64544762D02*
G75*
G03*
X443529960Y62999470I-2560000J-1544830D01*
G01*
X449019960Y62999932D02*
G75*
G03*
X449019960Y62999932I-2500000J0D01*
G01*
X426230000Y-60965074D02*
X426230000Y-57875074D01*
X420680000Y-59419612D02*
G75*
G03*
X426230000Y-60964904I2990000J-462D01*
G01*
X426230000Y-57875244D02*
G75*
G03*
X420680000Y-59420536I-2560000J-1544830D01*
G01*
X426170000Y-59420074D02*
G75*
G03*
X426170000Y-59420074I-2500000J0D01*
G01*
X325065040Y-117090080D02*
X325065040Y-114000080D01*
X325065040Y-114000250D02*
G75*
G03*
X319515040Y-115545542I-2560000J-1544830D01*
G01*
X319515040Y-115544618D02*
G75*
G03*
X325065040Y-117089910I2990000J-462D01*
G01*
X325005040Y-115545080D02*
G75*
G03*
X325005040Y-115545080I-2500000J0D01*
G01*
X333315000Y-50420074D02*
X333315000Y-47330074D01*
X327765000Y-48874612D02*
G75*
G03*
X333315000Y-50419904I2990000J-462D01*
G01*
X333315000Y-47330244D02*
G75*
G03*
X327765000Y-48875536I-2560000J-1544830D01*
G01*
X333255000Y-48875074D02*
G75*
G03*
X333255000Y-48875074I-2500000J0D01*
G01*
X433635000Y-187487574D02*
X433635000Y-184397574D01*
X433635000Y-184397744D02*
G75*
G03*
X428085000Y-185943036I-2560000J-1544830D01*
G01*
X428085000Y-185942112D02*
G75*
G03*
X433635000Y-187487404I2990000J-462D01*
G01*
X433575000Y-185942574D02*
G75*
G03*
X433575000Y-185942574I-2500000J0D01*
G01*
X426479960Y57704932D02*
X426479960Y60794932D01*
X420929960Y59250394D02*
G75*
G03*
X426479960Y57705102I2990000J-462D01*
G01*
X426479960Y60794762D02*
G75*
G03*
X420929960Y59249470I-2560000J-1544830D01*
G01*
X426419960Y59249932D02*
G75*
G03*
X426419960Y59249932I-2500000J0D01*
G01*
X451814960Y-43045068D02*
X451814960Y-39955068D01*
X451814960Y-39955238D02*
G75*
G03*
X446264960Y-41500530I-2560000J-1544830D01*
G01*
X446264960Y-41499606D02*
G75*
G03*
X451814960Y-43044898I2990000J-462D01*
G01*
X451754960Y-41500068D02*
G75*
G03*
X451754960Y-41500068I-2500000J0D01*
G01*
X418939960Y57704932D02*
X418939960Y60794932D01*
X413389960Y59250394D02*
G75*
G03*
X418939960Y57705102I2990000J-462D01*
G01*
X418939960Y60794762D02*
G75*
G03*
X413389960Y59249470I-2560000J-1544830D01*
G01*
X418879960Y59249932D02*
G75*
G03*
X418879960Y59249932I-2500000J0D01*
G01*
X406170000Y-139270000D02*
X406170000Y-140600000D01*
X403570000Y-139270000D02*
X385730000Y-139270000D01*
X403570000Y-139270000D02*
X403570000Y-141930000D01*
X404840000Y-139270000D02*
X406170000Y-139270000D01*
X385730000Y-139270000D02*
X385730000Y-141930000D01*
X403570000Y-141930000D02*
X385730000Y-141930000D01*
X459814960Y-5545068D02*
X459814960Y-2455068D01*
X459814960Y-2455238D02*
G75*
G03*
X454264960Y-4000530I-2560000J-1544830D01*
G01*
X454264960Y-3999606D02*
G75*
G03*
X459814960Y-5544898I2990000J-462D01*
G01*
X459754960Y-4000068D02*
G75*
G03*
X459754960Y-4000068I-2500000J0D01*
G01*
X388530000Y-68965074D02*
X388530000Y-65875074D01*
X388530000Y-65875244D02*
G75*
G03*
X382980000Y-67420536I-2560000J-1544830D01*
G01*
X382980000Y-67419612D02*
G75*
G03*
X388530000Y-68964904I2990000J-462D01*
G01*
X388470000Y-67420074D02*
G75*
G03*
X388470000Y-67420074I-2500000J0D01*
G01*
X441175000Y-187487574D02*
X441175000Y-184397574D01*
X441175000Y-184397744D02*
G75*
G03*
X435625000Y-185943036I-2560000J-1544830D01*
G01*
X435625000Y-185942112D02*
G75*
G03*
X441175000Y-187487404I2990000J-462D01*
G01*
X441115000Y-185942574D02*
G75*
G03*
X441115000Y-185942574I-2500000J0D01*
G01*
X426370000Y-73900074D02*
X423630000Y-73900074D01*
X425000000Y-73130074D02*
X425000000Y-73900074D01*
X423630000Y-73900074D02*
X423630000Y-80440074D01*
X425000000Y-81210074D02*
X425000000Y-80440074D01*
X423630000Y-80440074D02*
X426370000Y-80440074D01*
X426370000Y-80440074D02*
X426370000Y-73900074D01*
X470269960Y-25130068D02*
X463729960Y-25130068D01*
X470269960Y-27870068D02*
X470269960Y-25130068D01*
X462959960Y-26500068D02*
X463729960Y-26500068D01*
X463729960Y-25130068D02*
X463729960Y-27870068D01*
X471039960Y-26500068D02*
X470269960Y-26500068D01*
X463729960Y-27870068D02*
X470269960Y-27870068D01*
X451814960Y-28045068D02*
X451814960Y-24955068D01*
X446264960Y-26499606D02*
G75*
G03*
X451814960Y-28044898I2990000J-462D01*
G01*
X451814960Y-24955238D02*
G75*
G03*
X446264960Y-26500530I-2560000J-1544830D01*
G01*
X451754960Y-26500068D02*
G75*
G03*
X451754960Y-26500068I-2500000J0D01*
G01*
X455814960Y54704932D02*
X455814960Y57794932D01*
X450264960Y56250394D02*
G75*
G03*
X455814960Y54705102I2990000J-462D01*
G01*
X455814960Y57794762D02*
G75*
G03*
X450264960Y56249470I-2560000J-1544830D01*
G01*
X455754960Y56249932D02*
G75*
G03*
X455754960Y56249932I-2500000J0D01*
G01*
X373699960Y65704932D02*
X373699960Y68794932D01*
X373699960Y68794762D02*
G75*
G03*
X368149960Y67249470I-2560000J-1544830D01*
G01*
X368149960Y67250394D02*
G75*
G03*
X373699960Y65705102I2990000J-462D01*
G01*
X373639960Y67249932D02*
G75*
G03*
X373639960Y67249932I-2500000J0D01*
G01*
X333065040Y-147090080D02*
X333065040Y-144000080D01*
X333065040Y-144000250D02*
G75*
G03*
X327515040Y-145545542I-2560000J-1544830D01*
G01*
X327515040Y-145544618D02*
G75*
G03*
X333065040Y-147089910I2990000J-462D01*
G01*
X333005040Y-145545080D02*
G75*
G03*
X333005040Y-145545080I-2500000J0D01*
G01*
X367000000Y-61214000D02*
X367000000Y-53086000D01*
X325065040Y-162090080D02*
X325065040Y-159000080D01*
X325065040Y-159000250D02*
G75*
G03*
X319515040Y-160545542I-2560000J-1544830D01*
G01*
X319515040Y-160544618D02*
G75*
G03*
X325065040Y-162089910I2990000J-462D01*
G01*
X325005040Y-160545080D02*
G75*
G03*
X325005040Y-160545080I-2500000J0D01*
G01*
X451814960Y46954932D02*
X451814960Y50044932D01*
X446264960Y48500394D02*
G75*
G03*
X451814960Y46955102I2990000J-462D01*
G01*
X451814960Y50044762D02*
G75*
G03*
X446264960Y48499470I-2560000J-1544830D01*
G01*
X451754960Y48499932D02*
G75*
G03*
X451754960Y48499932I-2500000J0D01*
G01*
X343520040Y-79415080D02*
X343520040Y-76675080D01*
X344290040Y-78045080D02*
X343520040Y-78045080D01*
X336980040Y-79415080D02*
X343520040Y-79415080D01*
X343520040Y-76675080D02*
X336980040Y-76675080D01*
X336210040Y-78045080D02*
X336980040Y-78045080D01*
X336980040Y-76675080D02*
X336980040Y-79415080D01*
X385745000Y-200422574D02*
X385745000Y-206962574D01*
X387115000Y-207732574D02*
X387115000Y-206962574D01*
X385745000Y-206962574D02*
X388485000Y-206962574D01*
X387115000Y-199652574D02*
X387115000Y-200422574D01*
X388485000Y-200422574D02*
X385745000Y-200422574D01*
X388485000Y-206962574D02*
X388485000Y-200422574D01*
X333065040Y-124590080D02*
X333065040Y-121500080D01*
X333065040Y-121500250D02*
G75*
G03*
X327515040Y-123045542I-2560000J-1544830D01*
G01*
X327515040Y-123044618D02*
G75*
G03*
X333065040Y-124589910I2990000J-462D01*
G01*
X333005040Y-123045080D02*
G75*
G03*
X333005040Y-123045080I-2500000J0D01*
G01*
X366159960Y65704932D02*
X366159960Y68794932D01*
X366159960Y68794762D02*
G75*
G03*
X360609960Y67249470I-2560000J-1544830D01*
G01*
X360609960Y67250394D02*
G75*
G03*
X366159960Y65705102I2990000J-462D01*
G01*
X366099960Y67249932D02*
G75*
G03*
X366099960Y67249932I-2500000J0D01*
G01*
X395935000Y-195487574D02*
X395935000Y-192397574D01*
X390385000Y-193942112D02*
G75*
G03*
X395935000Y-195487404I2990000J-462D01*
G01*
X395935000Y-192397744D02*
G75*
G03*
X390385000Y-193943036I-2560000J-1544830D01*
G01*
X395875000Y-193942574D02*
G75*
G03*
X395875000Y-193942574I-2500000J0D01*
G01*
X451814960Y-13045068D02*
X451814960Y-9955068D01*
X451814960Y-9955238D02*
G75*
G03*
X446264960Y-11500530I-2560000J-1544830D01*
G01*
X446264960Y-11499606D02*
G75*
G03*
X451814960Y-13044898I2990000J-462D01*
G01*
X451754960Y-11500068D02*
G75*
G03*
X451754960Y-11500068I-2500000J0D01*
G01*
X333315000Y2079926D02*
X333315000Y5169926D01*
X327765000Y3625388D02*
G75*
G03*
X333315000Y2080096I2990000J-462D01*
G01*
X333315000Y5169756D02*
G75*
G03*
X327765000Y3624464I-2560000J-1544830D01*
G01*
X333255000Y3624926D02*
G75*
G03*
X333255000Y3624926I-2500000J0D01*
G01*
X388869960Y52769932D02*
X386129960Y52769932D01*
X387499960Y53539932D02*
X387499960Y52769932D01*
X387499960Y45459932D02*
X387499960Y46229932D01*
X386129960Y46229932D02*
X388869960Y46229932D01*
X388869960Y46229932D02*
X388869960Y52769932D01*
X386129960Y52769932D02*
X386129960Y46229932D01*
X343770000Y39754926D02*
X343770000Y42494926D01*
X344540000Y41124926D02*
X343770000Y41124926D01*
X337230000Y39754926D02*
X343770000Y39754926D01*
X336460000Y41124926D02*
X337230000Y41124926D01*
X343770000Y42494926D02*
X337230000Y42494926D01*
X337230000Y42494926D02*
X337230000Y39754926D01*
X438735000Y-206962574D02*
X438735000Y-200422574D01*
X438735000Y-200422574D02*
X435995000Y-200422574D01*
X437365000Y-207732574D02*
X437365000Y-206962574D01*
X435995000Y-206962574D02*
X438735000Y-206962574D01*
X437365000Y-199652574D02*
X437365000Y-200422574D01*
X435995000Y-200422574D02*
X435995000Y-206962574D01*
X459814960Y24454932D02*
X459814960Y27544932D01*
X459814960Y27544762D02*
G75*
G03*
X454264960Y25999470I-2560000J-1544830D01*
G01*
X454264960Y26000394D02*
G75*
G03*
X459814960Y24455102I2990000J-462D01*
G01*
X459754960Y25999932D02*
G75*
G03*
X459754960Y25999932I-2500000J0D01*
G01*
X444784000Y-127000000D02*
X436656000Y-127000000D01*
X433770000Y-60965074D02*
X433770000Y-57875074D01*
X428220000Y-59419612D02*
G75*
G03*
X433770000Y-60964904I2990000J-462D01*
G01*
X433770000Y-57875244D02*
G75*
G03*
X428220000Y-59420536I-2560000J-1544830D01*
G01*
X433710000Y-59420074D02*
G75*
G03*
X433710000Y-59420074I-2500000J0D01*
G01*
X396319960Y65704932D02*
X396319960Y68794932D01*
X396319960Y68794762D02*
G75*
G03*
X390769960Y67249470I-2560000J-1544830D01*
G01*
X390769960Y67250394D02*
G75*
G03*
X396319960Y65705102I2990000J-462D01*
G01*
X396259960Y67249932D02*
G75*
G03*
X396259960Y67249932I-2500000J0D01*
G01*
X418555000Y-195487574D02*
X418555000Y-192397574D01*
X413005000Y-193942112D02*
G75*
G03*
X418555000Y-195487404I2990000J-462D01*
G01*
X418555000Y-192397744D02*
G75*
G03*
X413005000Y-193943036I-2560000J-1544830D01*
G01*
X418495000Y-193942574D02*
G75*
G03*
X418495000Y-193942574I-2500000J0D01*
G01*
X470269960Y47129932D02*
X470269960Y49869932D01*
X470269960Y49869932D02*
X463729960Y49869932D01*
X463729960Y49869932D02*
X463729960Y47129932D01*
X471039960Y48499932D02*
X470269960Y48499932D01*
X463729960Y47129932D02*
X470269960Y47129932D01*
X462959960Y48499932D02*
X463729960Y48499932D01*
X344290040Y-108045080D02*
X343520040Y-108045080D01*
X336210040Y-108045080D02*
X336980040Y-108045080D01*
X336980040Y-109415080D02*
X343520040Y-109415080D01*
X336980040Y-106675080D02*
X336980040Y-109415080D01*
X343520040Y-106675080D02*
X336980040Y-106675080D01*
X343520040Y-109415080D02*
X343520040Y-106675080D01*
X451814960Y1954932D02*
X451814960Y5044932D01*
X446264960Y3500394D02*
G75*
G03*
X451814960Y1955102I2990000J-462D01*
G01*
X451814960Y5044762D02*
G75*
G03*
X446264960Y3499470I-2560000J-1544830D01*
G01*
X451754960Y3499932D02*
G75*
G03*
X451754960Y3499932I-2500000J0D01*
G01*
X412200000Y-128786000D02*
X412200000Y-136914000D01*
X382400000Y-91414000D02*
X382400000Y-83286000D01*
X451814960Y-35545068D02*
X451814960Y-32455068D01*
X451814960Y-32455238D02*
G75*
G03*
X446264960Y-34000530I-2560000J-1544830D01*
G01*
X446264960Y-33999606D02*
G75*
G03*
X451814960Y-35544898I2990000J-462D01*
G01*
X451754960Y-34000068D02*
G75*
G03*
X451754960Y-34000068I-2500000J0D01*
G01*
X451565000Y-94715074D02*
X451565000Y-91625074D01*
X446015000Y-93169612D02*
G75*
G03*
X451565000Y-94714904I2990000J-462D01*
G01*
X451565000Y-91625244D02*
G75*
G03*
X446015000Y-93170536I-2560000J-1544830D01*
G01*
X451505000Y-93170074D02*
G75*
G03*
X451505000Y-93170074I-2500000J0D01*
G01*
X396070000Y-68965074D02*
X396070000Y-65875074D01*
X396070000Y-65875244D02*
G75*
G03*
X390520000Y-67420536I-2560000J-1544830D01*
G01*
X390520000Y-67419612D02*
G75*
G03*
X396070000Y-68964904I2990000J-462D01*
G01*
X396010000Y-67420074D02*
G75*
G03*
X396010000Y-67420074I-2500000J0D01*
G01*
X333065040Y-117090080D02*
X333065040Y-114000080D01*
X327515040Y-115544618D02*
G75*
G03*
X333065040Y-117089910I2990000J-462D01*
G01*
X333065040Y-114000250D02*
G75*
G03*
X327515040Y-115545542I-2560000J-1544830D01*
G01*
X333005040Y-115545080D02*
G75*
G03*
X333005040Y-115545080I-2500000J0D01*
G01*
X325315000Y-5420074D02*
X325315000Y-2330074D01*
X319765000Y-3874612D02*
G75*
G03*
X325315000Y-5419904I2990000J-462D01*
G01*
X325315000Y-2330244D02*
G75*
G03*
X319765000Y-3875536I-2560000J-1544830D01*
G01*
X325255000Y-3875074D02*
G75*
G03*
X325255000Y-3875074I-2500000J0D01*
G01*
X333315000Y-20420074D02*
X333315000Y-17330074D01*
X333315000Y-17330244D02*
G75*
G03*
X327765000Y-18875536I-2560000J-1544830D01*
G01*
X327765000Y-18874612D02*
G75*
G03*
X333315000Y-20419904I2990000J-462D01*
G01*
X333255000Y-18875074D02*
G75*
G03*
X333255000Y-18875074I-2500000J0D01*
G01*
X333315000Y-42920074D02*
X333315000Y-39830074D01*
X327765000Y-41374612D02*
G75*
G03*
X333315000Y-42919904I2990000J-462D01*
G01*
X333315000Y-39830244D02*
G75*
G03*
X327765000Y-41375536I-2560000J-1544830D01*
G01*
X333255000Y-41375074D02*
G75*
G03*
X333255000Y-41375074I-2500000J0D01*
G01*
X451565000Y-109715074D02*
X451565000Y-106625074D01*
X446015000Y-108169612D02*
G75*
G03*
X451565000Y-109714904I2990000J-462D01*
G01*
X451565000Y-106625244D02*
G75*
G03*
X446015000Y-108170536I-2560000J-1544830D01*
G01*
X451505000Y-108170074D02*
G75*
G03*
X451505000Y-108170074I-2500000J0D01*
G01*
X459565000Y-177215074D02*
X459565000Y-174125074D01*
X454015000Y-175669612D02*
G75*
G03*
X459565000Y-177214904I2990000J-462D01*
G01*
X459565000Y-174125244D02*
G75*
G03*
X454015000Y-175670536I-2560000J-1544830D01*
G01*
X459505000Y-175670074D02*
G75*
G03*
X459505000Y-175670074I-2500000J0D01*
G01*
X388395000Y-195487574D02*
X388395000Y-192397574D01*
X382845000Y-193942112D02*
G75*
G03*
X388395000Y-195487404I2990000J-462D01*
G01*
X388395000Y-192397744D02*
G75*
G03*
X382845000Y-193943036I-2560000J-1544830D01*
G01*
X388335000Y-193942574D02*
G75*
G03*
X388335000Y-193942574I-2500000J0D01*
G01*
X388530000Y-60965074D02*
X388530000Y-57875074D01*
X382980000Y-59419612D02*
G75*
G03*
X388530000Y-60964904I2990000J-462D01*
G01*
X388530000Y-57875244D02*
G75*
G03*
X382980000Y-59420536I-2560000J-1544830D01*
G01*
X388470000Y-59420074D02*
G75*
G03*
X388470000Y-59420074I-2500000J0D01*
G01*
X441175000Y-195487574D02*
X441175000Y-192397574D01*
X435625000Y-193942112D02*
G75*
G03*
X441175000Y-195487404I2990000J-462D01*
G01*
X441175000Y-192397744D02*
G75*
G03*
X435625000Y-193943036I-2560000J-1544830D01*
G01*
X441115000Y-193942574D02*
G75*
G03*
X441115000Y-193942574I-2500000J0D01*
G01*
X459565000Y-94715074D02*
X459565000Y-91625074D01*
X459565000Y-91625244D02*
G75*
G03*
X454015000Y-93170536I-2560000J-1544830D01*
G01*
X454015000Y-93169612D02*
G75*
G03*
X459565000Y-94714904I2990000J-462D01*
G01*
X459505000Y-93170074D02*
G75*
G03*
X459505000Y-93170074I-2500000J0D01*
G01*
X451814960Y24454932D02*
X451814960Y27544932D01*
X451814960Y27544762D02*
G75*
G03*
X446264960Y25999470I-2560000J-1544830D01*
G01*
X446264960Y26000394D02*
G75*
G03*
X451814960Y24455102I2990000J-462D01*
G01*
X451754960Y25999932D02*
G75*
G03*
X451754960Y25999932I-2500000J0D01*
G01*
X411015000Y-187487574D02*
X411015000Y-184397574D01*
X411015000Y-184397744D02*
G75*
G03*
X405465000Y-185943036I-2560000J-1544830D01*
G01*
X405465000Y-185942112D02*
G75*
G03*
X411015000Y-187487404I2990000J-462D01*
G01*
X410955000Y-185942574D02*
G75*
G03*
X410955000Y-185942574I-2500000J0D01*
G01*
X411399960Y65704932D02*
X411399960Y68794932D01*
X405849960Y67250394D02*
G75*
G03*
X411399960Y65705102I2990000J-462D01*
G01*
X411399960Y68794762D02*
G75*
G03*
X405849960Y67249470I-2560000J-1544830D01*
G01*
X411339960Y67249932D02*
G75*
G03*
X411339960Y67249932I-2500000J0D01*
G01*
X325315000Y39579926D02*
X325315000Y42669926D01*
X319765000Y41125388D02*
G75*
G03*
X325315000Y39580096I2990000J-462D01*
G01*
X325315000Y42669756D02*
G75*
G03*
X319765000Y41124464I-2560000J-1544830D01*
G01*
X325255000Y41124926D02*
G75*
G03*
X325255000Y41124926I-2500000J0D01*
G01*
X471039960Y-34000068D02*
X470269960Y-34000068D01*
X470269960Y-35370068D02*
X470269960Y-32630068D01*
X470269960Y-32630068D02*
X463729960Y-32630068D01*
X463729960Y-32630068D02*
X463729960Y-35370068D01*
X462959960Y-34000068D02*
X463729960Y-34000068D01*
X463729960Y-35370068D02*
X470269960Y-35370068D01*
X433770000Y-68965074D02*
X433770000Y-65875074D01*
X433770000Y-65875244D02*
G75*
G03*
X428220000Y-67420536I-2560000J-1544830D01*
G01*
X428220000Y-67419612D02*
G75*
G03*
X433770000Y-68964904I2990000J-462D01*
G01*
X433710000Y-67420074D02*
G75*
G03*
X433710000Y-67420074I-2500000J0D01*
G01*
X463729960Y42369932D02*
X463729960Y39629932D01*
X471039960Y40999932D02*
X470269960Y40999932D01*
X463729960Y39629932D02*
X470269960Y39629932D01*
X470269960Y42369932D02*
X463729960Y42369932D01*
X470269960Y39629932D02*
X470269960Y42369932D01*
X462959960Y40999932D02*
X463729960Y40999932D01*
X426479960Y65704932D02*
X426479960Y68794932D01*
X420929960Y67250394D02*
G75*
G03*
X426479960Y65705102I2990000J-462D01*
G01*
X426479960Y68794762D02*
G75*
G03*
X420929960Y67249470I-2560000J-1544830D01*
G01*
X426419960Y67249932D02*
G75*
G03*
X426419960Y67249932I-2500000J0D01*
G01*
X470269960Y-2630068D02*
X463729960Y-2630068D01*
X462959960Y-4000068D02*
X463729960Y-4000068D01*
X463729960Y-2630068D02*
X463729960Y-5370068D01*
X471039960Y-4000068D02*
X470269960Y-4000068D01*
X463729960Y-5370068D02*
X470269960Y-5370068D01*
X470269960Y-5370068D02*
X470269960Y-2630068D01*
X325315000Y2079926D02*
X325315000Y5169926D01*
X319765000Y3625388D02*
G75*
G03*
X325315000Y2080096I2990000J-462D01*
G01*
X325315000Y5169756D02*
G75*
G03*
X319765000Y3624464I-2560000J-1544830D01*
G01*
X325255000Y3624926D02*
G75*
G03*
X325255000Y3624926I-2500000J0D01*
G01*
X325315000Y17079926D02*
X325315000Y20169926D01*
X325315000Y20169756D02*
G75*
G03*
X319765000Y18624464I-2560000J-1544830D01*
G01*
X319765000Y18625388D02*
G75*
G03*
X325315000Y17080096I2990000J-462D01*
G01*
X325255000Y18624926D02*
G75*
G03*
X325255000Y18624926I-2500000J0D01*
G01*
X451565000Y-102215074D02*
X451565000Y-99125074D01*
X446015000Y-100669612D02*
G75*
G03*
X451565000Y-102214904I2990000J-462D01*
G01*
X451565000Y-99125244D02*
G75*
G03*
X446015000Y-100670536I-2560000J-1544830D01*
G01*
X451505000Y-100670074D02*
G75*
G03*
X451505000Y-100670074I-2500000J0D01*
G01*
X362995000Y-206962574D02*
X365735000Y-206962574D01*
X365735000Y-200422574D02*
X362995000Y-200422574D01*
X365735000Y-206962574D02*
X365735000Y-200422574D01*
X364365000Y-207732574D02*
X364365000Y-206962574D01*
X362995000Y-200422574D02*
X362995000Y-206962574D01*
X364365000Y-199652574D02*
X364365000Y-200422574D01*
X470790000Y-115670074D02*
X470020000Y-115670074D01*
X470020000Y-117040074D02*
X470020000Y-114300074D01*
X470020000Y-114300074D02*
X463480000Y-114300074D01*
X463480000Y-117040074D02*
X470020000Y-117040074D01*
X462710000Y-115670074D02*
X463480000Y-115670074D01*
X463480000Y-114300074D02*
X463480000Y-117040074D01*
X343155000Y-187487574D02*
X343155000Y-184397574D01*
X337605000Y-185942112D02*
G75*
G03*
X343155000Y-187487404I2990000J-462D01*
G01*
X343155000Y-184397744D02*
G75*
G03*
X337605000Y-185943036I-2560000J-1544830D01*
G01*
X343095000Y-185942574D02*
G75*
G03*
X343095000Y-185942574I-2500000J0D01*
G01*
X358235000Y-195487574D02*
X358235000Y-192397574D01*
X358235000Y-192397744D02*
G75*
G03*
X352685000Y-193943036I-2560000J-1544830D01*
G01*
X352685000Y-193942112D02*
G75*
G03*
X358235000Y-195487404I2990000J-462D01*
G01*
X358175000Y-193942574D02*
G75*
G03*
X358175000Y-193942574I-2500000J0D01*
G01*
X381239960Y57704932D02*
X381239960Y60794932D01*
X381239960Y60794762D02*
G75*
G03*
X375689960Y59249470I-2560000J-1544830D01*
G01*
X375689960Y59250394D02*
G75*
G03*
X381239960Y57705102I2990000J-462D01*
G01*
X381179960Y59249932D02*
G75*
G03*
X381179960Y59249932I-2500000J0D01*
G01*
X441310000Y-68965074D02*
X441310000Y-65875074D01*
X435760000Y-67419612D02*
G75*
G03*
X441310000Y-68964904I2990000J-462D01*
G01*
X441310000Y-65875244D02*
G75*
G03*
X435760000Y-67420536I-2560000J-1544830D01*
G01*
X441250000Y-67420074D02*
G75*
G03*
X441250000Y-67420074I-2500000J0D01*
G01*
X459814960Y-35545068D02*
X459814960Y-32455068D01*
X454264960Y-33999606D02*
G75*
G03*
X459814960Y-35544898I2990000J-462D01*
G01*
X459814960Y-32455238D02*
G75*
G03*
X454264960Y-34000530I-2560000J-1544830D01*
G01*
X459754960Y-34000068D02*
G75*
G03*
X459754960Y-34000068I-2500000J0D01*
G01*
X329315000Y54829926D02*
X329315000Y57919926D01*
X329315000Y57919756D02*
G75*
G03*
X323765000Y56374464I-2560000J-1544830D01*
G01*
X323765000Y56375388D02*
G75*
G03*
X329315000Y54830096I2990000J-462D01*
G01*
X329255000Y56374926D02*
G75*
G03*
X329255000Y56374926I-2500000J0D01*
G01*
X470100000Y-91800074D02*
X463560000Y-91800074D01*
X463560000Y-91800074D02*
X463560000Y-94540074D01*
X463560000Y-94540074D02*
X470100000Y-94540074D01*
X462790000Y-93170074D02*
X463560000Y-93170074D01*
X470870000Y-93170074D02*
X470100000Y-93170074D01*
X470100000Y-94540074D02*
X470100000Y-91800074D01*
X411150000Y-60965074D02*
X411150000Y-57875074D01*
X405600000Y-59419612D02*
G75*
G03*
X411150000Y-60964904I2990000J-462D01*
G01*
X411150000Y-57875244D02*
G75*
G03*
X405600000Y-59420536I-2560000J-1544830D01*
G01*
X411090000Y-59420074D02*
G75*
G03*
X411090000Y-59420074I-2500000J0D01*
G01*
X462959960Y-11500068D02*
X463729960Y-11500068D01*
X463729960Y-12870068D02*
X470269960Y-12870068D01*
X471039960Y-11500068D02*
X470269960Y-11500068D01*
X470269960Y-12870068D02*
X470269960Y-10130068D01*
X463729960Y-10130068D02*
X463729960Y-12870068D01*
X470269960Y-10130068D02*
X463729960Y-10130068D01*
X451565000Y-147215074D02*
X451565000Y-144125074D01*
X451565000Y-144125244D02*
G75*
G03*
X446015000Y-145670536I-2560000J-1544830D01*
G01*
X446015000Y-145669612D02*
G75*
G03*
X451565000Y-147214904I2990000J-462D01*
G01*
X451505000Y-145670074D02*
G75*
G03*
X451505000Y-145670074I-2500000J0D01*
G01*
X441310000Y-60965074D02*
X441310000Y-57875074D01*
X441310000Y-57875244D02*
G75*
G03*
X435760000Y-59420536I-2560000J-1544830D01*
G01*
X435760000Y-59419612D02*
G75*
G03*
X441310000Y-60964904I2990000J-462D01*
G01*
X441250000Y-59420074D02*
G75*
G03*
X441250000Y-59420074I-2500000J0D01*
G01*
X333065040Y-177090080D02*
X333065040Y-174000080D01*
X327515040Y-175544618D02*
G75*
G03*
X333065040Y-177089910I2990000J-462D01*
G01*
X333065040Y-174000250D02*
G75*
G03*
X327515040Y-175545542I-2560000J-1544830D01*
G01*
X333005040Y-175545080D02*
G75*
G03*
X333005040Y-175545080I-2500000J0D01*
G01*
X470020000Y-109540074D02*
X470020000Y-106800074D01*
X470790000Y-108170074D02*
X470020000Y-108170074D01*
X463480000Y-109540074D02*
X470020000Y-109540074D01*
X470020000Y-106800074D02*
X463480000Y-106800074D01*
X462710000Y-108170074D02*
X463480000Y-108170074D01*
X463480000Y-106800074D02*
X463480000Y-109540074D01*
X463729960Y19869932D02*
X463729960Y17129932D01*
X470269960Y17129932D02*
X470269960Y19869932D01*
X470269960Y19869932D02*
X463729960Y19869932D01*
X471039960Y18499932D02*
X470269960Y18499932D01*
X463729960Y17129932D02*
X470269960Y17129932D01*
X462959960Y18499932D02*
X463729960Y18499932D01*
X451565000Y-124715074D02*
X451565000Y-121625074D01*
X451565000Y-121625244D02*
G75*
G03*
X446015000Y-123170536I-2560000J-1544830D01*
G01*
X446015000Y-123169612D02*
G75*
G03*
X451565000Y-124714904I2990000J-462D01*
G01*
X451505000Y-123170074D02*
G75*
G03*
X451505000Y-123170074I-2500000J0D01*
G01*
X395935000Y-187487574D02*
X395935000Y-184397574D01*
X390385000Y-185942112D02*
G75*
G03*
X395935000Y-187487404I2990000J-462D01*
G01*
X395935000Y-184397744D02*
G75*
G03*
X390385000Y-185943036I-2560000J-1544830D01*
G01*
X395875000Y-185942574D02*
G75*
G03*
X395875000Y-185942574I-2500000J0D01*
G01*
X333315000Y39579926D02*
X333315000Y42669926D01*
X327765000Y41125388D02*
G75*
G03*
X333315000Y39580096I2990000J-462D01*
G01*
X333315000Y42669756D02*
G75*
G03*
X327765000Y41124464I-2560000J-1544830D01*
G01*
X333255000Y41124926D02*
G75*
G03*
X333255000Y41124926I-2500000J0D01*
G01*
X462710000Y-130670074D02*
X463480000Y-130670074D01*
X463480000Y-132040074D02*
X470020000Y-132040074D01*
X463480000Y-129300074D02*
X463480000Y-132040074D01*
X470020000Y-132040074D02*
X470020000Y-129300074D01*
X470020000Y-129300074D02*
X463480000Y-129300074D01*
X470790000Y-130670074D02*
X470020000Y-130670074D01*
X459814960Y1954932D02*
X459814960Y5044932D01*
X459814960Y5044762D02*
G75*
G03*
X454264960Y3499470I-2560000J-1544830D01*
G01*
X454264960Y3500394D02*
G75*
G03*
X459814960Y1955102I2990000J-462D01*
G01*
X459754960Y3499932D02*
G75*
G03*
X459754960Y3499932I-2500000J0D01*
G01*
X451565000Y-139715074D02*
X451565000Y-136625074D01*
X446015000Y-138169612D02*
G75*
G03*
X451565000Y-139714904I2990000J-462D01*
G01*
X451565000Y-136625244D02*
G75*
G03*
X446015000Y-138170536I-2560000J-1544830D01*
G01*
X451505000Y-138170074D02*
G75*
G03*
X451505000Y-138170074I-2500000J0D01*
G01*
X409615000Y-207732574D02*
X409615000Y-206962574D01*
X410985000Y-200422574D02*
X408245000Y-200422574D01*
X409615000Y-199652574D02*
X409615000Y-200422574D01*
X410985000Y-206962574D02*
X410985000Y-200422574D01*
X408245000Y-206962574D02*
X410985000Y-206962574D01*
X408245000Y-200422574D02*
X408245000Y-206962574D01*
X403859960Y65704932D02*
X403859960Y68794932D01*
X398309960Y67250394D02*
G75*
G03*
X403859960Y65705102I2990000J-462D01*
G01*
X403859960Y68794762D02*
G75*
G03*
X398309960Y67249470I-2560000J-1544830D01*
G01*
X403799960Y67249932D02*
G75*
G03*
X403799960Y67249932I-2500000J0D01*
G01*
X459814960Y16954932D02*
X459814960Y20044932D01*
X459814960Y20044762D02*
G75*
G03*
X454264960Y18499470I-2560000J-1544830D01*
G01*
X454264960Y18500394D02*
G75*
G03*
X459814960Y16955102I2990000J-462D01*
G01*
X459754960Y18499932D02*
G75*
G03*
X459754960Y18499932I-2500000J0D01*
G01*
X333315000Y24579926D02*
X333315000Y27669926D01*
X333315000Y27669756D02*
G75*
G03*
X327765000Y26124464I-2560000J-1544830D01*
G01*
X327765000Y26125388D02*
G75*
G03*
X333315000Y24580096I2990000J-462D01*
G01*
X333255000Y26124926D02*
G75*
G03*
X333255000Y26124926I-2500000J0D01*
G01*
X378245000Y-200422574D02*
X378245000Y-206962574D01*
X379615000Y-199652574D02*
X379615000Y-200422574D01*
X380985000Y-200422574D02*
X378245000Y-200422574D01*
X380985000Y-206962574D02*
X380985000Y-200422574D01*
X379615000Y-207732574D02*
X379615000Y-206962574D01*
X378245000Y-206962574D02*
X380985000Y-206962574D01*
X333315000Y9579926D02*
X333315000Y12669926D01*
X333315000Y12669756D02*
G75*
G03*
X327765000Y11124464I-2560000J-1544830D01*
G01*
X327765000Y11125388D02*
G75*
G03*
X333315000Y9580096I2990000J-462D01*
G01*
X333255000Y11124926D02*
G75*
G03*
X333255000Y11124926I-2500000J0D01*
G01*
X333315000Y32079926D02*
X333315000Y35169926D01*
X327765000Y33625388D02*
G75*
G03*
X333315000Y32080096I2990000J-462D01*
G01*
X333315000Y35169756D02*
G75*
G03*
X327765000Y33624464I-2560000J-1544830D01*
G01*
X333255000Y33624926D02*
G75*
G03*
X333255000Y33624926I-2500000J0D01*
G01*
X373699960Y57704932D02*
X373699960Y60794932D01*
X373699960Y60794762D02*
G75*
G03*
X368149960Y59249470I-2560000J-1544830D01*
G01*
X368149960Y59250394D02*
G75*
G03*
X373699960Y57705102I2990000J-462D01*
G01*
X373639960Y59249932D02*
G75*
G03*
X373639960Y59249932I-2500000J0D01*
G01*
X459814960Y-28045068D02*
X459814960Y-24955068D01*
X459814960Y-24955238D02*
G75*
G03*
X454264960Y-26500530I-2560000J-1544830D01*
G01*
X454264960Y-26499606D02*
G75*
G03*
X459814960Y-28044898I2990000J-462D01*
G01*
X459754960Y-26500068D02*
G75*
G03*
X459754960Y-26500068I-2500000J0D01*
G01*
X333315000Y-27920074D02*
X333315000Y-24830074D01*
X333315000Y-24830244D02*
G75*
G03*
X327765000Y-26375536I-2560000J-1544830D01*
G01*
X327765000Y-26374612D02*
G75*
G03*
X333315000Y-27919904I2990000J-462D01*
G01*
X333255000Y-26375074D02*
G75*
G03*
X333255000Y-26375074I-2500000J0D01*
G01*
X380855000Y-187487574D02*
X380855000Y-184397574D01*
X375305000Y-185942112D02*
G75*
G03*
X380855000Y-187487404I2990000J-462D01*
G01*
X380855000Y-184397744D02*
G75*
G03*
X375305000Y-185943036I-2560000J-1544830D01*
G01*
X380795000Y-185942574D02*
G75*
G03*
X380795000Y-185942574I-2500000J0D01*
G01*
X385765000Y-144070000D02*
X385765000Y-146730000D01*
X403605000Y-146730000D02*
X385765000Y-146730000D01*
X403605000Y-144070000D02*
X385765000Y-144070000D01*
X404875000Y-144070000D02*
X406205000Y-144070000D01*
X403605000Y-144070000D02*
X403605000Y-146730000D01*
X406205000Y-144070000D02*
X406205000Y-145400000D01*
X325065040Y-124590080D02*
X325065040Y-121500080D01*
X325065040Y-121500250D02*
G75*
G03*
X319515040Y-123045542I-2560000J-1544830D01*
G01*
X319515040Y-123044618D02*
G75*
G03*
X325065040Y-124589910I2990000J-462D01*
G01*
X325005040Y-123045080D02*
G75*
G03*
X325005040Y-123045080I-2500000J0D01*
G01*
X379750000Y-73130074D02*
X379750000Y-73900074D01*
X379750000Y-81210074D02*
X379750000Y-80440074D01*
X381120000Y-80440074D02*
X381120000Y-73900074D01*
X378380000Y-73900074D02*
X378380000Y-80440074D01*
X378380000Y-80440074D02*
X381120000Y-80440074D01*
X381120000Y-73900074D02*
X378380000Y-73900074D01*
X373450000Y-60965074D02*
X373450000Y-57875074D01*
X367900000Y-59419612D02*
G75*
G03*
X373450000Y-60964904I2990000J-462D01*
G01*
X373450000Y-57875244D02*
G75*
G03*
X367900000Y-59420536I-2560000J-1544830D01*
G01*
X373390000Y-59420074D02*
G75*
G03*
X373390000Y-59420074I-2500000J0D01*
G01*
X400880000Y-73900074D02*
X400880000Y-80440074D01*
X402250000Y-73130074D02*
X402250000Y-73900074D01*
X402250000Y-81210074D02*
X402250000Y-80440074D01*
X403620000Y-73900074D02*
X400880000Y-73900074D01*
X403620000Y-80440074D02*
X403620000Y-73900074D01*
X400880000Y-80440074D02*
X403620000Y-80440074D01*
X426230000Y-68965074D02*
X426230000Y-65875074D01*
X426230000Y-65875244D02*
G75*
G03*
X420680000Y-67420536I-2560000J-1544830D01*
G01*
X420680000Y-67419612D02*
G75*
G03*
X426230000Y-68964904I2990000J-462D01*
G01*
X426170000Y-67420074D02*
G75*
G03*
X426170000Y-67420074I-2500000J0D01*
G01*
X325065040Y-109590080D02*
X325065040Y-106500080D01*
X325065040Y-106500250D02*
G75*
G03*
X319515040Y-108045542I-2560000J-1544830D01*
G01*
X319515040Y-108044618D02*
G75*
G03*
X325065040Y-109589910I2990000J-462D01*
G01*
X325005040Y-108045080D02*
G75*
G03*
X325005040Y-108045080I-2500000J0D01*
G01*
X455565000Y-71965074D02*
X455565000Y-68875074D01*
X455565000Y-68875244D02*
G75*
G03*
X450015000Y-70420536I-2560000J-1544830D01*
G01*
X450015000Y-70419612D02*
G75*
G03*
X455565000Y-71964904I2990000J-462D01*
G01*
X455505000Y-70420074D02*
G75*
G03*
X455505000Y-70420074I-2500000J0D01*
G01*
X459814960Y-20545068D02*
X459814960Y-17455068D01*
X454264960Y-18999606D02*
G75*
G03*
X459814960Y-20544898I2990000J-462D01*
G01*
X459814960Y-17455238D02*
G75*
G03*
X454264960Y-19000530I-2560000J-1544830D01*
G01*
X459754960Y-19000068D02*
G75*
G03*
X459754960Y-19000068I-2500000J0D01*
G01*
X403475000Y-187487574D02*
X403475000Y-184397574D01*
X397925000Y-185942112D02*
G75*
G03*
X403475000Y-187487404I2990000J-462D01*
G01*
X403475000Y-184397744D02*
G75*
G03*
X397925000Y-185943036I-2560000J-1544830D01*
G01*
X403415000Y-185942574D02*
G75*
G03*
X403415000Y-185942574I-2500000J0D01*
G01*
X396319960Y57704932D02*
X396319960Y60794932D01*
X390769960Y59250394D02*
G75*
G03*
X396319960Y57705102I2990000J-462D01*
G01*
X396319960Y60794762D02*
G75*
G03*
X390769960Y59249470I-2560000J-1544830D01*
G01*
X396259960Y59249932D02*
G75*
G03*
X396259960Y59249932I-2500000J0D01*
G01*
X333315000Y47079926D02*
X333315000Y50169926D01*
X333315000Y50169756D02*
G75*
G03*
X327765000Y48624464I-2560000J-1544830D01*
G01*
X327765000Y48625388D02*
G75*
G03*
X333315000Y47080096I2990000J-462D01*
G01*
X333255000Y48624926D02*
G75*
G03*
X333255000Y48624926I-2500000J0D01*
G01*
X403475000Y-195487574D02*
X403475000Y-192397574D01*
X397925000Y-193942112D02*
G75*
G03*
X403475000Y-195487404I2990000J-462D01*
G01*
X403475000Y-192397744D02*
G75*
G03*
X397925000Y-193943036I-2560000J-1544830D01*
G01*
X403415000Y-193942574D02*
G75*
G03*
X403415000Y-193942574I-2500000J0D01*
G01*
X437500000Y-81210074D02*
X437500000Y-80440074D01*
X438870000Y-80440074D02*
X438870000Y-73900074D01*
X437500000Y-73130074D02*
X437500000Y-73900074D01*
X438870000Y-73900074D02*
X436130000Y-73900074D01*
X436130000Y-80440074D02*
X438870000Y-80440074D01*
X436130000Y-73900074D02*
X436130000Y-80440074D01*
X459814960Y46954932D02*
X459814960Y50044932D01*
X459814960Y50044762D02*
G75*
G03*
X454264960Y48499470I-2560000J-1544830D01*
G01*
X454264960Y48500394D02*
G75*
G03*
X459814960Y46955102I2990000J-462D01*
G01*
X459754960Y48499932D02*
G75*
G03*
X459754960Y48499932I-2500000J0D01*
G01*
X325315000Y24579926D02*
X325315000Y27669926D01*
X325315000Y27669756D02*
G75*
G03*
X319765000Y26124464I-2560000J-1544830D01*
G01*
X319765000Y26125388D02*
G75*
G03*
X325315000Y24580096I2990000J-462D01*
G01*
X325255000Y26124926D02*
G75*
G03*
X325255000Y26124926I-2500000J0D01*
G01*
X358235000Y-187487574D02*
X358235000Y-184397574D01*
X358235000Y-184397744D02*
G75*
G03*
X352685000Y-185943036I-2560000J-1544830D01*
G01*
X352685000Y-185942112D02*
G75*
G03*
X358235000Y-187487404I2990000J-462D01*
G01*
X358175000Y-185942574D02*
G75*
G03*
X358175000Y-185942574I-2500000J0D01*
G01*
X337230000Y-12745074D02*
X343770000Y-12745074D01*
X344540000Y-11375074D02*
X343770000Y-11375074D01*
X336460000Y-11375074D02*
X337230000Y-11375074D01*
X343770000Y-10005074D02*
X337230000Y-10005074D01*
X337230000Y-10005074D02*
X337230000Y-12745074D01*
X343770000Y-12745074D02*
X343770000Y-10005074D01*
X459565000Y-109715074D02*
X459565000Y-106625074D01*
X459565000Y-106625244D02*
G75*
G03*
X454015000Y-108170536I-2560000J-1544830D01*
G01*
X454015000Y-108169612D02*
G75*
G03*
X459565000Y-109714904I2990000J-462D01*
G01*
X459505000Y-108170074D02*
G75*
G03*
X459505000Y-108170074I-2500000J0D01*
G01*
X337230000Y17254926D02*
X343770000Y17254926D01*
X344540000Y18624926D02*
X343770000Y18624926D01*
X337230000Y19994926D02*
X337230000Y17254926D01*
X343770000Y19994926D02*
X337230000Y19994926D01*
X336460000Y18624926D02*
X337230000Y18624926D01*
X343770000Y17254926D02*
X343770000Y19994926D01*
X335815000Y-64965074D02*
X335815000Y-61875074D01*
X330265000Y-63419612D02*
G75*
G03*
X335815000Y-64964904I2990000J-462D01*
G01*
X335815000Y-61875244D02*
G75*
G03*
X330265000Y-63420536I-2560000J-1544830D01*
G01*
X335755000Y-63420074D02*
G75*
G03*
X335755000Y-63420074I-2500000J0D01*
G01*
X411150000Y-68965074D02*
X411150000Y-65875074D01*
X411150000Y-65875244D02*
G75*
G03*
X405600000Y-67420536I-2560000J-1544830D01*
G01*
X405600000Y-67419612D02*
G75*
G03*
X411150000Y-68964904I2990000J-462D01*
G01*
X411090000Y-67420074D02*
G75*
G03*
X411090000Y-67420074I-2500000J0D01*
G01*
X459565000Y-162215074D02*
X459565000Y-159125074D01*
X459565000Y-159125244D02*
G75*
G03*
X454015000Y-160670536I-2560000J-1544830D01*
G01*
X454015000Y-160669612D02*
G75*
G03*
X459565000Y-162214904I2990000J-462D01*
G01*
X459505000Y-160670074D02*
G75*
G03*
X459505000Y-160670074I-2500000J0D01*
G01*
X463480000Y-151800074D02*
X463480000Y-154540074D01*
X463480000Y-154540074D02*
X470020000Y-154540074D01*
X470020000Y-154540074D02*
X470020000Y-151800074D01*
X462710000Y-153170074D02*
X463480000Y-153170074D01*
X470790000Y-153170074D02*
X470020000Y-153170074D01*
X470020000Y-151800074D02*
X463480000Y-151800074D01*
X434019960Y57704932D02*
X434019960Y60794932D01*
X434019960Y60794762D02*
G75*
G03*
X428469960Y59249470I-2560000J-1544830D01*
G01*
X428469960Y59250394D02*
G75*
G03*
X434019960Y57705102I2990000J-462D01*
G01*
X433959960Y59249932D02*
G75*
G03*
X433959960Y59249932I-2500000J0D01*
G01*
X337060040Y-91675080D02*
X337060040Y-94415080D01*
X344370040Y-93045080D02*
X343600040Y-93045080D01*
X343600040Y-94415080D02*
X343600040Y-91675080D01*
X337060040Y-94415080D02*
X343600040Y-94415080D01*
X336290040Y-93045080D02*
X337060040Y-93045080D01*
X343600040Y-91675080D02*
X337060040Y-91675080D01*
X403610000Y-68965074D02*
X403610000Y-65875074D01*
X403610000Y-65875244D02*
G75*
G03*
X398060000Y-67420536I-2560000J-1544830D01*
G01*
X398060000Y-67419612D02*
G75*
G03*
X403610000Y-68964904I2990000J-462D01*
G01*
X403550000Y-67420074D02*
G75*
G03*
X403550000Y-67420074I-2500000J0D01*
G01*
X459565000Y-79715074D02*
X459565000Y-76625074D01*
X459565000Y-76625244D02*
G75*
G03*
X454015000Y-78170536I-2560000J-1544830D01*
G01*
X454015000Y-78169612D02*
G75*
G03*
X459565000Y-79714904I2990000J-462D01*
G01*
X459505000Y-78170074D02*
G75*
G03*
X459505000Y-78170074I-2500000J0D01*
G01*
X358619960Y57704932D02*
X358619960Y60794932D01*
X358619960Y60794762D02*
G75*
G03*
X353069960Y59249470I-2560000J-1544830D01*
G01*
X353069960Y59250394D02*
G75*
G03*
X358619960Y57705102I2990000J-462D01*
G01*
X358559960Y59249932D02*
G75*
G03*
X358559960Y59249932I-2500000J0D01*
G01*
X343539960Y65704932D02*
X343539960Y68794932D01*
X343539960Y68794762D02*
G75*
G03*
X337989960Y67249470I-2560000J-1544830D01*
G01*
X337989960Y67250394D02*
G75*
G03*
X343539960Y65705102I2990000J-462D01*
G01*
X343479960Y67249932D02*
G75*
G03*
X343479960Y67249932I-2500000J0D01*
G01*
X446584000Y-104400000D02*
X438456000Y-104400000D01*
X459565000Y-169715074D02*
X459565000Y-166625074D01*
X454015000Y-168169612D02*
G75*
G03*
X459565000Y-169714904I2990000J-462D01*
G01*
X459565000Y-166625244D02*
G75*
G03*
X454015000Y-168170536I-2560000J-1544830D01*
G01*
X459505000Y-168170074D02*
G75*
G03*
X459505000Y-168170074I-2500000J0D01*
G01*
X459565000Y-132215074D02*
X459565000Y-129125074D01*
X454015000Y-130669612D02*
G75*
G03*
X459565000Y-132214904I2990000J-462D01*
G01*
X459565000Y-129125244D02*
G75*
G03*
X454015000Y-130670536I-2560000J-1544830D01*
G01*
X459505000Y-130670074D02*
G75*
G03*
X459505000Y-130670074I-2500000J0D01*
G01*
X350695000Y-187487574D02*
X350695000Y-184397574D01*
X350695000Y-184397744D02*
G75*
G03*
X345145000Y-185943036I-2560000J-1544830D01*
G01*
X345145000Y-185942112D02*
G75*
G03*
X350695000Y-187487404I2990000J-462D01*
G01*
X350635000Y-185942574D02*
G75*
G03*
X350635000Y-185942574I-2500000J0D01*
G01*
X403485000Y-206962574D02*
X403485000Y-200422574D01*
X400745000Y-200422574D02*
X400745000Y-206962574D01*
X402115000Y-199652574D02*
X402115000Y-200422574D01*
X400745000Y-206962574D02*
X403485000Y-206962574D01*
X402115000Y-207732574D02*
X402115000Y-206962574D01*
X403485000Y-200422574D02*
X400745000Y-200422574D01*
X336980040Y-114175080D02*
X336980040Y-116915080D01*
X336980040Y-116915080D02*
X343520040Y-116915080D01*
X343520040Y-114175080D02*
X336980040Y-114175080D01*
X343520040Y-116915080D02*
X343520040Y-114175080D01*
X344290040Y-115545080D02*
X343520040Y-115545080D01*
X336210040Y-115545080D02*
X336980040Y-115545080D01*
X418939960Y65704932D02*
X418939960Y68794932D01*
X413389960Y67250394D02*
G75*
G03*
X418939960Y65705102I2990000J-462D01*
G01*
X418939960Y68794762D02*
G75*
G03*
X413389960Y67249470I-2560000J-1544830D01*
G01*
X418879960Y67249932D02*
G75*
G03*
X418879960Y67249932I-2500000J0D01*
G01*
X388395000Y-187487574D02*
X388395000Y-184397574D01*
X382845000Y-185942112D02*
G75*
G03*
X388395000Y-187487404I2990000J-462D01*
G01*
X388395000Y-184397744D02*
G75*
G03*
X382845000Y-185943036I-2560000J-1544830D01*
G01*
X388335000Y-185942574D02*
G75*
G03*
X388335000Y-185942574I-2500000J0D01*
G01*
X333065040Y-162090080D02*
X333065040Y-159000080D01*
X327515040Y-160544618D02*
G75*
G03*
X333065040Y-162089910I2990000J-462D01*
G01*
X333065040Y-159000250D02*
G75*
G03*
X327515040Y-160545542I-2560000J-1544830D01*
G01*
X333005040Y-160545080D02*
G75*
G03*
X333005040Y-160545080I-2500000J0D01*
G01*
X459814960Y-50545068D02*
X459814960Y-47455068D01*
X459814960Y-47455238D02*
G75*
G03*
X454264960Y-49000530I-2560000J-1544830D01*
G01*
X454264960Y-48999606D02*
G75*
G03*
X459814960Y-50544898I2990000J-462D01*
G01*
X459754960Y-49000068D02*
G75*
G03*
X459754960Y-49000068I-2500000J0D01*
G01*
X427400000Y-61584000D02*
X427400000Y-53456000D01*
X336210040Y-175545080D02*
X336980040Y-175545080D01*
X343520040Y-174175080D02*
X336980040Y-174175080D01*
X336980040Y-176915080D02*
X343520040Y-176915080D01*
X344290040Y-175545080D02*
X343520040Y-175545080D01*
X343520040Y-176915080D02*
X343520040Y-174175080D01*
X336980040Y-174175080D02*
X336980040Y-176915080D01*
X333315000Y-5420074D02*
X333315000Y-2330074D01*
X333315000Y-2330244D02*
G75*
G03*
X327765000Y-3875536I-2560000J-1544830D01*
G01*
X327765000Y-3874612D02*
G75*
G03*
X333315000Y-5419904I2990000J-462D01*
G01*
X333255000Y-3875074D02*
G75*
G03*
X333255000Y-3875074I-2500000J0D01*
G01*
X325065040Y-154590080D02*
X325065040Y-151500080D01*
X319515040Y-153044618D02*
G75*
G03*
X325065040Y-154589910I2990000J-462D01*
G01*
X325065040Y-151500250D02*
G75*
G03*
X319515040Y-153045542I-2560000J-1544830D01*
G01*
X325005040Y-153045080D02*
G75*
G03*
X325005040Y-153045080I-2500000J0D01*
G01*
X388779960Y65704932D02*
X388779960Y68794932D01*
X383229960Y67250394D02*
G75*
G03*
X388779960Y65705102I2990000J-462D01*
G01*
X388779960Y68794762D02*
G75*
G03*
X383229960Y67249470I-2560000J-1544830D01*
G01*
X388719960Y67249932D02*
G75*
G03*
X388719960Y67249932I-2500000J0D01*
G01*
X325065040Y-169590080D02*
X325065040Y-166500080D01*
X319515040Y-168044618D02*
G75*
G03*
X325065040Y-169589910I2990000J-462D01*
G01*
X325065040Y-166500250D02*
G75*
G03*
X319515040Y-168045542I-2560000J-1544830D01*
G01*
X325005040Y-168045080D02*
G75*
G03*
X325005040Y-168045080I-2500000J0D01*
G01*
X365910000Y-60965074D02*
X365910000Y-57875074D01*
X360360000Y-59419612D02*
G75*
G03*
X365910000Y-60964904I2990000J-462D01*
G01*
X365910000Y-57875244D02*
G75*
G03*
X360360000Y-59420536I-2560000J-1544830D01*
G01*
X365850000Y-59420074D02*
G75*
G03*
X365850000Y-59420074I-2500000J0D01*
G01*
X343770000Y-5245074D02*
X343770000Y-2505074D01*
X336460000Y-3875074D02*
X337230000Y-3875074D01*
X337230000Y-5245074D02*
X343770000Y-5245074D01*
X343770000Y-2505074D02*
X337230000Y-2505074D01*
X344540000Y-3875074D02*
X343770000Y-3875074D01*
X337230000Y-2505074D02*
X337230000Y-5245074D01*
X367000000Y-87214000D02*
X367000000Y-79086000D01*
X333065040Y-169590080D02*
X333065040Y-166500080D01*
X327515040Y-168044618D02*
G75*
G03*
X333065040Y-169589910I2990000J-462D01*
G01*
X333065040Y-166500250D02*
G75*
G03*
X327515040Y-168045542I-2560000J-1544830D01*
G01*
X333005040Y-168045080D02*
G75*
G03*
X333005040Y-168045080I-2500000J0D01*
G01*
X451814960Y-5545068D02*
X451814960Y-2455068D01*
X446264960Y-3999606D02*
G75*
G03*
X451814960Y-5544898I2990000J-462D01*
G01*
X451814960Y-2455238D02*
G75*
G03*
X446264960Y-4000530I-2560000J-1544830D01*
G01*
X451754960Y-4000068D02*
G75*
G03*
X451754960Y-4000068I-2500000J0D01*
G01*
X434019960Y65704932D02*
X434019960Y68794932D01*
X428469960Y67250394D02*
G75*
G03*
X434019960Y65705102I2990000J-462D01*
G01*
X434019960Y68794762D02*
G75*
G03*
X428469960Y67249470I-2560000J-1544830D01*
G01*
X433959960Y67249932D02*
G75*
G03*
X433959960Y67249932I-2500000J0D01*
G01*
X325315000Y32079926D02*
X325315000Y35169926D01*
X319765000Y33625388D02*
G75*
G03*
X325315000Y32080096I2990000J-462D01*
G01*
X325315000Y35169756D02*
G75*
G03*
X319765000Y33624464I-2560000J-1544830D01*
G01*
X325255000Y33624926D02*
G75*
G03*
X325255000Y33624926I-2500000J0D01*
G01*
X337230000Y-35245074D02*
X343770000Y-35245074D01*
X343770000Y-35245074D02*
X343770000Y-32505074D01*
X344540000Y-33875074D02*
X343770000Y-33875074D01*
X337230000Y-32505074D02*
X337230000Y-35245074D01*
X336460000Y-33875074D02*
X337230000Y-33875074D01*
X343770000Y-32505074D02*
X337230000Y-32505074D01*
X430995000Y-206962574D02*
X433735000Y-206962574D01*
X433735000Y-206962574D02*
X433735000Y-200422574D01*
X430995000Y-200422574D02*
X430995000Y-206962574D01*
X432365000Y-199652574D02*
X432365000Y-200422574D01*
X432365000Y-207732574D02*
X432365000Y-206962574D01*
X433735000Y-200422574D02*
X430995000Y-200422574D01*
X325065040Y-87090080D02*
X325065040Y-84000080D01*
X319515040Y-85544618D02*
G75*
G03*
X325065040Y-87089910I2990000J-462D01*
G01*
X325065040Y-84000250D02*
G75*
G03*
X319515040Y-85545542I-2560000J-1544830D01*
G01*
X325005040Y-85545080D02*
G75*
G03*
X325005040Y-85545080I-2500000J0D01*
G01*
X451565000Y-169715074D02*
X451565000Y-166625074D01*
X446015000Y-168169612D02*
G75*
G03*
X451565000Y-169714904I2990000J-462D01*
G01*
X451565000Y-166625244D02*
G75*
G03*
X446015000Y-168170536I-2560000J-1544830D01*
G01*
X451505000Y-168170074D02*
G75*
G03*
X451505000Y-168170074I-2500000J0D01*
G01*
X350599960Y52129932D02*
X350599960Y54869932D01*
X351369960Y53499932D02*
X350599960Y53499932D01*
X350599960Y54869932D02*
X344059960Y54869932D01*
X343289960Y53499932D02*
X344059960Y53499932D01*
X344059960Y54869932D02*
X344059960Y52129932D01*
X344059960Y52129932D02*
X350599960Y52129932D01*
X344290040Y-160545080D02*
X343520040Y-160545080D01*
X336980040Y-159175080D02*
X336980040Y-161915080D01*
X343520040Y-161915080D02*
X343520040Y-159175080D01*
X343520040Y-159175080D02*
X336980040Y-159175080D01*
X336210040Y-160545080D02*
X336980040Y-160545080D01*
X336980040Y-161915080D02*
X343520040Y-161915080D01*
X344540000Y11124926D02*
X343770000Y11124926D01*
X343770000Y9754926D02*
X343770000Y12494926D01*
X337230000Y9754926D02*
X343770000Y9754926D01*
X337230000Y12494926D02*
X337230000Y9754926D01*
X343770000Y12494926D02*
X337230000Y12494926D01*
X336460000Y11124926D02*
X337230000Y11124926D01*
X333065040Y-154590080D02*
X333065040Y-151500080D01*
X333065040Y-151500250D02*
G75*
G03*
X327515040Y-153045542I-2560000J-1544830D01*
G01*
X327515040Y-153044618D02*
G75*
G03*
X333065040Y-154589910I2990000J-462D01*
G01*
X333005040Y-153045080D02*
G75*
G03*
X333005040Y-153045080I-2500000J0D01*
G01*
X448695000Y-191737574D02*
X448695000Y-188647574D01*
X443145000Y-190192112D02*
G75*
G03*
X448695000Y-191737404I2990000J-462D01*
G01*
X448695000Y-188647744D02*
G75*
G03*
X443145000Y-190193036I-2560000J-1544830D01*
G01*
X448635000Y-190192574D02*
G75*
G03*
X448635000Y-190192574I-2500000J0D01*
G01*
X325065040Y-94590080D02*
X325065040Y-91500080D01*
X325065040Y-91500250D02*
G75*
G03*
X319515040Y-93045542I-2560000J-1544830D01*
G01*
X319515040Y-93044618D02*
G75*
G03*
X325065040Y-94589910I2990000J-462D01*
G01*
X325005040Y-93045080D02*
G75*
G03*
X325005040Y-93045080I-2500000J0D01*
G01*
X351079960Y65704932D02*
X351079960Y68794932D01*
X351079960Y68794762D02*
G75*
G03*
X345529960Y67249470I-2560000J-1544830D01*
G01*
X345529960Y67250394D02*
G75*
G03*
X351079960Y65705102I2990000J-462D01*
G01*
X351019960Y67249932D02*
G75*
G03*
X351019960Y67249932I-2500000J0D01*
G01*
X418690000Y-60965074D02*
X418690000Y-57875074D01*
X413140000Y-59419612D02*
G75*
G03*
X418690000Y-60964904I2990000J-462D01*
G01*
X418690000Y-57875244D02*
G75*
G03*
X413140000Y-59420536I-2560000J-1544830D01*
G01*
X418630000Y-59420074D02*
G75*
G03*
X418630000Y-59420074I-2500000J0D01*
G01*
X451814960Y31954932D02*
X451814960Y35044932D01*
X451814960Y35044762D02*
G75*
G03*
X446264960Y33499470I-2560000J-1544830D01*
G01*
X446264960Y33500394D02*
G75*
G03*
X451814960Y31955102I2990000J-462D01*
G01*
X451754960Y33499932D02*
G75*
G03*
X451754960Y33499932I-2500000J0D01*
G01*
X439119960Y52769932D02*
X436379960Y52769932D01*
X439119960Y46229932D02*
X439119960Y52769932D01*
X436379960Y52769932D02*
X436379960Y46229932D01*
X436379960Y46229932D02*
X439119960Y46229932D01*
X437749960Y53539932D02*
X437749960Y52769932D01*
X437749960Y45459932D02*
X437749960Y46229932D01*
X325315000Y47079926D02*
X325315000Y50169926D01*
X325315000Y50169756D02*
G75*
G03*
X319765000Y48624464I-2560000J-1544830D01*
G01*
X319765000Y48625388D02*
G75*
G03*
X325315000Y47080096I2990000J-462D01*
G01*
X325255000Y48624926D02*
G75*
G03*
X325255000Y48624926I-2500000J0D01*
G01*
X380855000Y-195487574D02*
X380855000Y-192397574D01*
X375305000Y-193942112D02*
G75*
G03*
X380855000Y-195487404I2990000J-462D01*
G01*
X380855000Y-192397744D02*
G75*
G03*
X375305000Y-193943036I-2560000J-1544830D01*
G01*
X380795000Y-193942574D02*
G75*
G03*
X380795000Y-193942574I-2500000J0D01*
G01*
X451814960Y9454932D02*
X451814960Y12544932D01*
X451814960Y12544762D02*
G75*
G03*
X446264960Y10999470I-2560000J-1544830D01*
G01*
X446264960Y11000394D02*
G75*
G03*
X451814960Y9455102I2990000J-462D01*
G01*
X451754960Y10999932D02*
G75*
G03*
X451754960Y10999932I-2500000J0D01*
G01*
X459565000Y-124715074D02*
X459565000Y-121625074D01*
X459565000Y-121625244D02*
G75*
G03*
X454015000Y-123170536I-2560000J-1544830D01*
G01*
X454015000Y-123169612D02*
G75*
G03*
X459565000Y-124714904I2990000J-462D01*
G01*
X459505000Y-123170074D02*
G75*
G03*
X459505000Y-123170074I-2500000J0D01*
G01*
X343770000Y47254926D02*
X343770000Y49994926D01*
X337230000Y49994926D02*
X337230000Y47254926D01*
X337230000Y47254926D02*
X343770000Y47254926D01*
X336460000Y48624926D02*
X337230000Y48624926D01*
X343770000Y49994926D02*
X337230000Y49994926D01*
X344540000Y48624926D02*
X343770000Y48624926D01*
X418555000Y-187487574D02*
X418555000Y-184397574D01*
X418555000Y-184397744D02*
G75*
G03*
X413005000Y-185943036I-2560000J-1544830D01*
G01*
X413005000Y-185942112D02*
G75*
G03*
X418555000Y-187487404I2990000J-462D01*
G01*
X418495000Y-185942574D02*
G75*
G03*
X418495000Y-185942574I-2500000J0D01*
G01*
X463809960Y32129932D02*
X470349960Y32129932D01*
X471119960Y33499932D02*
X470349960Y33499932D01*
X470349960Y34869932D02*
X463809960Y34869932D01*
X463809960Y34869932D02*
X463809960Y32129932D01*
X463039960Y33499932D02*
X463809960Y33499932D01*
X470349960Y32129932D02*
X470349960Y34869932D01*
X357000000Y-81210074D02*
X357000000Y-80440074D01*
X355630000Y-80440074D02*
X358370000Y-80440074D01*
X358370000Y-80440074D02*
X358370000Y-73900074D01*
X358370000Y-73900074D02*
X355630000Y-73900074D01*
X355630000Y-73900074D02*
X355630000Y-80440074D01*
X357000000Y-73130074D02*
X357000000Y-73900074D01*
X459814960Y-13045068D02*
X459814960Y-9955068D01*
X454264960Y-11499606D02*
G75*
G03*
X459814960Y-13044898I2990000J-462D01*
G01*
X459814960Y-9955238D02*
G75*
G03*
X454264960Y-11500530I-2560000J-1544830D01*
G01*
X459754960Y-11500068D02*
G75*
G03*
X459754960Y-11500068I-2500000J0D01*
G01*
X325315000Y9579926D02*
X325315000Y12669926D01*
X325315000Y12669756D02*
G75*
G03*
X319765000Y11124464I-2560000J-1544830D01*
G01*
X319765000Y11125388D02*
G75*
G03*
X325315000Y9580096I2990000J-462D01*
G01*
X325255000Y11124926D02*
G75*
G03*
X325255000Y11124926I-2500000J0D01*
G01*
X358370000Y-68965074D02*
X358370000Y-65875074D01*
X352820000Y-67419612D02*
G75*
G03*
X358370000Y-68964904I2990000J-462D01*
G01*
X358370000Y-65875244D02*
G75*
G03*
X352820000Y-67420536I-2560000J-1544830D01*
G01*
X358310000Y-67420074D02*
G75*
G03*
X358310000Y-67420074I-2500000J0D01*
G01*
X451565000Y-177215074D02*
X451565000Y-174125074D01*
X451565000Y-174125244D02*
G75*
G03*
X446015000Y-175670536I-2560000J-1544830D01*
G01*
X446015000Y-175669612D02*
G75*
G03*
X451565000Y-177214904I2990000J-462D01*
G01*
X451505000Y-175670074D02*
G75*
G03*
X451505000Y-175670074I-2500000J0D01*
G01*
X325065040Y-139590080D02*
X325065040Y-136500080D01*
X319515040Y-138044618D02*
G75*
G03*
X325065040Y-139589910I2990000J-462D01*
G01*
X325065040Y-136500250D02*
G75*
G03*
X319515040Y-138045542I-2560000J-1544830D01*
G01*
X325005040Y-138045080D02*
G75*
G03*
X325005040Y-138045080I-2500000J0D01*
G01*
X358619960Y65704932D02*
X358619960Y68794932D01*
X353069960Y67250394D02*
G75*
G03*
X358619960Y65705102I2990000J-462D01*
G01*
X358619960Y68794762D02*
G75*
G03*
X353069960Y67249470I-2560000J-1544830D01*
G01*
X358559960Y67249932D02*
G75*
G03*
X358559960Y67249932I-2500000J0D01*
G01*
X459565000Y-154715074D02*
X459565000Y-151625074D01*
X459565000Y-151625244D02*
G75*
G03*
X454015000Y-153170536I-2560000J-1544830D01*
G01*
X454015000Y-153169612D02*
G75*
G03*
X459565000Y-154714904I2990000J-462D01*
G01*
X459505000Y-153170074D02*
G75*
G03*
X459505000Y-153170074I-2500000J0D01*
G01*
X350695000Y-195487574D02*
X350695000Y-192397574D01*
X345145000Y-193942112D02*
G75*
G03*
X350695000Y-195487404I2990000J-462D01*
G01*
X350695000Y-192397744D02*
G75*
G03*
X345145000Y-193943036I-2560000J-1544830D01*
G01*
X350635000Y-193942574D02*
G75*
G03*
X350635000Y-193942574I-2500000J0D01*
G01*
X463480000Y-162040074D02*
X470020000Y-162040074D01*
X462710000Y-160670074D02*
X463480000Y-160670074D01*
X470020000Y-162040074D02*
X470020000Y-159300074D01*
X463480000Y-159300074D02*
X463480000Y-162040074D01*
X470790000Y-160670074D02*
X470020000Y-160670074D01*
X470020000Y-159300074D02*
X463480000Y-159300074D01*
X451565000Y-117215074D02*
X451565000Y-114125074D01*
X446015000Y-115669612D02*
G75*
G03*
X451565000Y-117214904I2990000J-462D01*
G01*
X451565000Y-114125244D02*
G75*
G03*
X446015000Y-115670536I-2560000J-1544830D01*
G01*
X451505000Y-115670074D02*
G75*
G03*
X451505000Y-115670074I-2500000J0D01*
G01*
X333315000Y-12920074D02*
X333315000Y-9830074D01*
X327765000Y-11374612D02*
G75*
G03*
X333315000Y-12919904I2990000J-462D01*
G01*
X333315000Y-9830244D02*
G75*
G03*
X327765000Y-11375536I-2560000J-1544830D01*
G01*
X333255000Y-11375074D02*
G75*
G03*
X333255000Y-11375074I-2500000J0D01*
G01*
X333065040Y-109590080D02*
X333065040Y-106500080D01*
X327515040Y-108044618D02*
G75*
G03*
X333065040Y-109589910I2990000J-462D01*
G01*
X333065040Y-106500250D02*
G75*
G03*
X327515040Y-108045542I-2560000J-1544830D01*
G01*
X333005040Y-108045080D02*
G75*
G03*
X333005040Y-108045080I-2500000J0D01*
G01*
X351079960Y57704932D02*
X351079960Y60794932D01*
X345529960Y59250394D02*
G75*
G03*
X351079960Y57705102I2990000J-462D01*
G01*
X351079960Y60794762D02*
G75*
G03*
X345529960Y59249470I-2560000J-1544830D01*
G01*
X351019960Y59249932D02*
G75*
G03*
X351019960Y59249932I-2500000J0D01*
G01*
X325315000Y-50420074D02*
X325315000Y-47330074D01*
X325315000Y-47330244D02*
G75*
G03*
X319765000Y-48875536I-2560000J-1544830D01*
G01*
X319765000Y-48874612D02*
G75*
G03*
X325315000Y-50419904I2990000J-462D01*
G01*
X325255000Y-48875074D02*
G75*
G03*
X325255000Y-48875074I-2500000J0D01*
G01*
X329065040Y-71840080D02*
X329065040Y-68750080D01*
X329065040Y-68750250D02*
G75*
G03*
X323515040Y-70295542I-2560000J-1544830D01*
G01*
X323515040Y-70294618D02*
G75*
G03*
X329065040Y-71839910I2990000J-462D01*
G01*
X329005040Y-70295080D02*
G75*
G03*
X329005040Y-70295080I-2500000J0D01*
G01*
X350830000Y-68965074D02*
X350830000Y-65875074D01*
X350830000Y-65875244D02*
G75*
G03*
X345280000Y-67420536I-2560000J-1544830D01*
G01*
X345280000Y-67419612D02*
G75*
G03*
X350830000Y-68964904I2990000J-462D01*
G01*
X350770000Y-67420074D02*
G75*
G03*
X350770000Y-67420074I-2500000J0D01*
G01*
X463480000Y-177040074D02*
X470020000Y-177040074D01*
X462710000Y-175670074D02*
X463480000Y-175670074D01*
X470020000Y-174300074D02*
X463480000Y-174300074D01*
X470790000Y-175670074D02*
X470020000Y-175670074D01*
X463480000Y-174300074D02*
X463480000Y-177040074D01*
X470020000Y-177040074D02*
X470020000Y-174300074D01*
X364749960Y53539932D02*
X364749960Y52769932D01*
X364749960Y45459932D02*
X364749960Y46229932D01*
X363379960Y52769932D02*
X363379960Y46229932D01*
X363379960Y46229932D02*
X366119960Y46229932D01*
X366119960Y46229932D02*
X366119960Y52769932D01*
X366119960Y52769932D02*
X363379960Y52769932D01*
X343180000Y-195487574D02*
X343180000Y-192397574D01*
X343180000Y-192397744D02*
G75*
G03*
X337630000Y-193943036I-2560000J-1544830D01*
G01*
X337630000Y-193942112D02*
G75*
G03*
X343180000Y-195487404I2990000J-462D01*
G01*
X343120000Y-193942574D02*
G75*
G03*
X343120000Y-193942574I-2500000J0D01*
G01*
X451814960Y-50545068D02*
X451814960Y-47455068D01*
X446264960Y-48999606D02*
G75*
G03*
X451814960Y-50544898I2990000J-462D01*
G01*
X451814960Y-47455238D02*
G75*
G03*
X446264960Y-49000530I-2560000J-1544830D01*
G01*
X451754960Y-49000068D02*
G75*
G03*
X451754960Y-49000068I-2500000J0D01*
G01*
X455565000Y-184965074D02*
X455565000Y-181875074D01*
X450015000Y-183419612D02*
G75*
G03*
X455565000Y-184964904I2990000J-462D01*
G01*
X455565000Y-181875244D02*
G75*
G03*
X450015000Y-183420536I-2560000J-1544830D01*
G01*
X455505000Y-183420074D02*
G75*
G03*
X455505000Y-183420074I-2500000J0D01*
G01*
X441559960Y65704932D02*
X441559960Y68794932D01*
X436009960Y67250394D02*
G75*
G03*
X441559960Y65705102I2990000J-462D01*
G01*
X441559960Y68794762D02*
G75*
G03*
X436009960Y67249470I-2560000J-1544830D01*
G01*
X441499960Y67249932D02*
G75*
G03*
X441499960Y67249932I-2500000J0D01*
G01*
X344290040Y-153045080D02*
X343520040Y-153045080D01*
X336980040Y-151675080D02*
X336980040Y-154415080D01*
X336980040Y-154415080D02*
X343520040Y-154415080D01*
X343520040Y-151675080D02*
X336980040Y-151675080D01*
X343520040Y-154415080D02*
X343520040Y-151675080D01*
X336210040Y-153045080D02*
X336980040Y-153045080D01*
X329315000Y-58170074D02*
X329315000Y-55080074D01*
X323765000Y-56624612D02*
G75*
G03*
X329315000Y-58169904I2990000J-462D01*
G01*
X329315000Y-55080244D02*
G75*
G03*
X323765000Y-56625536I-2560000J-1544830D01*
G01*
X329255000Y-56625074D02*
G75*
G03*
X329255000Y-56625074I-2500000J0D01*
G01*
X459814960Y9454932D02*
X459814960Y12544932D01*
X459814960Y12544762D02*
G75*
G03*
X454264960Y10999470I-2560000J-1544830D01*
G01*
X454264960Y11000394D02*
G75*
G03*
X459814960Y9455102I2990000J-462D01*
G01*
X459754960Y10999932D02*
G75*
G03*
X459754960Y10999932I-2500000J0D01*
G01*
X336064960Y61704932D02*
X336064960Y64794932D01*
X336064960Y64794762D02*
G75*
G03*
X330514960Y63249470I-2560000J-1544830D01*
G01*
X330514960Y63250394D02*
G75*
G03*
X336064960Y61705102I2990000J-462D01*
G01*
X336004960Y63249932D02*
G75*
G03*
X336004960Y63249932I-2500000J0D01*
G01*
X366159960Y57704932D02*
X366159960Y60794932D01*
X360609960Y59250394D02*
G75*
G03*
X366159960Y57705102I2990000J-462D01*
G01*
X366159960Y60794762D02*
G75*
G03*
X360609960Y59249470I-2560000J-1544830D01*
G01*
X366099960Y59249932D02*
G75*
G03*
X366099960Y59249932I-2500000J0D01*
G01*
X459565000Y-147215074D02*
X459565000Y-144125074D01*
X454015000Y-145669612D02*
G75*
G03*
X459565000Y-147214904I2990000J-462D01*
G01*
X459565000Y-144125244D02*
G75*
G03*
X454015000Y-145670536I-2560000J-1544830D01*
G01*
X459505000Y-145670074D02*
G75*
G03*
X459505000Y-145670074I-2500000J0D01*
G01*
X411015000Y-195487574D02*
X411015000Y-192397574D01*
X411015000Y-192397744D02*
G75*
G03*
X405465000Y-193943036I-2560000J-1544830D01*
G01*
X405465000Y-193942112D02*
G75*
G03*
X411015000Y-195487404I2990000J-462D01*
G01*
X410955000Y-193942574D02*
G75*
G03*
X410955000Y-193942574I-2500000J0D01*
G01*
X325065040Y-79590080D02*
X325065040Y-76500080D01*
X325065040Y-76500250D02*
G75*
G03*
X319515040Y-78045542I-2560000J-1544830D01*
G01*
X319515040Y-78044618D02*
G75*
G03*
X325065040Y-79589910I2990000J-462D01*
G01*
X325005040Y-78045080D02*
G75*
G03*
X325005040Y-78045080I-2500000J0D01*
G01*
X337230000Y-25005074D02*
X337230000Y-27745074D01*
X337230000Y-27745074D02*
X343770000Y-27745074D01*
X343770000Y-27745074D02*
X343770000Y-25005074D01*
X336460000Y-26375074D02*
X337230000Y-26375074D01*
X343770000Y-25005074D02*
X337230000Y-25005074D01*
X344540000Y-26375074D02*
X343770000Y-26375074D01*
X325315000Y-20420074D02*
X325315000Y-17330074D01*
X319765000Y-18874612D02*
G75*
G03*
X325315000Y-20419904I2990000J-462D01*
G01*
X325315000Y-17330244D02*
G75*
G03*
X319765000Y-18875536I-2560000J-1544830D01*
G01*
X325255000Y-18875074D02*
G75*
G03*
X325255000Y-18875074I-2500000J0D01*
G01*
X423879960Y46229932D02*
X426619960Y46229932D01*
X425249960Y53539932D02*
X425249960Y52769932D01*
X423879960Y52769932D02*
X423879960Y46229932D01*
X426619960Y46229932D02*
X426619960Y52769932D01*
X426619960Y52769932D02*
X423879960Y52769932D01*
X425249960Y45459932D02*
X425249960Y46229932D01*
X325315000Y-35420074D02*
X325315000Y-32330074D01*
X325315000Y-32330244D02*
G75*
G03*
X319765000Y-33875536I-2560000J-1544830D01*
G01*
X319765000Y-33874612D02*
G75*
G03*
X325315000Y-35419904I2990000J-462D01*
G01*
X325255000Y-33875074D02*
G75*
G03*
X325255000Y-33875074I-2500000J0D01*
G01*
X343564960Y57704932D02*
X343564960Y60794932D01*
X338014960Y59250394D02*
G75*
G03*
X343564960Y57705102I2990000J-462D01*
G01*
X343564960Y60794762D02*
G75*
G03*
X338014960Y59249470I-2560000J-1544830D01*
G01*
X343504960Y59249932D02*
G75*
G03*
X343504960Y59249932I-2500000J0D01*
G01*
X336980040Y-139415080D02*
X343520040Y-139415080D01*
X336210040Y-138045080D02*
X336980040Y-138045080D01*
X343520040Y-136675080D02*
X336980040Y-136675080D01*
X336980040Y-136675080D02*
X336980040Y-139415080D01*
X344290040Y-138045080D02*
X343520040Y-138045080D01*
X343520040Y-139415080D02*
X343520040Y-136675080D01*
X335680000Y-191487574D02*
X335680000Y-188397574D01*
X335680000Y-188397744D02*
G75*
G03*
X330130000Y-189943036I-2560000J-1544830D01*
G01*
X330130000Y-189942112D02*
G75*
G03*
X335680000Y-191487404I2990000J-462D01*
G01*
X335620000Y-189942574D02*
G75*
G03*
X335620000Y-189942574I-2500000J0D01*
G01*
X343290000Y-60965074D02*
X343290000Y-57875074D01*
X337740000Y-59419612D02*
G75*
G03*
X343290000Y-60964904I2990000J-462D01*
G01*
X343290000Y-57875244D02*
G75*
G03*
X337740000Y-59420536I-2560000J-1544830D01*
G01*
X343230000Y-59420074D02*
G75*
G03*
X343230000Y-59420074I-2500000J0D01*
G01*
X432749960Y45459932D02*
X432749960Y46229932D01*
X431379960Y46229932D02*
X434119960Y46229932D01*
X431379960Y52769932D02*
X431379960Y46229932D01*
X434119960Y52769932D02*
X431379960Y52769932D01*
X432749960Y53539932D02*
X432749960Y52769932D01*
X434119960Y46229932D02*
X434119960Y52769932D01*
X402499960Y53539932D02*
X402499960Y52769932D01*
X403869960Y46229932D02*
X403869960Y52769932D01*
X402499960Y45459932D02*
X402499960Y46229932D01*
X401129960Y52769932D02*
X401129960Y46229932D01*
X401129960Y46229932D02*
X403869960Y46229932D01*
X403869960Y52769932D02*
X401129960Y52769932D01*
X462710000Y-85670074D02*
X463480000Y-85670074D01*
X470790000Y-85670074D02*
X470020000Y-85670074D01*
X463480000Y-87040074D02*
X470020000Y-87040074D01*
X470020000Y-84300074D02*
X463480000Y-84300074D01*
X463480000Y-84300074D02*
X463480000Y-87040074D01*
X470020000Y-87040074D02*
X470020000Y-84300074D01*
X351120000Y-73170074D02*
X350350000Y-73170074D01*
X343810000Y-71800074D02*
X343810000Y-74540074D01*
X343040000Y-73170074D02*
X343810000Y-73170074D01*
X343810000Y-74540074D02*
X350350000Y-74540074D01*
X350350000Y-74540074D02*
X350350000Y-71800074D01*
X350350000Y-71800074D02*
X343810000Y-71800074D01*
X365775000Y-187487574D02*
X365775000Y-184397574D01*
X365775000Y-184397744D02*
G75*
G03*
X360225000Y-185943036I-2560000J-1544830D01*
G01*
X360225000Y-185942112D02*
G75*
G03*
X365775000Y-187487404I2990000J-462D01*
G01*
X365715000Y-185942574D02*
G75*
G03*
X365715000Y-185942574I-2500000J0D01*
G01*
X411120000Y-73900074D02*
X408380000Y-73900074D01*
X408380000Y-73900074D02*
X408380000Y-80440074D01*
X409750000Y-73130074D02*
X409750000Y-73900074D01*
X408380000Y-80440074D02*
X411120000Y-80440074D01*
X411120000Y-80440074D02*
X411120000Y-73900074D01*
X409750000Y-81210074D02*
X409750000Y-80440074D01*
X432500000Y-81210074D02*
X432500000Y-80440074D01*
X433870000Y-80440074D02*
X433870000Y-73900074D01*
X431130000Y-73900074D02*
X431130000Y-80440074D01*
X431130000Y-80440074D02*
X433870000Y-80440074D01*
X432500000Y-73130074D02*
X432500000Y-73900074D01*
X433870000Y-73900074D02*
X431130000Y-73900074D01*
X325065040Y-147090080D02*
X325065040Y-144000080D01*
X325065040Y-144000250D02*
G75*
G03*
X319515040Y-145545542I-2560000J-1544830D01*
G01*
X319515040Y-145544618D02*
G75*
G03*
X325065040Y-147089910I2990000J-462D01*
G01*
X325005040Y-145545080D02*
G75*
G03*
X325005040Y-145545080I-2500000J0D01*
G01*
X470269960Y12369932D02*
X463729960Y12369932D01*
X463729960Y12369932D02*
X463729960Y9629932D01*
X462959960Y10999932D02*
X463729960Y10999932D01*
X471039960Y10999932D02*
X470269960Y10999932D01*
X470269960Y9629932D02*
X470269960Y12369932D01*
X463729960Y9629932D02*
X470269960Y9629932D01*
X365910000Y-68965074D02*
X365910000Y-65875074D01*
X365910000Y-65875244D02*
G75*
G03*
X360360000Y-67420536I-2560000J-1544830D01*
G01*
X360360000Y-67419612D02*
G75*
G03*
X365910000Y-68964904I2990000J-462D01*
G01*
X365850000Y-67420074D02*
G75*
G03*
X365850000Y-67420074I-2500000J0D01*
G01*
X451565000Y-132215074D02*
X451565000Y-129125074D01*
X451565000Y-129125244D02*
G75*
G03*
X446015000Y-130670536I-2560000J-1544830D01*
G01*
X446015000Y-130669612D02*
G75*
G03*
X451565000Y-132214904I2990000J-462D01*
G01*
X451505000Y-130670074D02*
G75*
G03*
X451505000Y-130670074I-2500000J0D01*
G01*
X455814960Y-58295068D02*
X455814960Y-55205068D01*
X450264960Y-56749606D02*
G75*
G03*
X455814960Y-58294898I2990000J-462D01*
G01*
X455814960Y-55205238D02*
G75*
G03*
X450264960Y-56750530I-2560000J-1544830D01*
G01*
X455754960Y-56750068D02*
G75*
G03*
X455754960Y-56750068I-2500000J0D01*
G01*
X423495000Y-200422574D02*
X423495000Y-206962574D01*
X424865000Y-199652574D02*
X424865000Y-200422574D01*
X423495000Y-206962574D02*
X426235000Y-206962574D01*
X426235000Y-200422574D02*
X423495000Y-200422574D01*
X426235000Y-206962574D02*
X426235000Y-200422574D01*
X424865000Y-207732574D02*
X424865000Y-206962574D01*
X333065040Y-139590080D02*
X333065040Y-136500080D01*
X333065040Y-136500250D02*
G75*
G03*
X327515040Y-138045542I-2560000J-1544830D01*
G01*
X327515040Y-138044618D02*
G75*
G03*
X333065040Y-139589910I2990000J-462D01*
G01*
X333005040Y-138045080D02*
G75*
G03*
X333005040Y-138045080I-2500000J0D01*
G01*
X470269960Y-47630068D02*
X463729960Y-47630068D01*
X463729960Y-50370068D02*
X470269960Y-50370068D01*
X471039960Y-49000068D02*
X470269960Y-49000068D01*
X470269960Y-50370068D02*
X470269960Y-47630068D01*
X462959960Y-49000068D02*
X463729960Y-49000068D01*
X463729960Y-47630068D02*
X463729960Y-50370068D01*
X373315000Y-187487574D02*
X373315000Y-184397574D01*
X367765000Y-185942112D02*
G75*
G03*
X373315000Y-187487404I2990000J-462D01*
G01*
X373315000Y-184397744D02*
G75*
G03*
X367765000Y-185943036I-2560000J-1544830D01*
G01*
X373255000Y-185942574D02*
G75*
G03*
X373255000Y-185942574I-2500000J0D01*
G01*
X344290040Y-130545080D02*
X343520040Y-130545080D01*
X343520040Y-131915080D02*
X343520040Y-129175080D01*
X336980040Y-129175080D02*
X336980040Y-131915080D01*
X336980040Y-131915080D02*
X343520040Y-131915080D01*
X343520040Y-129175080D02*
X336980040Y-129175080D01*
X336210040Y-130545080D02*
X336980040Y-130545080D01*
X364500000Y-73130074D02*
X364500000Y-73900074D01*
X365870000Y-80440074D02*
X365870000Y-73900074D01*
X363130000Y-80440074D02*
X365870000Y-80440074D01*
X364500000Y-81210074D02*
X364500000Y-80440074D01*
X365870000Y-73900074D02*
X363130000Y-73900074D01*
X363130000Y-73900074D02*
X363130000Y-80440074D01*
X418690000Y-68965074D02*
X418690000Y-65875074D01*
X413140000Y-67419612D02*
G75*
G03*
X418690000Y-68964904I2990000J-462D01*
G01*
X418690000Y-65875244D02*
G75*
G03*
X413140000Y-67420536I-2560000J-1544830D01*
G01*
X418630000Y-67420074D02*
G75*
G03*
X418630000Y-67420074I-2500000J0D01*
G01*
X325315000Y-42920074D02*
X325315000Y-39830074D01*
X325315000Y-39830244D02*
G75*
G03*
X319765000Y-41375536I-2560000J-1544830D01*
G01*
X319765000Y-41374612D02*
G75*
G03*
X325315000Y-42919904I2990000J-462D01*
G01*
X325255000Y-41375074D02*
G75*
G03*
X325255000Y-41375074I-2500000J0D01*
G01*
X336980040Y-86915080D02*
X343520040Y-86915080D01*
X344290040Y-85545080D02*
X343520040Y-85545080D01*
X343520040Y-86915080D02*
X343520040Y-84175080D01*
X336210040Y-85545080D02*
X336980040Y-85545080D01*
X336980040Y-84175080D02*
X336980040Y-86915080D01*
X343520040Y-84175080D02*
X336980040Y-84175080D01*
X365775000Y-195487574D02*
X365775000Y-192397574D01*
X365775000Y-192397744D02*
G75*
G03*
X360225000Y-193943036I-2560000J-1544830D01*
G01*
X360225000Y-193942112D02*
G75*
G03*
X365775000Y-195487404I2990000J-462D01*
G01*
X365715000Y-193942574D02*
G75*
G03*
X365715000Y-193942574I-2500000J0D01*
G01*
X333065040Y-102090080D02*
X333065040Y-99000080D01*
X327515040Y-100544618D02*
G75*
G03*
X333065040Y-102089910I2990000J-462D01*
G01*
X333065040Y-99000250D02*
G75*
G03*
X327515040Y-100545542I-2560000J-1544830D01*
G01*
X333005040Y-100545080D02*
G75*
G03*
X333005040Y-100545080I-2500000J0D01*
G01*
X451565000Y-154715074D02*
X451565000Y-151625074D01*
X451565000Y-151625244D02*
G75*
G03*
X446015000Y-153170536I-2560000J-1544830D01*
G01*
X446015000Y-153169612D02*
G75*
G03*
X451565000Y-154714904I2990000J-462D01*
G01*
X451505000Y-153170074D02*
G75*
G03*
X451505000Y-153170074I-2500000J0D01*
G01*
X470020000Y-139540074D02*
X470020000Y-136800074D01*
X470020000Y-136800074D02*
X463480000Y-136800074D01*
X463480000Y-139540074D02*
X470020000Y-139540074D01*
X462710000Y-138170074D02*
X463480000Y-138170074D01*
X470790000Y-138170074D02*
X470020000Y-138170074D01*
X463480000Y-136800074D02*
X463480000Y-139540074D01*
X378629960Y46229932D02*
X381369960Y46229932D01*
X378629960Y52769932D02*
X378629960Y46229932D01*
X381369960Y46229932D02*
X381369960Y52769932D01*
X381369960Y52769932D02*
X378629960Y52769932D01*
X379999960Y45459932D02*
X379999960Y46229932D01*
X379999960Y53539932D02*
X379999960Y52769932D01*
X333065040Y-132090080D02*
X333065040Y-129000080D01*
X327515040Y-130544618D02*
G75*
G03*
X333065040Y-132089910I2990000J-462D01*
G01*
X333065040Y-129000250D02*
G75*
G03*
X327515040Y-130545542I-2560000J-1544830D01*
G01*
X333005040Y-130545080D02*
G75*
G03*
X333005040Y-130545080I-2500000J0D01*
G01*
X411369960Y52769932D02*
X408629960Y52769932D01*
X411369960Y46229932D02*
X411369960Y52769932D01*
X409999960Y45459932D02*
X409999960Y46229932D01*
X409999960Y53539932D02*
X409999960Y52769932D01*
X408629960Y46229932D02*
X411369960Y46229932D01*
X408629960Y52769932D02*
X408629960Y46229932D01*
X451565000Y-79715074D02*
X451565000Y-76625074D01*
X446015000Y-78169612D02*
G75*
G03*
X451565000Y-79714904I2990000J-462D01*
G01*
X451565000Y-76625244D02*
G75*
G03*
X446015000Y-78170536I-2560000J-1544830D01*
G01*
X451505000Y-78170074D02*
G75*
G03*
X451505000Y-78170074I-2500000J0D01*
G01*
X388779960Y57704932D02*
X388779960Y60794932D01*
X383229960Y59250394D02*
G75*
G03*
X388779960Y57705102I2990000J-462D01*
G01*
X388779960Y60794762D02*
G75*
G03*
X383229960Y59249470I-2560000J-1544830D01*
G01*
X388719960Y59249932D02*
G75*
G03*
X388719960Y59249932I-2500000J0D01*
G01*
X333065040Y-94590080D02*
X333065040Y-91500080D01*
X327515040Y-93044618D02*
G75*
G03*
X333065040Y-94589910I2990000J-462D01*
G01*
X333065040Y-91500250D02*
G75*
G03*
X327515040Y-93045542I-2560000J-1544830D01*
G01*
X333005040Y-93045080D02*
G75*
G03*
X333005040Y-93045080I-2500000J0D01*
G01*
X388620000Y-80440074D02*
X388620000Y-73900074D01*
X387250000Y-81210074D02*
X387250000Y-80440074D01*
X385880000Y-80440074D02*
X388620000Y-80440074D01*
X388620000Y-73900074D02*
X385880000Y-73900074D01*
X385880000Y-73900074D02*
X385880000Y-80440074D01*
X387250000Y-73130074D02*
X387250000Y-73900074D01*
X333315000Y-35420074D02*
X333315000Y-32330074D01*
X327765000Y-33874612D02*
G75*
G03*
X333315000Y-35419904I2990000J-462D01*
G01*
X333315000Y-32330244D02*
G75*
G03*
X327765000Y-33875536I-2560000J-1544830D01*
G01*
X333255000Y-33875074D02*
G75*
G03*
X333255000Y-33875074I-2500000J0D01*
G01*
X358619960Y46229932D02*
X358619960Y52769932D01*
X357249960Y45459932D02*
X357249960Y46229932D01*
X355879960Y46229932D02*
X358619960Y46229932D01*
X358619960Y52769932D02*
X355879960Y52769932D01*
X355879960Y52769932D02*
X355879960Y46229932D01*
X357249960Y53539932D02*
X357249960Y52769932D01*
X333315000Y17079926D02*
X333315000Y20169926D01*
X333315000Y20169756D02*
G75*
G03*
X327765000Y18624464I-2560000J-1544830D01*
G01*
X327765000Y18625388D02*
G75*
G03*
X333315000Y17080096I2990000J-462D01*
G01*
X333255000Y18624926D02*
G75*
G03*
X333255000Y18624926I-2500000J0D01*
G01*
X451814960Y16954932D02*
X451814960Y20044932D01*
X451814960Y20044762D02*
G75*
G03*
X446264960Y18499470I-2560000J-1544830D01*
G01*
X446264960Y18500394D02*
G75*
G03*
X451814960Y16955102I2990000J-462D01*
G01*
X451754960Y18499932D02*
G75*
G03*
X451754960Y18499932I-2500000J0D01*
G01*
X343850000Y34994926D02*
X337310000Y34994926D01*
X337310000Y32254926D02*
X343850000Y32254926D01*
X337310000Y34994926D02*
X337310000Y32254926D01*
X344620000Y33624926D02*
X343850000Y33624926D01*
X343850000Y32254926D02*
X343850000Y34994926D01*
X336540000Y33624926D02*
X337310000Y33624926D01*
X343315000Y-68965074D02*
X343315000Y-65875074D01*
X343315000Y-65875244D02*
G75*
G03*
X337765000Y-67420536I-2560000J-1544830D01*
G01*
X337765000Y-67419612D02*
G75*
G03*
X343315000Y-68964904I2990000J-462D01*
G01*
X343255000Y-67420074D02*
G75*
G03*
X343255000Y-67420074I-2500000J0D01*
G01*
X459565000Y-117215074D02*
X459565000Y-114125074D01*
X454015000Y-115669612D02*
G75*
G03*
X459565000Y-117214904I2990000J-462D01*
G01*
X459565000Y-114125244D02*
G75*
G03*
X454015000Y-115670536I-2560000J-1544830D01*
G01*
X459505000Y-115670074D02*
G75*
G03*
X459505000Y-115670074I-2500000J0D01*
G01*
X356865000Y-199652574D02*
X356865000Y-200422574D01*
X358235000Y-200422574D02*
X355495000Y-200422574D01*
X358235000Y-206962574D02*
X358235000Y-200422574D01*
X355495000Y-200422574D02*
X355495000Y-206962574D01*
X355495000Y-206962574D02*
X358235000Y-206962574D01*
X356865000Y-207732574D02*
X356865000Y-206962574D01*
X358370000Y-60965074D02*
X358370000Y-57875074D01*
X352820000Y-59419612D02*
G75*
G03*
X358370000Y-60964904I2990000J-462D01*
G01*
X358370000Y-57875244D02*
G75*
G03*
X352820000Y-59420536I-2560000J-1544830D01*
G01*
X358310000Y-59420074D02*
G75*
G03*
X358310000Y-59420074I-2500000J0D01*
G01*
X451565000Y-87215074D02*
X451565000Y-84125074D01*
X451565000Y-84125244D02*
G75*
G03*
X446015000Y-85670536I-2560000J-1544830D01*
G01*
X446015000Y-85669612D02*
G75*
G03*
X451565000Y-87214904I2990000J-462D01*
G01*
X451505000Y-85670074D02*
G75*
G03*
X451505000Y-85670074I-2500000J0D01*
G01*
X459814960Y-43045068D02*
X459814960Y-39955068D01*
X459814960Y-39955238D02*
G75*
G03*
X454264960Y-41500530I-2560000J-1544830D01*
G01*
X454264960Y-41499606D02*
G75*
G03*
X459814960Y-43044898I2990000J-462D01*
G01*
X459754960Y-41500068D02*
G75*
G03*
X459754960Y-41500068I-2500000J0D01*
G01*
X350830000Y-60965074D02*
X350830000Y-57875074D01*
X345280000Y-59419612D02*
G75*
G03*
X350830000Y-60964904I2990000J-462D01*
G01*
X350830000Y-57875244D02*
G75*
G03*
X345280000Y-59420536I-2560000J-1544830D01*
G01*
X350770000Y-59420074D02*
G75*
G03*
X350770000Y-59420074I-2500000J0D01*
G01*
X325315000Y-12920074D02*
X325315000Y-9830074D01*
X325315000Y-9830244D02*
G75*
G03*
X319765000Y-11375536I-2560000J-1544830D01*
G01*
X319765000Y-11374612D02*
G75*
G03*
X325315000Y-12919904I2990000J-462D01*
G01*
X325255000Y-11375074D02*
G75*
G03*
X325255000Y-11375074I-2500000J0D01*
G01*
X403859960Y57704932D02*
X403859960Y60794932D01*
X398309960Y59250394D02*
G75*
G03*
X403859960Y57705102I2990000J-462D01*
G01*
X403859960Y60794762D02*
G75*
G03*
X398309960Y59249470I-2560000J-1544830D01*
G01*
X403799960Y59249932D02*
G75*
G03*
X403799960Y59249932I-2500000J0D01*
G01*
X403610000Y-60965074D02*
X403610000Y-57875074D01*
X403610000Y-57875244D02*
G75*
G03*
X398060000Y-59420536I-2560000J-1544830D01*
G01*
X398060000Y-59419612D02*
G75*
G03*
X403610000Y-60964904I2990000J-462D01*
G01*
X403550000Y-59420074D02*
G75*
G03*
X403550000Y-59420074I-2500000J0D01*
G01*
X459565000Y-87215074D02*
X459565000Y-84125074D01*
X459565000Y-84125244D02*
G75*
G03*
X454015000Y-85670536I-2560000J-1544830D01*
G01*
X454015000Y-85669612D02*
G75*
G03*
X459565000Y-87214904I2990000J-462D01*
G01*
X459505000Y-85670074D02*
G75*
G03*
X459505000Y-85670074I-2500000J0D01*
G01*
X396070000Y-60965074D02*
X396070000Y-57875074D01*
X396070000Y-57875244D02*
G75*
G03*
X390520000Y-59420536I-2560000J-1544830D01*
G01*
X390520000Y-59419612D02*
G75*
G03*
X396070000Y-60964904I2990000J-462D01*
G01*
X396010000Y-59420074D02*
G75*
G03*
X396010000Y-59420074I-2500000J0D01*
G01*
X411399960Y57704932D02*
X411399960Y60794932D01*
X411399960Y60794762D02*
G75*
G03*
X405849960Y59249470I-2560000J-1544830D01*
G01*
X405849960Y59250394D02*
G75*
G03*
X411399960Y57705102I2990000J-462D01*
G01*
X411339960Y59249932D02*
G75*
G03*
X411339960Y59249932I-2500000J0D01*
G01*
X380990000Y-68965074D02*
X380990000Y-65875074D01*
X375440000Y-67419612D02*
G75*
G03*
X380990000Y-68964904I2990000J-462D01*
G01*
X380990000Y-65875244D02*
G75*
G03*
X375440000Y-67420536I-2560000J-1544830D01*
G01*
X380930000Y-67420074D02*
G75*
G03*
X380930000Y-67420074I-2500000J0D01*
G01*
X451814960Y39454932D02*
X451814960Y42544932D01*
X451814960Y42544762D02*
G75*
G03*
X446264960Y40999470I-2560000J-1544830D01*
G01*
X446264960Y41000394D02*
G75*
G03*
X451814960Y39455102I2990000J-462D01*
G01*
X451754960Y40999932D02*
G75*
G03*
X451754960Y40999932I-2500000J0D01*
G01*
X412200000Y-178986000D02*
X412200000Y-187114000D01*
X459565000Y-102215074D02*
X459565000Y-99125074D01*
X459565000Y-99125244D02*
G75*
G03*
X454015000Y-100670536I-2560000J-1544830D01*
G01*
X454015000Y-100669612D02*
G75*
G03*
X459565000Y-102214904I2990000J-462D01*
G01*
X459505000Y-100670074D02*
G75*
G03*
X459505000Y-100670074I-2500000J0D01*
G01*
X325065040Y-132090080D02*
X325065040Y-129000080D01*
X319515040Y-130544618D02*
G75*
G03*
X325065040Y-132089910I2990000J-462D01*
G01*
X325065040Y-129000250D02*
G75*
G03*
X319515040Y-130545542I-2560000J-1544830D01*
G01*
X325005040Y-130545080D02*
G75*
G03*
X325005040Y-130545080I-2500000J0D01*
G01*
%TD*%
%LPC*%
D12*
%TO.C,REF\u002A\u002A*%
X372025000Y-193942574D03*
D13*
X369485000Y-193942574D03*
%TD*%
D12*
%TO.C,REF\u002A\u002A*%
X372160000Y-67420074D03*
D13*
X369620000Y-67420074D03*
%TD*%
D12*
%TO.C,REF\u002A\u002A*%
X458524960Y40999932D03*
D13*
X455984960Y40999932D03*
%TD*%
D12*
%TO.C,REF\u002A\u002A*%
X323775040Y-175545080D03*
D13*
X321235040Y-175545080D03*
%TD*%
D12*
%TO.C,REF\u002A\u002A*%
X432345000Y-193942574D03*
D13*
X429805000Y-193942574D03*
%TD*%
D12*
%TO.C,REF\u002A\u002A*%
X450524960Y-19000068D03*
D13*
X447984960Y-19000068D03*
%TD*%
D12*
%TO.C,REF\u002A\u002A*%
X327775040Y-183295080D03*
D13*
X325235040Y-183295080D03*
%TD*%
D12*
%TO.C,REF\u002A\u002A*%
X323775040Y-100545080D03*
D13*
X321235040Y-100545080D03*
%TD*%
D14*
%TO.C,REF\u002A\u002A*%
X345580000Y-48875074D03*
D15*
X335420000Y-48875074D03*
%TD*%
D12*
%TO.C,REF\u002A\u002A*%
X450275000Y-160670074D03*
D13*
X447735000Y-160670074D03*
%TD*%
D14*
%TO.C,REF\u002A\u002A*%
X352025000Y-199692574D03*
D15*
X341865000Y-199692574D03*
%TD*%
D12*
%TO.C,REF\u002A\u002A*%
X440269960Y59249932D03*
D13*
X437729960Y59249932D03*
%TD*%
D12*
%TO.C,REF\u002A\u002A*%
X324025000Y-26375074D03*
D13*
X321485000Y-26375074D03*
%TD*%
D14*
%TO.C,REF\u002A\u002A*%
X471830000Y-78170074D03*
D15*
X461670000Y-78170074D03*
%TD*%
D12*
%TO.C,REF\u002A\u002A*%
X447540000Y-63670074D03*
D13*
X445000000Y-63670074D03*
%TD*%
D12*
%TO.C,REF\u002A\u002A*%
X379949960Y67249932D03*
D13*
X377409960Y67249932D03*
%TD*%
D12*
%TO.C,REF\u002A\u002A*%
X424805000Y-193942574D03*
D13*
X422265000Y-193942574D03*
%TD*%
D12*
%TO.C,REF\u002A\u002A*%
X379700000Y-59420074D03*
D13*
X377160000Y-59420074D03*
%TD*%
D12*
%TO.C,REF\u002A\u002A*%
X424805000Y-185942574D03*
D13*
X422265000Y-185942574D03*
%TD*%
D12*
%TO.C,REF\u002A\u002A*%
X458524960Y33499932D03*
D13*
X455984960Y33499932D03*
%TD*%
D12*
%TO.C,REF\u002A\u002A*%
X331775040Y-85545080D03*
D13*
X329235040Y-85545080D03*
%TD*%
D12*
%TO.C,REF\u002A\u002A*%
X331775040Y-78045080D03*
D13*
X329235040Y-78045080D03*
%TD*%
D12*
%TO.C,REF\u002A\u002A*%
X458275000Y-138170074D03*
D13*
X455735000Y-138170074D03*
%TD*%
D12*
%TO.C,REF\u002A\u002A*%
X447789960Y62999932D03*
D13*
X445249960Y62999932D03*
%TD*%
D12*
%TO.C,REF\u002A\u002A*%
X424940000Y-59420074D03*
D13*
X422400000Y-59420074D03*
%TD*%
D12*
%TO.C,REF\u002A\u002A*%
X323775040Y-115545080D03*
D13*
X321235040Y-115545080D03*
%TD*%
D12*
%TO.C,REF\u002A\u002A*%
X332025000Y-48875074D03*
D13*
X329485000Y-48875074D03*
%TD*%
D12*
%TO.C,REF\u002A\u002A*%
X432345000Y-185942574D03*
D13*
X429805000Y-185942574D03*
%TD*%
D12*
%TO.C,REF\u002A\u002A*%
X425189960Y59249932D03*
D13*
X422649960Y59249932D03*
%TD*%
D12*
%TO.C,REF\u002A\u002A*%
X450524960Y-41500068D03*
D13*
X447984960Y-41500068D03*
%TD*%
D12*
%TO.C,REF\u002A\u002A*%
X417649960Y59249932D03*
D13*
X415109960Y59249932D03*
%TD*%
D16*
%TO.C,REF\u002A\u002A*%
X404840000Y-140600000D03*
D17*
X402300000Y-140600000D03*
X399760000Y-140600000D03*
X397220000Y-140600000D03*
X394680000Y-140600000D03*
X392140000Y-140600000D03*
X389600000Y-140600000D03*
X387060000Y-140600000D03*
%TD*%
D12*
%TO.C,REF\u002A\u002A*%
X458524960Y-4000068D03*
D13*
X455984960Y-4000068D03*
%TD*%
D12*
%TO.C,REF\u002A\u002A*%
X387240000Y-67420074D03*
D13*
X384700000Y-67420074D03*
%TD*%
D12*
%TO.C,REF\u002A\u002A*%
X439885000Y-185942574D03*
D13*
X437345000Y-185942574D03*
%TD*%
D14*
%TO.C,REF\u002A\u002A*%
X425000000Y-82250074D03*
D15*
X425000000Y-72090074D03*
%TD*%
D14*
%TO.C,REF\u002A\u002A*%
X472079960Y-26500068D03*
D15*
X461919960Y-26500068D03*
%TD*%
D12*
%TO.C,REF\u002A\u002A*%
X450524960Y-26500068D03*
D13*
X447984960Y-26500068D03*
%TD*%
D12*
%TO.C,REF\u002A\u002A*%
X454524960Y56249932D03*
D13*
X451984960Y56249932D03*
%TD*%
D12*
%TO.C,REF\u002A\u002A*%
X372409960Y67249932D03*
D13*
X369869960Y67249932D03*
%TD*%
D12*
%TO.C,REF\u002A\u002A*%
X331775040Y-145545080D03*
D13*
X329235040Y-145545080D03*
%TD*%
D18*
%TO.C,REF\u002A\u002A*%
X367000000Y-62230000D03*
D19*
X367000000Y-52070000D03*
%TD*%
D12*
%TO.C,REF\u002A\u002A*%
X323775040Y-160545080D03*
D13*
X321235040Y-160545080D03*
%TD*%
D12*
%TO.C,REF\u002A\u002A*%
X450524960Y48499932D03*
D13*
X447984960Y48499932D03*
%TD*%
D14*
%TO.C,REF\u002A\u002A*%
X345330040Y-78045080D03*
D15*
X335170040Y-78045080D03*
%TD*%
D14*
%TO.C,REF\u002A\u002A*%
X387115000Y-208772574D03*
D15*
X387115000Y-198612574D03*
%TD*%
D12*
%TO.C,REF\u002A\u002A*%
X331775040Y-123045080D03*
D13*
X329235040Y-123045080D03*
%TD*%
D12*
%TO.C,REF\u002A\u002A*%
X364869960Y67249932D03*
D13*
X362329960Y67249932D03*
%TD*%
D12*
%TO.C,REF\u002A\u002A*%
X394645000Y-193942574D03*
D13*
X392105000Y-193942574D03*
%TD*%
D12*
%TO.C,REF\u002A\u002A*%
X450524960Y-11500068D03*
D13*
X447984960Y-11500068D03*
%TD*%
D12*
%TO.C,REF\u002A\u002A*%
X332025000Y3624926D03*
D13*
X329485000Y3624926D03*
%TD*%
D14*
%TO.C,REF\u002A\u002A*%
X387499960Y44419932D03*
D15*
X387499960Y54579932D03*
%TD*%
D14*
%TO.C,REF\u002A\u002A*%
X345580000Y41124926D03*
D15*
X335420000Y41124926D03*
%TD*%
D14*
%TO.C,REF\u002A\u002A*%
X437365000Y-208772574D03*
D15*
X437365000Y-198612574D03*
%TD*%
D12*
%TO.C,REF\u002A\u002A*%
X458524960Y25999932D03*
D13*
X455984960Y25999932D03*
%TD*%
D18*
%TO.C,REF\u002A\u002A*%
X445800000Y-127000000D03*
D19*
X435640000Y-127000000D03*
%TD*%
D12*
%TO.C,REF\u002A\u002A*%
X432480000Y-59420074D03*
D13*
X429940000Y-59420074D03*
%TD*%
D12*
%TO.C,REF\u002A\u002A*%
X395029960Y67249932D03*
D13*
X392489960Y67249932D03*
%TD*%
D12*
%TO.C,REF\u002A\u002A*%
X417265000Y-193942574D03*
D13*
X414725000Y-193942574D03*
%TD*%
D14*
%TO.C,REF\u002A\u002A*%
X472079960Y48499932D03*
D15*
X461919960Y48499932D03*
%TD*%
D14*
%TO.C,REF\u002A\u002A*%
X345330040Y-108045080D03*
D15*
X335170040Y-108045080D03*
%TD*%
D12*
%TO.C,REF\u002A\u002A*%
X450524960Y3499932D03*
D13*
X447984960Y3499932D03*
%TD*%
D18*
%TO.C,REF\u002A\u002A*%
X412200000Y-127770000D03*
D19*
X412200000Y-137930000D03*
%TD*%
D18*
%TO.C,REF\u002A\u002A*%
X382400000Y-92430000D03*
D19*
X382400000Y-82270000D03*
%TD*%
D12*
%TO.C,REF\u002A\u002A*%
X450524960Y-34000068D03*
D13*
X447984960Y-34000068D03*
%TD*%
D12*
%TO.C,REF\u002A\u002A*%
X450275000Y-93170074D03*
D13*
X447735000Y-93170074D03*
%TD*%
D12*
%TO.C,REF\u002A\u002A*%
X394780000Y-67420074D03*
D13*
X392240000Y-67420074D03*
%TD*%
D12*
%TO.C,REF\u002A\u002A*%
X331775040Y-115545080D03*
D13*
X329235040Y-115545080D03*
%TD*%
D12*
%TO.C,REF\u002A\u002A*%
X324025000Y-3875074D03*
D13*
X321485000Y-3875074D03*
%TD*%
D12*
%TO.C,REF\u002A\u002A*%
X332025000Y-18875074D03*
D13*
X329485000Y-18875074D03*
%TD*%
D12*
%TO.C,REF\u002A\u002A*%
X332025000Y-41375074D03*
D13*
X329485000Y-41375074D03*
%TD*%
D12*
%TO.C,REF\u002A\u002A*%
X450275000Y-108170074D03*
D13*
X447735000Y-108170074D03*
%TD*%
D12*
%TO.C,REF\u002A\u002A*%
X458275000Y-175670074D03*
D13*
X455735000Y-175670074D03*
%TD*%
D12*
%TO.C,REF\u002A\u002A*%
X387105000Y-193942574D03*
D13*
X384565000Y-193942574D03*
%TD*%
D12*
%TO.C,REF\u002A\u002A*%
X387240000Y-59420074D03*
D13*
X384700000Y-59420074D03*
%TD*%
D12*
%TO.C,REF\u002A\u002A*%
X439885000Y-193942574D03*
D13*
X437345000Y-193942574D03*
%TD*%
D12*
%TO.C,REF\u002A\u002A*%
X458275000Y-93170074D03*
D13*
X455735000Y-93170074D03*
%TD*%
D12*
%TO.C,REF\u002A\u002A*%
X450524960Y25999932D03*
D13*
X447984960Y25999932D03*
%TD*%
D20*
%TO.C,REF\u002A\u002A*%
X484250000Y-206250074D03*
X487250000Y-203250074D03*
X482128680Y-205371394D03*
X481250000Y-203250074D03*
X482128680Y-201128754D03*
X484250000Y-200250074D03*
X486371320Y-201128754D03*
X486371320Y-205371394D03*
D21*
X484250000Y-203250074D03*
%TD*%
D20*
%TO.C,REF\u002A\u002A*%
X304128680Y69871246D03*
X304128680Y65628606D03*
D21*
X306250000Y67749926D03*
D20*
X306250000Y64749926D03*
X308371320Y65628606D03*
X309250000Y67749926D03*
X306250000Y70749926D03*
X303250000Y67749926D03*
X308371320Y69871246D03*
%TD*%
D12*
%TO.C,REF\u002A\u002A*%
X409725000Y-185942574D03*
D13*
X407185000Y-185942574D03*
%TD*%
D12*
%TO.C,REF\u002A\u002A*%
X410109960Y67249932D03*
D13*
X407569960Y67249932D03*
%TD*%
D12*
%TO.C,REF\u002A\u002A*%
X324025000Y41124926D03*
D13*
X321485000Y41124926D03*
%TD*%
D14*
%TO.C,REF\u002A\u002A*%
X472079960Y-34000068D03*
D15*
X461919960Y-34000068D03*
%TD*%
D12*
%TO.C,REF\u002A\u002A*%
X432480000Y-67420074D03*
D13*
X429940000Y-67420074D03*
%TD*%
D14*
%TO.C,REF\u002A\u002A*%
X472079960Y40999932D03*
D15*
X461919960Y40999932D03*
%TD*%
D12*
%TO.C,REF\u002A\u002A*%
X425189960Y67249932D03*
D13*
X422649960Y67249932D03*
%TD*%
D14*
%TO.C,REF\u002A\u002A*%
X472079960Y-4000068D03*
D15*
X461919960Y-4000068D03*
%TD*%
D12*
%TO.C,REF\u002A\u002A*%
X324025000Y3624926D03*
D13*
X321485000Y3624926D03*
%TD*%
D12*
%TO.C,REF\u002A\u002A*%
X324025000Y18624926D03*
D13*
X321485000Y18624926D03*
%TD*%
D12*
%TO.C,REF\u002A\u002A*%
X450275000Y-100670074D03*
D13*
X447735000Y-100670074D03*
%TD*%
D14*
%TO.C,REF\u002A\u002A*%
X364365000Y-208772574D03*
D15*
X364365000Y-198612574D03*
%TD*%
D14*
%TO.C,REF\u002A\u002A*%
X471830000Y-115670074D03*
D15*
X461670000Y-115670074D03*
%TD*%
D12*
%TO.C,REF\u002A\u002A*%
X341865000Y-185942574D03*
D13*
X339325000Y-185942574D03*
%TD*%
D12*
%TO.C,REF\u002A\u002A*%
X356945000Y-193942574D03*
D13*
X354405000Y-193942574D03*
%TD*%
D12*
%TO.C,REF\u002A\u002A*%
X379949960Y59249932D03*
D13*
X377409960Y59249932D03*
%TD*%
D12*
%TO.C,REF\u002A\u002A*%
X440020000Y-67420074D03*
D13*
X437480000Y-67420074D03*
%TD*%
D12*
%TO.C,REF\u002A\u002A*%
X458524960Y-34000068D03*
D13*
X455984960Y-34000068D03*
%TD*%
D12*
%TO.C,REF\u002A\u002A*%
X328025000Y56374926D03*
D13*
X325485000Y56374926D03*
%TD*%
D14*
%TO.C,REF\u002A\u002A*%
X471910000Y-93170074D03*
D15*
X461750000Y-93170074D03*
%TD*%
D12*
%TO.C,REF\u002A\u002A*%
X409860000Y-59420074D03*
D13*
X407320000Y-59420074D03*
%TD*%
D14*
%TO.C,REF\u002A\u002A*%
X472079960Y-11500068D03*
D15*
X461919960Y-11500068D03*
%TD*%
D12*
%TO.C,REF\u002A\u002A*%
X450275000Y-145670074D03*
D13*
X447735000Y-145670074D03*
%TD*%
D12*
%TO.C,REF\u002A\u002A*%
X440020000Y-59420074D03*
D13*
X437480000Y-59420074D03*
%TD*%
D12*
%TO.C,REF\u002A\u002A*%
X331775040Y-175545080D03*
D13*
X329235040Y-175545080D03*
%TD*%
D14*
%TO.C,REF\u002A\u002A*%
X471830000Y-108170074D03*
D15*
X461670000Y-108170074D03*
%TD*%
D14*
%TO.C,REF\u002A\u002A*%
X472079960Y18499932D03*
D15*
X461919960Y18499932D03*
%TD*%
D12*
%TO.C,REF\u002A\u002A*%
X450275000Y-123170074D03*
D13*
X447735000Y-123170074D03*
%TD*%
D12*
%TO.C,REF\u002A\u002A*%
X394645000Y-185942574D03*
D13*
X392105000Y-185942574D03*
%TD*%
D12*
%TO.C,REF\u002A\u002A*%
X332025000Y41124926D03*
D13*
X329485000Y41124926D03*
%TD*%
D14*
%TO.C,REF\u002A\u002A*%
X471830000Y-130670074D03*
D15*
X461670000Y-130670074D03*
%TD*%
D12*
%TO.C,REF\u002A\u002A*%
X458524960Y3499932D03*
D13*
X455984960Y3499932D03*
%TD*%
D12*
%TO.C,REF\u002A\u002A*%
X450275000Y-138170074D03*
D13*
X447735000Y-138170074D03*
%TD*%
D14*
%TO.C,REF\u002A\u002A*%
X409615000Y-208772574D03*
D15*
X409615000Y-198612574D03*
%TD*%
D12*
%TO.C,REF\u002A\u002A*%
X402569960Y67249932D03*
D13*
X400029960Y67249932D03*
%TD*%
D12*
%TO.C,REF\u002A\u002A*%
X458524960Y18499932D03*
D13*
X455984960Y18499932D03*
%TD*%
D12*
%TO.C,REF\u002A\u002A*%
X332025000Y26124926D03*
D13*
X329485000Y26124926D03*
%TD*%
D14*
%TO.C,REF\u002A\u002A*%
X379615000Y-208772574D03*
D15*
X379615000Y-198612574D03*
%TD*%
D12*
%TO.C,REF\u002A\u002A*%
X332025000Y11124926D03*
D13*
X329485000Y11124926D03*
%TD*%
D12*
%TO.C,REF\u002A\u002A*%
X332025000Y33624926D03*
D13*
X329485000Y33624926D03*
%TD*%
D12*
%TO.C,REF\u002A\u002A*%
X372409960Y59249932D03*
D13*
X369869960Y59249932D03*
%TD*%
D12*
%TO.C,REF\u002A\u002A*%
X458524960Y-26500068D03*
D13*
X455984960Y-26500068D03*
%TD*%
D12*
%TO.C,REF\u002A\u002A*%
X332025000Y-26375074D03*
D13*
X329485000Y-26375074D03*
%TD*%
D12*
%TO.C,REF\u002A\u002A*%
X379565000Y-185942574D03*
D13*
X377025000Y-185942574D03*
%TD*%
D16*
%TO.C,REF\u002A\u002A*%
X404875000Y-145400000D03*
D17*
X402335000Y-145400000D03*
X399795000Y-145400000D03*
X397255000Y-145400000D03*
X394715000Y-145400000D03*
X392175000Y-145400000D03*
X389635000Y-145400000D03*
X387095000Y-145400000D03*
%TD*%
D12*
%TO.C,REF\u002A\u002A*%
X323775040Y-123045080D03*
D13*
X321235040Y-123045080D03*
%TD*%
D14*
%TO.C,REF\u002A\u002A*%
X379750000Y-82250074D03*
D15*
X379750000Y-72090074D03*
%TD*%
D12*
%TO.C,REF\u002A\u002A*%
X372160000Y-59420074D03*
D13*
X369620000Y-59420074D03*
%TD*%
D14*
%TO.C,REF\u002A\u002A*%
X402250000Y-82250074D03*
D15*
X402250000Y-72090074D03*
%TD*%
D12*
%TO.C,REF\u002A\u002A*%
X424940000Y-67420074D03*
D13*
X422400000Y-67420074D03*
%TD*%
D12*
%TO.C,REF\u002A\u002A*%
X323775040Y-108045080D03*
D13*
X321235040Y-108045080D03*
%TD*%
D12*
%TO.C,REF\u002A\u002A*%
X454275000Y-70420074D03*
D13*
X451735000Y-70420074D03*
%TD*%
D12*
%TO.C,REF\u002A\u002A*%
X458524960Y-19000068D03*
D13*
X455984960Y-19000068D03*
%TD*%
D12*
%TO.C,REF\u002A\u002A*%
X402185000Y-185942574D03*
D13*
X399645000Y-185942574D03*
%TD*%
D12*
%TO.C,REF\u002A\u002A*%
X395029960Y59249932D03*
D13*
X392489960Y59249932D03*
%TD*%
D12*
%TO.C,REF\u002A\u002A*%
X332025000Y48624926D03*
D13*
X329485000Y48624926D03*
%TD*%
D12*
%TO.C,REF\u002A\u002A*%
X402185000Y-193942574D03*
D13*
X399645000Y-193942574D03*
%TD*%
D14*
%TO.C,REF\u002A\u002A*%
X437500000Y-82250074D03*
D15*
X437500000Y-72090074D03*
%TD*%
D12*
%TO.C,REF\u002A\u002A*%
X458524960Y48499932D03*
D13*
X455984960Y48499932D03*
%TD*%
D12*
%TO.C,REF\u002A\u002A*%
X324025000Y26124926D03*
D13*
X321485000Y26124926D03*
%TD*%
D12*
%TO.C,REF\u002A\u002A*%
X356945000Y-185942574D03*
D13*
X354405000Y-185942574D03*
%TD*%
D14*
%TO.C,REF\u002A\u002A*%
X345580000Y-11375074D03*
D15*
X335420000Y-11375074D03*
%TD*%
D12*
%TO.C,REF\u002A\u002A*%
X458275000Y-108170074D03*
D13*
X455735000Y-108170074D03*
%TD*%
D14*
%TO.C,REF\u002A\u002A*%
X345580000Y18624926D03*
D15*
X335420000Y18624926D03*
%TD*%
D12*
%TO.C,REF\u002A\u002A*%
X334525000Y-63420074D03*
D13*
X331985000Y-63420074D03*
%TD*%
D12*
%TO.C,REF\u002A\u002A*%
X409860000Y-67420074D03*
D13*
X407320000Y-67420074D03*
%TD*%
D12*
%TO.C,REF\u002A\u002A*%
X458275000Y-160670074D03*
D13*
X455735000Y-160670074D03*
%TD*%
D14*
%TO.C,REF\u002A\u002A*%
X471830000Y-153170074D03*
D15*
X461670000Y-153170074D03*
%TD*%
D20*
%TO.C,REF\u002A\u002A*%
X304128680Y-201128754D03*
D21*
X306250000Y-203250074D03*
D20*
X308371320Y-205371394D03*
X309250000Y-203250074D03*
X304128680Y-205371394D03*
X306250000Y-200250074D03*
X306250000Y-206250074D03*
X308371320Y-201128754D03*
X303250000Y-203250074D03*
%TD*%
D12*
%TO.C,REF\u002A\u002A*%
X432729960Y59249932D03*
D13*
X430189960Y59249932D03*
%TD*%
D14*
%TO.C,REF\u002A\u002A*%
X345410040Y-93045080D03*
D15*
X335250040Y-93045080D03*
%TD*%
D12*
%TO.C,REF\u002A\u002A*%
X402320000Y-67420074D03*
D13*
X399780000Y-67420074D03*
%TD*%
D12*
%TO.C,REF\u002A\u002A*%
X458275000Y-78170074D03*
D13*
X455735000Y-78170074D03*
%TD*%
D12*
%TO.C,REF\u002A\u002A*%
X357329960Y59249932D03*
D13*
X354789960Y59249932D03*
%TD*%
D12*
%TO.C,REF\u002A\u002A*%
X342249960Y67249932D03*
D13*
X339709960Y67249932D03*
%TD*%
D18*
%TO.C,REF\u002A\u002A*%
X447600000Y-104400000D03*
D19*
X437440000Y-104400000D03*
%TD*%
D12*
%TO.C,REF\u002A\u002A*%
X458275000Y-168170074D03*
D13*
X455735000Y-168170074D03*
%TD*%
D12*
%TO.C,REF\u002A\u002A*%
X458275000Y-130670074D03*
D13*
X455735000Y-130670074D03*
%TD*%
D12*
%TO.C,REF\u002A\u002A*%
X349405000Y-185942574D03*
D13*
X346865000Y-185942574D03*
%TD*%
D14*
%TO.C,REF\u002A\u002A*%
X402115000Y-208772574D03*
D15*
X402115000Y-198612574D03*
%TD*%
D14*
%TO.C,REF\u002A\u002A*%
X345330040Y-115545080D03*
D15*
X335170040Y-115545080D03*
%TD*%
D12*
%TO.C,REF\u002A\u002A*%
X417649960Y67249932D03*
D13*
X415109960Y67249932D03*
%TD*%
D12*
%TO.C,REF\u002A\u002A*%
X387105000Y-185942574D03*
D13*
X384565000Y-185942574D03*
%TD*%
D12*
%TO.C,REF\u002A\u002A*%
X331775040Y-160545080D03*
D13*
X329235040Y-160545080D03*
%TD*%
D12*
%TO.C,REF\u002A\u002A*%
X458524960Y-49000068D03*
D13*
X455984960Y-49000068D03*
%TD*%
D18*
%TO.C,REF\u002A\u002A*%
X427400000Y-62600000D03*
D19*
X427400000Y-52440000D03*
%TD*%
D14*
%TO.C,REF\u002A\u002A*%
X345330040Y-175545080D03*
D15*
X335170040Y-175545080D03*
%TD*%
D12*
%TO.C,REF\u002A\u002A*%
X332025000Y-3875074D03*
D13*
X329485000Y-3875074D03*
%TD*%
D12*
%TO.C,REF\u002A\u002A*%
X323775040Y-153045080D03*
D13*
X321235040Y-153045080D03*
%TD*%
D12*
%TO.C,REF\u002A\u002A*%
X387489960Y67249932D03*
D13*
X384949960Y67249932D03*
%TD*%
D12*
%TO.C,REF\u002A\u002A*%
X323775040Y-168045080D03*
D13*
X321235040Y-168045080D03*
%TD*%
D12*
%TO.C,REF\u002A\u002A*%
X364620000Y-59420074D03*
D13*
X362080000Y-59420074D03*
%TD*%
D14*
%TO.C,REF\u002A\u002A*%
X345580000Y-3875074D03*
D15*
X335420000Y-3875074D03*
%TD*%
D18*
%TO.C,REF\u002A\u002A*%
X367000000Y-88230000D03*
D19*
X367000000Y-78070000D03*
%TD*%
D12*
%TO.C,REF\u002A\u002A*%
X331775040Y-168045080D03*
D13*
X329235040Y-168045080D03*
%TD*%
D12*
%TO.C,REF\u002A\u002A*%
X450524960Y-4000068D03*
D13*
X447984960Y-4000068D03*
%TD*%
D12*
%TO.C,REF\u002A\u002A*%
X432729960Y67249932D03*
D13*
X430189960Y67249932D03*
%TD*%
D12*
%TO.C,REF\u002A\u002A*%
X324025000Y33624926D03*
D13*
X321485000Y33624926D03*
%TD*%
D14*
%TO.C,REF\u002A\u002A*%
X345580000Y-33875074D03*
D15*
X335420000Y-33875074D03*
%TD*%
D14*
%TO.C,REF\u002A\u002A*%
X432365000Y-208772574D03*
D15*
X432365000Y-198612574D03*
%TD*%
D12*
%TO.C,REF\u002A\u002A*%
X323775040Y-85545080D03*
D13*
X321235040Y-85545080D03*
%TD*%
D12*
%TO.C,REF\u002A\u002A*%
X450275000Y-168170074D03*
D13*
X447735000Y-168170074D03*
%TD*%
D14*
%TO.C,REF\u002A\u002A*%
X352409960Y53499932D03*
D15*
X342249960Y53499932D03*
%TD*%
D14*
%TO.C,REF\u002A\u002A*%
X345330040Y-160545080D03*
D15*
X335170040Y-160545080D03*
%TD*%
D14*
%TO.C,REF\u002A\u002A*%
X345580000Y11124926D03*
D15*
X335420000Y11124926D03*
%TD*%
D12*
%TO.C,REF\u002A\u002A*%
X331775040Y-153045080D03*
D13*
X329235040Y-153045080D03*
%TD*%
D12*
%TO.C,REF\u002A\u002A*%
X447405000Y-190192574D03*
D13*
X444865000Y-190192574D03*
%TD*%
D12*
%TO.C,REF\u002A\u002A*%
X323775040Y-93045080D03*
D13*
X321235040Y-93045080D03*
%TD*%
D12*
%TO.C,REF\u002A\u002A*%
X349789960Y67249932D03*
D13*
X347249960Y67249932D03*
%TD*%
D12*
%TO.C,REF\u002A\u002A*%
X417400000Y-59420074D03*
D13*
X414860000Y-59420074D03*
%TD*%
D12*
%TO.C,REF\u002A\u002A*%
X450524960Y33499932D03*
D13*
X447984960Y33499932D03*
%TD*%
D14*
%TO.C,REF\u002A\u002A*%
X437749960Y44419932D03*
D15*
X437749960Y54579932D03*
%TD*%
D12*
%TO.C,REF\u002A\u002A*%
X324025000Y48624926D03*
D13*
X321485000Y48624926D03*
%TD*%
D12*
%TO.C,REF\u002A\u002A*%
X379565000Y-193942574D03*
D13*
X377025000Y-193942574D03*
%TD*%
D12*
%TO.C,REF\u002A\u002A*%
X450524960Y10999932D03*
D13*
X447984960Y10999932D03*
%TD*%
D12*
%TO.C,REF\u002A\u002A*%
X458275000Y-123170074D03*
D13*
X455735000Y-123170074D03*
%TD*%
D14*
%TO.C,REF\u002A\u002A*%
X345580000Y48624926D03*
D15*
X335420000Y48624926D03*
%TD*%
D12*
%TO.C,REF\u002A\u002A*%
X417265000Y-185942574D03*
D13*
X414725000Y-185942574D03*
%TD*%
D14*
%TO.C,REF\u002A\u002A*%
X472159960Y33499932D03*
D15*
X461999960Y33499932D03*
%TD*%
D14*
%TO.C,REF\u002A\u002A*%
X357000000Y-82250074D03*
D15*
X357000000Y-72090074D03*
%TD*%
D12*
%TO.C,REF\u002A\u002A*%
X458524960Y-11500068D03*
D13*
X455984960Y-11500068D03*
%TD*%
D12*
%TO.C,REF\u002A\u002A*%
X324025000Y11124926D03*
D13*
X321485000Y11124926D03*
%TD*%
D12*
%TO.C,REF\u002A\u002A*%
X357080000Y-67420074D03*
D13*
X354540000Y-67420074D03*
%TD*%
D12*
%TO.C,REF\u002A\u002A*%
X450275000Y-175670074D03*
D13*
X447735000Y-175670074D03*
%TD*%
D12*
%TO.C,REF\u002A\u002A*%
X323775040Y-138045080D03*
D13*
X321235040Y-138045080D03*
%TD*%
D12*
%TO.C,REF\u002A\u002A*%
X357329960Y67249932D03*
D13*
X354789960Y67249932D03*
%TD*%
D12*
%TO.C,REF\u002A\u002A*%
X458275000Y-153170074D03*
D13*
X455735000Y-153170074D03*
%TD*%
D12*
%TO.C,REF\u002A\u002A*%
X349405000Y-193942574D03*
D13*
X346865000Y-193942574D03*
%TD*%
D14*
%TO.C,REF\u002A\u002A*%
X471830000Y-160670074D03*
D15*
X461670000Y-160670074D03*
%TD*%
D12*
%TO.C,REF\u002A\u002A*%
X450275000Y-115670074D03*
D13*
X447735000Y-115670074D03*
%TD*%
D12*
%TO.C,REF\u002A\u002A*%
X332025000Y-11375074D03*
D13*
X329485000Y-11375074D03*
%TD*%
D12*
%TO.C,REF\u002A\u002A*%
X331775040Y-108045080D03*
D13*
X329235040Y-108045080D03*
%TD*%
D12*
%TO.C,REF\u002A\u002A*%
X349789960Y59249932D03*
D13*
X347249960Y59249932D03*
%TD*%
D12*
%TO.C,REF\u002A\u002A*%
X324025000Y-48875074D03*
D13*
X321485000Y-48875074D03*
%TD*%
D12*
%TO.C,REF\u002A\u002A*%
X327775040Y-70295080D03*
D13*
X325235040Y-70295080D03*
%TD*%
D12*
%TO.C,REF\u002A\u002A*%
X349540000Y-67420074D03*
D13*
X347000000Y-67420074D03*
%TD*%
D14*
%TO.C,REF\u002A\u002A*%
X471830000Y-175670074D03*
D15*
X461670000Y-175670074D03*
%TD*%
D14*
%TO.C,REF\u002A\u002A*%
X364749960Y44419932D03*
D15*
X364749960Y54579932D03*
%TD*%
D12*
%TO.C,REF\u002A\u002A*%
X341890000Y-193942574D03*
D13*
X339350000Y-193942574D03*
%TD*%
D12*
%TO.C,REF\u002A\u002A*%
X450524960Y-49000068D03*
D13*
X447984960Y-49000068D03*
%TD*%
D12*
%TO.C,REF\u002A\u002A*%
X454275000Y-183420074D03*
D13*
X451735000Y-183420074D03*
%TD*%
D12*
%TO.C,REF\u002A\u002A*%
X440269960Y67249932D03*
D13*
X437729960Y67249932D03*
%TD*%
D14*
%TO.C,REF\u002A\u002A*%
X345330040Y-153045080D03*
D15*
X335170040Y-153045080D03*
%TD*%
D12*
%TO.C,REF\u002A\u002A*%
X328025000Y-56625074D03*
D13*
X325485000Y-56625074D03*
%TD*%
D12*
%TO.C,REF\u002A\u002A*%
X458524960Y10999932D03*
D13*
X455984960Y10999932D03*
%TD*%
D12*
%TO.C,REF\u002A\u002A*%
X334774960Y63249932D03*
D13*
X332234960Y63249932D03*
%TD*%
D12*
%TO.C,REF\u002A\u002A*%
X364869960Y59249932D03*
D13*
X362329960Y59249932D03*
%TD*%
D12*
%TO.C,REF\u002A\u002A*%
X458275000Y-145670074D03*
D13*
X455735000Y-145670074D03*
%TD*%
D12*
%TO.C,REF\u002A\u002A*%
X409725000Y-193942574D03*
D13*
X407185000Y-193942574D03*
%TD*%
D12*
%TO.C,REF\u002A\u002A*%
X323775040Y-78045080D03*
D13*
X321235040Y-78045080D03*
%TD*%
D14*
%TO.C,REF\u002A\u002A*%
X345580000Y-26375074D03*
D15*
X335420000Y-26375074D03*
%TD*%
D12*
%TO.C,REF\u002A\u002A*%
X324025000Y-18875074D03*
D13*
X321485000Y-18875074D03*
%TD*%
D14*
%TO.C,REF\u002A\u002A*%
X425249960Y44419932D03*
D15*
X425249960Y54579932D03*
%TD*%
D12*
%TO.C,REF\u002A\u002A*%
X324025000Y-33875074D03*
D13*
X321485000Y-33875074D03*
%TD*%
D12*
%TO.C,REF\u002A\u002A*%
X342274960Y59249932D03*
D13*
X339734960Y59249932D03*
%TD*%
D14*
%TO.C,REF\u002A\u002A*%
X345330040Y-138045080D03*
D15*
X335170040Y-138045080D03*
%TD*%
D12*
%TO.C,REF\u002A\u002A*%
X334390000Y-189942574D03*
D13*
X331850000Y-189942574D03*
%TD*%
D12*
%TO.C,REF\u002A\u002A*%
X342000000Y-59420074D03*
D13*
X339460000Y-59420074D03*
%TD*%
D14*
%TO.C,REF\u002A\u002A*%
X432749960Y44419932D03*
D15*
X432749960Y54579932D03*
%TD*%
D14*
%TO.C,REF\u002A\u002A*%
X402499960Y44419932D03*
D15*
X402499960Y54579932D03*
%TD*%
D14*
%TO.C,REF\u002A\u002A*%
X471830000Y-85670074D03*
D15*
X461670000Y-85670074D03*
%TD*%
D14*
%TO.C,REF\u002A\u002A*%
X352160000Y-73170074D03*
D15*
X342000000Y-73170074D03*
%TD*%
D12*
%TO.C,REF\u002A\u002A*%
X364485000Y-185942574D03*
D13*
X361945000Y-185942574D03*
%TD*%
D14*
%TO.C,REF\u002A\u002A*%
X409750000Y-82250074D03*
D15*
X409750000Y-72090074D03*
%TD*%
D14*
%TO.C,REF\u002A\u002A*%
X432500000Y-82250074D03*
D15*
X432500000Y-72090074D03*
%TD*%
D12*
%TO.C,REF\u002A\u002A*%
X323775040Y-145545080D03*
D13*
X321235040Y-145545080D03*
%TD*%
D14*
%TO.C,REF\u002A\u002A*%
X472079960Y10999932D03*
D15*
X461919960Y10999932D03*
%TD*%
D12*
%TO.C,REF\u002A\u002A*%
X364620000Y-67420074D03*
D13*
X362080000Y-67420074D03*
%TD*%
D12*
%TO.C,REF\u002A\u002A*%
X450275000Y-130670074D03*
D13*
X447735000Y-130670074D03*
%TD*%
D12*
%TO.C,REF\u002A\u002A*%
X454524960Y-56750068D03*
D13*
X451984960Y-56750068D03*
%TD*%
D14*
%TO.C,REF\u002A\u002A*%
X424865000Y-208772574D03*
D15*
X424865000Y-198612574D03*
%TD*%
D12*
%TO.C,REF\u002A\u002A*%
X331775040Y-138045080D03*
D13*
X329235040Y-138045080D03*
%TD*%
D14*
%TO.C,REF\u002A\u002A*%
X472079960Y-49000068D03*
D15*
X461919960Y-49000068D03*
%TD*%
D12*
%TO.C,REF\u002A\u002A*%
X372025000Y-185942574D03*
D13*
X369485000Y-185942574D03*
%TD*%
D14*
%TO.C,REF\u002A\u002A*%
X345330040Y-130545080D03*
D15*
X335170040Y-130545080D03*
%TD*%
D14*
%TO.C,REF\u002A\u002A*%
X364500000Y-82250074D03*
D15*
X364500000Y-72090074D03*
%TD*%
D12*
%TO.C,REF\u002A\u002A*%
X417400000Y-67420074D03*
D13*
X414860000Y-67420074D03*
%TD*%
D12*
%TO.C,REF\u002A\u002A*%
X324025000Y-41375074D03*
D13*
X321485000Y-41375074D03*
%TD*%
D14*
%TO.C,REF\u002A\u002A*%
X345330040Y-85545080D03*
D15*
X335170040Y-85545080D03*
%TD*%
D12*
%TO.C,REF\u002A\u002A*%
X364485000Y-193942574D03*
D13*
X361945000Y-193942574D03*
%TD*%
D12*
%TO.C,REF\u002A\u002A*%
X331775040Y-100545080D03*
D13*
X329235040Y-100545080D03*
%TD*%
D21*
%TO.C,*%
X484250000Y67749926D03*
%TD*%
D12*
%TO.C,REF\u002A\u002A*%
X450275000Y-153170074D03*
D13*
X447735000Y-153170074D03*
%TD*%
D14*
%TO.C,REF\u002A\u002A*%
X471830000Y-138170074D03*
D15*
X461670000Y-138170074D03*
%TD*%
D14*
%TO.C,REF\u002A\u002A*%
X379999960Y44419932D03*
D15*
X379999960Y54579932D03*
%TD*%
D12*
%TO.C,REF\u002A\u002A*%
X331775040Y-130545080D03*
D13*
X329235040Y-130545080D03*
%TD*%
D14*
%TO.C,REF\u002A\u002A*%
X409999960Y44419932D03*
D15*
X409999960Y54579932D03*
%TD*%
D12*
%TO.C,REF\u002A\u002A*%
X450275000Y-78170074D03*
D13*
X447735000Y-78170074D03*
%TD*%
D12*
%TO.C,REF\u002A\u002A*%
X387489960Y59249932D03*
D13*
X384949960Y59249932D03*
%TD*%
D12*
%TO.C,REF\u002A\u002A*%
X331775040Y-93045080D03*
D13*
X329235040Y-93045080D03*
%TD*%
D14*
%TO.C,REF\u002A\u002A*%
X387250000Y-82250074D03*
D15*
X387250000Y-72090074D03*
%TD*%
D12*
%TO.C,REF\u002A\u002A*%
X332025000Y-33875074D03*
D13*
X329485000Y-33875074D03*
%TD*%
D14*
%TO.C,REF\u002A\u002A*%
X357249960Y44419932D03*
D15*
X357249960Y54579932D03*
%TD*%
D12*
%TO.C,REF\u002A\u002A*%
X332025000Y18624926D03*
D13*
X329485000Y18624926D03*
%TD*%
D12*
%TO.C,REF\u002A\u002A*%
X450524960Y18499932D03*
D13*
X447984960Y18499932D03*
%TD*%
D14*
%TO.C,REF\u002A\u002A*%
X345660000Y33624926D03*
D15*
X335500000Y33624926D03*
%TD*%
D12*
%TO.C,REF\u002A\u002A*%
X342025000Y-67420074D03*
D13*
X339485000Y-67420074D03*
%TD*%
D12*
%TO.C,REF\u002A\u002A*%
X458275000Y-115670074D03*
D13*
X455735000Y-115670074D03*
%TD*%
D14*
%TO.C,REF\u002A\u002A*%
X356865000Y-208772574D03*
D15*
X356865000Y-198612574D03*
%TD*%
D12*
%TO.C,REF\u002A\u002A*%
X357080000Y-59420074D03*
D13*
X354540000Y-59420074D03*
%TD*%
D12*
%TO.C,REF\u002A\u002A*%
X450275000Y-85670074D03*
D13*
X447735000Y-85670074D03*
%TD*%
D12*
%TO.C,REF\u002A\u002A*%
X458524960Y-41500068D03*
D13*
X455984960Y-41500068D03*
%TD*%
D12*
%TO.C,REF\u002A\u002A*%
X349540000Y-59420074D03*
D13*
X347000000Y-59420074D03*
%TD*%
D12*
%TO.C,REF\u002A\u002A*%
X324025000Y-11375074D03*
D13*
X321485000Y-11375074D03*
%TD*%
D12*
%TO.C,REF\u002A\u002A*%
X402569960Y59249932D03*
D13*
X400029960Y59249932D03*
%TD*%
D12*
%TO.C,REF\u002A\u002A*%
X402320000Y-59420074D03*
D13*
X399780000Y-59420074D03*
%TD*%
D12*
%TO.C,REF\u002A\u002A*%
X458275000Y-85670074D03*
D13*
X455735000Y-85670074D03*
%TD*%
D12*
%TO.C,REF\u002A\u002A*%
X394780000Y-59420074D03*
D13*
X392240000Y-59420074D03*
%TD*%
D12*
%TO.C,REF\u002A\u002A*%
X410109960Y59249932D03*
D13*
X407569960Y59249932D03*
%TD*%
D12*
%TO.C,REF\u002A\u002A*%
X379700000Y-67420074D03*
D13*
X377160000Y-67420074D03*
%TD*%
D12*
%TO.C,REF\u002A\u002A*%
X450524960Y40999932D03*
D13*
X447984960Y40999932D03*
%TD*%
D18*
%TO.C,REF\u002A\u002A*%
X412200000Y-177970000D03*
D19*
X412200000Y-188130000D03*
%TD*%
D12*
%TO.C,REF\u002A\u002A*%
X458275000Y-100670074D03*
D13*
X455735000Y-100670074D03*
%TD*%
D12*
%TO.C,REF\u002A\u002A*%
X323775040Y-130545080D03*
D13*
X321235040Y-130545080D03*
%TD*%
M02*
