M48
; DRILL file {KiCad (6.0.6)} date Fri Oct  7 01:41:10 2022
; FORMAT={-:-/ absolute / metric / decimal}
; #@! TF.CreationDate,2022-10-07T01:41:10+08:00
; #@! TF.GenerationSoftware,Kicad,Pcbnew,(6.0.6)
; #@! TF.FileFunction,Plated,1,2,PTH
FMAT,2
METRIC
; #@! TA.AperFunction,Plated,PTH,ComponentDrill
T1C0.600
; #@! TA.AperFunction,Plated,PTH,ComponentDrill
T2C0.700
; #@! TA.AperFunction,Plated,PTH,ComponentDrill
T3C0.800
; #@! TA.AperFunction,Plated,PTH,ComponentDrill
T4C0.900
; #@! TA.AperFunction,Plated,PTH,ComponentDrill
T5C1.000
; #@! TA.AperFunction,Plated,PTH,ComponentDrill
T6C4.000
%
G90
G05
T1
X303.25Y67.75
X303.25Y-203.25
X304.129Y69.871
X304.129Y65.629
X304.129Y-201.129
X304.129Y-205.371
X306.25Y70.75
X306.25Y64.75
X306.25Y-200.25
X306.25Y-206.25
X308.371Y69.871
X308.371Y65.629
X308.371Y-201.129
X308.371Y-205.371
X309.25Y67.75
X309.25Y-203.25
X481.25Y-203.25
X482.129Y-201.129
X482.129Y-205.371
X484.25Y-200.25
X484.25Y-206.25
X486.371Y-201.129
X486.371Y-205.371
X487.25Y-203.25
T2
X367.0Y-52.07
X367.0Y-62.23
X367.0Y-78.07
X367.0Y-88.23
X382.4Y-82.27
X382.4Y-92.43
X412.2Y-127.77
X412.2Y-137.93
X412.2Y-177.97
X412.2Y-188.13
X427.4Y-52.44
X427.4Y-62.6
X435.64Y-127.0
X437.44Y-104.4
X445.8Y-127.0
X447.6Y-104.4
T3
X335.17Y-78.045
X335.17Y-85.545
X335.17Y-108.045
X335.17Y-115.545
X335.17Y-130.545
X335.17Y-138.045
X335.17Y-153.045
X335.17Y-160.545
X335.17Y-175.545
X335.25Y-93.045
X335.42Y48.625
X335.42Y41.125
X335.42Y18.625
X335.42Y11.125
X335.42Y-3.875
X335.42Y-11.375
X335.42Y-26.375
X335.42Y-33.875
X335.42Y-48.875
X335.5Y33.625
X341.865Y-199.693
X342.0Y-73.17
X342.25Y53.5
X345.33Y-78.045
X345.33Y-85.545
X345.33Y-108.045
X345.33Y-115.545
X345.33Y-130.545
X345.33Y-138.045
X345.33Y-153.045
X345.33Y-160.545
X345.33Y-175.545
X345.41Y-93.045
X345.58Y48.625
X345.58Y41.125
X345.58Y18.625
X345.58Y11.125
X345.58Y-3.875
X345.58Y-11.375
X345.58Y-26.375
X345.58Y-33.875
X345.58Y-48.875
X345.66Y33.625
X352.025Y-199.693
X352.16Y-73.17
X352.41Y53.5
X356.865Y-198.613
X356.865Y-208.773
X357.0Y-72.09
X357.0Y-82.25
X357.25Y54.58
X357.25Y44.42
X364.365Y-198.613
X364.365Y-208.773
X364.5Y-72.09
X364.5Y-82.25
X364.75Y54.58
X364.75Y44.42
X379.615Y-198.613
X379.615Y-208.773
X379.75Y-72.09
X379.75Y-82.25
X380.0Y54.58
X380.0Y44.42
X387.115Y-198.613
X387.115Y-208.773
X387.25Y-72.09
X387.25Y-82.25
X387.5Y54.58
X387.5Y44.42
X402.115Y-198.613
X402.115Y-208.773
X402.25Y-72.09
X402.25Y-82.25
X402.5Y54.58
X402.5Y44.42
X409.615Y-198.613
X409.615Y-208.773
X409.75Y-72.09
X409.75Y-82.25
X410.0Y54.58
X410.0Y44.42
X424.865Y-198.613
X424.865Y-208.773
X425.0Y-72.09
X425.0Y-82.25
X425.25Y54.58
X425.25Y44.42
X432.365Y-198.613
X432.365Y-208.773
X432.5Y-72.09
X432.5Y-82.25
X432.75Y54.58
X432.75Y44.42
X437.365Y-198.613
X437.365Y-208.773
X437.5Y-72.09
X437.5Y-82.25
X437.75Y54.58
X437.75Y44.42
X461.67Y-78.17
X461.67Y-85.67
X461.67Y-108.17
X461.67Y-115.67
X461.67Y-130.67
X461.67Y-138.17
X461.67Y-153.17
X461.67Y-160.67
X461.67Y-175.67
X461.75Y-93.17
X461.92Y48.5
X461.92Y41.0
X461.92Y18.5
X461.92Y11.0
X461.92Y-4.0
X461.92Y-11.5
X461.92Y-26.5
X461.92Y-34.0
X461.92Y-49.0
X462.0Y33.5
X471.83Y-78.17
X471.83Y-85.67
X471.83Y-108.17
X471.83Y-115.67
X471.83Y-130.67
X471.83Y-138.17
X471.83Y-153.17
X471.83Y-160.67
X471.83Y-175.67
X471.91Y-93.17
X472.08Y48.5
X472.08Y41.0
X472.08Y18.5
X472.08Y11.0
X472.08Y-4.0
X472.08Y-11.5
X472.08Y-26.5
X472.08Y-34.0
X472.08Y-49.0
X472.16Y33.5
T4
X321.235Y-78.045
X321.235Y-85.545
X321.235Y-93.045
X321.235Y-100.545
X321.235Y-108.045
X321.235Y-115.545
X321.235Y-123.045
X321.235Y-130.545
X321.235Y-138.045
X321.235Y-145.545
X321.235Y-153.045
X321.235Y-160.545
X321.235Y-168.045
X321.235Y-175.545
X321.485Y48.625
X321.485Y41.125
X321.485Y33.625
X321.485Y26.125
X321.485Y18.625
X321.485Y11.125
X321.485Y3.625
X321.485Y-3.875
X321.485Y-11.375
X321.485Y-18.875
X321.485Y-26.375
X321.485Y-33.875
X321.485Y-41.375
X321.485Y-48.875
X323.775Y-78.045
X323.775Y-85.545
X323.775Y-93.045
X323.775Y-100.545
X323.775Y-108.045
X323.775Y-115.545
X323.775Y-123.045
X323.775Y-130.545
X323.775Y-138.045
X323.775Y-145.545
X323.775Y-153.045
X323.775Y-160.545
X323.775Y-168.045
X323.775Y-175.545
X324.025Y48.625
X324.025Y41.125
X324.025Y33.625
X324.025Y26.125
X324.025Y18.625
X324.025Y11.125
X324.025Y3.625
X324.025Y-3.875
X324.025Y-11.375
X324.025Y-18.875
X324.025Y-26.375
X324.025Y-33.875
X324.025Y-41.375
X324.025Y-48.875
X325.235Y-70.295
X325.235Y-183.295
X325.485Y56.375
X325.485Y-56.625
X327.775Y-70.295
X327.775Y-183.295
X328.025Y56.375
X328.025Y-56.625
X329.235Y-78.045
X329.235Y-85.545
X329.235Y-93.045
X329.235Y-100.545
X329.235Y-108.045
X329.235Y-115.545
X329.235Y-123.045
X329.235Y-130.545
X329.235Y-138.045
X329.235Y-145.545
X329.235Y-153.045
X329.235Y-160.545
X329.235Y-168.045
X329.235Y-175.545
X329.485Y48.625
X329.485Y41.125
X329.485Y33.625
X329.485Y26.125
X329.485Y18.625
X329.485Y11.125
X329.485Y3.625
X329.485Y-3.875
X329.485Y-11.375
X329.485Y-18.875
X329.485Y-26.375
X329.485Y-33.875
X329.485Y-41.375
X329.485Y-48.875
X331.775Y-78.045
X331.775Y-85.545
X331.775Y-93.045
X331.775Y-100.545
X331.775Y-108.045
X331.775Y-115.545
X331.775Y-123.045
X331.775Y-130.545
X331.775Y-138.045
X331.775Y-145.545
X331.775Y-153.045
X331.775Y-160.545
X331.775Y-168.045
X331.775Y-175.545
X331.85Y-189.943
X331.985Y-63.42
X332.025Y48.625
X332.025Y41.125
X332.025Y33.625
X332.025Y26.125
X332.025Y18.625
X332.025Y11.125
X332.025Y3.625
X332.025Y-3.875
X332.025Y-11.375
X332.025Y-18.875
X332.025Y-26.375
X332.025Y-33.875
X332.025Y-41.375
X332.025Y-48.875
X332.235Y63.25
X334.39Y-189.943
X334.525Y-63.42
X334.775Y63.25
X339.325Y-185.943
X339.35Y-193.943
X339.46Y-59.42
X339.485Y-67.42
X339.71Y67.25
X339.735Y59.25
X341.865Y-185.943
X341.89Y-193.943
X342.0Y-59.42
X342.025Y-67.42
X342.25Y67.25
X342.275Y59.25
X346.865Y-185.943
X346.865Y-193.943
X347.0Y-59.42
X347.0Y-67.42
X347.25Y67.25
X347.25Y59.25
X349.405Y-185.943
X349.405Y-193.943
X349.54Y-59.42
X349.54Y-67.42
X349.79Y67.25
X349.79Y59.25
X354.405Y-185.943
X354.405Y-193.943
X354.54Y-59.42
X354.54Y-67.42
X354.79Y67.25
X354.79Y59.25
X356.945Y-185.943
X356.945Y-193.943
X357.08Y-59.42
X357.08Y-67.42
X357.33Y67.25
X357.33Y59.25
X361.945Y-185.943
X361.945Y-193.943
X362.08Y-59.42
X362.08Y-67.42
X362.33Y67.25
X362.33Y59.25
X364.485Y-185.943
X364.485Y-193.943
X364.62Y-59.42
X364.62Y-67.42
X364.87Y67.25
X364.87Y59.25
X369.485Y-185.943
X369.485Y-193.943
X369.62Y-59.42
X369.62Y-67.42
X369.87Y67.25
X369.87Y59.25
X372.025Y-185.943
X372.025Y-193.943
X372.16Y-59.42
X372.16Y-67.42
X372.41Y67.25
X372.41Y59.25
X377.025Y-185.943
X377.025Y-193.943
X377.16Y-59.42
X377.16Y-67.42
X377.41Y67.25
X377.41Y59.25
X379.565Y-185.943
X379.565Y-193.943
X379.7Y-59.42
X379.7Y-67.42
X379.95Y67.25
X379.95Y59.25
X384.565Y-185.943
X384.565Y-193.943
X384.7Y-59.42
X384.7Y-67.42
X384.95Y67.25
X384.95Y59.25
X387.105Y-185.943
X387.105Y-193.943
X387.24Y-59.42
X387.24Y-67.42
X387.49Y67.25
X387.49Y59.25
X392.105Y-185.943
X392.105Y-193.943
X392.24Y-59.42
X392.24Y-67.42
X392.49Y67.25
X392.49Y59.25
X394.645Y-185.943
X394.645Y-193.943
X394.78Y-59.42
X394.78Y-67.42
X395.03Y67.25
X395.03Y59.25
X399.645Y-185.943
X399.645Y-193.943
X399.78Y-59.42
X399.78Y-67.42
X400.03Y67.25
X400.03Y59.25
X402.185Y-185.943
X402.185Y-193.943
X402.32Y-59.42
X402.32Y-67.42
X402.57Y67.25
X402.57Y59.25
X407.185Y-185.943
X407.185Y-193.943
X407.32Y-59.42
X407.32Y-67.42
X407.57Y67.25
X407.57Y59.25
X409.725Y-185.943
X409.725Y-193.943
X409.86Y-59.42
X409.86Y-67.42
X410.11Y67.25
X410.11Y59.25
X414.725Y-185.943
X414.725Y-193.943
X414.86Y-59.42
X414.86Y-67.42
X415.11Y67.25
X415.11Y59.25
X417.265Y-185.943
X417.265Y-193.943
X417.4Y-59.42
X417.4Y-67.42
X417.65Y67.25
X417.65Y59.25
X422.265Y-185.943
X422.265Y-193.943
X422.4Y-59.42
X422.4Y-67.42
X422.65Y67.25
X422.65Y59.25
X424.805Y-185.943
X424.805Y-193.943
X424.94Y-59.42
X424.94Y-67.42
X425.19Y67.25
X425.19Y59.25
X429.805Y-185.943
X429.805Y-193.943
X429.94Y-59.42
X429.94Y-67.42
X430.19Y67.25
X430.19Y59.25
X432.345Y-185.943
X432.345Y-193.943
X432.48Y-59.42
X432.48Y-67.42
X432.73Y67.25
X432.73Y59.25
X437.345Y-185.943
X437.345Y-193.943
X437.48Y-59.42
X437.48Y-67.42
X437.73Y67.25
X437.73Y59.25
X439.885Y-185.943
X439.885Y-193.943
X440.02Y-59.42
X440.02Y-67.42
X440.27Y67.25
X440.27Y59.25
X444.865Y-190.193
X445.0Y-63.67
X445.25Y63.0
X447.405Y-190.193
X447.54Y-63.67
X447.735Y-78.17
X447.735Y-85.67
X447.735Y-93.17
X447.735Y-100.67
X447.735Y-108.17
X447.735Y-115.67
X447.735Y-123.17
X447.735Y-130.67
X447.735Y-138.17
X447.735Y-145.67
X447.735Y-153.17
X447.735Y-160.67
X447.735Y-168.17
X447.735Y-175.67
X447.79Y63.0
X447.985Y48.5
X447.985Y41.0
X447.985Y33.5
X447.985Y26.0
X447.985Y18.5
X447.985Y11.0
X447.985Y3.5
X447.985Y-4.0
X447.985Y-11.5
X447.985Y-19.0
X447.985Y-26.5
X447.985Y-34.0
X447.985Y-41.5
X447.985Y-49.0
X450.275Y-78.17
X450.275Y-85.67
X450.275Y-93.17
X450.275Y-100.67
X450.275Y-108.17
X450.275Y-115.67
X450.275Y-123.17
X450.275Y-130.67
X450.275Y-138.17
X450.275Y-145.67
X450.275Y-153.17
X450.275Y-160.67
X450.275Y-168.17
X450.275Y-175.67
X450.525Y48.5
X450.525Y41.0
X450.525Y33.5
X450.525Y26.0
X450.525Y18.5
X450.525Y11.0
X450.525Y3.5
X450.525Y-4.0
X450.525Y-11.5
X450.525Y-19.0
X450.525Y-26.5
X450.525Y-34.0
X450.525Y-41.5
X450.525Y-49.0
X451.735Y-70.42
X451.735Y-183.42
X451.985Y56.25
X451.985Y-56.75
X454.275Y-70.42
X454.275Y-183.42
X454.525Y56.25
X454.525Y-56.75
X455.735Y-78.17
X455.735Y-85.67
X455.735Y-93.17
X455.735Y-100.67
X455.735Y-108.17
X455.735Y-115.67
X455.735Y-123.17
X455.735Y-130.67
X455.735Y-138.17
X455.735Y-145.67
X455.735Y-153.17
X455.735Y-160.67
X455.735Y-168.17
X455.735Y-175.67
X455.985Y48.5
X455.985Y41.0
X455.985Y33.5
X455.985Y26.0
X455.985Y18.5
X455.985Y11.0
X455.985Y3.5
X455.985Y-4.0
X455.985Y-11.5
X455.985Y-19.0
X455.985Y-26.5
X455.985Y-34.0
X455.985Y-41.5
X455.985Y-49.0
X458.275Y-78.17
X458.275Y-85.67
X458.275Y-93.17
X458.275Y-100.67
X458.275Y-108.17
X458.275Y-115.67
X458.275Y-123.17
X458.275Y-130.67
X458.275Y-138.17
X458.275Y-145.67
X458.275Y-153.17
X458.275Y-160.67
X458.275Y-168.17
X458.275Y-175.67
X458.525Y48.5
X458.525Y41.0
X458.525Y33.5
X458.525Y26.0
X458.525Y18.5
X458.525Y11.0
X458.525Y3.5
X458.525Y-4.0
X458.525Y-11.5
X458.525Y-19.0
X458.525Y-26.5
X458.525Y-34.0
X458.525Y-41.5
X458.525Y-49.0
T5
X387.06Y-140.6
X387.095Y-145.4
X389.6Y-140.6
X389.635Y-145.4
X392.14Y-140.6
X392.175Y-145.4
X394.68Y-140.6
X394.715Y-145.4
X397.22Y-140.6
X397.255Y-145.4
X399.76Y-140.6
X399.795Y-145.4
X402.3Y-140.6
X402.335Y-145.4
X404.84Y-140.6
X404.875Y-145.4
T6
X306.25Y67.75
X306.25Y-203.25
X484.25Y67.75
X484.25Y-203.25
T0
M30
