%TF.GenerationSoftware,KiCad,Pcbnew,(6.0.6)*%
%TF.CreationDate,2022-10-07T01:41:05+08:00*%
%TF.ProjectId,7SegmentDisplay_DualLine_NoDriver_10Inches(2),37536567-6d65-46e7-9444-6973706c6179,rev?*%
%TF.SameCoordinates,Original*%
%TF.FileFunction,Copper,L1,Top*%
%TF.FilePolarity,Positive*%
%FSLAX46Y46*%
G04 Gerber Fmt 4.6, Leading zero omitted, Abs format (unit mm)*
G04 Created by KiCad (PCBNEW (6.0.6)) date 2022-10-07 01:41:05*
%MOMM*%
%LPD*%
G01*
G04 APERTURE LIST*
%TA.AperFunction,ComponentPad*%
%ADD10R,1.800000X1.800000*%
%TD*%
%TA.AperFunction,ComponentPad*%
%ADD11C,1.800000*%
%TD*%
%TA.AperFunction,ComponentPad*%
%ADD12C,1.600000*%
%TD*%
%TA.AperFunction,ComponentPad*%
%ADD13O,1.600000X1.600000*%
%TD*%
%TA.AperFunction,ComponentPad*%
%ADD14R,1.700000X1.700000*%
%TD*%
%TA.AperFunction,ComponentPad*%
%ADD15O,1.700000X1.700000*%
%TD*%
%TA.AperFunction,ComponentPad*%
%ADD16C,1.400000*%
%TD*%
%TA.AperFunction,ComponentPad*%
%ADD17O,1.400000X1.400000*%
%TD*%
%TA.AperFunction,ComponentPad*%
%ADD18C,0.900000*%
%TD*%
%TA.AperFunction,ComponentPad*%
%ADD19C,8.000000*%
%TD*%
%TA.AperFunction,Conductor*%
%ADD20C,1.524000*%
%TD*%
G04 APERTURE END LIST*
D10*
%TO.P,REF\u002A\u002A,1*%
%TO.N,N/C*%
X372025000Y-193942574D03*
D11*
%TO.P,REF\u002A\u002A,2*%
X369485000Y-193942574D03*
%TD*%
D10*
%TO.P,REF\u002A\u002A,1*%
%TO.N,N/C*%
X372160000Y-67420074D03*
D11*
%TO.P,REF\u002A\u002A,2*%
X369620000Y-67420074D03*
%TD*%
D10*
%TO.P,REF\u002A\u002A,1*%
%TO.N,N/C*%
X458524960Y40999932D03*
D11*
%TO.P,REF\u002A\u002A,2*%
X455984960Y40999932D03*
%TD*%
D10*
%TO.P,REF\u002A\u002A,1*%
%TO.N,N/C*%
X323775040Y-175545080D03*
D11*
%TO.P,REF\u002A\u002A,2*%
X321235040Y-175545080D03*
%TD*%
D10*
%TO.P,REF\u002A\u002A,1*%
%TO.N,N/C*%
X432345000Y-193942574D03*
D11*
%TO.P,REF\u002A\u002A,2*%
X429805000Y-193942574D03*
%TD*%
D10*
%TO.P,REF\u002A\u002A,1*%
%TO.N,N/C*%
X450524960Y-19000068D03*
D11*
%TO.P,REF\u002A\u002A,2*%
X447984960Y-19000068D03*
%TD*%
D10*
%TO.P,REF\u002A\u002A,1*%
%TO.N,N/C*%
X327775040Y-183295080D03*
D11*
%TO.P,REF\u002A\u002A,2*%
X325235040Y-183295080D03*
%TD*%
D10*
%TO.P,REF\u002A\u002A,1*%
%TO.N,N/C*%
X323775040Y-100545080D03*
D11*
%TO.P,REF\u002A\u002A,2*%
X321235040Y-100545080D03*
%TD*%
D12*
%TO.P,REF\u002A\u002A,1*%
%TO.N,N/C*%
X345580000Y-48875074D03*
D13*
%TO.P,REF\u002A\u002A,2*%
X335420000Y-48875074D03*
%TD*%
D10*
%TO.P,REF\u002A\u002A,1*%
%TO.N,N/C*%
X450275000Y-160670074D03*
D11*
%TO.P,REF\u002A\u002A,2*%
X447735000Y-160670074D03*
%TD*%
D12*
%TO.P,REF\u002A\u002A,1*%
%TO.N,N/C*%
X352025000Y-199692574D03*
D13*
%TO.P,REF\u002A\u002A,2*%
X341865000Y-199692574D03*
%TD*%
D10*
%TO.P,REF\u002A\u002A,1*%
%TO.N,N/C*%
X440269960Y59249932D03*
D11*
%TO.P,REF\u002A\u002A,2*%
X437729960Y59249932D03*
%TD*%
D10*
%TO.P,REF\u002A\u002A,1*%
%TO.N,N/C*%
X324025000Y-26375074D03*
D11*
%TO.P,REF\u002A\u002A,2*%
X321485000Y-26375074D03*
%TD*%
D12*
%TO.P,REF\u002A\u002A,1*%
%TO.N,N/C*%
X471830000Y-78170074D03*
D13*
%TO.P,REF\u002A\u002A,2*%
X461670000Y-78170074D03*
%TD*%
D10*
%TO.P,REF\u002A\u002A,1*%
%TO.N,N/C*%
X447540000Y-63670074D03*
D11*
%TO.P,REF\u002A\u002A,2*%
X445000000Y-63670074D03*
%TD*%
D10*
%TO.P,REF\u002A\u002A,1*%
%TO.N,N/C*%
X379949960Y67249932D03*
D11*
%TO.P,REF\u002A\u002A,2*%
X377409960Y67249932D03*
%TD*%
D10*
%TO.P,REF\u002A\u002A,1*%
%TO.N,N/C*%
X424805000Y-193942574D03*
D11*
%TO.P,REF\u002A\u002A,2*%
X422265000Y-193942574D03*
%TD*%
D10*
%TO.P,REF\u002A\u002A,1*%
%TO.N,N/C*%
X379700000Y-59420074D03*
D11*
%TO.P,REF\u002A\u002A,2*%
X377160000Y-59420074D03*
%TD*%
D10*
%TO.P,REF\u002A\u002A,1*%
%TO.N,N/C*%
X424805000Y-185942574D03*
D11*
%TO.P,REF\u002A\u002A,2*%
X422265000Y-185942574D03*
%TD*%
D10*
%TO.P,REF\u002A\u002A,1*%
%TO.N,N/C*%
X458524960Y33499932D03*
D11*
%TO.P,REF\u002A\u002A,2*%
X455984960Y33499932D03*
%TD*%
D10*
%TO.P,REF\u002A\u002A,1*%
%TO.N,N/C*%
X331775040Y-85545080D03*
D11*
%TO.P,REF\u002A\u002A,2*%
X329235040Y-85545080D03*
%TD*%
D10*
%TO.P,REF\u002A\u002A,1*%
%TO.N,N/C*%
X331775040Y-78045080D03*
D11*
%TO.P,REF\u002A\u002A,2*%
X329235040Y-78045080D03*
%TD*%
D10*
%TO.P,REF\u002A\u002A,1*%
%TO.N,N/C*%
X458275000Y-138170074D03*
D11*
%TO.P,REF\u002A\u002A,2*%
X455735000Y-138170074D03*
%TD*%
D10*
%TO.P,REF\u002A\u002A,1*%
%TO.N,N/C*%
X447789960Y62999932D03*
D11*
%TO.P,REF\u002A\u002A,2*%
X445249960Y62999932D03*
%TD*%
D10*
%TO.P,REF\u002A\u002A,1*%
%TO.N,N/C*%
X424940000Y-59420074D03*
D11*
%TO.P,REF\u002A\u002A,2*%
X422400000Y-59420074D03*
%TD*%
D10*
%TO.P,REF\u002A\u002A,1*%
%TO.N,N/C*%
X323775040Y-115545080D03*
D11*
%TO.P,REF\u002A\u002A,2*%
X321235040Y-115545080D03*
%TD*%
D10*
%TO.P,REF\u002A\u002A,1*%
%TO.N,N/C*%
X332025000Y-48875074D03*
D11*
%TO.P,REF\u002A\u002A,2*%
X329485000Y-48875074D03*
%TD*%
D10*
%TO.P,REF\u002A\u002A,1*%
%TO.N,N/C*%
X432345000Y-185942574D03*
D11*
%TO.P,REF\u002A\u002A,2*%
X429805000Y-185942574D03*
%TD*%
D10*
%TO.P,REF\u002A\u002A,1*%
%TO.N,N/C*%
X425189960Y59249932D03*
D11*
%TO.P,REF\u002A\u002A,2*%
X422649960Y59249932D03*
%TD*%
D10*
%TO.P,REF\u002A\u002A,1*%
%TO.N,N/C*%
X450524960Y-41500068D03*
D11*
%TO.P,REF\u002A\u002A,2*%
X447984960Y-41500068D03*
%TD*%
D10*
%TO.P,REF\u002A\u002A,1*%
%TO.N,N/C*%
X417649960Y59249932D03*
D11*
%TO.P,REF\u002A\u002A,2*%
X415109960Y59249932D03*
%TD*%
D14*
%TO.P,REF\u002A\u002A,1*%
%TO.N,N/C*%
X404840000Y-140600000D03*
D15*
%TO.P,REF\u002A\u002A,2*%
X402300000Y-140600000D03*
%TO.P,REF\u002A\u002A,3*%
X399760000Y-140600000D03*
%TO.P,REF\u002A\u002A,4*%
X397220000Y-140600000D03*
%TO.P,REF\u002A\u002A,5*%
X394680000Y-140600000D03*
%TO.P,REF\u002A\u002A,6*%
X392140000Y-140600000D03*
%TO.P,REF\u002A\u002A,7*%
X389600000Y-140600000D03*
%TO.P,REF\u002A\u002A,8*%
X387060000Y-140600000D03*
%TD*%
D10*
%TO.P,REF\u002A\u002A,1*%
%TO.N,N/C*%
X458524960Y-4000068D03*
D11*
%TO.P,REF\u002A\u002A,2*%
X455984960Y-4000068D03*
%TD*%
D10*
%TO.P,REF\u002A\u002A,1*%
%TO.N,N/C*%
X387240000Y-67420074D03*
D11*
%TO.P,REF\u002A\u002A,2*%
X384700000Y-67420074D03*
%TD*%
D10*
%TO.P,REF\u002A\u002A,1*%
%TO.N,N/C*%
X439885000Y-185942574D03*
D11*
%TO.P,REF\u002A\u002A,2*%
X437345000Y-185942574D03*
%TD*%
D12*
%TO.P,REF\u002A\u002A,1*%
%TO.N,N/C*%
X425000000Y-82250074D03*
D13*
%TO.P,REF\u002A\u002A,2*%
X425000000Y-72090074D03*
%TD*%
D12*
%TO.P,REF\u002A\u002A,1*%
%TO.N,N/C*%
X472079960Y-26500068D03*
D13*
%TO.P,REF\u002A\u002A,2*%
X461919960Y-26500068D03*
%TD*%
D10*
%TO.P,REF\u002A\u002A,1*%
%TO.N,N/C*%
X450524960Y-26500068D03*
D11*
%TO.P,REF\u002A\u002A,2*%
X447984960Y-26500068D03*
%TD*%
D10*
%TO.P,REF\u002A\u002A,1*%
%TO.N,N/C*%
X454524960Y56249932D03*
D11*
%TO.P,REF\u002A\u002A,2*%
X451984960Y56249932D03*
%TD*%
D10*
%TO.P,REF\u002A\u002A,1*%
%TO.N,N/C*%
X372409960Y67249932D03*
D11*
%TO.P,REF\u002A\u002A,2*%
X369869960Y67249932D03*
%TD*%
D10*
%TO.P,REF\u002A\u002A,1*%
%TO.N,N/C*%
X331775040Y-145545080D03*
D11*
%TO.P,REF\u002A\u002A,2*%
X329235040Y-145545080D03*
%TD*%
D16*
%TO.P,REF\u002A\u002A,1*%
%TO.N,N/C*%
X367000000Y-62230000D03*
D17*
%TO.P,REF\u002A\u002A,2*%
X367000000Y-52070000D03*
%TD*%
D10*
%TO.P,REF\u002A\u002A,1*%
%TO.N,N/C*%
X323775040Y-160545080D03*
D11*
%TO.P,REF\u002A\u002A,2*%
X321235040Y-160545080D03*
%TD*%
D10*
%TO.P,REF\u002A\u002A,1*%
%TO.N,N/C*%
X450524960Y48499932D03*
D11*
%TO.P,REF\u002A\u002A,2*%
X447984960Y48499932D03*
%TD*%
D12*
%TO.P,REF\u002A\u002A,1*%
%TO.N,N/C*%
X345330040Y-78045080D03*
D13*
%TO.P,REF\u002A\u002A,2*%
X335170040Y-78045080D03*
%TD*%
D12*
%TO.P,REF\u002A\u002A,1*%
%TO.N,N/C*%
X387115000Y-208772574D03*
D13*
%TO.P,REF\u002A\u002A,2*%
X387115000Y-198612574D03*
%TD*%
D10*
%TO.P,REF\u002A\u002A,1*%
%TO.N,N/C*%
X331775040Y-123045080D03*
D11*
%TO.P,REF\u002A\u002A,2*%
X329235040Y-123045080D03*
%TD*%
D10*
%TO.P,REF\u002A\u002A,1*%
%TO.N,N/C*%
X364869960Y67249932D03*
D11*
%TO.P,REF\u002A\u002A,2*%
X362329960Y67249932D03*
%TD*%
D10*
%TO.P,REF\u002A\u002A,1*%
%TO.N,N/C*%
X394645000Y-193942574D03*
D11*
%TO.P,REF\u002A\u002A,2*%
X392105000Y-193942574D03*
%TD*%
D10*
%TO.P,REF\u002A\u002A,1*%
%TO.N,N/C*%
X450524960Y-11500068D03*
D11*
%TO.P,REF\u002A\u002A,2*%
X447984960Y-11500068D03*
%TD*%
D10*
%TO.P,REF\u002A\u002A,1*%
%TO.N,N/C*%
X332025000Y3624926D03*
D11*
%TO.P,REF\u002A\u002A,2*%
X329485000Y3624926D03*
%TD*%
D12*
%TO.P,REF\u002A\u002A,1*%
%TO.N,N/C*%
X387499960Y44419932D03*
D13*
%TO.P,REF\u002A\u002A,2*%
X387499960Y54579932D03*
%TD*%
D12*
%TO.P,REF\u002A\u002A,1*%
%TO.N,N/C*%
X345580000Y41124926D03*
D13*
%TO.P,REF\u002A\u002A,2*%
X335420000Y41124926D03*
%TD*%
D12*
%TO.P,REF\u002A\u002A,1*%
%TO.N,N/C*%
X437365000Y-208772574D03*
D13*
%TO.P,REF\u002A\u002A,2*%
X437365000Y-198612574D03*
%TD*%
D10*
%TO.P,REF\u002A\u002A,1*%
%TO.N,N/C*%
X458524960Y25999932D03*
D11*
%TO.P,REF\u002A\u002A,2*%
X455984960Y25999932D03*
%TD*%
D16*
%TO.P,REF\u002A\u002A,1*%
%TO.N,N/C*%
X445800000Y-127000000D03*
D17*
%TO.P,REF\u002A\u002A,2*%
X435640000Y-127000000D03*
%TD*%
D10*
%TO.P,REF\u002A\u002A,1*%
%TO.N,N/C*%
X432480000Y-59420074D03*
D11*
%TO.P,REF\u002A\u002A,2*%
X429940000Y-59420074D03*
%TD*%
D10*
%TO.P,REF\u002A\u002A,1*%
%TO.N,N/C*%
X395029960Y67249932D03*
D11*
%TO.P,REF\u002A\u002A,2*%
X392489960Y67249932D03*
%TD*%
D10*
%TO.P,REF\u002A\u002A,1*%
%TO.N,N/C*%
X417265000Y-193942574D03*
D11*
%TO.P,REF\u002A\u002A,2*%
X414725000Y-193942574D03*
%TD*%
D12*
%TO.P,REF\u002A\u002A,1*%
%TO.N,N/C*%
X472079960Y48499932D03*
D13*
%TO.P,REF\u002A\u002A,2*%
X461919960Y48499932D03*
%TD*%
D12*
%TO.P,REF\u002A\u002A,1*%
%TO.N,N/C*%
X345330040Y-108045080D03*
D13*
%TO.P,REF\u002A\u002A,2*%
X335170040Y-108045080D03*
%TD*%
D10*
%TO.P,REF\u002A\u002A,1*%
%TO.N,N/C*%
X450524960Y3499932D03*
D11*
%TO.P,REF\u002A\u002A,2*%
X447984960Y3499932D03*
%TD*%
D16*
%TO.P,REF\u002A\u002A,1*%
%TO.N,N/C*%
X412200000Y-127770000D03*
D17*
%TO.P,REF\u002A\u002A,2*%
X412200000Y-137930000D03*
%TD*%
D16*
%TO.P,REF\u002A\u002A,1*%
%TO.N,N/C*%
X382400000Y-92430000D03*
D17*
%TO.P,REF\u002A\u002A,2*%
X382400000Y-82270000D03*
%TD*%
D10*
%TO.P,REF\u002A\u002A,1*%
%TO.N,N/C*%
X450524960Y-34000068D03*
D11*
%TO.P,REF\u002A\u002A,2*%
X447984960Y-34000068D03*
%TD*%
D10*
%TO.P,REF\u002A\u002A,1*%
%TO.N,N/C*%
X450275000Y-93170074D03*
D11*
%TO.P,REF\u002A\u002A,2*%
X447735000Y-93170074D03*
%TD*%
D10*
%TO.P,REF\u002A\u002A,1*%
%TO.N,N/C*%
X394780000Y-67420074D03*
D11*
%TO.P,REF\u002A\u002A,2*%
X392240000Y-67420074D03*
%TD*%
D10*
%TO.P,REF\u002A\u002A,1*%
%TO.N,N/C*%
X331775040Y-115545080D03*
D11*
%TO.P,REF\u002A\u002A,2*%
X329235040Y-115545080D03*
%TD*%
D10*
%TO.P,REF\u002A\u002A,1*%
%TO.N,N/C*%
X324025000Y-3875074D03*
D11*
%TO.P,REF\u002A\u002A,2*%
X321485000Y-3875074D03*
%TD*%
D10*
%TO.P,REF\u002A\u002A,1*%
%TO.N,N/C*%
X332025000Y-18875074D03*
D11*
%TO.P,REF\u002A\u002A,2*%
X329485000Y-18875074D03*
%TD*%
D10*
%TO.P,REF\u002A\u002A,1*%
%TO.N,N/C*%
X332025000Y-41375074D03*
D11*
%TO.P,REF\u002A\u002A,2*%
X329485000Y-41375074D03*
%TD*%
D10*
%TO.P,REF\u002A\u002A,1*%
%TO.N,N/C*%
X450275000Y-108170074D03*
D11*
%TO.P,REF\u002A\u002A,2*%
X447735000Y-108170074D03*
%TD*%
D10*
%TO.P,REF\u002A\u002A,1*%
%TO.N,N/C*%
X458275000Y-175670074D03*
D11*
%TO.P,REF\u002A\u002A,2*%
X455735000Y-175670074D03*
%TD*%
D10*
%TO.P,REF\u002A\u002A,1*%
%TO.N,N/C*%
X387105000Y-193942574D03*
D11*
%TO.P,REF\u002A\u002A,2*%
X384565000Y-193942574D03*
%TD*%
D10*
%TO.P,REF\u002A\u002A,1*%
%TO.N,N/C*%
X387240000Y-59420074D03*
D11*
%TO.P,REF\u002A\u002A,2*%
X384700000Y-59420074D03*
%TD*%
D10*
%TO.P,REF\u002A\u002A,1*%
%TO.N,N/C*%
X439885000Y-193942574D03*
D11*
%TO.P,REF\u002A\u002A,2*%
X437345000Y-193942574D03*
%TD*%
D10*
%TO.P,REF\u002A\u002A,1*%
%TO.N,N/C*%
X458275000Y-93170074D03*
D11*
%TO.P,REF\u002A\u002A,2*%
X455735000Y-93170074D03*
%TD*%
D10*
%TO.P,REF\u002A\u002A,1*%
%TO.N,N/C*%
X450524960Y25999932D03*
D11*
%TO.P,REF\u002A\u002A,2*%
X447984960Y25999932D03*
%TD*%
D18*
%TO.P,REF\u002A\u002A,1*%
%TO.N,N/C*%
X484250000Y-206250074D03*
X487250000Y-203250074D03*
X482128680Y-205371394D03*
X481250000Y-203250074D03*
X482128680Y-201128754D03*
X484250000Y-200250074D03*
X486371320Y-201128754D03*
X486371320Y-205371394D03*
D19*
X484250000Y-203250074D03*
%TD*%
D18*
%TO.P,REF\u002A\u002A,1*%
%TO.N,N/C*%
X304128680Y69871246D03*
X304128680Y65628606D03*
D19*
X306250000Y67749926D03*
D18*
X306250000Y64749926D03*
X308371320Y65628606D03*
X309250000Y67749926D03*
X306250000Y70749926D03*
X303250000Y67749926D03*
X308371320Y69871246D03*
%TD*%
D10*
%TO.P,REF\u002A\u002A,1*%
%TO.N,N/C*%
X409725000Y-185942574D03*
D11*
%TO.P,REF\u002A\u002A,2*%
X407185000Y-185942574D03*
%TD*%
D10*
%TO.P,REF\u002A\u002A,1*%
%TO.N,N/C*%
X410109960Y67249932D03*
D11*
%TO.P,REF\u002A\u002A,2*%
X407569960Y67249932D03*
%TD*%
D10*
%TO.P,REF\u002A\u002A,1*%
%TO.N,N/C*%
X324025000Y41124926D03*
D11*
%TO.P,REF\u002A\u002A,2*%
X321485000Y41124926D03*
%TD*%
D12*
%TO.P,REF\u002A\u002A,1*%
%TO.N,N/C*%
X472079960Y-34000068D03*
D13*
%TO.P,REF\u002A\u002A,2*%
X461919960Y-34000068D03*
%TD*%
D10*
%TO.P,REF\u002A\u002A,1*%
%TO.N,N/C*%
X432480000Y-67420074D03*
D11*
%TO.P,REF\u002A\u002A,2*%
X429940000Y-67420074D03*
%TD*%
D12*
%TO.P,REF\u002A\u002A,1*%
%TO.N,N/C*%
X472079960Y40999932D03*
D13*
%TO.P,REF\u002A\u002A,2*%
X461919960Y40999932D03*
%TD*%
D10*
%TO.P,REF\u002A\u002A,1*%
%TO.N,N/C*%
X425189960Y67249932D03*
D11*
%TO.P,REF\u002A\u002A,2*%
X422649960Y67249932D03*
%TD*%
D12*
%TO.P,REF\u002A\u002A,1*%
%TO.N,N/C*%
X472079960Y-4000068D03*
D13*
%TO.P,REF\u002A\u002A,2*%
X461919960Y-4000068D03*
%TD*%
D10*
%TO.P,REF\u002A\u002A,1*%
%TO.N,N/C*%
X324025000Y3624926D03*
D11*
%TO.P,REF\u002A\u002A,2*%
X321485000Y3624926D03*
%TD*%
D10*
%TO.P,REF\u002A\u002A,1*%
%TO.N,N/C*%
X324025000Y18624926D03*
D11*
%TO.P,REF\u002A\u002A,2*%
X321485000Y18624926D03*
%TD*%
D10*
%TO.P,REF\u002A\u002A,1*%
%TO.N,N/C*%
X450275000Y-100670074D03*
D11*
%TO.P,REF\u002A\u002A,2*%
X447735000Y-100670074D03*
%TD*%
D12*
%TO.P,REF\u002A\u002A,1*%
%TO.N,N/C*%
X364365000Y-208772574D03*
D13*
%TO.P,REF\u002A\u002A,2*%
X364365000Y-198612574D03*
%TD*%
D12*
%TO.P,REF\u002A\u002A,1*%
%TO.N,N/C*%
X471830000Y-115670074D03*
D13*
%TO.P,REF\u002A\u002A,2*%
X461670000Y-115670074D03*
%TD*%
D10*
%TO.P,REF\u002A\u002A,1*%
%TO.N,N/C*%
X341865000Y-185942574D03*
D11*
%TO.P,REF\u002A\u002A,2*%
X339325000Y-185942574D03*
%TD*%
D10*
%TO.P,REF\u002A\u002A,1*%
%TO.N,N/C*%
X356945000Y-193942574D03*
D11*
%TO.P,REF\u002A\u002A,2*%
X354405000Y-193942574D03*
%TD*%
D10*
%TO.P,REF\u002A\u002A,1*%
%TO.N,N/C*%
X379949960Y59249932D03*
D11*
%TO.P,REF\u002A\u002A,2*%
X377409960Y59249932D03*
%TD*%
D10*
%TO.P,REF\u002A\u002A,1*%
%TO.N,N/C*%
X440020000Y-67420074D03*
D11*
%TO.P,REF\u002A\u002A,2*%
X437480000Y-67420074D03*
%TD*%
D10*
%TO.P,REF\u002A\u002A,1*%
%TO.N,N/C*%
X458524960Y-34000068D03*
D11*
%TO.P,REF\u002A\u002A,2*%
X455984960Y-34000068D03*
%TD*%
D10*
%TO.P,REF\u002A\u002A,1*%
%TO.N,N/C*%
X328025000Y56374926D03*
D11*
%TO.P,REF\u002A\u002A,2*%
X325485000Y56374926D03*
%TD*%
D12*
%TO.P,REF\u002A\u002A,1*%
%TO.N,N/C*%
X471910000Y-93170074D03*
D13*
%TO.P,REF\u002A\u002A,2*%
X461750000Y-93170074D03*
%TD*%
D10*
%TO.P,REF\u002A\u002A,1*%
%TO.N,N/C*%
X409860000Y-59420074D03*
D11*
%TO.P,REF\u002A\u002A,2*%
X407320000Y-59420074D03*
%TD*%
D12*
%TO.P,REF\u002A\u002A,1*%
%TO.N,N/C*%
X472079960Y-11500068D03*
D13*
%TO.P,REF\u002A\u002A,2*%
X461919960Y-11500068D03*
%TD*%
D10*
%TO.P,REF\u002A\u002A,1*%
%TO.N,N/C*%
X450275000Y-145670074D03*
D11*
%TO.P,REF\u002A\u002A,2*%
X447735000Y-145670074D03*
%TD*%
D10*
%TO.P,REF\u002A\u002A,1*%
%TO.N,N/C*%
X440020000Y-59420074D03*
D11*
%TO.P,REF\u002A\u002A,2*%
X437480000Y-59420074D03*
%TD*%
D10*
%TO.P,REF\u002A\u002A,1*%
%TO.N,N/C*%
X331775040Y-175545080D03*
D11*
%TO.P,REF\u002A\u002A,2*%
X329235040Y-175545080D03*
%TD*%
D12*
%TO.P,REF\u002A\u002A,1*%
%TO.N,N/C*%
X471830000Y-108170074D03*
D13*
%TO.P,REF\u002A\u002A,2*%
X461670000Y-108170074D03*
%TD*%
D12*
%TO.P,REF\u002A\u002A,1*%
%TO.N,N/C*%
X472079960Y18499932D03*
D13*
%TO.P,REF\u002A\u002A,2*%
X461919960Y18499932D03*
%TD*%
D10*
%TO.P,REF\u002A\u002A,1*%
%TO.N,N/C*%
X450275000Y-123170074D03*
D11*
%TO.P,REF\u002A\u002A,2*%
X447735000Y-123170074D03*
%TD*%
D10*
%TO.P,REF\u002A\u002A,1*%
%TO.N,N/C*%
X394645000Y-185942574D03*
D11*
%TO.P,REF\u002A\u002A,2*%
X392105000Y-185942574D03*
%TD*%
D10*
%TO.P,REF\u002A\u002A,1*%
%TO.N,N/C*%
X332025000Y41124926D03*
D11*
%TO.P,REF\u002A\u002A,2*%
X329485000Y41124926D03*
%TD*%
D12*
%TO.P,REF\u002A\u002A,1*%
%TO.N,N/C*%
X471830000Y-130670074D03*
D13*
%TO.P,REF\u002A\u002A,2*%
X461670000Y-130670074D03*
%TD*%
D10*
%TO.P,REF\u002A\u002A,1*%
%TO.N,N/C*%
X458524960Y3499932D03*
D11*
%TO.P,REF\u002A\u002A,2*%
X455984960Y3499932D03*
%TD*%
D10*
%TO.P,REF\u002A\u002A,1*%
%TO.N,N/C*%
X450275000Y-138170074D03*
D11*
%TO.P,REF\u002A\u002A,2*%
X447735000Y-138170074D03*
%TD*%
D12*
%TO.P,REF\u002A\u002A,1*%
%TO.N,N/C*%
X409615000Y-208772574D03*
D13*
%TO.P,REF\u002A\u002A,2*%
X409615000Y-198612574D03*
%TD*%
D10*
%TO.P,REF\u002A\u002A,1*%
%TO.N,N/C*%
X402569960Y67249932D03*
D11*
%TO.P,REF\u002A\u002A,2*%
X400029960Y67249932D03*
%TD*%
D10*
%TO.P,REF\u002A\u002A,1*%
%TO.N,N/C*%
X458524960Y18499932D03*
D11*
%TO.P,REF\u002A\u002A,2*%
X455984960Y18499932D03*
%TD*%
D10*
%TO.P,REF\u002A\u002A,1*%
%TO.N,N/C*%
X332025000Y26124926D03*
D11*
%TO.P,REF\u002A\u002A,2*%
X329485000Y26124926D03*
%TD*%
D12*
%TO.P,REF\u002A\u002A,1*%
%TO.N,N/C*%
X379615000Y-208772574D03*
D13*
%TO.P,REF\u002A\u002A,2*%
X379615000Y-198612574D03*
%TD*%
D10*
%TO.P,REF\u002A\u002A,1*%
%TO.N,N/C*%
X332025000Y11124926D03*
D11*
%TO.P,REF\u002A\u002A,2*%
X329485000Y11124926D03*
%TD*%
D10*
%TO.P,REF\u002A\u002A,1*%
%TO.N,N/C*%
X332025000Y33624926D03*
D11*
%TO.P,REF\u002A\u002A,2*%
X329485000Y33624926D03*
%TD*%
D10*
%TO.P,REF\u002A\u002A,1*%
%TO.N,N/C*%
X372409960Y59249932D03*
D11*
%TO.P,REF\u002A\u002A,2*%
X369869960Y59249932D03*
%TD*%
D10*
%TO.P,REF\u002A\u002A,1*%
%TO.N,N/C*%
X458524960Y-26500068D03*
D11*
%TO.P,REF\u002A\u002A,2*%
X455984960Y-26500068D03*
%TD*%
D10*
%TO.P,REF\u002A\u002A,1*%
%TO.N,N/C*%
X332025000Y-26375074D03*
D11*
%TO.P,REF\u002A\u002A,2*%
X329485000Y-26375074D03*
%TD*%
D10*
%TO.P,REF\u002A\u002A,1*%
%TO.N,N/C*%
X379565000Y-185942574D03*
D11*
%TO.P,REF\u002A\u002A,2*%
X377025000Y-185942574D03*
%TD*%
D14*
%TO.P,REF\u002A\u002A,1*%
%TO.N,N/C*%
X404875000Y-145400000D03*
D15*
%TO.P,REF\u002A\u002A,2*%
X402335000Y-145400000D03*
%TO.P,REF\u002A\u002A,3*%
X399795000Y-145400000D03*
%TO.P,REF\u002A\u002A,4*%
X397255000Y-145400000D03*
%TO.P,REF\u002A\u002A,5*%
X394715000Y-145400000D03*
%TO.P,REF\u002A\u002A,6*%
X392175000Y-145400000D03*
%TO.P,REF\u002A\u002A,7*%
X389635000Y-145400000D03*
%TO.P,REF\u002A\u002A,8*%
X387095000Y-145400000D03*
%TD*%
D10*
%TO.P,REF\u002A\u002A,1*%
%TO.N,N/C*%
X323775040Y-123045080D03*
D11*
%TO.P,REF\u002A\u002A,2*%
X321235040Y-123045080D03*
%TD*%
D12*
%TO.P,REF\u002A\u002A,1*%
%TO.N,N/C*%
X379750000Y-82250074D03*
D13*
%TO.P,REF\u002A\u002A,2*%
X379750000Y-72090074D03*
%TD*%
D10*
%TO.P,REF\u002A\u002A,1*%
%TO.N,N/C*%
X372160000Y-59420074D03*
D11*
%TO.P,REF\u002A\u002A,2*%
X369620000Y-59420074D03*
%TD*%
D12*
%TO.P,REF\u002A\u002A,1*%
%TO.N,N/C*%
X402250000Y-82250074D03*
D13*
%TO.P,REF\u002A\u002A,2*%
X402250000Y-72090074D03*
%TD*%
D10*
%TO.P,REF\u002A\u002A,1*%
%TO.N,N/C*%
X424940000Y-67420074D03*
D11*
%TO.P,REF\u002A\u002A,2*%
X422400000Y-67420074D03*
%TD*%
D10*
%TO.P,REF\u002A\u002A,1*%
%TO.N,N/C*%
X323775040Y-108045080D03*
D11*
%TO.P,REF\u002A\u002A,2*%
X321235040Y-108045080D03*
%TD*%
D10*
%TO.P,REF\u002A\u002A,1*%
%TO.N,N/C*%
X454275000Y-70420074D03*
D11*
%TO.P,REF\u002A\u002A,2*%
X451735000Y-70420074D03*
%TD*%
D10*
%TO.P,REF\u002A\u002A,1*%
%TO.N,N/C*%
X458524960Y-19000068D03*
D11*
%TO.P,REF\u002A\u002A,2*%
X455984960Y-19000068D03*
%TD*%
D10*
%TO.P,REF\u002A\u002A,1*%
%TO.N,N/C*%
X402185000Y-185942574D03*
D11*
%TO.P,REF\u002A\u002A,2*%
X399645000Y-185942574D03*
%TD*%
D10*
%TO.P,REF\u002A\u002A,1*%
%TO.N,N/C*%
X395029960Y59249932D03*
D11*
%TO.P,REF\u002A\u002A,2*%
X392489960Y59249932D03*
%TD*%
D10*
%TO.P,REF\u002A\u002A,1*%
%TO.N,N/C*%
X332025000Y48624926D03*
D11*
%TO.P,REF\u002A\u002A,2*%
X329485000Y48624926D03*
%TD*%
D10*
%TO.P,REF\u002A\u002A,1*%
%TO.N,N/C*%
X402185000Y-193942574D03*
D11*
%TO.P,REF\u002A\u002A,2*%
X399645000Y-193942574D03*
%TD*%
D12*
%TO.P,REF\u002A\u002A,1*%
%TO.N,N/C*%
X437500000Y-82250074D03*
D13*
%TO.P,REF\u002A\u002A,2*%
X437500000Y-72090074D03*
%TD*%
D10*
%TO.P,REF\u002A\u002A,1*%
%TO.N,N/C*%
X458524960Y48499932D03*
D11*
%TO.P,REF\u002A\u002A,2*%
X455984960Y48499932D03*
%TD*%
D10*
%TO.P,REF\u002A\u002A,1*%
%TO.N,N/C*%
X324025000Y26124926D03*
D11*
%TO.P,REF\u002A\u002A,2*%
X321485000Y26124926D03*
%TD*%
D10*
%TO.P,REF\u002A\u002A,1*%
%TO.N,N/C*%
X356945000Y-185942574D03*
D11*
%TO.P,REF\u002A\u002A,2*%
X354405000Y-185942574D03*
%TD*%
D12*
%TO.P,REF\u002A\u002A,1*%
%TO.N,N/C*%
X345580000Y-11375074D03*
D13*
%TO.P,REF\u002A\u002A,2*%
X335420000Y-11375074D03*
%TD*%
D10*
%TO.P,REF\u002A\u002A,1*%
%TO.N,N/C*%
X458275000Y-108170074D03*
D11*
%TO.P,REF\u002A\u002A,2*%
X455735000Y-108170074D03*
%TD*%
D12*
%TO.P,REF\u002A\u002A,1*%
%TO.N,N/C*%
X345580000Y18624926D03*
D13*
%TO.P,REF\u002A\u002A,2*%
X335420000Y18624926D03*
%TD*%
D10*
%TO.P,REF\u002A\u002A,1*%
%TO.N,N/C*%
X334525000Y-63420074D03*
D11*
%TO.P,REF\u002A\u002A,2*%
X331985000Y-63420074D03*
%TD*%
D10*
%TO.P,REF\u002A\u002A,1*%
%TO.N,N/C*%
X409860000Y-67420074D03*
D11*
%TO.P,REF\u002A\u002A,2*%
X407320000Y-67420074D03*
%TD*%
D10*
%TO.P,REF\u002A\u002A,1*%
%TO.N,N/C*%
X458275000Y-160670074D03*
D11*
%TO.P,REF\u002A\u002A,2*%
X455735000Y-160670074D03*
%TD*%
D12*
%TO.P,REF\u002A\u002A,1*%
%TO.N,N/C*%
X471830000Y-153170074D03*
D13*
%TO.P,REF\u002A\u002A,2*%
X461670000Y-153170074D03*
%TD*%
D18*
%TO.P,REF\u002A\u002A,1*%
%TO.N,N/C*%
X304128680Y-201128754D03*
D19*
X306250000Y-203250074D03*
D18*
X308371320Y-205371394D03*
X309250000Y-203250074D03*
X304128680Y-205371394D03*
X306250000Y-200250074D03*
X306250000Y-206250074D03*
X308371320Y-201128754D03*
X303250000Y-203250074D03*
%TD*%
D10*
%TO.P,REF\u002A\u002A,1*%
%TO.N,N/C*%
X432729960Y59249932D03*
D11*
%TO.P,REF\u002A\u002A,2*%
X430189960Y59249932D03*
%TD*%
D12*
%TO.P,REF\u002A\u002A,1*%
%TO.N,N/C*%
X345410040Y-93045080D03*
D13*
%TO.P,REF\u002A\u002A,2*%
X335250040Y-93045080D03*
%TD*%
D10*
%TO.P,REF\u002A\u002A,1*%
%TO.N,N/C*%
X402320000Y-67420074D03*
D11*
%TO.P,REF\u002A\u002A,2*%
X399780000Y-67420074D03*
%TD*%
D10*
%TO.P,REF\u002A\u002A,1*%
%TO.N,N/C*%
X458275000Y-78170074D03*
D11*
%TO.P,REF\u002A\u002A,2*%
X455735000Y-78170074D03*
%TD*%
D10*
%TO.P,REF\u002A\u002A,1*%
%TO.N,N/C*%
X357329960Y59249932D03*
D11*
%TO.P,REF\u002A\u002A,2*%
X354789960Y59249932D03*
%TD*%
D10*
%TO.P,REF\u002A\u002A,1*%
%TO.N,N/C*%
X342249960Y67249932D03*
D11*
%TO.P,REF\u002A\u002A,2*%
X339709960Y67249932D03*
%TD*%
D16*
%TO.P,REF\u002A\u002A,1*%
%TO.N,N/C*%
X447600000Y-104400000D03*
D17*
%TO.P,REF\u002A\u002A,2*%
X437440000Y-104400000D03*
%TD*%
D10*
%TO.P,REF\u002A\u002A,1*%
%TO.N,N/C*%
X458275000Y-168170074D03*
D11*
%TO.P,REF\u002A\u002A,2*%
X455735000Y-168170074D03*
%TD*%
D10*
%TO.P,REF\u002A\u002A,1*%
%TO.N,N/C*%
X458275000Y-130670074D03*
D11*
%TO.P,REF\u002A\u002A,2*%
X455735000Y-130670074D03*
%TD*%
D10*
%TO.P,REF\u002A\u002A,1*%
%TO.N,N/C*%
X349405000Y-185942574D03*
D11*
%TO.P,REF\u002A\u002A,2*%
X346865000Y-185942574D03*
%TD*%
D12*
%TO.P,REF\u002A\u002A,1*%
%TO.N,N/C*%
X402115000Y-208772574D03*
D13*
%TO.P,REF\u002A\u002A,2*%
X402115000Y-198612574D03*
%TD*%
D12*
%TO.P,REF\u002A\u002A,1*%
%TO.N,N/C*%
X345330040Y-115545080D03*
D13*
%TO.P,REF\u002A\u002A,2*%
X335170040Y-115545080D03*
%TD*%
D10*
%TO.P,REF\u002A\u002A,1*%
%TO.N,N/C*%
X417649960Y67249932D03*
D11*
%TO.P,REF\u002A\u002A,2*%
X415109960Y67249932D03*
%TD*%
D10*
%TO.P,REF\u002A\u002A,1*%
%TO.N,N/C*%
X387105000Y-185942574D03*
D11*
%TO.P,REF\u002A\u002A,2*%
X384565000Y-185942574D03*
%TD*%
D10*
%TO.P,REF\u002A\u002A,1*%
%TO.N,N/C*%
X331775040Y-160545080D03*
D11*
%TO.P,REF\u002A\u002A,2*%
X329235040Y-160545080D03*
%TD*%
D10*
%TO.P,REF\u002A\u002A,1*%
%TO.N,N/C*%
X458524960Y-49000068D03*
D11*
%TO.P,REF\u002A\u002A,2*%
X455984960Y-49000068D03*
%TD*%
D16*
%TO.P,REF\u002A\u002A,1*%
%TO.N,N/C*%
X427400000Y-62600000D03*
D17*
%TO.P,REF\u002A\u002A,2*%
X427400000Y-52440000D03*
%TD*%
D12*
%TO.P,REF\u002A\u002A,1*%
%TO.N,N/C*%
X345330040Y-175545080D03*
D13*
%TO.P,REF\u002A\u002A,2*%
X335170040Y-175545080D03*
%TD*%
D10*
%TO.P,REF\u002A\u002A,1*%
%TO.N,N/C*%
X332025000Y-3875074D03*
D11*
%TO.P,REF\u002A\u002A,2*%
X329485000Y-3875074D03*
%TD*%
D10*
%TO.P,REF\u002A\u002A,1*%
%TO.N,N/C*%
X323775040Y-153045080D03*
D11*
%TO.P,REF\u002A\u002A,2*%
X321235040Y-153045080D03*
%TD*%
D10*
%TO.P,REF\u002A\u002A,1*%
%TO.N,N/C*%
X387489960Y67249932D03*
D11*
%TO.P,REF\u002A\u002A,2*%
X384949960Y67249932D03*
%TD*%
D10*
%TO.P,REF\u002A\u002A,1*%
%TO.N,N/C*%
X323775040Y-168045080D03*
D11*
%TO.P,REF\u002A\u002A,2*%
X321235040Y-168045080D03*
%TD*%
D10*
%TO.P,REF\u002A\u002A,1*%
%TO.N,N/C*%
X364620000Y-59420074D03*
D11*
%TO.P,REF\u002A\u002A,2*%
X362080000Y-59420074D03*
%TD*%
D12*
%TO.P,REF\u002A\u002A,1*%
%TO.N,N/C*%
X345580000Y-3875074D03*
D13*
%TO.P,REF\u002A\u002A,2*%
X335420000Y-3875074D03*
%TD*%
D16*
%TO.P,REF\u002A\u002A,1*%
%TO.N,N/C*%
X367000000Y-88230000D03*
D17*
%TO.P,REF\u002A\u002A,2*%
X367000000Y-78070000D03*
%TD*%
D10*
%TO.P,REF\u002A\u002A,1*%
%TO.N,N/C*%
X331775040Y-168045080D03*
D11*
%TO.P,REF\u002A\u002A,2*%
X329235040Y-168045080D03*
%TD*%
D10*
%TO.P,REF\u002A\u002A,1*%
%TO.N,N/C*%
X450524960Y-4000068D03*
D11*
%TO.P,REF\u002A\u002A,2*%
X447984960Y-4000068D03*
%TD*%
D10*
%TO.P,REF\u002A\u002A,1*%
%TO.N,N/C*%
X432729960Y67249932D03*
D11*
%TO.P,REF\u002A\u002A,2*%
X430189960Y67249932D03*
%TD*%
D10*
%TO.P,REF\u002A\u002A,1*%
%TO.N,N/C*%
X324025000Y33624926D03*
D11*
%TO.P,REF\u002A\u002A,2*%
X321485000Y33624926D03*
%TD*%
D12*
%TO.P,REF\u002A\u002A,1*%
%TO.N,N/C*%
X345580000Y-33875074D03*
D13*
%TO.P,REF\u002A\u002A,2*%
X335420000Y-33875074D03*
%TD*%
D12*
%TO.P,REF\u002A\u002A,1*%
%TO.N,N/C*%
X432365000Y-208772574D03*
D13*
%TO.P,REF\u002A\u002A,2*%
X432365000Y-198612574D03*
%TD*%
D10*
%TO.P,REF\u002A\u002A,1*%
%TO.N,N/C*%
X323775040Y-85545080D03*
D11*
%TO.P,REF\u002A\u002A,2*%
X321235040Y-85545080D03*
%TD*%
D10*
%TO.P,REF\u002A\u002A,1*%
%TO.N,N/C*%
X450275000Y-168170074D03*
D11*
%TO.P,REF\u002A\u002A,2*%
X447735000Y-168170074D03*
%TD*%
D12*
%TO.P,REF\u002A\u002A,1*%
%TO.N,N/C*%
X352409960Y53499932D03*
D13*
%TO.P,REF\u002A\u002A,2*%
X342249960Y53499932D03*
%TD*%
D12*
%TO.P,REF\u002A\u002A,1*%
%TO.N,N/C*%
X345330040Y-160545080D03*
D13*
%TO.P,REF\u002A\u002A,2*%
X335170040Y-160545080D03*
%TD*%
D12*
%TO.P,REF\u002A\u002A,1*%
%TO.N,N/C*%
X345580000Y11124926D03*
D13*
%TO.P,REF\u002A\u002A,2*%
X335420000Y11124926D03*
%TD*%
D10*
%TO.P,REF\u002A\u002A,1*%
%TO.N,N/C*%
X331775040Y-153045080D03*
D11*
%TO.P,REF\u002A\u002A,2*%
X329235040Y-153045080D03*
%TD*%
D10*
%TO.P,REF\u002A\u002A,1*%
%TO.N,N/C*%
X447405000Y-190192574D03*
D11*
%TO.P,REF\u002A\u002A,2*%
X444865000Y-190192574D03*
%TD*%
D10*
%TO.P,REF\u002A\u002A,1*%
%TO.N,N/C*%
X323775040Y-93045080D03*
D11*
%TO.P,REF\u002A\u002A,2*%
X321235040Y-93045080D03*
%TD*%
D10*
%TO.P,REF\u002A\u002A,1*%
%TO.N,N/C*%
X349789960Y67249932D03*
D11*
%TO.P,REF\u002A\u002A,2*%
X347249960Y67249932D03*
%TD*%
D10*
%TO.P,REF\u002A\u002A,1*%
%TO.N,N/C*%
X417400000Y-59420074D03*
D11*
%TO.P,REF\u002A\u002A,2*%
X414860000Y-59420074D03*
%TD*%
D10*
%TO.P,REF\u002A\u002A,1*%
%TO.N,N/C*%
X450524960Y33499932D03*
D11*
%TO.P,REF\u002A\u002A,2*%
X447984960Y33499932D03*
%TD*%
D12*
%TO.P,REF\u002A\u002A,1*%
%TO.N,N/C*%
X437749960Y44419932D03*
D13*
%TO.P,REF\u002A\u002A,2*%
X437749960Y54579932D03*
%TD*%
D10*
%TO.P,REF\u002A\u002A,1*%
%TO.N,N/C*%
X324025000Y48624926D03*
D11*
%TO.P,REF\u002A\u002A,2*%
X321485000Y48624926D03*
%TD*%
D10*
%TO.P,REF\u002A\u002A,1*%
%TO.N,N/C*%
X379565000Y-193942574D03*
D11*
%TO.P,REF\u002A\u002A,2*%
X377025000Y-193942574D03*
%TD*%
D10*
%TO.P,REF\u002A\u002A,1*%
%TO.N,N/C*%
X450524960Y10999932D03*
D11*
%TO.P,REF\u002A\u002A,2*%
X447984960Y10999932D03*
%TD*%
D10*
%TO.P,REF\u002A\u002A,1*%
%TO.N,N/C*%
X458275000Y-123170074D03*
D11*
%TO.P,REF\u002A\u002A,2*%
X455735000Y-123170074D03*
%TD*%
D12*
%TO.P,REF\u002A\u002A,1*%
%TO.N,N/C*%
X345580000Y48624926D03*
D13*
%TO.P,REF\u002A\u002A,2*%
X335420000Y48624926D03*
%TD*%
D10*
%TO.P,REF\u002A\u002A,1*%
%TO.N,N/C*%
X417265000Y-185942574D03*
D11*
%TO.P,REF\u002A\u002A,2*%
X414725000Y-185942574D03*
%TD*%
D12*
%TO.P,REF\u002A\u002A,1*%
%TO.N,N/C*%
X472159960Y33499932D03*
D13*
%TO.P,REF\u002A\u002A,2*%
X461999960Y33499932D03*
%TD*%
D12*
%TO.P,REF\u002A\u002A,1*%
%TO.N,N/C*%
X357000000Y-82250074D03*
D13*
%TO.P,REF\u002A\u002A,2*%
X357000000Y-72090074D03*
%TD*%
D10*
%TO.P,REF\u002A\u002A,1*%
%TO.N,N/C*%
X458524960Y-11500068D03*
D11*
%TO.P,REF\u002A\u002A,2*%
X455984960Y-11500068D03*
%TD*%
D10*
%TO.P,REF\u002A\u002A,1*%
%TO.N,N/C*%
X324025000Y11124926D03*
D11*
%TO.P,REF\u002A\u002A,2*%
X321485000Y11124926D03*
%TD*%
D10*
%TO.P,REF\u002A\u002A,1*%
%TO.N,N/C*%
X357080000Y-67420074D03*
D11*
%TO.P,REF\u002A\u002A,2*%
X354540000Y-67420074D03*
%TD*%
D10*
%TO.P,REF\u002A\u002A,1*%
%TO.N,N/C*%
X450275000Y-175670074D03*
D11*
%TO.P,REF\u002A\u002A,2*%
X447735000Y-175670074D03*
%TD*%
D10*
%TO.P,REF\u002A\u002A,1*%
%TO.N,N/C*%
X323775040Y-138045080D03*
D11*
%TO.P,REF\u002A\u002A,2*%
X321235040Y-138045080D03*
%TD*%
D10*
%TO.P,REF\u002A\u002A,1*%
%TO.N,N/C*%
X357329960Y67249932D03*
D11*
%TO.P,REF\u002A\u002A,2*%
X354789960Y67249932D03*
%TD*%
D10*
%TO.P,REF\u002A\u002A,1*%
%TO.N,N/C*%
X458275000Y-153170074D03*
D11*
%TO.P,REF\u002A\u002A,2*%
X455735000Y-153170074D03*
%TD*%
D10*
%TO.P,REF\u002A\u002A,1*%
%TO.N,N/C*%
X349405000Y-193942574D03*
D11*
%TO.P,REF\u002A\u002A,2*%
X346865000Y-193942574D03*
%TD*%
D12*
%TO.P,REF\u002A\u002A,1*%
%TO.N,N/C*%
X471830000Y-160670074D03*
D13*
%TO.P,REF\u002A\u002A,2*%
X461670000Y-160670074D03*
%TD*%
D10*
%TO.P,REF\u002A\u002A,1*%
%TO.N,N/C*%
X450275000Y-115670074D03*
D11*
%TO.P,REF\u002A\u002A,2*%
X447735000Y-115670074D03*
%TD*%
D10*
%TO.P,REF\u002A\u002A,1*%
%TO.N,N/C*%
X332025000Y-11375074D03*
D11*
%TO.P,REF\u002A\u002A,2*%
X329485000Y-11375074D03*
%TD*%
D10*
%TO.P,REF\u002A\u002A,1*%
%TO.N,N/C*%
X331775040Y-108045080D03*
D11*
%TO.P,REF\u002A\u002A,2*%
X329235040Y-108045080D03*
%TD*%
D10*
%TO.P,REF\u002A\u002A,1*%
%TO.N,N/C*%
X349789960Y59249932D03*
D11*
%TO.P,REF\u002A\u002A,2*%
X347249960Y59249932D03*
%TD*%
D10*
%TO.P,REF\u002A\u002A,1*%
%TO.N,N/C*%
X324025000Y-48875074D03*
D11*
%TO.P,REF\u002A\u002A,2*%
X321485000Y-48875074D03*
%TD*%
D10*
%TO.P,REF\u002A\u002A,1*%
%TO.N,N/C*%
X327775040Y-70295080D03*
D11*
%TO.P,REF\u002A\u002A,2*%
X325235040Y-70295080D03*
%TD*%
D10*
%TO.P,REF\u002A\u002A,1*%
%TO.N,N/C*%
X349540000Y-67420074D03*
D11*
%TO.P,REF\u002A\u002A,2*%
X347000000Y-67420074D03*
%TD*%
D12*
%TO.P,REF\u002A\u002A,1*%
%TO.N,N/C*%
X471830000Y-175670074D03*
D13*
%TO.P,REF\u002A\u002A,2*%
X461670000Y-175670074D03*
%TD*%
D12*
%TO.P,REF\u002A\u002A,1*%
%TO.N,N/C*%
X364749960Y44419932D03*
D13*
%TO.P,REF\u002A\u002A,2*%
X364749960Y54579932D03*
%TD*%
D10*
%TO.P,REF\u002A\u002A,1*%
%TO.N,N/C*%
X341890000Y-193942574D03*
D11*
%TO.P,REF\u002A\u002A,2*%
X339350000Y-193942574D03*
%TD*%
D10*
%TO.P,REF\u002A\u002A,1*%
%TO.N,N/C*%
X450524960Y-49000068D03*
D11*
%TO.P,REF\u002A\u002A,2*%
X447984960Y-49000068D03*
%TD*%
D10*
%TO.P,REF\u002A\u002A,1*%
%TO.N,N/C*%
X454275000Y-183420074D03*
D11*
%TO.P,REF\u002A\u002A,2*%
X451735000Y-183420074D03*
%TD*%
D10*
%TO.P,REF\u002A\u002A,1*%
%TO.N,N/C*%
X440269960Y67249932D03*
D11*
%TO.P,REF\u002A\u002A,2*%
X437729960Y67249932D03*
%TD*%
D12*
%TO.P,REF\u002A\u002A,1*%
%TO.N,N/C*%
X345330040Y-153045080D03*
D13*
%TO.P,REF\u002A\u002A,2*%
X335170040Y-153045080D03*
%TD*%
D10*
%TO.P,REF\u002A\u002A,1*%
%TO.N,N/C*%
X328025000Y-56625074D03*
D11*
%TO.P,REF\u002A\u002A,2*%
X325485000Y-56625074D03*
%TD*%
D10*
%TO.P,REF\u002A\u002A,1*%
%TO.N,N/C*%
X458524960Y10999932D03*
D11*
%TO.P,REF\u002A\u002A,2*%
X455984960Y10999932D03*
%TD*%
D10*
%TO.P,REF\u002A\u002A,1*%
%TO.N,N/C*%
X334774960Y63249932D03*
D11*
%TO.P,REF\u002A\u002A,2*%
X332234960Y63249932D03*
%TD*%
D10*
%TO.P,REF\u002A\u002A,1*%
%TO.N,N/C*%
X364869960Y59249932D03*
D11*
%TO.P,REF\u002A\u002A,2*%
X362329960Y59249932D03*
%TD*%
D10*
%TO.P,REF\u002A\u002A,1*%
%TO.N,N/C*%
X458275000Y-145670074D03*
D11*
%TO.P,REF\u002A\u002A,2*%
X455735000Y-145670074D03*
%TD*%
D10*
%TO.P,REF\u002A\u002A,1*%
%TO.N,N/C*%
X409725000Y-193942574D03*
D11*
%TO.P,REF\u002A\u002A,2*%
X407185000Y-193942574D03*
%TD*%
D10*
%TO.P,REF\u002A\u002A,1*%
%TO.N,N/C*%
X323775040Y-78045080D03*
D11*
%TO.P,REF\u002A\u002A,2*%
X321235040Y-78045080D03*
%TD*%
D12*
%TO.P,REF\u002A\u002A,1*%
%TO.N,N/C*%
X345580000Y-26375074D03*
D13*
%TO.P,REF\u002A\u002A,2*%
X335420000Y-26375074D03*
%TD*%
D10*
%TO.P,REF\u002A\u002A,1*%
%TO.N,N/C*%
X324025000Y-18875074D03*
D11*
%TO.P,REF\u002A\u002A,2*%
X321485000Y-18875074D03*
%TD*%
D12*
%TO.P,REF\u002A\u002A,1*%
%TO.N,N/C*%
X425249960Y44419932D03*
D13*
%TO.P,REF\u002A\u002A,2*%
X425249960Y54579932D03*
%TD*%
D10*
%TO.P,REF\u002A\u002A,1*%
%TO.N,N/C*%
X324025000Y-33875074D03*
D11*
%TO.P,REF\u002A\u002A,2*%
X321485000Y-33875074D03*
%TD*%
D10*
%TO.P,REF\u002A\u002A,1*%
%TO.N,N/C*%
X342274960Y59249932D03*
D11*
%TO.P,REF\u002A\u002A,2*%
X339734960Y59249932D03*
%TD*%
D12*
%TO.P,REF\u002A\u002A,1*%
%TO.N,N/C*%
X345330040Y-138045080D03*
D13*
%TO.P,REF\u002A\u002A,2*%
X335170040Y-138045080D03*
%TD*%
D10*
%TO.P,REF\u002A\u002A,1*%
%TO.N,N/C*%
X334390000Y-189942574D03*
D11*
%TO.P,REF\u002A\u002A,2*%
X331850000Y-189942574D03*
%TD*%
D10*
%TO.P,REF\u002A\u002A,1*%
%TO.N,N/C*%
X342000000Y-59420074D03*
D11*
%TO.P,REF\u002A\u002A,2*%
X339460000Y-59420074D03*
%TD*%
D12*
%TO.P,REF\u002A\u002A,1*%
%TO.N,N/C*%
X432749960Y44419932D03*
D13*
%TO.P,REF\u002A\u002A,2*%
X432749960Y54579932D03*
%TD*%
D12*
%TO.P,REF\u002A\u002A,1*%
%TO.N,N/C*%
X402499960Y44419932D03*
D13*
%TO.P,REF\u002A\u002A,2*%
X402499960Y54579932D03*
%TD*%
D12*
%TO.P,REF\u002A\u002A,1*%
%TO.N,N/C*%
X471830000Y-85670074D03*
D13*
%TO.P,REF\u002A\u002A,2*%
X461670000Y-85670074D03*
%TD*%
D12*
%TO.P,REF\u002A\u002A,1*%
%TO.N,N/C*%
X352160000Y-73170074D03*
D13*
%TO.P,REF\u002A\u002A,2*%
X342000000Y-73170074D03*
%TD*%
D10*
%TO.P,REF\u002A\u002A,1*%
%TO.N,N/C*%
X364485000Y-185942574D03*
D11*
%TO.P,REF\u002A\u002A,2*%
X361945000Y-185942574D03*
%TD*%
D12*
%TO.P,REF\u002A\u002A,1*%
%TO.N,N/C*%
X409750000Y-82250074D03*
D13*
%TO.P,REF\u002A\u002A,2*%
X409750000Y-72090074D03*
%TD*%
D12*
%TO.P,REF\u002A\u002A,1*%
%TO.N,N/C*%
X432500000Y-82250074D03*
D13*
%TO.P,REF\u002A\u002A,2*%
X432500000Y-72090074D03*
%TD*%
D10*
%TO.P,REF\u002A\u002A,1*%
%TO.N,N/C*%
X323775040Y-145545080D03*
D11*
%TO.P,REF\u002A\u002A,2*%
X321235040Y-145545080D03*
%TD*%
D12*
%TO.P,REF\u002A\u002A,1*%
%TO.N,N/C*%
X472079960Y10999932D03*
D13*
%TO.P,REF\u002A\u002A,2*%
X461919960Y10999932D03*
%TD*%
D10*
%TO.P,REF\u002A\u002A,1*%
%TO.N,N/C*%
X364620000Y-67420074D03*
D11*
%TO.P,REF\u002A\u002A,2*%
X362080000Y-67420074D03*
%TD*%
D10*
%TO.P,REF\u002A\u002A,1*%
%TO.N,N/C*%
X450275000Y-130670074D03*
D11*
%TO.P,REF\u002A\u002A,2*%
X447735000Y-130670074D03*
%TD*%
D10*
%TO.P,REF\u002A\u002A,1*%
%TO.N,N/C*%
X454524960Y-56750068D03*
D11*
%TO.P,REF\u002A\u002A,2*%
X451984960Y-56750068D03*
%TD*%
D12*
%TO.P,REF\u002A\u002A,1*%
%TO.N,N/C*%
X424865000Y-208772574D03*
D13*
%TO.P,REF\u002A\u002A,2*%
X424865000Y-198612574D03*
%TD*%
D10*
%TO.P,REF\u002A\u002A,1*%
%TO.N,N/C*%
X331775040Y-138045080D03*
D11*
%TO.P,REF\u002A\u002A,2*%
X329235040Y-138045080D03*
%TD*%
D12*
%TO.P,REF\u002A\u002A,1*%
%TO.N,N/C*%
X472079960Y-49000068D03*
D13*
%TO.P,REF\u002A\u002A,2*%
X461919960Y-49000068D03*
%TD*%
D10*
%TO.P,REF\u002A\u002A,1*%
%TO.N,N/C*%
X372025000Y-185942574D03*
D11*
%TO.P,REF\u002A\u002A,2*%
X369485000Y-185942574D03*
%TD*%
D12*
%TO.P,REF\u002A\u002A,1*%
%TO.N,N/C*%
X345330040Y-130545080D03*
D13*
%TO.P,REF\u002A\u002A,2*%
X335170040Y-130545080D03*
%TD*%
D12*
%TO.P,REF\u002A\u002A,1*%
%TO.N,N/C*%
X364500000Y-82250074D03*
D13*
%TO.P,REF\u002A\u002A,2*%
X364500000Y-72090074D03*
%TD*%
D10*
%TO.P,REF\u002A\u002A,1*%
%TO.N,N/C*%
X417400000Y-67420074D03*
D11*
%TO.P,REF\u002A\u002A,2*%
X414860000Y-67420074D03*
%TD*%
D10*
%TO.P,REF\u002A\u002A,1*%
%TO.N,N/C*%
X324025000Y-41375074D03*
D11*
%TO.P,REF\u002A\u002A,2*%
X321485000Y-41375074D03*
%TD*%
D12*
%TO.P,REF\u002A\u002A,1*%
%TO.N,N/C*%
X345330040Y-85545080D03*
D13*
%TO.P,REF\u002A\u002A,2*%
X335170040Y-85545080D03*
%TD*%
D10*
%TO.P,REF\u002A\u002A,1*%
%TO.N,N/C*%
X364485000Y-193942574D03*
D11*
%TO.P,REF\u002A\u002A,2*%
X361945000Y-193942574D03*
%TD*%
D10*
%TO.P,REF\u002A\u002A,1*%
%TO.N,N/C*%
X331775040Y-100545080D03*
D11*
%TO.P,REF\u002A\u002A,2*%
X329235040Y-100545080D03*
%TD*%
D19*
%TO.P,,1*%
%TO.N,N/C*%
X484250000Y67749926D03*
%TD*%
D10*
%TO.P,REF\u002A\u002A,1*%
%TO.N,N/C*%
X450275000Y-153170074D03*
D11*
%TO.P,REF\u002A\u002A,2*%
X447735000Y-153170074D03*
%TD*%
D12*
%TO.P,REF\u002A\u002A,1*%
%TO.N,N/C*%
X471830000Y-138170074D03*
D13*
%TO.P,REF\u002A\u002A,2*%
X461670000Y-138170074D03*
%TD*%
D12*
%TO.P,REF\u002A\u002A,1*%
%TO.N,N/C*%
X379999960Y44419932D03*
D13*
%TO.P,REF\u002A\u002A,2*%
X379999960Y54579932D03*
%TD*%
D10*
%TO.P,REF\u002A\u002A,1*%
%TO.N,N/C*%
X331775040Y-130545080D03*
D11*
%TO.P,REF\u002A\u002A,2*%
X329235040Y-130545080D03*
%TD*%
D12*
%TO.P,REF\u002A\u002A,1*%
%TO.N,N/C*%
X409999960Y44419932D03*
D13*
%TO.P,REF\u002A\u002A,2*%
X409999960Y54579932D03*
%TD*%
D10*
%TO.P,REF\u002A\u002A,1*%
%TO.N,N/C*%
X450275000Y-78170074D03*
D11*
%TO.P,REF\u002A\u002A,2*%
X447735000Y-78170074D03*
%TD*%
D10*
%TO.P,REF\u002A\u002A,1*%
%TO.N,N/C*%
X387489960Y59249932D03*
D11*
%TO.P,REF\u002A\u002A,2*%
X384949960Y59249932D03*
%TD*%
D10*
%TO.P,REF\u002A\u002A,1*%
%TO.N,N/C*%
X331775040Y-93045080D03*
D11*
%TO.P,REF\u002A\u002A,2*%
X329235040Y-93045080D03*
%TD*%
D12*
%TO.P,REF\u002A\u002A,1*%
%TO.N,N/C*%
X387250000Y-82250074D03*
D13*
%TO.P,REF\u002A\u002A,2*%
X387250000Y-72090074D03*
%TD*%
D10*
%TO.P,REF\u002A\u002A,1*%
%TO.N,N/C*%
X332025000Y-33875074D03*
D11*
%TO.P,REF\u002A\u002A,2*%
X329485000Y-33875074D03*
%TD*%
D12*
%TO.P,REF\u002A\u002A,1*%
%TO.N,N/C*%
X357249960Y44419932D03*
D13*
%TO.P,REF\u002A\u002A,2*%
X357249960Y54579932D03*
%TD*%
D10*
%TO.P,REF\u002A\u002A,1*%
%TO.N,N/C*%
X332025000Y18624926D03*
D11*
%TO.P,REF\u002A\u002A,2*%
X329485000Y18624926D03*
%TD*%
D10*
%TO.P,REF\u002A\u002A,1*%
%TO.N,N/C*%
X450524960Y18499932D03*
D11*
%TO.P,REF\u002A\u002A,2*%
X447984960Y18499932D03*
%TD*%
D12*
%TO.P,REF\u002A\u002A,1*%
%TO.N,N/C*%
X345660000Y33624926D03*
D13*
%TO.P,REF\u002A\u002A,2*%
X335500000Y33624926D03*
%TD*%
D10*
%TO.P,REF\u002A\u002A,1*%
%TO.N,N/C*%
X342025000Y-67420074D03*
D11*
%TO.P,REF\u002A\u002A,2*%
X339485000Y-67420074D03*
%TD*%
D10*
%TO.P,REF\u002A\u002A,1*%
%TO.N,N/C*%
X458275000Y-115670074D03*
D11*
%TO.P,REF\u002A\u002A,2*%
X455735000Y-115670074D03*
%TD*%
D12*
%TO.P,REF\u002A\u002A,1*%
%TO.N,N/C*%
X356865000Y-208772574D03*
D13*
%TO.P,REF\u002A\u002A,2*%
X356865000Y-198612574D03*
%TD*%
D10*
%TO.P,REF\u002A\u002A,1*%
%TO.N,N/C*%
X357080000Y-59420074D03*
D11*
%TO.P,REF\u002A\u002A,2*%
X354540000Y-59420074D03*
%TD*%
D10*
%TO.P,REF\u002A\u002A,1*%
%TO.N,N/C*%
X450275000Y-85670074D03*
D11*
%TO.P,REF\u002A\u002A,2*%
X447735000Y-85670074D03*
%TD*%
D10*
%TO.P,REF\u002A\u002A,1*%
%TO.N,N/C*%
X458524960Y-41500068D03*
D11*
%TO.P,REF\u002A\u002A,2*%
X455984960Y-41500068D03*
%TD*%
D10*
%TO.P,REF\u002A\u002A,1*%
%TO.N,N/C*%
X349540000Y-59420074D03*
D11*
%TO.P,REF\u002A\u002A,2*%
X347000000Y-59420074D03*
%TD*%
D10*
%TO.P,REF\u002A\u002A,1*%
%TO.N,N/C*%
X324025000Y-11375074D03*
D11*
%TO.P,REF\u002A\u002A,2*%
X321485000Y-11375074D03*
%TD*%
D10*
%TO.P,REF\u002A\u002A,1*%
%TO.N,N/C*%
X402569960Y59249932D03*
D11*
%TO.P,REF\u002A\u002A,2*%
X400029960Y59249932D03*
%TD*%
D10*
%TO.P,REF\u002A\u002A,1*%
%TO.N,N/C*%
X402320000Y-59420074D03*
D11*
%TO.P,REF\u002A\u002A,2*%
X399780000Y-59420074D03*
%TD*%
D10*
%TO.P,REF\u002A\u002A,1*%
%TO.N,N/C*%
X458275000Y-85670074D03*
D11*
%TO.P,REF\u002A\u002A,2*%
X455735000Y-85670074D03*
%TD*%
D10*
%TO.P,REF\u002A\u002A,1*%
%TO.N,N/C*%
X394780000Y-59420074D03*
D11*
%TO.P,REF\u002A\u002A,2*%
X392240000Y-59420074D03*
%TD*%
D10*
%TO.P,REF\u002A\u002A,1*%
%TO.N,N/C*%
X410109960Y59249932D03*
D11*
%TO.P,REF\u002A\u002A,2*%
X407569960Y59249932D03*
%TD*%
D10*
%TO.P,REF\u002A\u002A,1*%
%TO.N,N/C*%
X379700000Y-67420074D03*
D11*
%TO.P,REF\u002A\u002A,2*%
X377160000Y-67420074D03*
%TD*%
D10*
%TO.P,REF\u002A\u002A,1*%
%TO.N,N/C*%
X450524960Y40999932D03*
D11*
%TO.P,REF\u002A\u002A,2*%
X447984960Y40999932D03*
%TD*%
D16*
%TO.P,REF\u002A\u002A,1*%
%TO.N,N/C*%
X412200000Y-177970000D03*
D17*
%TO.P,REF\u002A\u002A,2*%
X412200000Y-188130000D03*
%TD*%
D10*
%TO.P,REF\u002A\u002A,1*%
%TO.N,N/C*%
X458275000Y-100670074D03*
D11*
%TO.P,REF\u002A\u002A,2*%
X455735000Y-100670074D03*
%TD*%
D10*
%TO.P,REF\u002A\u002A,1*%
%TO.N,N/C*%
X323775040Y-130545080D03*
D11*
%TO.P,REF\u002A\u002A,2*%
X321235040Y-130545080D03*
%TD*%
D20*
%TO.N,*%
X427400000Y-52440000D02*
X427400000Y-62600000D01*
X367000000Y-52070000D02*
X367000000Y-62230000D01*
X412200000Y-177970000D02*
X412200000Y-188130000D01*
X437440000Y-104400000D02*
X447600000Y-104400000D01*
X382400000Y-92430000D02*
X382400000Y-82270000D01*
X412200000Y-137930000D02*
X412200000Y-127770000D01*
X435640000Y-127000000D02*
X445800000Y-127000000D01*
X367000000Y-78070000D02*
X367000000Y-88230000D01*
%TD*%
M02*
