%TF.GenerationSoftware,KiCad,Pcbnew,(6.0.6)*%
%TF.CreationDate,2022-10-07T01:41:05+08:00*%
%TF.ProjectId,7SegmentDisplay_DualLine_NoDriver_10Inches(2),37536567-6d65-46e7-9444-6973706c6179,rev?*%
%TF.SameCoordinates,Original*%
%TF.FileFunction,Legend,Bot*%
%TF.FilePolarity,Positive*%
%FSLAX46Y46*%
G04 Gerber Fmt 4.6, Leading zero omitted, Abs format (unit mm)*
G04 Created by KiCad (PCBNEW (6.0.6)) date 2022-10-07 01:41:05*
%MOMM*%
%LPD*%
G01*
G04 APERTURE LIST*
%ADD10C,0.120000*%
%ADD11R,1.800000X1.800000*%
%ADD12C,1.800000*%
%ADD13C,1.600000*%
%ADD14O,1.600000X1.600000*%
%ADD15R,1.700000X1.700000*%
%ADD16O,1.700000X1.700000*%
%ADD17C,1.400000*%
%ADD18O,1.400000X1.400000*%
%ADD19C,0.900000*%
%ADD20C,8.000000*%
G04 APERTURE END LIST*
D10*
%TO.C,REF\u002A\u002A*%
X367000000Y-53086000D02*
X367000000Y-61214000D01*
X436656000Y-127000000D02*
X444784000Y-127000000D01*
X412200000Y-136914000D02*
X412200000Y-128786000D01*
X382400000Y-83286000D02*
X382400000Y-91414000D01*
X438456000Y-104400000D02*
X446584000Y-104400000D01*
X427400000Y-53456000D02*
X427400000Y-61584000D01*
X367000000Y-79086000D02*
X367000000Y-87214000D01*
X412200000Y-187114000D02*
X412200000Y-178986000D01*
%TD*%
%LPC*%
D11*
%TO.C,REF\u002A\u002A*%
X372025000Y-193942574D03*
D12*
X369485000Y-193942574D03*
%TD*%
D11*
%TO.C,REF\u002A\u002A*%
X372160000Y-67420074D03*
D12*
X369620000Y-67420074D03*
%TD*%
D11*
%TO.C,REF\u002A\u002A*%
X458524960Y40999932D03*
D12*
X455984960Y40999932D03*
%TD*%
D11*
%TO.C,REF\u002A\u002A*%
X323775040Y-175545080D03*
D12*
X321235040Y-175545080D03*
%TD*%
D11*
%TO.C,REF\u002A\u002A*%
X432345000Y-193942574D03*
D12*
X429805000Y-193942574D03*
%TD*%
D11*
%TO.C,REF\u002A\u002A*%
X450524960Y-19000068D03*
D12*
X447984960Y-19000068D03*
%TD*%
D11*
%TO.C,REF\u002A\u002A*%
X327775040Y-183295080D03*
D12*
X325235040Y-183295080D03*
%TD*%
D11*
%TO.C,REF\u002A\u002A*%
X323775040Y-100545080D03*
D12*
X321235040Y-100545080D03*
%TD*%
D13*
%TO.C,REF\u002A\u002A*%
X345580000Y-48875074D03*
D14*
X335420000Y-48875074D03*
%TD*%
D11*
%TO.C,REF\u002A\u002A*%
X450275000Y-160670074D03*
D12*
X447735000Y-160670074D03*
%TD*%
D13*
%TO.C,REF\u002A\u002A*%
X352025000Y-199692574D03*
D14*
X341865000Y-199692574D03*
%TD*%
D11*
%TO.C,REF\u002A\u002A*%
X440269960Y59249932D03*
D12*
X437729960Y59249932D03*
%TD*%
D11*
%TO.C,REF\u002A\u002A*%
X324025000Y-26375074D03*
D12*
X321485000Y-26375074D03*
%TD*%
D13*
%TO.C,REF\u002A\u002A*%
X471830000Y-78170074D03*
D14*
X461670000Y-78170074D03*
%TD*%
D11*
%TO.C,REF\u002A\u002A*%
X447540000Y-63670074D03*
D12*
X445000000Y-63670074D03*
%TD*%
D11*
%TO.C,REF\u002A\u002A*%
X379949960Y67249932D03*
D12*
X377409960Y67249932D03*
%TD*%
D11*
%TO.C,REF\u002A\u002A*%
X424805000Y-193942574D03*
D12*
X422265000Y-193942574D03*
%TD*%
D11*
%TO.C,REF\u002A\u002A*%
X379700000Y-59420074D03*
D12*
X377160000Y-59420074D03*
%TD*%
D11*
%TO.C,REF\u002A\u002A*%
X424805000Y-185942574D03*
D12*
X422265000Y-185942574D03*
%TD*%
D11*
%TO.C,REF\u002A\u002A*%
X458524960Y33499932D03*
D12*
X455984960Y33499932D03*
%TD*%
D11*
%TO.C,REF\u002A\u002A*%
X331775040Y-85545080D03*
D12*
X329235040Y-85545080D03*
%TD*%
D11*
%TO.C,REF\u002A\u002A*%
X331775040Y-78045080D03*
D12*
X329235040Y-78045080D03*
%TD*%
D11*
%TO.C,REF\u002A\u002A*%
X458275000Y-138170074D03*
D12*
X455735000Y-138170074D03*
%TD*%
D11*
%TO.C,REF\u002A\u002A*%
X447789960Y62999932D03*
D12*
X445249960Y62999932D03*
%TD*%
D11*
%TO.C,REF\u002A\u002A*%
X424940000Y-59420074D03*
D12*
X422400000Y-59420074D03*
%TD*%
D11*
%TO.C,REF\u002A\u002A*%
X323775040Y-115545080D03*
D12*
X321235040Y-115545080D03*
%TD*%
D11*
%TO.C,REF\u002A\u002A*%
X332025000Y-48875074D03*
D12*
X329485000Y-48875074D03*
%TD*%
D11*
%TO.C,REF\u002A\u002A*%
X432345000Y-185942574D03*
D12*
X429805000Y-185942574D03*
%TD*%
D11*
%TO.C,REF\u002A\u002A*%
X425189960Y59249932D03*
D12*
X422649960Y59249932D03*
%TD*%
D11*
%TO.C,REF\u002A\u002A*%
X450524960Y-41500068D03*
D12*
X447984960Y-41500068D03*
%TD*%
D11*
%TO.C,REF\u002A\u002A*%
X417649960Y59249932D03*
D12*
X415109960Y59249932D03*
%TD*%
D15*
%TO.C,REF\u002A\u002A*%
X404840000Y-140600000D03*
D16*
X402300000Y-140600000D03*
X399760000Y-140600000D03*
X397220000Y-140600000D03*
X394680000Y-140600000D03*
X392140000Y-140600000D03*
X389600000Y-140600000D03*
X387060000Y-140600000D03*
%TD*%
D11*
%TO.C,REF\u002A\u002A*%
X458524960Y-4000068D03*
D12*
X455984960Y-4000068D03*
%TD*%
D11*
%TO.C,REF\u002A\u002A*%
X387240000Y-67420074D03*
D12*
X384700000Y-67420074D03*
%TD*%
D11*
%TO.C,REF\u002A\u002A*%
X439885000Y-185942574D03*
D12*
X437345000Y-185942574D03*
%TD*%
D13*
%TO.C,REF\u002A\u002A*%
X425000000Y-82250074D03*
D14*
X425000000Y-72090074D03*
%TD*%
D13*
%TO.C,REF\u002A\u002A*%
X472079960Y-26500068D03*
D14*
X461919960Y-26500068D03*
%TD*%
D11*
%TO.C,REF\u002A\u002A*%
X450524960Y-26500068D03*
D12*
X447984960Y-26500068D03*
%TD*%
D11*
%TO.C,REF\u002A\u002A*%
X454524960Y56249932D03*
D12*
X451984960Y56249932D03*
%TD*%
D11*
%TO.C,REF\u002A\u002A*%
X372409960Y67249932D03*
D12*
X369869960Y67249932D03*
%TD*%
D11*
%TO.C,REF\u002A\u002A*%
X331775040Y-145545080D03*
D12*
X329235040Y-145545080D03*
%TD*%
D17*
%TO.C,REF\u002A\u002A*%
X367000000Y-62230000D03*
D18*
X367000000Y-52070000D03*
%TD*%
D11*
%TO.C,REF\u002A\u002A*%
X323775040Y-160545080D03*
D12*
X321235040Y-160545080D03*
%TD*%
D11*
%TO.C,REF\u002A\u002A*%
X450524960Y48499932D03*
D12*
X447984960Y48499932D03*
%TD*%
D13*
%TO.C,REF\u002A\u002A*%
X345330040Y-78045080D03*
D14*
X335170040Y-78045080D03*
%TD*%
D13*
%TO.C,REF\u002A\u002A*%
X387115000Y-208772574D03*
D14*
X387115000Y-198612574D03*
%TD*%
D11*
%TO.C,REF\u002A\u002A*%
X331775040Y-123045080D03*
D12*
X329235040Y-123045080D03*
%TD*%
D11*
%TO.C,REF\u002A\u002A*%
X364869960Y67249932D03*
D12*
X362329960Y67249932D03*
%TD*%
D11*
%TO.C,REF\u002A\u002A*%
X394645000Y-193942574D03*
D12*
X392105000Y-193942574D03*
%TD*%
D11*
%TO.C,REF\u002A\u002A*%
X450524960Y-11500068D03*
D12*
X447984960Y-11500068D03*
%TD*%
D11*
%TO.C,REF\u002A\u002A*%
X332025000Y3624926D03*
D12*
X329485000Y3624926D03*
%TD*%
D13*
%TO.C,REF\u002A\u002A*%
X387499960Y44419932D03*
D14*
X387499960Y54579932D03*
%TD*%
D13*
%TO.C,REF\u002A\u002A*%
X345580000Y41124926D03*
D14*
X335420000Y41124926D03*
%TD*%
D13*
%TO.C,REF\u002A\u002A*%
X437365000Y-208772574D03*
D14*
X437365000Y-198612574D03*
%TD*%
D11*
%TO.C,REF\u002A\u002A*%
X458524960Y25999932D03*
D12*
X455984960Y25999932D03*
%TD*%
D17*
%TO.C,REF\u002A\u002A*%
X445800000Y-127000000D03*
D18*
X435640000Y-127000000D03*
%TD*%
D11*
%TO.C,REF\u002A\u002A*%
X432480000Y-59420074D03*
D12*
X429940000Y-59420074D03*
%TD*%
D11*
%TO.C,REF\u002A\u002A*%
X395029960Y67249932D03*
D12*
X392489960Y67249932D03*
%TD*%
D11*
%TO.C,REF\u002A\u002A*%
X417265000Y-193942574D03*
D12*
X414725000Y-193942574D03*
%TD*%
D13*
%TO.C,REF\u002A\u002A*%
X472079960Y48499932D03*
D14*
X461919960Y48499932D03*
%TD*%
D13*
%TO.C,REF\u002A\u002A*%
X345330040Y-108045080D03*
D14*
X335170040Y-108045080D03*
%TD*%
D11*
%TO.C,REF\u002A\u002A*%
X450524960Y3499932D03*
D12*
X447984960Y3499932D03*
%TD*%
D17*
%TO.C,REF\u002A\u002A*%
X412200000Y-127770000D03*
D18*
X412200000Y-137930000D03*
%TD*%
D17*
%TO.C,REF\u002A\u002A*%
X382400000Y-92430000D03*
D18*
X382400000Y-82270000D03*
%TD*%
D11*
%TO.C,REF\u002A\u002A*%
X450524960Y-34000068D03*
D12*
X447984960Y-34000068D03*
%TD*%
D11*
%TO.C,REF\u002A\u002A*%
X450275000Y-93170074D03*
D12*
X447735000Y-93170074D03*
%TD*%
D11*
%TO.C,REF\u002A\u002A*%
X394780000Y-67420074D03*
D12*
X392240000Y-67420074D03*
%TD*%
D11*
%TO.C,REF\u002A\u002A*%
X331775040Y-115545080D03*
D12*
X329235040Y-115545080D03*
%TD*%
D11*
%TO.C,REF\u002A\u002A*%
X324025000Y-3875074D03*
D12*
X321485000Y-3875074D03*
%TD*%
D11*
%TO.C,REF\u002A\u002A*%
X332025000Y-18875074D03*
D12*
X329485000Y-18875074D03*
%TD*%
D11*
%TO.C,REF\u002A\u002A*%
X332025000Y-41375074D03*
D12*
X329485000Y-41375074D03*
%TD*%
D11*
%TO.C,REF\u002A\u002A*%
X450275000Y-108170074D03*
D12*
X447735000Y-108170074D03*
%TD*%
D11*
%TO.C,REF\u002A\u002A*%
X458275000Y-175670074D03*
D12*
X455735000Y-175670074D03*
%TD*%
D11*
%TO.C,REF\u002A\u002A*%
X387105000Y-193942574D03*
D12*
X384565000Y-193942574D03*
%TD*%
D11*
%TO.C,REF\u002A\u002A*%
X387240000Y-59420074D03*
D12*
X384700000Y-59420074D03*
%TD*%
D11*
%TO.C,REF\u002A\u002A*%
X439885000Y-193942574D03*
D12*
X437345000Y-193942574D03*
%TD*%
D11*
%TO.C,REF\u002A\u002A*%
X458275000Y-93170074D03*
D12*
X455735000Y-93170074D03*
%TD*%
D11*
%TO.C,REF\u002A\u002A*%
X450524960Y25999932D03*
D12*
X447984960Y25999932D03*
%TD*%
D19*
%TO.C,REF\u002A\u002A*%
X484250000Y-206250074D03*
X487250000Y-203250074D03*
X482128680Y-205371394D03*
X481250000Y-203250074D03*
X482128680Y-201128754D03*
X484250000Y-200250074D03*
X486371320Y-201128754D03*
X486371320Y-205371394D03*
D20*
X484250000Y-203250074D03*
%TD*%
D19*
%TO.C,REF\u002A\u002A*%
X304128680Y69871246D03*
X304128680Y65628606D03*
D20*
X306250000Y67749926D03*
D19*
X306250000Y64749926D03*
X308371320Y65628606D03*
X309250000Y67749926D03*
X306250000Y70749926D03*
X303250000Y67749926D03*
X308371320Y69871246D03*
%TD*%
D11*
%TO.C,REF\u002A\u002A*%
X409725000Y-185942574D03*
D12*
X407185000Y-185942574D03*
%TD*%
D11*
%TO.C,REF\u002A\u002A*%
X410109960Y67249932D03*
D12*
X407569960Y67249932D03*
%TD*%
D11*
%TO.C,REF\u002A\u002A*%
X324025000Y41124926D03*
D12*
X321485000Y41124926D03*
%TD*%
D13*
%TO.C,REF\u002A\u002A*%
X472079960Y-34000068D03*
D14*
X461919960Y-34000068D03*
%TD*%
D11*
%TO.C,REF\u002A\u002A*%
X432480000Y-67420074D03*
D12*
X429940000Y-67420074D03*
%TD*%
D13*
%TO.C,REF\u002A\u002A*%
X472079960Y40999932D03*
D14*
X461919960Y40999932D03*
%TD*%
D11*
%TO.C,REF\u002A\u002A*%
X425189960Y67249932D03*
D12*
X422649960Y67249932D03*
%TD*%
D13*
%TO.C,REF\u002A\u002A*%
X472079960Y-4000068D03*
D14*
X461919960Y-4000068D03*
%TD*%
D11*
%TO.C,REF\u002A\u002A*%
X324025000Y3624926D03*
D12*
X321485000Y3624926D03*
%TD*%
D11*
%TO.C,REF\u002A\u002A*%
X324025000Y18624926D03*
D12*
X321485000Y18624926D03*
%TD*%
D11*
%TO.C,REF\u002A\u002A*%
X450275000Y-100670074D03*
D12*
X447735000Y-100670074D03*
%TD*%
D13*
%TO.C,REF\u002A\u002A*%
X364365000Y-208772574D03*
D14*
X364365000Y-198612574D03*
%TD*%
D13*
%TO.C,REF\u002A\u002A*%
X471830000Y-115670074D03*
D14*
X461670000Y-115670074D03*
%TD*%
D11*
%TO.C,REF\u002A\u002A*%
X341865000Y-185942574D03*
D12*
X339325000Y-185942574D03*
%TD*%
D11*
%TO.C,REF\u002A\u002A*%
X356945000Y-193942574D03*
D12*
X354405000Y-193942574D03*
%TD*%
D11*
%TO.C,REF\u002A\u002A*%
X379949960Y59249932D03*
D12*
X377409960Y59249932D03*
%TD*%
D11*
%TO.C,REF\u002A\u002A*%
X440020000Y-67420074D03*
D12*
X437480000Y-67420074D03*
%TD*%
D11*
%TO.C,REF\u002A\u002A*%
X458524960Y-34000068D03*
D12*
X455984960Y-34000068D03*
%TD*%
D11*
%TO.C,REF\u002A\u002A*%
X328025000Y56374926D03*
D12*
X325485000Y56374926D03*
%TD*%
D13*
%TO.C,REF\u002A\u002A*%
X471910000Y-93170074D03*
D14*
X461750000Y-93170074D03*
%TD*%
D11*
%TO.C,REF\u002A\u002A*%
X409860000Y-59420074D03*
D12*
X407320000Y-59420074D03*
%TD*%
D13*
%TO.C,REF\u002A\u002A*%
X472079960Y-11500068D03*
D14*
X461919960Y-11500068D03*
%TD*%
D11*
%TO.C,REF\u002A\u002A*%
X450275000Y-145670074D03*
D12*
X447735000Y-145670074D03*
%TD*%
D11*
%TO.C,REF\u002A\u002A*%
X440020000Y-59420074D03*
D12*
X437480000Y-59420074D03*
%TD*%
D11*
%TO.C,REF\u002A\u002A*%
X331775040Y-175545080D03*
D12*
X329235040Y-175545080D03*
%TD*%
D13*
%TO.C,REF\u002A\u002A*%
X471830000Y-108170074D03*
D14*
X461670000Y-108170074D03*
%TD*%
D13*
%TO.C,REF\u002A\u002A*%
X472079960Y18499932D03*
D14*
X461919960Y18499932D03*
%TD*%
D11*
%TO.C,REF\u002A\u002A*%
X450275000Y-123170074D03*
D12*
X447735000Y-123170074D03*
%TD*%
D11*
%TO.C,REF\u002A\u002A*%
X394645000Y-185942574D03*
D12*
X392105000Y-185942574D03*
%TD*%
D11*
%TO.C,REF\u002A\u002A*%
X332025000Y41124926D03*
D12*
X329485000Y41124926D03*
%TD*%
D13*
%TO.C,REF\u002A\u002A*%
X471830000Y-130670074D03*
D14*
X461670000Y-130670074D03*
%TD*%
D11*
%TO.C,REF\u002A\u002A*%
X458524960Y3499932D03*
D12*
X455984960Y3499932D03*
%TD*%
D11*
%TO.C,REF\u002A\u002A*%
X450275000Y-138170074D03*
D12*
X447735000Y-138170074D03*
%TD*%
D13*
%TO.C,REF\u002A\u002A*%
X409615000Y-208772574D03*
D14*
X409615000Y-198612574D03*
%TD*%
D11*
%TO.C,REF\u002A\u002A*%
X402569960Y67249932D03*
D12*
X400029960Y67249932D03*
%TD*%
D11*
%TO.C,REF\u002A\u002A*%
X458524960Y18499932D03*
D12*
X455984960Y18499932D03*
%TD*%
D11*
%TO.C,REF\u002A\u002A*%
X332025000Y26124926D03*
D12*
X329485000Y26124926D03*
%TD*%
D13*
%TO.C,REF\u002A\u002A*%
X379615000Y-208772574D03*
D14*
X379615000Y-198612574D03*
%TD*%
D11*
%TO.C,REF\u002A\u002A*%
X332025000Y11124926D03*
D12*
X329485000Y11124926D03*
%TD*%
D11*
%TO.C,REF\u002A\u002A*%
X332025000Y33624926D03*
D12*
X329485000Y33624926D03*
%TD*%
D11*
%TO.C,REF\u002A\u002A*%
X372409960Y59249932D03*
D12*
X369869960Y59249932D03*
%TD*%
D11*
%TO.C,REF\u002A\u002A*%
X458524960Y-26500068D03*
D12*
X455984960Y-26500068D03*
%TD*%
D11*
%TO.C,REF\u002A\u002A*%
X332025000Y-26375074D03*
D12*
X329485000Y-26375074D03*
%TD*%
D11*
%TO.C,REF\u002A\u002A*%
X379565000Y-185942574D03*
D12*
X377025000Y-185942574D03*
%TD*%
D15*
%TO.C,REF\u002A\u002A*%
X404875000Y-145400000D03*
D16*
X402335000Y-145400000D03*
X399795000Y-145400000D03*
X397255000Y-145400000D03*
X394715000Y-145400000D03*
X392175000Y-145400000D03*
X389635000Y-145400000D03*
X387095000Y-145400000D03*
%TD*%
D11*
%TO.C,REF\u002A\u002A*%
X323775040Y-123045080D03*
D12*
X321235040Y-123045080D03*
%TD*%
D13*
%TO.C,REF\u002A\u002A*%
X379750000Y-82250074D03*
D14*
X379750000Y-72090074D03*
%TD*%
D11*
%TO.C,REF\u002A\u002A*%
X372160000Y-59420074D03*
D12*
X369620000Y-59420074D03*
%TD*%
D13*
%TO.C,REF\u002A\u002A*%
X402250000Y-82250074D03*
D14*
X402250000Y-72090074D03*
%TD*%
D11*
%TO.C,REF\u002A\u002A*%
X424940000Y-67420074D03*
D12*
X422400000Y-67420074D03*
%TD*%
D11*
%TO.C,REF\u002A\u002A*%
X323775040Y-108045080D03*
D12*
X321235040Y-108045080D03*
%TD*%
D11*
%TO.C,REF\u002A\u002A*%
X454275000Y-70420074D03*
D12*
X451735000Y-70420074D03*
%TD*%
D11*
%TO.C,REF\u002A\u002A*%
X458524960Y-19000068D03*
D12*
X455984960Y-19000068D03*
%TD*%
D11*
%TO.C,REF\u002A\u002A*%
X402185000Y-185942574D03*
D12*
X399645000Y-185942574D03*
%TD*%
D11*
%TO.C,REF\u002A\u002A*%
X395029960Y59249932D03*
D12*
X392489960Y59249932D03*
%TD*%
D11*
%TO.C,REF\u002A\u002A*%
X332025000Y48624926D03*
D12*
X329485000Y48624926D03*
%TD*%
D11*
%TO.C,REF\u002A\u002A*%
X402185000Y-193942574D03*
D12*
X399645000Y-193942574D03*
%TD*%
D13*
%TO.C,REF\u002A\u002A*%
X437500000Y-82250074D03*
D14*
X437500000Y-72090074D03*
%TD*%
D11*
%TO.C,REF\u002A\u002A*%
X458524960Y48499932D03*
D12*
X455984960Y48499932D03*
%TD*%
D11*
%TO.C,REF\u002A\u002A*%
X324025000Y26124926D03*
D12*
X321485000Y26124926D03*
%TD*%
D11*
%TO.C,REF\u002A\u002A*%
X356945000Y-185942574D03*
D12*
X354405000Y-185942574D03*
%TD*%
D13*
%TO.C,REF\u002A\u002A*%
X345580000Y-11375074D03*
D14*
X335420000Y-11375074D03*
%TD*%
D11*
%TO.C,REF\u002A\u002A*%
X458275000Y-108170074D03*
D12*
X455735000Y-108170074D03*
%TD*%
D13*
%TO.C,REF\u002A\u002A*%
X345580000Y18624926D03*
D14*
X335420000Y18624926D03*
%TD*%
D11*
%TO.C,REF\u002A\u002A*%
X334525000Y-63420074D03*
D12*
X331985000Y-63420074D03*
%TD*%
D11*
%TO.C,REF\u002A\u002A*%
X409860000Y-67420074D03*
D12*
X407320000Y-67420074D03*
%TD*%
D11*
%TO.C,REF\u002A\u002A*%
X458275000Y-160670074D03*
D12*
X455735000Y-160670074D03*
%TD*%
D13*
%TO.C,REF\u002A\u002A*%
X471830000Y-153170074D03*
D14*
X461670000Y-153170074D03*
%TD*%
D19*
%TO.C,REF\u002A\u002A*%
X304128680Y-201128754D03*
D20*
X306250000Y-203250074D03*
D19*
X308371320Y-205371394D03*
X309250000Y-203250074D03*
X304128680Y-205371394D03*
X306250000Y-200250074D03*
X306250000Y-206250074D03*
X308371320Y-201128754D03*
X303250000Y-203250074D03*
%TD*%
D11*
%TO.C,REF\u002A\u002A*%
X432729960Y59249932D03*
D12*
X430189960Y59249932D03*
%TD*%
D13*
%TO.C,REF\u002A\u002A*%
X345410040Y-93045080D03*
D14*
X335250040Y-93045080D03*
%TD*%
D11*
%TO.C,REF\u002A\u002A*%
X402320000Y-67420074D03*
D12*
X399780000Y-67420074D03*
%TD*%
D11*
%TO.C,REF\u002A\u002A*%
X458275000Y-78170074D03*
D12*
X455735000Y-78170074D03*
%TD*%
D11*
%TO.C,REF\u002A\u002A*%
X357329960Y59249932D03*
D12*
X354789960Y59249932D03*
%TD*%
D11*
%TO.C,REF\u002A\u002A*%
X342249960Y67249932D03*
D12*
X339709960Y67249932D03*
%TD*%
D17*
%TO.C,REF\u002A\u002A*%
X447600000Y-104400000D03*
D18*
X437440000Y-104400000D03*
%TD*%
D11*
%TO.C,REF\u002A\u002A*%
X458275000Y-168170074D03*
D12*
X455735000Y-168170074D03*
%TD*%
D11*
%TO.C,REF\u002A\u002A*%
X458275000Y-130670074D03*
D12*
X455735000Y-130670074D03*
%TD*%
D11*
%TO.C,REF\u002A\u002A*%
X349405000Y-185942574D03*
D12*
X346865000Y-185942574D03*
%TD*%
D13*
%TO.C,REF\u002A\u002A*%
X402115000Y-208772574D03*
D14*
X402115000Y-198612574D03*
%TD*%
D13*
%TO.C,REF\u002A\u002A*%
X345330040Y-115545080D03*
D14*
X335170040Y-115545080D03*
%TD*%
D11*
%TO.C,REF\u002A\u002A*%
X417649960Y67249932D03*
D12*
X415109960Y67249932D03*
%TD*%
D11*
%TO.C,REF\u002A\u002A*%
X387105000Y-185942574D03*
D12*
X384565000Y-185942574D03*
%TD*%
D11*
%TO.C,REF\u002A\u002A*%
X331775040Y-160545080D03*
D12*
X329235040Y-160545080D03*
%TD*%
D11*
%TO.C,REF\u002A\u002A*%
X458524960Y-49000068D03*
D12*
X455984960Y-49000068D03*
%TD*%
D17*
%TO.C,REF\u002A\u002A*%
X427400000Y-62600000D03*
D18*
X427400000Y-52440000D03*
%TD*%
D13*
%TO.C,REF\u002A\u002A*%
X345330040Y-175545080D03*
D14*
X335170040Y-175545080D03*
%TD*%
D11*
%TO.C,REF\u002A\u002A*%
X332025000Y-3875074D03*
D12*
X329485000Y-3875074D03*
%TD*%
D11*
%TO.C,REF\u002A\u002A*%
X323775040Y-153045080D03*
D12*
X321235040Y-153045080D03*
%TD*%
D11*
%TO.C,REF\u002A\u002A*%
X387489960Y67249932D03*
D12*
X384949960Y67249932D03*
%TD*%
D11*
%TO.C,REF\u002A\u002A*%
X323775040Y-168045080D03*
D12*
X321235040Y-168045080D03*
%TD*%
D11*
%TO.C,REF\u002A\u002A*%
X364620000Y-59420074D03*
D12*
X362080000Y-59420074D03*
%TD*%
D13*
%TO.C,REF\u002A\u002A*%
X345580000Y-3875074D03*
D14*
X335420000Y-3875074D03*
%TD*%
D17*
%TO.C,REF\u002A\u002A*%
X367000000Y-88230000D03*
D18*
X367000000Y-78070000D03*
%TD*%
D11*
%TO.C,REF\u002A\u002A*%
X331775040Y-168045080D03*
D12*
X329235040Y-168045080D03*
%TD*%
D11*
%TO.C,REF\u002A\u002A*%
X450524960Y-4000068D03*
D12*
X447984960Y-4000068D03*
%TD*%
D11*
%TO.C,REF\u002A\u002A*%
X432729960Y67249932D03*
D12*
X430189960Y67249932D03*
%TD*%
D11*
%TO.C,REF\u002A\u002A*%
X324025000Y33624926D03*
D12*
X321485000Y33624926D03*
%TD*%
D13*
%TO.C,REF\u002A\u002A*%
X345580000Y-33875074D03*
D14*
X335420000Y-33875074D03*
%TD*%
D13*
%TO.C,REF\u002A\u002A*%
X432365000Y-208772574D03*
D14*
X432365000Y-198612574D03*
%TD*%
D11*
%TO.C,REF\u002A\u002A*%
X323775040Y-85545080D03*
D12*
X321235040Y-85545080D03*
%TD*%
D11*
%TO.C,REF\u002A\u002A*%
X450275000Y-168170074D03*
D12*
X447735000Y-168170074D03*
%TD*%
D13*
%TO.C,REF\u002A\u002A*%
X352409960Y53499932D03*
D14*
X342249960Y53499932D03*
%TD*%
D13*
%TO.C,REF\u002A\u002A*%
X345330040Y-160545080D03*
D14*
X335170040Y-160545080D03*
%TD*%
D13*
%TO.C,REF\u002A\u002A*%
X345580000Y11124926D03*
D14*
X335420000Y11124926D03*
%TD*%
D11*
%TO.C,REF\u002A\u002A*%
X331775040Y-153045080D03*
D12*
X329235040Y-153045080D03*
%TD*%
D11*
%TO.C,REF\u002A\u002A*%
X447405000Y-190192574D03*
D12*
X444865000Y-190192574D03*
%TD*%
D11*
%TO.C,REF\u002A\u002A*%
X323775040Y-93045080D03*
D12*
X321235040Y-93045080D03*
%TD*%
D11*
%TO.C,REF\u002A\u002A*%
X349789960Y67249932D03*
D12*
X347249960Y67249932D03*
%TD*%
D11*
%TO.C,REF\u002A\u002A*%
X417400000Y-59420074D03*
D12*
X414860000Y-59420074D03*
%TD*%
D11*
%TO.C,REF\u002A\u002A*%
X450524960Y33499932D03*
D12*
X447984960Y33499932D03*
%TD*%
D13*
%TO.C,REF\u002A\u002A*%
X437749960Y44419932D03*
D14*
X437749960Y54579932D03*
%TD*%
D11*
%TO.C,REF\u002A\u002A*%
X324025000Y48624926D03*
D12*
X321485000Y48624926D03*
%TD*%
D11*
%TO.C,REF\u002A\u002A*%
X379565000Y-193942574D03*
D12*
X377025000Y-193942574D03*
%TD*%
D11*
%TO.C,REF\u002A\u002A*%
X450524960Y10999932D03*
D12*
X447984960Y10999932D03*
%TD*%
D11*
%TO.C,REF\u002A\u002A*%
X458275000Y-123170074D03*
D12*
X455735000Y-123170074D03*
%TD*%
D13*
%TO.C,REF\u002A\u002A*%
X345580000Y48624926D03*
D14*
X335420000Y48624926D03*
%TD*%
D11*
%TO.C,REF\u002A\u002A*%
X417265000Y-185942574D03*
D12*
X414725000Y-185942574D03*
%TD*%
D13*
%TO.C,REF\u002A\u002A*%
X472159960Y33499932D03*
D14*
X461999960Y33499932D03*
%TD*%
D13*
%TO.C,REF\u002A\u002A*%
X357000000Y-82250074D03*
D14*
X357000000Y-72090074D03*
%TD*%
D11*
%TO.C,REF\u002A\u002A*%
X458524960Y-11500068D03*
D12*
X455984960Y-11500068D03*
%TD*%
D11*
%TO.C,REF\u002A\u002A*%
X324025000Y11124926D03*
D12*
X321485000Y11124926D03*
%TD*%
D11*
%TO.C,REF\u002A\u002A*%
X357080000Y-67420074D03*
D12*
X354540000Y-67420074D03*
%TD*%
D11*
%TO.C,REF\u002A\u002A*%
X450275000Y-175670074D03*
D12*
X447735000Y-175670074D03*
%TD*%
D11*
%TO.C,REF\u002A\u002A*%
X323775040Y-138045080D03*
D12*
X321235040Y-138045080D03*
%TD*%
D11*
%TO.C,REF\u002A\u002A*%
X357329960Y67249932D03*
D12*
X354789960Y67249932D03*
%TD*%
D11*
%TO.C,REF\u002A\u002A*%
X458275000Y-153170074D03*
D12*
X455735000Y-153170074D03*
%TD*%
D11*
%TO.C,REF\u002A\u002A*%
X349405000Y-193942574D03*
D12*
X346865000Y-193942574D03*
%TD*%
D13*
%TO.C,REF\u002A\u002A*%
X471830000Y-160670074D03*
D14*
X461670000Y-160670074D03*
%TD*%
D11*
%TO.C,REF\u002A\u002A*%
X450275000Y-115670074D03*
D12*
X447735000Y-115670074D03*
%TD*%
D11*
%TO.C,REF\u002A\u002A*%
X332025000Y-11375074D03*
D12*
X329485000Y-11375074D03*
%TD*%
D11*
%TO.C,REF\u002A\u002A*%
X331775040Y-108045080D03*
D12*
X329235040Y-108045080D03*
%TD*%
D11*
%TO.C,REF\u002A\u002A*%
X349789960Y59249932D03*
D12*
X347249960Y59249932D03*
%TD*%
D11*
%TO.C,REF\u002A\u002A*%
X324025000Y-48875074D03*
D12*
X321485000Y-48875074D03*
%TD*%
D11*
%TO.C,REF\u002A\u002A*%
X327775040Y-70295080D03*
D12*
X325235040Y-70295080D03*
%TD*%
D11*
%TO.C,REF\u002A\u002A*%
X349540000Y-67420074D03*
D12*
X347000000Y-67420074D03*
%TD*%
D13*
%TO.C,REF\u002A\u002A*%
X471830000Y-175670074D03*
D14*
X461670000Y-175670074D03*
%TD*%
D13*
%TO.C,REF\u002A\u002A*%
X364749960Y44419932D03*
D14*
X364749960Y54579932D03*
%TD*%
D11*
%TO.C,REF\u002A\u002A*%
X341890000Y-193942574D03*
D12*
X339350000Y-193942574D03*
%TD*%
D11*
%TO.C,REF\u002A\u002A*%
X450524960Y-49000068D03*
D12*
X447984960Y-49000068D03*
%TD*%
D11*
%TO.C,REF\u002A\u002A*%
X454275000Y-183420074D03*
D12*
X451735000Y-183420074D03*
%TD*%
D11*
%TO.C,REF\u002A\u002A*%
X440269960Y67249932D03*
D12*
X437729960Y67249932D03*
%TD*%
D13*
%TO.C,REF\u002A\u002A*%
X345330040Y-153045080D03*
D14*
X335170040Y-153045080D03*
%TD*%
D11*
%TO.C,REF\u002A\u002A*%
X328025000Y-56625074D03*
D12*
X325485000Y-56625074D03*
%TD*%
D11*
%TO.C,REF\u002A\u002A*%
X458524960Y10999932D03*
D12*
X455984960Y10999932D03*
%TD*%
D11*
%TO.C,REF\u002A\u002A*%
X334774960Y63249932D03*
D12*
X332234960Y63249932D03*
%TD*%
D11*
%TO.C,REF\u002A\u002A*%
X364869960Y59249932D03*
D12*
X362329960Y59249932D03*
%TD*%
D11*
%TO.C,REF\u002A\u002A*%
X458275000Y-145670074D03*
D12*
X455735000Y-145670074D03*
%TD*%
D11*
%TO.C,REF\u002A\u002A*%
X409725000Y-193942574D03*
D12*
X407185000Y-193942574D03*
%TD*%
D11*
%TO.C,REF\u002A\u002A*%
X323775040Y-78045080D03*
D12*
X321235040Y-78045080D03*
%TD*%
D13*
%TO.C,REF\u002A\u002A*%
X345580000Y-26375074D03*
D14*
X335420000Y-26375074D03*
%TD*%
D11*
%TO.C,REF\u002A\u002A*%
X324025000Y-18875074D03*
D12*
X321485000Y-18875074D03*
%TD*%
D13*
%TO.C,REF\u002A\u002A*%
X425249960Y44419932D03*
D14*
X425249960Y54579932D03*
%TD*%
D11*
%TO.C,REF\u002A\u002A*%
X324025000Y-33875074D03*
D12*
X321485000Y-33875074D03*
%TD*%
D11*
%TO.C,REF\u002A\u002A*%
X342274960Y59249932D03*
D12*
X339734960Y59249932D03*
%TD*%
D13*
%TO.C,REF\u002A\u002A*%
X345330040Y-138045080D03*
D14*
X335170040Y-138045080D03*
%TD*%
D11*
%TO.C,REF\u002A\u002A*%
X334390000Y-189942574D03*
D12*
X331850000Y-189942574D03*
%TD*%
D11*
%TO.C,REF\u002A\u002A*%
X342000000Y-59420074D03*
D12*
X339460000Y-59420074D03*
%TD*%
D13*
%TO.C,REF\u002A\u002A*%
X432749960Y44419932D03*
D14*
X432749960Y54579932D03*
%TD*%
D13*
%TO.C,REF\u002A\u002A*%
X402499960Y44419932D03*
D14*
X402499960Y54579932D03*
%TD*%
D13*
%TO.C,REF\u002A\u002A*%
X471830000Y-85670074D03*
D14*
X461670000Y-85670074D03*
%TD*%
D13*
%TO.C,REF\u002A\u002A*%
X352160000Y-73170074D03*
D14*
X342000000Y-73170074D03*
%TD*%
D11*
%TO.C,REF\u002A\u002A*%
X364485000Y-185942574D03*
D12*
X361945000Y-185942574D03*
%TD*%
D13*
%TO.C,REF\u002A\u002A*%
X409750000Y-82250074D03*
D14*
X409750000Y-72090074D03*
%TD*%
D13*
%TO.C,REF\u002A\u002A*%
X432500000Y-82250074D03*
D14*
X432500000Y-72090074D03*
%TD*%
D11*
%TO.C,REF\u002A\u002A*%
X323775040Y-145545080D03*
D12*
X321235040Y-145545080D03*
%TD*%
D13*
%TO.C,REF\u002A\u002A*%
X472079960Y10999932D03*
D14*
X461919960Y10999932D03*
%TD*%
D11*
%TO.C,REF\u002A\u002A*%
X364620000Y-67420074D03*
D12*
X362080000Y-67420074D03*
%TD*%
D11*
%TO.C,REF\u002A\u002A*%
X450275000Y-130670074D03*
D12*
X447735000Y-130670074D03*
%TD*%
D11*
%TO.C,REF\u002A\u002A*%
X454524960Y-56750068D03*
D12*
X451984960Y-56750068D03*
%TD*%
D13*
%TO.C,REF\u002A\u002A*%
X424865000Y-208772574D03*
D14*
X424865000Y-198612574D03*
%TD*%
D11*
%TO.C,REF\u002A\u002A*%
X331775040Y-138045080D03*
D12*
X329235040Y-138045080D03*
%TD*%
D13*
%TO.C,REF\u002A\u002A*%
X472079960Y-49000068D03*
D14*
X461919960Y-49000068D03*
%TD*%
D11*
%TO.C,REF\u002A\u002A*%
X372025000Y-185942574D03*
D12*
X369485000Y-185942574D03*
%TD*%
D13*
%TO.C,REF\u002A\u002A*%
X345330040Y-130545080D03*
D14*
X335170040Y-130545080D03*
%TD*%
D13*
%TO.C,REF\u002A\u002A*%
X364500000Y-82250074D03*
D14*
X364500000Y-72090074D03*
%TD*%
D11*
%TO.C,REF\u002A\u002A*%
X417400000Y-67420074D03*
D12*
X414860000Y-67420074D03*
%TD*%
D11*
%TO.C,REF\u002A\u002A*%
X324025000Y-41375074D03*
D12*
X321485000Y-41375074D03*
%TD*%
D13*
%TO.C,REF\u002A\u002A*%
X345330040Y-85545080D03*
D14*
X335170040Y-85545080D03*
%TD*%
D11*
%TO.C,REF\u002A\u002A*%
X364485000Y-193942574D03*
D12*
X361945000Y-193942574D03*
%TD*%
D11*
%TO.C,REF\u002A\u002A*%
X331775040Y-100545080D03*
D12*
X329235040Y-100545080D03*
%TD*%
D20*
%TO.C,*%
X484250000Y67749926D03*
%TD*%
D11*
%TO.C,REF\u002A\u002A*%
X450275000Y-153170074D03*
D12*
X447735000Y-153170074D03*
%TD*%
D13*
%TO.C,REF\u002A\u002A*%
X471830000Y-138170074D03*
D14*
X461670000Y-138170074D03*
%TD*%
D13*
%TO.C,REF\u002A\u002A*%
X379999960Y44419932D03*
D14*
X379999960Y54579932D03*
%TD*%
D11*
%TO.C,REF\u002A\u002A*%
X331775040Y-130545080D03*
D12*
X329235040Y-130545080D03*
%TD*%
D13*
%TO.C,REF\u002A\u002A*%
X409999960Y44419932D03*
D14*
X409999960Y54579932D03*
%TD*%
D11*
%TO.C,REF\u002A\u002A*%
X450275000Y-78170074D03*
D12*
X447735000Y-78170074D03*
%TD*%
D11*
%TO.C,REF\u002A\u002A*%
X387489960Y59249932D03*
D12*
X384949960Y59249932D03*
%TD*%
D11*
%TO.C,REF\u002A\u002A*%
X331775040Y-93045080D03*
D12*
X329235040Y-93045080D03*
%TD*%
D13*
%TO.C,REF\u002A\u002A*%
X387250000Y-82250074D03*
D14*
X387250000Y-72090074D03*
%TD*%
D11*
%TO.C,REF\u002A\u002A*%
X332025000Y-33875074D03*
D12*
X329485000Y-33875074D03*
%TD*%
D13*
%TO.C,REF\u002A\u002A*%
X357249960Y44419932D03*
D14*
X357249960Y54579932D03*
%TD*%
D11*
%TO.C,REF\u002A\u002A*%
X332025000Y18624926D03*
D12*
X329485000Y18624926D03*
%TD*%
D11*
%TO.C,REF\u002A\u002A*%
X450524960Y18499932D03*
D12*
X447984960Y18499932D03*
%TD*%
D13*
%TO.C,REF\u002A\u002A*%
X345660000Y33624926D03*
D14*
X335500000Y33624926D03*
%TD*%
D11*
%TO.C,REF\u002A\u002A*%
X342025000Y-67420074D03*
D12*
X339485000Y-67420074D03*
%TD*%
D11*
%TO.C,REF\u002A\u002A*%
X458275000Y-115670074D03*
D12*
X455735000Y-115670074D03*
%TD*%
D13*
%TO.C,REF\u002A\u002A*%
X356865000Y-208772574D03*
D14*
X356865000Y-198612574D03*
%TD*%
D11*
%TO.C,REF\u002A\u002A*%
X357080000Y-59420074D03*
D12*
X354540000Y-59420074D03*
%TD*%
D11*
%TO.C,REF\u002A\u002A*%
X450275000Y-85670074D03*
D12*
X447735000Y-85670074D03*
%TD*%
D11*
%TO.C,REF\u002A\u002A*%
X458524960Y-41500068D03*
D12*
X455984960Y-41500068D03*
%TD*%
D11*
%TO.C,REF\u002A\u002A*%
X349540000Y-59420074D03*
D12*
X347000000Y-59420074D03*
%TD*%
D11*
%TO.C,REF\u002A\u002A*%
X324025000Y-11375074D03*
D12*
X321485000Y-11375074D03*
%TD*%
D11*
%TO.C,REF\u002A\u002A*%
X402569960Y59249932D03*
D12*
X400029960Y59249932D03*
%TD*%
D11*
%TO.C,REF\u002A\u002A*%
X402320000Y-59420074D03*
D12*
X399780000Y-59420074D03*
%TD*%
D11*
%TO.C,REF\u002A\u002A*%
X458275000Y-85670074D03*
D12*
X455735000Y-85670074D03*
%TD*%
D11*
%TO.C,REF\u002A\u002A*%
X394780000Y-59420074D03*
D12*
X392240000Y-59420074D03*
%TD*%
D11*
%TO.C,REF\u002A\u002A*%
X410109960Y59249932D03*
D12*
X407569960Y59249932D03*
%TD*%
D11*
%TO.C,REF\u002A\u002A*%
X379700000Y-67420074D03*
D12*
X377160000Y-67420074D03*
%TD*%
D11*
%TO.C,REF\u002A\u002A*%
X450524960Y40999932D03*
D12*
X447984960Y40999932D03*
%TD*%
D17*
%TO.C,REF\u002A\u002A*%
X412200000Y-177970000D03*
D18*
X412200000Y-188130000D03*
%TD*%
D11*
%TO.C,REF\u002A\u002A*%
X458275000Y-100670074D03*
D12*
X455735000Y-100670074D03*
%TD*%
D11*
%TO.C,REF\u002A\u002A*%
X323775040Y-130545080D03*
D12*
X321235040Y-130545080D03*
%TD*%
M02*
